<?xml version="1.0" encoding="UTF-8" standalone="no"?><!DOCTYPE svg PUBLIC "-//W3C//DTD SVG 1.1//EN" "http://www.w3.org/Graphics/SVG/1.1/DTD/svg11.dtd"><svg width="100%" height="100%" viewBox="0 0 178 249" version="1.1" xmlns="http://www.w3.org/2000/svg" xmlns:xlink="http://www.w3.org/1999/xlink" xml:space="preserve" xmlns:serif="http://www.serif.com/" style="fill-rule:evenodd;clip-rule:evenodd;stroke-linejoin:round;stroke-miterlimit:2;"><rect id="_10-clubs" serif:id="10-clubs" x="0" y="0" width="178" height="249" style="fill:none;"/><clipPath id="_clip1"><rect x="0" y="0" width="178" height="249"/></clipPath><g clip-path="url(#_clip1)"><rect x="-1600.21" y="0" width="2312.21" height="1245" style="fill:#fff;"/><g id="_10_clubs" serif:id="10_clubs"><path id="path147-0-8-1-6-13-2-22-1-5" d="M130.275,26.46c-7.829,0.17 -11.34,8.985 -5.542,15.83c0.841,0.998 0.928,1.571 -0.612,0.612c-3.904,-2.61 -11.389,-0.894 -11.772,7.086c-0.474,9.834 13.266,12.667 15.846,2.211c0.136,-1.103 1.032,-1.078 0.816,0.488c-0.235,4.25 -1.562,8.222 -3.387,12.096l9.308,0c-1.825,-3.874 -3.152,-7.846 -3.387,-12.096c-0.217,-1.566 0.68,-1.591 0.816,-0.488c2.58,10.456 16.32,7.623 15.846,-2.211c-0.383,-7.98 -7.868,-9.696 -11.772,-7.086c-1.54,0.959 -1.453,0.386 -0.613,-0.612c5.799,-6.845 2.288,-15.66 -5.541,-15.83c0,0 0,0 -0.008,0l0.002,0Z" style="fill-rule:nonzero;"/><path id="path147-0-8-1-6-75-2-83-21-1-8" d="M47.719,26.46c-7.829,0.17 -11.34,8.985 -5.542,15.83c0.841,0.998 0.928,1.571 -0.612,0.612c-3.904,-2.61 -11.389,-0.894 -11.772,7.086c-0.474,9.834 13.266,12.667 15.846,2.211c0.136,-1.103 1.032,-1.078 0.816,0.488c-0.235,4.25 -1.562,8.222 -3.387,12.096l9.308,0c-1.825,-3.874 -3.152,-7.846 -3.387,-12.096c-0.217,-1.566 0.68,-1.591 0.816,-0.488c2.58,10.456 16.32,7.623 15.846,-2.211c-0.383,-7.98 -7.868,-9.696 -11.772,-7.086c-1.54,0.959 -1.454,0.386 -0.613,-0.612c5.799,-6.845 2.288,-15.66 -5.541,-15.83c0,0 0,0 -0.008,0l0.002,0Z" style="fill-rule:nonzero;"/><path id="path147-0-8-1-6-7-5-5-7-3-5-5" d="M130.275,223.204c-7.829,-0.17 -11.34,-8.985 -5.542,-15.83c0.841,-0.998 0.928,-1.571 -0.612,-0.612c-3.904,2.61 -11.389,0.894 -11.772,-7.086c-0.474,-9.834 13.266,-12.667 15.846,-2.211c0.136,1.103 1.032,1.078 0.816,-0.488c-0.235,-4.25 -1.562,-8.223 -3.387,-12.096l9.308,0c-1.825,3.873 -3.152,7.846 -3.387,12.096c-0.217,1.566 0.68,1.591 0.816,0.488c2.58,-10.456 16.32,-7.623 15.846,2.211c-0.383,7.98 -7.868,9.696 -11.772,7.086c-1.54,-0.959 -1.453,-0.386 -0.613,0.612c5.799,6.845 2.288,15.66 -5.541,15.83c0,0 0,0 -0.008,0l0.002,0Z" style="fill-rule:nonzero;"/><path id="path147-0-8-1-6-75-6-1-2-7-9-3" d="M47.719,223.204c-7.829,-0.17 -11.34,-8.985 -5.542,-15.83c0.841,-0.998 0.928,-1.571 -0.612,-0.612c-3.904,2.61 -11.389,0.894 -11.772,-7.086c-0.474,-9.834 13.266,-12.667 15.846,-2.211c0.136,1.103 1.032,1.078 0.816,-0.488c-0.235,-4.25 -1.562,-8.223 -3.387,-12.096l9.308,0c-1.825,3.873 -3.152,7.846 -3.387,12.096c-0.217,1.566 0.68,1.591 0.816,0.488c2.58,-10.456 16.32,-7.623 15.846,2.211c-0.383,7.98 -7.868,9.696 -11.772,7.086c-1.54,-0.959 -1.454,-0.386 -0.613,0.612c5.799,6.845 2.288,15.66 -5.541,15.83c0,0 0,0 -0.008,0l0.002,0Z" style="fill-rule:nonzero;"/><path id="path147-0-8-1-6-2-00-7-1-1-4" d="M88.997,52.864c-7.829,0.17 -11.34,8.984 -5.542,15.829c0.841,0.999 0.928,1.572 -0.612,0.613c-3.904,-2.611 -11.389,-0.895 -11.773,7.086c-0.473,9.833 13.267,12.667 15.847,2.21c0.136,-1.103 1.032,-1.078 0.816,0.488c-0.235,4.251 -1.562,8.223 -3.387,12.097l9.308,0c-1.825,-3.874 -3.152,-7.846 -3.387,-12.097c-0.217,-1.566 0.68,-1.591 0.816,-0.488c2.58,10.457 16.32,7.623 15.846,-2.21c-0.383,-7.981 -7.868,-9.697 -11.772,-7.086c-1.54,0.959 -1.454,0.386 -0.613,-0.613c5.799,-6.845 2.288,-15.659 -5.541,-15.829c0,0 0,0 -0.008,0l0.002,0Z" style="fill-rule:nonzero;"/><path id="path147-0-8-1-6-2-0-8-6-8-1-8" d="M88.997,196.801c-7.829,-0.17 -11.34,-8.985 -5.542,-15.83c0.841,-0.999 0.928,-1.572 -0.612,-0.613c-3.904,2.611 -11.389,0.895 -11.772,-7.086c-0.474,-9.833 13.266,-12.667 15.846,-2.21c0.136,1.103 1.032,1.078 0.816,-0.488c-0.235,-4.25 -1.562,-8.223 -3.387,-12.097l9.308,0c-1.825,3.874 -3.152,7.847 -3.387,12.097c-0.217,1.566 0.68,1.591 0.816,0.488c2.58,-10.457 16.32,-7.623 15.846,2.21c-0.383,7.981 -7.868,9.697 -11.772,7.086c-1.54,-0.959 -1.453,-0.386 -0.613,0.613c5.799,6.845 2.288,15.66 -5.541,15.83c0,0 0,0 -0.008,0l0.002,0Z" style="fill-rule:nonzero;"/><path id="path147-6-9-8-7-0-5-6-83-3-7" d="M164.273,209.077c3.131,-0.071 4.536,-3.744 2.216,-6.596c-0.336,-0.416 -0.371,-0.655 0.245,-0.255c1.562,1.088 4.556,0.373 4.709,-2.953c0.19,-4.097 -5.306,-5.277 -6.338,-0.921c-0.054,0.46 -0.413,0.45 -0.327,-0.203c0.094,-1.771 0.625,-3.426 1.355,-5.04l-3.723,0c0.73,1.614 1.261,3.269 1.355,5.04c0.087,0.653 -0.272,0.663 -0.326,0.203c-1.032,-4.356 -6.528,-3.176 -6.339,0.921c0.153,3.326 3.148,4.041 4.709,2.953c0.616,-0.4 0.581,-0.161 0.245,0.255c-2.319,2.852 -0.915,6.525 2.217,6.596c0,0 0,0 0,0l0.002,0Z" style="fill-rule:nonzero;"/><path id="path147-0-8-1-6-75-2-9-77-44-0-7" d="M47.719,79.267c-7.829,0.17 -11.34,8.984 -5.542,15.83c0.841,0.998 0.928,1.571 -0.612,0.612c-3.904,-2.611 -11.389,-0.894 -11.772,7.086c-0.474,9.834 13.266,12.667 15.846,2.211c0.136,-1.104 1.032,-1.078 0.816,0.488c-0.235,4.25 -1.562,8.222 -3.387,12.096l9.308,0c-1.825,-3.874 -3.152,-7.846 -3.387,-12.096c-0.217,-1.566 0.68,-1.592 0.816,-0.488c2.58,10.456 16.32,7.623 15.846,-2.211c-0.383,-7.98 -7.868,-9.697 -11.772,-7.086c-1.54,0.959 -1.454,0.386 -0.613,-0.612c5.799,-6.846 2.288,-15.66 -5.541,-15.83c0,0 0,0 -0.008,0l0.002,0Z" style="fill-rule:nonzero;"/><path id="path147-0-8-1-6-75-2-8-0-3-9-3" d="M47.719,170.397c-7.829,-0.17 -11.34,-8.985 -5.542,-15.83c0.841,-0.998 0.928,-1.571 -0.612,-0.612c-3.904,2.611 -11.389,0.894 -11.772,-7.086c-0.474,-9.834 13.266,-12.667 15.846,-2.211c0.136,1.103 1.032,1.078 0.816,-0.488c-0.235,-4.25 -1.562,-8.222 -3.387,-12.096l9.308,0c-1.825,3.874 -3.152,7.846 -3.387,12.096c-0.217,1.566 0.68,1.591 0.816,0.488c2.58,-10.456 16.32,-7.623 15.846,2.211c-0.383,7.98 -7.868,9.697 -11.772,7.086c-1.54,-0.959 -1.454,-0.386 -0.613,0.612c5.799,6.845 2.288,15.66 -5.541,15.83c0,0 0,0 -0.008,0l0.002,0Z" style="fill-rule:nonzero;"/><path id="path147-0-8-1-6-75-2-9-7-1-9-7-9" d="M130.275,79.267c-7.829,0.17 -11.34,8.984 -5.542,15.83c0.841,0.998 0.928,1.571 -0.612,0.612c-3.904,-2.611 -11.389,-0.894 -11.772,7.086c-0.474,9.834 13.266,12.667 15.846,2.211c0.136,-1.104 1.032,-1.078 0.816,0.488c-0.235,4.25 -1.562,8.222 -3.387,12.096l9.308,0c-1.825,-3.874 -3.152,-7.846 -3.387,-12.096c-0.217,-1.566 0.68,-1.592 0.816,-0.488c2.58,10.456 16.32,7.623 15.846,-2.211c-0.383,-7.98 -7.868,-9.697 -11.772,-7.086c-1.54,0.959 -1.453,0.386 -0.613,-0.612c5.799,-6.846 2.288,-15.66 -5.541,-15.83c0,0 0,0 -0.008,0l0.002,0Z" style="fill-rule:nonzero;"/><path id="path147-0-8-1-6-75-2-8-5-1-52-2-8" d="M130.275,170.397c-7.829,-0.17 -11.34,-8.985 -5.542,-15.83c0.841,-0.998 0.928,-1.571 -0.612,-0.612c-3.904,2.611 -11.389,0.894 -11.772,-7.086c-0.474,-9.834 13.266,-12.667 15.846,-2.211c0.136,1.103 1.032,1.078 0.816,-0.488c-0.235,-4.25 -1.562,-8.222 -3.387,-12.096l9.308,0c-1.825,3.874 -3.152,7.846 -3.387,12.096c-0.217,1.566 0.68,1.591 0.816,0.488c2.58,-10.456 16.32,-7.623 15.846,2.211c-0.383,7.98 -7.868,9.697 -11.772,7.086c-1.54,-0.959 -1.453,-0.386 -0.613,0.612c5.799,6.845 2.288,15.66 -5.541,15.83c0,0 0,0 -0.008,0l0.002,0Z" style="fill-rule:nonzero;"/><path id="path147-6-9-8-7-4-5-62-52-8-0" d="M13.728,39.923c-3.132,0.071 -4.536,3.744 -2.217,6.596c0.337,0.416 0.371,0.655 -0.245,0.255c-1.561,-1.088 -4.555,-0.373 -4.709,2.953c-0.189,4.097 5.307,5.277 6.339,0.921c0.054,-0.46 0.413,-0.45 0.326,0.203c-0.094,1.771 -0.625,3.426 -1.354,5.04l3.722,0c-0.729,-1.614 -1.26,-3.269 -1.354,-5.04c-0.087,-0.653 0.272,-0.663 0.326,-0.203c1.032,4.356 6.528,3.176 6.339,-0.921c-0.154,-3.326 -3.148,-4.041 -4.709,-2.953c-0.616,0.4 -0.582,0.161 -0.245,-0.255c2.319,-2.852 0.915,-6.525 -2.217,-6.596c-0.001,0 0,0 0,0l-0.002,0Z" style="fill-rule:nonzero;"/><rect id="path31-6-7-6" x="5.739" y="11.073" width="2.551" height="26.347" style="fill-rule:nonzero;"/><path id="path33-9-3-6" d="M15.851,11.072c-2.456,0 -4.429,2.246 -4.429,5.035l0,16.278c0,2.79 1.974,5.034 4.429,5.034l1.433,0c2.455,0 4.433,-2.244 4.433,-5.034l0,-16.278c0,-2.789 -1.979,-5.035 -4.433,-5.035l-1.433,0Zm0.741,2.492c1.449,0 2.615,1.113 2.615,2.505l0,16.494c0,1.393 -1.166,2.516 -2.615,2.516c-1.45,0 -2.62,-1.123 -2.62,-2.516l0,-16.494c0,-1.391 1.17,-2.505 2.62,-2.505Z" style="fill-rule:nonzero;"/><rect id="path31-1-4-0-7" x="169.709" y="211.58" width="2.551" height="26.347" style="fill-rule:nonzero;"/><path id="path33-5-7-4-0" d="M162.148,237.928c2.455,0 4.429,-2.246 4.429,-5.035l0,-16.278c0,-2.79 -1.975,-5.034 -4.429,-5.034l-1.433,0c-2.456,0 -4.433,2.244 -4.433,5.034l0,16.278c0,2.789 1.978,5.035 4.433,5.035l1.433,0Zm-0.741,-2.491c-1.45,0 -2.616,-1.114 -2.616,-2.506l0,-16.494c0,-1.393 1.166,-2.516 2.616,-2.516c1.449,0 2.619,1.123 2.619,2.516l0,16.494c0,1.391 -1.17,2.506 -2.619,2.506Z" style="fill-rule:nonzero;"/></g></g></svg>