<?xml version="1.0" encoding="UTF-8" standalone="no"?><!DOCTYPE svg PUBLIC "-//W3C//DTD SVG 1.1//EN" "http://www.w3.org/Graphics/SVG/1.1/DTD/svg11.dtd"><svg width="100%" height="100%" viewBox="0 0 178 249" version="1.1" xmlns="http://www.w3.org/2000/svg" xmlns:xlink="http://www.w3.org/1999/xlink" xml:space="preserve" xmlns:serif="http://www.serif.com/" style="fill-rule:evenodd;clip-rule:evenodd;stroke-linejoin:round;stroke-miterlimit:2;"><rect id="_10-diamonds" serif:id="10-diamonds" x="0" y="0" width="178" height="249" style="fill:none;"/><clipPath id="_clip1"><rect x="0" y="0" width="178" height="249"/></clipPath><g clip-path="url(#_clip1)"><rect x="-1600.21" y="-747" width="2312.21" height="1245" style="fill:#fff;"/><g id="_10_diamonds" serif:id="10_diamonds"><path id="path7062-5" d="M13.729,55.891c-1.723,-2.849 -3.536,-5.618 -5.801,-7.984c2.265,-2.365 4.078,-5.135 5.801,-7.984c1.723,2.849 3.536,5.619 5.801,7.984c-2.265,2.366 -4.078,5.135 -5.801,7.984Z" style="fill:#d40000;fill-rule:nonzero;"/><path id="path7064-0" d="M130.278,64.451c-4.135,-6.838 -8.486,-13.484 -13.923,-19.161c5.437,-5.678 9.788,-12.324 13.923,-19.162c4.135,6.838 8.486,13.484 13.923,19.162c-5.437,5.677 -9.788,12.323 -13.923,19.161Z" style="fill:#d40000;fill-rule:nonzero;"/><path id="path7066-9" d="M164.272,209.077c-1.723,-2.849 -3.536,-5.618 -5.802,-7.984c2.266,-2.366 4.079,-5.135 5.802,-7.984c1.723,2.849 3.536,5.618 5.801,7.984c-2.265,2.366 -4.078,5.135 -5.801,7.984Z" style="fill:#d40000;fill-rule:nonzero;"/><path id="path7068-2" d="M47.722,64.451c-4.135,-6.838 -8.486,-13.484 -13.923,-19.161c5.437,-5.678 9.788,-12.324 13.923,-19.162c4.135,6.838 8.486,13.484 13.923,19.162c-5.437,5.677 -9.788,12.323 -13.923,19.161Z" style="fill:#d40000;fill-rule:nonzero;"/><path id="path7070-0" d="M130.278,117.264c-4.135,-6.838 -8.486,-13.484 -13.923,-19.162c5.437,-5.677 9.788,-12.323 13.923,-19.162c4.135,6.839 8.486,13.485 13.923,19.162c-5.437,5.678 -9.788,12.324 -13.923,19.162Z" style="fill:#d40000;fill-rule:nonzero;"/><path id="path7072-0" d="M47.722,117.264c-4.135,-6.838 -8.486,-13.484 -13.923,-19.162c5.437,-5.677 9.788,-12.323 13.923,-19.161c4.135,6.838 8.486,13.484 13.923,19.161c-5.437,5.678 -9.788,12.324 -13.923,19.162Z" style="fill:#d40000;fill-rule:nonzero;"/><path id="path7074-4" d="M89,90.855c-4.135,-6.838 -8.486,-13.484 -13.923,-19.162c5.437,-5.677 9.788,-12.323 13.923,-19.162c4.135,6.839 8.486,13.485 13.923,19.162c-5.437,5.678 -9.788,12.324 -13.923,19.162Z" style="fill:#d40000;fill-rule:nonzero;"/><path id="path7084-9" d="M47.722,222.876c-4.135,-6.838 -8.486,-13.484 -13.923,-19.162c5.437,-5.677 9.788,-12.323 13.923,-19.161c4.135,6.838 8.486,13.484 13.923,19.161c-5.437,5.678 -9.788,12.324 -13.923,19.162Z" style="fill:#d40000;fill-rule:nonzero;"/><path id="path7086-7" d="M130.278,222.882c-4.135,-6.838 -8.486,-13.485 -13.923,-19.162c5.437,-5.677 9.788,-12.323 13.923,-19.162c4.135,6.839 8.486,13.485 13.923,19.162c-5.437,5.677 -9.788,12.324 -13.923,19.162Z" style="fill:#d40000;fill-rule:nonzero;"/><path id="path7088-6" d="M130.278,170.064c-4.135,-6.838 -8.486,-13.484 -13.923,-19.162c5.437,-5.677 9.788,-12.323 13.923,-19.161c4.135,6.838 8.486,13.484 13.923,19.161c-5.437,5.678 -9.788,12.324 -13.923,19.162Z" style="fill:#d40000;fill-rule:nonzero;"/><path id="path7090-8" d="M47.722,170.038c-4.135,-6.838 -8.486,-13.484 -13.923,-19.161c5.437,-5.678 9.788,-12.324 13.923,-19.162c4.135,6.838 8.486,13.484 13.923,19.162c-5.437,5.677 -9.788,12.323 -13.923,19.161Z" style="fill:#d40000;fill-rule:nonzero;"/><path id="path7092-79" d="M89,196.469c-4.135,-6.838 -8.486,-13.485 -13.923,-19.162c5.437,-5.677 9.788,-12.324 13.923,-19.162c4.135,6.838 8.486,13.485 13.923,19.162c-5.437,5.677 -9.788,12.324 -13.923,19.162Z" style="fill:#d40000;fill-rule:nonzero;"/><g id="g8345-9-6-9-5"><rect id="path31-8-2-5-6" x="5.739" y="11.073" width="2.551" height="26.347" style="fill:#d40000;fill-rule:nonzero;"/><path id="path33-2-0-3-1" d="M15.85,11.072c-2.455,0 -4.429,2.246 -4.429,5.035l0,16.278c0,2.79 1.975,5.034 4.429,5.034l1.434,0c2.455,0 4.432,-2.244 4.432,-5.034l0,-16.278c0,-2.789 -1.978,-5.035 -4.432,-5.035l-1.434,0Zm0.741,2.492c1.45,0 2.616,1.113 2.616,2.505l0,16.494c0,1.393 -1.166,2.516 -2.616,2.516c-1.449,0 -2.619,-1.123 -2.619,-2.516l0,-16.494c0,-1.391 1.17,-2.505 2.619,-2.505Z" style="fill:#d40000;fill-rule:nonzero;"/></g><g id="g8345-5-0-8-9"><rect id="path31-1-3-1-4" x="169.709" y="211.58" width="2.551" height="26.347" style="fill:#d40000;fill-rule:nonzero;"/><path id="path33-5-5-1-9" d="M162.148,237.928c2.455,0 4.429,-2.246 4.429,-5.035l0,-16.278c0,-2.79 -1.975,-5.034 -4.429,-5.034l-1.433,0c-2.456,0 -4.433,2.244 -4.433,5.034l0,16.278c0,2.789 1.978,5.035 4.433,5.035l1.433,0Zm-0.741,-2.491c-1.45,0 -2.616,-1.114 -2.616,-2.506l0,-16.494c0,-1.393 1.166,-2.516 2.616,-2.516c1.449,0 2.619,1.123 2.619,2.516l0,16.494c0,1.391 -1.17,2.506 -2.619,2.506Z" style="fill:#d40000;fill-rule:nonzero;"/></g></g></g></svg>