<?xml version="1.0" encoding="UTF-8" standalone="no"?><!DOCTYPE svg PUBLIC "-//W3C//DTD SVG 1.1//EN" "http://www.w3.org/Graphics/SVG/1.1/DTD/svg11.dtd"><svg width="100%" height="100%" viewBox="0 0 178 249" version="1.1" xmlns="http://www.w3.org/2000/svg" xmlns:xlink="http://www.w3.org/1999/xlink" xml:space="preserve" xmlns:serif="http://www.serif.com/" style="fill-rule:evenodd;clip-rule:evenodd;stroke-linejoin:round;stroke-miterlimit:2;"><rect id="_10-hearts" serif:id="10-hearts" x="0" y="0" width="178" height="249" style="fill:none;"/><clipPath id="_clip1"><rect x="0" y="0" width="178" height="249"/></clipPath><g clip-path="url(#_clip1)"><rect x="-1600.21" y="-249" width="2312.21" height="1245" style="fill:#fff;"/><g id="_10_hearts" serif:id="10_hearts"><path id="path10308-5-1" d="M47.722,117.425c0,0 -3.721,-6.104 -8.74,-13.281c-3.358,-4.803 -6.042,-10.004 -6.292,-14.483c-0.286,-5.117 2.423,-10.251 7.329,-10.5c4.903,-0.249 6.893,3.946 7.703,7.404c0.81,-3.458 2.8,-7.653 7.703,-7.404c4.906,0.249 7.615,5.383 7.329,10.5c-0.25,4.479 -2.934,9.68 -6.292,14.483c-5.019,7.177 -8.74,13.281 -8.74,13.281Z" style="fill:#d40000;fill-rule:nonzero;"/><path id="path10310-7-8" d="M13.729,56.136c0,0 -1.774,-2.543 -4.167,-5.534c-1.601,-2.001 -2.881,-4.168 -3,-6.034c-0.136,-2.132 1.156,-4.271 3.494,-4.375c2.338,-0.104 3.287,1.644 3.673,3.085c0.386,-1.441 1.335,-3.189 3.672,-3.085c2.339,0.104 3.631,2.243 3.495,4.375c-0.119,1.866 -1.399,4.033 -3,6.034c-2.393,2.991 -4.167,5.534 -4.167,5.534Z" style="fill:#d40000;fill-rule:nonzero;"/><path id="path10312-3-5" d="M164.272,193.179c0,0 -1.774,2.544 -4.167,5.534c-1.601,2.002 -2.881,4.169 -3,6.035c-0.136,2.132 1.155,4.271 3.494,4.375c2.338,0.103 3.286,-1.644 3.673,-3.085c0.386,1.441 1.335,3.188 3.672,3.085c2.339,-0.104 3.631,-2.243 3.494,-4.375c-0.119,-1.866 -1.398,-4.033 -2.999,-6.035c-2.393,-2.99 -4.167,-5.534 -4.167,-5.534Z" style="fill:#d40000;fill-rule:nonzero;"/><path id="path10314-8-8" d="M89,98.687c0,0 -3.721,-6.105 -8.74,-13.282c-3.358,-4.803 -6.042,-10.003 -6.292,-14.483c-0.286,-5.117 2.423,-10.251 7.329,-10.5c4.903,-0.248 6.893,3.946 7.703,7.404c0.81,-3.458 2.8,-7.652 7.703,-7.404c4.906,0.249 7.615,5.383 7.329,10.5c-0.25,4.48 -2.934,9.68 -6.292,14.483c-5.019,7.177 -8.74,13.282 -8.74,13.282Z" style="fill:#d40000;fill-rule:nonzero;"/><path id="path10318-3-7" d="M47.722,64.686c0,0 -3.721,-6.105 -8.74,-13.282c-3.358,-4.803 -6.042,-10.003 -6.292,-14.483c-0.286,-5.117 2.423,-10.251 7.329,-10.5c4.903,-0.248 6.893,3.946 7.703,7.404c0.81,-3.458 2.8,-7.652 7.703,-7.404c4.906,0.249 7.615,5.383 7.329,10.5c-0.25,4.48 -2.934,9.68 -6.292,14.483c-5.019,7.177 -8.74,13.282 -8.74,13.282Z" style="fill:#d40000;fill-rule:nonzero;"/><path id="path10322-4-6" d="M130.278,117.425c0,0 -3.721,-6.104 -8.74,-13.281c-3.358,-4.803 -6.042,-10.004 -6.292,-14.483c-0.286,-5.117 2.423,-10.251 7.329,-10.5c4.903,-0.249 6.893,3.946 7.703,7.404c0.81,-3.458 2.8,-7.653 7.703,-7.404c4.906,0.249 7.615,5.383 7.329,10.5c-0.25,4.479 -2.934,9.68 -6.292,14.483c-5.019,7.177 -8.74,13.281 -8.74,13.281Z" style="fill:#d40000;fill-rule:nonzero;"/><path id="path10324-9-8" d="M130.278,64.686c0,0 -3.721,-6.105 -8.74,-13.282c-3.358,-4.803 -6.042,-10.003 -6.292,-14.483c-0.286,-5.117 2.423,-10.251 7.329,-10.5c4.903,-0.248 6.893,3.946 7.703,7.404c0.81,-3.458 2.8,-7.652 7.703,-7.404c4.906,0.249 7.615,5.383 7.329,10.5c-0.25,4.48 -2.934,9.68 -6.292,14.483c-5.019,7.177 -8.74,13.282 -8.74,13.282Z" style="fill:#d40000;fill-rule:nonzero;"/><path id="path10332-8-6" d="M89,150.629c0,0 -3.721,6.104 -8.74,13.282c-3.358,4.802 -6.042,10.003 -6.292,14.483c-0.286,5.117 2.423,10.25 7.329,10.499c4.903,0.249 6.893,-3.945 7.703,-7.403c0.81,3.458 2.8,7.652 7.703,7.403c4.906,-0.249 7.615,-5.382 7.329,-10.499c-0.25,-4.48 -2.934,-9.681 -6.292,-14.483c-5.019,-7.178 -8.74,-13.282 -8.74,-13.282Z" style="fill:#d40000;fill-rule:nonzero;"/><path id="path10334-5-0" d="M130.278,131.89c0,0 -3.721,6.105 -8.74,13.282c-3.358,4.803 -6.042,10.003 -6.292,14.483c-0.286,5.117 2.423,10.251 7.329,10.499c4.903,0.249 6.893,-3.945 7.703,-7.403c0.81,3.458 2.8,7.652 7.703,7.403c4.906,-0.248 7.615,-5.382 7.329,-10.499c-0.25,-4.48 -2.934,-9.68 -6.292,-14.483c-5.019,-7.177 -8.74,-13.282 -8.74,-13.282Z" style="fill:#d40000;fill-rule:nonzero;"/><path id="path10336-3-5" d="M47.722,131.89c0,0 -3.721,6.105 -8.74,13.282c-3.358,4.803 -6.042,10.003 -6.292,14.483c-0.286,5.117 2.423,10.251 7.329,10.499c4.903,0.249 6.893,-3.945 7.703,-7.403c0.81,3.458 2.8,7.652 7.703,7.403c4.906,-0.248 7.615,-5.382 7.329,-10.499c-0.25,-4.48 -2.934,-9.68 -6.292,-14.483c-5.019,-7.177 -8.74,-13.282 -8.74,-13.282Z" style="fill:#d40000;fill-rule:nonzero;"/><path id="path10338-2-9" d="M130.278,184.63c0,0 -3.721,6.104 -8.74,13.282c-3.358,4.802 -6.042,10.003 -6.292,14.483c-0.286,5.117 2.423,10.25 7.329,10.499c4.903,0.249 6.893,-3.945 7.703,-7.403c0.81,3.458 2.8,7.652 7.703,7.403c4.906,-0.249 7.615,-5.382 7.329,-10.499c-0.25,-4.48 -2.934,-9.681 -6.292,-14.483c-5.019,-7.178 -8.74,-13.282 -8.74,-13.282Z" style="fill:#d40000;fill-rule:nonzero;"/><path id="path10340-9-7" d="M47.722,184.63c0,0 -3.721,6.104 -8.74,13.282c-3.358,4.802 -6.042,10.003 -6.292,14.483c-0.286,5.117 2.423,10.25 7.329,10.499c4.903,0.249 6.893,-3.945 7.703,-7.403c0.81,3.458 2.8,7.652 7.703,7.403c4.906,-0.249 7.615,-5.382 7.329,-10.499c-0.25,-4.48 -2.934,-9.681 -6.292,-14.483c-5.019,-7.178 -8.74,-13.282 -8.74,-13.282Z" style="fill:#d40000;fill-rule:nonzero;"/><g id="g7724-24-8-9-7"><g id="g8345-9-7-5-1"><rect id="path31-8-2-9-8" x="5.739" y="11.375" width="2.551" height="26.313" style="fill:#d40000;fill-rule:nonzero;"/><path id="path33-2-3-1-6" d="M15.85,11.374c-2.455,0 -4.428,2.243 -4.428,5.029l0,16.257c0,2.786 1.974,5.028 4.428,5.028l1.434,0c2.455,0 4.433,-2.242 4.433,-5.028l0,-16.257c0,-2.786 -1.979,-5.029 -4.433,-5.029l-1.434,0Zm0.742,2.488c1.449,0 2.615,1.112 2.615,2.503l0,16.473c0,1.391 -1.166,2.513 -2.615,2.513c-1.45,0 -2.62,-1.122 -2.62,-2.513l0,-16.473c0,-1.39 1.17,-2.503 2.62,-2.503Z" style="fill:#d40000;fill-rule:nonzero;"/></g></g><g id="g7724-2-5-0-2-7"><g id="g8345-5-0-9-6-9"><g id="g10963-5-1"><rect id="path31-1-3-2-1-5" x="169.709" y="211.627" width="2.551" height="26.313" style="fill:#d40000;fill-rule:nonzero;"/><path id="path33-5-5-3-3-1" d="M162.148,237.941c2.455,0 4.429,-2.242 4.429,-5.028l0,-16.258c0,-2.785 -1.975,-5.027 -4.429,-5.027l-1.433,0c-2.456,0 -4.433,2.242 -4.433,5.027l0,16.258c0,2.786 1.978,5.028 4.433,5.028l1.433,0Zm-0.741,-2.488c-1.45,0 -2.616,-1.112 -2.616,-2.503l0,-16.472c0,-1.391 1.166,-2.513 2.616,-2.513c1.449,0 2.619,1.122 2.619,2.513l0,16.472c0,1.39 -1.17,2.503 -2.619,2.503Z" style="fill:#d40000;fill-rule:nonzero;"/></g></g></g></g></g></svg>