<?xml version="1.0" encoding="UTF-8" standalone="no"?><!DOCTYPE svg PUBLIC "-//W3C//DTD SVG 1.1//EN" "http://www.w3.org/Graphics/SVG/1.1/DTD/svg11.dtd"><svg width="100%" height="100%" viewBox="0 0 178 249" version="1.1" xmlns="http://www.w3.org/2000/svg" xmlns:xlink="http://www.w3.org/1999/xlink" xml:space="preserve" xmlns:serif="http://www.serif.com/" style="fill-rule:evenodd;clip-rule:evenodd;stroke-linejoin:round;stroke-miterlimit:2;"><rect id="_10-spades" serif:id="10-spades" x="0" y="0" width="178" height="249" style="fill:none;"/><clipPath id="_clip1"><rect x="0" y="0" width="178" height="249"/></clipPath><g clip-path="url(#_clip1)"><rect x="-1600.21" y="-498" width="2312.21" height="1245" style="fill:#fff;"/><g id="_10_spades" serif:id="10_spades"><g id="g8587-4-9"><path id="path7293-3-2" d="M47.722,26.128c-7.357,10.505 -15.228,16.55 -15.359,24.746c-0.044,2.653 1.389,7.164 5.878,8.027c2.912,0.558 6.921,-1.802 7.005,-6.597c-0.013,-0.954 1.009,-0.929 0.999,0.379c-0.137,3.781 -1.332,8.185 -3.342,11.769l9.638,0c-2.01,-3.584 -3.205,-7.988 -3.343,-11.769c-0.009,-1.308 1.013,-1.333 1,-0.379c0.084,4.795 4.093,7.155 7.005,6.597c4.489,-0.863 5.922,-5.374 5.878,-8.027c-0.131,-8.196 -8.002,-14.241 -15.359,-24.746Z" style="fill-rule:nonzero;"/><path id="path7295-4-8" d="M13.729,39.923c-3.437,4.377 -7.115,6.896 -7.176,10.311c-0.021,1.106 0.649,2.985 2.746,3.345c1.361,0.232 3.234,-0.751 3.273,-2.749c-0.008,-0.398 0.471,-0.387 0.467,0.158c-0.064,1.576 -0.623,3.41 -1.562,4.904l4.503,0c-0.939,-1.494 -1.497,-3.328 -1.561,-4.904c-0.008,-0.545 0.473,-0.556 0.467,-0.158c0.039,1.998 1.912,2.981 3.273,2.749c2.097,-0.36 2.766,-2.239 2.746,-3.345c-0.062,-3.415 -3.739,-5.934 -7.176,-10.311Z" style="fill-rule:nonzero;"/><path id="path7297-5-1" d="M47.722,170.065c-7.357,-10.505 -15.228,-16.55 -15.359,-24.745c-0.044,-2.654 1.389,-7.165 5.878,-8.028c2.912,-0.557 6.921,1.802 7.005,6.597c-0.013,0.954 1.009,0.93 0.999,-0.378c-0.137,-3.782 -1.332,-8.185 -3.342,-11.769l9.638,0c-2.01,3.584 -3.205,7.987 -3.343,11.769c-0.009,1.308 1.013,1.332 1,0.378c0.084,-4.795 4.093,-7.154 7.005,-6.597c4.489,0.863 5.922,5.374 5.878,8.028c-0.131,8.195 -8.002,14.24 -15.359,24.745Z" style="fill-rule:nonzero;"/><path id="path7299-3-5" d="M164.272,209.077c-3.438,-4.377 -7.115,-6.896 -7.176,-10.311c-0.021,-1.106 0.649,-2.985 2.746,-3.345c1.36,-0.232 3.234,0.751 3.273,2.749c-0.008,0.398 0.471,0.387 0.467,-0.158c-0.064,-1.575 -0.623,-3.41 -1.562,-4.903l4.503,0c-0.939,1.493 -1.498,3.328 -1.562,4.903c-0.008,0.545 0.474,0.556 0.468,0.158c0.039,-1.998 1.912,-2.981 3.273,-2.749c2.097,0.36 2.766,2.239 2.746,3.345c-0.062,3.415 -3.739,5.934 -7.176,10.311Z" style="fill-rule:nonzero;"/><path id="path7301-4-0" d="M130.278,26.128c-7.357,10.505 -15.228,16.55 -15.359,24.746c-0.044,2.653 1.389,7.164 5.877,8.027c2.913,0.558 6.922,-1.802 7.006,-6.597c-0.013,-0.954 1.009,-0.929 0.999,0.379c-0.137,3.781 -1.332,8.185 -3.342,11.769l9.638,0c-2.01,-3.584 -3.205,-7.988 -3.343,-11.769c-0.009,-1.308 1.013,-1.333 1,-0.379c0.084,4.795 4.093,7.155 7.005,6.597c4.489,-0.863 5.922,-5.374 5.878,-8.027c-0.131,-8.196 -8.002,-14.241 -15.359,-24.746Z" style="fill-rule:nonzero;"/><path id="path7303-7-8" d="M47.722,78.935c-7.357,10.505 -15.228,16.55 -15.359,24.745c-0.044,2.654 1.389,7.165 5.878,8.028c2.912,0.557 6.921,-1.802 7.005,-6.597c-0.013,-0.954 1.009,-0.93 0.999,0.378c-0.137,3.782 -1.332,8.185 -3.342,11.769l9.638,0c-2.01,-3.584 -3.205,-7.987 -3.343,-11.769c-0.009,-1.308 1.013,-1.332 1,-0.378c0.084,4.795 4.093,7.154 7.005,6.597c4.489,-0.863 5.922,-5.374 5.878,-8.028c-0.131,-8.195 -8.002,-14.24 -15.359,-24.745Z" style="fill-rule:nonzero;"/><path id="path7305-6-7" d="M89,60.173c-7.357,10.504 -15.228,16.549 -15.359,24.745c-0.044,2.654 1.389,7.164 5.877,8.027c2.913,0.558 6.922,-1.802 7.006,-6.596c-0.013,-0.955 1.009,-0.93 0.999,0.378c-0.137,3.782 -1.332,8.185 -3.342,11.769l9.638,0c-2.01,-3.584 -3.205,-7.987 -3.343,-11.769c-0.009,-1.308 1.013,-1.333 1,-0.378c0.084,4.794 4.093,7.154 7.005,6.596c4.489,-0.863 5.922,-5.373 5.878,-8.027c-0.131,-8.196 -8.002,-14.241 -15.359,-24.745Z" style="fill-rule:nonzero;"/><path id="path7309-8-5" d="M130.278,78.935c-7.357,10.505 -15.228,16.55 -15.359,24.745c-0.044,2.654 1.389,7.165 5.877,8.028c2.913,0.557 6.922,-1.802 7.006,-6.597c-0.013,-0.954 1.009,-0.93 0.999,0.378c-0.137,3.782 -1.332,8.185 -3.342,11.769l9.638,0c-2.01,-3.584 -3.205,-7.987 -3.343,-11.769c-0.009,-1.308 1.013,-1.332 1,-0.378c0.084,4.795 4.093,7.154 7.005,6.597c4.489,-0.863 5.922,-5.374 5.878,-8.028c-0.131,-8.195 -8.002,-14.24 -15.359,-24.745Z" style="fill-rule:nonzero;"/><path id="path7313-6-8" d="M47.722,222.872c-7.357,-10.505 -15.228,-16.55 -15.359,-24.746c-0.044,-2.653 1.389,-7.164 5.878,-8.027c2.912,-0.558 6.921,1.802 7.005,6.597c-0.013,0.954 1.009,0.929 0.999,-0.379c-0.137,-3.781 -1.332,-8.185 -3.342,-11.769l9.638,0c-2.01,3.584 -3.205,7.988 -3.343,11.769c-0.009,1.308 1.013,1.333 1,0.379c0.084,-4.795 4.093,-7.155 7.005,-6.597c4.489,0.863 5.922,5.374 5.878,8.027c-0.131,8.196 -8.002,14.241 -15.359,24.746Z" style="fill-rule:nonzero;"/><path id="path7315-7-3" d="M130.278,222.872c-7.357,-10.505 -15.228,-16.55 -15.359,-24.746c-0.044,-2.653 1.389,-7.164 5.877,-8.027c2.913,-0.558 6.922,1.802 7.006,6.597c-0.013,0.954 1.009,0.929 0.999,-0.379c-0.137,-3.781 -1.332,-8.185 -3.342,-11.769l9.638,0c-2.01,3.584 -3.205,7.988 -3.343,11.769c-0.009,1.308 1.013,1.333 1,0.379c0.084,-4.795 4.093,-7.155 7.005,-6.597c4.489,0.863 5.922,5.374 5.878,8.027c-0.131,8.196 -8.002,14.241 -15.359,24.746Z" style="fill-rule:nonzero;"/><path id="path7317-0-2" d="M89,188.827c-7.357,-10.504 -15.228,-16.549 -15.359,-24.745c-0.044,-2.654 1.389,-7.164 5.877,-8.027c2.913,-0.558 6.922,1.802 7.006,6.596c-0.013,0.955 1.009,0.93 0.999,-0.378c-0.137,-3.782 -1.332,-8.185 -3.342,-11.769l9.638,0c-2.01,3.584 -3.205,7.987 -3.343,11.769c-0.009,1.308 1.013,1.333 1,0.378c0.084,-4.794 4.093,-7.154 7.005,-6.596c4.489,0.863 5.922,5.373 5.878,8.027c-0.131,8.196 -8.002,14.241 -15.359,24.745Z" style="fill-rule:nonzero;"/><path id="path7319-5-6" d="M130.278,170.065c-7.357,-10.505 -15.228,-16.55 -15.359,-24.745c-0.044,-2.654 1.389,-7.165 5.877,-8.028c2.913,-0.557 6.922,1.802 7.006,6.597c-0.013,0.954 1.009,0.93 0.999,-0.378c-0.137,-3.782 -1.332,-8.185 -3.342,-11.769l9.638,0c-2.01,3.584 -3.205,7.987 -3.343,11.769c-0.009,1.308 1.013,1.332 1,0.378c0.084,-4.795 4.093,-7.154 7.005,-6.597c4.489,0.863 5.922,5.374 5.878,8.028c-0.131,8.195 -8.002,14.24 -15.359,24.745Z" style="fill-rule:nonzero;"/><rect id="path31-5-4-7" x="5.739" y="11.073" width="2.551" height="26.347" style="fill-rule:nonzero;"/><path id="path33-4-6-8" d="M15.85,11.073c-2.455,0 -4.429,2.245 -4.429,5.035l0,16.278c0,2.789 1.975,5.034 4.429,5.034l1.434,0c2.455,0 4.432,-2.245 4.432,-5.034l0,-16.278c0,-2.79 -1.978,-5.035 -4.432,-5.035l-1.434,0Zm0.741,2.491c1.45,0 2.616,1.113 2.616,2.506l0,16.494c0,1.392 -1.166,2.516 -2.616,2.516c-1.449,0 -2.619,-1.124 -2.619,-2.516l0,-16.494c0,-1.392 1.17,-2.506 2.619,-2.506Z" style="fill-rule:nonzero;"/><g id="g8583-6-9"><rect id="path31-5-5-6-7" x="169.709" y="211.58" width="2.551" height="26.347" style="fill-rule:nonzero;"/><path id="path33-4-3-7-9" d="M162.148,237.927c2.455,0 4.429,-2.245 4.429,-5.034l0,-16.279c0,-2.789 -1.975,-5.033 -4.429,-5.033l-1.433,0c-2.456,0 -4.433,2.244 -4.433,5.033l0,16.279c0,2.789 1.978,5.034 4.433,5.034l1.433,0Zm-0.741,-2.491c-1.45,0 -2.616,-1.113 -2.616,-2.506l0,-16.493c0,-1.393 1.166,-2.517 2.616,-2.517c1.449,0 2.619,1.124 2.619,2.517l0,16.493c0,1.392 -1.17,2.506 -2.619,2.506Z" style="fill-rule:nonzero;"/></g></g></g></g></svg>