<?xml version="1.0" encoding="UTF-8" standalone="no"?>
<!DOCTYPE svg PUBLIC "-//W3C//DTD SVG 1.1//EN" "http://www.w3.org/Graphics/SVG/1.1/DTD/svg11.dtd">
<svg width="100%" height="100%" viewBox="0 0 182 253" version="1.1" xmlns="http://www.w3.org/2000/svg" xmlns:xlink="http://www.w3.org/1999/xlink" xml:space="preserve" xmlns:serif="http://www.serif.com/" style="fill-rule:evenodd;clip-rule:evenodd;">
    <g transform="matrix(1,0,0,1,-1941,-34)">
        <g transform="matrix(1,0,0,1,-328,1179.11)">
            <g id="_10_clubs" serif:id="10_clubs" transform="matrix(0.999997,0,0,1,-2.38472,-272.411)">
                <path id="rect6355-6-85-3-6-8-7" d="M2451.03,-862.192C2451.03,-866.885 2447.22,-870.696 2442.53,-870.696L2281.75,-870.696C2277.06,-870.696 2273.25,-866.885 2273.25,-862.192L2273.25,-630.549C2273.25,-625.855 2277.06,-622.045 2281.75,-622.045L2442.53,-622.045C2447.22,-622.045 2451.03,-625.855 2451.03,-630.549L2451.03,-862.192Z" style="fill:white;stroke:black;stroke-width:0.8px;"/>
                <path id="path147-0-8-1-6-13-2-22-1-5" d="M2403.37,-844.292C2395.55,-844.122 2392.04,-835.318 2397.83,-828.481C2398.67,-827.484 2398.76,-826.912 2397.22,-827.87C2393.32,-830.477 2385.84,-828.763 2385.46,-820.792C2384.99,-810.97 2398.71,-808.14 2401.29,-818.584C2401.42,-819.686 2402.32,-819.661 2402.1,-818.097C2401.87,-813.852 2400.54,-809.884 2398.72,-806.015L2408.02,-806.015C2406.19,-809.884 2404.87,-813.852 2404.63,-818.097C2404.42,-819.661 2405.31,-819.686 2405.45,-818.584C2408.03,-808.14 2421.75,-810.97 2421.28,-820.792C2420.89,-828.763 2413.42,-830.477 2409.52,-827.87C2407.98,-826.912 2408.07,-827.484 2408.91,-828.481C2414.7,-835.318 2411.19,-844.122 2403.37,-844.292C2403.37,-844.292 2403.37,-844.292 2403.36,-844.292L2403.37,-844.292Z" style="fill-rule:nonzero;"/>
                <path id="path147-0-8-1-6-75-2-83-21-1-8" d="M2320.91,-844.292C2313.09,-844.122 2309.58,-835.318 2315.37,-828.481C2316.21,-827.484 2316.3,-826.912 2314.76,-827.87C2310.86,-830.477 2303.39,-828.763 2303,-820.792C2302.53,-810.97 2316.25,-808.14 2318.83,-818.584C2318.97,-819.686 2319.86,-819.661 2319.65,-818.097C2319.41,-813.852 2318.09,-809.884 2316.26,-806.015L2325.56,-806.015C2323.74,-809.884 2322.41,-813.852 2322.18,-818.097C2321.96,-819.661 2322.86,-819.686 2322.99,-818.584C2325.57,-808.14 2339.29,-810.97 2338.82,-820.792C2338.44,-828.763 2330.96,-830.477 2327.06,-827.87C2325.52,-826.912 2325.61,-827.484 2326.45,-828.481C2332.24,-835.318 2328.73,-844.122 2320.91,-844.292C2320.91,-844.292 2320.91,-844.292 2320.91,-844.292L2320.91,-844.292Z" style="fill-rule:nonzero;"/>
                <path id="path147-0-8-1-6-7-5-5-7-3-5-5" d="M2403.37,-647.785C2395.55,-647.955 2392.04,-656.759 2397.83,-663.596C2398.67,-664.593 2398.76,-665.165 2397.22,-664.208C2393.32,-661.6 2385.84,-663.314 2385.46,-671.285C2384.99,-681.107 2398.71,-683.937 2401.29,-673.493C2401.42,-672.391 2402.32,-672.416 2402.1,-673.98C2401.87,-678.226 2400.54,-682.193 2398.72,-686.063L2408.02,-686.063C2406.19,-682.193 2404.87,-678.226 2404.63,-673.98C2404.42,-672.416 2405.31,-672.391 2405.45,-673.493C2408.03,-683.937 2421.75,-681.107 2421.28,-671.285C2420.89,-663.314 2413.42,-661.6 2409.52,-664.208C2407.98,-665.165 2408.07,-664.593 2408.91,-663.596C2414.7,-656.759 2411.19,-647.955 2403.37,-647.785C2403.37,-647.785 2403.37,-647.785 2403.36,-647.785L2403.37,-647.785Z" style="fill-rule:nonzero;"/>
                <path id="path147-0-8-1-6-75-6-1-2-7-9-3" d="M2320.91,-647.785C2313.09,-647.955 2309.58,-656.759 2315.37,-663.596C2316.21,-664.593 2316.3,-665.165 2314.76,-664.208C2310.86,-661.6 2303.39,-663.314 2303,-671.285C2302.53,-681.107 2316.25,-683.937 2318.83,-673.493C2318.97,-672.391 2319.86,-672.416 2319.65,-673.98C2319.41,-678.226 2318.09,-682.193 2316.26,-686.063L2325.56,-686.063C2323.74,-682.193 2322.41,-678.226 2322.18,-673.98C2321.96,-672.416 2322.86,-672.391 2322.99,-673.493C2325.57,-683.937 2339.29,-681.107 2338.82,-671.285C2338.44,-663.314 2330.96,-661.6 2327.06,-664.208C2325.52,-665.165 2325.61,-664.593 2326.45,-663.596C2332.24,-656.759 2328.73,-647.955 2320.91,-647.785C2320.91,-647.785 2320.91,-647.785 2320.91,-647.785L2320.91,-647.785Z" style="fill-rule:nonzero;"/>
                <path id="path147-0-8-1-6-2-00-7-1-1-4" d="M2362.14,-817.92C2354.32,-817.75 2350.81,-808.946 2356.6,-802.109C2357.44,-801.112 2357.53,-800.54 2355.99,-801.498C2352.09,-804.105 2344.62,-802.391 2344.23,-794.42C2343.76,-784.598 2357.48,-781.769 2360.06,-792.212C2360.2,-793.314 2361.09,-793.289 2360.88,-791.725C2360.64,-787.48 2359.31,-783.512 2357.49,-779.643L2366.79,-779.643C2364.97,-783.512 2363.64,-787.48 2363.41,-791.725C2363.19,-793.289 2364.09,-793.314 2364.22,-792.212C2366.8,-781.769 2380.52,-784.598 2380.05,-794.42C2379.66,-802.391 2372.19,-804.105 2368.29,-801.498C2366.75,-800.54 2366.84,-801.112 2367.68,-802.109C2373.47,-808.946 2369.96,-817.75 2362.14,-817.92C2362.14,-817.92 2362.14,-817.92 2362.14,-817.92L2362.14,-817.92Z" style="fill-rule:nonzero;"/>
                <path id="path147-0-8-1-6-2-0-8-6-8-1-8" d="M2362.14,-674.157C2354.32,-674.327 2350.81,-683.131 2356.6,-689.968C2357.44,-690.965 2357.53,-691.537 2355.99,-690.579C2352.09,-687.972 2344.62,-689.686 2344.23,-697.657C2343.76,-707.479 2357.48,-710.308 2360.06,-699.865C2360.2,-698.763 2361.09,-698.788 2360.88,-700.352C2360.64,-704.597 2359.31,-708.565 2357.49,-712.434L2366.79,-712.434C2364.97,-708.565 2363.64,-704.597 2363.41,-700.352C2363.19,-698.788 2364.09,-698.763 2364.22,-699.865C2366.8,-710.308 2380.52,-707.479 2380.05,-697.657C2379.66,-689.686 2372.19,-687.972 2368.29,-690.579C2366.75,-691.537 2366.84,-690.965 2367.68,-689.968C2373.47,-683.131 2369.96,-674.327 2362.14,-674.157C2362.14,-674.157 2362.14,-674.157 2362.14,-674.157L2362.14,-674.157Z" style="fill-rule:nonzero;"/>
                <path id="path147-6-9-8-7-0-5-6-83-3-7" d="M2437.32,-661.895C2440.45,-661.966 2441.85,-665.634 2439.54,-668.483C2439.2,-668.899 2439.17,-669.137 2439.78,-668.738C2441.34,-667.652 2444.33,-668.366 2444.48,-671.687C2444.67,-675.779 2439.18,-676.958 2438.15,-672.607C2438.1,-672.148 2437.74,-672.158 2437.83,-672.81C2437.92,-674.579 2438.45,-676.232 2439.18,-677.844L2435.46,-677.844C2436.19,-676.232 2436.72,-674.579 2436.82,-672.81C2436.9,-672.158 2436.54,-672.148 2436.49,-672.607C2435.46,-676.958 2429.97,-675.779 2430.16,-671.687C2430.31,-668.366 2433.3,-667.652 2434.86,-668.738C2435.48,-669.137 2435.44,-668.899 2435.11,-668.483C2432.79,-665.634 2434.19,-661.966 2437.32,-661.895C2437.32,-661.895 2437.32,-661.895 2437.32,-661.895L2437.32,-661.895Z" style="fill-rule:nonzero;"/>
                <path id="path147-0-8-1-6-75-2-9-77-44-0-7" d="M2320.91,-791.549C2313.09,-791.379 2309.58,-782.575 2315.37,-775.738C2316.21,-774.741 2316.3,-774.169 2314.76,-775.126C2310.86,-777.734 2303.39,-776.02 2303,-768.049C2302.53,-758.227 2316.25,-755.397 2318.83,-765.841C2318.97,-766.943 2319.86,-766.918 2319.65,-765.354C2319.41,-761.108 2318.09,-757.141 2316.26,-753.272L2325.56,-753.272C2323.74,-757.141 2322.41,-761.108 2322.18,-765.354C2321.96,-766.918 2322.86,-766.943 2322.99,-765.841C2325.57,-755.397 2339.29,-758.227 2338.82,-768.049C2338.44,-776.02 2330.96,-777.734 2327.06,-775.126C2325.52,-774.169 2325.61,-774.741 2326.45,-775.738C2332.24,-782.575 2328.73,-791.379 2320.91,-791.549C2320.91,-791.549 2320.91,-791.549 2320.91,-791.549L2320.91,-791.549Z" style="fill-rule:nonzero;"/>
                <path id="path147-0-8-1-6-75-2-8-0-3-9-3" d="M2320.91,-700.528C2313.09,-700.698 2309.58,-709.502 2315.37,-716.339C2316.21,-717.336 2316.3,-717.909 2314.76,-716.951C2310.86,-714.343 2303.39,-716.057 2303,-724.029C2302.53,-733.85 2316.25,-736.68 2318.83,-726.236C2318.97,-725.134 2319.86,-725.16 2319.65,-726.724C2319.41,-730.969 2318.09,-734.936 2316.26,-738.806L2325.56,-738.806C2323.74,-734.936 2322.41,-730.969 2322.18,-726.724C2321.96,-725.16 2322.86,-725.134 2322.99,-726.236C2325.57,-736.68 2339.29,-733.85 2338.82,-724.029C2338.44,-716.057 2330.96,-714.343 2327.06,-716.951C2325.52,-717.909 2325.61,-717.336 2326.45,-716.339C2332.24,-709.502 2328.73,-700.698 2320.91,-700.528C2320.91,-700.528 2320.91,-700.528 2320.91,-700.528L2320.91,-700.528Z" style="fill-rule:nonzero;"/>
                <path id="path147-0-8-1-6-75-2-9-7-1-9-7-9" d="M2403.37,-791.549C2395.55,-791.379 2392.04,-782.575 2397.83,-775.738C2398.67,-774.741 2398.76,-774.169 2397.22,-775.126C2393.32,-777.734 2385.84,-776.02 2385.46,-768.049C2384.99,-758.227 2398.71,-755.397 2401.29,-765.841C2401.42,-766.943 2402.32,-766.918 2402.1,-765.354C2401.87,-761.108 2400.54,-757.141 2398.72,-753.272L2408.02,-753.272C2406.19,-757.141 2404.87,-761.108 2404.63,-765.354C2404.42,-766.918 2405.31,-766.943 2405.45,-765.841C2408.03,-755.397 2421.75,-758.227 2421.28,-768.049C2420.89,-776.02 2413.42,-777.734 2409.52,-775.126C2407.98,-774.169 2408.07,-774.741 2408.91,-775.738C2414.7,-782.575 2411.19,-791.379 2403.37,-791.549C2403.37,-791.549 2403.37,-791.549 2403.36,-791.549L2403.37,-791.549Z" style="fill-rule:nonzero;"/>
                <path id="path147-0-8-1-6-75-2-8-5-1-52-2-8" d="M2403.37,-700.528C2395.55,-700.698 2392.04,-709.502 2397.83,-716.339C2398.67,-717.336 2398.76,-717.909 2397.22,-716.951C2393.32,-714.343 2385.84,-716.057 2385.46,-724.029C2384.99,-733.85 2398.71,-736.68 2401.29,-726.236C2401.42,-725.134 2402.32,-725.16 2402.1,-726.724C2401.87,-730.969 2400.54,-734.936 2398.72,-738.806L2408.02,-738.806C2406.19,-734.936 2404.87,-730.969 2404.63,-726.724C2404.42,-725.16 2405.31,-725.134 2405.45,-726.236C2408.03,-736.68 2421.75,-733.85 2421.28,-724.029C2420.89,-716.057 2413.42,-714.343 2409.52,-716.951C2407.98,-717.909 2408.07,-717.336 2408.91,-716.339C2414.7,-709.502 2411.19,-700.698 2403.37,-700.528C2403.37,-700.528 2403.37,-700.528 2403.36,-700.528L2403.37,-700.528Z" style="fill-rule:nonzero;"/>
                <path id="path147-6-9-8-7-4-5-62-52-8-0" d="M2286.96,-830.845C2283.83,-830.774 2282.43,-827.106 2284.74,-824.257C2285.08,-823.842 2285.12,-823.603 2284.5,-824.002C2282.94,-825.089 2279.95,-824.374 2279.8,-821.053C2279.61,-816.961 2285.1,-815.782 2286.13,-820.133C2286.18,-820.592 2286.54,-820.582 2286.45,-819.93C2286.36,-818.161 2285.83,-816.508 2285.1,-814.896L2288.82,-814.896C2288.09,-816.508 2287.56,-818.161 2287.47,-819.93C2287.38,-820.582 2287.74,-820.592 2287.79,-820.133C2288.82,-815.782 2294.31,-816.961 2294.12,-821.053C2293.97,-824.374 2290.98,-825.089 2289.42,-824.002C2288.8,-823.603 2288.84,-823.842 2289.18,-824.257C2291.49,-827.106 2290.09,-830.774 2286.96,-830.845C2286.96,-830.845 2286.96,-830.845 2286.96,-830.845L2286.96,-830.845Z" style="fill-rule:nonzero;"/>
                <rect id="path31-6-7-6" x="2278.98" y="-859.66" width="2.548" height="26.315" style="fill-rule:nonzero;"/>
                <path id="path33-9-3-6" d="M2289.08,-859.661C2286.63,-859.661 2284.66,-857.418 2284.66,-854.632L2284.66,-838.373C2284.66,-835.588 2286.63,-833.346 2289.08,-833.346L2290.51,-833.346C2292.96,-833.346 2294.94,-835.588 2294.94,-838.373L2294.94,-854.632C2294.94,-857.418 2292.96,-859.661 2290.51,-859.661L2289.08,-859.661ZM2289.82,-857.173C2291.27,-857.173 2292.43,-856.061 2292.43,-854.67L2292.43,-838.196C2292.43,-836.805 2291.27,-835.683 2289.82,-835.683C2288.37,-835.683 2287.2,-836.805 2287.2,-838.196L2287.2,-854.67C2287.2,-856.06 2288.37,-857.173 2289.82,-857.173Z" style="fill-rule:nonzero;"/>
                <rect id="path31-1-4-0-7" x="2442.75" y="-659.395" width="2.548" height="26.315" style="fill-rule:nonzero;"/>
                <path id="path33-5-7-4-0" d="M2435.2,-633.079C2437.65,-633.079 2439.62,-635.322 2439.62,-638.108L2439.62,-654.367C2439.62,-657.153 2437.65,-659.394 2435.2,-659.394L2433.77,-659.394C2431.32,-659.394 2429.34,-657.153 2429.34,-654.367L2429.34,-638.108C2429.34,-635.322 2431.32,-633.079 2433.77,-633.079L2435.2,-633.079ZM2434.46,-635.568C2433.01,-635.568 2431.85,-636.68 2431.85,-638.071L2431.85,-654.544C2431.85,-655.935 2433.01,-657.058 2434.46,-657.058C2435.91,-657.058 2437.08,-655.935 2437.08,-654.544L2437.08,-638.071C2437.08,-636.681 2435.91,-635.568 2434.46,-635.568Z" style="fill-rule:nonzero;"/>
            </g>
        </g>
    </g>
</svg>
