<?xml version="1.0" encoding="UTF-8" standalone="no"?>
<!DOCTYPE svg PUBLIC "-//W3C//DTD SVG 1.1//EN" "http://www.w3.org/Graphics/SVG/1.1/DTD/svg11.dtd">
<svg width="100%" height="100%" viewBox="0 0 182 253" version="1.1" xmlns="http://www.w3.org/2000/svg" xmlns:xlink="http://www.w3.org/1999/xlink" xml:space="preserve" xmlns:serif="http://www.serif.com/" style="fill-rule:evenodd;clip-rule:evenodd;">
    <g transform="matrix(1,0,0,1,-1941,-878)">
        <g transform="matrix(1,0,0,1,-328,1179.11)">
            <g id="_10_diamonds" serif:id="10_diamonds" transform="matrix(0.995535,0,0,0.996803,8.15569,-274.482)">
                <g id="_5D" serif:id="5D" transform="matrix(1,0,0,1,2064.5,-320.576)">
                    <path id="rect7030-4" d="M386.929,304.79C386.929,300.06 383.084,296.22 378.349,296.22L216.927,296.22C212.191,296.22 208.346,300.06 208.346,304.79L208.346,537.1C208.346,541.829 212.191,545.669 216.927,545.669L378.349,545.669C383.084,545.669 386.929,541.829 386.929,537.1L386.929,304.79Z" style="fill:white;stroke:black;stroke-width:0.8px;"/>
                </g>
                <path id="path7062-5" d="M2286.62,31.623C2284.89,28.768 2283.08,25.993 2280.8,23.623C2283.08,21.252 2284.89,18.478 2286.62,15.623C2288.35,18.478 2290.17,21.252 2292.44,23.623C2290.17,25.993 2288.35,28.768 2286.62,31.623Z" style="fill:rgb(212,0,0);fill-rule:nonzero;"/>
                <path id="path7064-0" d="M2403.55,40.2C2399.4,33.348 2395.04,26.689 2389.59,21C2395.04,15.311 2399.4,8.652 2403.55,1.8C2407.7,8.652 2412.07,15.311 2417.52,21C2412.07,26.689 2407.7,33.348 2403.55,40.2Z" style="fill:rgb(212,0,0);fill-rule:nonzero;"/>
                <path id="path7066-9" d="M2437.66,185.114C2435.93,182.26 2434.11,179.485 2431.84,177.114C2434.11,174.744 2435.93,171.969 2437.66,169.114C2439.39,171.969 2441.21,174.744 2443.48,177.114C2441.21,179.485 2439.39,182.26 2437.66,185.114Z" style="fill:rgb(212,0,0);fill-rule:nonzero;"/>
                <path id="path7068-2" d="M2320.73,40.2C2316.58,33.348 2312.21,26.689 2306.76,21C2312.21,15.311 2316.58,8.652 2320.73,1.8C2324.88,8.652 2329.24,15.311 2334.7,21C2329.24,26.689 2324.88,33.348 2320.73,40.2Z" style="fill:rgb(212,0,0);fill-rule:nonzero;"/>
                <path id="path7070-0" d="M2403.55,93.118C2399.4,86.266 2395.04,79.607 2389.59,73.918C2395.04,68.229 2399.4,61.57 2403.55,54.718C2407.7,61.57 2412.07,68.229 2417.52,73.918C2412.07,79.607 2407.7,86.266 2403.55,93.118Z" style="fill:rgb(212,0,0);fill-rule:nonzero;"/>
                <path id="path7072-0" d="M2320.73,93.118C2316.58,86.266 2312.21,79.607 2306.76,73.918C2312.21,68.229 2316.58,61.57 2320.73,54.718C2324.88,61.57 2329.24,68.229 2334.7,73.918C2329.24,79.607 2324.88,86.266 2320.73,93.118Z" style="fill:rgb(212,0,0);fill-rule:nonzero;"/>
                <path id="path7074-4" d="M2362.14,66.656C2357.99,59.804 2353.63,53.145 2348.17,47.456C2353.63,41.768 2357.99,35.108 2362.14,28.256C2366.29,35.108 2370.65,41.768 2376.11,47.456C2370.65,53.145 2366.29,59.804 2362.14,66.656Z" style="fill:rgb(212,0,0);fill-rule:nonzero;"/>
                <path id="path7084-9" d="M2320.73,198.941C2316.58,192.089 2312.21,185.43 2306.76,179.741C2312.21,174.052 2316.58,167.393 2320.73,160.541C2324.88,167.393 2329.24,174.052 2334.7,179.741C2329.24,185.43 2324.88,192.089 2320.73,198.941Z" style="fill:rgb(212,0,0);fill-rule:nonzero;"/>
                <path id="path7086-7" d="M2403.55,198.947C2399.4,192.095 2395.04,185.435 2389.59,179.747C2395.04,174.058 2399.4,167.399 2403.55,160.547C2407.7,167.399 2412.07,174.058 2417.52,179.747C2412.07,185.435 2407.7,192.095 2403.55,198.947Z" style="fill:rgb(212,0,0);fill-rule:nonzero;"/>
                <path id="path7088-6" d="M2403.55,146.024C2399.4,139.172 2395.04,132.512 2389.59,126.824C2395.04,121.135 2399.4,114.476 2403.55,107.624C2407.7,114.476 2412.07,121.135 2417.52,126.824C2412.07,132.512 2407.7,139.172 2403.55,146.024Z" style="fill:rgb(212,0,0);fill-rule:nonzero;"/>
                <path id="path7090-8" d="M2320.73,145.998C2316.58,139.146 2312.21,132.487 2306.76,126.798C2312.21,121.109 2316.58,114.45 2320.73,107.598C2324.88,114.45 2329.24,121.109 2334.7,126.798C2329.24,132.487 2324.88,139.146 2320.73,145.998Z" style="fill:rgb(212,0,0);fill-rule:nonzero;"/>
                <path id="path7092-79" d="M2362.14,172.481C2357.99,165.629 2353.63,158.97 2348.17,153.281C2353.63,147.592 2357.99,140.933 2362.14,134.081C2366.29,140.933 2370.65,147.592 2376.11,153.281C2370.65,158.97 2366.29,165.629 2362.14,172.481Z" style="fill:rgb(212,0,0);fill-rule:nonzero;"/>
                <g id="g8345-9-6-9-5" transform="matrix(1,0,0,0.99998,1447.74,-430.981)">
                    <rect id="path31-8-2-5-6" x="830.866" y="417.704" width="2.559" height="26.4" style="fill:rgb(212,0,0);fill-rule:nonzero;"/>
                    <path id="path33-2-0-3-1" d="M841.011,417.703C838.547,417.703 836.567,419.953 836.567,422.748L836.567,439.059C836.567,441.854 838.548,444.103 841.011,444.103L842.449,444.103C844.912,444.103 846.896,441.854 846.896,439.059L846.896,422.748C846.896,419.953 844.911,417.703 842.449,417.703L841.011,417.703ZM841.754,420.2C843.209,420.2 844.378,421.315 844.378,422.711L844.378,439.237C844.378,440.633 843.209,441.759 841.754,441.759C840.3,441.759 839.126,440.633 839.126,439.237L839.126,422.711C839.126,421.316 840.3,420.2 841.754,420.2Z" style="fill:rgb(212,0,0);fill-rule:nonzero;"/>
                </g>
                <g id="g8345-5-0-8-9" transform="matrix(-1,0,0,-0.99998,3276.54,631.718)">
                    <rect id="path31-1-3-1-4" x="830.866" y="417.704" width="2.559" height="26.4" style="fill:rgb(212,0,0);fill-rule:nonzero;"/>
                    <path id="path33-5-5-1-9" d="M841.011,417.703C838.547,417.703 836.567,419.953 836.567,422.748L836.567,439.059C836.567,441.854 838.548,444.103 841.011,444.103L842.449,444.103C844.912,444.103 846.896,441.854 846.896,439.059L846.896,422.748C846.896,419.953 844.911,417.703 842.449,417.703L841.011,417.703ZM841.754,420.2C843.209,420.2 844.378,421.315 844.378,422.711L844.378,439.237C844.378,440.633 843.209,441.759 841.754,441.759C840.3,441.759 839.126,440.633 839.126,439.237L839.126,422.711C839.126,421.316 840.3,420.2 841.754,420.2Z" style="fill:rgb(212,0,0);fill-rule:nonzero;"/>
                </g>
            </g>
        </g>
    </g>
</svg>
