<?xml version="1.0" encoding="UTF-8" standalone="no"?>
<!DOCTYPE svg PUBLIC "-//W3C//DTD SVG 1.1//EN" "http://www.w3.org/Graphics/SVG/1.1/DTD/svg11.dtd">
<svg width="100%" height="100%" viewBox="0 0 182 253" version="1.1" xmlns="http://www.w3.org/2000/svg" xmlns:xlink="http://www.w3.org/1999/xlink" xml:space="preserve" xmlns:serif="http://www.serif.com/" style="fill-rule:evenodd;clip-rule:evenodd;">
    <g transform="matrix(1,0,0,1,-1941,-597)">
        <g transform="matrix(1,0,0,1,-328,1179.11)">
            <g transform="matrix(0.995538,0,0,0.996801,-324.359,-204.289)">
                <g id="_10_spades" serif:id="10_spades">
                    <g id="g8587-4-9">
                        <path id="rect7263-6-4" d="M2785.43,-368.557C2785.43,-373.287 2781.59,-377.127 2776.85,-377.127L2615.43,-377.127C2610.69,-377.127 2606.85,-373.287 2606.85,-368.557L2606.85,-136.247C2606.85,-131.518 2610.69,-127.678 2615.43,-127.678L2776.85,-127.678C2781.59,-127.678 2785.43,-131.518 2785.43,-136.247L2785.43,-368.557Z" style="fill:white;stroke:black;stroke-width:0.8px;"/>
                        <path id="path7293-3-2" d="M2654.72,-350.971C2647.35,-340.445 2639.45,-334.388 2639.32,-326.176C2639.27,-323.517 2640.71,-318.997 2645.21,-318.132C2648.14,-317.574 2652.16,-319.938 2652.24,-324.742C2652.23,-325.699 2653.25,-325.674 2653.24,-324.363C2653.11,-320.574 2651.91,-316.162 2649.89,-312.571L2659.56,-312.571C2657.54,-316.162 2656.34,-320.574 2656.21,-324.363C2656.2,-325.674 2657.22,-325.699 2657.21,-324.742C2657.29,-319.938 2661.32,-317.574 2664.24,-318.132C2668.74,-318.997 2670.18,-323.517 2670.14,-326.176C2670,-334.388 2662.11,-340.445 2654.72,-350.971Z" style="fill-rule:nonzero;"/>
                        <path id="path7295-4-8" d="M2620.62,-337.148C2617.17,-332.762 2613.48,-330.238 2613.42,-326.817C2613.4,-325.709 2614.07,-323.826 2616.18,-323.465C2617.54,-323.232 2619.42,-324.218 2619.46,-326.219C2619.45,-326.618 2619.93,-326.608 2619.93,-326.062C2619.87,-324.483 2619.3,-322.644 2618.36,-321.148L2622.88,-321.148C2621.94,-322.644 2621.38,-324.483 2621.31,-326.062C2621.3,-326.608 2621.79,-326.618 2621.78,-326.219C2621.82,-324.218 2623.7,-323.232 2625.07,-323.465C2627.17,-323.826 2627.84,-325.709 2627.82,-326.817C2627.76,-330.238 2624.07,-332.762 2620.62,-337.148Z" style="fill-rule:nonzero;"/>
                        <path id="path7297-5-1" d="M2654.72,-206.746C2647.35,-217.272 2639.45,-223.329 2639.32,-231.541C2639.27,-234.2 2640.71,-238.719 2645.21,-239.584C2648.14,-240.143 2652.16,-237.778 2652.24,-232.974C2652.23,-232.018 2653.25,-232.043 2653.24,-233.353C2653.11,-237.143 2651.91,-241.555 2649.89,-245.146L2659.56,-245.146C2657.54,-241.555 2656.34,-237.143 2656.21,-233.353C2656.2,-232.043 2657.22,-232.018 2657.21,-232.974C2657.29,-237.778 2661.32,-240.143 2664.24,-239.584C2668.74,-238.719 2670.18,-234.2 2670.14,-231.541C2670,-223.329 2662.11,-217.272 2654.72,-206.746Z" style="fill-rule:nonzero;"/>
                        <path id="path7299-3-5" d="M2771.66,-167.656C2768.21,-172.042 2764.52,-174.566 2764.46,-177.987C2764.44,-179.095 2765.11,-180.978 2767.21,-181.339C2768.58,-181.572 2770.46,-180.586 2770.5,-178.585C2770.49,-178.186 2770.97,-178.197 2770.97,-178.743C2770.9,-180.322 2770.34,-182.16 2769.4,-183.656L2773.91,-183.656C2772.97,-182.16 2772.41,-180.322 2772.35,-178.743C2772.34,-178.197 2772.82,-178.186 2772.82,-178.585C2772.86,-180.586 2774.74,-181.572 2776.1,-181.339C2778.2,-180.978 2778.88,-179.095 2778.86,-177.987C2778.8,-174.566 2775.11,-172.042 2771.66,-167.656Z" style="fill-rule:nonzero;"/>
                        <path id="path7301-4-0" d="M2737.55,-350.971C2730.17,-340.445 2722.27,-334.388 2722.14,-326.176C2722.1,-323.517 2723.54,-318.997 2728.04,-318.132C2730.96,-317.574 2734.98,-319.938 2735.07,-324.742C2735.05,-325.699 2736.08,-325.674 2736.07,-324.363C2735.93,-320.574 2734.73,-316.162 2732.72,-312.571L2742.39,-312.571C2740.37,-316.162 2739.17,-320.574 2739.03,-324.363C2739.02,-325.674 2740.05,-325.699 2740.04,-324.742C2740.12,-319.938 2744.14,-317.574 2747.06,-318.132C2751.57,-318.997 2753.01,-323.517 2752.96,-326.176C2752.83,-334.388 2744.93,-340.445 2737.55,-350.971Z" style="fill-rule:nonzero;"/>
                        <path id="path7303-7-8" d="M2654.72,-298.058C2647.35,-287.533 2639.45,-281.475 2639.32,-273.264C2639.27,-270.605 2640.71,-266.085 2645.21,-265.22C2648.14,-264.661 2652.16,-267.026 2652.24,-271.83C2652.23,-272.786 2653.25,-272.761 2653.24,-271.451C2653.11,-267.661 2651.91,-263.25 2649.89,-259.658L2659.56,-259.658C2657.54,-263.25 2656.34,-267.661 2656.21,-271.451C2656.2,-272.761 2657.22,-272.786 2657.21,-271.83C2657.29,-267.026 2661.32,-264.661 2664.24,-265.22C2668.74,-266.085 2670.18,-270.605 2670.14,-273.264C2670,-281.475 2662.11,-287.533 2654.72,-298.058Z" style="fill-rule:nonzero;"/>
                        <path id="path7305-6-7" d="M2696.14,-316.858C2688.76,-306.333 2680.86,-300.275 2680.73,-292.064C2680.68,-289.405 2682.12,-284.885 2686.63,-284.02C2689.55,-283.461 2693.57,-285.826 2693.65,-290.63C2693.64,-291.586 2694.67,-291.561 2694.66,-290.251C2694.52,-286.461 2693.32,-282.05 2691.3,-278.458L2700.97,-278.458C2698.96,-282.05 2697.76,-286.461 2697.62,-290.251C2697.61,-291.561 2698.64,-291.586 2698.62,-290.63C2698.71,-285.826 2702.73,-283.461 2705.65,-284.02C2710.15,-284.885 2711.59,-289.405 2711.55,-292.064C2711.42,-300.275 2703.52,-306.333 2696.14,-316.858Z" style="fill-rule:nonzero;"/>
                        <path id="path7309-8-5" d="M2737.55,-298.058C2730.17,-287.533 2722.27,-281.475 2722.14,-273.264C2722.1,-270.605 2723.54,-266.085 2728.04,-265.22C2730.96,-264.661 2734.98,-267.026 2735.07,-271.83C2735.05,-272.786 2736.08,-272.761 2736.07,-271.451C2735.93,-267.661 2734.73,-263.25 2732.72,-259.658L2742.39,-259.658C2740.37,-263.25 2739.17,-267.661 2739.03,-271.451C2739.02,-272.761 2740.05,-272.786 2740.04,-271.83C2740.12,-267.026 2744.14,-264.661 2747.06,-265.22C2751.57,-266.085 2753.01,-270.605 2752.96,-273.264C2752.83,-281.475 2744.93,-287.533 2737.55,-298.058Z" style="fill-rule:nonzero;"/>
                        <path id="path7313-6-8" d="M2654.72,-153.834C2647.35,-164.359 2639.45,-170.416 2639.32,-178.628C2639.27,-181.287 2640.71,-185.807 2645.21,-186.672C2648.14,-187.231 2652.16,-184.866 2652.24,-180.062C2652.23,-179.106 2653.25,-179.131 2653.24,-180.441C2653.11,-184.23 2651.91,-188.642 2649.89,-192.234L2659.56,-192.234C2657.54,-188.642 2656.34,-184.23 2656.21,-180.441C2656.2,-179.131 2657.22,-179.106 2657.21,-180.062C2657.29,-184.866 2661.32,-187.231 2664.24,-186.672C2668.74,-185.807 2670.18,-181.287 2670.14,-178.628C2670,-170.416 2662.11,-164.359 2654.72,-153.834Z" style="fill-rule:nonzero;"/>
                        <path id="path7315-7-3" d="M2737.55,-153.834C2730.17,-164.359 2722.27,-170.416 2722.14,-178.628C2722.1,-181.287 2723.54,-185.807 2728.04,-186.672C2730.96,-187.231 2734.98,-184.866 2735.07,-180.062C2735.05,-179.106 2736.08,-179.131 2736.07,-180.441C2735.93,-184.23 2734.73,-188.642 2732.72,-192.234L2742.39,-192.234C2740.37,-188.642 2739.17,-184.23 2739.03,-180.441C2739.02,-179.131 2740.05,-179.106 2740.04,-180.062C2740.12,-184.866 2744.14,-187.231 2747.06,-186.672C2751.57,-185.807 2753.01,-181.287 2752.96,-178.628C2752.83,-170.416 2744.93,-164.359 2737.55,-153.834Z" style="fill-rule:nonzero;"/>
                        <path id="path7317-0-2" d="M2696.14,-187.946C2688.76,-198.472 2680.86,-204.529 2680.73,-212.741C2680.68,-215.4 2682.12,-219.919 2686.63,-220.784C2689.55,-221.343 2693.57,-218.978 2693.65,-214.174C2693.64,-213.218 2694.67,-213.243 2694.66,-214.553C2694.52,-218.343 2693.32,-222.755 2691.3,-226.346L2700.97,-226.346C2698.96,-222.755 2697.76,-218.343 2697.62,-214.553C2697.61,-213.243 2698.64,-213.218 2698.62,-214.174C2698.71,-218.978 2702.73,-221.343 2705.65,-220.784C2710.15,-219.919 2711.59,-215.4 2711.55,-212.741C2711.42,-204.529 2703.52,-198.472 2696.14,-187.946Z" style="fill-rule:nonzero;"/>
                        <path id="path7319-5-6" d="M2737.55,-206.746C2730.17,-217.272 2722.27,-223.329 2722.14,-231.541C2722.1,-234.2 2723.54,-238.719 2728.04,-239.584C2730.96,-240.143 2734.98,-237.778 2735.07,-232.974C2735.05,-232.018 2736.08,-232.043 2736.07,-233.353C2735.93,-237.143 2734.73,-241.555 2732.72,-245.146L2742.39,-245.146C2740.37,-241.555 2739.17,-237.143 2739.03,-233.353C2739.02,-232.043 2740.05,-232.018 2740.04,-232.974C2740.12,-237.778 2744.14,-240.143 2747.06,-239.584C2751.57,-238.719 2753.01,-234.2 2752.96,-231.541C2752.83,-223.329 2744.93,-217.272 2737.55,-206.746Z" style="fill-rule:nonzero;"/>
                        <rect id="path31-5-4-7" x="2612.61" y="-366.056" width="2.559" height="26.399" style="fill-rule:nonzero;"/>
                        <path id="path33-4-6-8" d="M2622.75,-366.056C2620.29,-366.056 2618.31,-363.806 2618.31,-361.012L2618.31,-344.701C2618.31,-341.906 2620.29,-339.657 2622.75,-339.657L2624.19,-339.657C2626.65,-339.657 2628.64,-341.906 2628.64,-344.701L2628.64,-361.012C2628.64,-363.806 2626.65,-366.056 2624.19,-366.056L2622.75,-366.056ZM2623.49,-363.56C2624.95,-363.56 2626.12,-362.445 2626.12,-361.049L2626.12,-344.523C2626.12,-343.127 2624.95,-342.001 2623.49,-342.001C2622.04,-342.001 2620.87,-343.127 2620.87,-344.523L2620.87,-361.049C2620.87,-362.443 2622.04,-363.56 2623.49,-363.56Z" style="fill-rule:nonzero;"/>
                        <g id="g8583-6-9" transform="matrix(-1,0,0,1,5543.31,0)">
                            <rect id="path31-5-5-6-7" x="2763.64" y="-165.148" width="2.559" height="26.399" style="fill-rule:nonzero;"/>
                            <path id="path33-4-3-7-9" d="M2773.78,-138.748C2771.32,-138.748 2769.34,-140.998 2769.34,-143.793L2769.34,-160.104C2769.34,-162.898 2771.32,-165.147 2773.78,-165.147L2775.22,-165.147C2777.69,-165.147 2779.67,-162.898 2779.67,-160.104L2779.67,-143.793C2779.67,-140.998 2777.68,-138.748 2775.22,-138.748L2773.78,-138.748ZM2774.53,-141.244C2775.98,-141.244 2777.15,-142.36 2777.15,-143.755L2777.15,-160.282C2777.15,-161.677 2775.98,-162.803 2774.53,-162.803C2773.07,-162.803 2771.9,-161.677 2771.9,-160.282L2771.9,-143.755C2771.9,-142.361 2773.07,-141.244 2774.53,-141.244Z" style="fill-rule:nonzero;"/>
                        </g>
                    </g>
                </g>
            </g>
        </g>
    </g>
</svg>
