<?xml version="1.0" encoding="UTF-8" standalone="no"?><!DOCTYPE svg PUBLIC "-//W3C//DTD SVG 1.1//EN" "http://www.w3.org/Graphics/SVG/1.1/DTD/svg11.dtd"><svg width="100%" height="100%" viewBox="0 0 178 249" version="1.1" xmlns="http://www.w3.org/2000/svg" xmlns:xlink="http://www.w3.org/1999/xlink" xml:space="preserve" xmlns:serif="http://www.serif.com/" style="fill-rule:evenodd;clip-rule:evenodd;stroke-linejoin:round;stroke-miterlimit:2;"><rect id="_2-clubs" serif:id="2-clubs" x="0" y="0" width="178" height="249" style="fill:none;"/><clipPath id="_clip1"><rect x="0" y="0" width="178" height="249"/></clipPath><g clip-path="url(#_clip1)"><rect x="-176.211" y="0" width="2312.21" height="1245" style="fill:#fff;"/><g id="_2_clubs" serif:id="2_clubs"><path id="path147-0-8-1-6-7-2-1-6-3" d="M88.997,26.46c-7.829,0.17 -11.34,8.985 -5.542,15.83c0.841,0.998 0.928,1.572 -0.612,0.612c-3.904,-2.61 -11.389,-0.894 -11.772,7.087c-0.474,9.833 13.266,12.666 15.846,2.21c0.136,-1.103 1.032,-1.078 0.816,0.488c-0.235,4.25 -1.562,8.223 -3.387,12.097l9.308,0c-1.825,-3.874 -3.152,-7.847 -3.387,-12.097c-0.217,-1.566 0.68,-1.591 0.816,-0.488c2.58,10.456 16.32,7.623 15.846,-2.21c-0.383,-7.981 -7.868,-9.697 -11.772,-7.087c-1.54,0.96 -1.454,0.386 -0.613,-0.612c5.799,-6.845 2.288,-15.66 -5.541,-15.83c0,0 0,0 -0.008,0l0.002,0Z" style="fill-rule:nonzero;"/><path id="path147-0-8-1-6-1-4-5-4-2" d="M88.997,223.204c-7.829,-0.17 -11.34,-8.985 -5.542,-15.83c0.841,-0.999 0.928,-1.571 -0.612,-0.612c-3.904,2.61 -11.389,0.894 -11.772,-7.087c-0.474,-9.833 13.266,-12.666 15.846,-2.21c0.136,1.103 1.032,1.078 0.816,-0.488c-0.235,-4.25 -1.562,-8.223 -3.387,-12.097l9.308,0c-1.825,3.874 -3.152,7.847 -3.387,12.097c-0.217,1.566 0.68,1.591 0.816,0.488c2.58,-10.456 16.32,-7.623 15.846,2.21c-0.383,7.981 -7.868,9.697 -11.772,7.087c-1.54,-0.959 -1.454,-0.387 -0.613,0.612c5.799,6.845 2.288,15.66 -5.541,15.83c0,0 0,0 -0.008,0l0.002,0Z" style="fill-rule:nonzero;"/><path id="path147-6-9-8-7-0-5-4-9-1" d="M164.273,209.077c3.131,-0.071 4.536,-3.744 2.216,-6.596c-0.336,-0.416 -0.371,-0.655 0.245,-0.255c1.562,1.087 4.556,0.372 4.709,-2.953c0.19,-4.097 -5.306,-5.278 -6.338,-0.921c-0.054,0.46 -0.413,0.449 -0.327,-0.203c0.094,-1.771 0.625,-3.426 1.355,-5.04l-3.723,0c0.73,1.614 1.261,3.269 1.355,5.04c0.087,0.652 -0.272,0.663 -0.327,0.203c-1.031,-4.357 -6.527,-3.176 -6.338,0.921c0.153,3.325 3.147,4.04 4.709,2.953c0.616,-0.4 0.581,-0.161 0.245,0.255c-2.319,2.852 -0.915,6.525 2.216,6.596c0.001,0 0,0 0,0l0.003,0Z" style="fill-rule:nonzero;"/><path id="path147-6-9-8-7-4-5-9-2-7" d="M13.728,39.923c-3.132,0.071 -4.536,3.744 -2.217,6.596c0.337,0.416 0.371,0.655 -0.245,0.255c-1.561,-1.087 -4.555,-0.372 -4.709,2.953c-0.189,4.097 5.307,5.278 6.339,0.921c0.054,-0.46 0.413,-0.449 0.326,0.203c-0.094,1.771 -0.625,3.426 -1.354,5.041l3.722,0c-0.729,-1.615 -1.26,-3.27 -1.354,-5.041c-0.087,-0.652 0.272,-0.663 0.326,-0.203c1.032,4.357 6.528,3.176 6.339,-0.921c-0.154,-3.325 -3.148,-4.04 -4.709,-2.953c-0.616,0.4 -0.582,0.161 -0.245,-0.255c2.319,-2.852 0.915,-6.525 -2.217,-6.596c-0.001,0 0,0 0,0l-0.002,0Z" style="fill-rule:nonzero;"/><path id="path15-9-1-0-1" d="M5.84,37.364l0.128,-1.625c0.405,-5.021 1.483,-6.714 7.594,-11.956c2.967,-2.54 3.94,-3.794 4.076,-5.248c0.389,-3.43 -2.643,-4.501 -4.618,-4.517c-2.558,-0.023 -5.454,1.536 -4.072,5.16l-2.871,0.86c-0.577,-3.38 0.017,-6.551 2.703,-7.958c3.588,-1.835 8.189,-1.116 10.513,1.775c1.561,1.94 1.918,4.623 1.08,6.724c-2.447,5.366 -10.748,7.726 -11.433,13.935l9.175,0l0,-3.457l2.703,0l0,6.363l-14.978,-0.056l0,0Z" style="fill-rule:nonzero;"/><path id="path15-5-7-4-9-4" d="M171.76,211.636l-0.129,1.625c-0.405,5.021 -1.482,6.714 -7.593,11.956c-2.967,2.54 -3.94,3.794 -4.076,5.248c-0.389,3.431 2.643,4.501 4.617,4.517c2.559,0.023 5.454,-1.536 4.072,-5.16l2.872,-0.86c0.577,3.38 -0.017,6.551 -2.704,7.958c-3.588,1.835 -8.189,1.116 -10.512,-1.775c-1.561,-1.94 -1.918,-4.623 -1.081,-6.724c2.448,-5.365 10.749,-7.726 11.433,-13.934l-9.174,0l0,3.456l-2.704,0l0,-6.363l14.979,0.057l0,-0.001Z" style="fill-rule:nonzero;"/></g></g></svg>