<?xml version="1.0" encoding="UTF-8" standalone="no"?><!DOCTYPE svg PUBLIC "-//W3C//DTD SVG 1.1//EN" "http://www.w3.org/Graphics/SVG/1.1/DTD/svg11.dtd"><svg width="100%" height="100%" viewBox="0 0 178 249" version="1.1" xmlns="http://www.w3.org/2000/svg" xmlns:xlink="http://www.w3.org/1999/xlink" xml:space="preserve" xmlns:serif="http://www.serif.com/" style="fill-rule:evenodd;clip-rule:evenodd;stroke-linejoin:round;stroke-miterlimit:2;"><rect id="_2-diamonds" serif:id="2-diamonds" x="0" y="0" width="178" height="249" style="fill:none;"/><clipPath id="_clip1"><rect x="0" y="0" width="178" height="249"/></clipPath><g clip-path="url(#_clip1)"><rect x="-176.211" y="-747" width="2312.21" height="1245" style="fill:#fff;"/><g><g id="_2_diamonds" serif:id="2_diamonds"><path id="path6516-8" d="M89,64.451c-4.135,-6.838 -8.486,-13.484 -13.923,-19.161c5.437,-5.678 9.788,-12.324 13.923,-19.162c4.135,6.838 8.486,13.484 13.923,19.162c-5.437,5.677 -9.788,12.323 -13.923,19.161Z" style="fill:#d40000;fill-rule:nonzero;"/><path id="path6518-2" d="M13.729,55.891c-1.723,-2.849 -3.536,-5.618 -5.801,-7.984c2.265,-2.365 4.078,-5.135 5.801,-7.984c1.723,2.849 3.536,5.619 5.801,7.984c-2.265,2.366 -4.078,5.135 -5.801,7.984Z" style="fill:#d40000;fill-rule:nonzero;"/><path id="path6522-0" d="M164.272,209.077c-1.723,-2.849 -3.536,-5.618 -5.802,-7.984c2.266,-2.366 4.079,-5.135 5.802,-7.984c1.723,2.849 3.536,5.618 5.801,7.984c-2.265,2.366 -4.078,5.135 -5.801,7.984Z" style="fill:#d40000;fill-rule:nonzero;"/><path id="path6538-6" d="M89,222.872c-4.135,-6.838 -8.486,-13.484 -13.923,-19.162c5.437,-5.677 9.788,-12.323 13.923,-19.161c4.135,6.838 8.486,13.484 13.923,19.161c-5.437,5.678 -9.788,12.324 -13.923,19.162Z" style="fill:#d40000;fill-rule:nonzero;"/><path id="path15-34-1-4-2" d="M6.239,37.363l0.128,-1.625c0.405,-5.02 1.482,-6.714 7.593,-11.955c2.967,-2.541 3.94,-3.794 4.077,-5.249c0.388,-3.43 -2.643,-4.501 -4.618,-4.516c-2.559,-0.023 -5.454,1.536 -4.072,5.159l-2.872,0.861c-0.577,-3.38 0.017,-6.551 2.704,-7.959c3.588,-1.835 8.189,-1.115 10.512,1.776c1.562,1.939 1.918,4.623 1.081,6.723c-2.447,5.366 -10.748,7.727 -11.433,13.935l9.174,0l0,-3.456l2.704,0l0,6.363l-14.978,-0.057l0,0Z" style="fill:#d40000;fill-rule:nonzero;"/><path id="path15-5-4-6-4" d="M171.76,211.637l-0.129,1.625c-0.405,5.02 -1.482,6.714 -7.593,11.955c-2.967,2.541 -3.94,3.794 -4.076,5.249c-0.389,3.43 2.643,4.501 4.617,4.516c2.559,0.024 5.454,-1.536 4.072,-5.159l2.872,-0.861c0.577,3.38 -0.017,6.551 -2.704,7.959c-3.588,1.835 -8.189,1.115 -10.512,-1.776c-1.561,-1.939 -1.918,-4.623 -1.081,-6.723c2.448,-5.366 10.748,-7.727 11.433,-13.935l-9.174,0l0,3.456l-2.704,0l0,-6.363l14.979,0.057l0,0Z" style="fill:#d40000;fill-rule:nonzero;"/></g></g></g></svg>