<?xml version="1.0" encoding="UTF-8" standalone="no"?><!DOCTYPE svg PUBLIC "-//W3C//DTD SVG 1.1//EN" "http://www.w3.org/Graphics/SVG/1.1/DTD/svg11.dtd"><svg width="100%" height="100%" viewBox="0 0 178 249" version="1.1" xmlns="http://www.w3.org/2000/svg" xmlns:xlink="http://www.w3.org/1999/xlink" xml:space="preserve" xmlns:serif="http://www.serif.com/" style="fill-rule:evenodd;clip-rule:evenodd;stroke-linejoin:round;stroke-miterlimit:2;"><rect id="_2-hearts" serif:id="2-hearts" x="0" y="0" width="178" height="249" style="fill:none;"/><clipPath id="_clip1"><rect x="0" y="0" width="178" height="249"/></clipPath><g clip-path="url(#_clip1)"><rect x="-176.211" y="-249" width="2312.21" height="1245" style="fill:#fff;"/><g id="_2_hearts" serif:id="2_hearts"><path id="path9766-0-8" d="M13.729,55.892c0,0 -1.774,-2.547 -4.167,-5.541c-1.601,-2.004 -2.881,-4.174 -3,-6.043c-0.136,-2.135 1.156,-4.276 3.494,-4.38c2.338,-0.104 3.287,1.646 3.673,3.089c0.386,-1.443 1.335,-3.193 3.672,-3.089c2.339,0.104 3.631,2.245 3.495,4.38c-0.119,1.869 -1.399,4.039 -3,6.043c-2.393,2.994 -4.167,5.541 -4.167,5.541Z" style="fill:#d40000;fill-rule:nonzero;"/><path id="path9768-3-3" d="M164.272,193.109c0,0 -1.774,2.546 -4.167,5.541c-1.601,2.003 -2.881,4.173 -3,6.042c-0.136,2.135 1.155,4.276 3.494,4.38c2.338,0.104 3.286,-1.646 3.673,-3.088c0.386,1.442 1.335,3.192 3.672,3.088c2.339,-0.104 3.631,-2.245 3.494,-4.38c-0.119,-1.869 -1.398,-4.039 -2.999,-6.042c-2.393,-2.995 -4.167,-5.541 -4.167,-5.541Z" style="fill:#d40000;fill-rule:nonzero;"/><path id="path9772-1-7" d="M89,64.452c0,0 -3.721,-6.112 -8.74,-13.299c-3.358,-4.809 -6.042,-10.016 -6.292,-14.501c-0.286,-5.124 2.423,-10.264 7.329,-10.513c4.903,-0.249 6.893,3.95 7.703,7.413c0.81,-3.463 2.8,-7.662 7.703,-7.413c4.906,0.249 7.615,5.389 7.329,10.513c-0.25,4.485 -2.934,9.692 -6.292,14.501c-5.019,7.187 -8.74,13.299 -8.74,13.299Z" style="fill:#d40000;fill-rule:nonzero;"/><path id="path9786-2-1" d="M89,184.548c0,0 -3.721,6.112 -8.74,13.299c-3.358,4.809 -6.042,10.016 -6.292,14.501c-0.286,5.124 2.423,10.264 7.329,10.513c4.903,0.249 6.893,-3.95 7.703,-7.413c0.81,3.463 2.8,7.662 7.703,7.413c4.906,-0.249 7.615,-5.389 7.329,-10.513c-0.25,-4.485 -2.934,-9.692 -6.292,-14.501c-5.019,-7.187 -8.74,-13.299 -8.74,-13.299Z" style="fill:#d40000;fill-rule:nonzero;"/><path id="path15-34-0-0-4" d="M6.239,37.364l0.128,-1.625c0.405,-5.021 1.482,-6.714 7.593,-11.956c2.967,-2.54 3.94,-3.794 4.077,-5.248c0.388,-3.43 -2.643,-4.501 -4.618,-4.517c-2.559,-0.023 -5.454,1.536 -4.072,5.16l-2.871,0.86c-0.578,-3.38 0.016,-6.551 2.703,-7.958c3.588,-1.835 8.189,-1.116 10.512,1.775c1.562,1.94 1.918,4.623 1.081,6.724c-2.447,5.365 -10.748,7.726 -11.433,13.935l9.174,0l0,-3.457l2.704,0l0,6.363l-14.978,-0.057l0,0.001Z" style="fill:#d40000;fill-rule:nonzero;"/><path id="path15-5-4-5-2-7" d="M171.76,211.636l-0.129,1.625c-0.405,5.021 -1.482,6.714 -7.593,11.956c-2.967,2.54 -3.94,3.794 -4.076,5.248c-0.389,3.431 2.643,4.501 4.617,4.517c2.559,0.023 5.454,-1.536 4.072,-5.16l2.872,-0.86c0.577,3.38 -0.017,6.551 -2.704,7.958c-3.588,1.835 -8.189,1.116 -10.512,-1.775c-1.561,-1.94 -1.918,-4.623 -1.081,-6.724c2.448,-5.365 10.749,-7.726 11.433,-13.934l-9.174,0l0,3.456l-2.704,0l0,-6.363l14.979,0.057l0,-0.001Z" style="fill:#d40000;fill-rule:nonzero;"/></g></g></svg>