<?xml version="1.0" encoding="UTF-8" standalone="no"?><!DOCTYPE svg PUBLIC "-//W3C//DTD SVG 1.1//EN" "http://www.w3.org/Graphics/SVG/1.1/DTD/svg11.dtd"><svg width="100%" height="100%" viewBox="0 0 178 249" version="1.1" xmlns="http://www.w3.org/2000/svg" xmlns:xlink="http://www.w3.org/1999/xlink" xml:space="preserve" xmlns:serif="http://www.serif.com/" style="fill-rule:evenodd;clip-rule:evenodd;stroke-linejoin:round;stroke-miterlimit:2;"><rect id="_2-spades" serif:id="2-spades" x="0" y="0" width="178" height="249" style="fill:none;"/><clipPath id="_clip1"><rect x="0" y="0" width="178" height="249"/></clipPath><g clip-path="url(#_clip1)"><rect x="-176.211" y="-498" width="2312.21" height="1245" style="fill:#fff;"/><g id="_2_spades" serif:id="2_spades"><path id="path6748-4-0" d="M13.729,39.923c-3.437,4.377 -7.115,6.896 -7.176,10.311c-0.021,1.106 0.649,2.985 2.746,3.345c1.361,0.232 3.234,-0.751 3.273,-2.749c-0.008,-0.398 0.472,-0.387 0.467,0.158c-0.064,1.576 -0.623,3.41 -1.561,4.904l4.502,0c-0.939,-1.494 -1.497,-3.328 -1.561,-4.904c-0.008,-0.545 0.473,-0.556 0.467,-0.158c0.039,1.998 1.912,2.981 3.273,2.749c2.097,-0.36 2.766,-2.239 2.746,-3.345c-0.061,-3.415 -3.739,-5.934 -7.176,-10.311Z" style="fill-rule:nonzero;"/><path id="path6752-9-1" d="M164.272,209.077c-3.438,-4.377 -7.115,-6.896 -7.176,-10.311c-0.021,-1.106 0.649,-2.985 2.746,-3.345c1.36,-0.232 3.234,0.751 3.273,2.749c-0.008,0.398 0.471,0.387 0.467,-0.158c-0.064,-1.575 -0.623,-3.41 -1.562,-4.903l4.503,0c-0.939,1.493 -1.497,3.328 -1.561,4.903c-0.008,0.545 0.473,0.556 0.467,0.158c0.039,-1.998 1.912,-2.981 3.273,-2.749c2.097,0.36 2.766,2.239 2.746,3.345c-0.062,3.415 -3.739,5.934 -7.176,10.311Z" style="fill-rule:nonzero;"/><path id="path6760-2-4" d="M89,26.128c-7.357,10.505 -15.228,16.55 -15.359,24.746c-0.044,2.653 1.389,7.164 5.878,8.027c2.912,0.558 6.921,-1.802 7.005,-6.597c-0.013,-0.954 1.009,-0.929 1,0.379c-0.138,3.781 -1.333,8.185 -3.343,11.769l9.638,0c-2.01,-3.584 -3.205,-7.988 -3.343,-11.769c-0.009,-1.308 1.013,-1.333 1,-0.379c0.084,4.795 4.093,7.155 7.005,6.597c4.489,-0.863 5.922,-5.374 5.878,-8.027c-0.131,-8.196 -8.002,-14.241 -15.359,-24.746Z" style="fill-rule:nonzero;"/><path id="path6774-6-2" d="M89,222.872c-7.357,-10.505 -15.228,-16.55 -15.359,-24.746c-0.044,-2.653 1.389,-7.164 5.878,-8.027c2.912,-0.558 6.921,1.802 7.005,6.597c-0.013,0.954 1.009,0.929 1,-0.379c-0.138,-3.781 -1.333,-8.185 -3.343,-11.769l9.638,0c-2.01,3.584 -3.205,7.988 -3.343,11.769c-0.009,1.308 1.013,1.333 1,0.379c0.084,-4.795 4.093,-7.155 7.005,-6.597c4.489,0.863 5.922,5.374 5.878,8.027c-0.131,8.196 -8.002,14.241 -15.359,24.746Z" style="fill-rule:nonzero;"/><path id="path15-3-8-9" d="M6.239,37.364l0.128,-1.625c0.405,-5.021 1.482,-6.714 7.593,-11.956c2.967,-2.54 3.94,-3.794 4.077,-5.248c0.388,-3.43 -2.643,-4.501 -4.618,-4.517c-2.559,-0.023 -5.454,1.536 -4.072,5.16l-2.871,0.86c-0.578,-3.38 0.016,-6.551 2.703,-7.958c3.588,-1.835 8.189,-1.116 10.512,1.775c1.562,1.94 1.918,4.623 1.081,6.724c-2.447,5.366 -10.748,7.726 -11.433,13.935l9.174,0l0,-3.457l2.704,0l0,6.363l-14.978,-0.057l0,0.001Z" style="fill-rule:nonzero;"/><path id="path15-3-5-1-4" d="M171.76,211.637l-0.129,1.624c-0.405,5.021 -1.482,6.715 -7.593,11.956c-2.967,2.54 -3.94,3.794 -4.076,5.248c-0.389,3.431 2.643,4.501 4.617,4.517c2.559,0.023 5.454,-1.536 4.072,-5.16l2.872,-0.86c0.577,3.38 -0.017,6.551 -2.704,7.958c-3.588,1.835 -8.189,1.116 -10.512,-1.775c-1.561,-1.939 -1.918,-4.623 -1.081,-6.724c2.448,-5.365 10.749,-7.726 11.433,-13.934l-9.174,0l0,3.456l-2.703,0l0,-6.363l14.978,0.057l0,0Z" style="fill-rule:nonzero;"/></g></g></svg>