<?xml version="1.0" encoding="UTF-8" standalone="no"?>
<!DOCTYPE svg PUBLIC "-//W3C//DTD SVG 1.1//EN" "http://www.w3.org/Graphics/SVG/1.1/DTD/svg11.dtd">
<svg width="100%" height="100%" viewBox="0 0 182 253" version="1.1" xmlns="http://www.w3.org/2000/svg" xmlns:xlink="http://www.w3.org/1999/xlink" xml:space="preserve" xmlns:serif="http://www.serif.com/" style="fill-rule:evenodd;clip-rule:evenodd;">
    <g transform="matrix(1,0,0,1,-256,-34)">
        <g transform="matrix(1,0,0,1,-328,1179.11)">
            <g id="_2_clubs" serif:id="2_clubs" transform="matrix(1,0,0,1,3.98761,-272.412)">
                <g id="_5D" serif:id="5D" transform="matrix(0.995538,0,0,0.996801,374.79,-1165.97)">
                    <path id="rect6355-6-85-4-0-5" d="M386.929,304.79C386.929,300.06 383.084,296.22 378.349,296.22L216.927,296.22C212.191,296.22 208.346,300.06 208.346,304.79L208.346,537.1C208.346,541.829 212.191,545.669 216.927,545.669L378.349,545.669C383.084,545.669 386.929,541.829 386.929,537.1L386.929,304.79Z" style="fill:white;stroke:black;stroke-width:0.8px;"/>
                </g>
                <path id="path147-0-8-1-6-7-2-1-6-3" d="M671.096,-844.292C663.277,-844.122 659.77,-835.318 665.562,-828.481C666.402,-827.484 666.488,-826.912 664.95,-827.87C661.051,-830.477 653.575,-828.763 653.192,-820.792C652.719,-810.97 666.442,-808.14 669.019,-818.584C669.155,-819.686 670.05,-819.661 669.834,-818.097C669.599,-813.852 668.274,-809.884 666.452,-806.015L675.748,-806.015C673.926,-809.884 672.6,-813.852 672.365,-818.097C672.149,-819.661 673.044,-819.686 673.18,-818.584C675.757,-808.14 689.48,-810.97 689.007,-820.792C688.625,-828.763 681.148,-830.477 677.249,-827.87C675.711,-826.912 675.798,-827.484 676.637,-828.481C682.429,-835.318 678.922,-844.122 671.103,-844.292C671.103,-844.292 671.103,-844.292 671.095,-844.292L671.096,-844.292Z" style="fill-rule:nonzero;"/>
                <path id="path147-0-8-1-6-1-4-5-4-2" d="M671.096,-647.785C663.277,-647.955 659.77,-656.759 665.562,-663.596C666.402,-664.593 666.488,-665.165 664.95,-664.208C661.051,-661.6 653.575,-663.314 653.192,-671.285C652.719,-681.107 666.442,-683.937 669.019,-673.493C669.155,-672.391 670.05,-672.416 669.834,-673.98C669.599,-678.226 668.274,-682.193 666.452,-686.062L675.748,-686.062C673.926,-682.193 672.6,-678.226 672.365,-673.98C672.149,-672.416 673.044,-672.391 673.18,-673.493C675.757,-683.937 689.48,-681.107 689.007,-671.285C688.625,-663.314 681.148,-661.6 677.249,-664.208C675.711,-665.165 675.798,-664.593 676.637,-663.596C682.429,-656.759 678.922,-647.955 671.103,-647.785C671.103,-647.785 671.103,-647.785 671.095,-647.785L671.096,-647.785Z" style="fill-rule:nonzero;"/>
                <path id="path147-6-9-8-7-0-5-4-9-1" d="M746.282,-661.895C749.41,-661.966 750.812,-665.634 748.496,-668.483C748.16,-668.899 748.125,-669.137 748.741,-668.738C750.3,-667.652 753.291,-668.366 753.444,-671.687C753.633,-675.779 748.144,-676.958 747.113,-672.607C747.059,-672.148 746.7,-672.158 746.787,-672.81C746.881,-674.579 747.411,-676.232 748.14,-677.844L744.422,-677.844C745.151,-676.232 745.681,-674.579 745.775,-672.81C745.861,-672.158 745.503,-672.148 745.449,-672.607C744.418,-676.958 738.929,-675.779 739.118,-671.687C739.271,-668.366 742.261,-667.652 743.821,-668.738C744.436,-669.137 744.402,-668.899 744.066,-668.483C741.749,-665.634 743.152,-661.966 746.28,-661.895C746.28,-661.895 746.28,-661.895 746.28,-661.895L746.282,-661.895Z" style="fill-rule:nonzero;"/>
                <path id="path147-6-9-8-7-4-5-9-2-7" d="M595.918,-830.845C592.79,-830.774 591.388,-827.106 593.704,-824.257C594.04,-823.842 594.075,-823.603 593.459,-824.002C591.9,-825.089 588.909,-824.374 588.756,-821.053C588.567,-816.961 594.056,-815.782 595.087,-820.133C595.141,-820.592 595.5,-820.582 595.413,-819.93C595.319,-818.161 594.789,-816.508 594.06,-814.896L597.778,-814.896C597.049,-816.508 596.519,-818.161 596.425,-819.93C596.339,-820.582 596.697,-820.592 596.751,-820.133C597.782,-815.782 603.271,-816.961 603.082,-821.053C602.929,-824.374 599.939,-825.089 598.379,-824.002C597.764,-823.603 597.798,-823.842 598.134,-824.257C600.451,-827.106 599.048,-830.774 595.92,-830.845C595.92,-830.845 595.92,-830.845 595.92,-830.845L595.918,-830.845Z" style="fill-rule:nonzero;"/>
                <path id="path15-9-1-0-1" d="M588.04,-833.402L588.168,-835.024C588.572,-840.039 589.648,-841.731 595.752,-846.966C598.716,-849.503 599.687,-850.755 599.824,-852.208C600.212,-855.634 597.184,-856.703 595.212,-856.719C592.656,-856.742 589.764,-855.185 591.144,-851.565L588.276,-850.706C587.7,-854.082 588.293,-857.249 590.977,-858.655C594.56,-860.488 599.156,-859.769 601.476,-856.882C603.036,-854.945 603.392,-852.264 602.555,-850.166C600.111,-844.807 591.82,-842.449 591.136,-836.248L600.3,-836.248L600.3,-839.701L603,-839.701L603,-833.345L588.04,-833.401L588.04,-833.402Z" style="fill-rule:nonzero;"/>
                <path id="path15-5-7-4-9-4" d="M753.76,-659.339L753.632,-657.716C753.227,-652.701 752.151,-651.01 746.047,-645.775C743.084,-643.237 742.112,-641.985 741.976,-640.532C741.588,-637.106 744.616,-636.037 746.588,-636.021C749.144,-635.998 752.035,-637.555 750.655,-641.175L753.523,-642.034C754.1,-638.658 753.506,-635.491 750.823,-634.085C747.239,-632.253 742.644,-632.971 740.323,-635.858C738.764,-637.795 738.408,-640.476 739.244,-642.574C741.688,-647.933 749.979,-650.291 750.663,-656.492L741.5,-656.492L741.5,-653.04L738.8,-653.04L738.8,-659.395L753.76,-659.338L753.76,-659.339Z" style="fill-rule:nonzero;"/>
            </g>
        </g>
    </g>
</svg>
