<?xml version="1.0" encoding="UTF-8" standalone="no"?>
<!DOCTYPE svg PUBLIC "-//W3C//DTD SVG 1.1//EN" "http://www.w3.org/Graphics/SVG/1.1/DTD/svg11.dtd">
<svg width="100%" height="100%" viewBox="0 0 182 253" version="1.1" xmlns="http://www.w3.org/2000/svg" xmlns:xlink="http://www.w3.org/1999/xlink" xml:space="preserve" xmlns:serif="http://www.serif.com/" style="fill-rule:evenodd;clip-rule:evenodd;">
    <g transform="matrix(1,0,0,1,-256,-878)">
        <g transform="matrix(1,0,0,1,-328,1179.11)">
            <g id="_2_diamonds" serif:id="2_diamonds" transform="matrix(0.995535,0,0,0.996803,6.98414,-274.482)">
                <path id="rect6486-8" d="M760.391,-15.786C760.391,-20.516 756.546,-24.356 751.811,-24.356L590.389,-24.356C585.653,-24.356 581.808,-20.516 581.808,-15.786L581.808,216.523C581.808,221.253 585.653,225.093 590.389,225.093L751.811,225.093C756.546,225.093 760.391,221.253 760.391,216.523L760.391,-15.786Z" style="fill:white;stroke:black;stroke-width:0.8px;"/>
                <path id="path6516-8" d="M671.1,40.2C666.951,33.348 662.586,26.689 657.131,21C662.586,15.311 666.951,8.652 671.1,1.8C675.249,8.652 679.614,15.311 685.068,21C679.614,26.689 675.249,33.348 671.1,40.2Z" style="fill:rgb(212,0,0);fill-rule:nonzero;"/>
                <path id="path6518-2" d="M595.582,31.623C593.853,28.768 592.035,25.993 589.762,23.623C592.035,21.252 593.853,18.478 595.582,15.623C597.311,18.478 599.13,21.252 601.403,23.623C599.13,25.993 597.311,28.768 595.582,31.623Z" style="fill:rgb(212,0,0);fill-rule:nonzero;"/>
                <path id="path6522-0" d="M746.618,185.114C744.889,182.26 743.07,179.485 740.798,177.114C743.07,174.744 744.889,171.969 746.618,169.114C748.347,171.969 750.165,174.744 752.438,177.114C750.165,179.485 748.347,182.26 746.618,185.114Z" style="fill:rgb(212,0,0);fill-rule:nonzero;"/>
                <path id="path6538-6" d="M671.1,198.937C666.951,192.085 662.586,185.426 657.131,179.737C662.586,174.048 666.951,167.389 671.1,160.537C675.249,167.389 679.614,174.048 685.068,179.737C679.614,185.426 675.249,192.085 671.1,198.937Z" style="fill:rgb(212,0,0);fill-rule:nonzero;"/>
                <path id="path15-34-1-4-2" d="M588.067,13.058L588.196,11.43C588.602,6.399 589.683,4.702 595.815,-0.55C598.791,-3.095 599.767,-4.352 599.904,-5.809C600.294,-9.246 597.252,-10.319 595.271,-10.334C592.704,-10.358 589.8,-8.795 591.186,-5.164L588.305,-4.302C587.726,-7.689 588.322,-10.867 591.017,-12.277C594.617,-14.115 599.233,-13.394 601.564,-10.498C603.131,-8.554 603.489,-5.865 602.648,-3.761C600.193,1.616 591.865,3.981 591.178,10.202L600.382,10.202L600.382,6.738L603.095,6.738L603.095,13.114L588.067,13.057L588.067,13.058Z" style="fill:rgb(212,0,0);fill-rule:nonzero;"/>
                <path id="path15-5-4-6-4" d="M754.13,187.679L754.002,189.307C753.595,194.338 752.514,196.035 746.383,201.287C743.407,203.832 742.43,205.088 742.294,206.546C741.904,209.983 744.945,211.056 746.926,211.071C749.493,211.095 752.398,209.532 751.012,205.901L753.893,205.039C754.472,208.426 753.876,211.604 751.18,213.014C747.58,214.852 742.964,214.131 740.634,211.235C739.067,209.292 738.709,206.602 739.549,204.498C742.005,199.121 750.333,196.756 751.02,190.535L741.815,190.535L741.815,193.999L739.103,193.999L739.103,187.623L754.13,187.68L754.13,187.679Z" style="fill:rgb(212,0,0);fill-rule:nonzero;"/>
            </g>
        </g>
    </g>
</svg>
