<?xml version="1.0" encoding="UTF-8" standalone="no"?>
<!DOCTYPE svg PUBLIC "-//W3C//DTD SVG 1.1//EN" "http://www.w3.org/Graphics/SVG/1.1/DTD/svg11.dtd">
<svg width="100%" height="100%" viewBox="0 0 182 253" version="1.1" xmlns="http://www.w3.org/2000/svg" xmlns:xlink="http://www.w3.org/1999/xlink" xml:space="preserve" xmlns:serif="http://www.serif.com/" style="fill-rule:evenodd;clip-rule:evenodd;">
    <g transform="matrix(1,0,0,1,-256,-315)">
        <g transform="matrix(1,0,0,1,-328,1179.11)">
            <g id="_2_hearts" serif:id="2_hearts" transform="matrix(0.995538,0,0,0.996801,8.59779,-13.1813)">
                <g id="_5D" serif:id="5D" transform="matrix(1,0,0,1,371.839,-1147.42)">
                    <path id="rect9734-4-5" d="M386.929,304.79C386.929,300.06 383.084,296.22 378.349,296.22L216.927,296.22C212.191,296.22 208.346,300.06 208.346,304.79L208.346,537.1C208.346,541.829 212.191,545.669 216.927,545.669L378.349,545.669C383.084,545.669 386.929,541.829 386.929,537.1L386.929,304.79Z" style="fill:white;stroke:black;stroke-width:0.8px;"/>
                </g>
                <g id="path9766-0-8" transform="matrix(1,0,0,1,670.277,-683.124)">
                    <path d="M-76.318,-112.097C-76.318,-112.097 -78.097,-114.649 -80.498,-117.649C-82.104,-119.657 -83.388,-121.831 -83.508,-123.703C-83.645,-125.843 -82.348,-127.989 -80.002,-128.093C-77.657,-128.197 -76.705,-126.443 -76.318,-124.998C-75.93,-126.443 -74.978,-128.197 -72.633,-128.093C-70.287,-127.989 -68.99,-125.843 -69.127,-123.703C-69.247,-121.831 -70.531,-119.657 -72.137,-117.649C-74.538,-114.649 -76.318,-112.097 -76.318,-112.097Z" style="fill:rgb(212,0,0);fill-rule:nonzero;"/>
                </g>
                <g id="path9768-3-3" transform="matrix(1,0,0,1,670.277,-683.124)">
                    <path d="M74.718,25.395C74.718,25.395 72.938,27.947 70.538,30.947C68.931,32.955 67.647,35.129 67.528,37.001C67.391,39.14 68.687,41.286 71.034,41.39C73.379,41.494 74.331,39.741 74.718,38.295C75.106,39.741 76.058,41.494 78.403,41.39C80.749,41.286 82.045,39.14 81.908,37.001C81.789,35.129 80.505,32.955 78.899,30.947C76.498,27.947 74.718,25.395 74.718,25.395Z" style="fill:rgb(212,0,0);fill-rule:nonzero;"/>
                </g>
                <g id="path9772-1-7" transform="matrix(1,0,0,1,670.277,-683.124)">
                    <path d="M-0.8,-103.52C-0.8,-103.52 -4.533,-109.644 -9.569,-116.845C-12.938,-121.663 -15.631,-126.881 -15.881,-131.375C-16.168,-136.509 -13.45,-141.659 -8.528,-141.909C-3.609,-142.159 -1.613,-137.951 -0.8,-134.481C0.013,-137.951 2.009,-142.159 6.928,-141.909C11.85,-141.659 14.568,-136.509 14.281,-131.375C14.031,-126.881 11.338,-121.663 7.969,-116.845C2.933,-109.644 -0.8,-103.52 -0.8,-103.52Z" style="fill:rgb(212,0,0);fill-rule:nonzero;"/>
                </g>
                <g id="path9786-2-1" transform="matrix(1,0,0,1,670.277,-683.124)">
                    <path d="M-0.8,16.817C-0.8,16.817 -4.533,22.942 -9.569,30.142C-12.938,34.961 -15.631,40.179 -15.881,44.673C-16.168,49.807 -13.45,54.957 -8.528,55.207C-3.609,55.456 -1.613,51.248 -0.8,47.779C0.013,51.248 2.009,55.456 6.928,55.207C11.85,54.957 14.568,49.807 14.281,44.673C14.031,40.179 11.338,34.961 7.969,30.142C2.933,22.942 -0.8,16.817 -0.8,16.817Z" style="fill:rgb(212,0,0);fill-rule:nonzero;"/>
                </g>
                <path id="path15-34-0-0-4" d="M586.445,-813.786L586.573,-815.414C586.98,-820.445 588.061,-822.142 594.192,-827.394C597.168,-829.94 598.144,-831.196 598.281,-832.653C598.671,-836.09 595.63,-837.163 593.649,-837.178C591.081,-837.202 588.177,-835.64 589.563,-832.008L586.682,-831.146C586.103,-834.533 586.699,-837.711 589.395,-839.121C592.995,-840.959 597.611,-840.238 599.941,-837.342C601.508,-835.398 601.866,-832.709 601.025,-830.605C598.57,-825.228 590.242,-822.863 589.555,-816.642L598.76,-816.642L598.76,-820.106L601.472,-820.106L601.472,-813.73L586.445,-813.787L586.445,-813.786Z" style="fill:rgb(212,0,0);fill-rule:nonzero;"/>
                <path id="path15-5-4-5-2-7" d="M752.507,-639.165L752.379,-637.537C751.973,-632.506 750.892,-630.809 744.76,-625.557C741.784,-623.012 740.808,-621.756 740.671,-620.298C740.281,-616.861 743.322,-615.788 745.303,-615.773C747.871,-615.749 750.775,-617.312 749.389,-620.943L752.27,-621.805C752.849,-618.418 752.253,-615.24 749.558,-613.83C745.958,-611.992 741.342,-612.713 739.011,-615.609C737.444,-617.553 737.086,-620.242 737.927,-622.346C740.382,-627.723 748.71,-630.088 749.397,-636.309L740.193,-636.309L740.193,-632.846L737.48,-632.846L737.48,-639.221L752.507,-639.164L752.507,-639.165Z" style="fill:rgb(212,0,0);fill-rule:nonzero;"/>
            </g>
        </g>
    </g>
</svg>
