<?xml version="1.0" encoding="UTF-8" standalone="no"?>
<!DOCTYPE svg PUBLIC "-//W3C//DTD SVG 1.1//EN" "http://www.w3.org/Graphics/SVG/1.1/DTD/svg11.dtd">
<svg width="100%" height="100%" viewBox="0 0 182 253" version="1.1" xmlns="http://www.w3.org/2000/svg" xmlns:xlink="http://www.w3.org/1999/xlink" xml:space="preserve" xmlns:serif="http://www.serif.com/" style="fill-rule:evenodd;clip-rule:evenodd;">
    <g transform="matrix(1,0,0,1,-256,-597)">
        <g transform="matrix(1,0,0,1,-328,1179.11)">
            <g id="_2_spades" serif:id="2_spades" transform="matrix(0.995538,0,0,0.996801,62.3712,-204.289)">
                <path id="rect6716-2-0" d="M704.754,-368.557C704.754,-373.287 700.909,-377.127 696.173,-377.127L534.751,-377.127C530.016,-377.127 526.171,-373.287 526.171,-368.557L526.171,-136.247C526.171,-131.518 530.016,-127.678 534.751,-127.678L696.173,-127.678C700.909,-127.678 704.754,-131.518 704.754,-136.247L704.754,-368.557Z" style="fill:white;stroke:black;stroke-width:0.8px;"/>
                <path id="path6748-4-0" d="M539.945,-337.148C536.497,-332.762 532.807,-330.238 532.745,-326.817C532.725,-325.709 533.397,-323.826 535.501,-323.465C536.866,-323.232 538.745,-324.218 538.784,-326.219C538.776,-326.618 539.257,-326.608 539.253,-326.062C539.189,-324.483 538.628,-322.644 537.686,-321.148L542.204,-321.148C541.262,-322.644 540.701,-324.483 540.637,-326.062C540.629,-326.608 541.112,-326.618 541.106,-326.219C541.145,-324.218 543.024,-323.232 544.389,-323.465C546.493,-323.826 547.165,-325.709 547.145,-326.817C547.083,-330.238 543.393,-332.762 539.945,-337.148Z" style="fill-rule:nonzero;"/>
                <path id="path6752-9-1" d="M690.981,-167.656C687.532,-172.042 683.842,-174.566 683.781,-177.987C683.76,-179.095 684.432,-180.978 686.536,-181.339C687.901,-181.572 689.781,-180.586 689.82,-178.585C689.812,-178.186 690.293,-178.197 690.289,-178.743C690.225,-180.322 689.664,-182.16 688.722,-183.656L693.239,-183.656C692.297,-182.16 691.737,-180.322 691.673,-178.743C691.665,-178.197 692.147,-178.186 692.141,-178.585C692.181,-180.586 694.06,-181.572 695.425,-181.339C697.529,-180.978 698.201,-179.095 698.18,-177.987C698.119,-174.566 694.429,-172.042 690.981,-167.656Z" style="fill-rule:nonzero;"/>
                <path id="path6760-2-4" d="M615.463,-350.971C608.082,-340.445 600.184,-334.388 600.053,-326.176C600.009,-323.517 601.447,-318.997 605.95,-318.132C608.872,-317.574 612.894,-319.938 612.978,-324.742C612.965,-325.699 613.991,-325.674 613.981,-324.363C613.844,-320.574 612.644,-316.162 610.628,-312.571L620.297,-312.571C618.281,-316.162 617.081,-320.574 616.944,-324.363C616.934,-325.674 617.96,-325.699 617.947,-324.742C618.031,-319.938 622.053,-317.574 624.975,-318.132C629.478,-318.997 630.916,-323.517 630.872,-326.176C630.741,-334.388 622.843,-340.445 615.463,-350.971Z" style="fill-rule:nonzero;"/>
                <path id="path6774-6-2" d="M615.463,-153.834C608.082,-164.359 600.184,-170.416 600.053,-178.628C600.009,-181.287 601.447,-185.807 605.95,-186.672C608.872,-187.231 612.894,-184.866 612.978,-180.062C612.965,-179.106 613.991,-179.131 613.981,-180.441C613.844,-184.23 612.644,-188.642 610.628,-192.234L620.297,-192.234C618.281,-188.642 617.081,-184.23 616.944,-180.441C616.934,-179.131 617.96,-179.106 617.947,-180.062C618.031,-184.866 622.053,-187.231 624.975,-186.672C629.478,-185.807 630.916,-181.287 630.872,-178.628C630.741,-170.416 622.843,-164.359 615.463,-153.834Z" style="fill-rule:nonzero;"/>
                <path id="path15-3-8-9" d="M532.43,-339.713L532.559,-341.341C532.965,-346.372 534.046,-348.069 540.177,-353.32C543.154,-355.866 544.13,-357.122 544.267,-358.579C544.657,-362.017 541.615,-363.089 539.634,-363.105C537.067,-363.128 534.162,-361.566 535.549,-357.935L532.668,-357.073C532.089,-360.46 532.685,-363.637 535.38,-365.047C538.98,-366.886 543.596,-366.165 545.927,-363.268C547.493,-361.325 547.851,-358.636 547.011,-356.531C544.556,-351.155 536.228,-348.789 535.541,-342.569L544.745,-342.569L544.745,-346.032L547.457,-346.032L547.457,-339.656L532.43,-339.713L532.43,-339.713Z" style="fill-rule:nonzero;"/>
                <path id="path15-3-5-1-4" d="M698.493,-165.091L698.364,-163.463C697.958,-158.433 696.877,-156.736 690.746,-151.484C687.769,-148.938 686.793,-147.682 686.656,-146.225C686.267,-142.788 689.308,-141.715 691.289,-141.699C693.856,-141.676 696.761,-143.238 695.374,-146.869L698.255,-147.731C698.834,-144.344 698.239,-141.167 695.543,-139.757C691.943,-137.918 687.327,-138.639 684.996,-141.536C683.43,-143.479 683.072,-146.168 683.912,-148.273C686.367,-153.649 694.696,-156.015 695.383,-162.235L686.178,-162.235L686.178,-158.772L683.466,-158.772L683.466,-165.148L698.493,-165.091L698.493,-165.091Z" style="fill-rule:nonzero;"/>
            </g>
        </g>
    </g>
</svg>
