<?xml version="1.0" encoding="UTF-8" standalone="no"?><!DOCTYPE svg PUBLIC "-//W3C//DTD SVG 1.1//EN" "http://www.w3.org/Graphics/SVG/1.1/DTD/svg11.dtd"><svg width="100%" height="100%" viewBox="0 0 178 249" version="1.1" xmlns="http://www.w3.org/2000/svg" xmlns:xlink="http://www.w3.org/1999/xlink" xml:space="preserve" xmlns:serif="http://www.serif.com/" style="fill-rule:evenodd;clip-rule:evenodd;stroke-linejoin:round;stroke-miterlimit:2;"><rect id="_3-clubs" serif:id="3-clubs" x="0" y="0" width="178" height="249" style="fill:none;"/><clipPath id="_clip1"><rect x="0" y="0" width="178" height="249"/></clipPath><g clip-path="url(#_clip1)"><rect x="-354.211" y="0" width="2312.21" height="1245" style="fill:#fff;"/><g id="_3_clubs" serif:id="3_clubs"><path id="path147-0-8-1-6-7-2-5-9-2" d="M88.997,26.46c-7.829,0.17 -11.34,8.985 -5.542,15.83c0.841,0.998 0.928,1.572 -0.612,0.612c-3.904,-2.61 -11.389,-0.894 -11.773,7.087c-0.473,9.833 13.267,12.666 15.847,2.21c0.136,-1.103 1.032,-1.078 0.816,0.488c-0.235,4.25 -1.562,8.223 -3.387,12.097l9.308,0c-1.825,-3.874 -3.152,-7.847 -3.387,-12.097c-0.217,-1.566 0.68,-1.591 0.816,-0.488c2.58,10.456 16.32,7.623 15.846,-2.21c-0.383,-7.981 -7.868,-9.697 -11.772,-7.087c-1.54,0.96 -1.454,0.386 -0.613,-0.612c5.799,-6.845 2.288,-15.66 -5.541,-15.83c0,0 0,0 -0.008,0l0.002,0Z" style="fill-rule:nonzero;"/><path id="path147-0-8-1-6-1-4-3-4-3" d="M88.997,223.204c-7.829,-0.17 -11.34,-8.985 -5.542,-15.83c0.841,-0.999 0.928,-1.571 -0.612,-0.612c-3.904,2.61 -11.389,0.894 -11.773,-7.087c-0.473,-9.833 13.267,-12.666 15.847,-2.21c0.136,1.103 1.032,1.078 0.816,-0.488c-0.235,-4.25 -1.562,-8.223 -3.387,-12.097l9.308,0c-1.825,3.874 -3.152,7.847 -3.387,12.097c-0.217,1.566 0.68,1.591 0.816,0.488c2.58,-10.456 16.32,-7.623 15.846,2.21c-0.383,7.981 -7.868,9.697 -11.772,7.087c-1.54,-0.959 -1.454,-0.387 -0.613,0.612c5.799,6.845 2.288,15.66 -5.541,15.83c0,0 0,0 -0.008,0l0.002,0Z" style="fill-rule:nonzero;"/><path id="path147-0-8-1-6-1-1-0-4-8-8" d="M88.997,105.67c-7.829,0.17 -11.34,8.985 -5.542,15.83c0.841,0.998 0.928,1.571 -0.612,0.612c-3.904,-2.61 -11.389,-0.894 -11.773,7.087c-0.473,9.833 13.267,12.666 15.847,2.21c0.136,-1.103 1.032,-1.078 0.816,0.488c-0.235,4.25 -1.562,8.223 -3.387,12.097l9.308,0c-1.825,-3.874 -3.152,-7.847 -3.387,-12.097c-0.217,-1.566 0.68,-1.591 0.816,-0.488c2.58,10.456 16.32,7.623 15.846,-2.21c-0.383,-7.981 -7.868,-9.697 -11.772,-7.087c-1.54,0.959 -1.454,0.386 -0.613,-0.612c5.799,-6.845 2.288,-15.66 -5.541,-15.83c0,0 0,0 -0.008,0l0.002,0Z" style="fill-rule:nonzero;"/><path id="path147-6-9-8-7-0-5-5-1-4" d="M164.273,209.077c3.131,-0.071 4.536,-3.744 2.216,-6.596c-0.336,-0.416 -0.371,-0.655 0.245,-0.255c1.562,1.087 4.556,0.372 4.709,-2.953c0.19,-4.097 -5.306,-5.278 -6.338,-0.921c-0.055,0.46 -0.413,0.449 -0.327,-0.203c0.094,-1.771 0.625,-3.426 1.355,-5.04l-3.723,0c0.73,1.614 1.261,3.269 1.355,5.04c0.087,0.652 -0.272,0.663 -0.327,0.203c-1.031,-4.357 -6.527,-3.176 -6.338,0.921c0.153,3.325 3.147,4.04 4.709,2.953c0.616,-0.4 0.581,-0.161 0.245,0.255c-2.319,2.852 -0.915,6.525 2.216,6.596c0.001,0 0,0 0,0l0.003,0Z" style="fill-rule:nonzero;"/><path id="path147-6-9-8-7-4-5-8-2-3" d="M13.728,39.923c-3.132,0.071 -4.536,3.744 -2.217,6.596c0.337,0.416 0.371,0.655 -0.245,0.255c-1.561,-1.087 -4.555,-0.372 -4.709,2.953c-0.189,4.097 5.307,5.278 6.339,0.921c0.054,-0.46 0.413,-0.449 0.326,0.203c-0.094,1.771 -0.625,3.426 -1.355,5.041l3.723,0c-0.729,-1.615 -1.26,-3.27 -1.354,-5.041c-0.087,-0.652 0.272,-0.663 0.326,-0.203c1.032,4.357 6.528,3.176 6.339,-0.921c-0.154,-3.325 -3.148,-4.04 -4.709,-2.953c-0.616,0.4 -0.582,0.161 -0.245,-0.255c2.319,-2.852 0.915,-6.525 -2.217,-6.596c-0.001,0 0,0 0,0l-0.002,0Z" style="fill-rule:nonzero;"/><path id="path17-9-7-6-4" d="M5.188,31.645l2.026,-1.492c1.758,2.866 3.725,4.754 6.732,4.43c4.513,-0.31 6.383,-5.047 5.439,-8.616c-0.913,-3.202 -4.65,-4.762 -7.621,-3.055c-0.701,0.405 -1.378,0.735 -1.51,0.735c-0.312,0 -1.017,-1.405 -0.921,-1.833c1.994,-2.916 6.836,-8.024 6.836,-8.024l-7.565,0l0,3.421l-2.903,0l0,-6.138l14.785,0l0,2.082c0,0 -3.961,4.114 -5.27,6.367c3.224,0.118 5.823,2.164 6.756,5.399c0.544,1.703 0.3,5.598 -0.412,7.277c-1.191,2.798 -4.442,5.069 -7.414,5.2c-4.989,0.335 -7.636,-3.165 -8.958,-5.753Z" style="fill-rule:nonzero;"/><path id="path17-5-0-1-5-7" d="M172.811,217.355l-2.026,1.492c-1.758,-2.866 -3.725,-4.754 -6.733,-4.43c-4.512,0.31 -6.382,5.047 -5.438,8.616c0.913,3.202 4.65,4.762 7.621,3.055c0.701,-0.405 1.378,-0.735 1.51,-0.735c0.312,0 1.017,1.405 0.921,1.834c-1.994,2.915 -6.836,8.023 -6.836,8.023l7.565,0l0,-3.42l2.903,0l0,6.137l-14.785,0l0,-2.082c0,0 3.961,-4.114 5.27,-6.367c-3.224,-0.118 -5.823,-2.164 -6.756,-5.398c-0.544,-1.703 -0.3,-5.599 0.412,-7.278c1.191,-2.798 4.441,-5.069 7.413,-5.2c4.99,-0.335 7.637,3.165 8.959,5.753Z" style="fill-rule:nonzero;"/></g></g></svg>