<?xml version="1.0" encoding="UTF-8" standalone="no"?><!DOCTYPE svg PUBLIC "-//W3C//DTD SVG 1.1//EN" "http://www.w3.org/Graphics/SVG/1.1/DTD/svg11.dtd"><svg width="100%" height="100%" viewBox="0 0 178 249" version="1.1" xmlns="http://www.w3.org/2000/svg" xmlns:xlink="http://www.w3.org/1999/xlink" xml:space="preserve" xmlns:serif="http://www.serif.com/" style="fill-rule:evenodd;clip-rule:evenodd;stroke-linejoin:round;stroke-miterlimit:2;"><rect id="_3-diamonds" serif:id="3-diamonds" x="0" y="0" width="178" height="249" style="fill:none;"/><clipPath id="_clip1"><rect x="0" y="0" width="178" height="249"/></clipPath><g clip-path="url(#_clip1)"><rect x="-354.211" y="-747" width="2312.21" height="1245" style="fill:#fff;"/><g id="_3_diamonds" serif:id="3_diamonds"><path id="path6584-3" d="M89,64.451c-4.135,-6.838 -8.486,-13.484 -13.923,-19.161c5.437,-5.678 9.788,-12.324 13.923,-19.162c4.135,6.838 8.486,13.484 13.923,19.162c-5.437,5.677 -9.788,12.323 -13.923,19.161Z" style="fill:#d40000;fill-rule:nonzero;"/><path id="path6586-2" d="M13.729,55.891c-1.723,-2.849 -3.536,-5.618 -5.801,-7.984c2.265,-2.365 4.078,-5.135 5.801,-7.984c1.723,2.849 3.536,5.619 5.801,7.984c-2.265,2.366 -4.078,5.135 -5.801,7.984Z" style="fill:#d40000;fill-rule:nonzero;"/><path id="path6590-7" d="M164.272,209.077c-1.723,-2.849 -3.536,-5.618 -5.802,-7.984c2.266,-2.366 4.079,-5.135 5.802,-7.984c1.723,2.849 3.536,5.618 5.801,7.984c-2.265,2.366 -4.078,5.135 -5.801,7.984Z" style="fill:#d40000;fill-rule:nonzero;"/><path id="path6600-5" d="M89,143.662c-4.135,-6.838 -8.486,-13.485 -13.923,-19.162c5.437,-5.677 9.788,-12.323 13.923,-19.162c4.135,6.839 8.486,13.485 13.923,19.162c-5.437,5.677 -9.788,12.324 -13.923,19.162Z" style="fill:#d40000;fill-rule:nonzero;"/><path id="path6606-3" d="M89,222.872c-4.135,-6.838 -8.486,-13.484 -13.923,-19.162c5.437,-5.677 9.788,-12.323 13.923,-19.161c4.135,6.838 8.486,13.484 13.923,19.161c-5.437,5.678 -9.788,12.324 -13.923,19.162Z" style="fill:#d40000;fill-rule:nonzero;"/><path id="path17-2-9-4-8" d="M5.188,31.644l2.025,-1.492c1.759,2.867 3.725,4.755 6.733,4.431c4.513,-0.311 6.383,-5.047 5.438,-8.616c-0.913,-3.203 -4.65,-4.762 -7.621,-3.055c-0.701,0.404 -1.378,0.735 -1.51,0.735c-0.312,0 -1.017,-1.405 -0.921,-1.834c1.994,-2.916 6.836,-8.024 6.836,-8.024l-7.564,0l0,3.421l-2.904,0l0,-6.138l14.786,0l0,2.083c0,0 -3.962,4.114 -5.271,6.366c3.224,0.119 5.823,2.165 6.756,5.399c0.544,1.703 0.3,5.598 -0.412,7.277c-1.19,2.799 -4.441,5.07 -7.413,5.2c-4.99,0.336 -7.637,-3.164 -8.958,-5.753Z" style="fill:#d40000;fill-rule:nonzero;"/><path id="path17-5-3-3-8" d="M172.811,217.356l-2.026,1.492c-1.758,-2.867 -3.725,-4.755 -6.733,-4.431c-4.513,0.311 -6.383,5.047 -5.438,8.617c0.913,3.202 4.65,4.762 7.621,3.054c0.701,-0.404 1.378,-0.735 1.51,-0.735c0.312,0 1.017,1.405 0.921,1.834c-1.994,2.916 -6.836,8.024 -6.836,8.024l7.565,0l0,-3.421l2.903,0l0,6.138l-14.785,0l0,-2.083c0,0 3.961,-4.113 5.27,-6.366c-3.224,-0.118 -5.823,-2.164 -6.756,-5.399c-0.544,-1.703 -0.3,-5.598 0.412,-7.277c1.19,-2.799 4.441,-5.07 7.413,-5.2c4.99,-0.336 7.637,3.164 8.959,5.753Z" style="fill:#d40000;fill-rule:nonzero;"/></g></g></svg>