<?xml version="1.0" encoding="UTF-8" standalone="no"?><!DOCTYPE svg PUBLIC "-//W3C//DTD SVG 1.1//EN" "http://www.w3.org/Graphics/SVG/1.1/DTD/svg11.dtd"><svg width="100%" height="100%" viewBox="0 0 178 249" version="1.1" xmlns="http://www.w3.org/2000/svg" xmlns:xlink="http://www.w3.org/1999/xlink" xml:space="preserve" xmlns:serif="http://www.serif.com/" style="fill-rule:evenodd;clip-rule:evenodd;stroke-linejoin:round;stroke-miterlimit:2;"><rect id="_3-hearts" serif:id="3-hearts" x="0" y="0" width="178" height="249" style="fill:none;"/><clipPath id="_clip1"><rect x="0" y="0" width="178" height="249"/></clipPath><g clip-path="url(#_clip1)"><rect x="-354.211" y="-249" width="2312.21" height="1245" style="fill:#fff;"/><g id="_3_hearts" serif:id="3_hearts"><path id="path9834-5-2" d="M13.729,55.892c0,0 -1.774,-2.547 -4.167,-5.541c-1.601,-2.004 -2.881,-4.174 -3,-6.043c-0.136,-2.135 1.156,-4.276 3.494,-4.38c2.338,-0.104 3.287,1.646 3.673,3.089c0.386,-1.443 1.335,-3.193 3.672,-3.089c2.339,0.104 3.631,2.245 3.495,4.38c-0.119,1.869 -1.399,4.039 -3,6.043c-2.393,2.994 -4.167,5.541 -4.167,5.541Z" style="fill:#d40000;fill-rule:nonzero;"/><path id="path9836-5-8" d="M164.272,193.109c0,0 -1.774,2.546 -4.167,5.541c-1.601,2.003 -2.881,4.173 -3,6.042c-0.136,2.135 1.155,4.276 3.494,4.38c2.338,0.104 3.286,-1.646 3.673,-3.088c0.386,1.442 1.335,3.192 3.672,3.088c2.339,-0.104 3.631,-2.245 3.494,-4.38c-0.119,-1.869 -1.398,-4.039 -2.999,-6.042c-2.393,-2.995 -4.167,-5.541 -4.167,-5.541Z" style="fill:#d40000;fill-rule:nonzero;"/><path id="path9840-3-6" d="M89,64.452c0,0 -3.721,-6.112 -8.74,-13.299c-3.358,-4.809 -6.042,-10.016 -6.292,-14.501c-0.286,-5.124 2.423,-10.264 7.329,-10.513c4.903,-0.249 6.893,3.95 7.703,7.413c0.81,-3.463 2.8,-7.662 7.703,-7.413c4.906,0.249 7.615,5.389 7.329,10.513c-0.25,4.485 -2.934,9.692 -6.292,14.501c-5.019,7.187 -8.74,13.299 -8.74,13.299Z" style="fill:#d40000;fill-rule:nonzero;"/><path id="path9850-2-3" d="M89,143.662c0,0 -3.721,-6.112 -8.74,-13.299c-3.358,-4.809 -6.042,-10.016 -6.292,-14.501c-0.286,-5.124 2.423,-10.264 7.329,-10.513c4.903,-0.249 6.893,3.95 7.703,7.413c0.81,-3.463 2.8,-7.662 7.703,-7.413c4.906,0.249 7.615,5.389 7.329,10.513c-0.25,4.485 -2.934,9.692 -6.292,14.501c-5.019,7.187 -8.74,13.299 -8.74,13.299Z" style="fill:#d40000;fill-rule:nonzero;"/><path id="path9854-8-0" d="M89,184.548c0,0 -3.721,6.112 -8.74,13.299c-3.358,4.809 -6.042,10.016 -6.292,14.501c-0.286,5.124 2.423,10.264 7.329,10.513c4.903,0.249 6.893,-3.95 7.703,-7.413c0.81,3.463 2.8,7.662 7.703,7.413c4.906,-0.249 7.615,-5.389 7.329,-10.513c-0.25,-4.485 -2.934,-9.692 -6.292,-14.501c-5.019,-7.187 -8.74,-13.299 -8.74,-13.299Z" style="fill:#d40000;fill-rule:nonzero;"/><path id="path17-2-9-8-4" d="M5.188,31.645l2.025,-1.492c1.759,2.867 3.725,4.755 6.733,4.43c4.513,-0.31 6.383,-5.047 5.439,-8.616c-0.914,-3.202 -4.651,-4.762 -7.622,-3.055c-0.701,0.405 -1.378,0.735 -1.51,0.735c-0.311,0 -1.017,-1.405 -0.92,-1.833c1.994,-2.916 6.835,-8.024 6.835,-8.024l-7.564,0l0,3.421l-2.904,0l0,-6.138l14.786,0l0,2.082c0,0 -3.962,4.114 -5.271,6.367c3.224,0.118 5.823,2.164 6.756,5.399c0.544,1.703 0.3,5.598 -0.412,7.277c-1.19,2.798 -4.441,5.069 -7.413,5.2c-4.99,0.335 -7.637,-3.165 -8.958,-5.753Z" style="fill:#d40000;fill-rule:nonzero;"/><path id="path17-5-3-9-1-3" d="M172.811,217.355l-2.026,1.492c-1.758,-2.866 -3.725,-4.754 -6.733,-4.43c-4.513,0.31 -6.382,5.047 -5.438,8.616c0.913,3.202 4.65,4.762 7.621,3.055c0.701,-0.405 1.378,-0.735 1.51,-0.735c0.312,0 1.017,1.405 0.921,1.834c-1.994,2.915 -6.836,8.023 -6.836,8.023l7.565,0l0,-3.42l2.903,0l0,6.137l-14.785,0l0,-2.082c0,0 3.961,-4.114 5.27,-6.367c-3.224,-0.118 -5.823,-2.164 -6.756,-5.398c-0.544,-1.703 -0.3,-5.599 0.412,-7.278c1.191,-2.798 4.441,-5.069 7.413,-5.2c4.99,-0.335 7.637,3.165 8.959,5.753Z" style="fill:#d40000;fill-rule:nonzero;"/></g></g></svg>