<?xml version="1.0" encoding="UTF-8" standalone="no"?><!DOCTYPE svg PUBLIC "-//W3C//DTD SVG 1.1//EN" "http://www.w3.org/Graphics/SVG/1.1/DTD/svg11.dtd"><svg width="100%" height="100%" viewBox="0 0 178 249" version="1.1" xmlns="http://www.w3.org/2000/svg" xmlns:xlink="http://www.w3.org/1999/xlink" xml:space="preserve" xmlns:serif="http://www.serif.com/" style="fill-rule:evenodd;clip-rule:evenodd;stroke-linejoin:round;stroke-miterlimit:2;"><rect id="_3-spades" serif:id="3-spades" x="0" y="0" width="178" height="249" style="fill:none;"/><clipPath id="_clip1"><rect x="0" y="0" width="178" height="249"/></clipPath><g clip-path="url(#_clip1)"><rect x="-354.211" y="-498" width="2312.21" height="1245" style="fill:#fff;"/><g id="_3_spades" serif:id="3_spades"><path id="path6816-2-4" d="M13.729,39.923c-3.437,4.377 -7.115,6.896 -7.176,10.311c-0.021,1.106 0.649,2.985 2.746,3.345c1.361,0.232 3.234,-0.751 3.273,-2.749c-0.008,-0.398 0.472,-0.387 0.467,0.158c-0.064,1.576 -0.623,3.41 -1.561,4.904l4.502,0c-0.939,-1.494 -1.497,-3.328 -1.561,-4.904c-0.008,-0.545 0.473,-0.556 0.467,-0.158c0.039,1.998 1.912,2.981 3.273,2.749c2.097,-0.36 2.766,-2.239 2.746,-3.345c-0.061,-3.415 -3.739,-5.934 -7.176,-10.311Z" style="fill-rule:nonzero;"/><path id="path6820-0-2" d="M164.272,209.077c-3.438,-4.377 -7.115,-6.896 -7.176,-10.311c-0.021,-1.106 0.649,-2.985 2.746,-3.345c1.36,-0.232 3.234,0.751 3.273,2.749c-0.008,0.398 0.471,0.387 0.467,-0.158c-0.064,-1.575 -0.623,-3.41 -1.562,-4.903l4.503,0c-0.939,1.493 -1.497,3.328 -1.561,4.903c-0.008,0.545 0.473,0.556 0.467,0.158c0.039,-1.998 1.912,-2.981 3.273,-2.749c2.097,0.36 2.766,2.239 2.746,3.345c-0.062,3.415 -3.739,5.934 -7.176,10.311Z" style="fill-rule:nonzero;"/><path id="path6828-8-3" d="M89,26.128c-7.357,10.505 -15.228,16.55 -15.359,24.746c-0.044,2.653 1.389,7.164 5.878,8.027c2.912,0.558 6.921,-1.802 7.005,-6.597c-0.013,-0.954 1.009,-0.929 1,0.379c-0.138,3.781 -1.333,8.185 -3.343,11.769l9.638,0c-2.01,-3.584 -3.205,-7.988 -3.343,-11.769c-0.009,-1.308 1.013,-1.333 1,-0.379c0.084,4.795 4.093,7.155 7.005,6.597c4.489,-0.863 5.922,-5.374 5.878,-8.027c-0.131,-8.196 -8.002,-14.241 -15.359,-24.746Z" style="fill-rule:nonzero;"/><path id="path6842-0-7" d="M89,222.872c-7.357,-10.505 -15.228,-16.55 -15.359,-24.746c-0.044,-2.653 1.389,-7.164 5.878,-8.027c2.912,-0.558 6.921,1.802 7.005,6.597c-0.013,0.954 1.009,0.929 1,-0.379c-0.138,-3.781 -1.333,-8.185 -3.343,-11.769l9.638,0c-2.01,3.584 -3.205,7.988 -3.343,11.769c-0.009,1.308 1.013,1.333 1,0.379c0.084,-4.795 4.093,-7.155 7.005,-6.597c4.489,0.863 5.922,5.374 5.878,8.027c-0.131,8.196 -8.002,14.241 -15.359,24.746Z" style="fill-rule:nonzero;"/><path id="path6844-7-0" d="M89,105.338c-7.357,10.505 -15.228,16.55 -15.359,24.745c-0.044,2.654 1.389,7.165 5.878,8.028c2.912,0.558 6.921,-1.802 7.005,-6.597c-0.013,-0.954 1.009,-0.929 1,0.379c-0.138,3.781 -1.333,8.185 -3.343,11.769l9.638,0c-2.01,-3.584 -3.205,-7.988 -3.343,-11.769c-0.009,-1.308 1.013,-1.333 1,-0.379c0.084,4.795 4.093,7.155 7.005,6.597c4.489,-0.863 5.922,-5.374 5.878,-8.028c-0.131,-8.195 -8.002,-14.24 -15.359,-24.745Z" style="fill-rule:nonzero;"/><path id="path17-9-11-4" d="M5.188,31.645l2.025,-1.492c1.759,2.866 3.725,4.754 6.733,4.43c4.513,-0.31 6.383,-5.047 5.439,-8.616c-0.914,-3.202 -4.651,-4.762 -7.622,-3.055c-0.701,0.405 -1.378,0.735 -1.51,0.735c-0.311,0 -1.017,-1.405 -0.92,-1.834c1.994,-2.915 6.835,-8.023 6.835,-8.023l-7.564,0l0,3.42l-2.904,0l0,-6.137l14.786,0l0,2.082c0,0 -3.962,4.114 -5.271,6.367c3.224,0.118 5.823,2.164 6.756,5.398c0.544,1.703 0.3,5.599 -0.412,7.278c-1.19,2.798 -4.441,5.069 -7.413,5.2c-4.99,0.335 -7.637,-3.165 -8.958,-5.753Z" style="fill-rule:nonzero;"/><path id="path17-9-1-0-8" d="M172.811,217.355l-2.026,1.492c-1.758,-2.866 -3.725,-4.754 -6.733,-4.43c-4.513,0.31 -6.382,5.047 -5.438,8.616c0.913,3.202 4.65,4.762 7.621,3.055c0.701,-0.405 1.378,-0.735 1.51,-0.735c0.312,0 1.017,1.405 0.921,1.834c-1.994,2.915 -6.836,8.023 -6.836,8.023l7.565,0l0,-3.42l2.903,0l0,6.137l-14.785,0l0,-2.082c0,0 3.961,-4.114 5.27,-6.367c-3.224,-0.118 -5.823,-2.164 -6.756,-5.398c-0.544,-1.703 -0.3,-5.599 0.412,-7.278c1.191,-2.798 4.441,-5.069 7.413,-5.2c4.99,-0.335 7.637,3.165 8.959,5.753Z" style="fill-rule:nonzero;"/></g></g></svg>