<?xml version="1.0" encoding="UTF-8" standalone="no"?>
<!DOCTYPE svg PUBLIC "-//W3C//DTD SVG 1.1//EN" "http://www.w3.org/Graphics/SVG/1.1/DTD/svg11.dtd">
<svg width="100%" height="100%" viewBox="0 0 182 253" version="1.1" xmlns="http://www.w3.org/2000/svg" xmlns:xlink="http://www.w3.org/1999/xlink" xml:space="preserve" xmlns:serif="http://www.serif.com/" style="fill-rule:evenodd;clip-rule:evenodd;">
    <g transform="matrix(1,0,0,1,-467,-34)">
        <g transform="matrix(1,0,0,1,-328,1179.11)">
            <g id="_3_clubs" serif:id="3_clubs" transform="matrix(1,0,0,1,3.19025,-272.412)">
                <g id="_5D" serif:id="5D" transform="matrix(0.995538,0,0,0.996801,586.17,-1165.97)">
                    <path id="rect6355-6-85-2-7-5" d="M386.929,304.79C386.929,300.06 383.084,296.22 378.349,296.22L216.927,296.22C212.191,296.22 208.346,300.06 208.346,304.79L208.346,537.1C208.346,541.829 212.191,545.669 216.927,545.669L378.349,545.669C383.084,545.669 386.929,541.829 386.929,537.1L386.929,304.79Z" style="fill:white;stroke:black;stroke-width:0.8px;"/>
                </g>
                <path id="path147-0-8-1-6-7-2-5-9-2" d="M882.476,-844.292C874.657,-844.122 871.151,-835.318 876.942,-828.481C877.782,-827.484 877.868,-826.912 876.33,-827.87C872.431,-830.477 864.955,-828.763 864.572,-820.792C864.099,-810.97 877.822,-808.14 880.399,-818.584C880.535,-819.686 881.43,-819.661 881.214,-818.097C880.98,-813.852 879.654,-809.884 877.832,-806.015L887.128,-806.015C885.306,-809.884 883.98,-813.852 883.745,-818.097C883.529,-819.661 884.424,-819.686 884.56,-818.584C887.137,-808.14 900.86,-810.97 900.387,-820.792C900.005,-828.763 892.528,-830.477 888.629,-827.87C887.091,-826.912 887.178,-827.484 888.018,-828.481C893.809,-835.318 890.302,-844.122 882.483,-844.292C882.483,-844.292 882.483,-844.292 882.475,-844.292L882.476,-844.292Z" style="fill-rule:nonzero;"/>
                <path id="path147-0-8-1-6-1-4-3-4-3" d="M882.476,-647.785C874.657,-647.955 871.151,-656.759 876.942,-663.596C877.782,-664.593 877.868,-665.165 876.33,-664.208C872.431,-661.6 864.955,-663.314 864.572,-671.285C864.099,-681.107 877.822,-683.937 880.399,-673.493C880.535,-672.391 881.43,-672.416 881.214,-673.98C880.98,-678.226 879.654,-682.193 877.832,-686.062L887.128,-686.062C885.306,-682.193 883.98,-678.226 883.745,-673.98C883.529,-672.416 884.424,-672.391 884.56,-673.493C887.137,-683.937 900.86,-681.107 900.387,-671.285C900.005,-663.314 892.528,-661.6 888.629,-664.208C887.091,-665.165 887.178,-664.593 888.018,-663.596C893.809,-656.759 890.302,-647.955 882.483,-647.785C882.483,-647.785 882.483,-647.785 882.475,-647.785L882.476,-647.785Z" style="fill-rule:nonzero;"/>
                <path id="path147-0-8-1-6-1-1-0-4-8-8" d="M882.476,-765.177C874.657,-765.007 871.151,-756.203 876.942,-749.366C877.782,-748.369 877.868,-747.797 876.33,-748.755C872.431,-751.362 864.955,-749.648 864.572,-741.677C864.099,-731.855 877.822,-729.026 880.399,-739.469C880.535,-740.571 881.43,-740.546 881.214,-738.982C880.98,-734.737 879.654,-730.769 877.832,-726.9L887.128,-726.9C885.306,-730.769 883.98,-734.737 883.745,-738.982C883.529,-740.546 884.424,-740.571 884.56,-739.469C887.137,-729.026 900.86,-731.855 900.387,-741.677C900.005,-749.648 892.528,-751.362 888.629,-748.755C887.091,-747.797 887.178,-748.369 888.018,-749.366C893.809,-756.203 890.302,-765.007 882.483,-765.177C882.483,-765.177 882.483,-765.177 882.475,-765.177L882.476,-765.177Z" style="fill-rule:nonzero;"/>
                <path id="path147-6-9-8-7-0-5-5-1-4" d="M957.662,-661.895C960.79,-661.966 962.192,-665.634 959.876,-668.483C959.54,-668.899 959.505,-669.137 960.121,-668.738C961.68,-667.652 964.671,-668.366 964.824,-671.687C965.013,-675.779 959.524,-676.958 958.493,-672.607C958.439,-672.148 958.08,-672.158 958.167,-672.81C958.261,-674.579 958.791,-676.232 959.52,-677.844L955.802,-677.844C956.531,-676.232 957.061,-674.579 957.155,-672.81C957.241,-672.158 956.883,-672.148 956.829,-672.607C955.798,-676.958 950.309,-675.779 950.498,-671.687C950.651,-668.366 953.642,-667.652 955.201,-668.738C955.816,-669.137 955.782,-668.899 955.446,-668.483C953.129,-665.634 954.532,-661.966 957.66,-661.895C957.66,-661.895 957.66,-661.895 957.66,-661.895L957.662,-661.895Z" style="fill-rule:nonzero;"/>
                <path id="path147-6-9-8-7-4-5-8-2-3" d="M807.298,-830.845C804.17,-830.774 802.768,-827.106 805.084,-824.257C805.42,-823.842 805.455,-823.603 804.84,-824.002C803.28,-825.089 800.289,-824.374 800.136,-821.053C799.947,-816.961 805.436,-815.782 806.467,-820.133C806.521,-820.592 806.88,-820.582 806.793,-819.93C806.699,-818.161 806.169,-816.508 805.44,-814.896L809.158,-814.896C808.43,-816.508 807.899,-818.161 807.805,-819.93C807.719,-820.582 808.077,-820.592 808.131,-820.133C809.162,-815.782 814.651,-816.961 814.462,-821.053C814.309,-824.374 811.319,-825.089 809.759,-824.002C809.144,-823.603 809.178,-823.842 809.514,-824.257C811.831,-827.106 810.428,-830.774 807.3,-830.845C807.3,-830.845 807.3,-830.845 807.3,-830.845L807.298,-830.845Z" style="fill-rule:nonzero;"/>
                <path id="path17-9-7-6-4" d="M798.769,-839.114L800.792,-840.604C802.548,-837.741 804.512,-835.855 807.517,-836.179C812.024,-836.489 813.892,-841.22 812.949,-844.785C812.036,-847.983 808.304,-849.541 805.337,-847.836C804.636,-847.432 803.96,-847.102 803.828,-847.102C803.517,-847.102 802.812,-848.505 802.909,-848.933C804.9,-851.845 809.736,-856.947 809.736,-856.947L802.181,-856.947L802.181,-853.53L799.281,-853.53L799.281,-859.661L814.048,-859.661L814.048,-857.581C814.048,-857.581 810.092,-853.472 808.784,-851.222C812.005,-851.104 814.6,-849.06 815.532,-845.83C816.076,-844.129 815.832,-840.238 815.12,-838.561C813.932,-835.766 810.685,-833.498 807.716,-833.368C802.733,-833.032 800.089,-836.528 798.769,-839.114Z" style="fill-rule:nonzero;"/>
                <path id="path17-5-0-1-5-7" d="M966.19,-653.626L964.166,-652.136C962.41,-655 960.446,-656.885 957.442,-656.562C952.934,-656.251 951.067,-651.52 952.01,-647.956C952.922,-644.757 956.654,-643.199 959.622,-644.905C960.322,-645.309 960.998,-645.639 961.13,-645.639C961.441,-645.639 962.146,-644.235 962.05,-643.807C960.058,-640.895 955.222,-635.793 955.222,-635.793L962.778,-635.793L962.778,-639.21L965.678,-639.21L965.678,-633.079L950.91,-633.079L950.91,-635.159C950.91,-635.159 954.867,-639.268 956.174,-641.518C952.954,-641.636 950.358,-643.68 949.426,-646.91C948.883,-648.611 949.126,-652.502 949.838,-654.179C951.027,-656.974 954.274,-659.242 957.242,-659.373C962.226,-659.708 964.87,-656.212 966.19,-653.626Z" style="fill-rule:nonzero;"/>
            </g>
        </g>
    </g>
</svg>
