<?xml version="1.0" encoding="UTF-8" standalone="no"?>
<!DOCTYPE svg PUBLIC "-//W3C//DTD SVG 1.1//EN" "http://www.w3.org/Graphics/SVG/1.1/DTD/svg11.dtd">
<svg width="100%" height="100%" viewBox="0 0 182 253" version="1.1" xmlns="http://www.w3.org/2000/svg" xmlns:xlink="http://www.w3.org/1999/xlink" xml:space="preserve" xmlns:serif="http://www.serif.com/" style="fill-rule:evenodd;clip-rule:evenodd;">
    <g transform="matrix(1,0,0,1,-467,-878)">
        <g transform="matrix(1,0,0,1,-328,1179.11)">
            <g id="_3_diamonds" serif:id="3_diamonds" transform="matrix(0.995535,0,0,0.996803,7.13057,-274.482)">
                <path id="rect6554-0" d="M971.771,-15.786C971.771,-20.516 967.926,-24.356 963.191,-24.356L801.769,-24.356C797.033,-24.356 793.188,-20.516 793.188,-15.786L793.188,216.523C793.188,221.253 797.033,225.093 801.769,225.093L963.191,225.093C967.926,225.093 971.771,221.253 971.771,216.523L971.771,-15.786Z" style="fill:white;stroke:black;stroke-width:0.8px;"/>
                <path id="path6584-3" d="M882.48,40.2C878.331,33.348 873.966,26.689 868.511,21C873.966,15.311 878.331,8.652 882.48,1.8C886.629,8.652 890.994,15.311 896.449,21C890.994,26.689 886.629,33.348 882.48,40.2Z" style="fill:rgb(212,0,0);fill-rule:nonzero;"/>
                <path id="path6586-2" d="M806.962,31.623C805.234,28.768 803.415,25.993 801.142,23.623C803.415,21.252 805.234,18.478 806.962,15.623C808.691,18.478 810.51,21.252 812.783,23.623C810.51,25.993 808.691,28.768 806.962,31.623Z" style="fill:rgb(212,0,0);fill-rule:nonzero;"/>
                <path id="path6590-7" d="M957.998,185.114C956.269,182.26 954.45,179.485 952.178,177.114C954.45,174.744 956.269,171.969 957.998,169.114C959.727,171.969 961.545,174.744 963.818,177.114C961.545,179.485 959.727,182.26 957.998,185.114Z" style="fill:rgb(212,0,0);fill-rule:nonzero;"/>
                <path id="path6600-5" d="M882.48,119.568C878.331,112.717 873.966,106.057 868.511,100.368C873.966,94.68 878.331,88.02 882.48,81.168C886.629,88.02 890.994,94.68 896.449,100.368C890.994,106.057 886.629,112.717 882.48,119.568Z" style="fill:rgb(212,0,0);fill-rule:nonzero;"/>
                <path id="path6606-3" d="M882.48,198.937C878.331,192.085 873.966,185.426 868.511,179.737C873.966,174.048 878.331,167.389 882.48,160.537C886.629,167.389 890.994,174.048 896.449,179.737C890.994,185.426 886.629,192.085 882.48,198.937Z" style="fill:rgb(212,0,0);fill-rule:nonzero;"/>
                <path id="path17-2-9-4-8" d="M798.393,7.327L800.426,5.833C802.189,8.705 804.162,10.597 807.18,10.272C811.708,9.961 813.584,5.214 812.636,1.638C811.72,-1.57 807.971,-3.133 804.99,-1.423C804.287,-1.017 803.608,-0.686 803.475,-0.686C803.162,-0.686 802.455,-2.094 802.552,-2.524C804.552,-5.445 809.41,-10.563 809.41,-10.563L801.82,-10.563L801.82,-7.136L798.907,-7.136L798.907,-13.286L813.741,-13.286L813.741,-11.199C813.741,-11.199 809.767,-7.077 808.453,-4.82C811.688,-4.701 814.295,-2.651 815.231,0.59C815.778,2.296 815.533,6.199 814.818,7.881C813.624,10.686 810.362,12.961 807.381,13.092C802.375,13.428 799.719,9.921 798.393,7.327Z" style="fill:rgb(212,0,0);fill-rule:nonzero;"/>
                <path id="path17-5-3-3-8" d="M966.565,193.41L964.532,194.905C962.768,192.032 960.796,190.14 957.778,190.465C953.25,190.776 951.374,195.523 952.321,199.099C953.238,202.307 956.987,203.87 959.968,202.16C960.671,201.754 961.35,201.423 961.483,201.423C961.795,201.423 962.503,202.831 962.406,203.261C960.406,206.182 955.548,211.3 955.548,211.3L963.138,211.3L963.138,207.873L966.05,207.873L966.05,214.023L951.217,214.023L951.217,211.936C951.217,211.936 955.191,207.814 956.504,205.557C953.27,205.438 950.662,203.388 949.726,200.147C949.18,198.441 949.425,194.538 950.14,192.856C951.334,190.051 954.596,187.776 957.577,187.645C962.583,187.309 965.239,190.816 966.565,193.41Z" style="fill:rgb(212,0,0);fill-rule:nonzero;"/>
            </g>
        </g>
    </g>
</svg>
