<?xml version="1.0" encoding="UTF-8" standalone="no"?>
<!DOCTYPE svg PUBLIC "-//W3C//DTD SVG 1.1//EN" "http://www.w3.org/Graphics/SVG/1.1/DTD/svg11.dtd">
<svg width="100%" height="100%" viewBox="0 0 182 253" version="1.1" xmlns="http://www.w3.org/2000/svg" xmlns:xlink="http://www.w3.org/1999/xlink" xml:space="preserve" xmlns:serif="http://www.serif.com/" style="fill-rule:evenodd;clip-rule:evenodd;">
    <g transform="matrix(1,0,0,1,-467,-315)">
        <g transform="matrix(1,0,0,1,-328,1179.11)">
            <g id="_3_hearts" serif:id="3_hearts" transform="matrix(0.995538,0,0,0.996801,-8.47609,-13.1813)">
                <g id="_5D" serif:id="5D" transform="matrix(1,0,0,1,600.516,-1147.42)">
                    <path id="rect9802-4-3" d="M386.929,304.79C386.929,300.06 383.084,296.22 378.349,296.22L216.927,296.22C212.191,296.22 208.346,300.06 208.346,304.79L208.346,537.1C208.346,541.829 212.191,545.669 216.927,545.669L378.349,545.669C383.084,545.669 386.929,541.829 386.929,537.1L386.929,304.79Z" style="fill:white;stroke:black;stroke-width:0.8px;"/>
                </g>
                <g id="path9834-5-2" transform="matrix(1,0,0,1,898.954,-683.124)">
                    <path d="M-76.318,-112.097C-76.318,-112.097 -78.097,-114.649 -80.498,-117.649C-82.104,-119.657 -83.388,-121.831 -83.508,-123.703C-83.645,-125.843 -82.348,-127.989 -80.002,-128.093C-77.657,-128.197 -76.705,-126.443 -76.318,-124.998C-75.93,-126.443 -74.978,-128.197 -72.633,-128.093C-70.287,-127.989 -68.99,-125.843 -69.127,-123.703C-69.247,-121.831 -70.531,-119.657 -72.137,-117.649C-74.538,-114.649 -76.318,-112.097 -76.318,-112.097Z" style="fill:rgb(212,0,0);fill-rule:nonzero;"/>
                </g>
                <g id="path9836-5-8" transform="matrix(1,0,0,1,898.954,-683.124)">
                    <path d="M74.718,25.395C74.718,25.395 72.938,27.947 70.538,30.947C68.931,32.955 67.647,35.129 67.528,37.001C67.391,39.14 68.687,41.286 71.034,41.39C73.379,41.494 74.331,39.741 74.718,38.295C75.106,39.741 76.058,41.494 78.403,41.39C80.749,41.286 82.045,39.14 81.908,37.001C81.789,35.129 80.505,32.955 78.899,30.947C76.498,27.947 74.718,25.395 74.718,25.395Z" style="fill:rgb(212,0,0);fill-rule:nonzero;"/>
                </g>
                <g id="path9840-3-6" transform="matrix(1,0,0,1,898.954,-683.124)">
                    <path d="M-0.8,-103.52C-0.8,-103.52 -4.533,-109.644 -9.569,-116.845C-12.938,-121.663 -15.631,-126.881 -15.881,-131.375C-16.168,-136.509 -13.45,-141.659 -8.528,-141.909C-3.609,-142.159 -1.613,-137.951 -0.8,-134.481C0.013,-137.951 2.009,-142.159 6.928,-141.909C11.85,-141.659 14.568,-136.509 14.281,-131.375C14.031,-126.881 11.338,-121.663 7.969,-116.845C2.933,-109.644 -0.8,-103.52 -0.8,-103.52Z" style="fill:rgb(212,0,0);fill-rule:nonzero;"/>
                </g>
                <g id="path9850-2-3" transform="matrix(1,0,0,1,898.954,-683.124)">
                    <path d="M-0.8,-24.151C-0.8,-24.151 -4.533,-30.276 -9.569,-37.476C-12.938,-42.295 -15.631,-47.512 -15.881,-52.007C-16.168,-57.141 -13.45,-62.291 -8.528,-62.541C-3.609,-62.79 -1.613,-58.582 -0.8,-55.113C0.013,-58.582 2.009,-62.79 6.928,-62.541C11.85,-62.291 14.568,-57.141 14.281,-52.007C14.031,-47.512 11.338,-42.295 7.969,-37.476C2.933,-30.276 -0.8,-24.151 -0.8,-24.151Z" style="fill:rgb(212,0,0);fill-rule:nonzero;"/>
                </g>
                <g id="path9854-8-0" transform="matrix(1,0,0,1,898.954,-683.124)">
                    <path d="M-0.8,16.817C-0.8,16.817 -4.533,22.942 -9.569,30.142C-12.938,34.961 -15.631,40.179 -15.881,44.673C-16.168,49.807 -13.45,54.957 -8.528,55.207C-3.609,55.456 -1.613,51.248 -0.8,47.779C0.013,51.248 2.009,55.456 6.928,55.207C11.85,54.957 14.568,49.807 14.281,44.673C14.031,40.179 11.338,34.961 7.969,30.142C2.933,22.942 -0.8,16.817 -0.8,16.817Z" style="fill:rgb(212,0,0);fill-rule:nonzero;"/>
                </g>
                <path id="path17-2-9-8-4" d="M814.067,-819.517L816.1,-821.012C817.864,-818.139 819.836,-816.247 822.854,-816.572C827.382,-816.883 829.258,-821.63 828.311,-825.206C827.394,-828.414 823.645,-829.977 820.664,-828.267C819.961,-827.861 819.282,-827.53 819.149,-827.53C818.837,-827.53 818.129,-828.938 818.226,-829.368C820.226,-832.289 825.084,-837.407 825.084,-837.407L817.494,-837.407L817.494,-833.98L814.582,-833.98L814.582,-840.13L829.415,-840.13L829.415,-838.043C829.415,-838.043 825.441,-833.921 824.127,-831.664C827.362,-831.545 829.97,-829.495 830.906,-826.254C831.452,-824.548 831.207,-820.645 830.492,-818.963C829.298,-816.158 826.036,-813.883 823.055,-813.752C818.049,-813.416 815.393,-816.923 814.067,-819.517Z" style="fill:rgb(212,0,0);fill-rule:nonzero;"/>
                <path id="path17-5-3-9-1-3" d="M982.239,-633.434L980.206,-631.94C978.442,-634.812 976.47,-636.704 973.452,-636.379C968.924,-636.068 967.048,-631.322 967.996,-627.745C968.912,-624.537 972.661,-622.974 975.642,-624.684C976.345,-625.09 977.024,-625.421 977.157,-625.421C977.469,-625.421 978.177,-624.013 978.08,-623.584C976.08,-620.662 971.222,-615.544 971.222,-615.544L978.812,-615.544L978.812,-618.971L981.725,-618.971L981.725,-612.821L966.891,-612.821L966.891,-614.908C966.891,-614.908 970.865,-619.03 972.179,-621.287C968.944,-621.406 966.336,-623.456 965.4,-626.697C964.854,-628.403 965.099,-632.306 965.814,-633.988C967.008,-636.793 970.27,-639.068 973.251,-639.199C978.257,-639.535 980.913,-636.028 982.239,-633.434Z" style="fill:rgb(212,0,0);fill-rule:nonzero;"/>
            </g>
        </g>
    </g>
</svg>
