<?xml version="1.0" encoding="UTF-8" standalone="no"?>
<!DOCTYPE svg PUBLIC "-//W3C//DTD SVG 1.1//EN" "http://www.w3.org/Graphics/SVG/1.1/DTD/svg11.dtd">
<svg width="100%" height="100%" viewBox="0 0 182 253" version="1.1" xmlns="http://www.w3.org/2000/svg" xmlns:xlink="http://www.w3.org/1999/xlink" xml:space="preserve" xmlns:serif="http://www.serif.com/" style="fill-rule:evenodd;clip-rule:evenodd;">
    <g transform="matrix(1,0,0,1,-467,-597)">
        <g transform="matrix(1,0,0,1,-328,1179.11)">
            <g id="_3_spades" serif:id="3_spades" transform="matrix(0.995538,0,0,0.996801,14.03,-204.289)">
                <path id="rect6784-5-9" d="M964.838,-368.557C964.838,-373.287 960.994,-377.127 956.258,-377.127L794.836,-377.127C790.1,-377.127 786.256,-373.287 786.256,-368.557L786.256,-136.247C786.256,-131.518 790.1,-127.678 794.836,-127.678L956.258,-127.678C960.994,-127.678 964.838,-131.518 964.838,-136.247L964.838,-368.557Z" style="fill:white;stroke:black;stroke-width:0.8px;"/>
                <path id="path6816-2-4" d="M800.029,-337.148C796.581,-332.762 792.891,-330.238 792.83,-326.817C792.809,-325.709 793.481,-323.826 795.585,-323.465C796.95,-323.232 798.829,-324.218 798.869,-326.219C798.861,-326.618 799.342,-326.608 799.337,-326.062C799.273,-324.483 798.713,-322.644 797.771,-321.148L802.288,-321.148C801.346,-322.644 800.786,-324.483 800.722,-326.062C800.714,-326.608 801.196,-326.618 801.19,-326.219C801.229,-324.218 803.109,-323.232 804.474,-323.465C806.578,-323.826 807.25,-325.709 807.229,-326.817C807.167,-330.238 803.478,-332.762 800.029,-337.148Z" style="fill-rule:nonzero;"/>
                <path id="path6820-0-2" d="M951.065,-167.656C947.617,-172.042 943.927,-174.566 943.866,-177.987C943.845,-179.095 944.517,-180.978 946.621,-181.339C947.986,-181.572 949.865,-180.586 949.904,-178.585C949.896,-178.186 950.377,-178.197 950.373,-178.743C950.309,-180.322 949.748,-182.16 948.806,-183.656L953.324,-183.656C952.382,-182.16 951.821,-180.322 951.757,-178.743C951.749,-178.197 952.232,-178.186 952.226,-178.585C952.265,-180.586 954.144,-181.572 955.509,-181.339C957.613,-180.978 958.285,-179.095 958.265,-177.987C958.203,-174.566 954.513,-172.042 951.065,-167.656Z" style="fill-rule:nonzero;"/>
                <path id="path6828-8-3" d="M875.547,-350.971C868.166,-340.445 860.269,-334.388 860.138,-326.176C860.094,-323.517 861.531,-318.997 866.034,-318.132C868.956,-317.574 872.979,-319.938 873.063,-324.742C873.05,-325.699 874.075,-325.674 874.066,-324.363C873.928,-320.574 872.729,-316.162 870.713,-312.571L880.381,-312.571C878.365,-316.162 877.166,-320.574 877.028,-324.363C877.019,-325.674 878.044,-325.699 878.031,-324.742C878.115,-319.938 882.138,-317.574 885.059,-318.132C889.563,-318.997 891,-323.517 890.956,-326.176C890.825,-334.388 882.928,-340.445 875.547,-350.971Z" style="fill-rule:nonzero;"/>
                <path id="path6842-0-7" d="M875.547,-153.834C868.166,-164.359 860.269,-170.416 860.138,-178.628C860.094,-181.287 861.531,-185.807 866.034,-186.672C868.956,-187.231 872.979,-184.866 873.063,-180.062C873.05,-179.106 874.075,-179.131 874.066,-180.441C873.928,-184.23 872.729,-188.642 870.713,-192.234L880.381,-192.234C878.365,-188.642 877.166,-184.23 877.028,-180.441C877.019,-179.131 878.044,-179.106 878.031,-180.062C878.115,-184.866 882.138,-187.231 885.059,-186.672C889.563,-185.807 891,-181.287 890.956,-178.628C890.825,-170.416 882.928,-164.359 875.547,-153.834Z" style="fill-rule:nonzero;"/>
                <path id="path6844-7-0" d="M875.547,-271.602C868.166,-261.076 860.269,-255.019 860.138,-246.807C860.094,-244.148 861.531,-239.629 866.034,-238.764C868.956,-238.205 872.979,-240.57 873.063,-245.374C873.05,-246.33 874.075,-246.305 874.066,-244.995C873.928,-241.205 872.729,-236.793 870.713,-233.202L880.381,-233.202C878.365,-236.793 877.166,-241.205 877.028,-244.995C877.019,-246.305 878.044,-246.33 878.031,-245.374C878.115,-240.57 882.138,-238.205 885.059,-238.764C889.563,-239.629 891,-244.148 890.956,-246.807C890.825,-255.019 882.928,-261.076 875.547,-271.602Z" style="fill-rule:nonzero;"/>
                <path id="path17-9-11-4" d="M791.46,-345.443L793.493,-346.938C795.257,-344.066 797.229,-342.174 800.247,-342.499C804.775,-342.81 806.651,-347.556 805.704,-351.132C804.787,-354.341 801.038,-355.904 798.057,-354.193C797.354,-353.788 796.675,-353.457 796.542,-353.457C796.23,-353.457 795.522,-354.865 795.619,-355.294C797.619,-358.216 802.477,-363.334 802.477,-363.334L794.887,-363.334L794.887,-359.906L791.975,-359.906L791.975,-366.056L806.808,-366.056L806.808,-363.97C806.808,-363.97 802.834,-359.848 801.52,-357.59C804.755,-357.472 807.363,-355.422 808.299,-352.181C808.845,-350.475 808.6,-346.572 807.885,-344.889C806.691,-342.085 803.429,-339.81 800.448,-339.679C795.442,-339.343 792.786,-342.85 791.46,-345.443Z" style="fill-rule:nonzero;"/>
                <path id="path17-9-1-0-8" d="M959.632,-159.361L957.599,-157.866C955.836,-160.738 953.863,-162.63 950.845,-162.305C946.317,-161.994 944.441,-157.248 945.389,-153.672C946.305,-150.463 950.054,-148.9 953.035,-150.611C953.738,-151.016 954.417,-151.347 954.55,-151.347C954.862,-151.347 955.57,-149.94 955.473,-149.51C953.473,-146.588 948.615,-141.47 948.615,-141.47L956.205,-141.47L956.205,-144.898L959.118,-144.898L959.118,-138.748L944.284,-138.748L944.284,-140.834C944.284,-140.834 948.258,-144.956 949.572,-147.214C946.337,-147.332 943.73,-149.382 942.794,-152.623C942.247,-154.33 942.492,-158.233 943.207,-159.915C944.401,-162.719 947.663,-164.994 950.644,-165.125C955.65,-165.462 958.306,-161.954 959.632,-159.361Z" style="fill-rule:nonzero;"/>
            </g>
        </g>
    </g>
</svg>
