<?xml version="1.0" encoding="UTF-8" standalone="no"?><!DOCTYPE svg PUBLIC "-//W3C//DTD SVG 1.1//EN" "http://www.w3.org/Graphics/SVG/1.1/DTD/svg11.dtd"><svg width="100%" height="100%" viewBox="0 0 178 249" version="1.1" xmlns="http://www.w3.org/2000/svg" xmlns:xlink="http://www.w3.org/1999/xlink" xml:space="preserve" xmlns:serif="http://www.serif.com/" style="fill-rule:evenodd;clip-rule:evenodd;stroke-linejoin:round;stroke-miterlimit:2;"><rect id="_4-diamonds" serif:id="4-diamonds" x="0" y="0" width="178" height="249" style="fill:none;"/><clipPath id="_clip1"><rect x="0" y="0" width="178" height="249"/></clipPath><g clip-path="url(#_clip1)"><rect x="-532.211" y="-747" width="2312.21" height="1245" style="fill:#fff;"/><g id="_4_diamonds" serif:id="4_diamonds"><path id="path6654-0" d="M13.729,55.891c-1.723,-2.849 -3.536,-5.618 -5.802,-7.984c2.266,-2.365 4.079,-5.135 5.802,-7.984c1.723,2.849 3.536,5.619 5.801,7.984c-2.265,2.366 -4.078,5.135 -5.801,7.984Z" style="fill:#d40000;fill-rule:nonzero;"/><path id="path6656-6" d="M130.278,64.451c-4.135,-6.838 -8.486,-13.484 -13.923,-19.161c5.437,-5.678 9.788,-12.324 13.923,-19.162c4.135,6.838 8.486,13.484 13.923,19.162c-5.437,5.677 -9.788,12.323 -13.923,19.161Z" style="fill:#d40000;fill-rule:nonzero;"/><path id="path6658-8" d="M164.272,209.077c-1.723,-2.849 -3.536,-5.618 -5.802,-7.984c2.266,-2.366 4.079,-5.135 5.802,-7.984c1.723,2.849 3.536,5.618 5.801,7.984c-2.265,2.366 -4.078,5.135 -5.801,7.984Z" style="fill:#d40000;fill-rule:nonzero;"/><path id="path6660-7" d="M47.722,64.451c-4.135,-6.838 -8.486,-13.484 -13.923,-19.161c5.437,-5.678 9.788,-12.324 13.923,-19.162c4.135,6.838 8.486,13.484 13.923,19.162c-5.437,5.677 -9.788,12.323 -13.923,19.161Z" style="fill:#d40000;fill-rule:nonzero;"/><path id="path6676-4" d="M47.722,222.876c-4.135,-6.838 -8.486,-13.484 -13.923,-19.162c5.437,-5.677 9.788,-12.323 13.923,-19.161c4.135,6.838 8.486,13.484 13.923,19.161c-5.437,5.678 -9.788,12.324 -13.923,19.162Z" style="fill:#d40000;fill-rule:nonzero;"/><path id="path6678-8" d="M130.278,222.882c-4.135,-6.838 -8.486,-13.485 -13.923,-19.162c5.437,-5.677 9.788,-12.324 13.923,-19.162c4.135,6.838 8.486,13.485 13.923,19.162c-5.437,5.677 -9.788,12.324 -13.923,19.162Z" style="fill:#d40000;fill-rule:nonzero;"/><path id="path19-3-1-9-0" d="M13.912,37.416l0,-2.327l2.098,0l0,-3.838l-10.492,0l0,-2.709l11.353,-17.47l1.855,0.01l0,17.46l3.211,0l0,2.709l-3.211,0l-0.061,3.838l1.758,0l0,2.331l-6.511,0l0,-0.004Zm2.098,-19.948l-7.208,11.075l7.208,0l0,-11.075Z" style="fill:#d40000;fill-rule:nonzero;"/><path id="path19-4-46-7-7" d="M164.086,211.584l0,2.327l-2.098,0l0,3.838l10.492,0l0,2.709l-11.353,17.47l-1.854,-0.01l0,-17.46l-3.212,0l0,-2.709l3.212,0l0.06,-3.838l-1.758,0l0,-2.331l6.511,0l0,0.004Zm-2.098,19.948l7.208,-11.075l-7.208,0l0,11.075Z" style="fill:#d40000;fill-rule:nonzero;"/></g></g></svg>