<?xml version="1.0" encoding="UTF-8" standalone="no"?><!DOCTYPE svg PUBLIC "-//W3C//DTD SVG 1.1//EN" "http://www.w3.org/Graphics/SVG/1.1/DTD/svg11.dtd"><svg width="100%" height="100%" viewBox="0 0 178 249" version="1.1" xmlns="http://www.w3.org/2000/svg" xmlns:xlink="http://www.w3.org/1999/xlink" xml:space="preserve" xmlns:serif="http://www.serif.com/" style="fill-rule:evenodd;clip-rule:evenodd;stroke-linejoin:round;stroke-miterlimit:2;"><rect id="_4-hearts" serif:id="4-hearts" x="0" y="0" width="178" height="249" style="fill:none;"/><clipPath id="_clip1"><rect x="0" y="0" width="178" height="249"/></clipPath><g clip-path="url(#_clip1)"><rect x="-532.211" y="-249" width="2312.21" height="1245" style="fill:#fff;"/><g id="_4_hearts" serif:id="4_hearts"><path id="path9902-6-7" d="M13.729,55.892c0,-0.003 -1.774,-2.547 -4.167,-5.541c-1.601,-2.004 -2.881,-4.174 -3,-6.043c-0.136,-2.135 1.156,-4.276 3.494,-4.38c2.338,-0.104 3.287,1.646 3.673,3.089c0.386,-1.443 1.335,-3.193 3.672,-3.089c2.339,0.104 3.631,2.245 3.495,4.38c-0.119,1.869 -1.399,4.039 -3,6.043c-2.393,2.994 -4.166,5.538 -4.167,5.541Z" style="fill:#d40000;fill-rule:nonzero;"/><path id="path9904-6-0" d="M164.272,193.109c0,0.002 -1.774,2.546 -4.167,5.541c-1.601,2.003 -2.881,4.173 -3,6.042c-0.136,2.135 1.155,4.276 3.494,4.38c2.338,0.104 3.286,-1.646 3.673,-3.088c0.386,1.442 1.335,3.192 3.672,3.088c2.339,-0.104 3.631,-2.245 3.494,-4.38c-0.119,-1.869 -1.398,-4.039 -2.999,-6.042c-2.393,-2.995 -4.166,-5.539 -4.167,-5.541Z" style="fill:#d40000;fill-rule:nonzero;"/><path id="path9910-2-6" d="M47.722,64.452c0,-0.005 -3.721,-6.112 -8.74,-13.299c-3.358,-4.809 -6.042,-10.016 -6.292,-14.501c-0.286,-5.124 2.423,-10.264 7.329,-10.513c4.903,-0.249 6.893,3.95 7.703,7.413c0.81,-3.463 2.8,-7.662 7.703,-7.413c4.906,0.249 7.615,5.389 7.329,10.513c-0.25,4.485 -2.934,9.692 -6.292,14.501c-5.019,7.187 -8.737,13.294 -8.74,13.299Z" style="fill:#d40000;fill-rule:nonzero;"/><path id="path9916-8-0" d="M130.278,64.452c0,-0.005 -3.721,-6.112 -8.74,-13.299c-3.358,-4.809 -6.042,-10.016 -6.292,-14.501c-0.286,-5.124 2.423,-10.264 7.329,-10.513c4.903,-0.249 6.893,3.95 7.703,7.413c0.81,-3.463 2.8,-7.662 7.703,-7.413c4.906,0.249 7.615,5.389 7.329,10.513c-0.25,4.485 -2.934,9.692 -6.292,14.501c-5.019,7.187 -8.737,13.294 -8.74,13.299Z" style="fill:#d40000;fill-rule:nonzero;"/><path id="path9930-7-9" d="M130.278,184.548c0,0.005 -3.721,6.112 -8.74,13.299c-3.358,4.809 -6.042,10.016 -6.292,14.501c-0.286,5.124 2.423,10.264 7.329,10.513c4.903,0.249 6.893,-3.95 7.703,-7.413c0.81,3.463 2.8,7.662 7.703,7.413c4.906,-0.249 7.615,-5.389 7.329,-10.513c-0.25,-4.485 -2.934,-9.692 -6.292,-14.501c-5.019,-7.187 -8.737,-13.294 -8.74,-13.299Z" style="fill:#d40000;fill-rule:nonzero;"/><path id="path9932-9-8" d="M47.722,184.548c0,0.005 -3.721,6.112 -8.74,13.299c-3.358,4.809 -6.042,10.016 -6.292,14.501c-0.286,5.124 2.423,10.264 7.329,10.513c4.903,0.249 6.893,-3.95 7.703,-7.413c0.81,3.463 2.8,7.662 7.703,7.413c4.906,-0.249 7.615,-5.389 7.329,-10.513c-0.25,-4.485 -2.934,-9.692 -6.292,-14.501c-5.019,-7.187 -8.737,-13.294 -8.74,-13.299Z" style="fill:#d40000;fill-rule:nonzero;"/><path id="path19-3-8-2-9" d="M13.912,37.417l0,-2.327l2.098,0l0,-3.839l-10.492,0l0,-2.709l11.353,-17.469l1.855,0.009l0,17.461l3.211,0l0,2.708l-3.211,0l-0.061,3.839l1.758,0l0,2.33l-6.511,0l0,-0.003Zm2.098,-19.949l-7.208,11.076l7.208,0l0,-11.076Z" style="fill:#d40000;fill-rule:nonzero;"/><path id="path19-4-46-0-1-9" d="M164.086,211.583l0,2.327l-2.098,0l0,3.839l10.492,0l0,2.709l-11.353,17.469l-1.854,-0.009l0,-17.461l-3.212,0l0,-2.708l3.212,0l0.06,-3.839l-1.758,0l0,-2.33l6.511,0l0,0.003Zm-2.098,19.949l7.209,-11.075l-7.209,0l0,11.075Z" style="fill:#d40000;fill-rule:nonzero;"/></g></g></svg>