<?xml version="1.0" encoding="UTF-8" standalone="no"?><!DOCTYPE svg PUBLIC "-//W3C//DTD SVG 1.1//EN" "http://www.w3.org/Graphics/SVG/1.1/DTD/svg11.dtd"><svg width="100%" height="100%" viewBox="0 0 178 249" version="1.1" xmlns="http://www.w3.org/2000/svg" xmlns:xlink="http://www.w3.org/1999/xlink" xml:space="preserve" xmlns:serif="http://www.serif.com/" style="fill-rule:evenodd;clip-rule:evenodd;stroke-linejoin:round;stroke-miterlimit:2;"><rect id="_4-spades" serif:id="4-spades" x="0" y="0" width="178" height="249" style="fill:none;"/><clipPath id="_clip1"><rect x="0" y="0" width="178" height="249"/></clipPath><g clip-path="url(#_clip1)"><rect x="-532.211" y="-498" width="2312.21" height="1245" style="fill:#fff;"/><g id="_4_spades" serif:id="4_spades"><g id="g8473-4-9"><path id="path6882-1-0" d="M47.722,26.128c-7.357,10.505 -15.228,16.55 -15.359,24.746c-0.044,2.653 1.389,7.164 5.878,8.027c2.912,0.558 6.921,-1.802 7.005,-6.597c-0.013,-0.954 1.009,-0.929 1,0.379c-0.138,3.781 -1.333,8.185 -3.343,11.769l9.638,0c-2.01,-3.584 -3.205,-7.988 -3.343,-11.769c-0.009,-1.308 1.013,-1.333 1,-0.379c0.084,4.795 4.093,7.155 7.005,6.597c4.489,-0.863 5.922,-5.374 5.878,-8.027c-0.131,-8.196 -8.002,-14.241 -15.359,-24.746Z" style="fill-rule:nonzero;"/><path id="path6884-6-5" d="M13.729,39.923c-3.437,4.377 -7.115,6.896 -7.176,10.311c-0.021,1.106 0.649,2.985 2.746,3.345c1.361,0.232 3.234,-0.751 3.273,-2.749c-0.008,-0.398 0.472,-0.387 0.467,0.158c-0.064,1.576 -0.623,3.41 -1.561,4.904l4.502,0c-0.939,-1.494 -1.497,-3.328 -1.561,-4.904c-0.008,-0.545 0.473,-0.556 0.467,-0.158c0.039,1.998 1.912,2.981 3.273,2.749c2.097,-0.36 2.766,-2.239 2.746,-3.345c-0.061,-3.415 -3.739,-5.934 -7.176,-10.311Z" style="fill-rule:nonzero;"/><path id="path6888-1-5" d="M164.272,209.077c-3.438,-4.377 -7.115,-6.896 -7.176,-10.311c-0.021,-1.106 0.649,-2.985 2.746,-3.345c1.36,-0.232 3.234,0.751 3.273,2.749c-0.008,0.398 0.471,0.387 0.467,-0.158c-0.064,-1.575 -0.623,-3.41 -1.562,-4.903l4.503,0c-0.939,1.493 -1.497,3.328 -1.561,4.903c-0.008,0.545 0.473,0.556 0.467,0.158c0.039,-1.998 1.912,-2.981 3.273,-2.749c2.097,0.36 2.766,2.239 2.746,3.345c-0.062,3.415 -3.739,5.934 -7.176,10.311Z" style="fill-rule:nonzero;"/><path id="path6890-4-9" d="M130.278,26.128c-7.357,10.505 -15.228,16.55 -15.359,24.746c-0.044,2.653 1.389,7.164 5.878,8.027c2.912,0.558 6.921,-1.802 7.005,-6.597c-0.013,-0.954 1.009,-0.929 1,0.379c-0.138,3.781 -1.333,8.185 -3.343,11.769l9.638,0c-2.01,-3.584 -3.205,-7.988 -3.343,-11.769c-0.009,-1.308 1.013,-1.333 1,-0.379c0.084,4.795 4.093,7.155 7.005,6.597c4.489,-0.863 5.922,-5.374 5.878,-8.027c-0.131,-8.196 -8.002,-14.241 -15.359,-24.746Z" style="fill-rule:nonzero;"/><path id="path6902-7-5" d="M47.722,222.872c-7.357,-10.505 -15.228,-16.55 -15.359,-24.746c-0.044,-2.653 1.389,-7.164 5.878,-8.027c2.912,-0.558 6.921,1.802 7.005,6.597c-0.013,0.954 1.009,0.929 1,-0.379c-0.138,-3.781 -1.333,-8.185 -3.343,-11.769l9.638,0c-2.01,3.584 -3.205,7.988 -3.343,11.769c-0.009,1.308 1.013,1.333 1,0.379c0.084,-4.795 4.093,-7.155 7.005,-6.597c4.489,0.863 5.922,5.374 5.878,8.027c-0.131,8.196 -8.002,14.241 -15.359,24.746Z" style="fill-rule:nonzero;"/><path id="path6904-9-7" d="M130.278,222.872c-7.357,-10.505 -15.228,-16.55 -15.359,-24.746c-0.044,-2.653 1.389,-7.164 5.878,-8.027c2.912,-0.558 6.921,1.802 7.005,6.597c-0.013,0.954 1.009,0.929 1,-0.379c-0.138,-3.781 -1.333,-8.185 -3.343,-11.769l9.638,0c-2.01,3.584 -3.205,7.988 -3.343,11.769c-0.009,1.308 1.013,1.333 1,0.379c0.084,-4.795 4.093,-7.155 7.005,-6.597c4.489,0.863 5.922,5.374 5.878,8.027c-0.131,8.196 -8.002,14.241 -15.359,24.746Z" style="fill-rule:nonzero;"/><path id="path19-08-0-9" d="M13.912,37.417l0,-2.327l2.098,0l0,-3.839l-10.492,0l0,-2.709l11.353,-17.469l1.855,0.009l0,17.461l3.211,0l0,2.708l-3.211,0l-0.061,3.839l1.758,0l0,2.33l-6.511,0l0,-0.003Zm2.098,-19.948l-7.208,11.074l7.208,0l0,-11.074Z" style="fill-rule:nonzero;"/><path id="path19-08-1-1-4" d="M164.087,211.583l0,2.327l-2.097,0l0,3.839l10.491,0l0,2.709l-11.353,17.469l-1.854,-0.009l0,-17.46l-3.212,0l0,-2.709l3.212,0l0.06,-3.839l-1.758,0l0,-2.33l6.511,0l0,0.003Zm-2.097,19.949l7.208,-11.075l-7.208,0l0,11.075Z" style="fill-rule:nonzero;"/></g></g></g></svg>