<?xml version="1.0" encoding="UTF-8" standalone="no"?>
<!DOCTYPE svg PUBLIC "-//W3C//DTD SVG 1.1//EN" "http://www.w3.org/Graphics/SVG/1.1/DTD/svg11.dtd">
<svg width="100%" height="100%" viewBox="0 0 182 253" version="1.1" xmlns="http://www.w3.org/2000/svg" xmlns:xlink="http://www.w3.org/1999/xlink" xml:space="preserve" xmlns:serif="http://www.serif.com/" style="fill-rule:evenodd;clip-rule:evenodd;">
    <g transform="matrix(1,0,0,1,-677,-34)">
        <g transform="matrix(1,0,0,1,-328,1179.11)">
            <g id="_4_clubs" serif:id="4_clubs" transform="matrix(0.999997,0,0,1,2.39601,-272.411)">
                <path id="rect6355-6-85-3-72-9" d="M1182.75,-862.192C1182.75,-866.885 1178.94,-870.696 1174.25,-870.696L1013.47,-870.696C1008.78,-870.696 1004.97,-866.885 1004.97,-862.192L1004.97,-630.549C1004.97,-625.855 1008.78,-622.045 1013.47,-622.045L1174.25,-622.045C1178.94,-622.045 1182.75,-625.855 1182.75,-630.549L1182.75,-862.192Z" style="fill:white;stroke:black;stroke-width:0.8px;"/>
                <path id="path147-0-8-1-6-13-2-06-7" d="M1135.09,-844.292C1127.27,-844.122 1123.76,-835.318 1129.55,-828.481C1130.39,-827.484 1130.48,-826.912 1128.94,-827.87C1125.04,-830.477 1117.56,-828.763 1117.18,-820.792C1116.71,-810.97 1130.43,-808.14 1133.01,-818.584C1133.14,-819.686 1134.04,-819.661 1133.82,-818.097C1133.59,-813.852 1132.26,-809.884 1130.44,-806.015L1139.74,-806.015C1137.91,-809.884 1136.59,-813.852 1136.35,-818.097C1136.14,-819.661 1137.03,-819.686 1137.17,-818.584C1139.75,-808.14 1153.47,-810.97 1153,-820.792C1152.61,-828.763 1145.14,-830.477 1141.24,-827.87C1139.7,-826.912 1139.79,-827.484 1140.63,-828.481C1146.42,-835.318 1142.91,-844.122 1135.09,-844.292C1135.09,-844.292 1135.09,-844.292 1135.08,-844.292L1135.09,-844.292Z" style="fill-rule:nonzero;"/>
                <path id="path147-0-8-1-6-75-2-83-35-3" d="M1052.63,-844.292C1044.81,-844.122 1041.3,-835.318 1047.09,-828.481C1047.93,-827.484 1048.02,-826.912 1046.48,-827.87C1042.58,-830.477 1035.11,-828.763 1034.72,-820.792C1034.25,-810.97 1047.97,-808.14 1050.55,-818.584C1050.69,-819.686 1051.58,-819.661 1051.37,-818.097C1051.13,-813.852 1049.81,-809.884 1047.98,-806.015L1057.28,-806.015C1055.46,-809.884 1054.13,-813.852 1053.9,-818.097C1053.68,-819.661 1054.58,-819.686 1054.71,-818.584C1057.29,-808.14 1071.01,-810.97 1070.54,-820.792C1070.16,-828.763 1062.68,-830.477 1058.78,-827.87C1057.24,-826.912 1057.33,-827.484 1058.17,-828.481C1063.96,-835.318 1060.45,-844.122 1052.63,-844.292C1052.63,-844.292 1052.63,-844.292 1052.63,-844.292L1052.63,-844.292Z" style="fill-rule:nonzero;"/>
                <path id="path147-0-8-1-6-7-5-5-7-77-6" d="M1135.09,-647.785C1127.27,-647.955 1123.76,-656.759 1129.55,-663.596C1130.39,-664.593 1130.48,-665.165 1128.94,-664.208C1125.04,-661.6 1117.56,-663.314 1117.18,-671.285C1116.71,-681.107 1130.43,-683.937 1133.01,-673.493C1133.14,-672.391 1134.04,-672.416 1133.82,-673.98C1133.59,-678.226 1132.26,-682.193 1130.44,-686.063L1139.74,-686.063C1137.91,-682.193 1136.59,-678.226 1136.35,-673.98C1136.14,-672.416 1137.03,-672.391 1137.17,-673.493C1139.75,-683.937 1153.47,-681.107 1153,-671.285C1152.61,-663.314 1145.14,-661.6 1141.24,-664.208C1139.7,-665.165 1139.79,-664.593 1140.63,-663.596C1146.42,-656.759 1142.91,-647.955 1135.09,-647.785C1135.09,-647.785 1135.09,-647.785 1135.08,-647.785L1135.09,-647.785Z" style="fill-rule:nonzero;"/>
                <path id="path147-0-8-1-6-75-6-1-2-08-0" d="M1052.63,-647.785C1044.81,-647.955 1041.3,-656.759 1047.09,-663.596C1047.93,-664.593 1048.02,-665.165 1046.48,-664.208C1042.58,-661.6 1035.11,-663.314 1034.72,-671.285C1034.25,-681.107 1047.97,-683.937 1050.55,-673.493C1050.69,-672.391 1051.58,-672.416 1051.37,-673.98C1051.13,-678.226 1049.81,-682.193 1047.98,-686.063L1057.28,-686.063C1055.46,-682.193 1054.13,-678.226 1053.9,-673.98C1053.68,-672.416 1054.58,-672.391 1054.71,-673.493C1057.29,-683.937 1071.01,-681.107 1070.54,-671.285C1070.16,-663.314 1062.68,-661.6 1058.78,-664.208C1057.24,-665.165 1057.33,-664.593 1058.17,-663.596C1063.96,-656.759 1060.45,-647.955 1052.63,-647.785C1052.63,-647.785 1052.63,-647.785 1052.63,-647.785L1052.63,-647.785Z" style="fill-rule:nonzero;"/>
                <path id="path147-6-9-8-7-0-5-6-17-9" d="M1169.04,-661.895C1172.17,-661.966 1173.57,-665.634 1171.26,-668.483C1170.92,-668.899 1170.88,-669.137 1171.5,-668.738C1173.06,-667.652 1176.05,-668.366 1176.2,-671.687C1176.39,-675.779 1170.9,-676.958 1169.87,-672.607C1169.82,-672.148 1169.46,-672.158 1169.55,-672.81C1169.64,-674.579 1170.17,-676.232 1170.9,-677.844L1167.18,-677.844C1167.91,-676.232 1168.44,-674.579 1168.54,-672.81C1168.62,-672.158 1168.26,-672.148 1168.21,-672.607C1167.18,-676.958 1161.69,-675.779 1161.88,-671.687C1162.03,-668.366 1165.02,-667.652 1166.58,-668.738C1167.2,-669.137 1167.16,-668.899 1166.83,-668.483C1164.51,-665.634 1165.91,-661.966 1169.04,-661.895C1169.04,-661.895 1169.04,-661.895 1169.04,-661.895L1169.04,-661.895Z" style="fill-rule:nonzero;"/>
                <path id="path147-6-9-8-7-4-5-62-79-3" d="M1018.68,-830.845C1015.55,-830.774 1014.15,-827.106 1016.46,-824.257C1016.8,-823.842 1016.84,-823.603 1016.22,-824.002C1014.66,-825.089 1011.67,-824.374 1011.52,-821.053C1011.33,-816.961 1016.82,-815.782 1017.85,-820.133C1017.9,-820.592 1018.26,-820.582 1018.17,-819.93C1018.08,-818.161 1017.55,-816.508 1016.82,-814.896L1020.54,-814.896C1019.81,-816.508 1019.28,-818.161 1019.19,-819.93C1019.1,-820.582 1019.46,-820.592 1019.51,-820.133C1020.54,-815.782 1026.03,-816.961 1025.84,-821.053C1025.69,-824.374 1022.7,-825.089 1021.14,-824.002C1020.52,-823.603 1020.56,-823.842 1020.89,-824.257C1023.21,-827.106 1021.81,-830.774 1018.68,-830.845C1018.68,-830.845 1018.68,-830.845 1018.68,-830.845L1018.68,-830.845Z" style="fill-rule:nonzero;"/>
                <path id="path19-0-7-3" d="M1018.86,-833.348L1018.86,-835.673L1020.96,-835.673L1020.96,-839.507L1010.48,-839.507L1010.48,-842.212L1021.82,-859.661L1023.67,-859.651L1023.67,-842.212L1026.88,-842.212L1026.88,-839.507L1023.67,-839.507L1023.61,-835.672L1025.37,-835.672L1025.37,-833.345L1018.86,-833.345L1018.86,-833.348ZM1020.96,-853.273L1013.76,-842.211L1020.96,-842.211L1020.96,-853.273Z" style="fill-rule:nonzero;"/>
                <path id="path19-4-4-9-1" d="M1168.86,-659.392L1168.86,-657.067L1166.76,-657.067L1166.76,-653.233L1177.24,-653.233L1177.24,-650.528L1165.9,-633.079L1164.05,-633.089L1164.05,-650.528L1160.84,-650.528L1160.84,-653.234L1164.05,-653.234L1164.11,-657.068L1162.35,-657.068L1162.35,-659.395L1168.86,-659.395L1168.86,-659.392ZM1166.76,-639.467L1173.96,-650.529L1166.76,-650.529L1166.76,-639.467Z" style="fill-rule:nonzero;"/>
            </g>
        </g>
    </g>
</svg>
