<?xml version="1.0" encoding="UTF-8" standalone="no"?>
<!DOCTYPE svg PUBLIC "-//W3C//DTD SVG 1.1//EN" "http://www.w3.org/Graphics/SVG/1.1/DTD/svg11.dtd">
<svg width="100%" height="100%" viewBox="0 0 182 253" version="1.1" xmlns="http://www.w3.org/2000/svg" xmlns:xlink="http://www.w3.org/1999/xlink" xml:space="preserve" xmlns:serif="http://www.serif.com/" style="fill-rule:evenodd;clip-rule:evenodd;">
    <g transform="matrix(1,0,0,1,-677,-878)">
        <g transform="matrix(1,0,0,1,-328,1179.11)">
            <g id="_4_diamonds" serif:id="4_diamonds" transform="matrix(0.995535,0,0,0.996803,7.2771,-274.482)">
                <path id="rect6622-5" d="M1183.15,-15.786C1183.15,-20.516 1179.31,-24.356 1174.57,-24.356L1013.15,-24.356C1008.41,-24.356 1004.57,-20.516 1004.57,-15.786L1004.57,216.523C1004.57,221.253 1008.41,225.093 1013.15,225.093L1174.57,225.093C1179.31,225.093 1183.15,221.253 1183.15,216.523L1183.15,-15.786Z" style="fill:white;stroke:black;stroke-width:0.8px;"/>
                <path id="path6654-0" d="M1018.34,31.623C1016.61,28.768 1014.8,25.993 1012.52,23.623C1014.8,21.252 1016.61,18.478 1018.34,15.623C1020.07,18.478 1021.89,21.252 1024.16,23.623C1021.89,25.993 1020.07,28.768 1018.34,31.623Z" style="fill:rgb(212,0,0);fill-rule:nonzero;"/>
                <path id="path6656-6" d="M1135.27,40.2C1131.12,33.348 1126.76,26.689 1121.3,21C1126.76,15.311 1131.12,8.652 1135.27,1.8C1139.42,8.652 1143.79,15.311 1149.24,21C1143.79,26.689 1139.42,33.348 1135.27,40.2Z" style="fill:rgb(212,0,0);fill-rule:nonzero;"/>
                <path id="path6658-8" d="M1169.38,185.114C1167.65,182.26 1165.83,179.485 1163.56,177.114C1165.83,174.744 1167.65,171.969 1169.38,169.114C1171.11,171.969 1172.92,174.744 1175.2,177.114C1172.92,179.485 1171.11,182.26 1169.38,185.114Z" style="fill:rgb(212,0,0);fill-rule:nonzero;"/>
                <path id="path6660-7" d="M1052.45,40.2C1048.3,33.348 1043.93,26.689 1038.48,21C1043.93,15.311 1048.3,8.652 1052.45,1.8C1056.6,8.652 1060.96,15.311 1066.41,21C1060.96,26.689 1056.6,33.348 1052.45,40.2Z" style="fill:rgb(212,0,0);fill-rule:nonzero;"/>
                <path id="path6676-4" d="M1052.45,198.941C1048.3,192.089 1043.93,185.43 1038.48,179.741C1043.93,174.052 1048.3,167.393 1052.45,160.541C1056.6,167.393 1060.96,174.052 1066.41,179.741C1060.96,185.43 1056.6,192.089 1052.45,198.941Z" style="fill:rgb(212,0,0);fill-rule:nonzero;"/>
                <path id="path6678-8" d="M1135.27,198.947C1131.12,192.095 1126.76,185.435 1121.3,179.747C1126.76,174.058 1131.12,167.399 1135.27,160.547C1139.42,167.399 1143.79,174.058 1149.24,179.747C1143.79,185.435 1139.42,192.095 1135.27,198.947Z" style="fill:rgb(212,0,0);fill-rule:nonzero;"/>
                <path id="path19-3-1-9-0" d="M1018.53,13.111L1018.53,10.779L1020.63,10.779L1020.63,6.933L1010.1,6.933L1010.1,4.219L1021.5,-13.286L1023.36,-13.276L1023.36,4.219L1026.58,4.219L1026.58,6.933L1023.36,6.933L1023.29,10.779L1025.06,10.779L1025.06,13.114L1018.53,13.114L1018.53,13.111ZM1020.63,-6.877L1013.4,4.22L1020.63,4.22L1020.63,-6.877Z" style="fill:rgb(212,0,0);fill-rule:nonzero;"/>
                <path id="path19-4-46-7-7" d="M1169.19,187.626L1169.19,189.958L1167.09,189.958L1167.09,193.804L1177.61,193.804L1177.61,196.518L1166.22,214.023L1164.36,214.013L1164.36,196.518L1161.14,196.518L1161.14,193.804L1164.36,193.804L1164.42,189.958L1162.66,189.958L1162.66,187.623L1169.19,187.623L1169.19,187.626ZM1167.09,207.614L1174.32,196.517L1167.09,196.517L1167.09,207.614Z" style="fill:rgb(212,0,0);fill-rule:nonzero;"/>
            </g>
        </g>
    </g>
</svg>
