<?xml version="1.0" encoding="UTF-8" standalone="no"?>
<!DOCTYPE svg PUBLIC "-//W3C//DTD SVG 1.1//EN" "http://www.w3.org/Graphics/SVG/1.1/DTD/svg11.dtd">
<svg width="100%" height="100%" viewBox="0 0 182 253" version="1.1" xmlns="http://www.w3.org/2000/svg" xmlns:xlink="http://www.w3.org/1999/xlink" xml:space="preserve" xmlns:serif="http://www.serif.com/" style="fill-rule:evenodd;clip-rule:evenodd;">
    <g transform="matrix(1,0,0,1,-677,-315)">
        <g transform="matrix(1,0,0,1,-328,1179.11)">
            <g id="_4_hearts" serif:id="4_hearts" transform="matrix(0.995538,0,0,0.996801,-25.5499,-13.1813)">
                <g id="_5D" serif:id="5D" transform="matrix(1,0,0,1,829.193,-1147.42)">
                    <path id="rect9870-7-0" d="M386.929,304.79C386.929,300.06 383.084,296.22 378.349,296.22L216.927,296.22C212.191,296.22 208.346,300.06 208.346,304.79L208.346,537.1C208.346,541.829 212.191,545.669 216.927,545.669L378.349,545.669C383.084,545.669 386.929,541.829 386.929,537.1L386.929,304.79Z" style="fill:white;stroke:black;stroke-width:0.8px;"/>
                </g>
                <g id="path9902-6-7" transform="matrix(1,0,0,1,1127.63,-683.124)">
                    <path d="M-76.318,-112.097C-76.318,-112.099 -78.097,-114.649 -80.498,-117.649C-82.104,-119.657 -83.388,-121.831 -83.508,-123.703C-83.645,-125.843 -82.348,-127.989 -80.002,-128.093C-77.657,-128.197 -76.705,-126.443 -76.318,-124.998C-75.93,-126.443 -74.978,-128.197 -72.633,-128.093C-70.287,-127.989 -68.99,-125.843 -69.127,-123.703C-69.247,-121.831 -70.531,-119.657 -72.137,-117.649C-74.538,-114.649 -76.316,-112.099 -76.318,-112.097Z" style="fill:rgb(212,0,0);fill-rule:nonzero;"/>
                </g>
                <g id="path9904-6-0" transform="matrix(1,0,0,1,1127.63,-683.124)">
                    <path d="M74.718,25.395C74.718,25.397 72.938,27.947 70.538,30.947C68.931,32.955 67.647,35.129 67.528,37.001C67.391,39.14 68.687,41.286 71.034,41.39C73.379,41.494 74.331,39.741 74.718,38.295C75.106,39.741 76.058,41.494 78.403,41.39C80.749,41.286 82.045,39.14 81.908,37.001C81.789,35.129 80.505,32.955 78.899,30.947C76.498,27.947 74.72,25.397 74.718,25.395Z" style="fill:rgb(212,0,0);fill-rule:nonzero;"/>
                </g>
                <g id="path9910-2-6" transform="matrix(1,0,0,1,1127.63,-683.124)">
                    <path d="M-42.213,-103.52C-42.213,-103.525 -45.946,-109.644 -50.982,-116.845C-54.351,-121.663 -57.044,-126.881 -57.294,-131.375C-57.582,-136.509 -54.863,-141.659 -49.941,-141.909C-45.022,-142.159 -43.026,-137.951 -42.213,-134.481C-41.4,-137.951 -39.404,-142.159 -34.485,-141.909C-29.563,-141.659 -26.845,-136.509 -27.132,-131.375C-27.382,-126.881 -30.076,-121.663 -33.444,-116.845C-38.48,-109.644 -42.21,-103.525 -42.213,-103.52Z" style="fill:rgb(212,0,0);fill-rule:nonzero;"/>
                </g>
                <g id="path9916-8-0" transform="matrix(1,0,0,1,1127.63,-683.124)">
                    <path d="M40.613,-103.52C40.613,-103.525 36.88,-109.644 31.844,-116.845C28.476,-121.663 25.782,-126.881 25.532,-131.375C25.245,-136.509 27.963,-141.659 32.885,-141.909C37.804,-142.159 39.8,-137.951 40.613,-134.481C41.426,-137.951 43.422,-142.159 48.341,-141.909C53.263,-141.659 55.982,-136.509 55.694,-131.375C55.444,-126.881 52.751,-121.663 49.382,-116.845C44.346,-109.644 40.616,-103.525 40.613,-103.52Z" style="fill:rgb(212,0,0);fill-rule:nonzero;"/>
                </g>
                <g id="path9930-7-9" transform="matrix(1,0,0,1,1127.63,-683.124)">
                    <path d="M40.613,16.817C40.613,16.822 36.88,22.942 31.844,30.142C28.476,34.961 25.782,40.179 25.532,44.673C25.245,49.807 27.963,54.957 32.885,55.207C37.804,55.456 39.8,51.248 40.613,47.779C41.426,51.248 43.422,55.456 48.341,55.207C53.263,54.957 55.982,49.807 55.694,44.673C55.444,40.179 52.751,34.961 49.382,30.142C44.346,22.942 40.616,16.822 40.613,16.817Z" style="fill:rgb(212,0,0);fill-rule:nonzero;"/>
                </g>
                <g id="path9932-9-8" transform="matrix(1,0,0,1,1127.63,-683.124)">
                    <path d="M-42.213,16.817C-42.213,16.822 -45.946,22.942 -50.982,30.142C-54.351,34.961 -57.044,40.179 -57.294,44.673C-57.582,49.807 -54.863,54.957 -49.941,55.207C-45.022,55.456 -43.026,51.248 -42.213,47.779C-41.4,51.248 -39.404,55.456 -34.485,55.207C-29.563,54.957 -26.845,49.807 -27.132,44.673C-27.382,40.179 -30.076,34.961 -33.444,30.142C-38.48,22.942 -42.21,16.822 -42.213,16.817Z" style="fill:rgb(212,0,0);fill-rule:nonzero;"/>
                </g>
                <path id="path19-3-8-2-9" d="M1051.5,-813.733L1051.5,-816.065L1053.6,-816.065L1053.6,-819.911L1043.08,-819.911L1043.08,-822.625L1054.47,-840.13L1056.33,-840.12L1056.33,-822.625L1059.55,-822.625L1059.55,-819.911L1056.33,-819.911L1056.27,-816.065L1058.03,-816.065L1058.03,-813.73L1051.5,-813.73L1051.5,-813.733ZM1053.6,-833.721L1046.37,-822.624L1053.6,-822.624L1053.6,-833.721Z" style="fill:rgb(212,0,0);fill-rule:nonzero;"/>
                <path id="path19-4-46-0-1-9" d="M1202.16,-639.218L1202.16,-636.886L1200.06,-636.886L1200.06,-633.04L1210.58,-633.04L1210.58,-630.326L1199.19,-612.821L1197.33,-612.831L1197.33,-630.326L1194.11,-630.326L1194.11,-633.04L1197.33,-633.04L1197.39,-636.886L1195.63,-636.886L1195.63,-639.221L1202.16,-639.221L1202.16,-639.218ZM1200.06,-619.23L1207.29,-630.327L1200.06,-630.327L1200.06,-619.23Z" style="fill:rgb(212,0,0);fill-rule:nonzero;"/>
            </g>
        </g>
    </g>
</svg>
