<?xml version="1.0" encoding="UTF-8" standalone="no"?>
<!DOCTYPE svg PUBLIC "-//W3C//DTD SVG 1.1//EN" "http://www.w3.org/Graphics/SVG/1.1/DTD/svg11.dtd">
<svg width="100%" height="100%" viewBox="0 0 182 253" version="1.1" xmlns="http://www.w3.org/2000/svg" xmlns:xlink="http://www.w3.org/1999/xlink" xml:space="preserve" xmlns:serif="http://www.serif.com/" style="fill-rule:evenodd;clip-rule:evenodd;">
    <g transform="matrix(1,0,0,1,-677,-597)">
        <g transform="matrix(1,0,0,1,-328,1179.11)">
            <g id="_4_spades" serif:id="4_spades" transform="matrix(0.995538,0,0,0.996801,-34.3113,-204.289)">
                <g id="g8473-4-9">
                    <path id="rect6852-0-4" d="M1224.92,-368.557C1224.92,-373.287 1221.08,-377.127 1216.34,-377.127L1054.92,-377.127C1050.18,-377.127 1046.34,-373.287 1046.34,-368.557L1046.34,-136.247C1046.34,-131.518 1050.18,-127.678 1054.92,-127.678L1216.34,-127.678C1221.08,-127.678 1224.92,-131.518 1224.92,-136.247L1224.92,-368.557Z" style="fill:white;stroke:black;stroke-width:0.8px;"/>
                    <path id="path6882-1-0" d="M1094.22,-350.971C1086.84,-340.445 1078.94,-334.388 1078.81,-326.176C1078.77,-323.517 1080.2,-318.997 1084.71,-318.132C1087.63,-317.574 1091.65,-319.938 1091.73,-324.742C1091.72,-325.699 1092.75,-325.674 1092.74,-324.363C1092.6,-320.574 1091.4,-316.162 1089.38,-312.571L1099.05,-312.571C1097.04,-316.162 1095.84,-320.574 1095.7,-324.363C1095.69,-325.674 1096.72,-325.699 1096.7,-324.742C1096.79,-319.938 1100.81,-317.574 1103.73,-318.132C1108.23,-318.997 1109.67,-323.517 1109.63,-326.176C1109.5,-334.388 1101.6,-340.445 1094.22,-350.971Z" style="fill-rule:nonzero;"/>
                    <path id="path6884-6-5" d="M1060.11,-337.148C1056.67,-332.762 1052.98,-330.238 1052.91,-326.817C1052.89,-325.709 1053.57,-323.826 1055.67,-323.465C1057.04,-323.232 1058.91,-324.218 1058.95,-326.219C1058.94,-326.618 1059.43,-326.608 1059.42,-326.062C1059.36,-324.483 1058.8,-322.644 1057.86,-321.148L1062.37,-321.148C1061.43,-322.644 1060.87,-324.483 1060.81,-326.062C1060.8,-326.608 1061.28,-326.618 1061.28,-326.219C1061.31,-324.218 1063.19,-323.232 1064.56,-323.465C1066.66,-323.826 1067.33,-325.709 1067.31,-326.817C1067.25,-330.238 1063.56,-332.762 1060.11,-337.148Z" style="fill-rule:nonzero;"/>
                    <path id="path6888-1-5" d="M1211.15,-167.656C1207.7,-172.042 1204.01,-174.566 1203.95,-177.987C1203.93,-179.095 1204.6,-180.978 1206.7,-181.339C1208.07,-181.572 1209.95,-180.586 1209.99,-178.585C1209.98,-178.186 1210.46,-178.197 1210.46,-178.743C1210.39,-180.322 1209.83,-182.16 1208.89,-183.656L1213.41,-183.656C1212.47,-182.16 1211.91,-180.322 1211.84,-178.743C1211.83,-178.197 1212.32,-178.186 1212.31,-178.585C1212.35,-180.586 1214.23,-181.572 1215.59,-181.339C1217.7,-180.978 1218.37,-179.095 1218.35,-177.987C1218.29,-174.566 1214.6,-172.042 1211.15,-167.656Z" style="fill-rule:nonzero;"/>
                    <path id="path6890-4-9" d="M1177.05,-350.971C1169.66,-340.445 1161.77,-334.388 1161.63,-326.176C1161.59,-323.517 1163.03,-318.997 1167.53,-318.132C1170.45,-317.574 1174.48,-319.938 1174.56,-324.742C1174.55,-325.699 1175.57,-325.674 1175.56,-324.363C1175.43,-320.574 1174.23,-316.162 1172.21,-312.571L1181.88,-312.571C1179.86,-316.162 1178.66,-320.574 1178.53,-324.363C1178.52,-325.674 1179.54,-325.699 1179.53,-324.742C1179.61,-319.938 1183.64,-317.574 1186.56,-318.132C1191.06,-318.997 1192.5,-323.517 1192.45,-326.176C1192.32,-334.388 1184.42,-340.445 1177.05,-350.971Z" style="fill-rule:nonzero;"/>
                    <path id="path6902-7-5" d="M1094.22,-153.834C1086.84,-164.359 1078.94,-170.416 1078.81,-178.628C1078.77,-181.287 1080.2,-185.807 1084.71,-186.672C1087.63,-187.231 1091.65,-184.866 1091.73,-180.062C1091.72,-179.106 1092.75,-179.131 1092.74,-180.441C1092.6,-184.23 1091.4,-188.642 1089.38,-192.234L1099.05,-192.234C1097.04,-188.642 1095.84,-184.23 1095.7,-180.441C1095.69,-179.131 1096.72,-179.106 1096.7,-180.062C1096.79,-184.866 1100.81,-187.231 1103.73,-186.672C1108.23,-185.807 1109.67,-181.287 1109.63,-178.628C1109.5,-170.416 1101.6,-164.359 1094.22,-153.834Z" style="fill-rule:nonzero;"/>
                    <path id="path6904-9-7" d="M1177.05,-153.834C1169.66,-164.359 1161.77,-170.416 1161.63,-178.628C1161.59,-181.287 1163.03,-185.807 1167.53,-186.672C1170.45,-187.231 1174.48,-184.866 1174.56,-180.062C1174.55,-179.106 1175.57,-179.131 1175.56,-180.441C1175.43,-184.23 1174.23,-188.642 1172.21,-192.234L1181.88,-192.234C1179.86,-188.642 1178.66,-184.23 1178.53,-180.441C1178.52,-179.131 1179.54,-179.106 1179.53,-180.062C1179.61,-184.866 1183.64,-187.231 1186.56,-186.672C1191.06,-185.807 1192.5,-181.287 1192.45,-178.628C1192.32,-170.416 1184.42,-164.359 1177.05,-153.834Z" style="fill-rule:nonzero;"/>
                    <path id="path19-08-0-9" d="M1060.3,-339.66L1060.3,-341.991L1062.4,-341.991L1062.4,-345.838L1051.88,-345.838L1051.88,-348.552L1063.27,-366.056L1065.13,-366.047L1065.13,-348.552L1068.35,-348.552L1068.35,-345.838L1065.13,-345.838L1065.07,-341.991L1066.83,-341.991L1066.83,-339.656L1060.3,-339.656L1060.3,-339.66ZM1062.4,-359.648L1055.17,-348.551L1062.4,-348.551L1062.4,-359.648Z" style="fill-rule:nonzero;"/>
                    <path id="path19-08-1-1-4" d="M1210.96,-165.145L1210.96,-162.813L1208.86,-162.813L1208.86,-158.966L1219.39,-158.966L1219.39,-156.252L1208,-138.748L1206.13,-138.757L1206.13,-156.253L1202.91,-156.253L1202.91,-158.967L1206.13,-158.967L1206.2,-162.813L1204.43,-162.813L1204.43,-165.148L1210.96,-165.148L1210.96,-165.145ZM1208.86,-145.156L1216.09,-156.253L1208.86,-156.253L1208.86,-145.156Z" style="fill-rule:nonzero;"/>
                </g>
            </g>
        </g>
    </g>
</svg>
