<?xml version="1.0" encoding="UTF-8" standalone="no"?><!DOCTYPE svg PUBLIC "-//W3C//DTD SVG 1.1//EN" "http://www.w3.org/Graphics/SVG/1.1/DTD/svg11.dtd"><svg width="100%" height="100%" viewBox="0 0 178 249" version="1.1" xmlns="http://www.w3.org/2000/svg" xmlns:xlink="http://www.w3.org/1999/xlink" xml:space="preserve" xmlns:serif="http://www.serif.com/" style="fill-rule:evenodd;clip-rule:evenodd;stroke-linejoin:round;stroke-miterlimit:2;"><rect id="_5-clubs" serif:id="5-clubs" x="0" y="0" width="178" height="249" style="fill:none;"/><clipPath id="_clip1"><rect x="0" y="0" width="178" height="249"/></clipPath><g clip-path="url(#_clip1)"><rect x="-710.211" y="0" width="2312.21" height="1245" style="fill:#fff;"/><g id="_5_clubs" serif:id="5_clubs"><path id="path147-0-8-1-6-13-2-8-2-5" d="M130.275,26.46c-7.829,0.17 -11.34,8.985 -5.542,15.83c0.841,0.998 0.928,1.572 -0.612,0.612c-3.904,-2.61 -11.389,-0.894 -11.773,7.087c-0.473,9.833 13.267,12.666 15.846,2.21c0.137,-1.103 1.033,-1.078 0.817,0.488c-0.235,4.25 -1.562,8.223 -3.387,12.097l9.307,0c-1.824,-3.874 -3.151,-7.847 -3.386,-12.097c-0.217,-1.566 0.68,-1.591 0.816,-0.488c2.58,10.456 16.32,7.623 15.846,-2.21c-0.383,-7.981 -7.868,-9.697 -11.772,-7.087c-1.54,0.96 -1.454,0.386 -0.613,-0.612c5.799,-6.845 2.288,-15.66 -5.541,-15.83c0,0 0,0 -0.008,0l0.002,0Z" style="fill-rule:nonzero;"/><path id="path147-0-8-1-6-75-2-83-7-6-4" d="M47.719,26.46c-7.829,0.17 -11.34,8.985 -5.542,15.83c0.841,0.998 0.928,1.572 -0.612,0.612c-3.904,-2.61 -11.389,-0.894 -11.773,7.087c-0.473,9.833 13.267,12.666 15.847,2.21c0.136,-1.103 1.032,-1.078 0.816,0.488c-0.235,4.25 -1.562,8.223 -3.387,12.097l9.307,0c-1.824,-3.874 -3.151,-7.847 -3.386,-12.097c-0.217,-1.566 0.68,-1.591 0.816,-0.488c2.58,10.456 16.32,7.623 15.846,-2.21c-0.383,-7.981 -7.868,-9.697 -11.772,-7.087c-1.54,0.96 -1.454,0.386 -0.613,-0.612c5.799,-6.845 2.288,-15.66 -5.541,-15.83c0,0 0,0 -0.008,0l0.002,0Z" style="fill-rule:nonzero;"/><path id="path147-0-8-1-6-7-5-5-7-6-8-5" d="M130.275,223.204c-7.829,-0.17 -11.34,-8.985 -5.542,-15.83c0.841,-0.998 0.928,-1.571 -0.612,-0.612c-3.904,2.61 -11.389,0.894 -11.773,-7.087c-0.473,-9.833 13.267,-12.666 15.846,-2.21c0.137,1.103 1.033,1.078 0.817,-0.488c-0.235,-4.25 -1.562,-8.223 -3.387,-12.097l9.307,0c-1.824,3.874 -3.151,7.847 -3.386,12.097c-0.217,1.566 0.68,1.591 0.816,0.488c2.58,-10.456 16.32,-7.623 15.846,2.21c-0.383,7.981 -7.868,9.697 -11.772,7.087c-1.54,-0.959 -1.454,-0.386 -0.613,0.612c5.799,6.845 2.288,15.66 -5.541,15.83c0,0 0,0 -0.008,0l0.002,0Z" style="fill-rule:nonzero;"/><path id="path147-0-8-1-6-75-6-1-2-4-9-5" d="M47.719,223.204c-7.829,-0.17 -11.34,-8.985 -5.542,-15.83c0.841,-0.998 0.928,-1.571 -0.612,-0.612c-3.904,2.61 -11.389,0.894 -11.773,-7.087c-0.473,-9.833 13.267,-12.666 15.847,-2.21c0.136,1.103 1.032,1.078 0.816,-0.488c-0.235,-4.25 -1.562,-8.223 -3.387,-12.097l9.307,0c-1.824,3.874 -3.151,7.847 -3.386,12.097c-0.217,1.566 0.68,1.591 0.816,0.488c2.58,-10.456 16.32,-7.623 15.846,2.21c-0.383,7.981 -7.868,9.697 -11.772,7.087c-1.54,-0.959 -1.454,-0.386 -0.613,0.612c5.799,6.845 2.288,15.66 -5.541,15.83c0,0 0,0 -0.008,0l0.002,0Z" style="fill-rule:nonzero;"/><path id="path147-0-8-1-6-1-1-0-5-6-4-0" d="M88.997,105.67c-7.829,0.17 -11.34,8.985 -5.542,15.83c0.841,0.998 0.928,1.571 -0.612,0.612c-3.904,-2.61 -11.389,-0.894 -11.773,7.087c-0.473,9.833 13.267,12.666 15.846,2.21c0.137,-1.103 1.033,-1.078 0.817,0.488c-0.235,4.25 -1.562,8.223 -3.387,12.097l9.307,0c-1.824,-3.874 -3.151,-7.847 -3.386,-12.097c-0.217,-1.566 0.68,-1.591 0.816,-0.488c2.58,10.456 16.32,7.623 15.846,-2.21c-0.383,-7.981 -7.868,-9.697 -11.772,-7.087c-1.54,0.959 -1.454,0.386 -0.613,-0.612c5.799,-6.845 2.288,-15.66 -5.541,-15.83c0,0 0,0 -0.008,0l0.002,0Z" style="fill-rule:nonzero;"/><path id="path147-6-9-8-7-0-5-6-7-4-6" d="M164.273,209.077c3.131,-0.071 4.536,-3.744 2.216,-6.596c-0.336,-0.416 -0.371,-0.655 0.245,-0.255c1.562,1.087 4.556,0.372 4.709,-2.953c0.19,-4.097 -5.306,-5.278 -6.338,-0.921c-0.055,0.46 -0.413,0.449 -0.327,-0.203c0.094,-1.771 0.625,-3.426 1.355,-5.04l-3.723,0c0.73,1.614 1.261,3.269 1.355,5.04c0.087,0.652 -0.272,0.663 -0.327,0.203c-1.031,-4.357 -6.527,-3.176 -6.338,0.921c0.153,3.325 3.147,4.04 4.709,2.953c0.616,-0.4 0.581,-0.161 0.245,0.255c-2.319,2.852 -0.915,6.525 2.216,6.596c0.001,0 0,0 0,0l0.003,0Z" style="fill-rule:nonzero;"/><path id="path147-6-9-8-7-4-5-62-2-3-8" d="M13.728,39.923c-3.132,0.071 -4.536,3.744 -2.217,6.596c0.337,0.416 0.371,0.655 -0.245,0.255c-1.561,-1.087 -4.555,-0.372 -4.709,2.953c-0.189,4.097 5.307,5.278 6.339,0.921c0.054,-0.46 0.413,-0.449 0.326,0.203c-0.094,1.771 -0.625,3.426 -1.355,5.041l3.723,0c-0.729,-1.615 -1.26,-3.27 -1.354,-5.041c-0.087,-0.652 0.272,-0.663 0.326,-0.203c1.032,4.357 6.528,3.176 6.339,-0.921c-0.154,-3.325 -3.148,-4.04 -4.709,-2.953c-0.616,0.4 -0.582,0.161 -0.245,-0.255c2.319,-2.852 0.915,-6.525 -2.217,-6.596c-0.001,0 0,0 0,0l-0.002,0Z" style="fill-rule:nonzero;"/><path id="path21-39-8-1" d="M5.434,30.599l2.579,-0.024c0.492,1.59 1.581,3.206 3.059,3.655c4.177,1 6.864,-1.38 7.749,-4.125c1.073,-3.329 -0.024,-8.004 -2.9,-9.663c-2.382,-1.376 -5.922,-0.215 -7.548,2.728l-1.806,-1.127l0.969,-10.97l11.801,0l0,2.593l-9.563,0l-0.151,4.57c2.058,-1.474 5.222,-1.458 7.279,-0.424c3.897,1.895 5.708,6.205 4.951,11.284c-1.05,5.052 -3.365,7.915 -8.586,8.324c-5.808,0.054 -7.858,-4.019 -7.833,-6.82l0,-0.001Z" style="fill-rule:nonzero;"/><path id="path21-3-4-1-8" d="M172.565,218.401l-2.58,0.025c-0.492,-1.591 -1.581,-3.207 -3.059,-3.655c-4.177,-1.001 -6.864,1.38 -7.748,4.124c-1.074,3.329 0.024,8.004 2.899,9.663c2.382,1.376 5.922,0.216 7.548,-2.728l1.807,1.127l-0.97,10.97l-11.801,0l0,-2.593l9.563,0l0.152,-4.57c-2.059,1.474 -5.223,1.459 -7.28,0.425c-3.897,-1.896 -5.708,-6.206 -4.951,-11.285c1.05,-5.052 3.365,-7.915 8.586,-8.323c5.808,-0.054 7.858,4.019 7.834,6.82l0,0Z" style="fill-rule:nonzero;"/></g></g></svg>