<?xml version="1.0" encoding="UTF-8" standalone="no"?><!DOCTYPE svg PUBLIC "-//W3C//DTD SVG 1.1//EN" "http://www.w3.org/Graphics/SVG/1.1/DTD/svg11.dtd"><svg width="100%" height="100%" viewBox="0 0 178 249" version="1.1" xmlns="http://www.w3.org/2000/svg" xmlns:xlink="http://www.w3.org/1999/xlink" xml:space="preserve" xmlns:serif="http://www.serif.com/" style="fill-rule:evenodd;clip-rule:evenodd;stroke-linejoin:round;stroke-miterlimit:2;"><rect id="_5-diamonds" serif:id="5-diamonds" x="0" y="0" width="178" height="249" style="fill:none;"/><clipPath id="_clip1"><rect x="0" y="0" width="178" height="249"/></clipPath><g clip-path="url(#_clip1)"><rect x="-710.211" y="-747" width="2312.21" height="1245" style="fill:#fff;"/><g id="_5_diamonds" serif:id="5_diamonds"><path id="path6722-9" d="M13.729,55.891c-1.723,-2.849 -3.536,-5.618 -5.802,-7.984c2.266,-2.365 4.079,-5.135 5.802,-7.984c1.723,2.849 3.536,5.619 5.801,7.984c-2.265,2.366 -4.078,5.135 -5.801,7.984Z" style="fill:#d40000;fill-rule:nonzero;"/><path id="path6724-6" d="M130.278,64.451c-4.135,-6.838 -8.486,-13.484 -13.923,-19.161c5.437,-5.678 9.788,-12.324 13.923,-19.162c4.135,6.838 8.486,13.484 13.923,19.162c-5.437,5.677 -9.788,12.323 -13.923,19.161Z" style="fill:#d40000;fill-rule:nonzero;"/><path id="path6726-3" d="M164.272,209.077c-1.723,-2.849 -3.536,-5.618 -5.802,-7.984c2.266,-2.366 4.079,-5.135 5.802,-7.984c1.723,2.849 3.535,5.618 5.801,7.984c-2.266,2.366 -4.078,5.135 -5.801,7.984Z" style="fill:#d40000;fill-rule:nonzero;"/><path id="path6728-7" d="M47.722,64.451c-4.135,-6.838 -8.486,-13.484 -13.923,-19.161c5.437,-5.678 9.788,-12.324 13.923,-19.162c4.135,6.838 8.486,13.484 13.923,19.162c-5.437,5.677 -9.788,12.323 -13.923,19.161Z" style="fill:#d40000;fill-rule:nonzero;"/><path id="path6736-0" d="M89,143.662c-4.135,-6.838 -8.486,-13.485 -13.923,-19.162c5.437,-5.677 9.788,-12.323 13.923,-19.162c4.135,6.839 8.486,13.485 13.923,19.162c-5.437,5.677 -9.788,12.324 -13.923,19.162Z" style="fill:#d40000;fill-rule:nonzero;"/><path id="path6744-9" d="M47.722,222.876c-4.135,-6.838 -8.486,-13.484 -13.923,-19.162c5.437,-5.677 9.788,-12.323 13.923,-19.161c4.135,6.838 8.486,13.484 13.923,19.161c-5.437,5.678 -9.788,12.324 -13.923,19.162Z" style="fill:#d40000;fill-rule:nonzero;"/><path id="path6746-2" d="M130.278,222.882c-4.135,-6.838 -8.486,-13.485 -13.923,-19.162c5.437,-5.677 9.788,-12.324 13.923,-19.162c4.135,6.838 8.486,13.485 13.923,19.162c-5.437,5.677 -9.788,12.324 -13.923,19.162Z" style="fill:#d40000;fill-rule:nonzero;"/><path id="path21-9-8-2-7" d="M5.434,30.599l2.579,-0.025c0.492,1.59 1.581,3.207 3.059,3.655c4.177,1.001 6.864,-1.38 7.749,-4.125c1.073,-3.329 -0.024,-8.003 -2.9,-9.662c-2.382,-1.376 -5.922,-0.216 -7.548,2.727l-1.806,-1.127l0.969,-10.97l11.801,0l0,2.593l-9.563,0l-0.151,4.57c2.058,-1.474 5.222,-1.458 7.279,-0.424c3.897,1.896 5.708,6.205 4.951,11.285c-1.05,5.052 -3.365,7.914 -8.586,8.323c-5.808,0.054 -7.858,-4.019 -7.833,-6.82l0,0Z" style="fill:#d40000;fill-rule:nonzero;"/><path id="path21-3-0-8-6" d="M172.564,218.401l-2.579,0.025c-0.492,-1.59 -1.581,-3.207 -3.059,-3.655c-4.177,-1.001 -6.864,1.38 -7.749,4.125c-1.073,3.329 0.024,8.003 2.9,9.663c2.382,1.376 5.922,0.215 7.548,-2.728l1.807,1.127l-0.97,10.97l-11.801,0l0,-2.593l9.563,0l0.152,-4.57c-2.059,1.474 -5.223,1.458 -7.28,0.424c-3.897,-1.895 -5.708,-6.205 -4.951,-11.284c1.05,-5.053 3.365,-7.915 8.586,-8.324c5.808,-0.054 7.858,4.019 7.833,6.82l0,0Z" style="fill:#d40000;fill-rule:nonzero;"/></g></g></svg>