<?xml version="1.0" encoding="UTF-8" standalone="no"?><!DOCTYPE svg PUBLIC "-//W3C//DTD SVG 1.1//EN" "http://www.w3.org/Graphics/SVG/1.1/DTD/svg11.dtd"><svg width="100%" height="100%" viewBox="0 0 178 249" version="1.1" xmlns="http://www.w3.org/2000/svg" xmlns:xlink="http://www.w3.org/1999/xlink" xml:space="preserve" xmlns:serif="http://www.serif.com/" style="fill-rule:evenodd;clip-rule:evenodd;stroke-linejoin:round;stroke-miterlimit:2;"><rect id="_5-hearts" serif:id="5-hearts" x="0" y="0" width="178" height="249" style="fill:none;"/><clipPath id="_clip1"><rect x="0" y="0" width="178" height="249"/></clipPath><g clip-path="url(#_clip1)"><rect x="-710.211" y="-249" width="2312.21" height="1245" style="fill:#fff;"/><g id="_5_hearts" serif:id="5_hearts"><path id="path9970-5-6" d="M13.729,55.892c0,0 -1.774,-2.547 -4.167,-5.541c-1.601,-2.004 -2.881,-4.174 -3,-6.043c-0.136,-2.135 1.156,-4.276 3.494,-4.38c2.338,-0.104 3.287,1.646 3.673,3.089c0.386,-1.443 1.335,-3.193 3.672,-3.089c2.339,0.104 3.631,2.245 3.495,4.38c-0.119,1.869 -1.399,4.039 -3,6.043c-2.393,2.994 -4.167,5.541 -4.167,5.541Z" style="fill:#d40000;fill-rule:nonzero;"/><path id="path9972-9-9" d="M164.272,193.109c0,0 -1.774,2.546 -4.167,5.541c-1.601,2.003 -2.881,4.173 -3,6.042c-0.136,2.135 1.155,4.276 3.494,4.38c2.338,0.104 3.286,-1.646 3.673,-3.088c0.386,1.442 1.335,3.192 3.672,3.088c2.339,-0.104 3.631,-2.245 3.494,-4.38c-0.119,-1.869 -1.398,-4.039 -2.999,-6.042c-2.393,-2.995 -4.167,-5.541 -4.167,-5.541Z" style="fill:#d40000;fill-rule:nonzero;"/><path id="path9978-0-4" d="M47.722,64.452c0,0 -3.721,-6.112 -8.74,-13.299c-3.358,-4.809 -6.042,-10.016 -6.292,-14.501c-0.286,-5.124 2.423,-10.264 7.329,-10.513c4.903,-0.249 6.893,3.95 7.703,7.413c0.81,-3.463 2.8,-7.662 7.703,-7.413c4.906,0.249 7.615,5.389 7.329,10.513c-0.25,4.485 -2.934,9.692 -6.292,14.501c-5.019,7.187 -8.74,13.299 -8.74,13.299Z" style="fill:#d40000;fill-rule:nonzero;"/><path id="path9984-9-5" d="M130.278,64.452c0,0 -3.721,-6.112 -8.74,-13.299c-3.358,-4.809 -6.042,-10.016 -6.292,-14.501c-0.286,-5.124 2.423,-10.264 7.329,-10.513c4.903,-0.249 6.893,3.95 7.703,7.413c0.81,-3.463 2.8,-7.662 7.703,-7.413c4.906,0.249 7.615,5.389 7.329,10.513c-0.25,4.485 -2.934,9.692 -6.292,14.501c-5.019,7.187 -8.74,13.299 -8.74,13.299Z" style="fill:#d40000;fill-rule:nonzero;"/><path id="path9986-7-3" d="M89,143.662c0,0 -3.721,-6.112 -8.74,-13.299c-3.358,-4.809 -6.042,-10.016 -6.292,-14.501c-0.286,-5.124 2.423,-10.264 7.329,-10.513c4.903,-0.249 6.893,3.95 7.703,7.413c0.81,-3.463 2.8,-7.662 7.703,-7.413c4.906,0.249 7.615,5.389 7.329,10.513c-0.25,4.485 -2.934,9.692 -6.292,14.501c-5.019,7.187 -8.74,13.299 -8.74,13.299Z" style="fill:#d40000;fill-rule:nonzero;"/><path id="path9998-0-9" d="M130.278,184.548c0,0 -3.721,6.112 -8.74,13.299c-3.358,4.809 -6.042,10.016 -6.292,14.501c-0.286,5.124 2.423,10.264 7.329,10.513c4.903,0.249 6.893,-3.95 7.703,-7.413c0.81,3.463 2.8,7.662 7.703,7.413c4.906,-0.249 7.615,-5.389 7.329,-10.513c-0.25,-4.485 -2.934,-9.692 -6.292,-14.501c-5.019,-7.187 -8.74,-13.299 -8.74,-13.299Z" style="fill:#d40000;fill-rule:nonzero;"/><path id="path10000-8-2" d="M47.722,184.548c0,0 -3.721,6.112 -8.74,13.299c-3.358,4.809 -6.042,10.016 -6.292,14.501c-0.286,5.124 2.423,10.264 7.329,10.513c4.903,0.249 6.893,-3.95 7.703,-7.413c0.81,3.463 2.8,7.662 7.703,7.413c4.906,-0.249 7.615,-5.389 7.329,-10.513c-0.25,-4.485 -2.934,-9.692 -6.292,-14.501c-5.019,-7.187 -8.74,-13.299 -8.74,-13.299Z" style="fill:#d40000;fill-rule:nonzero;"/><path id="path21-9-5-1-8" d="M5.434,30.599l2.579,-0.025c0.492,1.591 1.581,3.207 3.059,3.656c4.177,1 6.864,-1.381 7.749,-4.125c1.073,-3.329 -0.024,-8.004 -2.9,-9.663c-2.382,-1.376 -5.922,-0.215 -7.548,2.728l-1.806,-1.127l0.969,-10.97l11.801,0l0,2.593l-9.563,0l-0.151,4.57c2.058,-1.474 5.222,-1.459 7.279,-0.425c3.897,1.896 5.708,6.206 4.951,11.285c-1.05,5.052 -3.365,7.915 -8.586,8.324c-5.808,0.053 -7.858,-4.019 -7.833,-6.821l0,0Z" style="fill:#d40000;fill-rule:nonzero;"/><path id="path21-3-0-6-3-8" d="M172.565,218.401l-2.58,0.025c-0.492,-1.591 -1.581,-3.207 -3.059,-3.655c-4.177,-1.001 -6.864,1.38 -7.748,4.124c-1.074,3.329 0.023,8.004 2.899,9.663c2.382,1.376 5.922,0.216 7.548,-2.728l1.807,1.127l-0.97,10.97l-11.801,0l0,-2.593l9.563,0l0.152,-4.57c-2.059,1.474 -5.223,1.459 -7.28,0.425c-3.897,-1.896 -5.707,-6.206 -4.951,-11.285c1.05,-5.052 3.365,-7.915 8.586,-8.323c5.808,-0.054 7.858,4.019 7.834,6.82l0,0Z" style="fill:#d40000;fill-rule:nonzero;"/></g></g></svg>