<?xml version="1.0" encoding="UTF-8" standalone="no"?><!DOCTYPE svg PUBLIC "-//W3C//DTD SVG 1.1//EN" "http://www.w3.org/Graphics/SVG/1.1/DTD/svg11.dtd"><svg width="100%" height="100%" viewBox="0 0 178 249" version="1.1" xmlns="http://www.w3.org/2000/svg" xmlns:xlink="http://www.w3.org/1999/xlink" xml:space="preserve" xmlns:serif="http://www.serif.com/" style="fill-rule:evenodd;clip-rule:evenodd;stroke-linejoin:round;stroke-miterlimit:2;"><rect id="_5-spades" serif:id="5-spades" x="0" y="0" width="178" height="249" style="fill:none;"/><clipPath id="_clip1"><rect x="0" y="0" width="178" height="249"/></clipPath><g clip-path="url(#_clip1)"><rect x="-710.211" y="-498" width="2312.21" height="1245" style="fill:#fff;"/><g id="_5_spades" serif:id="5_spades"><g id="g8459-0-4"><path id="path6950-9-9" d="M130.278,222.872c7.357,-10.505 15.228,-16.55 15.359,-24.746c0.044,-2.653 -1.389,-7.164 -5.878,-8.027c-2.912,-0.558 -6.921,1.802 -7.005,6.597c0.013,0.954 -1.009,0.929 -0.999,-0.379c0.137,-3.781 1.332,-8.185 3.342,-11.769l-9.638,0c2.01,3.584 3.205,7.988 3.343,11.769c0.009,1.308 -1.013,1.333 -1,0.379c-0.084,-4.795 -4.093,-7.155 -7.005,-6.597c-4.489,0.863 -5.922,5.374 -5.878,8.027c0.131,8.196 8.002,14.241 15.359,24.746Z" style="fill-rule:nonzero;"/><path id="path6952-6-0" d="M164.271,209.077c3.437,-4.377 7.115,-6.896 7.176,-10.311c0.021,-1.106 -0.649,-2.985 -2.746,-3.345c-1.361,-0.232 -3.234,0.751 -3.273,2.749c0.008,0.398 -0.471,0.387 -0.467,-0.158c0.064,-1.576 0.623,-3.41 1.562,-4.904l-4.503,0c0.939,1.494 1.497,3.328 1.561,4.904c0.008,0.545 -0.473,0.556 -0.467,0.158c-0.039,-1.998 -1.912,-2.981 -3.273,-2.749c-2.097,0.36 -2.766,2.239 -2.746,3.345c0.062,3.415 3.739,5.934 7.176,10.311Z" style="fill-rule:nonzero;"/><path id="path6956-5-0" d="M13.728,39.923c3.438,4.377 7.115,6.896 7.176,10.311c0.021,1.106 -0.649,2.985 -2.746,3.345c-1.36,0.232 -3.234,-0.751 -3.273,-2.749c0.008,-0.398 -0.471,-0.387 -0.467,0.158c0.064,1.575 0.623,3.41 1.562,4.903l-4.503,0c0.939,-1.493 1.498,-3.328 1.562,-4.903c0.008,-0.545 -0.474,-0.556 -0.468,-0.158c-0.039,1.998 -1.912,2.981 -3.273,2.749c-2.097,-0.36 -2.766,-2.239 -2.746,-3.345c0.062,-3.415 3.739,-5.934 7.176,-10.311Z" style="fill-rule:nonzero;"/><path id="path6958-4-1" d="M47.722,222.872c7.357,-10.505 15.228,-16.55 15.359,-24.746c0.044,-2.653 -1.389,-7.164 -5.877,-8.027c-2.913,-0.558 -6.922,1.802 -7.006,6.597c0.013,0.954 -1.009,0.929 -0.999,-0.379c0.137,-3.781 1.332,-8.185 3.342,-11.769l-9.638,0c2.01,3.584 3.205,7.988 3.343,11.769c0.009,1.308 -1.013,1.333 -1,0.379c-0.084,-4.795 -4.093,-7.155 -7.005,-6.597c-4.489,0.863 -5.922,5.374 -5.878,8.027c0.131,8.196 8.002,14.241 15.359,24.746Z" style="fill-rule:nonzero;"/><path id="path6970-5-5" d="M130.278,26.128c7.357,10.505 15.228,16.55 15.359,24.746c0.044,2.653 -1.389,7.164 -5.878,8.027c-2.912,0.558 -6.921,-1.802 -7.005,-6.597c0.013,-0.954 -1.009,-0.929 -0.999,0.379c0.137,3.781 1.332,8.185 3.342,11.769l-9.638,0c2.01,-3.584 3.205,-7.988 3.343,-11.769c0.009,-1.308 -1.013,-1.333 -1,-0.379c-0.084,4.795 -4.093,7.155 -7.005,6.597c-4.489,-0.863 -5.922,-5.374 -5.878,-8.027c0.131,-8.196 8.002,-14.241 15.359,-24.746Z" style="fill-rule:nonzero;"/><path id="path6972-5-8" d="M47.722,26.128c7.357,10.505 15.228,16.55 15.359,24.746c0.044,2.653 -1.389,7.164 -5.877,8.027c-2.913,0.558 -6.922,-1.802 -7.006,-6.597c0.013,-0.954 -1.009,-0.929 -0.999,0.379c0.137,3.781 1.332,8.185 3.342,11.769l-9.638,0c2.01,-3.584 3.205,-7.988 3.343,-11.769c0.009,-1.308 -1.013,-1.333 -1,-0.379c-0.084,4.795 -4.093,7.155 -7.005,6.597c-4.489,-0.863 -5.922,-5.374 -5.878,-8.027c0.131,-8.196 8.002,-14.241 15.359,-24.746Z" style="fill-rule:nonzero;"/><path id="path6980-6-3" d="M89,143.662c7.357,-10.505 15.228,-16.55 15.359,-24.745c0.044,-2.654 -1.389,-7.165 -5.877,-8.028c-2.913,-0.558 -6.922,1.802 -7.006,6.597c0.013,0.954 -1.009,0.929 -0.999,-0.379c0.137,-3.781 1.332,-8.185 3.342,-11.769l-9.638,0c2.01,3.584 3.205,7.988 3.343,11.769c0.009,1.308 -1.013,1.333 -1,0.379c-0.084,-4.795 -4.093,-7.155 -7.005,-6.597c-4.489,0.863 -5.922,5.374 -5.878,8.028c0.131,8.195 8.002,14.24 15.359,24.745Z" style="fill-rule:nonzero;"/><path id="path21-4-5-5" d="M172.566,218.401l-2.579,0.025c-0.492,-1.591 -1.581,-3.207 -3.059,-3.656c-4.177,-1 -6.864,1.38 -7.749,4.125c-1.073,3.329 0.024,8.004 2.9,9.663c2.382,1.376 5.922,0.215 7.548,-2.728l1.806,1.127l-0.969,10.97l-11.801,0l0,-2.593l9.563,0l0.151,-4.57c-2.058,1.474 -5.222,1.459 -7.279,0.425c-3.897,-1.896 -5.708,-6.206 -4.951,-11.285c1.05,-5.052 3.365,-7.915 8.586,-8.324c5.808,-0.053 7.858,4.02 7.833,6.821l0,0Z" style="fill-rule:nonzero;"/><path id="path21-4-9-2-8" d="M5.436,30.599l2.579,-0.025c0.492,1.591 1.581,3.207 3.059,3.656c4.177,1 6.864,-1.381 7.749,-4.125c1.073,-3.329 -0.024,-8.004 -2.9,-9.663c-2.382,-1.376 -5.922,-0.216 -7.548,2.728l-1.807,-1.127l0.97,-10.97l11.801,0l0,2.593l-9.563,0l-0.152,4.57c2.059,-1.474 5.223,-1.459 7.28,-0.425c3.897,1.896 5.708,6.206 4.951,11.285c-1.05,5.052 -3.365,7.915 -8.586,8.323c-5.808,0.054 -7.858,-4.019 -7.833,-6.82l0,0Z" style="fill-rule:nonzero;"/></g></g></g></svg>