<?xml version="1.0" encoding="UTF-8" standalone="no"?>
<!DOCTYPE svg PUBLIC "-//W3C//DTD SVG 1.1//EN" "http://www.w3.org/Graphics/SVG/1.1/DTD/svg11.dtd">
<svg width="100%" height="100%" viewBox="0 0 182 253" version="1.1" xmlns="http://www.w3.org/2000/svg" xmlns:xlink="http://www.w3.org/1999/xlink" xml:space="preserve" xmlns:serif="http://www.serif.com/" style="fill-rule:evenodd;clip-rule:evenodd;">
    <g transform="matrix(1,0,0,1,-888,-34)">
        <g transform="matrix(1,0,0,1,-328,1179.11)">
            <g id="_5_clubs" serif:id="5_clubs" transform="matrix(1,0,0,1,1.59543,-272.412)">
                <g id="_5D" serif:id="5D" transform="matrix(0.995538,0,0,0.996801,1008.93,-1165.97)">
                    <path id="rect6355-6-85-3-7-9-4" d="M386.929,304.79C386.929,300.06 383.084,296.22 378.349,296.22L216.927,296.22C212.191,296.22 208.346,300.06 208.346,304.79L208.346,537.1C208.346,541.829 212.191,545.669 216.927,545.669L378.349,545.669C383.084,545.669 386.929,541.829 386.929,537.1L386.929,304.79Z" style="fill:white;stroke:black;stroke-width:0.8px;"/>
                </g>
                <path id="path147-0-8-1-6-13-2-8-2-5" d="M1346.46,-844.292C1338.64,-844.122 1335.14,-835.318 1340.93,-828.481C1341.77,-827.484 1341.86,-826.912 1340.32,-827.87C1336.42,-830.477 1328.94,-828.763 1328.56,-820.792C1328.09,-810.97 1341.81,-808.14 1344.39,-818.584C1344.52,-819.686 1345.42,-819.661 1345.2,-818.097C1344.97,-813.852 1343.64,-809.884 1341.82,-806.015L1351.12,-806.015C1349.29,-809.884 1347.97,-813.852 1347.73,-818.097C1347.52,-819.661 1348.41,-819.686 1348.55,-818.584C1351.13,-808.14 1364.85,-810.97 1364.38,-820.792C1363.99,-828.763 1356.52,-830.477 1352.62,-827.87C1351.08,-826.912 1351.17,-827.484 1352.01,-828.481C1357.8,-835.318 1354.29,-844.122 1346.47,-844.292C1346.47,-844.292 1346.47,-844.292 1346.46,-844.292L1346.46,-844.292Z" style="fill-rule:nonzero;"/>
                <path id="path147-0-8-1-6-75-2-83-7-6-4" d="M1264.01,-844.292C1256.19,-844.122 1252.68,-835.318 1258.47,-828.481C1259.31,-827.484 1259.4,-826.912 1257.86,-827.87C1253.96,-830.477 1246.49,-828.763 1246.1,-820.792C1245.63,-810.97 1259.35,-808.14 1261.93,-818.584C1262.07,-819.686 1262.96,-819.661 1262.75,-818.097C1262.51,-813.852 1261.19,-809.884 1259.36,-806.015L1268.66,-806.015C1266.84,-809.884 1265.51,-813.852 1265.28,-818.097C1265.06,-819.661 1265.96,-819.686 1266.09,-818.584C1268.67,-808.14 1282.39,-810.97 1281.92,-820.792C1281.54,-828.763 1274.06,-830.477 1270.16,-827.87C1268.62,-826.912 1268.71,-827.484 1269.55,-828.481C1275.34,-835.318 1271.83,-844.122 1264.02,-844.292C1264.02,-844.292 1264.02,-844.292 1264.01,-844.292L1264.01,-844.292Z" style="fill-rule:nonzero;"/>
                <path id="path147-0-8-1-6-7-5-5-7-6-8-5" d="M1346.46,-647.785C1338.64,-647.955 1335.14,-656.759 1340.93,-663.596C1341.77,-664.593 1341.86,-665.166 1340.32,-664.208C1336.42,-661.6 1328.94,-663.314 1328.56,-671.285C1328.09,-681.107 1341.81,-683.937 1344.39,-673.493C1344.52,-672.391 1345.42,-672.416 1345.2,-673.981C1344.97,-678.226 1343.64,-682.193 1341.82,-686.063L1351.12,-686.063C1349.29,-682.193 1347.97,-678.226 1347.73,-673.981C1347.52,-672.416 1348.41,-672.391 1348.55,-673.493C1351.13,-683.937 1364.85,-681.107 1364.38,-671.285C1363.99,-663.314 1356.52,-661.6 1352.62,-664.208C1351.08,-665.166 1351.17,-664.593 1352.01,-663.596C1357.8,-656.759 1354.29,-647.955 1346.47,-647.785C1346.47,-647.785 1346.47,-647.785 1346.46,-647.785L1346.46,-647.785Z" style="fill-rule:nonzero;"/>
                <path id="path147-0-8-1-6-75-6-1-2-4-9-5" d="M1264.01,-647.785C1256.19,-647.955 1252.68,-656.759 1258.47,-663.596C1259.31,-664.593 1259.4,-665.166 1257.86,-664.208C1253.96,-661.6 1246.49,-663.314 1246.1,-671.285C1245.63,-681.107 1259.35,-683.937 1261.93,-673.493C1262.07,-672.391 1262.96,-672.416 1262.75,-673.981C1262.51,-678.226 1261.19,-682.193 1259.36,-686.063L1268.66,-686.063C1266.84,-682.193 1265.51,-678.226 1265.28,-673.981C1265.06,-672.416 1265.96,-672.391 1266.09,-673.493C1268.67,-683.937 1282.39,-681.107 1281.92,-671.285C1281.54,-663.314 1274.06,-661.6 1270.16,-664.208C1268.62,-665.166 1268.71,-664.593 1269.55,-663.596C1275.34,-656.759 1271.83,-647.955 1264.02,-647.785C1264.02,-647.785 1264.02,-647.785 1264.01,-647.785L1264.01,-647.785Z" style="fill-rule:nonzero;"/>
                <path id="path147-0-8-1-6-1-1-0-5-6-4-0" d="M1305.24,-765.177C1297.42,-765.007 1293.91,-756.203 1299.7,-749.367C1300.54,-748.369 1300.63,-747.797 1299.09,-748.755C1295.19,-751.362 1287.71,-749.648 1287.33,-741.677C1286.86,-731.856 1300.58,-729.026 1303.16,-739.469C1303.3,-740.571 1304.19,-740.546 1303.98,-738.982C1303.74,-734.737 1302.41,-730.769 1300.59,-726.9L1309.89,-726.9C1308.07,-730.769 1306.74,-734.737 1306.51,-738.982C1306.29,-740.546 1307.18,-740.571 1307.32,-739.469C1309.9,-729.026 1323.62,-731.856 1323.15,-741.677C1322.77,-749.648 1315.29,-751.362 1311.39,-748.755C1309.85,-747.797 1309.94,-748.369 1310.78,-749.367C1316.57,-756.203 1313.06,-765.007 1305.24,-765.177C1305.24,-765.177 1305.24,-765.177 1305.24,-765.177L1305.24,-765.177Z" style="fill-rule:nonzero;"/>
                <path id="path147-6-9-8-7-0-5-6-7-4-6" d="M1380.42,-661.895C1383.55,-661.966 1384.95,-665.634 1382.64,-668.483C1382.3,-668.899 1382.27,-669.137 1382.88,-668.738C1384.44,-667.652 1387.43,-668.366 1387.58,-671.687C1387.77,-675.779 1382.28,-676.959 1381.25,-672.607C1381.2,-672.148 1380.84,-672.158 1380.93,-672.81C1381.02,-674.579 1381.55,-676.232 1382.28,-677.844L1378.56,-677.844C1379.29,-676.232 1379.82,-674.579 1379.91,-672.81C1380,-672.158 1379.64,-672.148 1379.59,-672.607C1378.56,-676.959 1373.07,-675.779 1373.26,-671.687C1373.41,-668.366 1376.4,-667.652 1377.96,-668.738C1378.58,-669.137 1378.54,-668.899 1378.21,-668.483C1375.89,-665.634 1377.29,-661.966 1380.42,-661.895C1380.42,-661.895 1380.42,-661.895 1380.42,-661.895L1380.42,-661.895Z" style="fill-rule:nonzero;"/>
                <path id="path147-6-9-8-7-4-5-62-2-3-8" d="M1230.06,-830.845C1226.93,-830.775 1225.53,-827.106 1227.84,-824.257C1228.18,-823.842 1228.21,-823.603 1227.6,-824.002C1226.04,-825.089 1223.05,-824.375 1222.9,-821.053C1222.71,-816.961 1228.2,-815.782 1229.23,-820.133C1229.28,-820.592 1229.64,-820.582 1229.55,-819.93C1229.46,-818.162 1228.93,-816.508 1228.2,-814.896L1231.92,-814.896C1231.19,-816.508 1230.66,-818.162 1230.57,-819.93C1230.48,-820.582 1230.84,-820.592 1230.89,-820.133C1231.92,-815.782 1237.41,-816.961 1237.22,-821.053C1237.07,-824.375 1234.08,-825.089 1232.52,-824.002C1231.9,-823.603 1231.94,-823.842 1232.27,-824.257C1234.59,-827.106 1233.19,-830.774 1230.06,-830.845C1230.06,-830.845 1230.06,-830.845 1230.06,-830.845L1230.06,-830.845Z" style="fill-rule:nonzero;"/>
                <path id="path21-39-8-1" d="M1221.77,-840.158L1224.35,-840.183C1224.84,-838.594 1225.93,-836.98 1227.41,-836.532C1231.58,-835.532 1234.26,-837.91 1235.14,-840.651C1236.22,-843.976 1235.12,-848.646 1232.25,-850.303C1229.87,-851.677 1226.33,-850.518 1224.71,-847.578L1222.91,-848.704L1223.87,-859.661L1235.66,-859.661L1235.66,-857.071L1226.11,-857.071L1225.96,-852.506C1228.01,-853.979 1231.17,-853.963 1233.23,-852.93C1237.12,-851.037 1238.93,-846.732 1238.17,-841.659C1237.12,-836.613 1234.81,-833.754 1229.6,-833.346C1223.8,-833.292 1221.75,-837.36 1221.77,-840.158L1221.77,-840.158Z" style="fill-rule:nonzero;"/>
                <path id="path21-3-4-1-8" d="M1388.7,-652.582L1386.13,-652.557C1385.64,-654.146 1384.55,-655.76 1383.07,-656.208C1378.9,-657.208 1376.22,-654.83 1375.33,-652.089C1374.26,-648.764 1375.36,-644.095 1378.23,-642.437C1380.61,-641.063 1384.14,-642.222 1385.77,-645.162L1387.57,-644.036L1386.6,-633.079L1374.82,-633.079L1374.82,-635.669L1384.37,-635.669L1384.52,-640.234C1382.46,-638.761 1379.3,-638.777 1377.25,-639.81C1373.36,-641.703 1371.55,-646.008 1372.3,-651.081C1373.35,-656.127 1375.66,-658.986 1380.88,-659.394C1386.68,-659.448 1388.73,-655.38 1388.7,-652.583L1388.7,-652.582Z" style="fill-rule:nonzero;"/>
            </g>
        </g>
    </g>
</svg>
