<?xml version="1.0" encoding="UTF-8" standalone="no"?>
<!DOCTYPE svg PUBLIC "-//W3C//DTD SVG 1.1//EN" "http://www.w3.org/Graphics/SVG/1.1/DTD/svg11.dtd">
<svg width="100%" height="100%" viewBox="0 0 182 253" version="1.1" xmlns="http://www.w3.org/2000/svg" xmlns:xlink="http://www.w3.org/1999/xlink" xml:space="preserve" xmlns:serif="http://www.serif.com/" style="fill-rule:evenodd;clip-rule:evenodd;">
    <g transform="matrix(1,0,0,1,-888,-878)">
        <g transform="matrix(1,0,0,1,-328,1179.11)">
            <g id="_5_diamonds" serif:id="5_diamonds" transform="matrix(0.995535,0,0,0.996803,7.42343,-274.482)">
                <path id="rect6690-8" d="M1394.53,-15.786C1394.53,-20.516 1390.69,-24.356 1385.95,-24.356L1224.53,-24.356C1219.79,-24.356 1215.95,-20.516 1215.95,-15.786L1215.95,216.523C1215.95,221.253 1219.79,225.093 1224.53,225.093L1385.95,225.093C1390.69,225.093 1394.53,221.253 1394.53,216.523L1394.53,-15.786Z" style="fill:white;stroke:black;stroke-width:0.8px;"/>
                <path id="path6722-9" d="M1229.72,31.623C1227.99,28.768 1226.17,25.993 1223.9,23.623C1226.17,21.252 1227.99,18.478 1229.72,15.623C1231.45,18.478 1233.27,21.252 1235.54,23.623C1233.27,25.993 1231.45,28.768 1229.72,31.623Z" style="fill:rgb(212,0,0);fill-rule:nonzero;"/>
                <path id="path6724-6" d="M1346.65,40.2C1342.5,33.348 1338.14,26.689 1332.68,21C1338.14,15.311 1342.5,8.652 1346.65,1.8C1350.8,8.652 1355.17,15.311 1360.62,21C1355.17,26.689 1350.8,33.348 1346.65,40.2Z" style="fill:rgb(212,0,0);fill-rule:nonzero;"/>
                <path id="path6726-3" d="M1380.76,185.114C1379.03,182.26 1377.21,179.485 1374.94,177.114C1377.21,174.744 1379.03,171.969 1380.76,169.114C1382.49,171.969 1384.31,174.744 1386.58,177.114C1384.31,179.485 1382.49,182.26 1380.76,185.114Z" style="fill:rgb(212,0,0);fill-rule:nonzero;"/>
                <path id="path6728-7" d="M1263.83,40.2C1259.68,33.348 1255.31,26.689 1249.86,21C1255.31,15.311 1259.68,8.652 1263.83,1.8C1267.98,8.652 1272.34,15.311 1277.8,21C1272.34,26.689 1267.98,33.348 1263.83,40.2Z" style="fill:rgb(212,0,0);fill-rule:nonzero;"/>
                <path id="path6736-0" d="M1305.24,119.568C1301.09,112.717 1296.73,106.057 1291.27,100.368C1296.73,94.68 1301.09,88.02 1305.24,81.168C1309.39,88.02 1313.75,94.68 1319.21,100.368C1313.75,106.057 1309.39,112.717 1305.24,119.568Z" style="fill:rgb(212,0,0);fill-rule:nonzero;"/>
                <path id="path6744-9" d="M1263.83,198.941C1259.68,192.089 1255.31,185.43 1249.86,179.741C1255.31,174.052 1259.68,167.393 1263.83,160.541C1267.98,167.393 1272.34,174.052 1277.8,179.741C1272.34,185.43 1267.98,192.089 1263.83,198.941Z" style="fill:rgb(212,0,0);fill-rule:nonzero;"/>
                <path id="path6746-2" d="M1346.65,198.947C1342.5,192.095 1338.14,185.435 1332.68,179.747C1338.14,174.058 1342.5,167.399 1346.65,160.547C1350.8,167.399 1355.17,174.058 1360.62,179.747C1355.17,185.435 1350.8,192.095 1346.65,198.947Z" style="fill:rgb(212,0,0);fill-rule:nonzero;"/>
                <path id="path21-9-8-2-7" d="M1221.4,6.28L1223.99,6.255C1224.48,7.848 1225.57,9.468 1227.06,9.917C1231.25,10.92 1233.94,8.535 1234.83,5.784C1235.91,2.449 1234.81,-2.235 1231.92,-3.898C1229.53,-5.276 1225.98,-4.114 1224.35,-1.164L1222.54,-2.294L1223.51,-13.286L1235.35,-13.286L1235.35,-10.688L1225.76,-10.688L1225.6,-6.108C1227.67,-7.585 1230.84,-7.57 1232.91,-6.534C1236.82,-4.634 1238.63,-0.316 1237.87,4.774C1236.82,9.836 1234.5,12.704 1229.26,13.114C1223.43,13.167 1221.38,9.087 1221.4,6.28L1221.4,6.28Z" style="fill:rgb(212,0,0);fill-rule:nonzero;"/>
                <path id="path21-3-0-8-6" d="M1389.08,194.457L1386.49,194.482C1386,192.889 1384.9,191.269 1383.42,190.82C1379.23,189.817 1376.54,192.203 1375.65,194.953C1374.57,198.288 1375.67,202.972 1378.56,204.635C1380.95,206.014 1384.5,204.851 1386.13,201.902L1387.94,203.031L1386.97,214.023L1375.13,214.023L1375.13,211.425L1384.72,211.425L1384.88,206.845C1382.81,208.323 1379.64,208.307 1377.57,207.271C1373.66,205.371 1371.85,201.053 1372.61,195.964C1373.66,190.901 1375.98,188.033 1381.22,187.623C1387.05,187.57 1389.1,191.65 1389.08,194.457L1389.08,194.457Z" style="fill:rgb(212,0,0);fill-rule:nonzero;"/>
            </g>
        </g>
    </g>
</svg>
