<?xml version="1.0" encoding="UTF-8" standalone="no"?>
<!DOCTYPE svg PUBLIC "-//W3C//DTD SVG 1.1//EN" "http://www.w3.org/Graphics/SVG/1.1/DTD/svg11.dtd">
<svg width="100%" height="100%" viewBox="0 0 182 253" version="1.1" xmlns="http://www.w3.org/2000/svg" xmlns:xlink="http://www.w3.org/1999/xlink" xml:space="preserve" xmlns:serif="http://www.serif.com/" style="fill-rule:evenodd;clip-rule:evenodd;">
    <g transform="matrix(1,0,0,1,-888,-315)">
        <g transform="matrix(1,0,0,1,-328,1179.11)">
            <g id="_5_hearts" serif:id="5_hearts" transform="matrix(0.995538,0,0,0.996801,-42.6237,-13.1813)">
                <g id="_5D" serif:id="5D" transform="matrix(1,0,0,1,1057.87,-1147.42)">
                    <path id="rect9938-9-5" d="M386.929,304.79C386.929,300.06 383.084,296.22 378.349,296.22L216.927,296.22C212.191,296.22 208.346,300.06 208.346,304.79L208.346,537.1C208.346,541.829 212.191,545.669 216.927,545.669L378.349,545.669C383.084,545.669 386.929,541.829 386.929,537.1L386.929,304.79Z" style="fill:white;stroke:black;stroke-width:0.8px;"/>
                </g>
                <g id="path9970-5-6" transform="matrix(1,0,0,1,1356.31,-683.124)">
                    <path d="M-76.318,-112.097C-76.318,-112.097 -78.097,-114.649 -80.498,-117.649C-82.104,-119.657 -83.388,-121.831 -83.508,-123.703C-83.645,-125.843 -82.348,-127.989 -80.002,-128.093C-77.657,-128.197 -76.705,-126.443 -76.318,-124.998C-75.93,-126.443 -74.978,-128.197 -72.633,-128.093C-70.287,-127.989 -68.99,-125.843 -69.127,-123.703C-69.247,-121.831 -70.531,-119.657 -72.137,-117.649C-74.538,-114.649 -76.318,-112.097 -76.318,-112.097Z" style="fill:rgb(212,0,0);fill-rule:nonzero;"/>
                </g>
                <g id="path9972-9-9" transform="matrix(1,0,0,1,1356.31,-683.124)">
                    <path d="M74.718,25.395C74.718,25.395 72.938,27.947 70.538,30.947C68.931,32.955 67.647,35.129 67.528,37.001C67.391,39.14 68.687,41.286 71.034,41.39C73.379,41.494 74.331,39.741 74.718,38.295C75.106,39.741 76.058,41.494 78.403,41.39C80.749,41.286 82.045,39.14 81.908,37.001C81.789,35.129 80.505,32.955 78.899,30.947C76.498,27.947 74.718,25.395 74.718,25.395Z" style="fill:rgb(212,0,0);fill-rule:nonzero;"/>
                </g>
                <g id="path9978-0-4" transform="matrix(1,0,0,1,1356.31,-683.124)">
                    <path d="M-42.213,-103.52C-42.213,-103.52 -45.946,-109.644 -50.982,-116.845C-54.351,-121.663 -57.044,-126.881 -57.294,-131.375C-57.582,-136.509 -54.863,-141.659 -49.941,-141.909C-45.022,-142.159 -43.026,-137.951 -42.213,-134.481C-41.4,-137.951 -39.404,-142.159 -34.485,-141.909C-29.563,-141.659 -26.845,-136.509 -27.132,-131.375C-27.382,-126.881 -30.076,-121.663 -33.444,-116.845C-38.48,-109.644 -42.213,-103.52 -42.213,-103.52Z" style="fill:rgb(212,0,0);fill-rule:nonzero;"/>
                </g>
                <g id="path9984-9-5" transform="matrix(1,0,0,1,1356.31,-683.124)">
                    <path d="M40.613,-103.52C40.613,-103.52 36.88,-109.644 31.844,-116.845C28.476,-121.663 25.782,-126.881 25.532,-131.375C25.245,-136.509 27.963,-141.659 32.885,-141.909C37.804,-142.159 39.8,-137.951 40.613,-134.481C41.426,-137.951 43.422,-142.159 48.341,-141.909C53.263,-141.659 55.982,-136.509 55.694,-131.375C55.444,-126.881 52.751,-121.663 49.382,-116.845C44.346,-109.644 40.613,-103.52 40.613,-103.52Z" style="fill:rgb(212,0,0);fill-rule:nonzero;"/>
                </g>
                <g id="path9986-7-3" transform="matrix(1,0,0,1,1356.31,-683.124)">
                    <path d="M-0.8,-24.151C-0.8,-24.151 -4.533,-30.276 -9.569,-37.476C-12.938,-42.295 -15.631,-47.512 -15.881,-52.007C-16.168,-57.141 -13.45,-62.291 -8.528,-62.541C-3.609,-62.79 -1.613,-58.582 -0.8,-55.113C0.013,-58.582 2.009,-62.79 6.928,-62.541C11.85,-62.291 14.568,-57.141 14.281,-52.007C14.031,-47.512 11.338,-42.295 7.969,-37.476C2.933,-30.276 -0.8,-24.151 -0.8,-24.151Z" style="fill:rgb(212,0,0);fill-rule:nonzero;"/>
                </g>
                <g id="path9998-0-9" transform="matrix(1,0,0,1,1356.31,-683.124)">
                    <path d="M40.613,16.817C40.613,16.817 36.88,22.942 31.844,30.142C28.476,34.961 25.782,40.179 25.532,44.673C25.245,49.807 27.963,54.957 32.885,55.207C37.804,55.456 39.8,51.248 40.613,47.779C41.426,51.248 43.422,55.456 48.341,55.207C53.263,54.957 55.982,49.807 55.694,44.673C55.444,40.179 52.751,34.961 49.382,30.142C44.346,22.942 40.613,16.817 40.613,16.817Z" style="fill:rgb(212,0,0);fill-rule:nonzero;"/>
                </g>
                <g id="path10000-8-2" transform="matrix(1,0,0,1,1356.31,-683.124)">
                    <path d="M-42.213,16.817C-42.213,16.817 -45.946,22.942 -50.982,30.142C-54.351,34.961 -57.044,40.179 -57.294,44.673C-57.582,49.807 -54.863,54.957 -49.941,55.207C-45.022,55.456 -43.026,51.248 -42.213,47.779C-41.4,51.248 -39.404,55.456 -34.485,55.207C-29.563,54.957 -26.845,49.807 -27.132,44.673C-27.382,40.179 -30.076,34.961 -33.444,30.142C-38.48,22.942 -42.213,16.817 -42.213,16.817Z" style="fill:rgb(212,0,0);fill-rule:nonzero;"/>
                </g>
                <path id="path21-9-5-1-8" d="M1271.67,-820.564L1274.26,-820.589C1274.75,-818.996 1275.84,-817.376 1277.33,-816.927C1281.52,-815.924 1284.21,-818.31 1285.1,-821.06C1286.18,-824.395 1285.08,-829.079 1282.19,-830.742C1279.8,-832.121 1276.25,-830.958 1274.62,-828.009L1272.8,-829.138L1273.78,-840.13L1285.62,-840.13L1285.62,-837.532L1276.02,-837.532L1275.87,-832.952C1277.94,-834.43 1281.11,-834.414 1283.17,-833.378C1287.08,-831.478 1288.9,-827.16 1288.14,-822.071C1287.09,-817.008 1284.77,-814.14 1279.53,-813.73C1273.7,-813.677 1271.64,-817.757 1271.67,-820.564L1271.67,-820.564Z" style="fill:rgb(212,0,0);fill-rule:nonzero;"/>
                <path id="path21-3-0-6-3-8" d="M1439.35,-632.387L1436.76,-632.362C1436.26,-633.955 1435.17,-635.575 1433.69,-636.024C1429.5,-637.027 1426.8,-634.641 1425.91,-631.891C1424.84,-628.556 1425.94,-623.872 1428.82,-622.209C1431.21,-620.83 1434.77,-621.993 1436.4,-624.942L1438.21,-623.813L1437.24,-612.821L1425.4,-612.821L1425.4,-615.419L1434.99,-615.419L1435.14,-619.999C1433.08,-618.521 1429.9,-618.537 1427.84,-619.573C1423.93,-621.473 1422.11,-625.791 1422.87,-630.88C1423.93,-635.943 1426.25,-638.811 1431.49,-639.221C1437.31,-639.274 1439.37,-635.194 1439.35,-632.387L1439.35,-632.387Z" style="fill:rgb(212,0,0);fill-rule:nonzero;"/>
            </g>
        </g>
    </g>
</svg>
