<?xml version="1.0" encoding="UTF-8" standalone="no"?>
<!DOCTYPE svg PUBLIC "-//W3C//DTD SVG 1.1//EN" "http://www.w3.org/Graphics/SVG/1.1/DTD/svg11.dtd">
<svg width="100%" height="100%" viewBox="0 0 182 253" version="1.1" xmlns="http://www.w3.org/2000/svg" xmlns:xlink="http://www.w3.org/1999/xlink" xml:space="preserve" xmlns:serif="http://www.serif.com/" style="fill-rule:evenodd;clip-rule:evenodd;">
    <g transform="matrix(1,0,0,1,-888,-597)">
        <g transform="matrix(1,0,0,1,-328,1179.11)">
            <g transform="matrix(-0.995538,0,0,-0.996801,2696.32,-707.479)">
                <g id="_5_spades" serif:id="5_spades">
                    <g id="g8459-0-4">
                        <path id="rect6920-5-5" d="M1485.01,-368.557C1485.01,-373.287 1481.16,-377.127 1476.43,-377.127L1315.01,-377.127C1310.27,-377.127 1306.42,-373.287 1306.42,-368.557L1306.42,-136.247C1306.42,-131.518 1310.27,-127.678 1315.01,-127.678L1476.43,-127.678C1481.16,-127.678 1485.01,-131.518 1485.01,-136.247L1485.01,-368.557Z" style="fill:white;stroke:black;stroke-width:0.8px;"/>
                        <path id="path6950-9-9" d="M1354.3,-350.971C1346.92,-340.445 1339.03,-334.388 1338.89,-326.176C1338.85,-323.517 1340.29,-318.997 1344.79,-318.132C1347.71,-317.574 1351.73,-319.938 1351.82,-324.742C1351.81,-325.699 1352.83,-325.674 1352.82,-324.363C1352.68,-320.574 1351.48,-316.162 1349.47,-312.571L1359.14,-312.571C1357.12,-316.162 1355.92,-320.574 1355.78,-324.363C1355.78,-325.674 1356.8,-325.699 1356.79,-324.742C1356.87,-319.938 1360.89,-317.574 1363.82,-318.132C1368.32,-318.997 1369.76,-323.517 1369.71,-326.176C1369.58,-334.388 1361.68,-340.445 1354.3,-350.971Z" style="fill-rule:nonzero;"/>
                        <path id="path6952-6-0" d="M1320.2,-337.148C1316.75,-332.762 1313.06,-330.238 1313,-326.817C1312.98,-325.709 1313.65,-323.826 1315.75,-323.465C1317.12,-323.232 1319,-324.218 1319.04,-326.219C1319.03,-326.618 1319.51,-326.608 1319.51,-326.062C1319.44,-324.483 1318.88,-322.644 1317.94,-321.148L1322.46,-321.148C1321.52,-322.644 1320.95,-324.483 1320.89,-326.062C1320.88,-326.608 1321.37,-326.618 1321.36,-326.219C1321.4,-324.218 1323.28,-323.232 1324.64,-323.465C1326.75,-323.826 1327.42,-325.709 1327.4,-326.817C1327.34,-330.238 1323.65,-332.762 1320.2,-337.148Z" style="fill-rule:nonzero;"/>
                        <path id="path6956-5-0" d="M1471.23,-167.656C1467.79,-172.042 1464.1,-174.566 1464.04,-177.987C1464.01,-179.095 1464.69,-180.978 1466.79,-181.339C1468.15,-181.572 1470.03,-180.586 1470.07,-178.585C1470.07,-178.186 1470.55,-178.197 1470.54,-178.743C1470.48,-180.322 1469.92,-182.16 1468.98,-183.656L1473.49,-183.656C1472.55,-182.16 1471.99,-180.322 1471.93,-178.743C1471.92,-178.197 1472.4,-178.186 1472.39,-178.585C1472.43,-180.586 1474.31,-181.572 1475.68,-181.339C1477.78,-180.978 1478.45,-179.095 1478.43,-177.987C1478.37,-174.566 1474.68,-172.042 1471.23,-167.656Z" style="fill-rule:nonzero;"/>
                        <path id="path6958-4-1" d="M1437.13,-350.971C1429.75,-340.445 1421.85,-334.388 1421.72,-326.176C1421.68,-323.517 1423.11,-318.997 1427.62,-318.132C1430.54,-317.574 1434.56,-319.938 1434.64,-324.742C1434.63,-325.699 1435.66,-325.674 1435.65,-324.363C1435.51,-320.574 1434.31,-316.162 1432.3,-312.571L1441.96,-312.571C1439.95,-316.162 1438.75,-320.574 1438.61,-324.363C1438.6,-325.674 1439.63,-325.699 1439.61,-324.742C1439.7,-319.938 1443.72,-317.574 1446.64,-318.132C1451.14,-318.997 1452.58,-323.517 1452.54,-326.176C1452.41,-334.388 1444.51,-340.445 1437.13,-350.971Z" style="fill-rule:nonzero;"/>
                        <path id="path6970-5-5" d="M1354.3,-153.834C1346.92,-164.359 1339.03,-170.416 1338.89,-178.628C1338.85,-181.287 1340.29,-185.807 1344.79,-186.672C1347.71,-187.231 1351.73,-184.866 1351.82,-180.062C1351.81,-179.106 1352.83,-179.131 1352.82,-180.441C1352.68,-184.23 1351.48,-188.642 1349.47,-192.234L1359.14,-192.234C1357.12,-188.642 1355.92,-184.23 1355.78,-180.441C1355.78,-179.131 1356.8,-179.106 1356.79,-180.062C1356.87,-184.866 1360.89,-187.231 1363.82,-186.672C1368.32,-185.807 1369.76,-181.287 1369.71,-178.628C1369.58,-170.416 1361.68,-164.359 1354.3,-153.834Z" style="fill-rule:nonzero;"/>
                        <path id="path6972-5-8" d="M1437.13,-153.834C1429.75,-164.359 1421.85,-170.416 1421.72,-178.628C1421.68,-181.287 1423.11,-185.807 1427.62,-186.672C1430.54,-187.231 1434.56,-184.866 1434.64,-180.062C1434.63,-179.106 1435.66,-179.131 1435.65,-180.441C1435.51,-184.23 1434.31,-188.642 1432.3,-192.234L1441.96,-192.234C1439.95,-188.642 1438.75,-184.23 1438.61,-180.441C1438.6,-179.131 1439.63,-179.106 1439.61,-180.062C1439.7,-184.866 1443.72,-187.231 1446.64,-186.672C1451.14,-185.807 1452.58,-181.287 1452.54,-178.628C1452.41,-170.416 1444.51,-164.359 1437.13,-153.834Z" style="fill-rule:nonzero;"/>
                        <path id="path6980-6-3" d="M1395.72,-271.602C1388.34,-261.076 1380.44,-255.019 1380.31,-246.807C1380.26,-244.148 1381.7,-239.629 1386.2,-238.764C1389.12,-238.205 1393.15,-240.57 1393.23,-245.374C1393.22,-246.33 1394.24,-246.305 1394.24,-244.995C1394.1,-241.205 1392.9,-236.793 1390.88,-233.202L1400.55,-233.202C1398.53,-236.793 1397.34,-241.205 1397.2,-244.995C1397.19,-246.305 1398.21,-246.33 1398.2,-245.374C1398.28,-240.57 1402.31,-238.205 1405.23,-238.764C1409.73,-239.629 1411.17,-244.148 1411.12,-246.807C1410.99,-255.019 1403.1,-261.076 1395.72,-271.602Z" style="fill-rule:nonzero;"/>
                        <path id="path21-4-5-5" d="M1311.88,-346.491L1314.46,-346.516C1314.96,-344.922 1316.05,-343.303 1317.53,-342.853C1321.72,-341.851 1324.42,-344.236 1325.31,-346.986C1326.38,-350.322 1325.28,-355.006 1322.4,-356.668C1320.01,-358.047 1316.46,-356.884 1314.83,-353.935L1313.01,-355.065L1313.99,-366.056L1325.83,-366.056L1325.83,-363.458L1316.23,-363.458L1316.08,-358.879C1318.14,-360.356 1321.32,-360.34 1323.38,-359.304C1327.29,-357.405 1329.11,-353.087 1328.35,-347.997C1327.3,-342.935 1324.97,-340.066 1319.74,-339.657C1313.91,-339.603 1311.85,-343.684 1311.88,-346.491L1311.88,-346.491Z" style="fill-rule:nonzero;"/>
                        <path id="path21-4-9-2-8" d="M1479.55,-158.313L1476.97,-158.288C1476.47,-159.882 1475.38,-161.502 1473.9,-161.951C1469.71,-162.954 1467.01,-160.568 1466.12,-157.818C1465.05,-154.482 1466.15,-149.798 1469.03,-148.136C1471.42,-146.757 1474.97,-147.92 1476.61,-150.869L1478.42,-149.74L1477.44,-138.748L1465.61,-138.748L1465.61,-141.346L1475.2,-141.346L1475.35,-145.925C1473.29,-144.448 1470.11,-144.464 1468.05,-145.5C1464.14,-147.399 1462.32,-151.718 1463.08,-156.807C1464.13,-161.869 1466.46,-164.738 1471.69,-165.147C1477.52,-165.201 1479.58,-161.12 1479.55,-158.314L1479.55,-158.313Z" style="fill-rule:nonzero;"/>
                    </g>
                </g>
            </g>
        </g>
    </g>
</svg>
