<?xml version="1.0" encoding="UTF-8" standalone="no"?><!DOCTYPE svg PUBLIC "-//W3C//DTD SVG 1.1//EN" "http://www.w3.org/Graphics/SVG/1.1/DTD/svg11.dtd"><svg width="100%" height="100%" viewBox="0 0 178 249" version="1.1" xmlns="http://www.w3.org/2000/svg" xmlns:xlink="http://www.w3.org/1999/xlink" xml:space="preserve" xmlns:serif="http://www.serif.com/" style="fill-rule:evenodd;clip-rule:evenodd;stroke-linejoin:round;stroke-miterlimit:2;"><rect id="_6-clubs" serif:id="6-clubs" x="0" y="0" width="178" height="249" style="fill:none;"/><clipPath id="_clip1"><rect x="0" y="0" width="178" height="249"/></clipPath><g clip-path="url(#_clip1)"><rect x="-888.211" y="0" width="2312.21" height="1245" style="fill:#fff;"/><g id="_6_clubs" serif:id="6_clubs"><path id="path147-0-8-1-6-13-2-5-7-1" d="M130.275,26.46c-7.829,0.17 -11.34,8.985 -5.542,15.83c0.841,0.998 0.928,1.571 -0.612,0.612c-3.904,-2.61 -11.389,-0.894 -11.773,7.086c-0.473,9.834 13.267,12.667 15.847,2.211c0.136,-1.103 1.032,-1.078 0.816,0.488c-0.235,4.25 -1.562,8.223 -3.387,12.096l9.307,0c-1.824,-3.873 -3.151,-7.846 -3.386,-12.096c-0.217,-1.566 0.68,-1.591 0.816,-0.488c2.58,10.456 16.32,7.623 15.846,-2.211c-0.383,-7.98 -7.868,-9.696 -11.772,-7.086c-1.54,0.959 -1.454,0.386 -0.613,-0.612c5.799,-6.845 2.288,-15.66 -5.541,-15.83c0,0 0,0 -0.008,0l0.002,0Z" style="fill-rule:nonzero;"/><path id="path147-0-8-1-6-75-2-83-8-8-7" d="M47.719,26.46c-7.829,0.17 -11.34,8.985 -5.542,15.83c0.841,0.998 0.928,1.571 -0.612,0.612c-3.904,-2.61 -11.389,-0.894 -11.772,7.086c-0.474,9.834 13.266,12.667 15.846,2.211c0.136,-1.103 1.032,-1.078 0.816,0.488c-0.235,4.25 -1.562,8.223 -3.387,12.096l9.308,0c-1.825,-3.873 -3.152,-7.846 -3.387,-12.096c-0.217,-1.566 0.68,-1.591 0.816,-0.488c2.58,10.456 16.32,7.623 15.846,-2.211c-0.383,-7.98 -7.868,-9.696 -11.772,-7.086c-1.54,0.959 -1.454,0.386 -0.613,-0.612c5.799,-6.845 2.288,-15.66 -5.541,-15.83c0,0 0,0 -0.008,0l0.002,0Z" style="fill-rule:nonzero;"/><path id="path147-0-8-1-6-7-5-5-7-8-7-8" d="M130.275,223.204c-7.829,-0.17 -11.34,-8.985 -5.542,-15.83c0.841,-0.998 0.928,-1.571 -0.612,-0.612c-3.904,2.611 -11.389,0.894 -11.773,-7.086c-0.473,-9.834 13.267,-12.667 15.847,-2.211c0.136,1.103 1.032,1.078 0.816,-0.488c-0.235,-4.25 -1.562,-8.222 -3.387,-12.096l9.307,0c-1.824,3.874 -3.151,7.846 -3.386,12.096c-0.217,1.566 0.68,1.591 0.816,0.488c2.58,-10.456 16.32,-7.623 15.846,2.211c-0.383,7.98 -7.868,9.697 -11.772,7.086c-1.54,-0.959 -1.454,-0.386 -0.613,0.612c5.799,6.845 2.288,15.66 -5.541,15.83c0,0 0,0 -0.008,0l0.002,0Z" style="fill-rule:nonzero;"/><path id="path147-0-8-1-6-75-6-1-2-0-6-8" d="M47.719,223.204c-7.829,-0.17 -11.34,-8.985 -5.542,-15.83c0.841,-0.998 0.928,-1.571 -0.612,-0.612c-3.904,2.611 -11.389,0.894 -11.772,-7.086c-0.474,-9.834 13.266,-12.667 15.846,-2.211c0.136,1.103 1.032,1.078 0.816,-0.488c-0.235,-4.25 -1.562,-8.222 -3.387,-12.096l9.308,0c-1.825,3.874 -3.152,7.846 -3.387,12.096c-0.217,1.566 0.68,1.591 0.816,0.488c2.58,-10.456 16.32,-7.623 15.846,2.211c-0.383,7.98 -7.868,9.697 -11.772,7.086c-1.54,-0.959 -1.454,-0.386 -0.613,0.612c5.799,6.845 2.288,15.66 -5.541,15.83c0,0 0,0 -0.008,0l0.002,0Z" style="fill-rule:nonzero;"/><path id="path147-0-8-1-6-7-5-7-3-0-9-6-4" d="M130.275,105.67c-7.829,0.17 -11.34,8.985 -5.542,15.83c0.841,0.998 0.928,1.571 -0.612,0.612c-3.904,-2.61 -11.389,-0.894 -11.773,7.087c-0.473,9.833 13.267,12.667 15.847,2.21c0.136,-1.103 1.032,-1.078 0.816,0.488c-0.235,4.25 -1.562,8.223 -3.387,12.097l9.307,0c-1.824,-3.874 -3.151,-7.847 -3.386,-12.097c-0.217,-1.566 0.68,-1.591 0.816,-0.488c2.58,10.457 16.32,7.623 15.846,-2.21c-0.383,-7.981 -7.868,-9.697 -11.772,-7.087c-1.54,0.959 -1.454,0.386 -0.613,-0.612c5.799,-6.845 2.288,-15.66 -5.541,-15.83c0,0 0,0 -0.008,0l0.002,0Z" style="fill-rule:nonzero;"/><path id="path147-0-8-1-6-75-6-6-5-3-0-0-2" d="M47.719,105.67c-7.829,0.17 -11.34,8.985 -5.542,15.83c0.841,0.998 0.928,1.571 -0.612,0.612c-3.904,-2.61 -11.389,-0.894 -11.772,7.087c-0.474,9.833 13.266,12.667 15.846,2.21c0.136,-1.103 1.032,-1.078 0.816,0.488c-0.235,4.25 -1.562,8.223 -3.387,12.097l9.308,0c-1.825,-3.874 -3.152,-7.847 -3.387,-12.097c-0.217,-1.566 0.68,-1.591 0.816,-0.488c2.58,10.457 16.32,7.623 15.846,-2.21c-0.383,-7.981 -7.868,-9.697 -11.772,-7.087c-1.54,0.959 -1.454,0.386 -0.613,-0.612c5.799,-6.845 2.288,-15.66 -5.541,-15.83c0,0 0,0 -0.008,0l0.002,0Z" style="fill-rule:nonzero;"/><path id="path147-6-9-8-7-0-5-6-4-2-8" d="M164.273,209.077c3.131,-0.071 4.536,-3.744 2.216,-6.596c-0.336,-0.416 -0.371,-0.654 0.245,-0.255c1.562,1.088 4.556,0.373 4.709,-2.952c0.19,-4.098 -5.306,-5.278 -6.338,-0.921c-0.054,0.459 -0.413,0.449 -0.327,-0.204c0.094,-1.771 0.625,-3.426 1.355,-5.04l-3.723,0c0.73,1.614 1.261,3.269 1.355,5.04c0.087,0.653 -0.272,0.663 -0.326,0.204c-1.032,-4.357 -6.528,-3.177 -6.339,0.921c0.153,3.325 3.148,4.04 4.709,2.952c0.616,-0.399 0.581,-0.161 0.245,0.255c-2.319,2.852 -0.915,6.525 2.217,6.596c0,0 0,0 0,0l0.002,0Z" style="fill-rule:nonzero;"/><path id="path147-6-9-8-7-4-5-62-0-2-9" d="M13.728,39.923c-3.132,0.071 -4.536,3.744 -2.217,6.596c0.337,0.416 0.371,0.655 -0.245,0.255c-1.561,-1.088 -4.555,-0.373 -4.709,2.953c-0.189,4.097 5.307,5.277 6.339,0.921c0.054,-0.46 0.413,-0.449 0.326,0.203c-0.094,1.771 -0.625,3.426 -1.354,5.04l3.722,0c-0.729,-1.614 -1.26,-3.269 -1.354,-5.04c-0.087,-0.652 0.272,-0.663 0.326,-0.203c1.032,4.356 6.528,3.176 6.339,-0.921c-0.154,-3.326 -3.148,-4.041 -4.709,-2.953c-0.616,0.4 -0.582,0.161 -0.245,-0.255c2.319,-2.852 0.915,-6.525 -2.217,-6.596c-0.001,0 0,0 0,0l-0.002,0Z" style="fill-rule:nonzero;"/><path id="path23-8-1-4" d="M6,29.314c-0.324,-2.218 -0.315,-7.95 -0.051,-9.646c0.817,-5.195 2.799,-7.573 6.118,-8.348c3.225,-0.756 7.754,0.085 8.747,4.427l-2.695,0.052c-1.458,-2.935 -5.146,-2.151 -7.224,-0.874c-1.658,1.018 -2.408,5.266 -2.087,5.527c0,0 3.135,-2.325 5.607,-2.154c5.282,0.551 7.46,5.138 7.276,9.468c-0.168,5.21 -1.818,9.376 -7.416,9.653c-5.323,-0.206 -7.762,-3.111 -8.275,-8.105l0,0Zm13.128,-1.376c0.029,-3.614 -1.61,-6.323 -4.713,-6.62c-3.1,-0.299 -6.228,2.731 -6.012,6.415c0.217,3.7 1.647,6.813 5.407,6.796c4.045,-0.016 5.298,-4.018 5.318,-6.591Z" style="fill-rule:nonzero;"/><path id="path23-6-8-9-6" d="M171.998,219.686c0.324,2.218 0.316,7.95 0.051,9.646c-0.817,5.195 -2.798,7.573 -6.118,8.348c-3.224,0.756 -7.754,-0.085 -8.747,-4.427l2.695,-0.052c1.458,2.936 5.147,2.151 7.225,0.874c1.657,-1.017 2.407,-5.265 2.086,-5.527c0,0 -3.135,2.325 -5.607,2.154c-5.281,-0.551 -7.46,-5.138 -7.275,-9.468c0.168,-5.21 1.817,-9.376 7.416,-9.653c5.323,0.206 7.761,3.111 8.274,8.106l0,-0.001Zm-13.127,1.376c-0.029,3.614 1.609,6.323 4.712,6.62c3.1,0.299 6.228,-2.731 6.012,-6.415c-0.216,-3.7 -1.646,-6.813 -5.407,-6.796c-4.044,0.016 -5.298,4.018 -5.317,6.591Z" style="fill-rule:nonzero;"/></g></g></svg>