<?xml version="1.0" encoding="UTF-8" standalone="no"?><!DOCTYPE svg PUBLIC "-//W3C//DTD SVG 1.1//EN" "http://www.w3.org/Graphics/SVG/1.1/DTD/svg11.dtd"><svg width="100%" height="100%" viewBox="0 0 178 249" version="1.1" xmlns="http://www.w3.org/2000/svg" xmlns:xlink="http://www.w3.org/1999/xlink" xml:space="preserve" xmlns:serif="http://www.serif.com/" style="fill-rule:evenodd;clip-rule:evenodd;stroke-linejoin:round;stroke-miterlimit:2;"><rect id="_6-diamonds" serif:id="6-diamonds" x="0" y="0" width="178" height="249" style="fill:none;"/><clipPath id="_clip1"><rect x="0" y="0" width="178" height="249"/></clipPath><g clip-path="url(#_clip1)"><rect x="-888.211" y="-747" width="2312.21" height="1245" style="fill:#fff;"/><g id="_6_diamonds" serif:id="6_diamonds"><path id="path6790-5" d="M13.729,55.891c-1.723,-2.849 -3.536,-5.618 -5.802,-7.984c2.266,-2.365 4.079,-5.135 5.802,-7.984c1.723,2.849 3.536,5.619 5.801,7.984c-2.265,2.366 -4.078,5.135 -5.801,7.984Z" style="fill:#d40000;fill-rule:nonzero;"/><path id="path6792-5" d="M130.278,64.451c-4.135,-6.838 -8.486,-13.484 -13.923,-19.161c5.437,-5.678 9.788,-12.324 13.923,-19.162c4.135,6.838 8.486,13.484 13.923,19.162c-5.437,5.677 -9.788,12.323 -13.923,19.161Z" style="fill:#d40000;fill-rule:nonzero;"/><path id="path6794-1" d="M164.272,209.077c-1.723,-2.849 -3.536,-5.618 -5.802,-7.984c2.266,-2.366 4.079,-5.135 5.802,-7.984c1.723,2.849 3.535,5.618 5.801,7.984c-2.266,2.366 -4.078,5.135 -5.801,7.984Z" style="fill:#d40000;fill-rule:nonzero;"/><path id="path6796-2" d="M47.722,64.451c-4.135,-6.838 -8.486,-13.484 -13.923,-19.161c5.437,-5.678 9.788,-12.324 13.923,-19.162c4.135,6.838 8.486,13.484 13.923,19.162c-5.437,5.677 -9.788,12.323 -13.923,19.161Z" style="fill:#d40000;fill-rule:nonzero;"/><path id="path6806-6" d="M47.722,143.636c-4.135,-6.838 -8.486,-13.484 -13.923,-19.162c5.437,-5.677 9.788,-12.323 13.923,-19.162c4.135,6.839 8.486,13.485 13.923,19.162c-5.437,5.678 -9.788,12.324 -13.923,19.162Z" style="fill:#d40000;fill-rule:nonzero;"/><path id="path6808-6" d="M130.278,143.648c-4.135,-6.838 -8.486,-13.484 -13.923,-19.161c5.437,-5.678 9.788,-12.324 13.923,-19.162c4.135,6.838 8.486,13.484 13.923,19.162c-5.437,5.677 -9.788,12.323 -13.923,19.161Z" style="fill:#d40000;fill-rule:nonzero;"/><path id="path6812-0" d="M47.722,222.876c-4.135,-6.838 -8.486,-13.484 -13.923,-19.162c5.437,-5.677 9.788,-12.323 13.923,-19.161c4.135,6.838 8.486,13.484 13.923,19.161c-5.437,5.678 -9.788,12.324 -13.923,19.162Z" style="fill:#d40000;fill-rule:nonzero;"/><path id="path6814-4" d="M130.278,222.882c-4.135,-6.838 -8.486,-13.485 -13.923,-19.162c5.437,-5.677 9.788,-12.324 13.923,-19.162c4.135,6.838 8.486,13.485 13.923,19.162c-5.437,5.677 -9.788,12.324 -13.923,19.162Z" style="fill:#d40000;fill-rule:nonzero;"/><path id="path23-5-3-5-5" d="M6,29.314c-0.324,-2.218 -0.316,-7.95 -0.051,-9.646c0.817,-5.195 2.799,-7.573 6.118,-8.349c3.225,-0.756 7.754,0.086 8.747,4.428l-2.695,0.053c-1.458,-2.936 -5.146,-2.152 -7.224,-0.874c-1.658,1.017 -2.408,5.265 -2.087,5.526c0,0 3.135,-2.325 5.607,-2.153c5.282,0.551 7.461,5.137 7.276,9.468c-0.168,5.209 -1.818,9.376 -7.416,9.653c-5.323,-0.206 -7.762,-3.112 -8.275,-8.106l0,0Zm13.128,-1.376c0.028,-3.615 -1.61,-6.324 -4.713,-6.62c-3.1,-0.299 -6.228,2.73 -6.012,6.415c0.217,3.7 1.647,6.812 5.407,6.796c4.044,-0.016 5.298,-4.018 5.318,-6.591Z" style="fill:#d40000;fill-rule:nonzero;"/><path id="path23-6-5-6-6" d="M171.998,219.686c0.324,2.218 0.316,7.95 0.051,9.646c-0.817,5.195 -2.799,7.573 -6.118,8.348c-3.225,0.756 -7.754,-0.085 -8.747,-4.427l2.695,-0.052c1.458,2.935 5.146,2.151 7.224,0.874c1.658,-1.018 2.408,-5.265 2.087,-5.527c0,0 -3.135,2.325 -5.607,2.154c-5.282,-0.551 -7.46,-5.138 -7.276,-9.468c0.168,-5.21 1.818,-9.376 7.416,-9.653c5.323,0.206 7.762,3.111 8.275,8.105l0,0Zm-13.128,1.376c-0.028,3.614 1.61,6.323 4.713,6.62c3.1,0.299 6.228,-2.731 6.012,-6.415c-0.216,-3.7 -1.647,-6.813 -5.407,-6.796c-4.044,0.016 -5.298,4.018 -5.318,6.591Z" style="fill:#d40000;fill-rule:nonzero;"/></g></g></svg>