<?xml version="1.0" encoding="UTF-8" standalone="no"?><!DOCTYPE svg PUBLIC "-//W3C//DTD SVG 1.1//EN" "http://www.w3.org/Graphics/SVG/1.1/DTD/svg11.dtd"><svg width="100%" height="100%" viewBox="0 0 178 249" version="1.1" xmlns="http://www.w3.org/2000/svg" xmlns:xlink="http://www.w3.org/1999/xlink" xml:space="preserve" xmlns:serif="http://www.serif.com/" style="fill-rule:evenodd;clip-rule:evenodd;stroke-linejoin:round;stroke-miterlimit:2;"><rect id="_6-hearts" serif:id="6-hearts" x="0" y="0" width="178" height="249" style="fill:none;"/><clipPath id="_clip1"><rect x="0" y="0" width="178" height="249"/></clipPath><g clip-path="url(#_clip1)"><rect x="-888.211" y="-249" width="2312.21" height="1245" style="fill:#fff;"/><g id="_6_hearts" serif:id="6_hearts"><path id="path10038-5-0" d="M13.729,55.892c0,0 -1.774,-2.547 -4.167,-5.541c-1.601,-2.004 -2.881,-4.174 -3,-6.043c-0.136,-2.135 1.156,-4.276 3.494,-4.38c2.338,-0.104 3.287,1.646 3.673,3.089c0.386,-1.443 1.335,-3.193 3.672,-3.089c2.339,0.104 3.631,2.245 3.495,4.38c-0.119,1.869 -1.399,4.039 -3,6.043c-2.393,2.994 -4.167,5.541 -4.167,5.541Z" style="fill:#d40000;fill-rule:nonzero;"/><path id="path10040-7-6" d="M164.272,193.109c0,0 -1.774,2.546 -4.167,5.541c-1.601,2.003 -2.881,4.173 -3,6.042c-0.136,2.135 1.155,4.276 3.494,4.38c2.338,0.104 3.286,-1.646 3.673,-3.088c0.386,1.442 1.335,3.192 3.672,3.088c2.339,-0.104 3.631,-2.245 3.494,-4.38c-0.119,-1.869 -1.398,-4.039 -2.999,-6.042c-2.393,-2.995 -4.167,-5.541 -4.167,-5.541Z" style="fill:#d40000;fill-rule:nonzero;"/><path id="path10046-1-1" d="M47.722,64.452c0,0 -3.721,-6.112 -8.74,-13.299c-3.358,-4.809 -6.042,-10.016 -6.292,-14.501c-0.286,-5.124 2.423,-10.264 7.329,-10.513c4.903,-0.249 6.893,3.95 7.703,7.413c0.81,-3.463 2.8,-7.662 7.703,-7.413c4.906,0.249 7.615,5.389 7.329,10.513c-0.25,4.485 -2.934,9.692 -6.292,14.501c-5.019,7.187 -8.74,13.299 -8.74,13.299Z" style="fill:#d40000;fill-rule:nonzero;"/><path id="path10048-2-0" d="M130.278,143.662c0,0 -3.721,-6.112 -8.74,-13.299c-3.358,-4.809 -6.042,-10.016 -6.292,-14.501c-0.286,-5.124 2.423,-10.264 7.329,-10.513c4.903,-0.249 6.893,3.95 7.703,7.413c0.81,-3.463 2.8,-7.662 7.703,-7.413c4.906,0.249 7.615,5.389 7.329,10.513c-0.25,4.485 -2.934,9.692 -6.292,14.501c-5.019,7.187 -8.74,13.299 -8.74,13.299Z" style="fill:#d40000;fill-rule:nonzero;"/><path id="path10052-3-1" d="M130.278,64.452c0,0 -3.721,-6.112 -8.74,-13.299c-3.358,-4.809 -6.042,-10.016 -6.292,-14.501c-0.286,-5.124 2.423,-10.264 7.329,-10.513c4.903,-0.249 6.893,3.95 7.703,7.413c0.81,-3.463 2.8,-7.662 7.703,-7.413c4.906,0.249 7.615,5.389 7.329,10.513c-0.25,4.485 -2.934,9.692 -6.292,14.501c-5.019,7.187 -8.74,13.299 -8.74,13.299Z" style="fill:#d40000;fill-rule:nonzero;"/><path id="path10056-4-2" d="M47.722,143.662c0,0 -3.721,-6.112 -8.74,-13.299c-3.358,-4.809 -6.042,-10.016 -6.292,-14.501c-0.286,-5.124 2.423,-10.264 7.329,-10.513c4.903,-0.249 6.893,3.95 7.703,7.413c0.81,-3.463 2.8,-7.662 7.703,-7.413c4.906,0.249 7.615,5.389 7.329,10.513c-0.25,4.485 -2.934,9.692 -6.292,14.501c-5.019,7.187 -8.74,13.299 -8.74,13.299Z" style="fill:#d40000;fill-rule:nonzero;"/><path id="path10066-9-2" d="M130.278,184.548c0,0 -3.721,6.112 -8.74,13.299c-3.358,4.809 -6.042,10.016 -6.292,14.501c-0.286,5.124 2.423,10.264 7.329,10.513c4.903,0.249 6.893,-3.95 7.703,-7.413c0.81,3.463 2.8,7.662 7.703,7.413c4.906,-0.249 7.615,-5.389 7.329,-10.513c-0.25,-4.485 -2.934,-9.692 -6.292,-14.501c-5.019,-7.187 -8.74,-13.299 -8.74,-13.299Z" style="fill:#d40000;fill-rule:nonzero;"/><path id="path10068-1-2" d="M47.722,184.548c0,0 -3.721,6.112 -8.74,13.299c-3.358,4.809 -6.042,10.016 -6.292,14.501c-0.286,5.124 2.423,10.264 7.329,10.513c4.903,0.249 6.893,-3.95 7.703,-7.413c0.81,3.463 2.8,7.662 7.703,7.413c4.906,-0.249 7.615,-5.389 7.329,-10.513c-0.25,-4.485 -2.934,-9.692 -6.292,-14.501c-5.019,-7.187 -8.74,-13.299 -8.74,-13.299Z" style="fill:#d40000;fill-rule:nonzero;"/><path id="path23-5-2-7-3" d="M6,29.315c-0.324,-2.218 -0.316,-7.951 -0.051,-9.646c0.817,-5.195 2.799,-7.573 6.119,-8.349c3.224,-0.756 7.753,0.086 8.746,4.428l-2.695,0.052c-1.458,-2.936 -5.146,-2.152 -7.224,-0.874c-1.658,1.017 -2.407,5.265 -2.087,5.526c0,0 3.136,-2.325 5.607,-2.153c5.282,0.551 7.461,5.137 7.276,9.468c-0.168,5.21 -1.818,9.376 -7.416,9.653c-5.323,-0.206 -7.762,-3.112 -8.275,-8.106l0,0.001Zm13.128,-1.376c0.028,-3.615 -1.61,-6.324 -4.713,-6.621c-3.1,-0.299 -6.228,2.731 -6.012,6.416c0.217,3.7 1.647,6.812 5.407,6.795c4.044,-0.016 5.298,-4.017 5.318,-6.59Z" style="fill:#d40000;fill-rule:nonzero;"/><path id="path23-6-5-1-7-1" d="M171.998,219.686c0.324,2.217 0.316,7.95 0.051,9.646c-0.817,5.195 -2.799,7.572 -6.118,8.348c-3.225,0.756 -7.754,-0.086 -8.747,-4.428l2.695,-0.052c1.458,2.936 5.147,2.152 7.225,0.874c1.657,-1.017 2.407,-5.265 2.086,-5.526c0,0 -3.135,2.325 -5.607,2.153c-5.282,-0.55 -7.46,-5.137 -7.276,-9.468c0.168,-5.209 1.818,-9.376 7.416,-9.653c5.323,0.206 7.762,3.112 8.275,8.106l0,0Zm-13.128,1.375c-0.028,3.615 1.61,6.324 4.713,6.621c3.1,0.299 6.228,-2.731 6.012,-6.416c-0.216,-3.7 -1.646,-6.812 -5.407,-6.795c-4.044,0.016 -5.298,4.018 -5.318,6.59Z" style="fill:#d40000;fill-rule:nonzero;"/></g></g></svg>