<?xml version="1.0" encoding="UTF-8" standalone="no"?><!DOCTYPE svg PUBLIC "-//W3C//DTD SVG 1.1//EN" "http://www.w3.org/Graphics/SVG/1.1/DTD/svg11.dtd"><svg width="100%" height="100%" viewBox="0 0 178 249" version="1.1" xmlns="http://www.w3.org/2000/svg" xmlns:xlink="http://www.w3.org/1999/xlink" xml:space="preserve" xmlns:serif="http://www.serif.com/" style="fill-rule:evenodd;clip-rule:evenodd;stroke-linejoin:round;stroke-miterlimit:2;"><rect id="_6-spades" serif:id="6-spades" x="0" y="0" width="178" height="249" style="fill:none;"/><clipPath id="_clip1"><rect x="0" y="0" width="178" height="249"/></clipPath><g clip-path="url(#_clip1)"><rect x="-888.211" y="-498" width="2312.21" height="1245" style="fill:#fff;"/><g id="_6_spades" serif:id="6_spades"><path id="path7018-7-4" d="M47.722,26.128c-7.357,10.505 -15.228,16.55 -15.359,24.746c-0.044,2.653 1.389,7.164 5.878,8.027c2.912,0.558 6.921,-1.802 7.005,-6.597c-0.013,-0.954 1.009,-0.929 0.999,0.379c-0.137,3.781 -1.332,8.185 -3.342,11.769l9.638,0c-2.01,-3.584 -3.205,-7.988 -3.343,-11.769c-0.009,-1.308 1.013,-1.333 1,-0.379c0.084,4.795 4.093,7.155 7.005,6.597c4.489,-0.863 5.922,-5.374 5.878,-8.027c-0.131,-8.196 -8.002,-14.241 -15.359,-24.746Z" style="fill-rule:nonzero;"/><path id="path7020-0-8" d="M13.729,39.923c-3.437,4.377 -7.115,6.896 -7.176,10.311c-0.021,1.106 0.649,2.985 2.746,3.345c1.361,0.232 3.234,-0.751 3.273,-2.749c-0.008,-0.398 0.471,-0.387 0.467,0.158c-0.064,1.576 -0.623,3.41 -1.562,4.904l4.503,0c-0.939,-1.494 -1.497,-3.328 -1.561,-4.904c-0.008,-0.545 0.473,-0.556 0.467,-0.158c0.039,1.998 1.912,2.981 3.273,2.749c2.097,-0.36 2.766,-2.239 2.746,-3.345c-0.062,-3.415 -3.739,-5.934 -7.176,-10.311Z" style="fill-rule:nonzero;"/><path id="path7024-7-1" d="M164.272,209.077c-3.438,-4.377 -7.115,-6.896 -7.176,-10.311c-0.021,-1.106 0.649,-2.985 2.746,-3.345c1.36,-0.232 3.234,0.751 3.273,2.749c-0.008,0.398 0.471,0.387 0.467,-0.158c-0.064,-1.575 -0.623,-3.41 -1.562,-4.903l4.503,0c-0.939,1.493 -1.498,3.328 -1.562,4.903c-0.008,0.545 0.474,0.556 0.468,0.158c0.039,-1.998 1.912,-2.981 3.273,-2.749c2.097,0.36 2.766,2.239 2.746,3.345c-0.062,3.415 -3.739,5.934 -7.176,10.311Z" style="fill-rule:nonzero;"/><path id="path7026-2-6" d="M130.278,26.128c-7.357,10.505 -15.228,16.55 -15.359,24.746c-0.044,2.653 1.389,7.164 5.877,8.027c2.913,0.558 6.922,-1.802 7.006,-6.597c-0.013,-0.954 1.009,-0.929 0.999,0.379c-0.137,3.781 -1.332,8.185 -3.342,11.769l9.638,0c-2.01,-3.584 -3.205,-7.988 -3.343,-11.769c-0.009,-1.308 1.013,-1.333 1,-0.379c0.084,4.795 4.093,7.155 7.005,6.597c4.489,-0.863 5.922,-5.374 5.878,-8.027c-0.131,-8.196 -8.002,-14.241 -15.359,-24.746Z" style="fill-rule:nonzero;"/><path id="path7036-9-6" d="M47.722,105.338c-7.357,10.505 -15.228,16.55 -15.359,24.745c-0.044,2.654 1.389,7.165 5.878,8.028c2.912,0.558 6.921,-1.802 7.005,-6.597c-0.013,-0.954 1.009,-0.929 0.999,0.379c-0.137,3.781 -1.332,8.185 -3.342,11.769l9.638,0c-2.01,-3.584 -3.205,-7.988 -3.343,-11.769c-0.009,-1.308 1.013,-1.333 1,-0.379c0.084,4.795 4.093,7.155 7.005,6.597c4.489,-0.863 5.922,-5.374 5.878,-8.028c-0.131,-8.195 -8.002,-14.24 -15.359,-24.745Z" style="fill-rule:nonzero;"/><path id="path7038-9-6" d="M47.722,222.872c-7.357,-10.505 -15.228,-16.55 -15.359,-24.746c-0.044,-2.653 1.389,-7.164 5.878,-8.027c2.912,-0.558 6.921,1.802 7.005,6.597c-0.013,0.954 1.009,0.929 0.999,-0.379c-0.137,-3.781 -1.332,-8.185 -3.342,-11.769l9.638,0c-2.01,3.584 -3.205,7.988 -3.343,11.769c-0.009,1.308 1.013,1.333 1,0.379c0.084,-4.795 4.093,-7.155 7.005,-6.597c4.489,0.863 5.922,5.374 5.878,8.027c-0.131,8.196 -8.002,14.241 -15.359,24.746Z" style="fill-rule:nonzero;"/><path id="path7040-0-9" d="M130.278,222.872c-7.357,-10.505 -15.228,-16.55 -15.359,-24.746c-0.044,-2.653 1.389,-7.164 5.877,-8.027c2.913,-0.558 6.922,1.802 7.006,6.597c-0.013,0.954 1.009,0.929 0.999,-0.379c-0.137,-3.781 -1.332,-8.185 -3.342,-11.769l9.638,0c-2.01,3.584 -3.205,7.988 -3.343,11.769c-0.009,1.308 1.013,1.333 1,0.379c0.084,-4.795 4.093,-7.155 7.005,-6.597c4.489,0.863 5.922,5.374 5.878,8.027c-0.131,8.196 -8.002,14.241 -15.359,24.746Z" style="fill-rule:nonzero;"/><path id="path7050-2-9" d="M130.278,105.338c-7.357,10.505 -15.228,16.55 -15.359,24.745c-0.044,2.654 1.389,7.165 5.877,8.028c2.913,0.558 6.922,-1.802 7.006,-6.597c-0.013,-0.954 1.009,-0.929 0.999,0.379c-0.137,3.781 -1.332,8.185 -3.342,11.769l9.638,0c-2.01,-3.584 -3.205,-7.988 -3.343,-11.769c-0.009,-1.308 1.013,-1.333 1,-0.379c0.084,4.795 4.093,7.155 7.005,6.597c4.489,-0.863 5.922,-5.374 5.878,-8.028c-0.131,-8.195 -8.002,-14.24 -15.359,-24.745Z" style="fill-rule:nonzero;"/><path id="path23-1-9-8" d="M6,29.314c-0.324,-2.217 -0.316,-7.95 -0.051,-9.646c0.817,-5.195 2.799,-7.572 6.118,-8.348c3.225,-0.756 7.754,0.086 8.747,4.428l-2.695,0.052c-1.458,-2.935 -5.146,-2.151 -7.224,-0.874c-1.658,1.018 -2.408,5.265 -2.087,5.527c0,0 3.135,-2.325 5.607,-2.154c5.282,0.551 7.461,5.138 7.276,9.468c-0.168,5.21 -1.818,9.376 -7.416,9.653c-5.323,-0.206 -7.762,-3.111 -8.275,-8.106l0,0Zm13.128,-1.376c0.028,-3.614 -1.61,-6.323 -4.713,-6.62c-3.1,-0.299 -6.228,2.731 -6.012,6.415c0.217,3.7 1.647,6.813 5.407,6.796c4.044,-0.016 5.298,-4.018 5.318,-6.591Z" style="fill-rule:nonzero;"/><path id="path23-1-5-6-4" d="M171.998,219.686c0.324,2.218 0.316,7.95 0.051,9.646c-0.817,5.195 -2.799,7.572 -6.118,8.348c-3.225,0.756 -7.754,-0.085 -8.747,-4.428l2.695,-0.052c1.458,2.936 5.146,2.151 7.224,0.874c1.658,-1.017 2.408,-5.265 2.087,-5.527c0,0 -3.135,2.326 -5.607,2.154c-5.282,-0.551 -7.46,-5.138 -7.276,-9.468c0.168,-5.21 1.818,-9.376 7.416,-9.653c5.323,0.206 7.762,3.111 8.275,8.106l0,0Zm-13.128,1.376c-0.028,3.614 1.61,6.323 4.713,6.62c3.1,0.299 6.228,-2.731 6.012,-6.415c-0.216,-3.7 -1.647,-6.813 -5.407,-6.796c-4.044,0.016 -5.298,4.018 -5.318,6.591Z" style="fill-rule:nonzero;"/></g></g></svg>