<?xml version="1.0" encoding="UTF-8" standalone="no"?>
<!DOCTYPE svg PUBLIC "-//W3C//DTD SVG 1.1//EN" "http://www.w3.org/Graphics/SVG/1.1/DTD/svg11.dtd">
<svg width="100%" height="100%" viewBox="0 0 182 253" version="1.1" xmlns="http://www.w3.org/2000/svg" xmlns:xlink="http://www.w3.org/1999/xlink" xml:space="preserve" xmlns:serif="http://www.serif.com/" style="fill-rule:evenodd;clip-rule:evenodd;">
    <g transform="matrix(1,0,0,1,-1098,-34)">
        <g transform="matrix(1,0,0,1,-328,1179.11)">
            <g id="_6_clubs" serif:id="6_clubs" transform="matrix(0.999997,0,0,1,0.802397,-272.411)">
                <path id="rect6355-6-85-3-2-3-6" d="M1605.51,-862.192C1605.51,-866.885 1601.7,-870.696 1597.01,-870.696L1436.23,-870.696C1431.54,-870.696 1427.73,-866.885 1427.73,-862.192L1427.73,-630.549C1427.73,-625.855 1431.54,-622.045 1436.23,-622.045L1597.01,-622.045C1601.7,-622.045 1605.51,-625.855 1605.51,-630.549L1605.51,-862.192Z" style="fill:white;stroke:black;stroke-width:0.8px;"/>
                <path id="path147-0-8-1-6-13-2-5-7-1" d="M1557.85,-844.292C1550.03,-844.122 1546.52,-835.318 1552.31,-828.481C1553.15,-827.484 1553.24,-826.912 1551.7,-827.87C1547.8,-830.477 1540.32,-828.763 1539.94,-820.792C1539.47,-810.97 1553.19,-808.14 1555.77,-818.584C1555.9,-819.686 1556.8,-819.661 1556.58,-818.097C1556.35,-813.852 1555.02,-809.884 1553.2,-806.015L1562.5,-806.015C1560.67,-809.884 1559.35,-813.852 1559.11,-818.097C1558.9,-819.661 1559.79,-819.686 1559.93,-818.584C1562.51,-808.14 1576.23,-810.97 1575.76,-820.792C1575.37,-828.763 1567.9,-830.477 1564,-827.87C1562.46,-826.912 1562.55,-827.484 1563.39,-828.481C1569.18,-835.318 1565.67,-844.122 1557.85,-844.292C1557.85,-844.292 1557.85,-844.292 1557.84,-844.292L1557.85,-844.292Z" style="fill-rule:nonzero;"/>
                <path id="path147-0-8-1-6-75-2-83-8-8-7" d="M1475.39,-844.292C1467.57,-844.122 1464.06,-835.318 1469.85,-828.481C1470.69,-827.484 1470.78,-826.912 1469.24,-827.87C1465.34,-830.477 1457.87,-828.763 1457.48,-820.792C1457.01,-810.97 1470.73,-808.14 1473.31,-818.584C1473.45,-819.686 1474.34,-819.661 1474.13,-818.097C1473.89,-813.852 1472.57,-809.884 1470.74,-806.015L1480.04,-806.015C1478.22,-809.884 1476.89,-813.852 1476.66,-818.097C1476.44,-819.661 1477.34,-819.686 1477.47,-818.584C1480.05,-808.14 1493.77,-810.97 1493.3,-820.792C1492.92,-828.763 1485.44,-830.477 1481.54,-827.87C1480,-826.912 1480.09,-827.484 1480.93,-828.481C1486.72,-835.318 1483.21,-844.122 1475.39,-844.292C1475.39,-844.292 1475.39,-844.292 1475.39,-844.292L1475.39,-844.292Z" style="fill-rule:nonzero;"/>
                <path id="path147-0-8-1-6-7-5-5-7-8-7-8" d="M1557.85,-647.785C1550.03,-647.955 1546.52,-656.759 1552.31,-663.596C1553.15,-664.593 1553.24,-665.165 1551.7,-664.208C1547.8,-661.6 1540.32,-663.314 1539.94,-671.285C1539.47,-681.107 1553.19,-683.937 1555.77,-673.493C1555.9,-672.391 1556.8,-672.416 1556.58,-673.98C1556.35,-678.226 1555.02,-682.193 1553.2,-686.063L1562.5,-686.063C1560.67,-682.193 1559.35,-678.226 1559.11,-673.98C1558.9,-672.416 1559.79,-672.391 1559.93,-673.493C1562.51,-683.937 1576.23,-681.107 1575.76,-671.285C1575.37,-663.314 1567.9,-661.6 1564,-664.208C1562.46,-665.165 1562.55,-664.593 1563.39,-663.596C1569.18,-656.759 1565.67,-647.955 1557.85,-647.785C1557.85,-647.785 1557.85,-647.785 1557.84,-647.785L1557.85,-647.785Z" style="fill-rule:nonzero;"/>
                <path id="path147-0-8-1-6-75-6-1-2-0-6-8" d="M1475.39,-647.785C1467.57,-647.955 1464.06,-656.759 1469.85,-663.596C1470.69,-664.593 1470.78,-665.165 1469.24,-664.208C1465.34,-661.6 1457.87,-663.314 1457.48,-671.285C1457.01,-681.107 1470.73,-683.937 1473.31,-673.493C1473.45,-672.391 1474.34,-672.416 1474.13,-673.98C1473.89,-678.226 1472.57,-682.193 1470.74,-686.063L1480.04,-686.063C1478.22,-682.193 1476.89,-678.226 1476.66,-673.98C1476.44,-672.416 1477.34,-672.391 1477.47,-673.493C1480.05,-683.937 1493.77,-681.107 1493.3,-671.285C1492.92,-663.314 1485.44,-661.6 1481.54,-664.208C1480,-665.165 1480.09,-664.593 1480.93,-663.596C1486.72,-656.759 1483.21,-647.955 1475.39,-647.785C1475.39,-647.785 1475.39,-647.785 1475.39,-647.785L1475.39,-647.785Z" style="fill-rule:nonzero;"/>
                <path id="path147-0-8-1-6-7-5-7-3-0-9-6-4" d="M1557.85,-765.177C1550.03,-765.007 1546.52,-756.203 1552.31,-749.367C1553.15,-748.369 1553.24,-747.797 1551.7,-748.755C1547.8,-751.362 1540.32,-749.648 1539.94,-741.677C1539.47,-731.856 1553.19,-729.026 1555.77,-739.469C1555.9,-740.571 1556.8,-740.546 1556.58,-738.982C1556.35,-734.737 1555.02,-730.769 1553.2,-726.9L1562.5,-726.9C1560.67,-730.769 1559.35,-734.737 1559.11,-738.982C1558.9,-740.546 1559.79,-740.571 1559.93,-739.469C1562.51,-729.026 1576.23,-731.856 1575.76,-741.677C1575.37,-749.648 1567.9,-751.362 1564,-748.755C1562.46,-747.797 1562.55,-748.369 1563.39,-749.367C1569.18,-756.203 1565.67,-765.007 1557.85,-765.177C1557.85,-765.177 1557.85,-765.177 1557.84,-765.177L1557.85,-765.177Z" style="fill-rule:nonzero;"/>
                <path id="path147-0-8-1-6-75-6-6-5-3-0-0-2" d="M1475.39,-765.177C1467.57,-765.007 1464.06,-756.203 1469.85,-749.367C1470.69,-748.369 1470.78,-747.797 1469.24,-748.755C1465.34,-751.362 1457.87,-749.648 1457.48,-741.677C1457.01,-731.856 1470.73,-729.026 1473.31,-739.469C1473.45,-740.571 1474.34,-740.546 1474.13,-738.982C1473.89,-734.737 1472.57,-730.769 1470.74,-726.9L1480.04,-726.9C1478.22,-730.769 1476.89,-734.737 1476.66,-738.982C1476.44,-740.546 1477.34,-740.571 1477.47,-739.469C1480.05,-729.026 1493.77,-731.856 1493.3,-741.677C1492.92,-749.648 1485.44,-751.362 1481.54,-748.755C1480,-747.797 1480.09,-748.369 1480.93,-749.367C1486.72,-756.203 1483.21,-765.007 1475.39,-765.177C1475.39,-765.177 1475.39,-765.177 1475.39,-765.177L1475.39,-765.177Z" style="fill-rule:nonzero;"/>
                <path id="path147-6-9-8-7-0-5-6-4-2-8" d="M1591.8,-661.895C1594.93,-661.966 1596.33,-665.634 1594.02,-668.483C1593.68,-668.899 1593.65,-669.137 1594.26,-668.738C1595.82,-667.652 1598.81,-668.366 1598.96,-671.687C1599.15,-675.779 1593.66,-676.958 1592.63,-672.607C1592.58,-672.148 1592.22,-672.158 1592.31,-672.81C1592.4,-674.579 1592.93,-676.232 1593.66,-677.844L1589.94,-677.844C1590.67,-676.232 1591.2,-674.579 1591.3,-672.81C1591.38,-672.158 1591.02,-672.148 1590.97,-672.607C1589.94,-676.958 1584.45,-675.779 1584.64,-671.687C1584.79,-668.366 1587.78,-667.652 1589.34,-668.738C1589.96,-669.137 1589.92,-668.899 1589.59,-668.483C1587.27,-665.634 1588.67,-661.966 1591.8,-661.895C1591.8,-661.895 1591.8,-661.895 1591.8,-661.895L1591.8,-661.895Z" style="fill-rule:nonzero;"/>
                <path id="path147-6-9-8-7-4-5-62-0-2-9" d="M1441.44,-830.845C1438.31,-830.774 1436.91,-827.106 1439.22,-824.257C1439.56,-823.842 1439.6,-823.603 1438.98,-824.002C1437.42,-825.089 1434.43,-824.374 1434.28,-821.053C1434.09,-816.961 1439.58,-815.782 1440.61,-820.133C1440.66,-820.592 1441.02,-820.582 1440.93,-819.93C1440.84,-818.161 1440.31,-816.508 1439.58,-814.896L1443.3,-814.896C1442.57,-816.508 1442.04,-818.161 1441.94,-819.93C1441.86,-820.582 1442.22,-820.592 1442.27,-820.133C1443.3,-815.782 1448.79,-816.961 1448.6,-821.053C1448.45,-824.374 1445.46,-825.089 1443.9,-824.002C1443.28,-823.603 1443.32,-823.842 1443.65,-824.257C1445.97,-827.106 1444.57,-830.774 1441.44,-830.845C1441.44,-830.845 1441.44,-830.845 1441.44,-830.845L1441.44,-830.845Z" style="fill-rule:nonzero;"/>
                <path id="path23-8-1-4" d="M1433.72,-841.441C1433.4,-843.656 1433.4,-849.382 1433.67,-851.076C1434.49,-856.264 1436.46,-858.639 1439.78,-859.414C1443,-860.169 1447.52,-859.328 1448.52,-854.992L1445.82,-854.94C1444.37,-857.872 1440.68,-857.089 1438.61,-855.812C1436.95,-854.796 1436.2,-850.554 1436.53,-850.293C1436.53,-850.293 1439.66,-852.615 1442.12,-852.444C1447.4,-851.893 1449.58,-847.312 1449.39,-842.987C1449.22,-837.784 1447.58,-833.622 1441.98,-833.346C1436.67,-833.551 1434.23,-836.453 1433.72,-841.442L1433.72,-841.441ZM1446.83,-842.816C1446.86,-846.426 1445.22,-849.131 1442.12,-849.428C1439.03,-849.726 1435.9,-846.7 1436.12,-843.02C1436.34,-839.325 1437.77,-836.216 1441.52,-836.233C1445.56,-836.249 1446.81,-840.246 1446.83,-842.816Z" style="fill-rule:nonzero;"/>
                <path id="path23-6-8-9-6" d="M1599.52,-651.299C1599.84,-649.084 1599.83,-643.359 1599.57,-641.665C1598.75,-636.476 1596.77,-634.101 1593.46,-633.327C1590.24,-632.572 1585.71,-633.412 1584.72,-637.749L1587.41,-637.801C1588.87,-634.869 1592.55,-635.652 1594.63,-636.928C1596.29,-637.944 1597.03,-642.187 1596.71,-642.448C1596.71,-642.448 1593.58,-640.125 1591.11,-640.297C1585.84,-640.847 1583.66,-645.428 1583.85,-649.753C1584.01,-654.957 1585.66,-659.118 1591.25,-659.395C1596.57,-659.189 1599.01,-656.287 1599.52,-651.299L1599.52,-651.299ZM1586.41,-649.925C1586.38,-646.315 1588.01,-643.609 1591.11,-643.313C1594.21,-643.014 1597.33,-646.04 1597.12,-649.72C1596.9,-653.416 1595.47,-656.525 1591.72,-656.508C1587.68,-656.492 1586.43,-652.495 1586.41,-649.925Z" style="fill-rule:nonzero;"/>
            </g>
        </g>
    </g>
</svg>
