<?xml version="1.0" encoding="UTF-8" standalone="no"?>
<!DOCTYPE svg PUBLIC "-//W3C//DTD SVG 1.1//EN" "http://www.w3.org/Graphics/SVG/1.1/DTD/svg11.dtd">
<svg width="100%" height="100%" viewBox="0 0 182 253" version="1.1" xmlns="http://www.w3.org/2000/svg" xmlns:xlink="http://www.w3.org/1999/xlink" xml:space="preserve" xmlns:serif="http://www.serif.com/" style="fill-rule:evenodd;clip-rule:evenodd;">
    <g transform="matrix(1,0,0,1,-1098,-878)">
        <g transform="matrix(1,0,0,1,-328,1179.11)">
            <g id="_6_diamonds" serif:id="6_diamonds" transform="matrix(0.995535,0,0,0.996803,7.56996,-274.482)">
                <path id="rect6758-6" d="M1605.91,-15.786C1605.91,-20.516 1602.07,-24.356 1597.33,-24.356L1435.91,-24.356C1431.17,-24.356 1427.33,-20.516 1427.33,-15.786L1427.33,216.523C1427.33,221.253 1431.17,225.093 1435.91,225.093L1597.33,225.093C1602.07,225.093 1605.91,221.253 1605.91,216.523L1605.91,-15.786Z" style="fill:white;stroke:black;stroke-width:0.8px;"/>
                <path id="path6790-5" d="M1441.1,31.623C1439.37,28.768 1437.56,25.993 1435.28,23.623C1437.56,21.252 1439.37,18.478 1441.1,15.623C1442.83,18.478 1444.65,21.252 1446.92,23.623C1444.65,25.993 1442.83,28.768 1441.1,31.623Z" style="fill:rgb(212,0,0);fill-rule:nonzero;"/>
                <path id="path6792-5" d="M1558.03,40.2C1553.88,33.348 1549.52,26.689 1544.06,21C1549.52,15.311 1553.88,8.652 1558.03,1.8C1562.18,8.652 1566.55,15.311 1572,21C1566.55,26.689 1562.18,33.348 1558.03,40.2Z" style="fill:rgb(212,0,0);fill-rule:nonzero;"/>
                <path id="path6794-1" d="M1592.14,185.114C1590.41,182.26 1588.59,179.485 1586.32,177.114C1588.59,174.744 1590.41,171.969 1592.14,169.114C1593.87,171.969 1595.68,174.744 1597.96,177.114C1595.68,179.485 1593.87,182.26 1592.14,185.114Z" style="fill:rgb(212,0,0);fill-rule:nonzero;"/>
                <path id="path6796-2" d="M1475.21,40.2C1471.06,33.348 1466.69,26.689 1461.24,21C1466.69,15.311 1471.06,8.652 1475.21,1.8C1479.36,8.652 1483.72,15.311 1489.18,21C1483.72,26.689 1479.36,33.348 1475.21,40.2Z" style="fill:rgb(212,0,0);fill-rule:nonzero;"/>
                <path id="path6806-6" d="M1475.21,119.543C1471.06,112.691 1466.69,106.031 1461.24,100.343C1466.69,94.654 1471.06,87.995 1475.21,81.143C1479.36,87.995 1483.72,94.654 1489.18,100.343C1483.72,106.031 1479.36,112.691 1475.21,119.543Z" style="fill:rgb(212,0,0);fill-rule:nonzero;"/>
                <path id="path6808-6" d="M1558.03,119.555C1553.88,112.703 1549.52,106.044 1544.06,100.355C1549.52,94.666 1553.88,88.007 1558.03,81.155C1562.18,88.007 1566.55,94.666 1572,100.355C1566.55,106.044 1562.18,112.703 1558.03,119.555Z" style="fill:rgb(212,0,0);fill-rule:nonzero;"/>
                <path id="path6812-0" d="M1475.21,198.941C1471.06,192.089 1466.69,185.43 1461.24,179.741C1466.69,174.052 1471.06,167.393 1475.21,160.541C1479.36,167.393 1483.72,174.052 1489.18,179.741C1483.72,185.43 1479.36,192.089 1475.21,198.941Z" style="fill:rgb(212,0,0);fill-rule:nonzero;"/>
                <path id="path6814-4" d="M1558.03,198.947C1553.88,192.095 1549.52,185.435 1544.06,179.747C1549.52,174.058 1553.88,167.399 1558.03,160.547C1562.18,167.399 1566.55,174.058 1572,179.747C1566.55,185.435 1562.18,192.095 1558.03,198.947Z" style="fill:rgb(212,0,0);fill-rule:nonzero;"/>
                <path id="path23-5-3-5-5" d="M1433.35,4.992C1433.02,2.77 1433.03,-2.974 1433.3,-4.673C1434.12,-9.879 1436.11,-12.261 1439.44,-13.038C1442.67,-13.796 1447.21,-12.952 1448.21,-8.602L1445.51,-8.549C1444.05,-11.49 1440.34,-10.705 1438.26,-9.425C1436.6,-8.405 1435.84,-4.149 1436.17,-3.887C1436.17,-3.887 1439.31,-6.217 1441.79,-6.045C1447.09,-5.493 1449.28,-0.897 1449.09,3.442C1448.92,8.662 1447.27,12.837 1441.65,13.114C1436.31,12.908 1433.86,9.997 1433.35,4.992L1433.35,4.992ZM1446.52,3.613C1446.55,-0.008 1444.9,-2.722 1441.79,-3.02C1438.68,-3.32 1435.54,-0.284 1435.76,3.408C1435.98,7.116 1437.41,10.234 1441.18,10.217C1445.24,10.201 1446.5,6.192 1446.52,3.613Z" style="fill:rgb(212,0,0);fill-rule:nonzero;"/>
                <path id="path23-6-5-6-6" d="M1599.89,195.745C1600.22,197.967 1600.21,203.711 1599.94,205.41C1599.12,210.615 1597.13,212.997 1593.8,213.775C1590.57,214.532 1586.02,213.689 1585.03,209.338L1587.73,209.286C1589.19,212.228 1592.89,211.442 1594.98,210.162C1596.64,209.143 1597.39,204.886 1597.07,204.624C1597.07,204.624 1593.93,206.954 1591.45,206.782C1586.15,206.23 1583.96,201.635 1584.15,197.295C1584.32,192.075 1585.97,187.901 1591.59,187.623C1596.93,187.829 1599.38,190.741 1599.89,195.745L1599.89,195.745ZM1586.72,197.123C1586.69,200.745 1588.33,203.459 1591.45,203.757C1594.56,204.056 1597.7,201.02 1597.48,197.329C1597.26,193.621 1595.83,190.502 1592.05,190.519C1588,190.535 1586.74,194.545 1586.72,197.123Z" style="fill:rgb(212,0,0);fill-rule:nonzero;"/>
            </g>
        </g>
    </g>
</svg>
