<?xml version="1.0" encoding="UTF-8" standalone="no"?>
<!DOCTYPE svg PUBLIC "-//W3C//DTD SVG 1.1//EN" "http://www.w3.org/Graphics/SVG/1.1/DTD/svg11.dtd">
<svg width="100%" height="100%" viewBox="0 0 182 253" version="1.1" xmlns="http://www.w3.org/2000/svg" xmlns:xlink="http://www.w3.org/1999/xlink" xml:space="preserve" xmlns:serif="http://www.serif.com/" style="fill-rule:evenodd;clip-rule:evenodd;">
    <g transform="matrix(1,0,0,1,-1098,-315)">
        <g transform="matrix(1,0,0,1,-328,1179.11)">
            <g id="_6_hearts" serif:id="6_hearts" transform="matrix(0.995538,0,0,0.996801,-59.6975,-13.1813)">
                <g id="_5D" serif:id="5D" transform="matrix(1,0,0,1,1286.55,-1147.42)">
                    <path id="rect10006-6-1" d="M386.929,304.79C386.929,300.06 383.084,296.22 378.349,296.22L216.927,296.22C212.191,296.22 208.346,300.06 208.346,304.79L208.346,537.1C208.346,541.829 212.191,545.669 216.927,545.669L378.349,545.669C383.084,545.669 386.929,541.829 386.929,537.1L386.929,304.79Z" style="fill:white;stroke:black;stroke-width:0.8px;"/>
                </g>
                <g id="path10038-5-0" transform="matrix(1,0,0,1,1584.98,-683.124)">
                    <path d="M-76.318,-112.097C-76.318,-112.097 -78.097,-114.649 -80.498,-117.649C-82.104,-119.657 -83.388,-121.831 -83.508,-123.703C-83.645,-125.843 -82.348,-127.989 -80.002,-128.093C-77.657,-128.197 -76.705,-126.443 -76.318,-124.998C-75.93,-126.443 -74.978,-128.197 -72.633,-128.093C-70.287,-127.989 -68.99,-125.843 -69.127,-123.703C-69.247,-121.831 -70.531,-119.657 -72.137,-117.649C-74.538,-114.649 -76.318,-112.097 -76.318,-112.097Z" style="fill:rgb(212,0,0);fill-rule:nonzero;"/>
                </g>
                <g id="path10040-7-6" transform="matrix(1,0,0,1,1584.98,-683.124)">
                    <path d="M74.718,25.395C74.718,25.395 72.938,27.947 70.538,30.947C68.931,32.955 67.647,35.129 67.528,37.001C67.391,39.14 68.687,41.286 71.034,41.39C73.379,41.494 74.331,39.741 74.718,38.295C75.106,39.741 76.058,41.494 78.403,41.39C80.749,41.286 82.045,39.14 81.908,37.001C81.789,35.129 80.505,32.955 78.899,30.947C76.498,27.947 74.718,25.395 74.718,25.395Z" style="fill:rgb(212,0,0);fill-rule:nonzero;"/>
                </g>
                <g id="path10046-1-1" transform="matrix(1,0,0,1,1584.98,-683.124)">
                    <path d="M-42.213,-103.52C-42.213,-103.52 -45.946,-109.644 -50.982,-116.845C-54.351,-121.663 -57.044,-126.881 -57.294,-131.375C-57.582,-136.509 -54.863,-141.659 -49.941,-141.909C-45.022,-142.159 -43.026,-137.951 -42.213,-134.481C-41.4,-137.951 -39.404,-142.159 -34.485,-141.909C-29.563,-141.659 -26.845,-136.509 -27.132,-131.375C-27.382,-126.881 -30.076,-121.663 -33.444,-116.845C-38.48,-109.644 -42.213,-103.52 -42.213,-103.52Z" style="fill:rgb(212,0,0);fill-rule:nonzero;"/>
                </g>
                <g id="path10048-2-0" transform="matrix(1,0,0,1,1584.98,-683.124)">
                    <path d="M40.613,-24.151C40.613,-24.151 36.88,-30.276 31.844,-37.476C28.476,-42.295 25.782,-47.512 25.532,-52.007C25.245,-57.141 27.963,-62.291 32.885,-62.541C37.804,-62.79 39.8,-58.582 40.613,-55.113C41.426,-58.582 43.422,-62.79 48.341,-62.541C53.263,-62.291 55.982,-57.141 55.694,-52.007C55.444,-47.512 52.751,-42.295 49.382,-37.476C44.346,-30.276 40.613,-24.151 40.613,-24.151Z" style="fill:rgb(212,0,0);fill-rule:nonzero;"/>
                </g>
                <g id="path10052-3-1" transform="matrix(1,0,0,1,1584.98,-683.124)">
                    <path d="M40.613,-103.52C40.613,-103.52 36.88,-109.644 31.844,-116.845C28.476,-121.663 25.782,-126.881 25.532,-131.375C25.245,-136.509 27.963,-141.659 32.885,-141.909C37.804,-142.159 39.8,-137.951 40.613,-134.481C41.426,-137.951 43.422,-142.159 48.341,-141.909C53.263,-141.659 55.982,-136.509 55.694,-131.375C55.444,-126.881 52.751,-121.663 49.382,-116.845C44.346,-109.644 40.613,-103.52 40.613,-103.52Z" style="fill:rgb(212,0,0);fill-rule:nonzero;"/>
                </g>
                <g id="path10056-4-2" transform="matrix(1,0,0,1,1584.98,-683.124)">
                    <path d="M-42.213,-24.151C-42.213,-24.151 -45.946,-30.276 -50.982,-37.476C-54.351,-42.295 -57.044,-47.512 -57.294,-52.007C-57.582,-57.141 -54.863,-62.291 -49.941,-62.541C-45.022,-62.79 -43.026,-58.582 -42.213,-55.113C-41.4,-58.582 -39.404,-62.79 -34.485,-62.541C-29.563,-62.291 -26.845,-57.141 -27.132,-52.007C-27.382,-47.512 -30.076,-42.295 -33.444,-37.476C-38.48,-30.276 -42.213,-24.151 -42.213,-24.151Z" style="fill:rgb(212,0,0);fill-rule:nonzero;"/>
                </g>
                <g id="path10066-9-2" transform="matrix(1,0,0,1,1584.98,-683.124)">
                    <path d="M40.613,16.817C40.613,16.817 36.88,22.942 31.844,30.142C28.476,34.961 25.782,40.179 25.532,44.673C25.245,49.807 27.963,54.957 32.885,55.207C37.804,55.456 39.8,51.248 40.613,47.779C41.426,51.248 43.422,55.456 48.341,55.207C53.263,54.957 55.982,49.807 55.694,44.673C55.444,40.179 52.751,34.961 49.382,30.142C44.346,22.942 40.613,16.817 40.613,16.817Z" style="fill:rgb(212,0,0);fill-rule:nonzero;"/>
                </g>
                <g id="path10068-1-2" transform="matrix(1,0,0,1,1584.98,-683.124)">
                    <path d="M-42.213,16.817C-42.213,16.817 -45.946,22.942 -50.982,30.142C-54.351,34.961 -57.044,40.179 -57.294,44.673C-57.582,49.807 -54.863,54.957 -49.941,55.207C-45.022,55.456 -43.026,51.248 -42.213,47.779C-41.4,51.248 -39.404,55.456 -34.485,55.207C-29.563,54.957 -26.845,49.807 -27.132,44.673C-27.382,40.179 -30.076,34.961 -33.444,30.142C-38.48,22.942 -42.213,16.817 -42.213,16.817Z" style="fill:rgb(212,0,0);fill-rule:nonzero;"/>
                </g>
                <path id="path23-5-2-7-3" d="M1500.91,-821.852C1500.59,-824.074 1500.6,-829.818 1500.86,-831.517C1501.68,-836.722 1503.67,-839.104 1507,-839.882C1510.24,-840.639 1514.78,-839.796 1515.78,-835.445L1513.07,-835.393C1511.61,-838.335 1507.91,-837.549 1505.82,-836.269C1504.16,-835.25 1503.41,-830.993 1503.73,-830.731C1503.73,-830.731 1506.88,-833.061 1509.36,-832.89C1514.65,-832.337 1516.84,-827.742 1516.65,-823.402C1516.49,-818.182 1514.83,-814.008 1509.21,-813.73C1503.88,-813.936 1501.43,-816.848 1500.91,-821.852L1500.91,-821.852ZM1514.08,-823.23C1514.11,-826.852 1512.47,-829.566 1509.36,-829.864C1506.25,-830.163 1503.11,-827.127 1503.32,-823.436C1503.54,-819.728 1504.98,-816.609 1508.75,-816.626C1512.81,-816.642 1514.06,-820.652 1514.08,-823.23Z" style="fill:rgb(212,0,0);fill-rule:nonzero;"/>
                <path id="path23-6-5-1-7-1" d="M1667.45,-631.099C1667.78,-628.877 1667.77,-623.133 1667.51,-621.434C1666.69,-616.229 1664.7,-613.847 1661.37,-613.069C1658.13,-612.312 1653.59,-613.155 1652.59,-617.506L1655.3,-617.558C1656.76,-614.616 1660.46,-615.402 1662.54,-616.682C1664.21,-617.701 1664.96,-621.958 1664.64,-622.22C1664.64,-622.22 1661.49,-619.89 1659.01,-620.062C1653.71,-620.614 1651.53,-625.209 1651.71,-629.549C1651.88,-634.769 1653.54,-638.943 1659.15,-639.221C1664.49,-639.015 1666.94,-636.103 1667.45,-631.099L1667.45,-631.099ZM1654.28,-629.721C1654.26,-626.099 1655.9,-623.385 1659.01,-623.087C1662.12,-622.788 1665.26,-625.824 1665.04,-629.515C1664.83,-633.223 1663.39,-636.342 1659.62,-636.325C1655.56,-636.309 1654.3,-632.299 1654.28,-629.721Z" style="fill:rgb(212,0,0);fill-rule:nonzero;"/>
            </g>
        </g>
    </g>
</svg>
