<?xml version="1.0" encoding="UTF-8" standalone="no"?>
<!DOCTYPE svg PUBLIC "-//W3C//DTD SVG 1.1//EN" "http://www.w3.org/Graphics/SVG/1.1/DTD/svg11.dtd">
<svg width="100%" height="100%" viewBox="0 0 182 253" version="1.1" xmlns="http://www.w3.org/2000/svg" xmlns:xlink="http://www.w3.org/1999/xlink" xml:space="preserve" xmlns:serif="http://www.serif.com/" style="fill-rule:evenodd;clip-rule:evenodd;">
    <g transform="matrix(1,0,0,1,-1098,-597)">
        <g transform="matrix(1,0,0,1,-328,1179.11)">
            <g id="_6_spades" serif:id="6_spades" transform="matrix(0.995538,0,0,0.996801,-130.994,-204.289)">
                <path id="rect6988-1-0" d="M1745.09,-368.557C1745.09,-373.287 1741.25,-377.127 1736.51,-377.127L1575.09,-377.127C1570.35,-377.127 1566.51,-373.287 1566.51,-368.557L1566.51,-136.247C1566.51,-131.518 1570.35,-127.678 1575.09,-127.678L1736.51,-127.678C1741.25,-127.678 1745.09,-131.518 1745.09,-136.247L1745.09,-368.557Z" style="fill:white;stroke:black;stroke-width:0.8px;"/>
                <path id="path7018-7-4" d="M1614.39,-350.971C1607.01,-340.445 1599.11,-334.388 1598.98,-326.176C1598.93,-323.517 1600.37,-318.997 1604.88,-318.132C1607.8,-317.574 1611.82,-319.938 1611.9,-324.742C1611.89,-325.699 1612.92,-325.674 1612.91,-324.363C1612.77,-320.574 1611.57,-316.162 1609.55,-312.571L1619.22,-312.571C1617.21,-316.162 1616.01,-320.574 1615.87,-324.363C1615.86,-325.674 1616.88,-325.699 1616.87,-324.742C1616.96,-319.938 1620.98,-317.574 1623.9,-318.132C1628.4,-318.997 1629.84,-323.517 1629.8,-326.176C1629.67,-334.388 1621.77,-340.445 1614.39,-350.971Z" style="fill-rule:nonzero;"/>
                <path id="path7020-0-8" d="M1580.28,-337.148C1576.84,-332.762 1573.14,-330.238 1573.08,-326.817C1573.06,-325.709 1573.74,-323.826 1575.84,-323.465C1577.2,-323.232 1579.08,-324.218 1579.12,-326.219C1579.11,-326.618 1579.6,-326.608 1579.59,-326.062C1579.53,-324.483 1578.97,-322.644 1578.02,-321.148L1582.54,-321.148C1581.6,-322.644 1581.04,-324.483 1580.98,-326.062C1580.97,-326.608 1581.45,-326.618 1581.44,-326.219C1581.48,-324.218 1583.36,-323.232 1584.73,-323.465C1586.83,-323.826 1587.5,-325.709 1587.48,-326.817C1587.42,-330.238 1583.73,-332.762 1580.28,-337.148Z" style="fill-rule:nonzero;"/>
                <path id="path7024-7-1" d="M1731.32,-167.656C1727.87,-172.042 1724.18,-174.566 1724.12,-177.987C1724.1,-179.095 1724.77,-180.978 1726.87,-181.339C1728.24,-181.572 1730.12,-180.586 1730.16,-178.585C1730.15,-178.186 1730.63,-178.197 1730.63,-178.743C1730.56,-180.322 1730,-182.16 1729.06,-183.656L1733.58,-183.656C1732.63,-182.16 1732.08,-180.322 1732.01,-178.743C1732,-178.197 1732.49,-178.186 1732.48,-178.585C1732.52,-180.586 1734.4,-181.572 1735.76,-181.339C1737.87,-180.978 1738.54,-179.095 1738.52,-177.987C1738.46,-174.566 1734.77,-172.042 1731.32,-167.656Z" style="fill-rule:nonzero;"/>
                <path id="path7026-2-6" d="M1697.21,-350.971C1689.83,-340.445 1681.94,-334.388 1681.8,-326.176C1681.76,-323.517 1683.2,-318.997 1687.7,-318.132C1690.62,-317.574 1694.64,-319.938 1694.73,-324.742C1694.72,-325.699 1695.74,-325.674 1695.73,-324.363C1695.6,-320.574 1694.39,-316.162 1692.38,-312.571L1702.05,-312.571C1700.03,-316.162 1698.83,-320.574 1698.69,-324.363C1698.68,-325.674 1699.71,-325.699 1699.7,-324.742C1699.78,-319.938 1703.81,-317.574 1706.73,-318.132C1711.23,-318.997 1712.67,-323.517 1712.62,-326.176C1712.49,-334.388 1704.59,-340.445 1697.21,-350.971Z" style="fill-rule:nonzero;"/>
                <path id="path7036-9-6" d="M1614.39,-271.602C1607.01,-261.076 1599.11,-255.019 1598.98,-246.807C1598.93,-244.148 1600.37,-239.629 1604.88,-238.764C1607.8,-238.205 1611.82,-240.57 1611.9,-245.374C1611.89,-246.33 1612.92,-246.305 1612.91,-244.995C1612.77,-241.205 1611.57,-236.793 1609.55,-233.202L1619.22,-233.202C1617.21,-236.793 1616.01,-241.205 1615.87,-244.995C1615.86,-246.305 1616.88,-246.33 1616.87,-245.374C1616.96,-240.57 1620.98,-238.205 1623.9,-238.764C1628.4,-239.629 1629.84,-244.148 1629.8,-246.807C1629.67,-255.019 1621.77,-261.076 1614.39,-271.602Z" style="fill-rule:nonzero;"/>
                <path id="path7038-9-6" d="M1614.39,-153.834C1607.01,-164.359 1599.11,-170.416 1598.98,-178.628C1598.93,-181.287 1600.37,-185.807 1604.88,-186.672C1607.8,-187.231 1611.82,-184.866 1611.9,-180.062C1611.89,-179.106 1612.92,-179.131 1612.91,-180.441C1612.77,-184.23 1611.57,-188.642 1609.55,-192.234L1619.22,-192.234C1617.21,-188.642 1616.01,-184.23 1615.87,-180.441C1615.86,-179.131 1616.88,-179.106 1616.87,-180.062C1616.96,-184.866 1620.98,-187.231 1623.9,-186.672C1628.4,-185.807 1629.84,-181.287 1629.8,-178.628C1629.67,-170.416 1621.77,-164.359 1614.39,-153.834Z" style="fill-rule:nonzero;"/>
                <path id="path7040-0-9" d="M1697.21,-153.834C1689.83,-164.359 1681.94,-170.416 1681.8,-178.628C1681.76,-181.287 1683.2,-185.807 1687.7,-186.672C1690.62,-187.231 1694.64,-184.866 1694.73,-180.062C1694.72,-179.106 1695.74,-179.131 1695.73,-180.441C1695.6,-184.23 1694.39,-188.642 1692.38,-192.234L1702.05,-192.234C1700.03,-188.642 1698.83,-184.23 1698.69,-180.441C1698.68,-179.131 1699.71,-179.106 1699.7,-180.062C1699.78,-184.866 1703.81,-187.231 1706.73,-186.672C1711.23,-185.807 1712.67,-181.287 1712.62,-178.628C1712.49,-170.416 1704.59,-164.359 1697.21,-153.834Z" style="fill-rule:nonzero;"/>
                <path id="path7050-2-9" d="M1697.21,-271.602C1689.83,-261.076 1681.94,-255.019 1681.8,-246.807C1681.76,-244.148 1683.2,-239.629 1687.7,-238.764C1690.62,-238.205 1694.64,-240.57 1694.73,-245.374C1694.72,-246.33 1695.74,-246.305 1695.73,-244.995C1695.6,-241.205 1694.39,-236.793 1692.38,-233.202L1702.05,-233.202C1700.03,-236.793 1698.83,-241.205 1698.69,-244.995C1698.68,-246.305 1699.71,-246.33 1699.7,-245.374C1699.78,-240.57 1703.81,-238.205 1706.73,-238.764C1711.23,-239.629 1712.67,-244.148 1712.62,-246.807C1712.49,-255.019 1704.59,-261.076 1697.21,-271.602Z" style="fill-rule:nonzero;"/>
                <path id="path23-1-9-8" d="M1572.53,-347.779C1572.2,-350.001 1572.21,-355.745 1572.48,-357.444C1573.3,-362.649 1575.29,-365.031 1578.62,-365.809C1581.85,-366.566 1586.39,-365.723 1587.39,-361.372L1584.69,-361.319C1583.23,-364.261 1579.52,-363.475 1577.44,-362.195C1575.78,-361.176 1575.03,-356.919 1575.35,-356.658C1575.35,-356.658 1578.49,-358.987 1580.97,-358.816C1586.27,-358.264 1588.46,-353.668 1588.27,-349.329C1588.1,-344.108 1586.45,-339.934 1580.83,-339.656C1575.49,-339.863 1573.04,-342.774 1572.53,-347.778L1572.53,-347.779ZM1585.7,-349.157C1585.73,-352.779 1584.09,-355.493 1580.97,-355.791C1577.86,-356.09 1574.72,-353.054 1574.94,-349.363C1575.16,-345.655 1576.59,-342.536 1580.37,-342.553C1584.42,-342.569 1585.68,-346.579 1585.7,-349.157Z" style="fill-rule:nonzero;"/>
                <path id="path23-1-5-6-4" d="M1739.07,-157.026C1739.39,-154.804 1739.39,-149.06 1739.12,-147.36C1738.3,-142.155 1736.31,-139.773 1732.98,-138.995C1729.75,-138.238 1725.2,-139.081 1724.21,-143.432L1726.91,-143.485C1728.37,-140.543 1732.08,-141.329 1734.16,-142.609C1735.82,-143.628 1736.58,-147.885 1736.25,-148.147C1736.25,-148.147 1733.11,-145.817 1730.63,-145.989C1725.33,-146.541 1723.14,-151.136 1723.33,-155.476C1723.5,-160.696 1725.15,-164.87 1730.77,-165.148C1736.11,-164.942 1738.56,-162.03 1739.07,-157.026L1739.07,-157.026ZM1725.9,-155.647C1725.87,-152.025 1727.52,-149.311 1730.63,-149.014C1733.74,-148.714 1736.88,-151.75 1736.66,-155.442C1736.44,-159.149 1735.01,-162.268 1731.24,-162.251C1727.18,-162.235 1725.92,-158.225 1725.9,-155.647Z" style="fill-rule:nonzero;"/>
            </g>
        </g>
    </g>
</svg>
