<?xml version="1.0" encoding="UTF-8" standalone="no"?><!DOCTYPE svg PUBLIC "-//W3C//DTD SVG 1.1//EN" "http://www.w3.org/Graphics/SVG/1.1/DTD/svg11.dtd"><svg width="100%" height="100%" viewBox="0 0 178 249" version="1.1" xmlns="http://www.w3.org/2000/svg" xmlns:xlink="http://www.w3.org/1999/xlink" xml:space="preserve" xmlns:serif="http://www.serif.com/" style="fill-rule:evenodd;clip-rule:evenodd;stroke-linejoin:round;stroke-miterlimit:2;"><rect id="_7-clubs" serif:id="7-clubs" x="0" y="0" width="178" height="249" style="fill:none;"/><clipPath id="_clip1"><rect x="0" y="0" width="178" height="249"/></clipPath><g clip-path="url(#_clip1)"><rect x="-1066.21" y="0" width="2312.21" height="1245" style="fill:#fff;"/><g id="_7_clubs" serif:id="7_clubs"><path id="path147-0-8-1-6-13-2-0-1-5" d="M130.275,26.46c-7.829,0.17 -11.34,8.985 -5.542,15.83c0.841,0.998 0.928,1.571 -0.612,0.612c-3.904,-2.61 -11.389,-0.894 -11.773,7.087c-0.473,9.833 13.267,12.666 15.846,2.21c0.137,-1.103 1.033,-1.078 0.817,0.488c-0.235,4.25 -1.563,8.223 -3.387,12.096l9.307,0c-1.824,-3.873 -3.151,-7.846 -3.387,-12.096c-0.216,-1.566 0.681,-1.591 0.817,-0.488c2.58,10.456 16.32,7.623 15.846,-2.21c-0.383,-7.981 -7.869,-9.697 -11.772,-7.087c-1.54,0.959 -1.454,0.386 -0.613,-0.612c5.798,-6.845 2.288,-15.66 -5.541,-15.83c0,0 0,0 -0.008,0l0.002,0Z" style="fill-rule:nonzero;"/><path id="path147-0-8-1-6-75-2-83-2-0-7" d="M47.719,26.46c-7.829,0.17 -11.34,8.985 -5.542,15.83c0.841,0.998 0.928,1.571 -0.612,0.612c-3.904,-2.61 -11.389,-0.894 -11.773,7.087c-0.473,9.833 13.267,12.666 15.846,2.21c0.137,-1.103 1.033,-1.078 0.817,0.488c-0.235,4.25 -1.563,8.223 -3.387,12.096l9.307,0c-1.824,-3.873 -3.151,-7.846 -3.387,-12.096c-0.216,-1.566 0.681,-1.591 0.817,-0.488c2.58,10.456 16.32,7.623 15.846,-2.21c-0.383,-7.981 -7.869,-9.697 -11.772,-7.087c-1.54,0.959 -1.454,0.386 -0.613,-0.612c5.798,-6.845 2.288,-15.66 -5.541,-15.83c0,0 0,0 -0.008,0l0.002,0Z" style="fill-rule:nonzero;"/><path id="path147-0-8-1-6-7-5-5-7-7-7-6" d="M130.275,223.204c-7.829,-0.17 -11.34,-8.985 -5.542,-15.83c0.841,-0.998 0.928,-1.571 -0.612,-0.612c-3.904,2.611 -11.389,0.894 -11.773,-7.086c-0.473,-9.834 13.267,-12.667 15.846,-2.211c0.137,1.103 1.033,1.078 0.817,-0.488c-0.235,-4.25 -1.563,-8.222 -3.387,-12.096l9.307,0c-1.824,3.874 -3.151,7.846 -3.387,12.096c-0.216,1.566 0.681,1.591 0.817,0.488c2.58,-10.456 16.32,-7.623 15.846,2.211c-0.383,7.98 -7.869,9.697 -11.772,7.086c-1.54,-0.959 -1.454,-0.386 -0.613,0.612c5.798,6.845 2.288,15.66 -5.541,15.83c0,0 0,0 -0.008,0l0.002,0Z" style="fill-rule:nonzero;"/><path id="path147-0-8-1-6-75-6-1-2-9-1-9" d="M47.719,223.204c-7.829,-0.17 -11.34,-8.985 -5.542,-15.83c0.841,-0.998 0.928,-1.571 -0.612,-0.612c-3.904,2.611 -11.389,0.894 -11.773,-7.086c-0.473,-9.834 13.267,-12.667 15.846,-2.211c0.137,1.103 1.033,1.078 0.817,-0.488c-0.235,-4.25 -1.563,-8.222 -3.387,-12.096l9.307,0c-1.824,3.874 -3.151,7.846 -3.387,12.096c-0.216,1.566 0.681,1.591 0.817,0.488c2.58,-10.456 16.32,-7.623 15.846,2.211c-0.383,7.98 -7.869,9.697 -11.772,7.086c-1.54,-0.959 -1.454,-0.386 -0.613,0.612c5.798,6.845 2.288,15.66 -5.541,15.83c0,0 0,0 -0.008,0l0.002,0Z" style="fill-rule:nonzero;"/><path id="path147-0-8-1-6-2-00-7-2-3-4" d="M88.997,66.065c-7.829,0.17 -11.34,8.985 -5.542,15.83c0.841,0.998 0.928,1.571 -0.612,0.612c-3.904,-2.61 -11.389,-0.894 -11.772,7.087c-0.474,9.833 13.266,12.666 15.846,2.21c0.136,-1.103 1.032,-1.078 0.816,0.488c-0.235,4.25 -1.562,8.223 -3.387,12.097l9.308,0c-1.825,-3.874 -3.152,-7.847 -3.387,-12.097c-0.217,-1.566 0.68,-1.591 0.816,-0.488c2.58,10.456 16.32,7.623 15.846,-2.21c-0.383,-7.981 -7.868,-9.697 -11.772,-7.087c-1.54,0.959 -1.454,0.386 -0.613,-0.612c5.799,-6.845 2.288,-15.66 -5.541,-15.83c0,0 0,0 -0.008,0l0.002,0Z" style="fill-rule:nonzero;"/><path id="path147-0-8-1-6-7-5-7-3-0-1-7-4" d="M130.275,105.67c-7.829,0.17 -11.34,8.985 -5.542,15.83c0.841,0.999 0.928,1.571 -0.612,0.612c-3.904,-2.61 -11.389,-0.894 -11.773,7.087c-0.473,9.833 13.267,12.667 15.846,2.21c0.137,-1.103 1.033,-1.078 0.817,0.488c-0.235,4.25 -1.563,8.223 -3.387,12.097l9.307,0c-1.824,-3.874 -3.151,-7.847 -3.387,-12.097c-0.216,-1.566 0.681,-1.591 0.817,-0.488c2.58,10.457 16.32,7.623 15.846,-2.21c-0.383,-7.981 -7.869,-9.697 -11.772,-7.087c-1.54,0.959 -1.454,0.387 -0.613,-0.612c5.798,-6.845 2.288,-15.66 -5.541,-15.83c0,0 0,0 -0.008,0l0.002,0Z" style="fill-rule:nonzero;"/><path id="path147-0-8-1-6-75-6-6-5-3-9-6-0" d="M47.719,105.67c-7.829,0.17 -11.34,8.985 -5.542,15.83c0.841,0.999 0.928,1.571 -0.612,0.612c-3.904,-2.61 -11.389,-0.894 -11.773,7.087c-0.473,9.833 13.267,12.667 15.846,2.21c0.137,-1.103 1.033,-1.078 0.817,0.488c-0.235,4.25 -1.563,8.223 -3.387,12.097l9.307,0c-1.824,-3.874 -3.151,-7.847 -3.387,-12.097c-0.216,-1.566 0.681,-1.591 0.817,-0.488c2.58,10.457 16.32,7.623 15.846,-2.21c-0.383,-7.981 -7.869,-9.697 -11.772,-7.087c-1.54,0.959 -1.454,0.387 -0.613,-0.612c5.798,-6.845 2.288,-15.66 -5.541,-15.83c0,0 0,0 -0.008,0l0.002,0Z" style="fill-rule:nonzero;"/><path id="path147-6-9-8-7-0-5-6-8-4-3" d="M164.273,209.077c3.131,-0.071 4.536,-3.744 2.216,-6.596c-0.336,-0.416 -0.371,-0.654 0.245,-0.255c1.562,1.088 4.556,0.373 4.709,-2.952c0.19,-4.098 -5.306,-5.278 -6.338,-0.921c-0.055,0.459 -0.413,0.449 -0.327,-0.204c0.094,-1.771 0.625,-3.426 1.355,-5.04l-3.723,0c0.73,1.614 1.261,3.269 1.355,5.04c0.087,0.653 -0.272,0.663 -0.327,0.204c-1.032,-4.357 -6.527,-3.177 -6.338,0.921c0.153,3.325 3.147,4.04 4.709,2.952c0.616,-0.399 0.581,-0.161 0.245,0.255c-2.319,2.852 -0.915,6.525 2.216,6.596c0.001,0 0,0 0,0l0.003,0Z" style="fill-rule:nonzero;"/><path id="path147-6-9-8-7-4-5-62-5-2-9" d="M13.728,39.923c-3.132,0.071 -4.536,3.744 -2.217,6.596c0.336,0.416 0.371,0.655 -0.245,0.255c-1.562,-1.088 -4.556,-0.373 -4.709,2.953c-0.189,4.097 5.307,5.277 6.339,0.921c0.054,-0.46 0.413,-0.449 0.326,0.203c-0.094,1.771 -0.625,3.426 -1.355,5.04l3.723,0c-0.73,-1.614 -1.26,-3.269 -1.355,-5.04c-0.086,-0.652 0.273,-0.663 0.327,-0.203c1.032,4.356 6.528,3.176 6.338,-0.921c-0.153,-3.326 -3.147,-4.041 -4.709,-2.953c-0.616,0.4 -0.581,0.161 -0.245,-0.255c2.32,-2.852 0.915,-6.525 -2.216,-6.596l-0.002,0Z" style="fill-rule:nonzero;"/><path id="path25-6-8-8" d="M9.683,37.417c1.73,-9.161 3.573,-16.037 8.409,-23.501l-9.831,0l0,3.213l-2.61,0l0,-6.057l14.38,0l1.774,2.844c-5.138,5.615 -9.839,23.766 -9.007,23.501l-3.115,0Z" style="fill-rule:nonzero;"/><path id="path25-7-7-3-9" d="M168.315,211.583c-1.73,9.161 -3.572,16.038 -8.409,23.501l9.831,0l0,-3.212l2.61,0l0,6.056l-14.38,0l-1.774,-2.844c5.138,-5.615 9.839,-23.766 9.007,-23.501l3.115,0Z" style="fill-rule:nonzero;"/></g></g></svg>