<?xml version="1.0" encoding="UTF-8" standalone="no"?><!DOCTYPE svg PUBLIC "-//W3C//DTD SVG 1.1//EN" "http://www.w3.org/Graphics/SVG/1.1/DTD/svg11.dtd"><svg width="100%" height="100%" viewBox="0 0 178 249" version="1.1" xmlns="http://www.w3.org/2000/svg" xmlns:xlink="http://www.w3.org/1999/xlink" xml:space="preserve" xmlns:serif="http://www.serif.com/" style="fill-rule:evenodd;clip-rule:evenodd;stroke-linejoin:round;stroke-miterlimit:2;"><rect id="_7-diamonds" serif:id="7-diamonds" x="0" y="0" width="178" height="249" style="fill:none;"/><clipPath id="_clip1"><rect x="0" y="0" width="178" height="249"/></clipPath><g clip-path="url(#_clip1)"><rect x="-1066.21" y="-747" width="2312.21" height="1245" style="fill:#fff;"/><g id="_7_diamonds" serif:id="7_diamonds"><path id="path6858-4" d="M13.729,55.891c-1.723,-2.849 -3.536,-5.618 -5.801,-7.984c2.265,-2.365 4.078,-5.135 5.801,-7.984c1.723,2.849 3.536,5.619 5.801,7.984c-2.265,2.366 -4.078,5.135 -5.801,7.984Z" style="fill:#d40000;fill-rule:nonzero;"/><path id="path6860-1" d="M130.278,64.451c-4.135,-6.838 -8.486,-13.484 -13.923,-19.161c5.437,-5.678 9.788,-12.324 13.923,-19.162c4.136,6.838 8.486,13.484 13.923,19.162c-5.437,5.677 -9.787,12.323 -13.923,19.161Z" style="fill:#d40000;fill-rule:nonzero;"/><path id="path6862-0" d="M164.272,209.077c-1.723,-2.849 -3.536,-5.618 -5.802,-7.984c2.266,-2.366 4.079,-5.135 5.802,-7.984c1.723,2.849 3.536,5.618 5.801,7.984c-2.265,2.366 -4.078,5.135 -5.801,7.984Z" style="fill:#d40000;fill-rule:nonzero;"/><path id="path6864-5" d="M47.722,64.451c-4.135,-6.838 -8.486,-13.484 -13.923,-19.161c5.437,-5.678 9.788,-12.324 13.923,-19.162c4.136,6.838 8.486,13.484 13.923,19.162c-5.437,5.677 -9.787,12.323 -13.923,19.161Z" style="fill:#d40000;fill-rule:nonzero;"/><path id="path6870-5" d="M89,104.044c-4.135,-6.839 -8.486,-13.485 -13.923,-19.162c5.437,-5.677 9.788,-12.324 13.923,-19.162c4.136,6.838 8.486,13.485 13.923,19.162c-5.437,5.677 -9.787,12.323 -13.923,19.162Z" style="fill:#d40000;fill-rule:nonzero;"/><path id="path6874-1" d="M47.722,143.636c-4.135,-6.838 -8.486,-13.484 -13.923,-19.162c5.437,-5.677 9.788,-12.323 13.923,-19.162c4.136,6.839 8.486,13.485 13.923,19.162c-5.437,5.678 -9.787,12.324 -13.923,19.162Z" style="fill:#d40000;fill-rule:nonzero;"/><path id="path6876-6" d="M130.278,143.648c-4.135,-6.838 -8.486,-13.484 -13.923,-19.161c5.437,-5.678 9.788,-12.324 13.923,-19.162c4.136,6.838 8.486,13.484 13.923,19.162c-5.437,5.677 -9.787,12.323 -13.923,19.161Z" style="fill:#d40000;fill-rule:nonzero;"/><path id="path6880-5" d="M47.722,222.876c-4.135,-6.838 -8.486,-13.484 -13.923,-19.162c5.437,-5.677 9.788,-12.323 13.923,-19.161c4.136,6.838 8.486,13.484 13.923,19.161c-5.437,5.678 -9.787,12.324 -13.923,19.162Z" style="fill:#d40000;fill-rule:nonzero;"/><path id="path6882-9" d="M130.278,222.882c-4.135,-6.838 -8.486,-13.485 -13.923,-19.162c5.437,-5.677 9.788,-12.324 13.923,-19.162c4.136,6.838 8.486,13.485 13.923,19.162c-5.437,5.677 -9.787,12.324 -13.923,19.162Z" style="fill:#d40000;fill-rule:nonzero;"/><path id="path25-43-4-8-8" d="M9.683,37.417c1.73,-9.161 3.573,-16.038 8.41,-23.501l-9.832,0l0,3.213l-2.61,0l0,-6.057l14.38,0l1.774,2.844c-5.137,5.615 -9.839,23.766 -9.007,23.501l-3.115,0Z" style="fill:#d40000;fill-rule:nonzero;"/><path id="path25-7-0-7-6" d="M168.316,211.583c-1.731,9.161 -3.573,16.038 -8.41,23.501l9.831,0l0,-3.213l2.611,0l0,6.057l-14.381,0l-1.773,-2.844c5.137,-5.615 9.838,-23.766 9.006,-23.501l3.116,0Z" style="fill:#d40000;fill-rule:nonzero;"/></g></g></svg>