<?xml version="1.0" encoding="UTF-8" standalone="no"?><!DOCTYPE svg PUBLIC "-//W3C//DTD SVG 1.1//EN" "http://www.w3.org/Graphics/SVG/1.1/DTD/svg11.dtd"><svg width="100%" height="100%" viewBox="0 0 178 249" version="1.1" xmlns="http://www.w3.org/2000/svg" xmlns:xlink="http://www.w3.org/1999/xlink" xml:space="preserve" xmlns:serif="http://www.serif.com/" style="fill-rule:evenodd;clip-rule:evenodd;stroke-linejoin:round;stroke-miterlimit:2;"><rect id="_7-hearts" serif:id="7-hearts" x="0" y="0" width="178" height="249" style="fill:none;"/><clipPath id="_clip1"><rect x="0" y="0" width="178" height="249"/></clipPath><g clip-path="url(#_clip1)"><rect x="-1066.21" y="-249" width="2312.21" height="1245" style="fill:#fff;"/><g id="_7_hearts" serif:id="7_hearts"><path id="path10106-2-3" d="M13.729,55.892c0,0 -1.774,-2.547 -4.167,-5.541c-1.601,-2.004 -2.881,-4.174 -3,-6.043c-0.136,-2.135 1.156,-4.276 3.494,-4.38c2.338,-0.104 3.287,1.646 3.673,3.089c0.386,-1.443 1.335,-3.193 3.672,-3.089c2.339,0.104 3.631,2.245 3.495,4.38c-0.119,1.869 -1.399,4.039 -3,6.043c-2.393,2.994 -4.167,5.541 -4.167,5.541Z" style="fill:#d40000;fill-rule:nonzero;"/><path id="path10108-3-1" d="M164.272,193.109c0,0 -1.774,2.546 -4.167,5.541c-1.601,2.003 -2.881,4.173 -3,6.042c-0.136,2.135 1.155,4.276 3.494,4.38c2.338,0.104 3.286,-1.646 3.673,-3.088c0.386,1.442 1.335,3.192 3.672,3.088c2.339,-0.104 3.631,-2.245 3.494,-4.38c-0.119,-1.869 -1.398,-4.039 -2.999,-6.042c-2.393,-2.995 -4.167,-5.541 -4.167,-5.541Z" style="fill:#d40000;fill-rule:nonzero;"/><path id="path10110-3-5" d="M89,104.057c0,0 -3.721,-6.113 -8.74,-13.299c-3.358,-4.809 -6.042,-10.016 -6.292,-14.501c-0.286,-5.124 2.423,-10.264 7.329,-10.513c4.903,-0.249 6.893,3.95 7.703,7.413c0.81,-3.463 2.8,-7.662 7.703,-7.413c4.906,0.249 7.615,5.389 7.329,10.513c-0.25,4.485 -2.934,9.692 -6.292,14.501c-5.019,7.186 -8.74,13.299 -8.74,13.299Z" style="fill:#d40000;fill-rule:nonzero;"/><path id="path10114-8-3" d="M47.722,64.452c0,0 -3.721,-6.112 -8.74,-13.299c-3.358,-4.809 -6.042,-10.016 -6.292,-14.501c-0.286,-5.124 2.423,-10.264 7.329,-10.513c4.903,-0.249 6.893,3.95 7.703,7.413c0.81,-3.463 2.8,-7.662 7.703,-7.413c4.906,0.249 7.615,5.389 7.329,10.513c-0.25,4.485 -2.934,9.692 -6.292,14.501c-5.019,7.187 -8.74,13.299 -8.74,13.299Z" style="fill:#d40000;fill-rule:nonzero;"/><path id="path10116-2-5" d="M130.278,143.662c0,0 -3.721,-6.112 -8.74,-13.299c-3.358,-4.809 -6.042,-10.016 -6.292,-14.501c-0.286,-5.124 2.423,-10.264 7.329,-10.513c4.903,-0.249 6.893,3.95 7.703,7.413c0.81,-3.463 2.8,-7.662 7.703,-7.413c4.906,0.249 7.615,5.389 7.329,10.513c-0.25,4.485 -2.934,9.692 -6.292,14.501c-5.019,7.187 -8.74,13.299 -8.74,13.299Z" style="fill:#d40000;fill-rule:nonzero;"/><path id="path10120-6-5" d="M130.278,64.452c0,0 -3.721,-6.112 -8.74,-13.299c-3.358,-4.809 -6.042,-10.016 -6.292,-14.501c-0.286,-5.124 2.423,-10.264 7.329,-10.513c4.903,-0.249 6.893,3.95 7.703,7.413c0.81,-3.463 2.8,-7.662 7.703,-7.413c4.906,0.249 7.615,5.389 7.329,10.513c-0.25,4.485 -2.934,9.692 -6.292,14.501c-5.019,7.187 -8.74,13.299 -8.74,13.299Z" style="fill:#d40000;fill-rule:nonzero;"/><path id="path10124-1-1" d="M47.722,143.662c0,0 -3.721,-6.112 -8.74,-13.299c-3.358,-4.809 -6.042,-10.016 -6.292,-14.501c-0.286,-5.124 2.423,-10.264 7.329,-10.513c4.903,-0.249 6.893,3.95 7.703,7.413c0.81,-3.463 2.8,-7.662 7.703,-7.413c4.906,0.249 7.615,5.389 7.329,10.513c-0.25,4.485 -2.934,9.692 -6.292,14.501c-5.019,7.187 -8.74,13.299 -8.74,13.299Z" style="fill:#d40000;fill-rule:nonzero;"/><path id="path10134-7-3" d="M130.278,184.548c0,0 -3.721,6.112 -8.74,13.299c-3.358,4.809 -6.042,10.016 -6.292,14.501c-0.286,5.124 2.423,10.264 7.329,10.513c4.903,0.249 6.893,-3.95 7.703,-7.413c0.81,3.463 2.8,7.662 7.703,7.413c4.906,-0.249 7.615,-5.389 7.329,-10.513c-0.25,-4.485 -2.934,-9.692 -6.292,-14.501c-5.019,-7.187 -8.74,-13.299 -8.74,-13.299Z" style="fill:#d40000;fill-rule:nonzero;"/><path id="path10136-5-7" d="M47.722,184.548c0,0 -3.721,6.112 -8.74,13.299c-3.358,4.809 -6.042,10.016 -6.292,14.501c-0.286,5.124 2.423,10.264 7.329,10.513c4.903,0.249 6.893,-3.95 7.703,-7.413c0.81,3.463 2.8,7.662 7.703,7.413c4.906,-0.249 7.615,-5.389 7.329,-10.513c-0.25,-4.485 -2.934,-9.692 -6.292,-14.501c-5.019,-7.187 -8.74,-13.299 -8.74,-13.299Z" style="fill:#d40000;fill-rule:nonzero;"/><path id="path25-43-2-3-9" d="M9.683,37.417c1.73,-9.16 3.573,-16.037 8.41,-23.501l-9.832,0l0,3.213l-2.61,0l0,-6.056l14.38,0l1.774,2.843c-5.137,5.616 -9.839,23.767 -9.007,23.501l-3.115,0Z" style="fill:#d40000;fill-rule:nonzero;"/><path id="path25-7-0-2-8-2" d="M168.315,211.583c-1.73,9.16 -3.572,16.037 -8.409,23.501l9.831,0l0,-3.213l2.611,0l0,6.056l-14.381,0l-1.773,-2.843c5.137,-5.615 9.838,-23.767 9.006,-23.501l3.115,0Z" style="fill:#d40000;fill-rule:nonzero;"/></g></g></svg>