<?xml version="1.0" encoding="UTF-8" standalone="no"?><!DOCTYPE svg PUBLIC "-//W3C//DTD SVG 1.1//EN" "http://www.w3.org/Graphics/SVG/1.1/DTD/svg11.dtd"><svg width="100%" height="100%" viewBox="0 0 178 249" version="1.1" xmlns="http://www.w3.org/2000/svg" xmlns:xlink="http://www.w3.org/1999/xlink" xml:space="preserve" xmlns:serif="http://www.serif.com/" style="fill-rule:evenodd;clip-rule:evenodd;stroke-linejoin:round;stroke-miterlimit:2;"><rect id="_7-spades" serif:id="7-spades" x="0" y="0" width="178" height="249" style="fill:none;"/><clipPath id="_clip1"><rect x="0" y="0" width="178" height="249"/></clipPath><g clip-path="url(#_clip1)"><rect x="-1066.21" y="-498" width="2312.21" height="1245" style="fill:#fff;"/><g id="_7_spades" serif:id="7_spades"><path id="path7086-8-0" d="M47.722,26.128c-7.357,10.505 -15.228,16.55 -15.359,24.746c-0.044,2.653 1.389,7.164 5.878,8.027c2.912,0.558 6.921,-1.802 7.005,-6.597c-0.013,-0.954 1.009,-0.929 1,0.379c-0.137,3.781 -1.333,8.185 -3.343,11.769l9.638,0c-2.01,-3.584 -3.205,-7.988 -3.342,-11.769c-0.01,-1.308 1.012,-1.333 0.999,-0.379c0.084,4.795 4.093,7.155 7.006,6.597c4.488,-0.863 5.921,-5.374 5.877,-8.027c-0.131,-8.196 -8.002,-14.241 -15.359,-24.746Z" style="fill-rule:nonzero;"/><path id="path7088-9-3" d="M13.729,39.923c-3.437,4.377 -7.115,6.896 -7.176,10.311c-0.021,1.106 0.649,2.985 2.746,3.345c1.361,0.232 3.234,-0.751 3.273,-2.749c-0.008,-0.398 0.472,-0.387 0.467,0.158c-0.064,1.576 -0.623,3.41 -1.561,4.904l4.502,0c-0.939,-1.494 -1.497,-3.328 -1.561,-4.904c-0.008,-0.545 0.473,-0.556 0.467,-0.158c0.039,1.998 1.912,2.981 3.273,2.749c2.097,-0.36 2.767,-2.239 2.746,-3.345c-0.061,-3.415 -3.739,-5.934 -7.176,-10.311Z" style="fill-rule:nonzero;"/><path id="path7092-7-0" d="M164.272,209.077c-3.437,-4.377 -7.115,-6.896 -7.176,-10.311c-0.021,-1.106 0.649,-2.985 2.746,-3.345c1.36,-0.232 3.234,0.751 3.273,2.749c-0.008,0.398 0.471,0.387 0.467,-0.158c-0.064,-1.575 -0.623,-3.41 -1.562,-4.903l4.503,0c-0.939,1.493 -1.497,3.328 -1.561,4.903c-0.008,0.545 0.473,0.556 0.467,0.158c0.039,-1.998 1.912,-2.981 3.273,-2.749c2.097,0.36 2.766,2.239 2.746,3.345c-0.062,3.415 -3.739,5.934 -7.176,10.311Z" style="fill-rule:nonzero;"/><path id="path7094-3-5" d="M130.278,26.128c-7.357,10.505 -15.228,16.55 -15.359,24.746c-0.044,2.653 1.389,7.164 5.878,8.027c2.912,0.558 6.921,-1.802 7.005,-6.597c-0.013,-0.954 1.009,-0.929 1,0.379c-0.138,3.781 -1.333,8.185 -3.343,11.769l9.638,0c-2.01,-3.584 -3.205,-7.988 -3.342,-11.769c-0.01,-1.308 1.012,-1.333 0.999,-0.379c0.084,4.795 4.093,7.155 7.006,6.597c4.488,-0.863 5.921,-5.374 5.877,-8.027c-0.131,-8.196 -8.002,-14.241 -15.359,-24.746Z" style="fill-rule:nonzero;"/><path id="path7098-7-3" d="M89,65.733c-7.357,10.505 -15.228,16.55 -15.359,24.745c-0.044,2.654 1.389,7.165 5.878,8.028c2.912,0.558 6.921,-1.802 7.005,-6.597c-0.013,-0.954 1.009,-0.929 1,0.379c-0.137,3.781 -1.333,8.184 -3.343,11.769l9.638,0c-2.01,-3.585 -3.205,-7.988 -3.342,-11.769c-0.01,-1.308 1.012,-1.333 0.999,-0.379c0.084,4.795 4.093,7.155 7.006,6.597c4.488,-0.863 5.921,-5.374 5.877,-8.028c-0.131,-8.195 -8.002,-14.24 -15.359,-24.745Z" style="fill-rule:nonzero;"/><path id="path7105-0-7" d="M47.722,105.338c-7.357,10.505 -15.228,16.55 -15.359,24.745c-0.044,2.654 1.389,7.165 5.878,8.028c2.912,0.558 6.921,-1.802 7.005,-6.597c-0.013,-0.954 1.009,-0.929 1,0.379c-0.137,3.781 -1.333,8.185 -3.343,11.769l9.638,0c-2.01,-3.584 -3.205,-7.988 -3.342,-11.769c-0.01,-1.308 1.012,-1.333 0.999,-0.379c0.084,4.795 4.093,7.155 7.006,6.597c4.488,-0.863 5.921,-5.374 5.877,-8.028c-0.131,-8.195 -8.002,-14.24 -15.359,-24.745Z" style="fill-rule:nonzero;"/><path id="path7107-6-3" d="M47.722,222.872c-7.357,-10.505 -15.228,-16.55 -15.359,-24.746c-0.044,-2.653 1.389,-7.164 5.878,-8.027c2.912,-0.558 6.921,1.802 7.005,6.597c-0.013,0.954 1.009,0.929 1,-0.379c-0.137,-3.781 -1.333,-8.185 -3.343,-11.769l9.638,0c-2.01,3.584 -3.205,7.988 -3.342,11.769c-0.01,1.308 1.012,1.333 0.999,0.379c0.084,-4.795 4.093,-7.155 7.006,-6.597c4.488,0.863 5.921,5.374 5.877,8.027c-0.131,8.196 -8.002,14.241 -15.359,24.746Z" style="fill-rule:nonzero;"/><path id="path7109-5-0" d="M130.278,222.872c-7.357,-10.505 -15.228,-16.55 -15.359,-24.746c-0.044,-2.653 1.389,-7.164 5.878,-8.027c2.912,-0.558 6.921,1.802 7.005,6.597c-0.013,0.954 1.009,0.929 1,-0.379c-0.138,-3.781 -1.333,-8.185 -3.343,-11.769l9.638,0c-2.01,3.584 -3.205,7.988 -3.342,11.769c-0.01,1.308 1.012,1.333 0.999,0.379c0.084,-4.795 4.093,-7.155 7.006,-6.597c4.488,0.863 5.921,5.374 5.877,8.027c-0.131,8.196 -8.002,14.241 -15.359,24.746Z" style="fill-rule:nonzero;"/><path id="path7119-1-9" d="M130.278,105.338c-7.357,10.505 -15.228,16.55 -15.359,24.745c-0.044,2.654 1.389,7.165 5.878,8.028c2.912,0.558 6.921,-1.802 7.005,-6.597c-0.013,-0.954 1.009,-0.929 1,0.379c-0.138,3.781 -1.333,8.185 -3.343,11.769l9.638,0c-2.01,-3.584 -3.205,-7.988 -3.342,-11.769c-0.01,-1.308 1.012,-1.333 0.999,-0.379c0.084,4.795 4.093,7.155 7.006,6.597c4.488,-0.863 5.921,-5.374 5.877,-8.028c-0.131,-8.195 -8.002,-14.24 -15.359,-24.745Z" style="fill-rule:nonzero;"/><path id="path25-4-6-4" d="M9.683,37.417c1.73,-9.16 3.573,-16.037 8.41,-23.501l-9.832,0l0,3.213l-2.61,0l0,-6.056l14.38,0l1.774,2.843c-5.137,5.616 -9.839,23.767 -9.007,23.501l-3.115,0Z" style="fill-rule:nonzero;"/><path id="path25-4-1-9-1" d="M168.316,211.583c-1.731,9.16 -3.573,16.037 -8.41,23.501l9.831,0l0,-3.213l2.611,0l0,6.056l-14.381,0l-1.773,-2.843c5.137,-5.615 9.838,-23.767 9.006,-23.501l3.116,0Z" style="fill-rule:nonzero;"/></g></g></svg>