<?xml version="1.0" encoding="UTF-8" standalone="no"?>
<!DOCTYPE svg PUBLIC "-//W3C//DTD SVG 1.1//EN" "http://www.w3.org/Graphics/SVG/1.1/DTD/svg11.dtd">
<svg width="100%" height="100%" viewBox="0 0 182 253" version="1.1" xmlns="http://www.w3.org/2000/svg" xmlns:xlink="http://www.w3.org/1999/xlink" xml:space="preserve" xmlns:serif="http://www.serif.com/" style="fill-rule:evenodd;clip-rule:evenodd;">
    <g transform="matrix(1,0,0,1,-1309,-34)">
        <g transform="matrix(1,0,0,1,-328,1179.11)">
            <g id="_7_clubs" serif:id="7_clubs" transform="matrix(0.999997,0,0,1,0.00549453,-272.411)">
                <path id="rect6355-6-85-3-1-8-1" d="M1816.89,-862.192C1816.89,-866.885 1813.08,-870.696 1808.39,-870.696L1647.61,-870.696C1642.92,-870.696 1639.11,-866.885 1639.11,-862.192L1639.11,-630.549C1639.11,-625.855 1642.92,-622.045 1647.61,-622.045L1808.39,-622.045C1813.08,-622.045 1816.89,-625.855 1816.89,-630.549L1816.89,-862.192Z" style="fill:white;stroke:black;stroke-width:0.8px;"/>
                <path id="path147-0-8-1-6-13-2-0-1-5" d="M1769.23,-844.292C1761.4,-844.122 1757.9,-835.318 1763.69,-828.481C1764.53,-827.484 1764.62,-826.912 1763.08,-827.87C1759.18,-830.477 1751.7,-828.763 1751.32,-820.792C1750.85,-810.97 1764.57,-808.14 1767.15,-818.584C1767.28,-819.686 1768.18,-819.661 1767.96,-818.097C1767.73,-813.852 1766.4,-809.884 1764.58,-806.015L1773.88,-806.015C1772.05,-809.884 1770.73,-813.852 1770.49,-818.097C1770.28,-819.661 1771.17,-819.686 1771.31,-818.584C1773.89,-808.14 1787.61,-810.97 1787.14,-820.792C1786.75,-828.763 1779.28,-830.477 1775.38,-827.87C1773.84,-826.912 1773.93,-827.484 1774.77,-828.481C1780.56,-835.318 1777.05,-844.122 1769.23,-844.292C1769.23,-844.292 1769.23,-844.292 1769.22,-844.292L1769.23,-844.292Z" style="fill-rule:nonzero;"/>
                <path id="path147-0-8-1-6-75-2-83-2-0-7" d="M1686.77,-844.292C1678.95,-844.122 1675.44,-835.318 1681.23,-828.481C1682.07,-827.484 1682.16,-826.912 1680.62,-827.87C1676.72,-830.477 1669.25,-828.763 1668.86,-820.792C1668.39,-810.97 1682.11,-808.14 1684.69,-818.584C1684.83,-819.686 1685.72,-819.661 1685.51,-818.097C1685.27,-813.852 1683.95,-809.884 1682.12,-806.015L1691.42,-806.015C1689.6,-809.884 1688.27,-813.852 1688.04,-818.097C1687.82,-819.661 1688.72,-819.686 1688.85,-818.584C1691.43,-808.14 1705.15,-810.97 1704.68,-820.792C1704.3,-828.763 1696.82,-830.477 1692.92,-827.87C1691.38,-826.912 1691.47,-827.484 1692.31,-828.481C1698.1,-835.318 1694.59,-844.122 1686.78,-844.292C1686.78,-844.292 1686.78,-844.292 1686.77,-844.292L1686.77,-844.292Z" style="fill-rule:nonzero;"/>
                <path id="path147-0-8-1-6-7-5-5-7-7-7-6" d="M1769.23,-647.785C1761.4,-647.955 1757.9,-656.759 1763.69,-663.596C1764.53,-664.593 1764.62,-665.165 1763.08,-664.208C1759.18,-661.6 1751.7,-663.314 1751.32,-671.285C1750.85,-681.107 1764.57,-683.937 1767.15,-673.493C1767.28,-672.391 1768.18,-672.416 1767.96,-673.98C1767.73,-678.226 1766.4,-682.193 1764.58,-686.063L1773.88,-686.063C1772.05,-682.193 1770.73,-678.226 1770.49,-673.98C1770.28,-672.416 1771.17,-672.391 1771.31,-673.493C1773.89,-683.937 1787.61,-681.107 1787.14,-671.285C1786.75,-663.314 1779.28,-661.6 1775.38,-664.208C1773.84,-665.165 1773.93,-664.593 1774.77,-663.596C1780.56,-656.759 1777.05,-647.955 1769.23,-647.785C1769.23,-647.785 1769.23,-647.785 1769.22,-647.785L1769.23,-647.785Z" style="fill-rule:nonzero;"/>
                <path id="path147-0-8-1-6-75-6-1-2-9-1-9" d="M1686.77,-647.785C1678.95,-647.955 1675.44,-656.759 1681.23,-663.596C1682.07,-664.593 1682.16,-665.165 1680.62,-664.208C1676.72,-661.6 1669.25,-663.314 1668.86,-671.285C1668.39,-681.107 1682.11,-683.937 1684.69,-673.493C1684.83,-672.391 1685.72,-672.416 1685.51,-673.98C1685.27,-678.226 1683.95,-682.193 1682.12,-686.063L1691.42,-686.063C1689.6,-682.193 1688.27,-678.226 1688.04,-673.98C1687.82,-672.416 1688.72,-672.391 1688.85,-673.493C1691.43,-683.937 1705.15,-681.107 1704.68,-671.285C1704.3,-663.314 1696.82,-661.6 1692.92,-664.208C1691.38,-665.165 1691.47,-664.593 1692.31,-663.596C1698.1,-656.759 1694.59,-647.955 1686.78,-647.785C1686.78,-647.785 1686.78,-647.785 1686.77,-647.785L1686.77,-647.785Z" style="fill-rule:nonzero;"/>
                <path id="path147-0-8-1-6-2-00-7-2-3-4" d="M1728,-804.734C1720.18,-804.565 1716.67,-795.761 1722.46,-788.924C1723.3,-787.926 1723.39,-787.354 1721.85,-788.312C1717.95,-790.919 1710.48,-789.205 1710.09,-781.234C1709.62,-771.413 1723.34,-768.583 1725.92,-779.027C1726.06,-780.128 1726.95,-780.103 1726.74,-778.539C1726.5,-774.294 1725.17,-770.326 1723.35,-766.457L1732.65,-766.457C1730.83,-770.326 1729.5,-774.294 1729.27,-778.539C1729.05,-780.103 1729.94,-780.128 1730.08,-779.027C1732.66,-768.583 1746.38,-771.413 1745.91,-781.234C1745.53,-789.205 1738.05,-790.919 1734.15,-788.312C1732.61,-787.354 1732.7,-787.926 1733.54,-788.924C1739.33,-795.761 1735.82,-804.565 1728,-804.734C1728,-804.734 1728,-804.734 1728,-804.734L1728,-804.734Z" style="fill-rule:nonzero;"/>
                <path id="path147-0-8-1-6-7-5-7-3-0-1-7-4" d="M1769.23,-765.177C1761.4,-765.007 1757.9,-756.203 1763.69,-749.367C1764.53,-748.369 1764.62,-747.797 1763.08,-748.755C1759.18,-751.362 1751.7,-749.648 1751.32,-741.677C1750.85,-731.856 1764.57,-729.026 1767.15,-739.469C1767.28,-740.571 1768.18,-740.546 1767.96,-738.982C1767.73,-734.737 1766.4,-730.769 1764.58,-726.9L1773.88,-726.9C1772.05,-730.769 1770.73,-734.737 1770.49,-738.982C1770.28,-740.546 1771.17,-740.571 1771.31,-739.469C1773.89,-729.026 1787.61,-731.856 1787.14,-741.677C1786.75,-749.648 1779.28,-751.362 1775.38,-748.755C1773.84,-747.797 1773.93,-748.369 1774.77,-749.367C1780.56,-756.203 1777.05,-765.007 1769.23,-765.177C1769.23,-765.177 1769.23,-765.177 1769.22,-765.177L1769.23,-765.177Z" style="fill-rule:nonzero;"/>
                <path id="path147-0-8-1-6-75-6-6-5-3-9-6-0" d="M1686.77,-765.177C1678.95,-765.007 1675.44,-756.203 1681.23,-749.367C1682.07,-748.369 1682.16,-747.797 1680.62,-748.755C1676.72,-751.362 1669.25,-749.648 1668.86,-741.677C1668.39,-731.856 1682.11,-729.026 1684.69,-739.469C1684.83,-740.571 1685.72,-740.546 1685.51,-738.982C1685.27,-734.737 1683.95,-730.769 1682.12,-726.9L1691.42,-726.9C1689.6,-730.769 1688.27,-734.737 1688.04,-738.982C1687.82,-740.546 1688.72,-740.571 1688.85,-739.469C1691.43,-729.026 1705.15,-731.856 1704.68,-741.677C1704.3,-749.648 1696.82,-751.362 1692.92,-748.755C1691.38,-747.797 1691.47,-748.369 1692.31,-749.367C1698.1,-756.203 1694.59,-765.007 1686.78,-765.177C1686.78,-765.177 1686.78,-765.177 1686.77,-765.177L1686.77,-765.177Z" style="fill-rule:nonzero;"/>
                <path id="path147-6-9-8-7-0-5-6-8-4-3" d="M1803.18,-661.895C1806.31,-661.966 1807.71,-665.634 1805.4,-668.483C1805.06,-668.899 1805.03,-669.137 1805.64,-668.738C1807.2,-667.652 1810.19,-668.366 1810.34,-671.687C1810.53,-675.779 1805.04,-676.958 1804.01,-672.607C1803.96,-672.148 1803.6,-672.158 1803.69,-672.81C1803.78,-674.579 1804.31,-676.232 1805.04,-677.844L1801.32,-677.844C1802.05,-676.232 1802.58,-674.579 1802.67,-672.81C1802.76,-672.158 1802.4,-672.148 1802.35,-672.607C1801.32,-676.958 1795.83,-675.779 1796.02,-671.687C1796.17,-668.366 1799.16,-667.652 1800.72,-668.738C1801.34,-669.137 1801.3,-668.899 1800.97,-668.483C1798.65,-665.634 1800.05,-661.966 1803.18,-661.895C1803.18,-661.895 1803.18,-661.895 1803.18,-661.895L1803.18,-661.895Z" style="fill-rule:nonzero;"/>
                <path id="path147-6-9-8-7-4-5-62-5-2-9" d="M1652.82,-830.845C1649.69,-830.774 1648.29,-827.106 1650.6,-824.257C1650.94,-823.842 1650.98,-823.603 1650.36,-824.002C1648.8,-825.089 1645.81,-824.374 1645.66,-821.053C1645.47,-816.961 1650.96,-815.782 1651.99,-820.133C1652.04,-820.592 1652.4,-820.582 1652.31,-819.93C1652.22,-818.161 1651.69,-816.508 1650.96,-814.896L1654.68,-814.896C1653.95,-816.508 1653.42,-818.161 1653.33,-819.93C1653.24,-820.582 1653.6,-820.592 1653.65,-820.133C1654.68,-815.782 1660.17,-816.961 1659.98,-821.053C1659.83,-824.374 1656.84,-825.089 1655.28,-824.002C1654.66,-823.603 1654.7,-823.842 1655.03,-824.257C1657.35,-827.106 1655.95,-830.774 1652.82,-830.845L1652.82,-830.845Z" style="fill-rule:nonzero;"/>
                <path id="path25-6-8-8" d="M1648.78,-833.348C1650.51,-842.497 1652.35,-849.366 1657.18,-856.821L1647.36,-856.821L1647.36,-853.612L1644.75,-853.612L1644.75,-859.661L1659.11,-859.661L1660.89,-856.821C1655.76,-851.212 1651.06,-833.083 1651.89,-833.348L1648.78,-833.348Z" style="fill-rule:nonzero;"/>
                <path id="path25-7-7-3-9" d="M1807.22,-659.392C1805.49,-650.243 1803.65,-643.374 1798.82,-635.92L1808.64,-635.92L1808.64,-639.128L1811.25,-639.128L1811.25,-633.079L1796.88,-633.079L1795.11,-635.92C1800.24,-641.528 1804.94,-659.657 1804.11,-659.392L1807.22,-659.392Z" style="fill-rule:nonzero;"/>
            </g>
        </g>
    </g>
</svg>
