<?xml version="1.0" encoding="UTF-8" standalone="no"?>
<!DOCTYPE svg PUBLIC "-//W3C//DTD SVG 1.1//EN" "http://www.w3.org/Graphics/SVG/1.1/DTD/svg11.dtd">
<svg width="100%" height="100%" viewBox="0 0 182 253" version="1.1" xmlns="http://www.w3.org/2000/svg" xmlns:xlink="http://www.w3.org/1999/xlink" xml:space="preserve" xmlns:serif="http://www.serif.com/" style="fill-rule:evenodd;clip-rule:evenodd;">
    <g transform="matrix(1,0,0,1,-1309,-878)">
        <g transform="matrix(1,0,0,1,-328,1179.11)">
            <g id="_7_diamonds" serif:id="7_diamonds" transform="matrix(0.995535,0,0,0.996803,7.71649,-274.482)">
                <path id="rect6826-9" d="M1817.29,-15.786C1817.29,-20.516 1813.45,-24.356 1808.71,-24.356L1647.29,-24.356C1642.55,-24.356 1638.71,-20.516 1638.71,-15.786L1638.71,216.523C1638.71,221.253 1642.55,225.093 1647.29,225.093L1808.71,225.093C1813.45,225.093 1817.29,221.253 1817.29,216.523L1817.29,-15.786Z" style="fill:white;stroke:black;stroke-width:0.8px;"/>
                <path id="path6858-4" d="M1652.48,31.623C1650.75,28.768 1648.93,25.993 1646.66,23.623C1648.93,21.252 1650.75,18.478 1652.48,15.623C1654.21,18.478 1656.03,21.252 1658.3,23.623C1656.03,25.993 1654.21,28.768 1652.48,31.623Z" style="fill:rgb(212,0,0);fill-rule:nonzero;"/>
                <path id="path6860-1" d="M1769.41,40.2C1765.26,33.348 1760.9,26.689 1755.44,21C1760.9,15.311 1765.26,8.652 1769.41,1.8C1773.56,8.652 1777.93,15.311 1783.38,21C1777.93,26.689 1773.56,33.348 1769.41,40.2Z" style="fill:rgb(212,0,0);fill-rule:nonzero;"/>
                <path id="path6862-0" d="M1803.52,185.114C1801.79,182.26 1799.97,179.485 1797.7,177.114C1799.97,174.744 1801.79,171.969 1803.52,169.114C1805.25,171.969 1807.07,174.744 1809.34,177.114C1807.07,179.485 1805.25,182.26 1803.52,185.114Z" style="fill:rgb(212,0,0);fill-rule:nonzero;"/>
                <path id="path6864-5" d="M1686.59,40.2C1682.44,33.348 1678.07,26.689 1672.62,21C1678.07,15.311 1682.44,8.652 1686.59,1.8C1690.74,8.652 1695.1,15.311 1700.56,21C1695.1,26.689 1690.74,33.348 1686.59,40.2Z" style="fill:rgb(212,0,0);fill-rule:nonzero;"/>
                <path id="path6870-5" d="M1728,79.871C1723.85,73.019 1719.49,66.36 1714.03,60.671C1719.49,54.983 1723.85,48.323 1728,41.471C1732.15,48.323 1736.51,54.983 1741.97,60.671C1736.51,66.36 1732.15,73.019 1728,79.871Z" style="fill:rgb(212,0,0);fill-rule:nonzero;"/>
                <path id="path6874-1" d="M1686.59,119.543C1682.44,112.691 1678.07,106.031 1672.62,100.343C1678.07,94.654 1682.44,87.995 1686.59,81.143C1690.74,87.995 1695.1,94.654 1700.56,100.343C1695.1,106.031 1690.74,112.691 1686.59,119.543Z" style="fill:rgb(212,0,0);fill-rule:nonzero;"/>
                <path id="path6876-6" d="M1769.41,119.555C1765.26,112.703 1760.9,106.044 1755.44,100.355C1760.9,94.666 1765.26,88.007 1769.41,81.155C1773.56,88.007 1777.93,94.666 1783.38,100.355C1777.93,106.044 1773.56,112.703 1769.41,119.555Z" style="fill:rgb(212,0,0);fill-rule:nonzero;"/>
                <path id="path6880-5" d="M1686.59,198.941C1682.44,192.089 1678.07,185.43 1672.62,179.741C1678.07,174.052 1682.44,167.393 1686.59,160.541C1690.74,167.393 1695.1,174.052 1700.56,179.741C1695.1,185.43 1690.74,192.089 1686.59,198.941Z" style="fill:rgb(212,0,0);fill-rule:nonzero;"/>
                <path id="path6882-9" d="M1769.41,198.947C1765.26,192.095 1760.9,185.435 1755.44,179.747C1760.9,174.058 1765.26,167.399 1769.41,160.547C1773.56,167.399 1777.93,174.058 1783.38,179.747C1777.93,185.435 1773.56,192.095 1769.41,198.947Z" style="fill:rgb(212,0,0);fill-rule:nonzero;"/>
                <path id="path25-43-4-8-8" d="M1648.42,13.111C1650.16,3.933 1652.01,-2.958 1656.86,-10.436L1647,-10.436L1647,-7.217L1644.38,-7.217L1644.38,-13.286L1658.81,-13.286L1660.59,-10.436C1655.43,-4.81 1650.71,13.377 1651.55,13.111L1648.42,13.111Z" style="fill:rgb(212,0,0);fill-rule:nonzero;"/>
                <path id="path25-7-0-7-6" d="M1807.58,187.626C1805.84,196.804 1803.99,203.695 1799.14,211.173L1809,211.173L1809,207.954L1811.62,207.954L1811.62,214.023L1797.19,214.023L1795.41,211.173C1800.57,205.547 1805.28,187.36 1804.45,187.626L1807.58,187.626Z" style="fill:rgb(212,0,0);fill-rule:nonzero;"/>
            </g>
        </g>
    </g>
</svg>
