<?xml version="1.0" encoding="UTF-8" standalone="no"?>
<!DOCTYPE svg PUBLIC "-//W3C//DTD SVG 1.1//EN" "http://www.w3.org/Graphics/SVG/1.1/DTD/svg11.dtd">
<svg width="100%" height="100%" viewBox="0 0 182 253" version="1.1" xmlns="http://www.w3.org/2000/svg" xmlns:xlink="http://www.w3.org/1999/xlink" xml:space="preserve" xmlns:serif="http://www.serif.com/" style="fill-rule:evenodd;clip-rule:evenodd;">
    <g transform="matrix(1,0,0,1,-1309,-315)">
        <g transform="matrix(1,0,0,1,-328,1179.11)">
            <g id="_7_hearts" serif:id="7_hearts" transform="matrix(0.995538,0,0,0.996801,-76.7713,-13.1814)">
                <g id="rect10074-2-8" transform="matrix(1,0,0,1,1813.66,-683.124)">
                    <path d="M88.491,-159.506C88.491,-164.236 84.647,-168.076 79.911,-168.076L-81.511,-168.076C-86.247,-168.076 -90.091,-164.236 -90.091,-159.506L-90.091,72.804C-90.091,77.533 -86.247,81.373 -81.511,81.373L79.911,81.373C84.647,81.373 88.491,77.533 88.491,72.804L88.491,-159.506Z" style="fill:white;stroke:black;stroke-width:0.8px;"/>
                </g>
                <g id="path10106-2-3" transform="matrix(1,0,0,1,1813.66,-683.124)">
                    <path d="M-76.318,-112.097C-76.318,-112.097 -78.097,-114.649 -80.498,-117.649C-82.104,-119.657 -83.388,-121.831 -83.508,-123.703C-83.645,-125.843 -82.348,-127.989 -80.002,-128.093C-77.657,-128.197 -76.705,-126.443 -76.318,-124.998C-75.93,-126.443 -74.978,-128.197 -72.633,-128.093C-70.287,-127.989 -68.99,-125.843 -69.127,-123.703C-69.247,-121.831 -70.531,-119.657 -72.137,-117.649C-74.538,-114.649 -76.318,-112.097 -76.318,-112.097Z" style="fill:rgb(212,0,0);fill-rule:nonzero;"/>
                </g>
                <g id="path10108-3-1" transform="matrix(1,0,0,1,1813.66,-683.124)">
                    <path d="M74.718,25.395C74.718,25.395 72.938,27.947 70.538,30.947C68.931,32.955 67.647,35.129 67.528,37.001C67.391,39.14 68.687,41.286 71.034,41.39C73.379,41.494 74.331,39.741 74.718,38.295C75.106,39.741 76.058,41.494 78.403,41.39C80.749,41.286 82.045,39.14 81.908,37.001C81.789,35.129 80.505,32.955 78.899,30.947C76.498,27.947 74.718,25.395 74.718,25.395Z" style="fill:rgb(212,0,0);fill-rule:nonzero;"/>
                </g>
                <g id="path10110-3-5" transform="matrix(1,0,0,1,1813.66,-683.124)">
                    <path d="M-0.8,-63.835C-0.8,-63.835 -4.533,-69.96 -9.569,-77.16C-12.938,-81.979 -15.631,-87.197 -15.881,-91.691C-16.168,-96.825 -13.45,-101.975 -8.528,-102.225C-3.609,-102.474 -1.613,-98.266 -0.8,-94.797C0.013,-98.266 2.009,-102.474 6.928,-102.225C11.85,-101.975 14.568,-96.825 14.281,-91.691C14.031,-87.197 11.338,-81.979 7.969,-77.16C2.933,-69.96 -0.8,-63.835 -0.8,-63.835Z" style="fill:rgb(212,0,0);fill-rule:nonzero;"/>
                </g>
                <g id="path10114-8-3" transform="matrix(1,0,0,1,1813.66,-683.124)">
                    <path d="M-42.213,-103.52C-42.213,-103.52 -45.946,-109.644 -50.982,-116.845C-54.351,-121.663 -57.044,-126.881 -57.294,-131.375C-57.582,-136.509 -54.863,-141.659 -49.941,-141.909C-45.022,-142.159 -43.026,-137.951 -42.213,-134.481C-41.4,-137.951 -39.404,-142.159 -34.485,-141.909C-29.563,-141.659 -26.845,-136.509 -27.132,-131.375C-27.382,-126.881 -30.076,-121.663 -33.444,-116.845C-38.48,-109.644 -42.213,-103.52 -42.213,-103.52Z" style="fill:rgb(212,0,0);fill-rule:nonzero;"/>
                </g>
                <g id="path10116-2-5" transform="matrix(1,0,0,1,1813.66,-683.124)">
                    <path d="M40.613,-24.151C40.613,-24.151 36.88,-30.276 31.844,-37.476C28.476,-42.295 25.782,-47.512 25.532,-52.007C25.245,-57.141 27.963,-62.291 32.885,-62.541C37.804,-62.79 39.8,-58.582 40.613,-55.113C41.426,-58.582 43.422,-62.79 48.341,-62.541C53.263,-62.291 55.982,-57.141 55.694,-52.007C55.444,-47.512 52.751,-42.295 49.382,-37.476C44.346,-30.276 40.613,-24.151 40.613,-24.151Z" style="fill:rgb(212,0,0);fill-rule:nonzero;"/>
                </g>
                <g id="path10120-6-5" transform="matrix(1,0,0,1,1813.66,-683.124)">
                    <path d="M40.613,-103.52C40.613,-103.52 36.88,-109.644 31.844,-116.845C28.476,-121.663 25.782,-126.881 25.532,-131.375C25.245,-136.509 27.963,-141.659 32.885,-141.909C37.804,-142.159 39.8,-137.951 40.613,-134.481C41.426,-137.951 43.422,-142.159 48.341,-141.909C53.263,-141.659 55.982,-136.509 55.694,-131.375C55.444,-126.881 52.751,-121.663 49.382,-116.845C44.346,-109.644 40.613,-103.52 40.613,-103.52Z" style="fill:rgb(212,0,0);fill-rule:nonzero;"/>
                </g>
                <g id="path10124-1-1" transform="matrix(1,0,0,1,1813.66,-683.124)">
                    <path d="M-42.213,-24.151C-42.213,-24.151 -45.946,-30.276 -50.982,-37.476C-54.351,-42.295 -57.044,-47.512 -57.294,-52.007C-57.582,-57.141 -54.863,-62.291 -49.941,-62.541C-45.022,-62.79 -43.026,-58.582 -42.213,-55.113C-41.4,-58.582 -39.404,-62.79 -34.485,-62.541C-29.563,-62.291 -26.845,-57.141 -27.132,-52.007C-27.382,-47.512 -30.076,-42.295 -33.444,-37.476C-38.48,-30.276 -42.213,-24.151 -42.213,-24.151Z" style="fill:rgb(212,0,0);fill-rule:nonzero;"/>
                </g>
                <g id="path10134-7-3" transform="matrix(1,0,0,1,1813.66,-683.124)">
                    <path d="M40.613,16.817C40.613,16.817 36.88,22.942 31.844,30.142C28.476,34.961 25.782,40.179 25.532,44.673C25.245,49.807 27.963,54.957 32.885,55.207C37.804,55.456 39.8,51.248 40.613,47.779C41.426,51.248 43.422,55.456 48.341,55.207C53.263,54.957 55.982,49.807 55.694,44.673C55.444,40.179 52.751,34.961 49.382,30.142C44.346,22.942 40.613,16.817 40.613,16.817Z" style="fill:rgb(212,0,0);fill-rule:nonzero;"/>
                </g>
                <g id="path10136-5-7" transform="matrix(1,0,0,1,1813.66,-683.124)">
                    <path d="M-42.213,16.817C-42.213,16.817 -45.946,22.942 -50.982,30.142C-54.351,34.961 -57.044,40.179 -57.294,44.673C-57.582,49.807 -54.863,54.957 -49.941,55.207C-45.022,55.456 -43.026,51.248 -42.213,47.779C-41.4,51.248 -39.404,55.456 -34.485,55.207C-29.563,54.957 -26.845,49.807 -27.132,44.673C-27.382,40.179 -30.076,34.961 -33.444,30.142C-38.48,22.942 -42.213,16.817 -42.213,16.817Z" style="fill:rgb(212,0,0);fill-rule:nonzero;"/>
                </g>
                <path id="path25-43-2-3-9" d="M1733.29,-813.733C1735.02,-822.911 1736.87,-829.802 1741.72,-837.28L1731.86,-837.28L1731.86,-834.061L1729.24,-834.061L1729.24,-840.13L1743.67,-840.13L1745.45,-837.28C1740.29,-831.654 1735.58,-813.467 1736.41,-813.733L1733.29,-813.733Z" style="fill:rgb(212,0,0);fill-rule:nonzero;"/>
                <path id="path25-7-0-2-8-2" d="M1892.44,-639.218C1890.7,-630.04 1888.85,-623.149 1884,-615.671L1893.86,-615.671L1893.86,-618.89L1896.48,-618.89L1896.48,-612.821L1882.05,-612.821L1880.28,-615.671C1885.43,-621.297 1890.15,-639.484 1889.31,-639.218L1892.44,-639.218Z" style="fill:rgb(212,0,0);fill-rule:nonzero;"/>
            </g>
        </g>
    </g>
</svg>
