<?xml version="1.0" encoding="UTF-8" standalone="no"?>
<!DOCTYPE svg PUBLIC "-//W3C//DTD SVG 1.1//EN" "http://www.w3.org/Graphics/SVG/1.1/DTD/svg11.dtd">
<svg width="100%" height="100%" viewBox="0 0 182 253" version="1.1" xmlns="http://www.w3.org/2000/svg" xmlns:xlink="http://www.w3.org/1999/xlink" xml:space="preserve" xmlns:serif="http://www.serif.com/" style="fill-rule:evenodd;clip-rule:evenodd;">
    <g transform="matrix(1,0,0,1,-1309,-597)">
        <g transform="matrix(1,0,0,1,-328,1179.11)">
            <g id="_7_spades" serif:id="7_spades" transform="matrix(0.995538,0,0,0.996801,-179.335,-204.289)">
                <path id="rect7056-4-2" d="M2005.18,-368.557C2005.18,-373.287 2001.33,-377.127 1996.6,-377.127L1835.17,-377.127C1830.44,-377.127 1826.59,-373.287 1826.59,-368.557L1826.59,-136.247C1826.59,-131.518 1830.44,-127.678 1835.17,-127.678L1996.6,-127.678C2001.33,-127.678 2005.18,-131.518 2005.18,-136.247L2005.18,-368.557Z" style="fill:white;stroke:black;stroke-width:0.8px;"/>
                <path id="path7086-8-0" d="M1874.47,-350.971C1867.09,-340.445 1859.19,-334.388 1859.06,-326.176C1859.02,-323.517 1860.46,-318.997 1864.96,-318.132C1867.88,-317.574 1871.9,-319.938 1871.99,-324.742C1871.98,-325.699 1873,-325.674 1872.99,-324.363C1872.85,-320.574 1871.65,-316.162 1869.64,-312.571L1879.31,-312.571C1877.29,-316.162 1876.09,-320.574 1875.95,-324.363C1875.94,-325.674 1876.97,-325.699 1876.96,-324.742C1877.04,-319.938 1881.06,-317.574 1883.99,-318.132C1888.49,-318.997 1889.92,-323.517 1889.88,-326.176C1889.75,-334.388 1881.85,-340.445 1874.47,-350.971Z" style="fill-rule:nonzero;"/>
                <path id="path7088-9-3" d="M1840.37,-337.148C1836.92,-332.762 1833.23,-330.238 1833.17,-326.817C1833.15,-325.709 1833.82,-323.826 1835.92,-323.465C1837.29,-323.232 1839.17,-324.218 1839.21,-326.219C1839.2,-326.618 1839.68,-326.608 1839.68,-326.062C1839.61,-324.483 1839.05,-322.644 1838.11,-321.148L1842.63,-321.148C1841.68,-322.644 1841.12,-324.483 1841.06,-326.062C1841.05,-326.608 1841.53,-326.618 1841.53,-326.219C1841.57,-324.218 1843.45,-323.232 1844.81,-323.465C1846.92,-323.826 1847.59,-325.709 1847.57,-326.817C1847.51,-330.238 1843.82,-332.762 1840.37,-337.148Z" style="fill-rule:nonzero;"/>
                <path id="path7092-7-0" d="M1991.4,-167.656C1987.96,-172.042 1984.27,-174.566 1984.2,-177.987C1984.18,-179.095 1984.86,-180.978 1986.96,-181.339C1988.32,-181.572 1990.2,-180.586 1990.24,-178.585C1990.24,-178.186 1990.72,-178.197 1990.71,-178.743C1990.65,-180.322 1990.09,-182.16 1989.14,-183.656L1993.66,-183.656C1992.72,-182.16 1992.16,-180.322 1992.1,-178.743C1992.09,-178.197 1992.57,-178.186 1992.56,-178.585C1992.6,-180.586 1994.48,-181.572 1995.85,-181.339C1997.95,-180.978 1998.62,-179.095 1998.6,-177.987C1998.54,-174.566 1994.85,-172.042 1991.4,-167.656Z" style="fill-rule:nonzero;"/>
                <path id="path7094-3-5" d="M1957.3,-350.971C1949.92,-340.445 1942.02,-334.388 1941.89,-326.176C1941.85,-323.517 1943.28,-318.997 1947.79,-318.132C1950.71,-317.574 1954.73,-319.938 1954.81,-324.742C1954.8,-325.699 1955.83,-325.674 1955.82,-324.363C1955.68,-320.574 1954.48,-316.162 1952.46,-312.571L1962.13,-312.571C1960.12,-316.162 1958.92,-320.574 1958.78,-324.363C1958.77,-325.674 1959.8,-325.699 1959.78,-324.742C1959.87,-319.938 1963.89,-317.574 1966.81,-318.132C1971.31,-318.997 1972.75,-323.517 1972.71,-326.176C1972.58,-334.388 1964.68,-340.445 1957.3,-350.971Z" style="fill-rule:nonzero;"/>
                <path id="path7098-7-3" d="M1915.88,-311.286C1908.5,-300.761 1900.61,-294.704 1900.48,-286.492C1900.43,-283.833 1901.87,-279.313 1906.37,-278.448C1909.29,-277.889 1913.32,-280.254 1913.4,-285.058C1913.39,-286.014 1914.41,-285.99 1914.4,-284.679C1914.27,-280.89 1913.07,-276.478 1911.05,-272.886L1920.72,-272.886C1918.7,-276.478 1917.5,-280.89 1917.37,-284.679C1917.36,-285.99 1918.38,-286.014 1918.37,-285.058C1918.45,-280.254 1922.48,-277.889 1925.4,-278.448C1929.9,-279.313 1931.34,-283.833 1931.3,-286.492C1931.16,-294.704 1923.27,-300.761 1915.88,-311.286Z" style="fill-rule:nonzero;"/>
                <path id="path7105-0-7" d="M1874.47,-271.602C1867.09,-261.076 1859.19,-255.019 1859.06,-246.807C1859.02,-244.148 1860.46,-239.629 1864.96,-238.764C1867.88,-238.205 1871.9,-240.57 1871.99,-245.374C1871.98,-246.33 1873,-246.305 1872.99,-244.995C1872.85,-241.205 1871.65,-236.793 1869.64,-233.202L1879.31,-233.202C1877.29,-236.793 1876.09,-241.205 1875.95,-244.995C1875.94,-246.305 1876.97,-246.33 1876.96,-245.374C1877.04,-240.57 1881.06,-238.205 1883.99,-238.764C1888.49,-239.629 1889.92,-244.148 1889.88,-246.807C1889.75,-255.019 1881.85,-261.076 1874.47,-271.602Z" style="fill-rule:nonzero;"/>
                <path id="path7107-6-3" d="M1874.47,-153.834C1867.09,-164.359 1859.19,-170.416 1859.06,-178.628C1859.02,-181.287 1860.46,-185.807 1864.96,-186.672C1867.88,-187.231 1871.9,-184.866 1871.99,-180.062C1871.98,-179.106 1873,-179.131 1872.99,-180.441C1872.85,-184.23 1871.65,-188.642 1869.64,-192.234L1879.31,-192.234C1877.29,-188.642 1876.09,-184.23 1875.95,-180.441C1875.94,-179.131 1876.97,-179.106 1876.96,-180.062C1877.04,-184.866 1881.06,-187.231 1883.99,-186.672C1888.49,-185.807 1889.92,-181.287 1889.88,-178.628C1889.75,-170.416 1881.85,-164.359 1874.47,-153.834Z" style="fill-rule:nonzero;"/>
                <path id="path7109-5-0" d="M1957.3,-153.834C1949.92,-164.359 1942.02,-170.416 1941.89,-178.628C1941.85,-181.287 1943.28,-185.807 1947.79,-186.672C1950.71,-187.231 1954.73,-184.866 1954.81,-180.062C1954.8,-179.106 1955.83,-179.131 1955.82,-180.441C1955.68,-184.23 1954.48,-188.642 1952.46,-192.234L1962.13,-192.234C1960.12,-188.642 1958.92,-184.23 1958.78,-180.441C1958.77,-179.131 1959.8,-179.106 1959.78,-180.062C1959.87,-184.866 1963.89,-187.231 1966.81,-186.672C1971.31,-185.807 1972.75,-181.287 1972.71,-178.628C1972.58,-170.416 1964.68,-164.359 1957.3,-153.834Z" style="fill-rule:nonzero;"/>
                <path id="path7119-1-9" d="M1957.3,-271.602C1949.92,-261.076 1942.02,-255.019 1941.89,-246.807C1941.85,-244.148 1943.28,-239.629 1947.79,-238.764C1950.71,-238.205 1954.73,-240.57 1954.81,-245.374C1954.8,-246.33 1955.83,-246.305 1955.82,-244.995C1955.68,-241.205 1954.48,-236.793 1952.46,-233.202L1962.13,-233.202C1960.12,-236.793 1958.92,-241.205 1958.78,-244.995C1958.77,-246.305 1959.8,-246.33 1959.78,-245.374C1959.87,-240.57 1963.89,-238.205 1966.81,-238.764C1971.31,-239.629 1972.75,-244.148 1972.71,-246.807C1972.58,-255.019 1964.68,-261.076 1957.3,-271.602Z" style="fill-rule:nonzero;"/>
                <path id="path25-4-6-4" d="M1836.31,-339.659C1838.05,-348.838 1839.89,-355.729 1844.75,-363.207L1834.88,-363.207L1834.88,-359.988L1832.26,-359.988L1832.26,-366.056L1846.69,-366.056L1848.47,-363.207C1843.32,-357.581 1838.6,-339.393 1839.43,-339.659L1836.31,-339.659Z" style="fill-rule:nonzero;"/>
                <path id="path25-4-1-9-1" d="M1995.46,-165.145C1993.72,-155.966 1991.88,-149.076 1987.02,-141.597L1996.89,-141.597L1996.89,-144.816L1999.51,-144.816L1999.51,-138.748L1985.08,-138.748L1983.3,-141.597C1988.45,-147.224 1993.17,-165.411 1992.33,-165.145L1995.46,-165.145Z" style="fill-rule:nonzero;"/>
            </g>
        </g>
    </g>
</svg>
