<?xml version="1.0" encoding="UTF-8" standalone="no"?><!DOCTYPE svg PUBLIC "-//W3C//DTD SVG 1.1//EN" "http://www.w3.org/Graphics/SVG/1.1/DTD/svg11.dtd"><svg width="100%" height="100%" viewBox="0 0 178 249" version="1.1" xmlns="http://www.w3.org/2000/svg" xmlns:xlink="http://www.w3.org/1999/xlink" xml:space="preserve" xmlns:serif="http://www.serif.com/" style="fill-rule:evenodd;clip-rule:evenodd;stroke-linejoin:round;stroke-miterlimit:2;"><rect id="_8-clubs" serif:id="8-clubs" x="0" y="0" width="178" height="249" style="fill:none;"/><clipPath id="_clip1"><rect x="0" y="0" width="178" height="249"/></clipPath><g clip-path="url(#_clip1)"><rect x="-1244.21" y="0" width="2312.21" height="1245" style="fill:#fff;"/><g id="_8_clubs" serif:id="8_clubs"><path id="path147-0-8-1-6-13-2-2-3-8" d="M130.275,26.46c-7.829,0.17 -11.34,8.985 -5.542,15.83c0.841,0.998 0.928,1.571 -0.612,0.612c-3.904,-2.61 -11.389,-0.894 -11.773,7.087c-0.473,9.833 13.267,12.666 15.847,2.21c0.136,-1.103 1.032,-1.078 0.816,0.488c-0.235,4.25 -1.562,8.223 -3.387,12.096l9.308,0c-1.825,-3.873 -3.152,-7.846 -3.387,-12.096c-0.217,-1.566 0.68,-1.591 0.816,-0.488c2.58,10.456 16.32,7.623 15.846,-2.21c-0.383,-7.981 -7.868,-9.697 -11.772,-7.087c-1.54,0.959 -1.454,0.386 -0.613,-0.612c5.799,-6.845 2.288,-15.66 -5.541,-15.83c0,0 0,0 -0.008,0l0.002,0Z" style="fill-rule:nonzero;"/><path id="path147-0-8-1-6-75-2-83-9-8-9" d="M47.719,26.46c-7.829,0.17 -11.34,8.985 -5.542,15.83c0.841,0.998 0.928,1.571 -0.612,0.612c-3.904,-2.61 -11.389,-0.894 -11.773,7.087c-0.473,9.833 13.267,12.666 15.847,2.21c0.136,-1.103 1.032,-1.078 0.816,0.488c-0.235,4.25 -1.562,8.223 -3.387,12.096l9.308,0c-1.825,-3.873 -3.152,-7.846 -3.387,-12.096c-0.217,-1.566 0.68,-1.591 0.816,-0.488c2.58,10.456 16.32,7.623 15.846,-2.21c-0.383,-7.981 -7.868,-9.697 -11.772,-7.087c-1.54,0.959 -1.454,0.386 -0.613,-0.612c5.799,-6.845 2.288,-15.66 -5.541,-15.83c0,0 0,0 -0.008,0l0.002,0Z" style="fill-rule:nonzero;"/><path id="path147-0-8-1-6-7-5-5-7-62-3-0" d="M130.275,223.204c-7.829,-0.17 -11.34,-8.985 -5.542,-15.83c0.841,-0.998 0.928,-1.571 -0.612,-0.612c-3.904,2.611 -11.389,0.894 -11.773,-7.086c-0.473,-9.834 13.267,-12.667 15.847,-2.211c0.136,1.103 1.032,1.078 0.816,-0.488c-0.235,-4.25 -1.562,-8.222 -3.387,-12.096l9.308,0c-1.825,3.874 -3.152,7.846 -3.387,12.096c-0.217,1.566 0.68,1.591 0.816,0.488c2.58,-10.456 16.32,-7.623 15.846,2.211c-0.383,7.98 -7.868,9.697 -11.772,7.086c-1.54,-0.959 -1.454,-0.386 -0.613,0.612c5.799,6.845 2.288,15.66 -5.541,15.83c0,0 0,0 -0.008,0l0.002,0Z" style="fill-rule:nonzero;"/><path id="path147-0-8-1-6-75-6-1-2-41-4-5" d="M47.719,223.204c-7.829,-0.17 -11.34,-8.985 -5.542,-15.83c0.841,-0.998 0.928,-1.571 -0.612,-0.612c-3.904,2.611 -11.389,0.894 -11.773,-7.086c-0.473,-9.834 13.267,-12.667 15.847,-2.211c0.136,1.103 1.032,1.078 0.816,-0.488c-0.235,-4.25 -1.562,-8.222 -3.387,-12.096l9.308,0c-1.825,3.874 -3.152,7.846 -3.387,12.096c-0.217,1.566 0.68,1.591 0.816,0.488c2.58,-10.456 16.32,-7.623 15.846,2.211c-0.383,7.98 -7.868,9.697 -11.772,7.086c-1.54,-0.959 -1.454,-0.386 -0.613,0.612c5.799,6.845 2.288,15.66 -5.541,15.83c0,0 0,0 -0.008,0l0.002,0Z" style="fill-rule:nonzero;"/><path id="path147-0-8-1-6-2-00-7-5-5-3" d="M88.997,66.065c-7.829,0.17 -11.34,8.985 -5.542,15.83c0.841,0.998 0.928,1.571 -0.612,0.612c-3.904,-2.61 -11.389,-0.894 -11.772,7.087c-0.474,9.833 13.266,12.666 15.846,2.21c0.136,-1.103 1.033,-1.078 0.816,0.488c-0.235,4.25 -1.562,8.223 -3.387,12.097l9.308,0c-1.825,-3.874 -3.152,-7.847 -3.387,-12.097c-0.216,-1.566 0.68,-1.591 0.816,-0.488c2.58,10.456 16.32,7.623 15.846,-2.21c-0.383,-7.981 -7.868,-9.697 -11.772,-7.087c-1.54,0.959 -1.453,0.386 -0.612,-0.612c5.798,-6.845 2.287,-15.66 -5.542,-15.83c0,0 0,0 -0.008,0l0.002,0Z" style="fill-rule:nonzero;"/><path id="path147-0-8-1-6-7-5-7-3-0-4-4-6" d="M130.275,105.67c-7.829,0.17 -11.34,8.985 -5.542,15.83c0.841,0.999 0.928,1.571 -0.612,0.612c-3.904,-2.61 -11.389,-0.894 -11.773,7.087c-0.473,9.833 13.267,12.667 15.847,2.21c0.136,-1.103 1.032,-1.078 0.816,0.488c-0.235,4.25 -1.562,8.223 -3.387,12.097l9.308,0c-1.825,-3.874 -3.152,-7.847 -3.387,-12.097c-0.217,-1.566 0.68,-1.591 0.816,-0.488c2.58,10.457 16.32,7.623 15.846,-2.21c-0.383,-7.981 -7.868,-9.697 -11.772,-7.087c-1.54,0.959 -1.454,0.387 -0.613,-0.612c5.799,-6.845 2.288,-15.66 -5.541,-15.83c0,0 0,0 -0.008,0l0.002,0Z" style="fill-rule:nonzero;"/><path id="path147-0-8-1-6-75-6-6-5-3-2-4-8" d="M47.719,105.67c-7.829,0.17 -11.34,8.985 -5.542,15.83c0.841,0.999 0.928,1.571 -0.612,0.612c-3.904,-2.61 -11.389,-0.894 -11.772,7.087c-0.474,9.833 13.266,12.667 15.846,2.21c0.136,-1.103 1.032,-1.078 0.816,0.488c-0.235,4.25 -1.562,8.223 -3.387,12.097l9.308,0c-1.825,-3.874 -3.152,-7.847 -3.387,-12.097c-0.217,-1.566 0.68,-1.591 0.816,-0.488c2.58,10.457 16.32,7.623 15.846,-2.21c-0.383,-7.981 -7.868,-9.697 -11.772,-7.087c-1.54,0.959 -1.454,0.387 -0.613,-0.612c5.799,-6.845 2.288,-15.66 -5.541,-15.83c0,0 0,0 -0.008,0l0.002,0Z" style="fill-rule:nonzero;"/><path id="path147-0-8-1-6-2-0-8-6-42-9-6" d="M88.997,183.599c-7.829,-0.17 -11.34,-8.985 -5.541,-15.83c0.84,-0.998 0.927,-1.571 -0.613,-0.612c-3.904,2.61 -11.389,0.894 -11.772,-7.087c-0.474,-9.833 13.266,-12.666 15.846,-2.21c0.136,1.103 1.033,1.078 0.816,-0.488c-0.235,-4.25 -1.562,-8.223 -3.387,-12.097l9.308,0c-1.825,3.874 -3.152,7.847 -3.387,12.097c-0.216,1.566 0.68,1.591 0.816,0.488c2.58,-10.456 16.32,-7.623 15.846,2.21c-0.383,7.981 -7.868,9.697 -11.772,7.087c-1.54,-0.959 -1.453,-0.386 -0.612,0.612c5.798,6.845 2.287,15.66 -5.542,15.83c0,0 0,0 -0.008,0l0.002,0Z" style="fill-rule:nonzero;"/><path id="path147-6-9-8-7-0-5-6-1-6-9" d="M164.273,209.077c3.131,-0.071 4.536,-3.744 2.217,-6.596c-0.337,-0.416 -0.372,-0.654 0.244,-0.255c1.562,1.088 4.556,0.373 4.709,-2.952c0.19,-4.098 -5.306,-5.278 -6.338,-0.921c-0.054,0.459 -0.413,0.449 -0.327,-0.204c0.094,-1.771 0.625,-3.426 1.355,-5.04l-3.723,0c0.73,1.614 1.261,3.269 1.355,5.04c0.087,0.653 -0.272,0.663 -0.326,0.204c-1.032,-4.357 -6.528,-3.177 -6.339,0.921c0.153,3.325 3.148,4.04 4.709,2.952c0.616,-0.399 0.581,-0.161 0.245,0.255c-2.319,2.852 -0.915,6.525 2.217,6.596c0,0 0,0 0,0l0.002,0Z" style="fill-rule:nonzero;"/><path id="path147-6-9-8-7-4-5-62-4-0-0" d="M13.728,39.923c-3.132,0.071 -4.536,3.744 -2.217,6.596c0.337,0.416 0.371,0.655 -0.245,0.255c-1.561,-1.088 -4.555,-0.373 -4.709,2.953c-0.189,4.097 5.307,5.277 6.339,0.921c0.054,-0.46 0.413,-0.449 0.326,0.203c-0.094,1.771 -0.625,3.426 -1.354,5.04l3.722,0c-0.729,-1.614 -1.26,-3.269 -1.354,-5.04c-0.087,-0.652 0.272,-0.663 0.326,-0.203c1.032,4.356 6.528,3.176 6.339,-0.921c-0.154,-3.326 -3.148,-4.041 -4.709,-2.953c-0.616,0.4 -0.582,0.161 -0.245,-0.255c2.319,-2.852 0.915,-6.525 -2.217,-6.596l-0.002,0Z" style="fill-rule:nonzero;"/><path id="path27-3-3-2" d="M5.18,29.702c0.125,-3.537 1.402,-4.864 3.917,-6.714c-2.006,-1.449 -2.852,-3.585 -2.68,-5.403c0.414,-4.403 3.809,-6.604 7.514,-6.51c3.708,0.099 6.9,3.042 7.149,6.241c0.216,2.781 -0.609,4.123 -2.58,5.586c2.339,1.977 3.832,3.276 3.777,6.759c-0.055,3.484 -3.015,7.63 -8.174,7.756c-5.158,0.126 -9.051,-4.178 -8.923,-7.715Zm14.401,0.013c0.22,-3.202 -2.607,-5.362 -5.799,-5.394c-3.107,-0.033 -5.886,2.622 -5.886,5.498c0,3.087 3.616,4.765 5.951,4.772c2.839,0.013 5.542,-2.119 5.734,-4.876Zm-1.021,-11.456c0.061,-2.694 -2.423,-4.627 -4.986,-4.55c-2.279,0.07 -4.689,1.81 -4.693,4.064c0,2.822 2.743,4.231 5.086,4.286c2.126,0.048 4.545,-1.762 4.593,-3.8Z" style="fill-rule:nonzero;"/><path id="path27-0-0-5-0" d="M155.723,219.298c0.125,3.537 1.402,4.864 3.917,6.714c-2.006,1.449 -2.852,3.585 -2.68,5.404c0.413,4.402 3.809,6.603 7.514,6.509c3.708,-0.098 6.899,-3.041 7.148,-6.241c0.217,-2.781 -0.609,-4.123 -2.579,-5.586c2.339,-1.977 3.832,-3.275 3.777,-6.759c-0.055,-3.484 -3.015,-7.629 -8.174,-7.756c-5.159,-0.126 -9.051,4.178 -8.923,7.715Zm14.401,-0.013c0.22,3.203 -2.607,5.363 -5.799,5.394c-3.107,0.034 -5.886,-2.622 -5.886,-5.497c0,-3.088 3.615,-4.766 5.951,-4.773c2.839,-0.013 5.542,2.119 5.734,4.876Zm-1.021,11.456c0.06,2.694 -2.423,4.628 -4.986,4.55c-2.279,-0.07 -4.689,-1.81 -4.693,-4.064c0,-2.822 2.743,-4.231 5.086,-4.285c2.126,-0.048 4.544,1.761 4.593,3.799Z" style="fill-rule:nonzero;"/></g></g></svg>