<?xml version="1.0" encoding="UTF-8" standalone="no"?><!DOCTYPE svg PUBLIC "-//W3C//DTD SVG 1.1//EN" "http://www.w3.org/Graphics/SVG/1.1/DTD/svg11.dtd"><svg width="100%" height="100%" viewBox="0 0 178 249" version="1.1" xmlns="http://www.w3.org/2000/svg" xmlns:xlink="http://www.w3.org/1999/xlink" xml:space="preserve" xmlns:serif="http://www.serif.com/" style="fill-rule:evenodd;clip-rule:evenodd;stroke-linejoin:round;stroke-miterlimit:2;"><rect id="_8-diamonds" serif:id="8-diamonds" x="0" y="0" width="178" height="249" style="fill:none;"/><clipPath id="_clip1"><rect x="0" y="0" width="178" height="249"/></clipPath><g clip-path="url(#_clip1)"><rect x="-1244.21" y="-747" width="2312.21" height="1245" style="fill:#fff;"/><g id="_8_diamonds" serif:id="8_diamonds"><path id="path6926-2" d="M13.729,55.891c-1.723,-2.849 -3.536,-5.618 -5.801,-7.984c2.265,-2.365 4.078,-5.135 5.801,-7.984c1.723,2.849 3.536,5.619 5.801,7.984c-2.265,2.366 -4.078,5.135 -5.801,7.984Z" style="fill:#d40000;fill-rule:nonzero;"/><path id="path6928-9" d="M130.278,64.451c-4.135,-6.838 -8.486,-13.484 -13.923,-19.161c5.437,-5.678 9.788,-12.324 13.923,-19.162c4.136,6.838 8.486,13.484 13.923,19.162c-5.437,5.677 -9.787,12.323 -13.923,19.161Z" style="fill:#d40000;fill-rule:nonzero;"/><path id="path6930-6" d="M164.272,209.077c-1.723,-2.849 -3.536,-5.618 -5.801,-7.984c2.265,-2.366 4.078,-5.135 5.801,-7.984c1.723,2.849 3.536,5.618 5.801,7.984c-2.265,2.366 -4.078,5.135 -5.801,7.984Z" style="fill:#d40000;fill-rule:nonzero;"/><path id="path6932-2" d="M47.722,64.451c-4.135,-6.838 -8.486,-13.484 -13.923,-19.161c5.437,-5.678 9.788,-12.324 13.923,-19.162c4.136,6.838 8.486,13.484 13.923,19.162c-5.437,5.677 -9.787,12.323 -13.923,19.161Z" style="fill:#d40000;fill-rule:nonzero;"/><path id="path6938-4" d="M89,104.044c-4.135,-6.839 -8.486,-13.485 -13.923,-19.162c5.437,-5.677 9.788,-12.324 13.923,-19.162c4.136,6.838 8.486,13.485 13.923,19.162c-5.437,5.677 -9.787,12.323 -13.923,19.162Z" style="fill:#d40000;fill-rule:nonzero;"/><path id="path6942-4" d="M47.722,143.636c-4.135,-6.838 -8.486,-13.484 -13.923,-19.162c5.437,-5.677 9.788,-12.323 13.923,-19.162c4.136,6.839 8.486,13.485 13.923,19.162c-5.437,5.678 -9.787,12.324 -13.923,19.162Z" style="fill:#d40000;fill-rule:nonzero;"/><path id="path6944-9" d="M130.278,143.648c-4.135,-6.838 -8.486,-13.484 -13.923,-19.161c5.437,-5.678 9.788,-12.324 13.923,-19.162c4.136,6.838 8.486,13.484 13.923,19.162c-5.437,5.677 -9.787,12.323 -13.923,19.161Z" style="fill:#d40000;fill-rule:nonzero;"/><path id="path6948-4" d="M47.722,222.876c-4.135,-6.838 -8.486,-13.484 -13.923,-19.162c5.437,-5.677 9.788,-12.323 13.923,-19.161c4.136,6.838 8.486,13.484 13.923,19.161c-5.437,5.678 -9.787,12.324 -13.923,19.162Z" style="fill:#d40000;fill-rule:nonzero;"/><path id="path6950-4" d="M130.278,222.882c-4.135,-6.838 -8.486,-13.485 -13.923,-19.162c5.437,-5.677 9.788,-12.323 13.923,-19.162c4.136,6.839 8.486,13.485 13.923,19.162c-5.437,5.677 -9.787,12.324 -13.923,19.162Z" style="fill:#d40000;fill-rule:nonzero;"/><path id="path6956-4" d="M89,183.256c-4.135,-6.838 -8.486,-13.484 -13.923,-19.162c5.437,-5.677 9.788,-12.323 13.923,-19.161c4.136,6.838 8.486,13.484 13.923,19.161c-5.437,5.678 -9.787,12.324 -13.923,19.162Z" style="fill:#d40000;fill-rule:nonzero;"/><path id="path27-00-7-8-6" d="M5.18,29.702c0.125,-3.537 1.403,-4.864 3.917,-6.714c-2.006,-1.449 -2.852,-3.585 -2.68,-5.403c0.414,-4.403 3.809,-6.604 7.514,-6.51c3.708,0.098 6.9,3.042 7.149,6.241c0.216,2.781 -0.609,4.123 -2.58,5.586c2.339,1.977 3.832,3.276 3.777,6.759c-0.055,3.484 -3.015,7.629 -8.174,7.756c-5.158,0.126 -9.051,-4.178 -8.923,-7.715Zm14.401,0.013c0.22,-3.203 -2.607,-5.363 -5.799,-5.394c-3.107,-0.033 -5.886,2.622 -5.886,5.497c0,3.088 3.616,4.766 5.951,4.773c2.839,0.013 5.542,-2.119 5.734,-4.876Zm-1.021,-11.456c0.06,-2.694 -2.423,-4.627 -4.986,-4.55c-2.279,0.07 -4.689,1.81 -4.693,4.064c0,2.822 2.743,4.231 5.086,4.286c2.126,0.048 4.545,-1.762 4.593,-3.8Z" style="fill:#d40000;fill-rule:nonzero;"/><path id="path27-0-1-9-8" d="M155.723,219.298c0.125,3.537 1.402,4.864 3.917,6.714c-2.006,1.449 -2.852,3.585 -2.68,5.404c0.413,4.402 3.809,6.603 7.514,6.509c3.708,-0.098 6.899,-3.041 7.149,-6.241c0.216,-2.781 -0.609,-4.123 -2.58,-5.586c2.339,-1.977 3.832,-3.275 3.777,-6.759c-0.055,-3.484 -3.015,-7.629 -8.174,-7.756c-5.159,-0.126 -9.051,4.178 -8.923,7.715Zm14.401,-0.013c0.22,3.203 -2.607,5.363 -5.799,5.394c-3.107,0.034 -5.886,-2.622 -5.886,-5.497c0,-3.088 3.615,-4.766 5.951,-4.773c2.839,-0.013 5.542,2.119 5.734,4.876Zm-1.021,11.456c0.06,2.694 -2.423,4.627 -4.986,4.55c-2.279,-0.07 -4.689,-1.81 -4.693,-4.064c0,-2.822 2.743,-4.231 5.086,-4.285c2.126,-0.048 4.544,1.761 4.593,3.799Z" style="fill:#d40000;fill-rule:nonzero;"/></g></g></svg>