<?xml version="1.0" encoding="UTF-8" standalone="no"?><!DOCTYPE svg PUBLIC "-//W3C//DTD SVG 1.1//EN" "http://www.w3.org/Graphics/SVG/1.1/DTD/svg11.dtd"><svg width="100%" height="100%" viewBox="0 0 178 249" version="1.1" xmlns="http://www.w3.org/2000/svg" xmlns:xlink="http://www.w3.org/1999/xlink" xml:space="preserve" xmlns:serif="http://www.serif.com/" style="fill-rule:evenodd;clip-rule:evenodd;stroke-linejoin:round;stroke-miterlimit:2;"><rect id="_8-hearts" serif:id="8-hearts" x="0" y="0" width="178" height="249" style="fill:none;"/><clipPath id="_clip1"><rect x="0" y="0" width="178" height="249"/></clipPath><g clip-path="url(#_clip1)"><rect x="-1244.21" y="-249" width="2312.21" height="1245" style="fill:#fff;"/><g id="_8_hearts" serif:id="8_hearts"><path id="path10174-9-0" d="M13.729,55.892c0,0 -1.774,-2.547 -4.167,-5.541c-1.601,-2.004 -2.881,-4.174 -3,-6.043c-0.136,-2.135 1.156,-4.276 3.494,-4.38c2.338,-0.104 3.287,1.646 3.673,3.089c0.386,-1.443 1.335,-3.193 3.672,-3.089c2.339,0.104 3.631,2.245 3.495,4.38c-0.119,1.869 -1.399,4.039 -3,6.043c-2.393,2.994 -4.167,5.541 -4.167,5.541Z" style="fill:#d40000;fill-rule:nonzero;"/><path id="path10176-9-9" d="M164.272,193.109c0,0.002 -1.774,2.546 -4.167,5.541c-1.601,2.003 -2.881,4.173 -3,6.042c-0.136,2.135 1.155,4.276 3.494,4.38c2.338,0.104 3.286,-1.646 3.673,-3.088c0.386,1.442 1.335,3.192 3.672,3.088c2.339,-0.104 3.631,-2.245 3.494,-4.38c-0.119,-1.869 -1.398,-4.039 -2.999,-6.042c-2.393,-2.995 -4.166,-5.539 -4.167,-5.541Z" style="fill:#d40000;fill-rule:nonzero;"/><path id="path10178-8-4" d="M89,104.057c0,0 -3.721,-6.113 -8.74,-13.299c-3.358,-4.809 -6.043,-10.016 -6.292,-14.501c-0.286,-5.124 2.423,-10.264 7.329,-10.513c4.903,-0.249 6.893,3.95 7.703,7.413c0.81,-3.463 2.8,-7.662 7.703,-7.413c4.906,0.249 7.615,5.389 7.329,10.513c-0.25,4.485 -2.934,9.692 -6.292,14.501c-5.019,7.186 -8.74,13.299 -8.74,13.299Z" style="fill:#d40000;fill-rule:nonzero;"/><path id="path10182-1-9" d="M47.722,64.452c0,0 -3.721,-6.112 -8.74,-13.299c-3.358,-4.809 -6.042,-10.016 -6.292,-14.501c-0.286,-5.124 2.423,-10.264 7.329,-10.513c4.903,-0.249 6.893,3.95 7.703,7.413c0.81,-3.463 2.8,-7.662 7.703,-7.413c4.906,0.249 7.615,5.389 7.329,10.513c-0.25,4.485 -2.934,9.692 -6.292,14.501c-5.019,7.187 -8.74,13.299 -8.74,13.299Z" style="fill:#d40000;fill-rule:nonzero;"/><path id="path10184-9-1" d="M130.278,143.662c0,0 -3.721,-6.112 -8.74,-13.299c-3.358,-4.809 -6.042,-10.016 -6.292,-14.501c-0.286,-5.124 2.423,-10.264 7.329,-10.513c4.903,-0.249 6.893,3.95 7.703,7.413c0.81,-3.463 2.8,-7.662 7.703,-7.413c4.906,0.249 7.615,5.389 7.329,10.513c-0.25,4.485 -2.934,9.692 -6.292,14.501c-5.019,7.187 -8.74,13.299 -8.74,13.299Z" style="fill:#d40000;fill-rule:nonzero;"/><path id="path10188-5-4" d="M130.278,64.452c0,0 -3.721,-6.112 -8.74,-13.299c-3.358,-4.809 -6.042,-10.016 -6.292,-14.501c-0.286,-5.124 2.423,-10.264 7.329,-10.513c4.903,-0.249 6.893,3.95 7.703,7.413c0.81,-3.463 2.8,-7.662 7.703,-7.413c4.906,0.249 7.615,5.389 7.329,10.513c-0.25,4.485 -2.934,9.692 -6.292,14.501c-5.019,7.187 -8.74,13.299 -8.74,13.299Z" style="fill:#d40000;fill-rule:nonzero;"/><path id="path10192-3-6" d="M47.722,143.662c0,0 -3.721,-6.112 -8.74,-13.299c-3.358,-4.809 -6.042,-10.016 -6.292,-14.501c-0.286,-5.124 2.423,-10.264 7.329,-10.513c4.903,-0.249 6.893,3.95 7.703,7.413c0.81,-3.463 2.8,-7.662 7.703,-7.413c4.906,0.249 7.615,5.389 7.329,10.513c-0.25,4.485 -2.934,9.692 -6.292,14.501c-5.019,7.187 -8.74,13.299 -8.74,13.299Z" style="fill:#d40000;fill-rule:nonzero;"/><path id="path10196-7-3" d="M89,144.943c0,0 -3.721,6.113 -8.74,13.299c-3.358,4.809 -6.043,10.016 -6.292,14.501c-0.286,5.124 2.423,10.264 7.329,10.513c4.903,0.249 6.893,-3.95 7.703,-7.413c0.81,3.463 2.8,7.662 7.703,7.413c4.906,-0.249 7.615,-5.389 7.329,-10.513c-0.25,-4.485 -2.934,-9.692 -6.292,-14.501c-5.019,-7.186 -8.74,-13.299 -8.74,-13.299Z" style="fill:#d40000;fill-rule:nonzero;"/><path id="path10202-2-8" d="M130.278,184.548c0,0 -3.721,6.112 -8.74,13.299c-3.358,4.809 -6.042,10.016 -6.292,14.501c-0.286,5.124 2.423,10.264 7.329,10.513c4.903,0.249 6.893,-3.95 7.703,-7.413c0.81,3.463 2.8,7.662 7.703,7.413c4.906,-0.249 7.615,-5.389 7.329,-10.513c-0.25,-4.485 -2.934,-9.692 -6.292,-14.501c-5.019,-7.187 -8.74,-13.299 -8.74,-13.299Z" style="fill:#d40000;fill-rule:nonzero;"/><path id="path10204-9-4" d="M47.722,184.548c0,0 -3.721,6.112 -8.74,13.299c-3.358,4.809 -6.042,10.016 -6.292,14.501c-0.286,5.124 2.423,10.264 7.329,10.513c4.903,0.249 6.893,-3.95 7.703,-7.413c0.81,3.463 2.8,7.662 7.703,7.413c4.906,-0.249 7.615,-5.389 7.329,-10.513c-0.25,-4.485 -2.934,-9.692 -6.292,-14.501c-5.019,-7.187 -8.74,-13.299 -8.74,-13.299Z" style="fill:#d40000;fill-rule:nonzero;"/><path id="path27-00-0-7-4" d="M5.18,29.703c0.125,-3.537 1.402,-4.864 3.917,-6.715c-2.006,-1.449 -2.852,-3.585 -2.68,-5.403c0.413,-4.402 3.809,-6.603 7.514,-6.509c3.708,0.098 6.899,3.041 7.149,6.24c0.216,2.782 -0.609,4.124 -2.58,5.587c2.339,1.977 3.832,3.275 3.777,6.759c-0.055,3.484 -3.015,7.629 -8.174,7.755c-5.159,0.127 -9.051,-4.177 -8.923,-7.714Zm14.401,0.012c0.22,-3.202 -2.607,-5.362 -5.799,-5.393c-3.107,-0.034 -5.886,2.622 -5.886,5.497c0,3.087 3.615,4.765 5.951,4.773c2.839,0.012 5.542,-2.12 5.734,-4.877Zm-1.021,-11.455c0.06,-2.695 -2.423,-4.628 -4.986,-4.55c-2.279,0.07 -4.689,1.809 -4.693,4.064c0,2.821 2.743,4.231 5.086,4.285c2.126,0.048 4.545,-1.762 4.593,-3.799Z" style="fill:#d40000;fill-rule:nonzero;"/><path id="path27-0-1-0-8-9" d="M155.723,219.298c0.125,3.537 1.402,4.863 3.917,6.714c-2.006,1.449 -2.852,3.585 -2.68,5.403c0.413,4.403 3.809,6.604 7.514,6.509c3.708,-0.098 6.899,-3.041 7.148,-6.24c0.217,-2.781 -0.609,-4.124 -2.579,-5.586c2.339,-1.977 3.832,-3.276 3.777,-6.76c-0.055,-3.483 -3.015,-7.629 -8.174,-7.755c-5.159,-0.127 -9.051,4.178 -8.923,7.715Zm14.401,-0.013c0.22,3.202 -2.607,5.362 -5.799,5.394c-3.107,0.033 -5.887,-2.623 -5.887,-5.498c0,-3.087 3.616,-4.765 5.952,-4.772c2.838,-0.013 5.542,2.119 5.734,4.876Zm-1.022,11.456c0.061,2.694 -2.422,4.627 -4.985,4.55c-2.279,-0.071 -4.689,-1.81 -4.693,-4.064c0,-2.822 2.743,-4.232 5.086,-4.286c2.126,-0.048 4.544,1.762 4.592,3.8Z" style="fill:#d40000;fill-rule:nonzero;"/></g></g></svg>