<?xml version="1.0" encoding="UTF-8" standalone="no"?><!DOCTYPE svg PUBLIC "-//W3C//DTD SVG 1.1//EN" "http://www.w3.org/Graphics/SVG/1.1/DTD/svg11.dtd"><svg width="100%" height="100%" viewBox="0 0 178 249" version="1.1" xmlns="http://www.w3.org/2000/svg" xmlns:xlink="http://www.w3.org/1999/xlink" xml:space="preserve" xmlns:serif="http://www.serif.com/" style="fill-rule:evenodd;clip-rule:evenodd;stroke-linejoin:round;stroke-miterlimit:2;"><rect id="_8-spades" serif:id="8-spades" x="0" y="0" width="178" height="249" style="fill:none;"/><clipPath id="_clip1"><rect x="0" y="0" width="178" height="249"/></clipPath><g clip-path="url(#_clip1)"><rect x="-1244.21" y="-498" width="2312.21" height="1245" style="fill:#fff;"/><g id="_8_spades" serif:id="8_spades"><path id="path7155-4-0" d="M47.722,26.128c-7.357,10.505 -15.228,16.55 -15.359,24.746c-0.044,2.653 1.389,7.164 5.878,8.027c2.912,0.558 6.921,-1.802 7.005,-6.597c-0.013,-0.954 1.009,-0.929 0.999,0.379c-0.137,3.781 -1.332,8.185 -3.342,11.769l9.638,0c-2.01,-3.584 -3.205,-7.988 -3.343,-11.769c-0.009,-1.308 1.013,-1.333 1,-0.379c0.084,4.795 4.093,7.155 7.005,6.597c4.489,-0.863 5.922,-5.374 5.878,-8.027c-0.131,-8.196 -8.002,-14.241 -15.359,-24.746Z" style="fill-rule:nonzero;"/><path id="path7157-2-9" d="M13.729,39.923c-3.437,4.377 -7.115,6.896 -7.176,10.311c-0.021,1.106 0.649,2.985 2.746,3.345c1.361,0.232 3.234,-0.751 3.273,-2.749c-0.008,-0.398 0.471,-0.387 0.467,0.158c-0.064,1.576 -0.623,3.41 -1.562,4.904l4.503,0c-0.939,-1.494 -1.497,-3.328 -1.561,-4.904c-0.008,-0.545 0.473,-0.556 0.467,-0.158c0.039,1.998 1.912,2.981 3.273,2.749c2.097,-0.36 2.766,-2.239 2.746,-3.345c-0.062,-3.415 -3.739,-5.934 -7.176,-10.311Z" style="fill-rule:nonzero;"/><path id="path7162-7-0" d="M164.272,209.077c-3.438,-4.377 -7.115,-6.896 -7.176,-10.311c-0.021,-1.106 0.649,-2.985 2.746,-3.345c1.36,-0.232 3.234,0.751 3.273,2.749c-0.008,0.398 0.471,0.387 0.467,-0.158c-0.064,-1.575 -0.623,-3.41 -1.562,-4.903l4.503,0c-0.939,1.493 -1.498,3.328 -1.562,4.903c-0.008,0.545 0.474,0.556 0.468,0.158c0.039,-1.998 1.912,-2.981 3.273,-2.749c2.097,0.36 2.766,2.239 2.746,3.345c-0.062,3.415 -3.739,5.934 -7.176,10.311Z" style="fill-rule:nonzero;"/><path id="path7164-8-3" d="M130.278,26.128c-7.357,10.505 -15.228,16.55 -15.359,24.746c-0.044,2.653 1.389,7.164 5.877,8.027c2.913,0.558 6.922,-1.802 7.006,-6.597c-0.013,-0.954 1.009,-0.929 0.999,0.379c-0.137,3.781 -1.332,8.185 -3.342,11.769l9.638,0c-2.01,-3.584 -3.205,-7.988 -3.343,-11.769c-0.009,-1.308 1.013,-1.333 1,-0.379c0.084,4.795 4.093,7.155 7.005,6.597c4.489,-0.863 5.922,-5.374 5.878,-8.027c-0.131,-8.196 -8.002,-14.241 -15.359,-24.746Z" style="fill-rule:nonzero;"/><path id="path7168-3-2" d="M89,65.733c-7.357,10.505 -15.228,16.55 -15.359,24.745c-0.044,2.654 1.389,7.165 5.877,8.028c2.913,0.558 6.922,-1.802 7.006,-6.597c-0.013,-0.954 1.009,-0.929 0.999,0.379c-0.137,3.781 -1.332,8.184 -3.342,11.769l9.638,0c-2.01,-3.585 -3.205,-7.988 -3.343,-11.769c-0.009,-1.308 1.013,-1.333 1,-0.379c0.084,4.795 4.093,7.155 7.005,6.597c4.489,-0.863 5.922,-5.374 5.878,-8.028c-0.131,-8.195 -8.002,-14.24 -15.359,-24.745Z" style="fill-rule:nonzero;"/><path id="path7174-5-0" d="M47.722,105.338c-7.357,10.505 -15.228,16.55 -15.359,24.745c-0.044,2.654 1.389,7.165 5.878,8.028c2.912,0.558 6.921,-1.802 7.005,-6.597c-0.013,-0.954 1.009,-0.929 0.999,0.379c-0.137,3.781 -1.332,8.185 -3.342,11.769l9.638,0c-2.01,-3.584 -3.205,-7.988 -3.343,-11.769c-0.009,-1.308 1.013,-1.333 1,-0.379c0.084,4.795 4.093,7.155 7.005,6.597c4.489,-0.863 5.922,-5.374 5.878,-8.028c-0.131,-8.195 -8.002,-14.24 -15.359,-24.745Z" style="fill-rule:nonzero;"/><path id="path7176-7-0" d="M47.722,222.872c-7.357,-10.505 -15.228,-16.55 -15.359,-24.746c-0.044,-2.653 1.389,-7.164 5.878,-8.027c2.912,-0.558 6.921,1.802 7.005,6.597c-0.013,0.954 1.009,0.929 0.999,-0.379c-0.137,-3.781 -1.332,-8.185 -3.342,-11.769l9.638,0c-2.01,3.584 -3.205,7.988 -3.343,11.769c-0.009,1.308 1.013,1.333 1,0.379c0.084,-4.795 4.093,-7.155 7.005,-6.597c4.489,0.863 5.922,5.374 5.878,8.027c-0.131,8.196 -8.002,14.241 -15.359,24.746Z" style="fill-rule:nonzero;"/><path id="path7178-9-4" d="M130.278,222.872c-7.357,-10.505 -15.228,-16.55 -15.359,-24.746c-0.044,-2.653 1.389,-7.164 5.877,-8.027c2.913,-0.558 6.922,1.802 7.006,6.597c-0.013,0.954 1.009,0.929 0.999,-0.379c-0.137,-3.781 -1.332,-8.185 -3.342,-11.769l9.638,0c-2.01,3.584 -3.205,7.988 -3.343,11.769c-0.009,1.308 1.013,1.333 1,0.379c0.084,-4.795 4.093,-7.155 7.005,-6.597c4.489,0.863 5.922,5.374 5.878,8.027c-0.131,8.196 -8.002,14.241 -15.359,24.746Z" style="fill-rule:nonzero;"/><path id="path7180-5-1" d="M89,183.267c-7.357,-10.505 -15.228,-16.55 -15.359,-24.745c-0.044,-2.654 1.389,-7.165 5.877,-8.028c2.913,-0.558 6.922,1.802 7.006,6.597c-0.013,0.954 1.009,0.929 0.999,-0.379c-0.137,-3.781 -1.332,-8.184 -3.342,-11.769l9.638,0c-2.01,3.585 -3.205,7.988 -3.343,11.769c-0.009,1.308 1.013,1.333 1,0.379c0.084,-4.795 4.093,-7.155 7.005,-6.597c4.489,0.863 5.922,5.374 5.878,8.028c-0.131,8.195 -8.002,14.24 -15.359,24.745Z" style="fill-rule:nonzero;"/><path id="path7189-7-7" d="M130.278,105.338c-7.357,10.505 -15.228,16.55 -15.359,24.745c-0.044,2.654 1.389,7.165 5.877,8.028c2.913,0.558 6.922,-1.802 7.006,-6.597c-0.013,-0.954 1.009,-0.929 0.999,0.379c-0.137,3.781 -1.332,8.185 -3.342,11.769l9.638,0c-2.01,-3.584 -3.205,-7.988 -3.343,-11.769c-0.009,-1.308 1.013,-1.333 1,-0.379c0.084,4.795 4.093,7.155 7.005,6.597c4.489,-0.863 5.922,-5.374 5.878,-8.028c-0.131,-8.195 -8.002,-14.24 -15.359,-24.745Z" style="fill-rule:nonzero;"/><path id="path27-43-30-7" d="M5.18,29.703c0.125,-3.537 1.402,-4.864 3.917,-6.715c-2.006,-1.449 -2.852,-3.585 -2.68,-5.403c0.413,-4.403 3.809,-6.603 7.514,-6.509c3.708,0.098 6.899,3.041 7.149,6.24c0.216,2.781 -0.609,4.124 -2.58,5.587c2.339,1.977 3.832,3.275 3.777,6.759c-0.055,3.483 -3.015,7.629 -8.174,7.755c-5.159,0.127 -9.051,-4.177 -8.923,-7.714Zm14.401,0.012c0.22,-3.202 -2.607,-5.362 -5.799,-5.393c-3.107,-0.034 -5.886,2.622 -5.886,5.497c0,3.087 3.615,4.765 5.951,4.773c2.839,0.012 5.542,-2.12 5.734,-4.877Zm-1.021,-11.455c0.06,-2.695 -2.423,-4.628 -4.986,-4.55c-2.279,0.07 -4.689,1.809 -4.693,4.064c0,2.821 2.743,4.231 5.086,4.285c2.126,0.048 4.544,-1.762 4.593,-3.799Z" style="fill-rule:nonzero;"/><path id="path27-43-3-4-8" d="M155.723,219.298c0.125,3.537 1.402,4.863 3.917,6.714c-2.006,1.449 -2.852,3.585 -2.68,5.403c0.413,4.403 3.809,6.604 7.514,6.509c3.708,-0.098 6.899,-3.041 7.148,-6.24c0.217,-2.781 -0.609,-4.124 -2.579,-5.586c2.338,-1.977 3.832,-3.276 3.777,-6.76c-0.055,-3.483 -3.015,-7.629 -8.174,-7.755c-5.159,-0.127 -9.051,4.178 -8.923,7.715l0,0Zm14.401,-0.013c0.22,3.202 -2.608,5.362 -5.799,5.394c-3.107,0.033 -5.887,-2.623 -5.887,-5.498c0,-3.087 3.616,-4.765 5.952,-4.772c2.838,-0.013 5.542,2.119 5.734,4.876l0,0Zm-1.022,11.455c0.061,2.695 -2.422,4.628 -4.985,4.551c-2.279,-0.071 -4.689,-1.81 -4.693,-4.064c0,-2.822 2.743,-4.232 5.086,-4.286c2.126,-0.048 4.544,1.762 4.592,3.799Z" style="fill-rule:nonzero;"/></g></g></svg>