<?xml version="1.0" encoding="UTF-8" standalone="no"?>
<!DOCTYPE svg PUBLIC "-//W3C//DTD SVG 1.1//EN" "http://www.w3.org/Graphics/SVG/1.1/DTD/svg11.dtd">
<svg width="100%" height="100%" viewBox="0 0 182 253" version="1.1" xmlns="http://www.w3.org/2000/svg" xmlns:xlink="http://www.w3.org/1999/xlink" xml:space="preserve" xmlns:serif="http://www.serif.com/" style="fill-rule:evenodd;clip-rule:evenodd;">
    <g transform="matrix(1,0,0,1,-1520,-34)">
        <g transform="matrix(1,0,0,1,-328,1179.11)">
            <g id="_8_clubs" serif:id="8_clubs" transform="matrix(0.999997,0,0,1,-0.791115,-272.411)">
                <path id="rect6355-6-85-3-3-4-3" d="M2028.27,-862.192C2028.27,-866.885 2024.46,-870.696 2019.77,-870.696L1858.99,-870.696C1854.3,-870.696 1850.49,-866.885 1850.49,-862.192L1850.49,-630.549C1850.49,-625.855 1854.3,-622.045 1858.99,-622.045L2019.77,-622.045C2024.46,-622.045 2028.27,-625.855 2028.27,-630.549L2028.27,-862.192Z" style="fill:white;stroke:black;stroke-width:0.8px;"/>
                <path id="path147-0-8-1-6-13-2-2-3-8" d="M1980.61,-844.292C1972.79,-844.122 1969.28,-835.318 1975.07,-828.481C1975.91,-827.484 1976,-826.912 1974.46,-827.87C1970.56,-830.477 1963.08,-828.763 1962.7,-820.792C1962.23,-810.97 1975.95,-808.14 1978.53,-818.584C1978.66,-819.686 1979.56,-819.661 1979.34,-818.097C1979.11,-813.852 1977.78,-809.884 1975.96,-806.015L1985.26,-806.015C1983.43,-809.884 1982.11,-813.852 1981.87,-818.097C1981.66,-819.661 1982.55,-819.686 1982.69,-818.584C1985.27,-808.14 1998.99,-810.97 1998.52,-820.792C1998.13,-828.763 1990.66,-830.477 1986.76,-827.87C1985.22,-826.912 1985.31,-827.484 1986.15,-828.481C1991.94,-835.318 1988.43,-844.122 1980.61,-844.292C1980.61,-844.292 1980.61,-844.292 1980.6,-844.292L1980.61,-844.292Z" style="fill-rule:nonzero;"/>
                <path id="path147-0-8-1-6-75-2-83-9-8-9" d="M1898.15,-844.292C1890.33,-844.122 1886.82,-835.318 1892.61,-828.481C1893.45,-827.484 1893.54,-826.912 1892,-827.87C1888.1,-830.477 1880.63,-828.763 1880.24,-820.792C1879.77,-810.97 1893.49,-808.14 1896.07,-818.584C1896.21,-819.686 1897.1,-819.661 1896.89,-818.097C1896.65,-813.852 1895.33,-809.884 1893.5,-806.015L1902.8,-806.015C1900.98,-809.884 1899.65,-813.852 1899.42,-818.097C1899.2,-819.661 1900.1,-819.686 1900.23,-818.584C1902.81,-808.14 1916.53,-810.97 1916.06,-820.792C1915.68,-828.763 1908.2,-830.477 1904.3,-827.87C1902.76,-826.912 1902.85,-827.484 1903.69,-828.481C1909.48,-835.318 1905.97,-844.122 1898.15,-844.292C1898.15,-844.292 1898.15,-844.292 1898.15,-844.292L1898.15,-844.292Z" style="fill-rule:nonzero;"/>
                <path id="path147-0-8-1-6-7-5-5-7-62-3-0" d="M1980.61,-647.785C1972.79,-647.955 1969.28,-656.759 1975.07,-663.596C1975.91,-664.593 1976,-665.165 1974.46,-664.208C1970.56,-661.6 1963.08,-663.314 1962.7,-671.285C1962.23,-681.107 1975.95,-683.937 1978.53,-673.493C1978.66,-672.391 1979.56,-672.416 1979.34,-673.98C1979.11,-678.226 1977.78,-682.193 1975.96,-686.063L1985.26,-686.063C1983.43,-682.193 1982.11,-678.226 1981.87,-673.98C1981.66,-672.416 1982.55,-672.391 1982.69,-673.493C1985.27,-683.937 1998.99,-681.107 1998.52,-671.285C1998.13,-663.314 1990.66,-661.6 1986.76,-664.208C1985.22,-665.165 1985.31,-664.593 1986.15,-663.596C1991.94,-656.759 1988.43,-647.955 1980.61,-647.785C1980.61,-647.785 1980.61,-647.785 1980.6,-647.785L1980.61,-647.785Z" style="fill-rule:nonzero;"/>
                <path id="path147-0-8-1-6-75-6-1-2-41-4-5" d="M1898.15,-647.785C1890.33,-647.955 1886.82,-656.759 1892.61,-663.596C1893.45,-664.593 1893.54,-665.165 1892,-664.208C1888.1,-661.6 1880.63,-663.314 1880.24,-671.285C1879.77,-681.107 1893.49,-683.937 1896.07,-673.493C1896.21,-672.391 1897.1,-672.416 1896.89,-673.98C1896.65,-678.226 1895.33,-682.193 1893.5,-686.063L1902.8,-686.063C1900.98,-682.193 1899.65,-678.226 1899.42,-673.98C1899.2,-672.416 1900.1,-672.391 1900.23,-673.493C1902.81,-683.937 1916.53,-681.107 1916.06,-671.285C1915.68,-663.314 1908.2,-661.6 1904.3,-664.208C1902.76,-665.165 1902.85,-664.593 1903.69,-663.596C1909.48,-656.759 1905.97,-647.955 1898.15,-647.785C1898.15,-647.785 1898.15,-647.785 1898.15,-647.785L1898.15,-647.785Z" style="fill-rule:nonzero;"/>
                <path id="path147-0-8-1-6-2-00-7-5-5-3" d="M1939.38,-804.734C1931.56,-804.565 1928.05,-795.761 1933.84,-788.924C1934.68,-787.926 1934.77,-787.354 1933.23,-788.312C1929.33,-790.919 1921.86,-789.205 1921.47,-781.234C1921,-771.413 1934.72,-768.583 1937.3,-779.027C1937.43,-780.128 1938.33,-780.103 1938.12,-778.539C1937.88,-774.294 1936.55,-770.326 1934.73,-766.457L1944.03,-766.457C1942.21,-770.326 1940.88,-774.294 1940.64,-778.539C1940.43,-780.103 1941.33,-780.128 1941.46,-779.027C1944.04,-768.583 1957.76,-771.413 1957.29,-781.234C1956.9,-789.205 1949.43,-790.919 1945.53,-788.312C1943.99,-787.354 1944.08,-787.926 1944.92,-788.924C1950.71,-795.761 1947.2,-804.565 1939.38,-804.734C1939.38,-804.734 1939.38,-804.734 1939.38,-804.734L1939.38,-804.734Z" style="fill-rule:nonzero;"/>
                <path id="path147-0-8-1-6-7-5-7-3-0-4-4-6" d="M1980.61,-765.177C1972.79,-765.007 1969.28,-756.203 1975.07,-749.367C1975.91,-748.369 1976,-747.797 1974.46,-748.755C1970.56,-751.362 1963.08,-749.648 1962.7,-741.677C1962.23,-731.856 1975.95,-729.026 1978.53,-739.469C1978.66,-740.571 1979.56,-740.546 1979.34,-738.982C1979.11,-734.737 1977.78,-730.769 1975.96,-726.9L1985.26,-726.9C1983.43,-730.769 1982.11,-734.737 1981.87,-738.982C1981.66,-740.546 1982.55,-740.571 1982.69,-739.469C1985.27,-729.026 1998.99,-731.856 1998.52,-741.677C1998.13,-749.648 1990.66,-751.362 1986.76,-748.755C1985.22,-747.797 1985.31,-748.369 1986.15,-749.367C1991.94,-756.203 1988.43,-765.007 1980.61,-765.177C1980.61,-765.177 1980.61,-765.177 1980.6,-765.177L1980.61,-765.177Z" style="fill-rule:nonzero;"/>
                <path id="path147-0-8-1-6-75-6-6-5-3-2-4-8" d="M1898.15,-765.177C1890.33,-765.007 1886.82,-756.203 1892.61,-749.367C1893.45,-748.369 1893.54,-747.797 1892,-748.755C1888.1,-751.362 1880.63,-749.648 1880.24,-741.677C1879.77,-731.856 1893.49,-729.026 1896.07,-739.469C1896.21,-740.571 1897.1,-740.546 1896.89,-738.982C1896.65,-734.737 1895.33,-730.769 1893.5,-726.9L1902.8,-726.9C1900.98,-730.769 1899.65,-734.737 1899.42,-738.982C1899.2,-740.546 1900.1,-740.571 1900.23,-739.469C1902.81,-729.026 1916.53,-731.856 1916.06,-741.677C1915.68,-749.648 1908.2,-751.362 1904.3,-748.755C1902.76,-747.797 1902.85,-748.369 1903.69,-749.367C1909.48,-756.203 1905.97,-765.007 1898.15,-765.177C1898.15,-765.177 1898.15,-765.177 1898.15,-765.177L1898.15,-765.177Z" style="fill-rule:nonzero;"/>
                <path id="path147-0-8-1-6-2-0-8-6-42-9-6" d="M1939.38,-687.343C1931.56,-687.512 1928.05,-696.316 1933.84,-703.153C1934.68,-704.151 1934.77,-704.723 1933.23,-703.765C1929.33,-701.158 1921.86,-702.872 1921.47,-710.843C1921,-720.664 1934.72,-723.494 1937.3,-713.05C1937.43,-711.949 1938.33,-711.974 1938.12,-713.538C1937.88,-717.783 1936.55,-721.751 1934.73,-725.62L1944.03,-725.62C1942.21,-721.751 1940.88,-717.783 1940.64,-713.538C1940.43,-711.974 1941.33,-711.949 1941.46,-713.05C1944.04,-723.494 1957.76,-720.664 1957.29,-710.843C1956.9,-702.872 1949.43,-701.158 1945.53,-703.765C1943.99,-704.723 1944.08,-704.151 1944.92,-703.153C1950.71,-696.316 1947.2,-687.512 1939.38,-687.343C1939.38,-687.343 1939.38,-687.343 1939.38,-687.343L1939.38,-687.343Z" style="fill-rule:nonzero;"/>
                <path id="path147-6-9-8-7-0-5-6-1-6-9" d="M2014.56,-661.895C2017.69,-661.966 2019.09,-665.634 2016.78,-668.483C2016.44,-668.899 2016.41,-669.137 2017.02,-668.738C2018.58,-667.652 2021.57,-668.366 2021.72,-671.687C2021.91,-675.779 2016.42,-676.958 2015.39,-672.607C2015.34,-672.148 2014.98,-672.158 2015.07,-672.81C2015.16,-674.579 2015.69,-676.232 2016.42,-677.844L2012.7,-677.844C2013.43,-676.232 2013.96,-674.579 2014.06,-672.81C2014.14,-672.158 2013.78,-672.148 2013.73,-672.607C2012.7,-676.958 2007.21,-675.779 2007.4,-671.687C2007.55,-668.366 2010.54,-667.652 2012.1,-668.738C2012.72,-669.137 2012.68,-668.899 2012.35,-668.483C2010.03,-665.634 2011.43,-661.966 2014.56,-661.895C2014.56,-661.895 2014.56,-661.895 2014.56,-661.895L2014.56,-661.895Z" style="fill-rule:nonzero;"/>
                <path id="path147-6-9-8-7-4-5-62-4-0-0" d="M1864.2,-830.845C1861.07,-830.774 1859.67,-827.106 1861.98,-824.257C1862.32,-823.842 1862.36,-823.603 1861.74,-824.002C1860.18,-825.089 1857.19,-824.374 1857.04,-821.053C1856.85,-816.961 1862.34,-815.782 1863.37,-820.133C1863.42,-820.592 1863.78,-820.582 1863.69,-819.93C1863.6,-818.161 1863.07,-816.508 1862.34,-814.896L1866.06,-814.896C1865.33,-816.508 1864.8,-818.161 1864.71,-819.93C1864.62,-820.582 1864.98,-820.592 1865.03,-820.133C1866.06,-815.782 1871.55,-816.961 1871.36,-821.053C1871.21,-824.374 1868.22,-825.089 1866.66,-824.002C1866.04,-823.603 1866.08,-823.842 1866.41,-824.257C1868.73,-827.106 1867.33,-830.774 1864.2,-830.845L1864.2,-830.845Z" style="fill-rule:nonzero;"/>
                <path id="path27-3-3-2" d="M1855.66,-841.054C1855.79,-844.586 1857.06,-845.911 1859.57,-847.76C1857.57,-849.207 1856.73,-851.34 1856.9,-853.156C1857.31,-857.554 1860.7,-859.752 1864.4,-859.658C1868.11,-859.56 1871.29,-856.62 1871.54,-853.425C1871.76,-850.647 1870.93,-849.306 1868.97,-847.845C1871.3,-845.871 1872.79,-844.574 1872.74,-841.094C1872.68,-837.615 1869.73,-833.474 1864.57,-833.348C1859.42,-833.222 1855.53,-837.521 1855.66,-841.054ZM1870.04,-841.041C1870.27,-844.239 1867.44,-846.397 1864.25,-846.428C1861.15,-846.462 1858.37,-843.809 1858.37,-840.937C1858.37,-837.854 1861.99,-836.178 1864.32,-836.17C1867.15,-836.158 1869.85,-838.287 1870.04,-841.041ZM1869.03,-852.483C1869.09,-855.174 1866.61,-857.104 1864.05,-857.027C1861.77,-856.958 1859.36,-855.22 1859.36,-852.968C1859.36,-850.15 1862.1,-848.742 1864.44,-848.688C1866.56,-848.64 1868.98,-850.447 1869.03,-852.483Z" style="fill-rule:nonzero;"/>
                <path id="path27-0-0-5-0" d="M2006.02,-651.687C2006.15,-648.154 2007.42,-646.829 2009.93,-644.98C2007.93,-643.533 2007.09,-641.4 2007.26,-639.584C2007.67,-635.186 2011.06,-632.988 2014.76,-633.082C2018.47,-633.18 2021.65,-636.12 2021.9,-639.315C2022.12,-642.093 2021.3,-643.434 2019.33,-644.895C2021.66,-646.869 2023.15,-648.166 2023.1,-651.646C2023.04,-655.125 2020.09,-659.266 2014.93,-659.392C2009.78,-659.519 2005.89,-655.219 2006.02,-651.687ZM2020.41,-651.699C2020.63,-648.501 2017.8,-646.343 2014.62,-646.312C2011.51,-646.279 2008.74,-648.931 2008.74,-651.803C2008.74,-654.886 2012.35,-656.562 2014.68,-656.57C2017.51,-656.582 2020.22,-654.453 2020.41,-651.699ZM2019.39,-640.257C2019.45,-637.567 2016.97,-635.636 2014.41,-635.713C2012.13,-635.783 2009.72,-637.52 2009.72,-639.772C2009.72,-642.59 2012.46,-643.998 2014.8,-644.052C2016.92,-644.1 2019.34,-642.293 2019.39,-640.257Z" style="fill-rule:nonzero;"/>
            </g>
        </g>
    </g>
</svg>
