<?xml version="1.0" encoding="UTF-8" standalone="no"?>
<!DOCTYPE svg PUBLIC "-//W3C//DTD SVG 1.1//EN" "http://www.w3.org/Graphics/SVG/1.1/DTD/svg11.dtd">
<svg width="100%" height="100%" viewBox="0 0 182 253" version="1.1" xmlns="http://www.w3.org/2000/svg" xmlns:xlink="http://www.w3.org/1999/xlink" xml:space="preserve" xmlns:serif="http://www.serif.com/" style="fill-rule:evenodd;clip-rule:evenodd;">
    <g transform="matrix(1,0,0,1,-1520,-878)">
        <g transform="matrix(1,0,0,1,-328,1179.11)">
            <g id="_8_diamonds" serif:id="8_diamonds" transform="matrix(0.995535,0,0,0.996803,7.86292,-274.482)">
                <path id="rect6894-2" d="M2028.67,-15.786C2028.67,-20.516 2024.83,-24.356 2020.09,-24.356L1858.67,-24.356C1853.93,-24.356 1850.09,-20.516 1850.09,-15.786L1850.09,216.523C1850.09,221.253 1853.93,225.093 1858.67,225.093L2020.09,225.093C2024.83,225.093 2028.67,221.253 2028.67,216.523L2028.67,-15.786Z" style="fill:white;stroke:black;stroke-width:0.8px;"/>
                <path id="path6926-2" d="M1863.86,31.623C1862.13,28.768 1860.32,25.993 1858.04,23.623C1860.32,21.252 1862.13,18.478 1863.86,15.623C1865.59,18.478 1867.41,21.252 1869.68,23.623C1867.41,25.993 1865.59,28.768 1863.86,31.623Z" style="fill:rgb(212,0,0);fill-rule:nonzero;"/>
                <path id="path6928-9" d="M1980.79,40.2C1976.64,33.348 1972.28,26.689 1966.82,21C1972.28,15.311 1976.64,8.652 1980.79,1.8C1984.94,8.652 1989.31,15.311 1994.76,21C1989.31,26.689 1984.94,33.348 1980.79,40.2Z" style="fill:rgb(212,0,0);fill-rule:nonzero;"/>
                <path id="path6930-6" d="M2014.9,185.114C2013.17,182.26 2011.35,179.485 2009.08,177.114C2011.35,174.744 2013.17,171.969 2014.9,169.114C2016.63,171.969 2018.45,174.744 2020.72,177.114C2018.45,179.485 2016.63,182.26 2014.9,185.114Z" style="fill:rgb(212,0,0);fill-rule:nonzero;"/>
                <path id="path6932-2" d="M1897.97,40.2C1893.82,33.348 1889.45,26.689 1884,21C1889.45,15.311 1893.82,8.652 1897.97,1.8C1902.12,8.652 1906.48,15.311 1911.94,21C1906.48,26.689 1902.12,33.348 1897.97,40.2Z" style="fill:rgb(212,0,0);fill-rule:nonzero;"/>
                <path id="path6938-4" d="M1939.38,79.871C1935.23,73.019 1930.87,66.36 1925.41,60.671C1930.87,54.983 1935.23,48.323 1939.38,41.471C1943.53,48.323 1947.89,54.983 1953.35,60.671C1947.89,66.36 1943.53,73.019 1939.38,79.871Z" style="fill:rgb(212,0,0);fill-rule:nonzero;"/>
                <path id="path6942-4" d="M1897.97,119.543C1893.82,112.691 1889.45,106.031 1884,100.343C1889.45,94.654 1893.82,87.995 1897.97,81.143C1902.12,87.995 1906.48,94.654 1911.94,100.343C1906.48,106.031 1902.12,112.691 1897.97,119.543Z" style="fill:rgb(212,0,0);fill-rule:nonzero;"/>
                <path id="path6944-9" d="M1980.79,119.555C1976.64,112.703 1972.28,106.044 1966.82,100.355C1972.28,94.666 1976.64,88.007 1980.79,81.155C1984.94,88.007 1989.31,94.666 1994.76,100.355C1989.31,106.044 1984.94,112.703 1980.79,119.555Z" style="fill:rgb(212,0,0);fill-rule:nonzero;"/>
                <path id="path6948-4" d="M1897.97,198.941C1893.82,192.089 1889.45,185.43 1884,179.741C1889.45,174.052 1893.82,167.393 1897.97,160.541C1902.12,167.393 1906.48,174.052 1911.94,179.741C1906.48,185.43 1902.12,192.089 1897.97,198.941Z" style="fill:rgb(212,0,0);fill-rule:nonzero;"/>
                <path id="path6950-4" d="M1980.79,198.947C1976.64,192.095 1972.28,185.435 1966.82,179.747C1972.28,174.058 1976.64,167.399 1980.79,160.547C1984.94,167.399 1989.31,174.058 1994.76,179.747C1989.31,185.435 1984.94,192.095 1980.79,198.947Z" style="fill:rgb(212,0,0);fill-rule:nonzero;"/>
                <path id="path6956-4" d="M1939.38,159.242C1935.23,152.39 1930.87,145.731 1925.41,140.042C1930.87,134.353 1935.23,127.694 1939.38,120.842C1943.53,127.694 1947.89,134.353 1953.35,140.042C1947.89,145.731 1943.53,152.39 1939.38,159.242Z" style="fill:rgb(212,0,0);fill-rule:nonzero;"/>
                <path id="path27-00-7-8-6" d="M1855.29,5.381C1855.41,1.837 1856.69,0.508 1859.22,-1.346C1857.2,-2.798 1856.35,-4.939 1856.53,-6.76C1856.94,-11.172 1860.35,-13.377 1864.07,-13.283C1867.79,-13.184 1870.99,-10.235 1871.24,-7.03C1871.45,-4.243 1870.63,-2.898 1868.65,-1.432C1871,0.549 1872.49,1.85 1872.44,5.34C1872.38,8.831 1869.41,12.985 1864.24,13.112C1859.06,13.238 1855.16,8.925 1855.29,5.381ZM1869.73,5.394C1869.95,2.185 1867.12,0.021 1863.92,-0.01C1860.8,-0.044 1858.01,2.617 1858.01,5.498C1858.01,8.591 1861.64,10.273 1863.98,10.28C1866.83,10.293 1869.54,8.157 1869.73,5.394ZM1868.71,-6.084C1868.77,-8.784 1866.28,-10.721 1863.71,-10.644C1861.42,-10.573 1859,-8.83 1859,-6.572C1859,-3.744 1861.75,-2.332 1864.1,-2.277C1866.24,-2.229 1868.66,-4.043 1868.71,-6.084Z" style="fill:rgb(212,0,0);fill-rule:nonzero;"/>
                <path id="path27-0-1-9-8" d="M2006.32,195.356C2006.45,198.9 2007.73,200.229 2010.25,202.084C2008.24,203.536 2007.39,205.676 2007.56,207.498C2007.98,211.909 2011.38,214.114 2015.1,214.02C2018.82,213.921 2022.02,210.972 2022.27,207.767C2022.49,204.98 2021.66,203.635 2019.68,202.169C2022.03,200.188 2023.53,198.887 2023.47,195.397C2023.42,191.906 2020.45,187.752 2015.27,187.626C2010.1,187.499 2006.19,191.812 2006.32,195.356ZM2020.77,195.343C2020.99,198.552 2018.15,200.716 2014.95,200.748C2011.83,200.781 2009.05,198.12 2009.05,195.239C2009.05,192.146 2012.67,190.464 2015.02,190.457C2017.87,190.444 2020.58,192.581 2020.77,195.343ZM2019.75,206.822C2019.81,209.521 2017.31,211.458 2014.74,211.381C2012.46,211.31 2010.04,209.567 2010.03,207.309C2010.03,204.481 2012.79,203.069 2015.14,203.015C2017.27,202.967 2019.7,204.78 2019.75,206.822Z" style="fill:rgb(212,0,0);fill-rule:nonzero;"/>
            </g>
        </g>
    </g>
</svg>
