<?xml version="1.0" encoding="UTF-8" standalone="no"?>
<!DOCTYPE svg PUBLIC "-//W3C//DTD SVG 1.1//EN" "http://www.w3.org/Graphics/SVG/1.1/DTD/svg11.dtd">
<svg width="100%" height="100%" viewBox="0 0 182 253" version="1.1" xmlns="http://www.w3.org/2000/svg" xmlns:xlink="http://www.w3.org/1999/xlink" xml:space="preserve" xmlns:serif="http://www.serif.com/" style="fill-rule:evenodd;clip-rule:evenodd;">
    <g transform="matrix(1,0,0,1,-1520,-315)">
        <g transform="matrix(1,0,0,1,-328,1179.11)">
            <g id="_8_hearts" serif:id="8_hearts" transform="matrix(0.995538,0,0,0.996801,-93.8452,-13.1813)">
                <g id="_5D" serif:id="5D" transform="matrix(1,0,0,1,1743.9,-1147.42)">
                    <path id="rect10142-4-2" d="M386.929,304.79C386.929,300.06 383.084,296.22 378.349,296.22L216.927,296.22C212.191,296.22 208.346,300.06 208.346,304.79L208.346,537.1C208.346,541.829 212.191,545.669 216.927,545.669L378.349,545.669C383.084,545.669 386.929,541.829 386.929,537.1L386.929,304.79Z" style="fill:white;stroke:black;stroke-width:0.8px;"/>
                </g>
                <g id="path10174-9-0" transform="matrix(1,0,0,1,2042.34,-683.124)">
                    <path d="M-76.318,-112.097C-76.318,-112.097 -78.097,-114.649 -80.498,-117.649C-82.104,-119.657 -83.388,-121.831 -83.508,-123.703C-83.645,-125.843 -82.348,-127.989 -80.002,-128.093C-77.657,-128.197 -76.705,-126.443 -76.318,-124.998C-75.93,-126.443 -74.978,-128.197 -72.633,-128.093C-70.287,-127.989 -68.99,-125.843 -69.127,-123.703C-69.247,-121.831 -70.531,-119.657 -72.137,-117.649C-74.538,-114.649 -76.318,-112.097 -76.318,-112.097Z" style="fill:rgb(212,0,0);fill-rule:nonzero;"/>
                </g>
                <g id="path10176-9-9" transform="matrix(1,0,0,1,2042.34,-683.124)">
                    <path d="M74.718,25.395C74.718,25.397 72.938,27.947 70.538,30.947C68.931,32.955 67.647,35.129 67.528,37.001C67.391,39.14 68.687,41.286 71.034,41.39C73.379,41.494 74.331,39.741 74.718,38.295C75.106,39.741 76.058,41.494 78.403,41.39C80.749,41.286 82.045,39.14 81.908,37.001C81.789,35.129 80.505,32.955 78.899,30.947C76.498,27.947 74.72,25.397 74.718,25.395Z" style="fill:rgb(212,0,0);fill-rule:nonzero;"/>
                </g>
                <path id="path10178-8-4" d="M2041.54,-746.96C2041.54,-746.96 2037.81,-753.084 2032.77,-760.285C2029.4,-765.104 2026.71,-770.321 2026.46,-774.815C2026.17,-779.949 2028.89,-785.1 2033.81,-785.349C2038.73,-785.599 2040.73,-781.391 2041.54,-777.922C2042.35,-781.391 2044.35,-785.599 2049.27,-785.349C2054.19,-785.1 2056.91,-779.949 2056.62,-774.815C2056.37,-770.321 2053.68,-765.104 2050.31,-760.285C2045.27,-753.084 2041.54,-746.96 2041.54,-746.96Z" style="fill:rgb(212,0,0);fill-rule:nonzero;"/>
                <g id="path10182-1-9" transform="matrix(1,0,0,1,2042.34,-683.124)">
                    <path d="M-42.213,-103.52C-42.213,-103.52 -45.946,-109.644 -50.982,-116.845C-54.351,-121.663 -57.044,-126.881 -57.294,-131.375C-57.582,-136.509 -54.863,-141.659 -49.941,-141.909C-45.022,-142.159 -43.026,-137.951 -42.213,-134.481C-41.4,-137.951 -39.404,-142.159 -34.485,-141.909C-29.563,-141.659 -26.845,-136.509 -27.132,-131.375C-27.382,-126.881 -30.076,-121.663 -33.444,-116.845C-38.48,-109.644 -42.213,-103.52 -42.213,-103.52Z" style="fill:rgb(212,0,0);fill-rule:nonzero;"/>
                </g>
                <g id="path10184-9-1" transform="matrix(1,0,0,1,2042.34,-683.124)">
                    <path d="M40.613,-24.151C40.613,-24.151 36.88,-30.276 31.844,-37.476C28.476,-42.295 25.782,-47.512 25.532,-52.007C25.245,-57.141 27.963,-62.291 32.885,-62.541C37.804,-62.79 39.8,-58.582 40.613,-55.113C41.426,-58.582 43.422,-62.79 48.341,-62.541C53.263,-62.291 55.982,-57.141 55.694,-52.007C55.444,-47.512 52.751,-42.295 49.382,-37.476C44.346,-30.276 40.613,-24.151 40.613,-24.151Z" style="fill:rgb(212,0,0);fill-rule:nonzero;"/>
                </g>
                <g id="path10188-5-4" transform="matrix(1,0,0,1,2042.34,-683.124)">
                    <path d="M40.613,-103.52C40.613,-103.52 36.88,-109.644 31.844,-116.845C28.476,-121.663 25.782,-126.881 25.532,-131.375C25.245,-136.509 27.963,-141.659 32.885,-141.909C37.804,-142.159 39.8,-137.951 40.613,-134.481C41.426,-137.951 43.422,-142.159 48.341,-141.909C53.263,-141.659 55.982,-136.509 55.694,-131.375C55.444,-126.881 52.751,-121.663 49.382,-116.845C44.346,-109.644 40.613,-103.52 40.613,-103.52Z" style="fill:rgb(212,0,0);fill-rule:nonzero;"/>
                </g>
                <g id="path10192-3-6" transform="matrix(1,0,0,1,2042.34,-683.124)">
                    <path d="M-42.213,-24.151C-42.213,-24.151 -45.946,-30.276 -50.982,-37.476C-54.351,-42.295 -57.044,-47.512 -57.294,-52.007C-57.582,-57.141 -54.863,-62.291 -49.941,-62.541C-45.022,-62.79 -43.026,-58.582 -42.213,-55.113C-41.4,-58.582 -39.404,-62.79 -34.485,-62.541C-29.563,-62.291 -26.845,-57.141 -27.132,-52.007C-27.382,-47.512 -30.076,-42.295 -33.444,-37.476C-38.48,-30.276 -42.213,-24.151 -42.213,-24.151Z" style="fill:rgb(212,0,0);fill-rule:nonzero;"/>
                </g>
                <path id="path10196-7-3" d="M2041.54,-705.991C2041.54,-705.991 2037.81,-699.867 2032.77,-692.666C2029.4,-687.848 2026.71,-682.63 2026.46,-678.136C2026.17,-673.002 2028.89,-667.852 2033.81,-667.602C2038.73,-667.352 2040.73,-671.56 2041.54,-675.03C2042.35,-671.56 2044.35,-667.352 2049.27,-667.602C2054.19,-667.852 2056.91,-673.002 2056.62,-678.136C2056.37,-682.63 2053.68,-687.848 2050.31,-692.666C2045.27,-699.867 2041.54,-705.991 2041.54,-705.991Z" style="fill:rgb(212,0,0);fill-rule:nonzero;"/>
                <g id="path10202-2-8" transform="matrix(1,0,0,1,2042.34,-683.124)">
                    <path d="M40.613,16.817C40.613,16.817 36.88,22.942 31.844,30.142C28.476,34.961 25.782,40.179 25.532,44.673C25.245,49.807 27.963,54.957 32.885,55.207C37.804,55.456 39.8,51.248 40.613,47.779C41.426,51.248 43.422,55.456 48.341,55.207C53.263,54.957 55.982,49.807 55.694,44.673C55.444,40.179 52.751,34.961 49.382,30.142C44.346,22.942 40.613,16.817 40.613,16.817Z" style="fill:rgb(212,0,0);fill-rule:nonzero;"/>
                </g>
                <g id="path10204-9-4" transform="matrix(1,0,0,1,2042.34,-683.124)">
                    <path d="M-42.213,16.817C-42.213,16.817 -45.946,22.942 -50.982,30.142C-54.351,34.961 -57.044,40.179 -57.294,44.673C-57.582,49.807 -54.863,54.957 -49.941,55.207C-45.022,55.456 -43.026,51.248 -42.213,47.779C-41.4,51.248 -39.404,55.456 -34.485,55.207C-29.563,54.957 -26.845,49.807 -27.132,44.673C-27.382,40.179 -30.076,34.961 -33.444,30.142C-38.48,22.942 -42.213,16.817 -42.213,16.817Z" style="fill:rgb(212,0,0);fill-rule:nonzero;"/>
                </g>
                <path id="path27-00-0-7-4" d="M1957.44,-821.463C1957.57,-825.007 1958.85,-826.336 1961.37,-828.19C1959.36,-829.642 1958.51,-831.783 1958.69,-833.604C1959.1,-838.016 1962.51,-840.221 1966.22,-840.127C1969.94,-840.028 1973.15,-837.079 1973.4,-833.874C1973.61,-831.087 1972.79,-829.742 1970.81,-828.276C1973.15,-826.295 1974.65,-824.994 1974.6,-821.504C1974.54,-818.013 1971.57,-813.859 1966.4,-813.732C1961.22,-813.606 1957.32,-817.919 1957.44,-821.463ZM1971.89,-821.45C1972.11,-824.659 1969.28,-826.823 1966.08,-826.855C1962.96,-826.888 1960.17,-824.227 1960.17,-821.346C1960.17,-818.253 1963.8,-816.571 1966.14,-816.564C1968.99,-816.551 1971.7,-818.687 1971.89,-821.45ZM1970.87,-832.929C1970.93,-835.628 1968.44,-837.565 1965.87,-837.488C1963.58,-837.417 1961.16,-835.674 1961.16,-833.416C1961.16,-830.588 1963.91,-829.176 1966.26,-829.122C1968.39,-829.074 1970.82,-830.887 1970.87,-832.929Z" style="fill:rgb(212,0,0);fill-rule:nonzero;"/>
                <path id="path27-0-1-0-8-9" d="M2108.48,-631.488C2108.61,-627.944 2109.89,-626.615 2112.41,-624.761C2110.4,-623.309 2109.55,-621.168 2109.72,-619.347C2110.14,-614.935 2113.54,-612.73 2117.26,-612.824C2120.98,-612.923 2124.18,-615.872 2124.43,-619.077C2124.65,-621.864 2123.82,-623.209 2121.84,-624.675C2124.19,-626.656 2125.69,-627.957 2125.63,-631.447C2125.58,-634.938 2122.61,-639.092 2117.43,-639.219C2112.26,-639.345 2108.35,-635.032 2108.48,-631.488ZM2122.93,-631.501C2123.15,-628.292 2120.31,-626.128 2117.11,-626.096C2113.99,-626.063 2111.2,-628.724 2111.2,-631.605C2111.2,-634.698 2114.83,-636.38 2117.18,-636.387C2120.02,-636.4 2122.74,-634.264 2122.93,-631.501ZM2121.9,-620.022C2121.96,-617.323 2119.47,-615.386 2116.9,-615.463C2114.62,-615.534 2112.2,-617.277 2112.19,-619.535C2112.19,-622.363 2114.95,-623.775 2117.3,-623.829C2119.43,-623.877 2121.86,-622.064 2121.9,-620.022Z" style="fill:rgb(212,0,0);fill-rule:nonzero;"/>
            </g>
        </g>
    </g>
</svg>
