<?xml version="1.0" encoding="UTF-8" standalone="no"?>
<!DOCTYPE svg PUBLIC "-//W3C//DTD SVG 1.1//EN" "http://www.w3.org/Graphics/SVG/1.1/DTD/svg11.dtd">
<svg width="100%" height="100%" viewBox="0 0 182 253" version="1.1" xmlns="http://www.w3.org/2000/svg" xmlns:xlink="http://www.w3.org/1999/xlink" xml:space="preserve" xmlns:serif="http://www.serif.com/" style="fill-rule:evenodd;clip-rule:evenodd;">
    <g transform="matrix(1,0,0,1,-1520,-597)">
        <g transform="matrix(1,0,0,1,-328,1179.11)">
            <g id="_8_spades" serif:id="8_spades" transform="matrix(0.995538,0,0,0.996801,-227.676,-204.289)">
                <path id="rect7125-2-7" d="M2265.26,-368.557C2265.26,-373.287 2261.42,-377.127 2256.68,-377.127L2095.26,-377.127C2090.52,-377.127 2086.68,-373.287 2086.68,-368.557L2086.68,-136.247C2086.68,-131.518 2090.52,-127.678 2095.26,-127.678L2256.68,-127.678C2261.42,-127.678 2265.26,-131.518 2265.26,-136.247L2265.26,-368.557Z" style="fill:white;stroke:black;stroke-width:0.8px;"/>
                <path id="path7155-4-0" d="M2134.56,-350.971C2127.18,-340.445 2119.28,-334.388 2119.15,-326.176C2119.1,-323.517 2120.54,-318.997 2125.04,-318.132C2127.97,-317.574 2131.99,-319.938 2132.07,-324.742C2132.06,-325.699 2133.09,-325.674 2133.07,-324.363C2132.94,-320.574 2131.74,-316.162 2129.72,-312.571L2139.39,-312.571C2137.38,-316.162 2136.18,-320.574 2136.04,-324.363C2136.03,-325.674 2137.05,-325.699 2137.04,-324.742C2137.12,-319.938 2141.15,-317.574 2144.07,-318.132C2148.57,-318.997 2150.01,-323.517 2149.97,-326.176C2149.84,-334.388 2141.94,-340.445 2134.56,-350.971Z" style="fill-rule:nonzero;"/>
                <path id="path7157-2-9" d="M2100.45,-337.148C2097,-332.762 2093.31,-330.238 2093.25,-326.817C2093.23,-325.709 2093.9,-323.826 2096.01,-323.465C2097.37,-323.232 2099.25,-324.218 2099.29,-326.219C2099.28,-326.618 2099.76,-326.608 2099.76,-326.062C2099.7,-324.483 2099.14,-322.644 2098.19,-321.148L2102.71,-321.148C2101.77,-322.644 2101.21,-324.483 2101.14,-326.062C2101.14,-326.608 2101.62,-326.618 2101.61,-326.219C2101.65,-324.218 2103.53,-323.232 2104.9,-323.465C2107,-323.826 2107.67,-325.709 2107.65,-326.817C2107.59,-330.238 2103.9,-332.762 2100.45,-337.148Z" style="fill-rule:nonzero;"/>
                <path id="path7162-7-0" d="M2251.49,-167.656C2248.04,-172.042 2244.35,-174.566 2244.29,-177.987C2244.27,-179.095 2244.94,-180.978 2247.04,-181.339C2248.41,-181.572 2250.29,-180.586 2250.33,-178.585C2250.32,-178.186 2250.8,-178.197 2250.8,-178.743C2250.73,-180.322 2250.17,-182.16 2249.23,-183.656L2253.75,-183.656C2252.8,-182.16 2252.24,-180.322 2252.18,-178.743C2252.17,-178.197 2252.65,-178.186 2252.65,-178.585C2252.69,-180.586 2254.57,-181.572 2255.93,-181.339C2258.04,-180.978 2258.71,-179.095 2258.69,-177.987C2258.63,-174.566 2254.94,-172.042 2251.49,-167.656Z" style="fill-rule:nonzero;"/>
                <path id="path7164-8-3" d="M2217.38,-350.971C2210,-340.445 2202.11,-334.388 2201.97,-326.176C2201.93,-323.517 2203.37,-318.997 2207.87,-318.132C2210.79,-317.574 2214.81,-319.938 2214.9,-324.742C2214.89,-325.699 2215.91,-325.674 2215.9,-324.363C2215.76,-320.574 2214.56,-316.162 2212.55,-312.571L2222.22,-312.571C2220.2,-316.162 2219,-320.574 2218.86,-324.363C2218.85,-325.674 2219.88,-325.699 2219.87,-324.742C2219.95,-319.938 2223.97,-317.574 2226.89,-318.132C2231.4,-318.997 2232.84,-323.517 2232.79,-326.176C2232.66,-334.388 2224.76,-340.445 2217.38,-350.971Z" style="fill-rule:nonzero;"/>
                <path id="path7168-3-2" d="M2175.97,-311.286C2168.59,-300.761 2160.69,-294.704 2160.56,-286.492C2160.52,-283.833 2161.95,-279.313 2166.46,-278.448C2169.38,-277.889 2173.4,-280.254 2173.49,-285.058C2173.47,-286.014 2174.5,-285.99 2174.49,-284.679C2174.35,-280.89 2173.15,-276.478 2171.14,-272.886L2180.8,-272.886C2178.79,-276.478 2177.59,-280.89 2177.45,-284.679C2177.44,-285.99 2178.47,-286.014 2178.45,-285.058C2178.54,-280.254 2182.56,-277.889 2185.48,-278.448C2189.99,-279.313 2191.42,-283.833 2191.38,-286.492C2191.25,-294.704 2183.35,-300.761 2175.97,-311.286Z" style="fill-rule:nonzero;"/>
                <path id="path7174-5-0" d="M2134.56,-271.602C2127.18,-261.076 2119.28,-255.019 2119.15,-246.807C2119.1,-244.148 2120.54,-239.629 2125.04,-238.764C2127.97,-238.205 2131.99,-240.57 2132.07,-245.374C2132.06,-246.33 2133.09,-246.305 2133.07,-244.995C2132.94,-241.205 2131.74,-236.793 2129.72,-233.202L2139.39,-233.202C2137.38,-236.793 2136.18,-241.205 2136.04,-244.995C2136.03,-246.305 2137.05,-246.33 2137.04,-245.374C2137.12,-240.57 2141.15,-238.205 2144.07,-238.764C2148.57,-239.629 2150.01,-244.148 2149.97,-246.807C2149.84,-255.019 2141.94,-261.076 2134.56,-271.602Z" style="fill-rule:nonzero;"/>
                <path id="path7176-7-0" d="M2134.56,-153.834C2127.18,-164.359 2119.28,-170.416 2119.15,-178.628C2119.1,-181.287 2120.54,-185.807 2125.04,-186.672C2127.97,-187.231 2131.99,-184.866 2132.07,-180.062C2132.06,-179.106 2133.09,-179.131 2133.07,-180.441C2132.94,-184.23 2131.74,-188.642 2129.72,-192.234L2139.39,-192.234C2137.38,-188.642 2136.18,-184.23 2136.04,-180.441C2136.03,-179.131 2137.05,-179.106 2137.04,-180.062C2137.12,-184.866 2141.15,-187.231 2144.07,-186.672C2148.57,-185.807 2150.01,-181.287 2149.97,-178.628C2149.84,-170.416 2141.94,-164.359 2134.56,-153.834Z" style="fill-rule:nonzero;"/>
                <path id="path7178-9-4" d="M2217.38,-153.834C2210,-164.359 2202.11,-170.416 2201.97,-178.628C2201.93,-181.287 2203.37,-185.807 2207.87,-186.672C2210.79,-187.231 2214.81,-184.866 2214.9,-180.062C2214.89,-179.106 2215.91,-179.131 2215.9,-180.441C2215.76,-184.23 2214.56,-188.642 2212.55,-192.234L2222.22,-192.234C2220.2,-188.642 2219,-184.23 2218.86,-180.441C2218.85,-179.131 2219.88,-179.106 2219.87,-180.062C2219.95,-184.866 2223.97,-187.231 2226.89,-186.672C2231.4,-185.807 2232.84,-181.287 2232.79,-178.628C2232.66,-170.416 2224.76,-164.359 2217.38,-153.834Z" style="fill-rule:nonzero;"/>
                <path id="path7180-5-1" d="M2175.97,-193.518C2168.59,-204.044 2160.69,-210.101 2160.56,-218.312C2160.52,-220.972 2161.95,-225.491 2166.46,-226.356C2169.38,-226.915 2173.4,-224.55 2173.49,-219.746C2173.47,-218.79 2174.5,-218.815 2174.49,-220.125C2174.35,-223.915 2173.15,-228.327 2171.14,-231.918L2180.8,-231.918C2178.79,-228.327 2177.59,-223.915 2177.45,-220.125C2177.44,-218.815 2178.47,-218.79 2178.45,-219.746C2178.54,-224.55 2182.56,-226.915 2185.48,-226.356C2189.99,-225.491 2191.42,-220.972 2191.38,-218.312C2191.25,-210.101 2183.35,-204.044 2175.97,-193.518Z" style="fill-rule:nonzero;"/>
                <path id="path7189-7-7" d="M2217.38,-271.602C2210,-261.076 2202.11,-255.019 2201.97,-246.807C2201.93,-244.148 2203.37,-239.629 2207.87,-238.764C2210.79,-238.205 2214.81,-240.57 2214.9,-245.374C2214.89,-246.33 2215.91,-246.305 2215.9,-244.995C2215.76,-241.205 2214.56,-236.793 2212.55,-233.202L2222.22,-233.202C2220.2,-236.793 2219,-241.205 2218.86,-244.995C2218.85,-246.305 2219.88,-246.33 2219.87,-245.374C2219.95,-240.57 2223.97,-238.205 2226.89,-238.764C2231.4,-239.629 2232.84,-244.148 2232.79,-246.807C2232.66,-255.019 2224.76,-261.076 2217.38,-271.602Z" style="fill-rule:nonzero;"/>
                <path id="path27-43-30-7" d="M2091.88,-347.389C2092,-350.933 2093.28,-352.263 2095.8,-354.117C2093.79,-355.569 2092.94,-357.709 2093.12,-359.531C2093.53,-363.943 2096.94,-366.148 2100.66,-366.053C2104.38,-365.955 2107.58,-363.006 2107.83,-359.8C2108.04,-357.014 2107.22,-355.669 2105.24,-354.203C2107.59,-352.222 2109.08,-350.921 2109.03,-347.43C2108.97,-343.94 2106,-339.786 2100.83,-339.659C2095.65,-339.532 2091.75,-343.845 2091.88,-347.389ZM2106.32,-347.377C2106.54,-350.585 2103.71,-352.75 2100.51,-352.781C2097.39,-352.815 2094.6,-350.154 2094.6,-347.273C2094.6,-344.179 2098.23,-342.498 2100.57,-342.491C2103.42,-342.478 2106.13,-344.614 2106.32,-347.377ZM2105.3,-358.855C2105.36,-361.555 2102.87,-363.492 2100.3,-363.414C2098.01,-363.344 2095.59,-361.601 2095.59,-359.342C2095.59,-356.515 2098.34,-355.103 2100.69,-355.048C2102.82,-355 2105.25,-356.813 2105.3,-358.855Z" style="fill-rule:nonzero;"/>
                <path id="path27-43-3-4-8" d="M2242.91,-157.415C2243.04,-153.871 2244.32,-152.541 2246.84,-150.687C2244.83,-149.235 2243.98,-147.095 2244.15,-145.273C2244.57,-140.862 2247.97,-138.656 2251.69,-138.751C2255.41,-138.849 2258.61,-141.798 2258.86,-145.004C2259.08,-147.79 2258.25,-149.136 2256.28,-150.601C2258.62,-152.582 2260.12,-153.883 2260.06,-157.374C2260.01,-160.865 2257.04,-165.018 2251.86,-165.145C2246.69,-165.272 2242.78,-160.959 2242.91,-157.415L2242.91,-157.415ZM2257.36,-157.428C2257.58,-154.219 2254.74,-152.054 2251.54,-152.023C2248.42,-151.989 2245.64,-154.65 2245.64,-157.531C2245.64,-160.625 2249.26,-162.306 2251.61,-162.314C2254.45,-162.326 2257.17,-160.19 2257.36,-157.428L2257.36,-157.428ZM2256.33,-145.949C2256.39,-143.249 2253.9,-141.312 2251.33,-141.39C2249.05,-141.46 2246.63,-143.203 2246.62,-145.462C2246.62,-148.289 2249.38,-149.702 2251.73,-149.756C2253.86,-149.804 2256.29,-147.991 2256.33,-145.949Z" style="fill-rule:nonzero;"/>
            </g>
        </g>
    </g>
</svg>
