<?xml version="1.0" encoding="UTF-8" standalone="no"?><!DOCTYPE svg PUBLIC "-//W3C//DTD SVG 1.1//EN" "http://www.w3.org/Graphics/SVG/1.1/DTD/svg11.dtd"><svg width="100%" height="100%" viewBox="0 0 178 249" version="1.1" xmlns="http://www.w3.org/2000/svg" xmlns:xlink="http://www.w3.org/1999/xlink" xml:space="preserve" xmlns:serif="http://www.serif.com/" style="fill-rule:evenodd;clip-rule:evenodd;stroke-linejoin:round;stroke-miterlimit:2;"><rect id="_9-clubs" serif:id="9-clubs" x="0" y="0" width="178" height="249" style="fill:none;"/><clipPath id="_clip1"><rect x="0" y="0" width="178" height="249"/></clipPath><g clip-path="url(#_clip1)"><rect x="-1422.21" y="0" width="2312.21" height="1245" style="fill:#fff;"/><g id="_9_clubs" serif:id="9_clubs"><path id="path147-0-8-1-6-13-2-9-8-8" d="M130.275,26.46c-7.829,0.17 -11.34,8.985 -5.542,15.83c0.841,0.998 0.928,1.571 -0.612,0.612c-3.904,-2.61 -11.389,-0.894 -11.773,7.086c-0.473,9.834 13.267,12.667 15.847,2.211c0.136,-1.103 1.032,-1.078 0.816,0.488c-0.235,4.25 -1.562,8.223 -3.387,12.096l9.307,0c-1.824,-3.873 -3.151,-7.846 -3.386,-12.096c-0.217,-1.566 0.68,-1.591 0.816,-0.488c2.58,10.456 16.32,7.623 15.846,-2.211c-0.383,-7.98 -7.868,-9.696 -11.772,-7.086c-1.54,0.959 -1.454,0.386 -0.613,-0.612c5.799,-6.845 2.288,-15.66 -5.541,-15.83c0,0 0,0 -0.008,0l0.002,0Z" style="fill-rule:nonzero;"/><path id="path147-0-8-1-6-75-2-83-3-5-0" d="M47.719,26.46c-7.829,0.17 -11.34,8.985 -5.542,15.83c0.841,0.998 0.928,1.571 -0.612,0.612c-3.904,-2.61 -11.389,-0.894 -11.773,7.086c-0.473,9.834 13.267,12.667 15.847,2.211c0.136,-1.103 1.032,-1.078 0.816,0.488c-0.235,4.25 -1.562,8.223 -3.387,12.096l9.308,0c-1.825,-3.873 -3.152,-7.846 -3.387,-12.096c-0.217,-1.566 0.68,-1.591 0.816,-0.488c2.58,10.456 16.32,7.623 15.846,-2.211c-0.383,-7.98 -7.868,-9.696 -11.772,-7.086c-1.54,0.959 -1.454,0.386 -0.613,-0.612c5.799,-6.845 2.288,-15.66 -5.541,-15.83c0,0 0,0 -0.008,0l0.002,0Z" style="fill-rule:nonzero;"/><path id="path147-0-8-1-6-7-5-5-7-63-0-4" d="M130.275,223.204c-7.829,-0.17 -11.34,-8.985 -5.542,-15.83c0.841,-0.998 0.928,-1.571 -0.612,-0.612c-3.904,2.611 -11.389,0.894 -11.773,-7.086c-0.473,-9.834 13.267,-12.667 15.847,-2.211c0.136,1.103 1.032,1.078 0.816,-0.488c-0.235,-4.25 -1.562,-8.222 -3.387,-12.096l9.307,0c-1.824,3.874 -3.151,7.846 -3.386,12.096c-0.217,1.566 0.68,1.591 0.816,0.488c2.58,-10.456 16.32,-7.623 15.846,2.211c-0.383,7.98 -7.868,9.697 -11.772,7.086c-1.54,-0.959 -1.454,-0.386 -0.613,0.612c5.799,6.845 2.288,15.66 -5.541,15.83c0,0 0,0 -0.008,0l0.002,0Z" style="fill-rule:nonzero;"/><path id="path147-0-8-1-6-75-6-1-2-46-5-0" d="M47.719,223.204c-7.829,-0.17 -11.34,-8.985 -5.542,-15.83c0.841,-0.998 0.928,-1.571 -0.612,-0.612c-3.904,2.611 -11.389,0.894 -11.773,-7.086c-0.473,-9.834 13.267,-12.667 15.847,-2.211c0.136,1.103 1.032,1.078 0.816,-0.488c-0.235,-4.25 -1.562,-8.222 -3.387,-12.096l9.308,0c-1.825,3.874 -3.152,7.846 -3.387,12.096c-0.217,1.566 0.68,1.591 0.816,0.488c2.58,-10.456 16.32,-7.623 15.846,2.211c-0.383,7.98 -7.868,9.697 -11.772,7.086c-1.54,-0.959 -1.454,-0.386 -0.613,0.612c5.799,6.845 2.288,15.66 -5.541,15.83c0,0 0,0 -0.008,0l0.002,0Z" style="fill-rule:nonzero;"/><path id="path147-0-8-1-6-1-1-0-5-61-2-0" d="M88.997,105.67c-7.829,0.17 -11.34,8.985 -5.542,15.83c0.841,0.998 0.928,1.571 -0.612,0.612c-3.904,-2.61 -11.389,-0.894 -11.772,7.087c-0.474,9.833 13.266,12.667 15.846,2.21c0.136,-1.103 1.032,-1.078 0.816,0.488c-0.235,4.25 -1.562,8.223 -3.387,12.097l9.308,0c-1.825,-3.874 -3.152,-7.847 -3.387,-12.097c-0.217,-1.566 0.68,-1.591 0.816,-0.488c2.58,10.457 16.32,7.623 15.846,-2.21c-0.383,-7.981 -7.868,-9.697 -11.772,-7.087c-1.54,0.959 -1.454,0.386 -0.613,-0.612c5.799,-6.845 2.288,-15.66 -5.541,-15.83c0,0 0,0 -0.008,0l0.002,0Z" style="fill-rule:nonzero;"/><path id="path147-6-9-8-7-0-5-6-5-2-8" d="M164.273,209.077c3.131,-0.071 4.536,-3.744 2.216,-6.596c-0.336,-0.416 -0.371,-0.654 0.245,-0.255c1.562,1.088 4.556,0.373 4.709,-2.952c0.19,-4.098 -5.306,-5.278 -6.338,-0.921c-0.054,0.459 -0.413,0.449 -0.327,-0.204c0.094,-1.771 0.625,-3.426 1.355,-5.04l-3.723,0c0.73,1.614 1.261,3.269 1.355,5.04c0.087,0.653 -0.272,0.663 -0.327,0.204c-1.031,-4.357 -6.527,-3.177 -6.338,0.921c0.153,3.325 3.147,4.04 4.709,2.952c0.616,-0.399 0.581,-0.161 0.245,0.255c-2.319,2.852 -0.915,6.525 2.216,6.596c0,0 0,0 0,0l0.003,0Z" style="fill-rule:nonzero;"/><path id="path147-0-8-1-6-75-2-9-77-4-4-2" d="M47.719,79.267c-7.829,0.17 -11.34,8.985 -5.542,15.83c0.841,0.998 0.928,1.571 -0.612,0.612c-3.904,-2.611 -11.389,-0.894 -11.772,7.086c-0.474,9.834 13.266,12.667 15.846,2.211c0.136,-1.103 1.032,-1.078 0.816,0.488c-0.235,4.25 -1.562,8.222 -3.387,12.096l9.308,0c-1.825,-3.874 -3.152,-7.846 -3.387,-12.096c-0.217,-1.566 0.68,-1.591 0.816,-0.488c2.58,10.456 16.32,7.623 15.846,-2.211c-0.383,-7.98 -7.868,-9.697 -11.772,-7.086c-1.54,0.959 -1.454,0.386 -0.613,-0.612c5.799,-6.845 2.288,-15.66 -5.541,-15.83c0,0 0,0 -0.008,0l0.002,0Z" style="fill-rule:nonzero;"/><path id="path147-0-8-1-6-75-2-8-0-6-4-4" d="M47.719,170.397c-7.829,-0.17 -11.34,-8.984 -5.542,-15.83c0.841,-0.998 0.928,-1.571 -0.612,-0.612c-3.904,2.611 -11.389,0.894 -11.773,-7.086c-0.473,-9.834 13.267,-12.667 15.847,-2.211c0.136,1.104 1.032,1.078 0.816,-0.488c-0.235,-4.25 -1.562,-8.222 -3.387,-12.096l9.308,0c-1.825,3.874 -3.152,7.846 -3.387,12.096c-0.217,1.566 0.68,1.592 0.816,0.488c2.58,-10.456 16.32,-7.623 15.846,2.211c-0.383,7.98 -7.868,9.697 -11.772,7.086c-1.54,-0.959 -1.454,-0.386 -0.613,0.612c5.799,6.846 2.288,15.66 -5.541,15.83c0,0 0,0 -0.008,0l0.002,0Z" style="fill-rule:nonzero;"/><path id="path147-0-8-1-6-75-2-9-7-1-36-2-4" d="M130.275,79.267c-7.829,0.17 -11.34,8.985 -5.542,15.83c0.841,0.998 0.928,1.571 -0.612,0.612c-3.904,-2.611 -11.389,-0.894 -11.773,7.086c-0.473,9.834 13.267,12.667 15.847,2.211c0.136,-1.103 1.032,-1.078 0.816,0.488c-0.235,4.25 -1.562,8.222 -3.387,12.096l9.307,0c-1.824,-3.874 -3.151,-7.846 -3.386,-12.096c-0.217,-1.566 0.68,-1.591 0.816,-0.488c2.58,10.456 16.32,7.623 15.846,-2.211c-0.383,-7.98 -7.868,-9.697 -11.772,-7.086c-1.54,0.959 -1.454,0.386 -0.613,-0.612c5.799,-6.845 2.288,-15.66 -5.541,-15.83c0,0 0,0 -0.008,0l0.002,0Z" style="fill-rule:nonzero;"/><path id="path147-0-8-1-6-75-2-8-5-1-55-5-4" d="M130.275,170.397c-7.829,-0.17 -11.34,-8.984 -5.542,-15.83c0.841,-0.998 0.928,-1.571 -0.612,-0.612c-3.904,2.611 -11.389,0.894 -11.773,-7.086c-0.473,-9.834 13.267,-12.667 15.847,-2.211c0.136,1.104 1.032,1.078 0.816,-0.488c-0.235,-4.25 -1.562,-8.222 -3.387,-12.096l9.307,0c-1.824,3.874 -3.151,7.846 -3.386,12.096c-0.217,1.566 0.68,1.592 0.816,0.488c2.58,-10.456 16.32,-7.623 15.846,2.211c-0.383,7.98 -7.868,9.697 -11.772,7.086c-1.54,-0.959 -1.454,-0.386 -0.613,0.612c5.799,6.846 2.288,15.66 -5.541,15.83c0,0 0,0 -0.008,0l0.002,0Z" style="fill-rule:nonzero;"/><path id="path147-6-9-8-7-4-5-62-7-8-4" d="M13.728,39.923c-3.132,0.071 -4.536,3.744 -2.217,6.596c0.337,0.416 0.371,0.655 -0.245,0.255c-1.561,-1.088 -4.555,-0.373 -4.709,2.953c-0.189,4.097 5.307,5.277 6.339,0.921c0.054,-0.46 0.413,-0.449 0.326,0.203c-0.094,1.771 -0.625,3.426 -1.354,5.04l3.722,0c-0.729,-1.614 -1.26,-3.269 -1.354,-5.04c-0.087,-0.652 0.272,-0.663 0.326,-0.203c1.032,4.356 6.528,3.176 6.339,-0.921c-0.154,-3.326 -3.148,-4.041 -4.709,-2.953c-0.616,0.4 -0.582,0.161 -0.245,-0.255c2.319,-2.852 0.915,-6.525 -2.217,-6.596l-0.002,0Z" style="fill-rule:nonzero;"/><path id="path29-2-3-4" d="M6.377,32.341l2.407,-0.764c0.91,2.429 2.744,3.148 4.685,2.993c3.484,-0.279 4.642,-4.178 4.902,-7.625c-1.357,1.442 -3.396,2.174 -5.134,2.099c-5.555,-0.297 -6.977,-4.749 -7.028,-9.408c-0.152,-3.929 1.47,-6.775 4.253,-8.082c1.474,-0.661 4.849,-0.661 6.331,0.123c3.404,1.798 4.666,4.904 4.437,12.32c0,6.101 -1.294,13.207 -7.825,13.362c-3.772,0.522 -6.639,-2.417 -7.028,-5.018Zm9.456,-6.686c1.132,-0.718 1.77,-1.392 2.279,-2.401c0.416,-0.829 0.56,-1.262 0.44,-2.977c-0.308,-4.423 -2.623,-6.934 -5.983,-6.436c-1.874,0.282 -2.899,1.332 -3.487,3.283c-1.086,3.61 0.292,7.833 2.871,8.805c1.161,0.441 2.955,0.315 3.88,-0.274Z" style="fill-rule:nonzero;"/><path id="path29-6-1-3-7" d="M171.621,216.659l-2.407,0.765c-0.909,-2.43 -2.744,-3.149 -4.685,-2.993c-3.484,0.278 -4.641,4.177 -4.902,7.624c1.358,-1.442 3.397,-2.173 5.134,-2.099c5.555,0.298 6.977,4.749 7.028,9.409c0.152,3.928 -1.47,6.774 -4.252,8.081c-1.475,0.662 -4.849,0.662 -6.332,-0.122c-3.404,-1.799 -4.665,-4.905 -4.437,-12.321c0,-6.101 1.294,-13.207 7.825,-13.362c3.772,-0.522 6.64,2.417 7.028,5.018Zm-9.455,6.686c-1.133,0.718 -1.771,1.393 -2.279,2.401c-0.417,0.829 -0.561,1.262 -0.441,2.977c0.308,4.423 2.623,6.934 5.983,6.437c1.874,-0.283 2.899,-1.332 3.488,-3.284c1.085,-3.61 -0.293,-7.833 -2.872,-8.805c-1.16,-0.441 -2.955,-0.314 -3.879,0.274Z" style="fill-rule:nonzero;"/></g></g></svg>