<?xml version="1.0" encoding="UTF-8" standalone="no"?><!DOCTYPE svg PUBLIC "-//W3C//DTD SVG 1.1//EN" "http://www.w3.org/Graphics/SVG/1.1/DTD/svg11.dtd"><svg width="100%" height="100%" viewBox="0 0 178 249" version="1.1" xmlns="http://www.w3.org/2000/svg" xmlns:xlink="http://www.w3.org/1999/xlink" xml:space="preserve" xmlns:serif="http://www.serif.com/" style="fill-rule:evenodd;clip-rule:evenodd;stroke-linejoin:round;stroke-miterlimit:2;"><rect id="_9-diamonds" serif:id="9-diamonds" x="0" y="0" width="178" height="249" style="fill:none;"/><clipPath id="_clip1"><rect x="0" y="0" width="178" height="249"/></clipPath><g clip-path="url(#_clip1)"><rect x="-1422.21" y="-747" width="2312.21" height="1245" style="fill:#fff;"/><g id="_9_diamonds" serif:id="9_diamonds"><path id="path6994-9" d="M13.729,55.891c-1.723,-2.849 -3.536,-5.618 -5.801,-7.984c2.265,-2.365 4.078,-5.135 5.801,-7.984c1.723,2.849 3.536,5.619 5.801,7.984c-2.265,2.366 -4.078,5.135 -5.801,7.984Z" style="fill:#d40000;fill-rule:nonzero;"/><path id="path6996-5" d="M130.278,64.451c-4.135,-6.838 -8.486,-13.484 -13.923,-19.161c5.437,-5.678 9.788,-12.324 13.923,-19.162c4.136,6.838 8.486,13.484 13.923,19.162c-5.437,5.677 -9.787,12.323 -13.923,19.161Z" style="fill:#d40000;fill-rule:nonzero;"/><path id="path6998-7" d="M164.272,209.077c-1.723,-2.849 -3.536,-5.618 -5.802,-7.984c2.266,-2.366 4.079,-5.135 5.802,-7.984c1.723,2.849 3.536,5.618 5.801,7.984c-2.265,2.366 -4.078,5.135 -5.801,7.984Z" style="fill:#d40000;fill-rule:nonzero;"/><path id="path7000-7" d="M47.722,64.451c-4.135,-6.838 -8.486,-13.484 -13.923,-19.161c5.437,-5.678 9.788,-12.324 13.923,-19.162c4.136,6.838 8.486,13.484 13.923,19.162c-5.437,5.677 -9.787,12.323 -13.923,19.161Z" style="fill:#d40000;fill-rule:nonzero;"/><path id="path7002-0" d="M130.278,117.264c-4.135,-6.838 -8.486,-13.484 -13.923,-19.162c5.437,-5.677 9.788,-12.323 13.923,-19.162c4.136,6.839 8.486,13.485 13.923,19.162c-5.437,5.678 -9.787,12.324 -13.923,19.162Z" style="fill:#d40000;fill-rule:nonzero;"/><path id="path7004-0" d="M47.722,117.264c-4.135,-6.838 -8.486,-13.484 -13.923,-19.162c5.437,-5.677 9.788,-12.323 13.923,-19.162c4.136,6.839 8.486,13.485 13.923,19.162c-5.437,5.678 -9.787,12.324 -13.923,19.162Z" style="fill:#d40000;fill-rule:nonzero;"/><path id="path7008-2" d="M89,143.662c-4.135,-6.838 -8.486,-13.485 -13.923,-19.162c5.437,-5.677 9.788,-12.323 13.923,-19.162c4.136,6.839 8.486,13.485 13.923,19.162c-5.437,5.677 -9.787,12.324 -13.923,19.162Z" style="fill:#d40000;fill-rule:nonzero;"/><path id="path7016-2" d="M47.722,222.876c-4.135,-6.838 -8.486,-13.484 -13.923,-19.162c5.437,-5.677 9.788,-12.323 13.923,-19.161c4.136,6.838 8.486,13.484 13.923,19.161c-5.437,5.678 -9.787,12.324 -13.923,19.162Z" style="fill:#d40000;fill-rule:nonzero;"/><path id="path7018-0" d="M130.278,222.882c-4.135,-6.838 -8.486,-13.485 -13.923,-19.162c5.437,-5.677 9.788,-12.324 13.923,-19.162c4.136,6.838 8.486,13.485 13.923,19.162c-5.437,5.677 -9.787,12.324 -13.923,19.162Z" style="fill:#d40000;fill-rule:nonzero;"/><path id="path7020-7" d="M130.278,170.064c-4.135,-6.838 -8.486,-13.484 -13.923,-19.162c5.437,-5.677 9.788,-12.323 13.923,-19.161c4.136,6.838 8.486,13.484 13.923,19.161c-5.437,5.678 -9.787,12.324 -13.923,19.162Z" style="fill:#d40000;fill-rule:nonzero;"/><path id="path7022-4" d="M47.722,170.038c-4.135,-6.838 -8.486,-13.484 -13.923,-19.161c5.437,-5.678 9.788,-12.324 13.923,-19.162c4.136,6.838 8.486,13.484 13.923,19.162c-5.437,5.677 -9.787,12.323 -13.923,19.161Z" style="fill:#d40000;fill-rule:nonzero;"/><path id="path29-5-3-7-8" d="M6.377,32.341l2.407,-0.765c0.91,2.43 2.744,3.149 4.686,2.993c3.483,-0.278 4.641,-4.177 4.901,-7.624c-1.357,1.442 -3.396,2.174 -5.134,2.099c-5.555,-0.298 -6.977,-4.749 -7.028,-9.409c-0.152,-3.928 1.47,-6.774 4.253,-8.081c1.474,-0.661 4.849,-0.661 6.331,0.123c3.404,1.798 4.666,4.904 4.437,12.32c0,6.101 -1.294,13.207 -7.825,13.362c-3.772,0.522 -6.639,-2.417 -7.028,-5.018Zm9.456,-6.686c1.132,-0.718 1.77,-1.392 2.279,-2.401c0.416,-0.829 0.56,-1.262 0.44,-2.977c-0.308,-4.423 -2.623,-6.934 -5.983,-6.436c-1.874,0.282 -2.899,1.332 -3.487,3.283c-1.086,3.61 0.292,7.833 2.871,8.805c1.161,0.441 2.955,0.315 3.88,-0.274Z" style="fill:#d40000;fill-rule:nonzero;"/><path id="path29-6-2-9-2" d="M171.621,216.659l-2.407,0.765c-0.909,-2.43 -2.743,-3.149 -4.685,-2.993c-3.484,0.278 -4.641,4.177 -4.902,7.624c1.358,-1.442 3.397,-2.174 5.135,-2.099c5.554,0.298 6.976,4.749 7.027,9.409c0.152,3.928 -1.47,6.774 -4.252,8.081c-1.474,0.662 -4.849,0.662 -6.332,-0.122c-3.403,-1.799 -4.665,-4.905 -4.437,-12.321c0,-6.101 1.294,-13.207 7.825,-13.362c3.772,-0.522 6.64,2.417 7.028,5.018Zm-9.455,6.686c-1.133,0.718 -1.771,1.393 -2.279,2.401c-0.416,0.829 -0.561,1.262 -0.441,2.977c0.309,4.423 2.623,6.934 5.983,6.436c1.874,-0.282 2.899,-1.331 3.488,-3.283c1.085,-3.61 -0.293,-7.833 -2.872,-8.805c-1.16,-0.441 -2.954,-0.315 -3.879,0.274Z" style="fill:#d40000;fill-rule:nonzero;"/></g></g></svg>