<?xml version="1.0" encoding="UTF-8" standalone="no"?><!DOCTYPE svg PUBLIC "-//W3C//DTD SVG 1.1//EN" "http://www.w3.org/Graphics/SVG/1.1/DTD/svg11.dtd"><svg width="100%" height="100%" viewBox="0 0 178 249" version="1.1" xmlns="http://www.w3.org/2000/svg" xmlns:xlink="http://www.w3.org/1999/xlink" xml:space="preserve" xmlns:serif="http://www.serif.com/" style="fill-rule:evenodd;clip-rule:evenodd;stroke-linejoin:round;stroke-miterlimit:2;"><rect id="_9-hearts" serif:id="9-hearts" x="0" y="0" width="178" height="249" style="fill:none;"/><clipPath id="_clip1"><rect x="0" y="0" width="178" height="249"/></clipPath><g clip-path="url(#_clip1)"><rect x="-1422.21" y="-249" width="2312.21" height="1245" style="fill:#fff;"/><g id="_9_hearts" serif:id="9_hearts"><path id="path10240-7-9" d="M47.722,117.258c0,0 -3.721,-6.112 -8.74,-13.298c-3.358,-4.809 -6.042,-10.016 -6.292,-14.501c-0.286,-5.124 2.423,-10.264 7.329,-10.513c4.903,-0.249 6.893,3.95 7.703,7.412c0.81,-3.462 2.8,-7.661 7.703,-7.412c4.906,0.249 7.615,5.389 7.329,10.513c-0.25,4.485 -2.934,9.692 -6.292,14.501c-5.019,7.186 -8.74,13.298 -8.74,13.298Z" style="fill:#d40000;fill-rule:nonzero;"/><path id="path10242-3-8" d="M13.729,55.892c0,-0.003 -1.774,-2.547 -4.167,-5.541c-1.601,-2.004 -2.881,-4.174 -3,-6.043c-0.136,-2.135 1.156,-4.276 3.494,-4.38c2.338,-0.104 3.287,1.646 3.673,3.089c0.386,-1.443 1.335,-3.193 3.672,-3.089c2.339,0.104 3.631,2.245 3.495,4.38c-0.119,1.869 -1.399,4.039 -3,6.043c-2.393,2.994 -4.166,5.538 -4.167,5.541Z" style="fill:#d40000;fill-rule:nonzero;"/><path id="path10244-4-5" d="M164.272,193.109c0,0 -1.774,2.546 -4.167,5.541c-1.601,2.003 -2.881,4.173 -3,6.042c-0.136,2.135 1.155,4.276 3.494,4.38c2.338,0.104 3.286,-1.646 3.673,-3.088c0.386,1.442 1.335,3.192 3.672,3.088c2.339,-0.104 3.631,-2.245 3.494,-4.38c-0.119,-1.869 -1.398,-4.039 -2.999,-6.042c-2.393,-2.995 -4.167,-5.541 -4.167,-5.541Z" style="fill:#d40000;fill-rule:nonzero;"/><path id="path10250-9-0" d="M47.722,64.452c0,0 -3.721,-6.112 -8.74,-13.299c-3.358,-4.809 -6.042,-10.016 -6.292,-14.501c-0.286,-5.124 2.423,-10.264 7.329,-10.513c4.903,-0.249 6.893,3.95 7.703,7.413c0.81,-3.463 2.8,-7.662 7.703,-7.413c4.906,0.249 7.615,5.389 7.329,10.513c-0.25,4.485 -2.934,9.692 -6.292,14.501c-5.019,7.187 -8.74,13.299 -8.74,13.299Z" style="fill:#d40000;fill-rule:nonzero;"/><path id="path10254-7-3" d="M130.278,117.258c0,0 -3.721,-6.112 -8.74,-13.298c-3.358,-4.809 -6.042,-10.016 -6.292,-14.501c-0.286,-5.124 2.423,-10.264 7.329,-10.513c4.903,-0.249 6.893,3.95 7.703,7.412c0.81,-3.462 2.8,-7.661 7.703,-7.412c4.906,0.249 7.615,5.389 7.329,10.513c-0.25,4.485 -2.934,9.692 -6.292,14.501c-5.019,7.186 -8.74,13.298 -8.74,13.298Z" style="fill:#d40000;fill-rule:nonzero;"/><path id="path10256-4-7" d="M130.278,64.452c0,0 -3.721,-6.112 -8.74,-13.299c-3.358,-4.809 -6.042,-10.016 -6.292,-14.501c-0.286,-5.124 2.423,-10.264 7.329,-10.513c4.903,-0.249 6.893,3.95 7.703,7.413c0.81,-3.463 2.8,-7.662 7.703,-7.413c4.906,0.249 7.615,5.389 7.329,10.513c-0.25,4.485 -2.934,9.692 -6.292,14.501c-5.019,7.187 -8.74,13.299 -8.74,13.299Z" style="fill:#d40000;fill-rule:nonzero;"/><path id="path10258-5-9" d="M89,143.662c0,0 -3.721,-6.112 -8.74,-13.299c-3.358,-4.809 -6.042,-10.016 -6.292,-14.501c-0.286,-5.124 2.423,-10.264 7.329,-10.513c4.903,-0.249 6.893,3.95 7.703,7.413c0.81,-3.463 2.8,-7.662 7.703,-7.413c4.906,0.249 7.615,5.389 7.329,10.513c-0.25,4.485 -2.934,9.692 -6.292,14.501c-5.019,7.187 -8.74,13.299 -8.74,13.299Z" style="fill:#d40000;fill-rule:nonzero;"/><path id="path10266-8-9" d="M130.278,131.742c0,0 -3.721,6.112 -8.74,13.298c-3.358,4.809 -6.042,10.016 -6.292,14.502c-0.286,5.123 2.423,10.263 7.329,10.512c4.903,0.249 6.893,-3.95 7.703,-7.412c0.81,3.462 2.8,7.661 7.703,7.412c4.906,-0.249 7.615,-5.389 7.329,-10.512c-0.25,-4.486 -2.934,-9.693 -6.292,-14.502c-5.019,-7.186 -8.74,-13.298 -8.74,-13.298Z" style="fill:#d40000;fill-rule:nonzero;"/><path id="path10268-2-7" d="M47.722,131.742c0,0 -3.721,6.112 -8.74,13.298c-3.358,4.809 -6.042,10.016 -6.292,14.502c-0.286,5.123 2.423,10.263 7.329,10.512c4.903,0.249 6.893,-3.95 7.703,-7.412c0.81,3.462 2.8,7.661 7.703,7.412c4.906,-0.249 7.615,-5.389 7.329,-10.512c-0.25,-4.486 -2.934,-9.693 -6.292,-14.502c-5.019,-7.186 -8.74,-13.298 -8.74,-13.298Z" style="fill:#d40000;fill-rule:nonzero;"/><path id="path10270-1-4" d="M130.278,184.548c0,0 -3.721,6.112 -8.74,13.299c-3.358,4.809 -6.042,10.016 -6.292,14.501c-0.286,5.124 2.423,10.264 7.329,10.513c4.903,0.249 6.893,-3.95 7.703,-7.413c0.81,3.463 2.8,7.662 7.703,7.413c4.906,-0.249 7.615,-5.389 7.329,-10.513c-0.25,-4.485 -2.934,-9.692 -6.292,-14.501c-5.019,-7.187 -8.74,-13.299 -8.74,-13.299Z" style="fill:#d40000;fill-rule:nonzero;"/><path id="path10272-0-7" d="M47.722,184.548c0,0 -3.721,6.112 -8.74,13.299c-3.358,4.809 -6.042,10.016 -6.292,14.501c-0.286,5.124 2.423,10.264 7.329,10.513c4.903,0.249 6.893,-3.95 7.703,-7.413c0.81,3.463 2.8,7.662 7.703,7.413c4.906,-0.249 7.615,-5.389 7.329,-10.513c-0.25,-4.485 -2.934,-9.692 -6.292,-14.501c-5.019,-7.187 -8.74,-13.299 -8.74,-13.299Z" style="fill:#d40000;fill-rule:nonzero;"/><path id="path29-5-8-5-4" d="M6.377,32.341l2.407,-0.764c0.91,2.429 2.744,3.149 4.685,2.993c3.484,-0.278 4.641,-4.178 4.902,-7.624c-1.358,1.441 -3.397,2.173 -5.134,2.099c-5.555,-0.298 -6.977,-4.75 -7.028,-9.409c-0.152,-3.929 1.47,-6.774 4.252,-8.081c1.475,-0.662 4.85,-0.662 6.332,0.122c3.404,1.798 4.666,4.904 4.437,12.321c0,6.101 -1.294,13.206 -7.825,13.361c-3.772,0.523 -6.639,-2.417 -7.028,-5.018Zm9.455,-6.685c1.133,-0.719 1.771,-1.393 2.279,-2.402c0.417,-0.829 0.561,-1.262 0.441,-2.976c-0.308,-4.423 -2.623,-6.934 -5.983,-6.437c-1.874,0.282 -2.899,1.332 -3.487,3.284c-1.086,3.61 0.292,7.832 2.871,8.804c1.161,0.442 2.955,0.315 3.879,-0.273Z" style="fill:#d40000;fill-rule:nonzero;"/><path id="path29-6-2-3-6-6" d="M171.621,216.659l-2.407,0.764c-0.909,-2.429 -2.744,-3.149 -4.685,-2.993c-3.484,0.278 -4.641,4.178 -4.902,7.625c1.358,-1.442 3.397,-2.174 5.134,-2.1c5.555,0.298 6.977,4.75 7.028,9.409c0.152,3.929 -1.47,6.774 -4.252,8.081c-1.475,0.662 -4.85,0.662 -6.332,-0.122c-3.404,-1.798 -4.666,-4.904 -4.437,-12.32c0,-6.102 1.294,-13.207 7.825,-13.362c3.772,-0.523 6.639,2.417 7.028,5.018Zm-9.455,6.686c-1.133,0.718 -1.771,1.392 -2.279,2.401c-0.417,0.829 -0.561,1.262 -0.441,2.976c0.308,4.423 2.623,6.935 5.983,6.437c1.874,-0.282 2.899,-1.332 3.488,-3.284c1.085,-3.61 -0.293,-7.832 -2.872,-8.804c-1.161,-0.442 -2.955,-0.315 -3.879,0.274Z" style="fill:#d40000;fill-rule:nonzero;"/></g></g></svg>