<?xml version="1.0" encoding="UTF-8" standalone="no"?><!DOCTYPE svg PUBLIC "-//W3C//DTD SVG 1.1//EN" "http://www.w3.org/Graphics/SVG/1.1/DTD/svg11.dtd"><svg width="100%" height="100%" viewBox="0 0 178 249" version="1.1" xmlns="http://www.w3.org/2000/svg" xmlns:xlink="http://www.w3.org/1999/xlink" xml:space="preserve" xmlns:serif="http://www.serif.com/" style="fill-rule:evenodd;clip-rule:evenodd;stroke-linejoin:round;stroke-miterlimit:2;"><rect id="_9-spades" serif:id="9-spades" x="0" y="0" width="178" height="249" style="fill:none;"/><clipPath id="_clip1"><rect x="0" y="0" width="178" height="249"/></clipPath><g clip-path="url(#_clip1)"><rect x="-1422.21" y="-498" width="2312.21" height="1245" style="fill:#fff;"/><g id="_9_spades" serif:id="9_spades"><path id="path7225-5-2" d="M47.722,26.128c-7.357,10.505 -15.228,16.55 -15.359,24.746c-0.044,2.653 1.389,7.164 5.878,8.027c2.912,0.558 6.921,-1.802 7.005,-6.597c-0.013,-0.954 1.009,-0.929 1,0.379c-0.138,3.781 -1.333,8.185 -3.343,11.769l9.638,0c-2.01,-3.584 -3.205,-7.988 -3.343,-11.769c-0.009,-1.308 1.013,-1.333 1,-0.379c0.084,4.795 4.093,7.155 7.005,6.597c4.489,-0.863 5.922,-5.374 5.878,-8.027c-0.131,-8.196 -8.002,-14.241 -15.359,-24.746Z" style="fill-rule:nonzero;"/><path id="path7227-2-8" d="M13.729,39.923c-3.437,4.377 -7.115,6.896 -7.176,10.311c-0.021,1.106 0.649,2.985 2.746,3.345c1.361,0.232 3.234,-0.751 3.273,-2.749c-0.008,-0.398 0.472,-0.387 0.467,0.158c-0.064,1.576 -0.623,3.41 -1.561,4.904l4.502,0c-0.939,-1.494 -1.497,-3.328 -1.561,-4.904c-0.008,-0.545 0.473,-0.556 0.467,-0.158c0.039,1.998 1.912,2.981 3.273,2.749c2.097,-0.36 2.766,-2.239 2.746,-3.345c-0.061,-3.415 -3.739,-5.934 -7.176,-10.311Z" style="fill-rule:nonzero;"/><path id="path7229-4-8" d="M47.722,170.065c-7.357,-10.505 -15.228,-16.55 -15.359,-24.745c-0.044,-2.654 1.389,-7.165 5.878,-8.028c2.912,-0.557 6.921,1.802 7.005,6.597c-0.013,0.954 1.009,0.93 1,-0.378c-0.138,-3.782 -1.333,-8.185 -3.343,-11.769l9.638,0c-2.01,3.584 -3.205,7.987 -3.343,11.769c-0.009,1.308 1.013,1.332 1,0.378c0.084,-4.795 4.093,-7.154 7.005,-6.597c4.489,0.863 5.922,5.374 5.878,8.028c-0.131,8.195 -8.002,14.24 -15.359,24.745Z" style="fill-rule:nonzero;"/><path id="path7231-7-8" d="M164.272,209.077c-3.438,-4.377 -7.115,-6.896 -7.176,-10.311c-0.021,-1.106 0.649,-2.985 2.746,-3.345c1.36,-0.232 3.234,0.751 3.273,2.749c-0.008,0.398 0.471,0.387 0.467,-0.158c-0.064,-1.575 -0.623,-3.41 -1.562,-4.903l4.503,0c-0.939,1.493 -1.497,3.328 -1.561,4.903c-0.008,0.545 0.473,0.556 0.467,0.158c0.039,-1.998 1.912,-2.981 3.273,-2.749c2.097,0.36 2.766,2.239 2.746,3.345c-0.062,3.415 -3.739,5.934 -7.176,10.311Z" style="fill-rule:nonzero;"/><path id="path7233-8-9" d="M130.278,26.128c-7.357,10.505 -15.228,16.55 -15.359,24.746c-0.044,2.653 1.389,7.164 5.878,8.027c2.912,0.558 6.921,-1.802 7.005,-6.597c-0.013,-0.954 1.009,-0.929 1,0.379c-0.138,3.781 -1.333,8.185 -3.343,11.769l9.638,0c-2.01,-3.584 -3.205,-7.988 -3.343,-11.769c-0.009,-1.308 1.013,-1.333 1,-0.379c0.084,4.795 4.093,7.155 7.005,6.597c4.489,-0.863 5.922,-5.374 5.878,-8.027c-0.131,-8.196 -8.002,-14.241 -15.359,-24.746Z" style="fill-rule:nonzero;"/><path id="path7235-9-4" d="M47.722,78.935c-7.357,10.505 -15.228,16.55 -15.359,24.745c-0.044,2.654 1.389,7.165 5.878,8.028c2.912,0.557 6.921,-1.802 7.005,-6.597c-0.013,-0.954 1.009,-0.93 1,0.378c-0.138,3.782 -1.333,8.185 -3.343,11.769l9.638,0c-2.01,-3.584 -3.205,-7.987 -3.343,-11.769c-0.009,-1.308 1.013,-1.332 1,-0.378c0.084,4.795 4.093,7.154 7.005,6.597c4.489,-0.863 5.922,-5.374 5.878,-8.028c-0.131,-8.195 -8.002,-14.24 -15.359,-24.745Z" style="fill-rule:nonzero;"/><path id="path7241-7-2" d="M130.278,78.935c-7.357,10.505 -15.228,16.55 -15.359,24.745c-0.044,2.654 1.389,7.165 5.878,8.028c2.912,0.557 6.921,-1.802 7.005,-6.597c-0.013,-0.954 1.009,-0.93 1,0.378c-0.138,3.782 -1.333,8.185 -3.343,11.769l9.638,0c-2.01,-3.584 -3.205,-7.987 -3.343,-11.769c-0.009,-1.308 1.013,-1.332 1,-0.378c0.084,4.795 4.093,7.154 7.005,6.597c4.489,-0.863 5.922,-5.374 5.878,-8.028c-0.131,-8.195 -8.002,-14.24 -15.359,-24.745Z" style="fill-rule:nonzero;"/><path id="path7245-1-6" d="M47.722,222.872c-7.357,-10.505 -15.228,-16.55 -15.359,-24.746c-0.044,-2.653 1.389,-7.164 5.878,-8.027c2.912,-0.558 6.921,1.802 7.005,6.597c-0.013,0.954 1.009,0.929 1,-0.379c-0.138,-3.781 -1.333,-8.185 -3.343,-11.769l9.638,0c-2.01,3.584 -3.205,7.988 -3.343,11.769c-0.009,1.308 1.013,1.333 1,0.379c0.084,-4.795 4.093,-7.155 7.005,-6.597c4.489,0.863 5.922,5.374 5.878,8.027c-0.131,8.196 -8.002,14.241 -15.359,24.746Z" style="fill-rule:nonzero;"/><path id="path7247-0-6" d="M130.278,222.872c-7.357,-10.505 -15.228,-16.55 -15.359,-24.746c-0.044,-2.653 1.389,-7.164 5.878,-8.027c2.912,-0.558 6.921,1.802 7.005,6.597c-0.013,0.954 1.009,0.929 1,-0.379c-0.138,-3.781 -1.333,-8.185 -3.343,-11.769l9.638,0c-2.01,3.584 -3.205,7.988 -3.343,11.769c-0.009,1.308 1.013,1.333 1,0.379c0.084,-4.795 4.093,-7.155 7.005,-6.597c4.489,0.863 5.922,5.374 5.878,8.027c-0.131,8.196 -8.002,14.241 -15.359,24.746Z" style="fill-rule:nonzero;"/><path id="path7251-3-6" d="M130.278,170.065c-7.357,-10.505 -15.228,-16.55 -15.359,-24.745c-0.044,-2.654 1.389,-7.165 5.878,-8.028c2.912,-0.557 6.921,1.802 7.005,6.597c-0.013,0.954 1.009,0.93 1,-0.378c-0.138,-3.782 -1.333,-8.185 -3.343,-11.769l9.638,0c-2.01,3.584 -3.205,7.987 -3.343,11.769c-0.009,1.308 1.013,1.332 1,0.378c0.084,-4.795 4.093,-7.154 7.005,-6.597c4.489,0.863 5.922,5.374 5.878,8.028c-0.131,8.195 -8.002,14.24 -15.359,24.745Z" style="fill-rule:nonzero;"/><path id="path7255-7-8" d="M89,105.338c-7.357,10.505 -15.228,16.55 -15.359,24.745c-0.044,2.654 1.389,7.165 5.878,8.028c2.912,0.558 6.921,-1.802 7.005,-6.597c-0.013,-0.954 1.009,-0.929 1,0.379c-0.138,3.781 -1.333,8.185 -3.343,11.769l9.638,0c-2.01,-3.584 -3.205,-7.988 -3.343,-11.769c-0.009,-1.308 1.013,-1.333 1,-0.379c0.084,4.795 4.093,7.155 7.005,6.597c4.489,-0.863 5.922,-5.374 5.878,-8.028c-0.131,-8.195 -8.002,-14.24 -15.359,-24.745Z" style="fill-rule:nonzero;"/><path id="path29-33-4-4" d="M6.377,32.341l2.407,-0.764c0.91,2.429 2.744,3.149 4.685,2.993c3.484,-0.278 4.641,-4.178 4.902,-7.624c-1.357,1.441 -3.397,2.173 -5.134,2.099c-5.555,-0.298 -6.977,-4.749 -7.028,-9.409c-0.152,-3.929 1.47,-6.774 4.253,-8.081c1.474,-0.662 4.849,-0.662 6.331,0.122c3.404,1.798 4.666,4.904 4.437,12.321c0,6.101 -1.294,13.206 -7.825,13.361c-3.772,0.523 -6.639,-2.417 -7.028,-5.018l0,0Zm9.455,-6.685c1.133,-0.719 1.771,-1.393 2.28,-2.402c0.416,-0.829 0.56,-1.262 0.44,-2.976c-0.308,-4.423 -2.623,-6.934 -5.983,-6.437c-1.874,0.282 -2.899,1.332 -3.487,3.284c-1.086,3.61 0.292,7.832 2.871,8.805c1.161,0.441 2.955,0.314 3.879,-0.274l0,0Z" style="fill-rule:nonzero;"/><path id="path29-33-3-8-6" d="M171.621,216.659l-2.407,0.764c-0.91,-2.429 -2.744,-3.149 -4.685,-2.993c-3.484,0.278 -4.641,4.178 -4.902,7.624c1.358,-1.441 3.397,-2.173 5.134,-2.099c5.555,0.298 6.977,4.75 7.028,9.409c0.152,3.929 -1.47,6.775 -4.252,8.081c-1.475,0.662 -4.849,0.662 -6.332,-0.122c-3.404,-1.798 -4.666,-4.904 -4.437,-12.32c0,-6.101 1.294,-13.207 7.825,-13.362c3.772,-0.523 6.64,2.417 7.028,5.018l0,0Zm-9.455,6.686c-1.133,0.718 -1.771,1.392 -2.279,2.401c-0.417,0.829 -0.561,1.262 -0.441,2.976c0.308,4.423 2.623,6.935 5.983,6.437c1.874,-0.282 2.899,-1.332 3.488,-3.284c1.085,-3.61 -0.293,-7.832 -2.872,-8.804c-1.161,-0.442 -2.955,-0.315 -3.879,0.274l0,0Z" style="fill-rule:nonzero;"/></g></g></svg>