<?xml version="1.0" encoding="UTF-8" standalone="no"?>
<!DOCTYPE svg PUBLIC "-//W3C//DTD SVG 1.1//EN" "http://www.w3.org/Graphics/SVG/1.1/DTD/svg11.dtd">
<svg width="100%" height="100%" viewBox="0 0 182 253" version="1.1" xmlns="http://www.w3.org/2000/svg" xmlns:xlink="http://www.w3.org/1999/xlink" xml:space="preserve" xmlns:serif="http://www.serif.com/" style="fill-rule:evenodd;clip-rule:evenodd;">
    <g transform="matrix(1,0,0,1,-1730,-34)">
        <g transform="matrix(1,0,0,1,-328,1179.11)">
            <g id="_9_clubs" serif:id="9_clubs" transform="matrix(0.999997,0,0,1,-1.58792,-272.411)">
                <path id="rect6355-6-85-3-78-4-6" d="M2239.65,-862.192C2239.65,-866.885 2235.84,-870.696 2231.15,-870.696L2070.37,-870.696C2065.68,-870.696 2061.87,-866.885 2061.87,-862.192L2061.87,-630.549C2061.87,-625.855 2065.68,-622.045 2070.37,-622.045L2231.15,-622.045C2235.84,-622.045 2239.65,-625.855 2239.65,-630.549L2239.65,-862.192Z" style="fill:white;stroke:black;stroke-width:0.8px;"/>
                <path id="path147-0-8-1-6-13-2-9-8-8" d="M2191.99,-844.292C2184.17,-844.122 2180.66,-835.318 2186.45,-828.481C2187.29,-827.484 2187.38,-826.912 2185.84,-827.87C2181.94,-830.477 2174.46,-828.763 2174.08,-820.792C2173.61,-810.97 2187.33,-808.14 2189.91,-818.584C2190.04,-819.686 2190.94,-819.661 2190.72,-818.097C2190.49,-813.852 2189.16,-809.884 2187.34,-806.015L2196.64,-806.015C2194.81,-809.884 2193.49,-813.852 2193.25,-818.097C2193.04,-819.661 2193.93,-819.686 2194.07,-818.584C2196.65,-808.14 2210.37,-810.97 2209.9,-820.792C2209.51,-828.763 2202.04,-830.477 2198.14,-827.87C2196.6,-826.912 2196.69,-827.484 2197.53,-828.481C2203.32,-835.318 2199.81,-844.122 2191.99,-844.292C2191.99,-844.292 2191.99,-844.292 2191.98,-844.292L2191.99,-844.292Z" style="fill-rule:nonzero;"/>
                <path id="path147-0-8-1-6-75-2-83-3-5-0" d="M2109.53,-844.292C2101.71,-844.122 2098.2,-835.318 2103.99,-828.481C2104.83,-827.484 2104.92,-826.912 2103.38,-827.87C2099.48,-830.477 2092.01,-828.763 2091.62,-820.792C2091.15,-810.97 2104.87,-808.14 2107.45,-818.584C2107.59,-819.686 2108.48,-819.661 2108.27,-818.097C2108.03,-813.852 2106.71,-809.884 2104.88,-806.015L2114.18,-806.015C2112.36,-809.884 2111.03,-813.852 2110.8,-818.097C2110.58,-819.661 2111.48,-819.686 2111.61,-818.584C2114.19,-808.14 2127.91,-810.97 2127.44,-820.792C2127.06,-828.763 2119.58,-830.477 2115.68,-827.87C2114.14,-826.912 2114.23,-827.484 2115.07,-828.481C2120.86,-835.318 2117.35,-844.122 2109.53,-844.292C2109.53,-844.292 2109.53,-844.292 2109.53,-844.292L2109.53,-844.292Z" style="fill-rule:nonzero;"/>
                <path id="path147-0-8-1-6-7-5-5-7-63-0-4" d="M2191.99,-647.785C2184.17,-647.955 2180.66,-656.759 2186.45,-663.596C2187.29,-664.593 2187.38,-665.165 2185.84,-664.208C2181.94,-661.6 2174.46,-663.314 2174.08,-671.285C2173.61,-681.107 2187.33,-683.937 2189.91,-673.493C2190.04,-672.391 2190.94,-672.416 2190.72,-673.98C2190.49,-678.226 2189.16,-682.193 2187.34,-686.063L2196.64,-686.063C2194.81,-682.193 2193.49,-678.226 2193.25,-673.98C2193.04,-672.416 2193.93,-672.391 2194.07,-673.493C2196.65,-683.937 2210.37,-681.107 2209.9,-671.285C2209.51,-663.314 2202.04,-661.6 2198.14,-664.208C2196.6,-665.165 2196.69,-664.593 2197.53,-663.596C2203.32,-656.759 2199.81,-647.955 2191.99,-647.785C2191.99,-647.785 2191.99,-647.785 2191.98,-647.785L2191.99,-647.785Z" style="fill-rule:nonzero;"/>
                <path id="path147-0-8-1-6-75-6-1-2-46-5-0" d="M2109.53,-647.785C2101.71,-647.955 2098.2,-656.759 2103.99,-663.596C2104.83,-664.593 2104.92,-665.165 2103.38,-664.208C2099.48,-661.6 2092.01,-663.314 2091.62,-671.285C2091.15,-681.107 2104.87,-683.937 2107.45,-673.493C2107.59,-672.391 2108.48,-672.416 2108.27,-673.98C2108.03,-678.226 2106.71,-682.193 2104.88,-686.063L2114.18,-686.063C2112.36,-682.193 2111.03,-678.226 2110.8,-673.98C2110.58,-672.416 2111.48,-672.391 2111.61,-673.493C2114.19,-683.937 2127.91,-681.107 2127.44,-671.285C2127.06,-663.314 2119.58,-661.6 2115.68,-664.208C2114.14,-665.165 2114.23,-664.593 2115.07,-663.596C2120.86,-656.759 2117.35,-647.955 2109.53,-647.785C2109.53,-647.785 2109.53,-647.785 2109.53,-647.785L2109.53,-647.785Z" style="fill-rule:nonzero;"/>
                <path id="path147-0-8-1-6-1-1-0-5-61-2-0" d="M2150.76,-765.177C2142.94,-765.007 2139.43,-756.203 2145.22,-749.367C2146.06,-748.369 2146.15,-747.797 2144.61,-748.755C2140.71,-751.362 2133.24,-749.648 2132.85,-741.677C2132.38,-731.856 2146.1,-729.026 2148.68,-739.469C2148.82,-740.571 2149.71,-740.546 2149.49,-738.982C2149.26,-734.737 2147.93,-730.769 2146.11,-726.9L2155.41,-726.9C2153.59,-730.769 2152.26,-734.737 2152.03,-738.982C2151.81,-740.546 2152.7,-740.571 2152.84,-739.469C2155.42,-729.026 2169.14,-731.856 2168.67,-741.677C2168.28,-749.648 2160.81,-751.362 2156.91,-748.755C2155.37,-747.797 2155.46,-748.369 2156.3,-749.367C2162.09,-756.203 2158.58,-765.007 2150.76,-765.177C2150.76,-765.177 2150.76,-765.177 2150.76,-765.177L2150.76,-765.177Z" style="fill-rule:nonzero;"/>
                <path id="path147-6-9-8-7-0-5-6-5-2-8" d="M2225.94,-661.895C2229.07,-661.966 2230.47,-665.634 2228.16,-668.483C2227.82,-668.899 2227.79,-669.137 2228.4,-668.738C2229.96,-667.652 2232.95,-668.366 2233.1,-671.687C2233.29,-675.779 2227.8,-676.958 2226.77,-672.607C2226.72,-672.148 2226.36,-672.158 2226.45,-672.81C2226.54,-674.579 2227.07,-676.232 2227.8,-677.844L2224.08,-677.844C2224.81,-676.232 2225.34,-674.579 2225.43,-672.81C2225.52,-672.158 2225.16,-672.148 2225.11,-672.607C2224.08,-676.958 2218.59,-675.779 2218.78,-671.687C2218.93,-668.366 2221.92,-667.652 2223.48,-668.738C2224.1,-669.137 2224.06,-668.899 2223.73,-668.483C2221.41,-665.634 2222.81,-661.966 2225.94,-661.895C2225.94,-661.895 2225.94,-661.895 2225.94,-661.895L2225.94,-661.895Z" style="fill-rule:nonzero;"/>
                <path id="path147-0-8-1-6-75-2-9-77-4-4-2" d="M2109.53,-791.549C2101.71,-791.379 2098.2,-782.575 2103.99,-775.738C2104.83,-774.741 2104.92,-774.169 2103.38,-775.126C2099.48,-777.734 2092.01,-776.02 2091.62,-768.049C2091.15,-758.227 2104.87,-755.397 2107.45,-765.841C2107.59,-766.943 2108.48,-766.918 2108.27,-765.354C2108.03,-761.108 2106.71,-757.141 2104.88,-753.272L2114.18,-753.272C2112.36,-757.141 2111.03,-761.108 2110.8,-765.354C2110.58,-766.918 2111.48,-766.943 2111.61,-765.841C2114.19,-755.397 2127.91,-758.227 2127.44,-768.049C2127.06,-776.02 2119.58,-777.734 2115.68,-775.126C2114.14,-774.169 2114.23,-774.741 2115.07,-775.738C2120.86,-782.575 2117.35,-791.379 2109.53,-791.549C2109.53,-791.549 2109.53,-791.549 2109.53,-791.549L2109.53,-791.549Z" style="fill-rule:nonzero;"/>
                <path id="path147-0-8-1-6-75-2-8-0-6-4-4" d="M2109.53,-700.528C2101.71,-700.698 2098.2,-709.502 2103.99,-716.339C2104.83,-717.336 2104.92,-717.909 2103.38,-716.951C2099.48,-714.343 2092.01,-716.057 2091.62,-724.029C2091.15,-733.85 2104.87,-736.68 2107.45,-726.236C2107.59,-725.134 2108.48,-725.16 2108.27,-726.724C2108.03,-730.969 2106.71,-734.936 2104.88,-738.806L2114.18,-738.806C2112.36,-734.936 2111.03,-730.969 2110.8,-726.724C2110.58,-725.16 2111.48,-725.134 2111.61,-726.236C2114.19,-736.68 2127.91,-733.85 2127.44,-724.029C2127.06,-716.057 2119.58,-714.343 2115.68,-716.951C2114.14,-717.909 2114.23,-717.336 2115.07,-716.339C2120.86,-709.502 2117.35,-700.698 2109.53,-700.528C2109.53,-700.528 2109.53,-700.528 2109.53,-700.528L2109.53,-700.528Z" style="fill-rule:nonzero;"/>
                <path id="path147-0-8-1-6-75-2-9-7-1-36-2-4" d="M2191.99,-791.549C2184.17,-791.379 2180.66,-782.575 2186.45,-775.738C2187.29,-774.741 2187.38,-774.169 2185.84,-775.126C2181.94,-777.734 2174.46,-776.02 2174.08,-768.049C2173.61,-758.227 2187.33,-755.397 2189.91,-765.841C2190.04,-766.943 2190.94,-766.918 2190.72,-765.354C2190.49,-761.108 2189.16,-757.141 2187.34,-753.272L2196.64,-753.272C2194.81,-757.141 2193.49,-761.108 2193.25,-765.354C2193.04,-766.918 2193.93,-766.943 2194.07,-765.841C2196.65,-755.397 2210.37,-758.227 2209.9,-768.049C2209.51,-776.02 2202.04,-777.734 2198.14,-775.126C2196.6,-774.169 2196.69,-774.741 2197.53,-775.738C2203.32,-782.575 2199.81,-791.379 2191.99,-791.549C2191.99,-791.549 2191.99,-791.549 2191.98,-791.549L2191.99,-791.549Z" style="fill-rule:nonzero;"/>
                <path id="path147-0-8-1-6-75-2-8-5-1-55-5-4" d="M2191.99,-700.528C2184.17,-700.698 2180.66,-709.502 2186.45,-716.339C2187.29,-717.336 2187.38,-717.909 2185.84,-716.951C2181.94,-714.343 2174.46,-716.057 2174.08,-724.029C2173.61,-733.85 2187.33,-736.68 2189.91,-726.236C2190.04,-725.134 2190.94,-725.16 2190.72,-726.724C2190.49,-730.969 2189.16,-734.936 2187.34,-738.806L2196.64,-738.806C2194.81,-734.936 2193.49,-730.969 2193.25,-726.724C2193.04,-725.16 2193.93,-725.134 2194.07,-726.236C2196.65,-736.68 2210.37,-733.85 2209.9,-724.029C2209.51,-716.057 2202.04,-714.343 2198.14,-716.951C2196.6,-717.909 2196.69,-717.336 2197.53,-716.339C2203.32,-709.502 2199.81,-700.698 2191.99,-700.528C2191.99,-700.528 2191.99,-700.528 2191.98,-700.528L2191.99,-700.528Z" style="fill-rule:nonzero;"/>
                <path id="path147-6-9-8-7-4-5-62-7-8-4" d="M2075.58,-830.845C2072.45,-830.774 2071.05,-827.106 2073.37,-824.257C2073.7,-823.842 2073.74,-823.603 2073.12,-824.002C2071.56,-825.089 2068.57,-824.374 2068.42,-821.053C2068.23,-816.961 2073.72,-815.782 2074.75,-820.133C2074.8,-820.592 2075.16,-820.582 2075.07,-819.93C2074.98,-818.161 2074.45,-816.508 2073.72,-814.896L2077.44,-814.896C2076.71,-816.508 2076.18,-818.161 2076.09,-819.93C2076,-820.582 2076.36,-820.592 2076.41,-820.133C2077.44,-815.782 2082.93,-816.961 2082.74,-821.053C2082.59,-824.374 2079.6,-825.089 2078.04,-824.002C2077.42,-823.603 2077.46,-823.842 2077.8,-824.257C2080.11,-827.106 2078.71,-830.774 2075.58,-830.845L2075.58,-830.845Z" style="fill-rule:nonzero;"/>
                <path id="path29-2-3-4" d="M2068.24,-838.418L2070.64,-839.181C2071.55,-836.755 2073.38,-836.036 2075.32,-836.192C2078.8,-836.47 2079.96,-840.364 2080.22,-843.807C2078.86,-842.367 2076.82,-841.636 2075.09,-841.71C2069.54,-842.008 2068.12,-846.454 2068.07,-851.108C2067.92,-855.032 2069.54,-857.874 2072.32,-859.179C2073.79,-859.84 2077.16,-859.84 2078.64,-859.057C2082.04,-857.261 2083.3,-854.159 2083.07,-846.752C2083.07,-840.658 2081.78,-833.561 2075.26,-833.406C2071.49,-832.884 2068.62,-835.82 2068.24,-838.418ZM2077.68,-845.096C2078.81,-845.813 2079.45,-846.486 2079.96,-847.494C2080.37,-848.322 2080.52,-848.754 2080.4,-850.467C2080.09,-854.885 2077.78,-857.393 2074.42,-856.896C2072.55,-856.614 2071.53,-855.566 2070.94,-853.616C2069.85,-850.011 2071.23,-845.793 2073.81,-844.822C2074.97,-844.381 2076.76,-844.508 2077.68,-845.096Z" style="fill-rule:nonzero;"/>
                <path id="path29-6-1-3-7" d="M2233.28,-654.322L2230.88,-653.559C2229.97,-655.985 2228.14,-656.704 2226.2,-656.548C2222.72,-656.27 2221.56,-652.376 2221.3,-648.933C2222.66,-650.373 2224.7,-651.104 2226.43,-651.03C2231.98,-650.732 2233.4,-646.286 2233.45,-641.632C2233.6,-637.708 2231.98,-634.866 2229.2,-633.561C2227.73,-632.9 2224.36,-632.9 2222.88,-633.683C2219.48,-635.479 2218.22,-638.581 2218.45,-645.989C2218.45,-652.082 2219.74,-659.18 2226.26,-659.334C2230.03,-659.856 2232.89,-656.92 2233.28,-654.322ZM2223.84,-647.645C2222.71,-646.927 2222.07,-646.254 2221.56,-645.246C2221.15,-644.418 2221,-643.986 2221.12,-642.273C2221.43,-637.855 2223.74,-635.347 2227.1,-635.844C2228.97,-636.126 2229.99,-637.175 2230.58,-639.124C2231.66,-642.73 2230.29,-646.947 2227.71,-647.918C2226.55,-648.359 2224.76,-648.232 2223.84,-647.645Z" style="fill-rule:nonzero;"/>
            </g>
        </g>
    </g>
</svg>
