<?xml version="1.0" encoding="UTF-8" standalone="no"?>
<!DOCTYPE svg PUBLIC "-//W3C//DTD SVG 1.1//EN" "http://www.w3.org/Graphics/SVG/1.1/DTD/svg11.dtd">
<svg width="100%" height="100%" viewBox="0 0 182 253" version="1.1" xmlns="http://www.w3.org/2000/svg" xmlns:xlink="http://www.w3.org/1999/xlink" xml:space="preserve" xmlns:serif="http://www.serif.com/" style="fill-rule:evenodd;clip-rule:evenodd;">
    <g transform="matrix(1,0,0,1,-1730,-878)">
        <g transform="matrix(1,0,0,1,-328,1179.11)">
            <g id="_9_diamonds" serif:id="9_diamonds" transform="matrix(0.995535,0,0,0.996803,8.00935,-274.482)">
                <path id="rect6962-4" d="M2240.05,-15.786C2240.05,-20.516 2236.21,-24.356 2231.47,-24.356L2070.05,-24.356C2065.31,-24.356 2061.47,-20.516 2061.47,-15.786L2061.47,216.523C2061.47,221.253 2065.31,225.093 2070.05,225.093L2231.47,225.093C2236.21,225.093 2240.05,221.253 2240.05,216.523L2240.05,-15.786Z" style="fill:white;stroke:black;stroke-width:0.8px;"/>
                <path id="path6994-9" d="M2075.24,31.623C2073.51,28.768 2071.7,25.993 2069.42,23.623C2071.7,21.252 2073.51,18.478 2075.24,15.623C2076.97,18.478 2078.79,21.252 2081.06,23.623C2078.79,25.993 2076.97,28.768 2075.24,31.623Z" style="fill:rgb(212,0,0);fill-rule:nonzero;"/>
                <path id="path6996-5" d="M2192.17,40.2C2188.02,33.348 2183.66,26.689 2178.2,21C2183.66,15.311 2188.02,8.652 2192.17,1.8C2196.32,8.652 2200.69,15.311 2206.14,21C2200.69,26.689 2196.32,33.348 2192.17,40.2Z" style="fill:rgb(212,0,0);fill-rule:nonzero;"/>
                <path id="path6998-7" d="M2226.28,185.114C2224.55,182.26 2222.73,179.485 2220.46,177.114C2222.73,174.744 2224.55,171.969 2226.28,169.114C2228.01,171.969 2229.83,174.744 2232.1,177.114C2229.83,179.485 2228.01,182.26 2226.28,185.114Z" style="fill:rgb(212,0,0);fill-rule:nonzero;"/>
                <path id="path7000-7" d="M2109.35,40.2C2105.2,33.348 2100.83,26.689 2095.38,21C2100.83,15.311 2105.2,8.652 2109.35,1.8C2113.5,8.652 2117.86,15.311 2123.32,21C2117.86,26.689 2113.5,33.348 2109.35,40.2Z" style="fill:rgb(212,0,0);fill-rule:nonzero;"/>
                <path id="path7002-0" d="M2192.17,93.118C2188.02,86.266 2183.66,79.607 2178.2,73.918C2183.66,68.229 2188.02,61.57 2192.17,54.718C2196.32,61.57 2200.69,68.229 2206.14,73.918C2200.69,79.607 2196.32,86.266 2192.17,93.118Z" style="fill:rgb(212,0,0);fill-rule:nonzero;"/>
                <path id="path7004-0" d="M2109.35,93.118C2105.2,86.266 2100.83,79.607 2095.38,73.918C2100.83,68.229 2105.2,61.57 2109.35,54.718C2113.5,61.57 2117.86,68.229 2123.32,73.918C2117.86,79.607 2113.5,86.266 2109.35,93.118Z" style="fill:rgb(212,0,0);fill-rule:nonzero;"/>
                <path id="path7008-2" d="M2150.76,119.568C2146.61,112.717 2142.25,106.057 2136.79,100.368C2142.25,94.68 2146.61,88.02 2150.76,81.168C2154.91,88.02 2159.27,94.68 2164.73,100.368C2159.27,106.057 2154.91,112.717 2150.76,119.568Z" style="fill:rgb(212,0,0);fill-rule:nonzero;"/>
                <path id="path7016-2" d="M2109.35,198.941C2105.2,192.089 2100.83,185.43 2095.38,179.741C2100.83,174.052 2105.2,167.393 2109.35,160.541C2113.5,167.393 2117.86,174.052 2123.32,179.741C2117.86,185.43 2113.5,192.089 2109.35,198.941Z" style="fill:rgb(212,0,0);fill-rule:nonzero;"/>
                <path id="path7018-0" d="M2192.17,198.947C2188.02,192.095 2183.66,185.435 2178.2,179.747C2183.66,174.058 2188.02,167.399 2192.17,160.547C2196.32,167.399 2200.69,174.058 2206.14,179.747C2200.69,185.435 2196.32,192.095 2192.17,198.947Z" style="fill:rgb(212,0,0);fill-rule:nonzero;"/>
                <path id="path7020-7" d="M2192.17,146.024C2188.02,139.172 2183.66,132.512 2178.2,126.824C2183.66,121.135 2188.02,114.475 2192.17,107.624C2196.32,114.475 2200.69,121.135 2206.14,126.824C2200.69,132.512 2196.32,139.172 2192.17,146.024Z" style="fill:rgb(212,0,0);fill-rule:nonzero;"/>
                <path id="path7022-4" d="M2109.35,145.998C2105.2,139.146 2100.83,132.487 2095.38,126.798C2100.83,121.109 2105.2,114.45 2109.35,107.598C2113.5,114.45 2117.86,121.109 2123.32,126.798C2117.86,132.487 2113.5,139.146 2109.35,145.998Z" style="fill:rgb(212,0,0);fill-rule:nonzero;"/>
                <path id="path29-5-3-7-8" d="M2067.87,8.025L2070.28,7.259C2071.19,9.694 2073.03,10.414 2074.98,10.258C2078.48,9.98 2079.64,6.072 2079.9,2.619C2078.54,4.063 2076.49,4.797 2074.75,4.722C2069.18,4.424 2067.75,-0.037 2067.7,-4.705C2067.55,-8.642 2069.17,-11.493 2071.97,-12.803C2073.44,-13.466 2076.83,-13.466 2078.32,-12.68C2081.73,-10.878 2083,-7.766 2082.77,-0.335C2082.77,5.778 2081.47,12.898 2074.92,13.053C2071.13,13.577 2068.26,10.631 2067.87,8.025ZM2077.35,1.326C2078.49,0.607 2079.13,-0.069 2079.64,-1.08C2080.06,-1.911 2080.2,-2.344 2080.08,-4.062C2079.77,-8.494 2077.45,-11.01 2074.08,-10.512C2072.2,-10.229 2071.17,-9.177 2070.58,-7.222C2069.49,-3.604 2070.87,0.626 2073.46,1.601C2074.62,2.043 2076.43,1.916 2077.35,1.326Z" style="fill:rgb(212,0,0);fill-rule:nonzero;"/>
                <path id="path29-6-2-9-2" d="M2233.65,192.712L2231.24,193.478C2230.32,191.043 2228.48,190.323 2226.54,190.479C2223.04,190.757 2221.88,194.665 2221.62,198.118C2222.98,196.674 2225.03,195.94 2226.77,196.015C2232.34,196.313 2233.77,200.774 2233.82,205.442C2233.97,209.379 2232.35,212.23 2229.55,213.54C2228.08,214.203 2224.69,214.203 2223.2,213.417C2219.79,211.616 2218.52,208.503 2218.75,201.072C2218.75,194.959 2220.05,187.839 2226.6,187.684C2230.39,187.16 2233.26,190.106 2233.65,192.712ZM2224.16,199.411C2223.03,200.13 2222.39,200.806 2221.88,201.817C2221.46,202.648 2221.32,203.081 2221.44,204.799C2221.75,209.231 2224.07,211.748 2227.44,211.249C2229.32,210.966 2230.35,209.914 2230.94,207.959C2232.03,204.342 2230.64,200.111 2228.06,199.136C2226.89,198.694 2225.09,198.821 2224.16,199.411Z" style="fill:rgb(212,0,0);fill-rule:nonzero;"/>
            </g>
        </g>
    </g>
</svg>
