<?xml version="1.0" encoding="UTF-8" standalone="no"?>
<!DOCTYPE svg PUBLIC "-//W3C//DTD SVG 1.1//EN" "http://www.w3.org/Graphics/SVG/1.1/DTD/svg11.dtd">
<svg width="100%" height="100%" viewBox="0 0 182 253" version="1.1" xmlns="http://www.w3.org/2000/svg" xmlns:xlink="http://www.w3.org/1999/xlink" xml:space="preserve" xmlns:serif="http://www.serif.com/" style="fill-rule:evenodd;clip-rule:evenodd;">
    <g transform="matrix(1,0,0,1,-1730,-315)">
        <g transform="matrix(1,0,0,1,-328,1179.11)">
            <g id="_9_hearts" serif:id="9_hearts" transform="matrix(0.995538,0,0,0.996801,-110.919,-13.1813)">
                <g id="_5D" serif:id="5D" transform="matrix(1,0,0,1,1972.58,-1147.42)">
                    <path id="rect10210-5-4" d="M386.929,304.79C386.929,300.06 383.084,296.22 378.349,296.22L216.927,296.22C212.191,296.22 208.346,300.06 208.346,304.79L208.346,537.1C208.346,541.829 212.191,545.669 216.927,545.669L378.349,545.669C383.084,545.669 386.929,541.829 386.929,537.1L386.929,304.79Z" style="fill:white;stroke:black;stroke-width:0.8px;"/>
                </g>
                <g id="path10240-7-9" transform="matrix(1,0,0,1,2271.02,-683.124)">
                    <path d="M-42.213,-50.607C-42.213,-50.607 -45.946,-56.732 -50.982,-63.932C-54.351,-68.751 -57.044,-73.969 -57.294,-78.463C-57.582,-83.597 -54.863,-88.747 -49.941,-88.997C-45.022,-89.246 -43.026,-85.038 -42.213,-81.569C-41.4,-85.038 -39.404,-89.246 -34.485,-88.997C-29.563,-88.747 -26.845,-83.597 -27.132,-78.463C-27.382,-73.969 -30.076,-68.751 -33.444,-63.932C-38.48,-56.732 -42.213,-50.607 -42.213,-50.607Z" style="fill:rgb(212,0,0);fill-rule:nonzero;"/>
                </g>
                <g id="path10242-3-8" transform="matrix(1,0,0,1,2271.02,-683.124)">
                    <path d="M-76.318,-112.097C-76.318,-112.099 -78.097,-114.649 -80.498,-117.649C-82.104,-119.657 -83.388,-121.831 -83.508,-123.703C-83.645,-125.843 -82.348,-127.989 -80.002,-128.093C-77.657,-128.197 -76.705,-126.443 -76.318,-124.998C-75.93,-126.443 -74.978,-128.197 -72.633,-128.093C-70.287,-127.989 -68.99,-125.843 -69.127,-123.703C-69.247,-121.831 -70.531,-119.657 -72.137,-117.649C-74.538,-114.649 -76.316,-112.099 -76.318,-112.097Z" style="fill:rgb(212,0,0);fill-rule:nonzero;"/>
                </g>
                <g id="path10244-4-5" transform="matrix(1,0,0,1,2271.02,-683.124)">
                    <path d="M74.718,25.395C74.718,25.395 72.938,27.947 70.538,30.947C68.931,32.955 67.647,35.129 67.528,37.001C67.391,39.14 68.687,41.286 71.034,41.39C73.379,41.494 74.331,39.741 74.718,38.295C75.106,39.741 76.058,41.494 78.403,41.39C80.749,41.286 82.045,39.14 81.908,37.001C81.789,35.129 80.505,32.955 78.899,30.947C76.498,27.947 74.718,25.395 74.718,25.395Z" style="fill:rgb(212,0,0);fill-rule:nonzero;"/>
                </g>
                <g id="path10250-9-0" transform="matrix(1,0,0,1,2271.02,-683.124)">
                    <path d="M-42.213,-103.52C-42.213,-103.52 -45.946,-109.644 -50.982,-116.845C-54.351,-121.663 -57.044,-126.881 -57.294,-131.375C-57.582,-136.509 -54.863,-141.659 -49.941,-141.909C-45.022,-142.159 -43.026,-137.951 -42.213,-134.481C-41.4,-137.951 -39.404,-142.159 -34.485,-141.909C-29.563,-141.659 -26.845,-136.509 -27.132,-131.375C-27.382,-126.881 -30.076,-121.663 -33.444,-116.845C-38.48,-109.644 -42.213,-103.52 -42.213,-103.52Z" style="fill:rgb(212,0,0);fill-rule:nonzero;"/>
                </g>
                <g id="path10254-7-3" transform="matrix(1,0,0,1,2271.02,-683.124)">
                    <path d="M40.613,-50.607C40.613,-50.607 36.88,-56.732 31.844,-63.932C28.476,-68.751 25.782,-73.969 25.532,-78.463C25.245,-83.597 27.963,-88.747 32.885,-88.997C37.804,-89.246 39.8,-85.038 40.613,-81.569C41.426,-85.038 43.422,-89.246 48.341,-88.997C53.263,-88.747 55.982,-83.597 55.694,-78.463C55.444,-73.969 52.751,-68.751 49.382,-63.932C44.346,-56.732 40.613,-50.607 40.613,-50.607Z" style="fill:rgb(212,0,0);fill-rule:nonzero;"/>
                </g>
                <g id="path10256-4-7" transform="matrix(1,0,0,1,2271.02,-683.124)">
                    <path d="M40.613,-103.52C40.613,-103.52 36.88,-109.644 31.844,-116.845C28.476,-121.663 25.782,-126.881 25.532,-131.375C25.245,-136.509 27.963,-141.659 32.885,-141.909C37.804,-142.159 39.8,-137.951 40.613,-134.481C41.426,-137.951 43.422,-142.159 48.341,-141.909C53.263,-141.659 55.982,-136.509 55.694,-131.375C55.444,-126.881 52.751,-121.663 49.382,-116.845C44.346,-109.644 40.613,-103.52 40.613,-103.52Z" style="fill:rgb(212,0,0);fill-rule:nonzero;"/>
                </g>
                <g id="path10258-5-9" transform="matrix(1,0,0,1,2271.02,-683.124)">
                    <path d="M-0.8,-24.151C-0.8,-24.151 -4.533,-30.276 -9.569,-37.476C-12.938,-42.295 -15.631,-47.512 -15.881,-52.007C-16.168,-57.141 -13.45,-62.291 -8.528,-62.541C-3.609,-62.79 -1.613,-58.582 -0.8,-55.113C0.013,-58.582 2.009,-62.79 6.928,-62.541C11.85,-62.291 14.568,-57.141 14.281,-52.007C14.031,-47.512 11.338,-42.295 7.969,-37.476C2.933,-30.276 -0.8,-24.151 -0.8,-24.151Z" style="fill:rgb(212,0,0);fill-rule:nonzero;"/>
                </g>
                <g id="path10266-8-9" transform="matrix(1,0,0,1,2271.02,-683.124)">
                    <path d="M40.613,-36.095C40.613,-36.095 36.88,-29.971 31.844,-22.77C28.476,-17.951 25.782,-12.734 25.532,-8.24C25.245,-3.106 27.963,2.045 32.885,2.294C37.804,2.544 39.8,-1.664 40.613,-5.133C41.426,-1.664 43.422,2.544 48.341,2.294C53.263,2.045 55.982,-3.106 55.694,-8.24C55.444,-12.734 52.751,-17.951 49.382,-22.77C44.346,-29.971 40.613,-36.095 40.613,-36.095Z" style="fill:rgb(212,0,0);fill-rule:nonzero;"/>
                </g>
                <g id="path10268-2-7" transform="matrix(1,0,0,1,2271.02,-683.124)">
                    <path d="M-42.213,-36.095C-42.213,-36.095 -45.946,-29.971 -50.982,-22.77C-54.351,-17.951 -57.044,-12.734 -57.294,-8.24C-57.582,-3.106 -54.863,2.045 -49.941,2.294C-45.022,2.544 -43.026,-1.664 -42.213,-5.133C-41.4,-1.664 -39.404,2.544 -34.485,2.294C-29.563,2.045 -26.845,-3.106 -27.132,-8.24C-27.382,-12.734 -30.076,-17.951 -33.444,-22.77C-38.48,-29.971 -42.213,-36.095 -42.213,-36.095Z" style="fill:rgb(212,0,0);fill-rule:nonzero;"/>
                </g>
                <g id="path10270-1-4" transform="matrix(1,0,0,1,2271.02,-683.124)">
                    <path d="M40.613,16.817C40.613,16.817 36.88,22.942 31.844,30.142C28.476,34.961 25.782,40.179 25.532,44.673C25.245,49.807 27.963,54.957 32.885,55.207C37.804,55.456 39.8,51.248 40.613,47.779C41.426,51.248 43.422,55.456 48.341,55.207C53.263,54.957 55.982,49.807 55.694,44.673C55.444,40.179 52.751,34.961 49.382,30.142C44.346,22.942 40.613,16.817 40.613,16.817Z" style="fill:rgb(212,0,0);fill-rule:nonzero;"/>
                </g>
                <g id="path10272-0-7" transform="matrix(1,0,0,1,2271.02,-683.124)">
                    <path d="M-42.213,16.817C-42.213,16.817 -45.946,22.942 -50.982,30.142C-54.351,34.961 -57.044,40.179 -57.294,44.673C-57.582,49.807 -54.863,54.957 -49.941,55.207C-45.022,55.456 -43.026,51.248 -42.213,47.779C-41.4,51.248 -39.404,55.456 -34.485,55.207C-29.563,54.957 -26.845,49.807 -27.132,44.673C-27.382,40.179 -30.076,34.961 -33.444,30.142C-38.48,22.942 -42.213,16.817 -42.213,16.817Z" style="fill:rgb(212,0,0);fill-rule:nonzero;"/>
                </g>
                <path id="path29-5-8-5-4" d="M2187.32,-818.819L2189.74,-819.585C2190.65,-817.15 2192.49,-816.43 2194.44,-816.586C2197.93,-816.864 2199.09,-820.772 2199.36,-824.225C2197.99,-822.781 2195.95,-822.047 2194.2,-822.122C2188.63,-822.42 2187.2,-826.881 2187.15,-831.55C2187,-835.486 2188.63,-838.337 2191.42,-839.647C2192.9,-840.31 2196.28,-840.31 2197.77,-839.524C2201.19,-837.723 2202.45,-834.61 2202.22,-827.179C2202.22,-821.066 2200.93,-813.946 2194.37,-813.791C2190.59,-813.267 2187.71,-816.213 2187.32,-818.819ZM2196.81,-825.518C2197.95,-826.238 2198.59,-826.913 2199.1,-827.924C2199.51,-828.755 2199.66,-829.188 2199.54,-830.906C2199.23,-835.338 2196.91,-837.855 2193.53,-837.356C2191.65,-837.073 2190.63,-836.021 2190.03,-834.066C2188.95,-830.449 2190.33,-826.218 2192.92,-825.243C2194.08,-824.801 2195.88,-824.928 2196.81,-825.518Z" style="fill:rgb(212,0,0);fill-rule:nonzero;"/>
                <path id="path29-6-2-3-6-6" d="M2353.11,-634.132L2350.69,-633.366C2349.78,-635.801 2347.94,-636.521 2345.99,-636.365C2342.5,-636.087 2341.34,-632.179 2341.07,-628.726C2342.44,-630.17 2344.48,-630.904 2346.22,-630.829C2351.8,-630.531 2353.22,-626.07 2353.28,-621.402C2353.43,-617.465 2351.8,-614.614 2349.01,-613.304C2347.53,-612.641 2344.14,-612.641 2342.66,-613.427C2339.24,-615.229 2337.98,-618.341 2338.2,-625.772C2338.2,-631.885 2339.5,-639.005 2346.06,-639.16C2349.84,-639.684 2352.72,-636.738 2353.11,-634.132ZM2343.62,-627.433C2342.48,-626.714 2341.84,-626.038 2341.33,-625.027C2340.92,-624.196 2340.77,-623.763 2340.89,-622.045C2341.2,-617.613 2343.52,-615.097 2346.89,-615.595C2348.78,-615.878 2349.8,-616.93 2350.39,-618.885C2351.48,-622.503 2350.1,-626.733 2347.51,-627.708C2346.35,-628.15 2344.55,-628.023 2343.62,-627.433Z" style="fill:rgb(212,0,0);fill-rule:nonzero;"/>
            </g>
        </g>
    </g>
</svg>
