<?xml version="1.0" encoding="UTF-8" standalone="no"?>
<!DOCTYPE svg PUBLIC "-//W3C//DTD SVG 1.1//EN" "http://www.w3.org/Graphics/SVG/1.1/DTD/svg11.dtd">
<svg width="100%" height="100%" viewBox="0 0 182 253" version="1.1" xmlns="http://www.w3.org/2000/svg" xmlns:xlink="http://www.w3.org/1999/xlink" xml:space="preserve" xmlns:serif="http://www.serif.com/" style="fill-rule:evenodd;clip-rule:evenodd;">
    <g transform="matrix(1,0,0,1,-1730,-597)">
        <g transform="matrix(1,0,0,1,-328,1179.11)">
            <g id="_9_spades" serif:id="9_spades" transform="matrix(0.995538,0,0,0.996801,-276.018,-204.289)">
                <path id="rect7195-8-7" d="M2525.35,-368.557C2525.35,-373.287 2521.5,-377.127 2516.76,-377.127L2355.34,-377.127C2350.61,-377.127 2346.76,-373.287 2346.76,-368.557L2346.76,-136.247C2346.76,-131.518 2350.61,-127.678 2355.34,-127.678L2516.76,-127.678C2521.5,-127.678 2525.35,-131.518 2525.35,-136.247L2525.35,-368.557Z" style="fill:white;stroke:black;stroke-width:0.8px;"/>
                <path id="path7225-5-2" d="M2394.64,-350.971C2387.26,-340.445 2379.36,-334.388 2379.23,-326.176C2379.19,-323.517 2380.62,-318.997 2385.13,-318.132C2388.05,-317.574 2392.07,-319.938 2392.16,-324.742C2392.14,-325.699 2393.17,-325.674 2393.16,-324.363C2393.02,-320.574 2391.82,-316.162 2389.81,-312.571L2399.47,-312.571C2397.46,-316.162 2396.26,-320.574 2396.12,-324.363C2396.11,-325.674 2397.14,-325.699 2397.12,-324.742C2397.21,-319.938 2401.23,-317.574 2404.15,-318.132C2408.66,-318.997 2410.09,-323.517 2410.05,-326.176C2409.92,-334.388 2402.02,-340.445 2394.64,-350.971Z" style="fill-rule:nonzero;"/>
                <path id="path7227-2-8" d="M2360.54,-337.148C2357.09,-332.762 2353.4,-330.238 2353.34,-326.817C2353.32,-325.709 2353.99,-323.826 2356.09,-323.465C2357.46,-323.232 2359.34,-324.218 2359.38,-326.219C2359.37,-326.618 2359.85,-326.608 2359.84,-326.062C2359.78,-324.483 2359.22,-322.644 2358.28,-321.148L2362.8,-321.148C2361.85,-322.644 2361.29,-324.483 2361.23,-326.062C2361.22,-326.608 2361.7,-326.618 2361.7,-326.219C2361.74,-324.218 2363.62,-323.232 2364.98,-323.465C2367.09,-323.826 2367.76,-325.709 2367.74,-326.817C2367.67,-330.238 2363.99,-332.762 2360.54,-337.148Z" style="fill-rule:nonzero;"/>
                <path id="path7229-4-8" d="M2394.64,-206.746C2387.26,-217.272 2379.36,-223.329 2379.23,-231.541C2379.19,-234.2 2380.62,-238.719 2385.13,-239.584C2388.05,-240.143 2392.07,-237.778 2392.16,-232.974C2392.14,-232.018 2393.17,-232.043 2393.16,-233.353C2393.02,-237.143 2391.82,-241.555 2389.81,-245.146L2399.47,-245.146C2397.46,-241.555 2396.26,-237.143 2396.12,-233.353C2396.11,-232.043 2397.14,-232.018 2397.12,-232.974C2397.21,-237.778 2401.23,-240.143 2404.15,-239.584C2408.66,-238.719 2410.09,-234.2 2410.05,-231.541C2409.92,-223.329 2402.02,-217.272 2394.64,-206.746Z" style="fill-rule:nonzero;"/>
                <path id="path7231-7-8" d="M2511.57,-167.656C2508.12,-172.042 2504.43,-174.566 2504.37,-177.987C2504.35,-179.095 2505.02,-180.978 2507.13,-181.339C2508.49,-181.572 2510.37,-180.586 2510.41,-178.585C2510.4,-178.186 2510.89,-178.197 2510.88,-178.743C2510.82,-180.322 2510.26,-182.16 2509.31,-183.656L2513.83,-183.656C2512.89,-182.16 2512.33,-180.322 2512.26,-178.743C2512.26,-178.197 2512.74,-178.186 2512.73,-178.585C2512.77,-180.586 2514.65,-181.572 2516.02,-181.339C2518.12,-180.978 2518.79,-179.095 2518.77,-177.987C2518.71,-174.566 2515.02,-172.042 2511.57,-167.656Z" style="fill-rule:nonzero;"/>
                <path id="path7233-8-9" d="M2477.47,-350.971C2470.09,-340.445 2462.19,-334.388 2462.06,-326.176C2462.01,-323.517 2463.45,-318.997 2467.95,-318.132C2470.88,-317.574 2474.9,-319.938 2474.98,-324.742C2474.97,-325.699 2476,-325.674 2475.99,-324.363C2475.85,-320.574 2474.65,-316.162 2472.63,-312.571L2482.3,-312.571C2480.29,-316.162 2479.09,-320.574 2478.95,-324.363C2478.94,-325.674 2479.96,-325.699 2479.95,-324.742C2480.04,-319.938 2484.06,-317.574 2486.98,-318.132C2491.48,-318.997 2492.92,-323.517 2492.88,-326.176C2492.74,-334.388 2484.85,-340.445 2477.47,-350.971Z" style="fill-rule:nonzero;"/>
                <path id="path7235-9-4" d="M2394.64,-298.058C2387.26,-287.533 2379.36,-281.475 2379.23,-273.264C2379.19,-270.605 2380.62,-266.085 2385.13,-265.22C2388.05,-264.661 2392.07,-267.026 2392.16,-271.83C2392.14,-272.786 2393.17,-272.761 2393.16,-271.451C2393.02,-267.661 2391.82,-263.25 2389.81,-259.658L2399.47,-259.658C2397.46,-263.25 2396.26,-267.661 2396.12,-271.451C2396.11,-272.761 2397.14,-272.786 2397.12,-271.83C2397.21,-267.026 2401.23,-264.661 2404.15,-265.22C2408.66,-266.085 2410.09,-270.605 2410.05,-273.264C2409.92,-281.475 2402.02,-287.533 2394.64,-298.058Z" style="fill-rule:nonzero;"/>
                <path id="path7241-7-2" d="M2477.47,-298.058C2470.09,-287.533 2462.19,-281.475 2462.06,-273.264C2462.01,-270.605 2463.45,-266.085 2467.95,-265.22C2470.88,-264.661 2474.9,-267.026 2474.98,-271.83C2474.97,-272.786 2476,-272.761 2475.99,-271.451C2475.85,-267.661 2474.65,-263.25 2472.63,-259.658L2482.3,-259.658C2480.29,-263.25 2479.09,-267.661 2478.95,-271.451C2478.94,-272.761 2479.96,-272.786 2479.95,-271.83C2480.04,-267.026 2484.06,-264.661 2486.98,-265.22C2491.48,-266.085 2492.92,-270.605 2492.88,-273.264C2492.74,-281.475 2484.85,-287.533 2477.47,-298.058Z" style="fill-rule:nonzero;"/>
                <path id="path7245-1-6" d="M2394.64,-153.834C2387.26,-164.359 2379.36,-170.416 2379.23,-178.628C2379.19,-181.287 2380.62,-185.807 2385.13,-186.672C2388.05,-187.231 2392.07,-184.866 2392.16,-180.062C2392.14,-179.106 2393.17,-179.131 2393.16,-180.441C2393.02,-184.23 2391.82,-188.642 2389.81,-192.234L2399.47,-192.234C2397.46,-188.642 2396.26,-184.23 2396.12,-180.441C2396.11,-179.131 2397.14,-179.106 2397.12,-180.062C2397.21,-184.866 2401.23,-187.231 2404.15,-186.672C2408.66,-185.807 2410.09,-181.287 2410.05,-178.628C2409.92,-170.416 2402.02,-164.359 2394.64,-153.834Z" style="fill-rule:nonzero;"/>
                <path id="path7247-0-6" d="M2477.47,-153.834C2470.09,-164.359 2462.19,-170.416 2462.06,-178.628C2462.01,-181.287 2463.45,-185.807 2467.95,-186.672C2470.88,-187.231 2474.9,-184.866 2474.98,-180.062C2474.97,-179.106 2476,-179.131 2475.99,-180.441C2475.85,-184.23 2474.65,-188.642 2472.63,-192.234L2482.3,-192.234C2480.29,-188.642 2479.09,-184.23 2478.95,-180.441C2478.94,-179.131 2479.96,-179.106 2479.95,-180.062C2480.04,-184.866 2484.06,-187.231 2486.98,-186.672C2491.48,-185.807 2492.92,-181.287 2492.88,-178.628C2492.74,-170.416 2484.85,-164.359 2477.47,-153.834Z" style="fill-rule:nonzero;"/>
                <path id="path7251-3-6" d="M2477.47,-206.746C2470.09,-217.272 2462.19,-223.329 2462.06,-231.541C2462.01,-234.2 2463.45,-238.719 2467.95,-239.584C2470.88,-240.143 2474.9,-237.778 2474.98,-232.974C2474.97,-232.018 2476,-232.043 2475.99,-233.353C2475.85,-237.143 2474.65,-241.555 2472.63,-245.146L2482.3,-245.146C2480.29,-241.555 2479.09,-237.143 2478.95,-233.353C2478.94,-232.043 2479.96,-232.018 2479.95,-232.974C2480.04,-237.778 2484.06,-240.143 2486.98,-239.584C2491.48,-238.719 2492.92,-234.2 2492.88,-231.541C2492.74,-223.329 2484.85,-217.272 2477.47,-206.746Z" style="fill-rule:nonzero;"/>
                <path id="path7255-7-8" d="M2436.05,-271.602C2428.67,-261.076 2420.78,-255.019 2420.64,-246.807C2420.6,-244.148 2422.04,-239.629 2426.54,-238.764C2429.46,-238.205 2433.49,-240.57 2433.57,-245.374C2433.56,-246.33 2434.58,-246.305 2434.57,-244.995C2434.43,-241.205 2433.24,-236.793 2431.22,-233.202L2440.89,-233.202C2438.87,-236.793 2437.67,-241.205 2437.53,-244.995C2437.53,-246.305 2438.55,-246.33 2438.54,-245.374C2438.62,-240.57 2442.64,-238.205 2445.57,-238.764C2450.07,-239.629 2451.51,-244.148 2451.46,-246.807C2451.33,-255.019 2443.43,-261.076 2436.05,-271.602Z" style="fill-rule:nonzero;"/>
                <path id="path29-33-4-4" d="M2353.16,-344.746L2355.58,-345.511C2356.49,-343.077 2358.33,-342.356 2360.28,-342.512C2363.77,-342.791 2364.93,-346.698 2365.19,-350.152C2363.83,-348.707 2361.79,-347.974 2360.04,-348.048C2354.47,-348.347 2353.04,-352.807 2352.99,-357.476C2352.84,-361.413 2354.47,-364.264 2357.26,-365.573C2358.74,-366.236 2362.12,-366.236 2363.61,-365.451C2367.03,-363.649 2368.29,-360.537 2368.06,-353.106C2368.06,-346.992 2366.76,-339.872 2360.21,-339.717C2356.43,-339.194 2353.55,-342.139 2353.16,-344.746L2353.16,-344.746ZM2362.65,-351.444C2363.78,-352.164 2364.42,-352.84 2364.93,-353.851C2365.35,-354.681 2365.5,-355.115 2365.38,-356.833C2365.07,-361.265 2362.74,-363.781 2359.37,-363.282C2357.49,-363 2356.46,-361.948 2355.87,-359.992C2354.78,-356.375 2356.17,-352.144 2358.76,-351.17C2359.92,-350.728 2361.72,-350.855 2362.65,-351.444L2362.65,-351.444Z" style="fill-rule:nonzero;"/>
                <path id="path29-33-3-8-6" d="M2518.95,-160.059L2516.53,-159.293C2515.62,-161.727 2513.78,-162.448 2511.83,-162.292C2508.34,-162.013 2507.17,-158.106 2506.91,-154.652C2508.27,-156.097 2510.32,-156.83 2512.06,-156.756C2517.64,-156.457 2519.06,-151.997 2519.11,-147.328C2519.27,-143.392 2517.64,-140.54 2514.85,-139.231C2513.37,-138.568 2509.98,-138.568 2508.5,-139.353C2505.08,-141.155 2503.81,-144.267 2504.04,-151.698C2504.04,-157.812 2505.34,-164.932 2511.89,-165.087C2515.68,-165.611 2518.56,-162.665 2518.95,-160.059L2518.95,-160.059ZM2509.46,-153.36C2508.32,-152.64 2507.68,-151.964 2507.17,-150.954C2506.76,-150.123 2506.61,-149.689 2506.73,-147.971C2507.04,-143.539 2509.36,-141.023 2512.73,-141.522C2514.61,-141.805 2515.64,-142.856 2516.23,-144.812C2517.32,-148.429 2515.94,-152.66 2513.35,-153.634C2512.19,-154.076 2510.39,-153.95 2509.46,-153.36L2509.46,-153.36Z" style="fill-rule:nonzero;"/>
            </g>
        </g>
    </g>
</svg>
