<?xml version="1.0" encoding="UTF-8" standalone="no"?><!DOCTYPE svg PUBLIC "-//W3C//DTD SVG 1.1//EN" "http://www.w3.org/Graphics/SVG/1.1/DTD/svg11.dtd"><svg width="100%" height="100%" viewBox="0 0 178 249" version="1.1" xmlns="http://www.w3.org/2000/svg" xmlns:xlink="http://www.w3.org/1999/xlink" xml:space="preserve" xmlns:serif="http://www.serif.com/" style="fill-rule:evenodd;clip-rule:evenodd;stroke-linejoin:round;stroke-miterlimit:2;"><rect id="ace-diamonds" x="0" y="0" width="178" height="249" style="fill:none;"/><clipPath id="_clip1"><rect x="0" y="0" width="178" height="249"/></clipPath><g clip-path="url(#_clip1)"><rect x="0" y="-747" width="2314" height="1245" style="fill:#fff;"/><g><path id="path6399-9" d="M13.729,55.891c-1.723,-2.849 -3.536,-5.618 -5.801,-7.984c2.265,-2.365 4.078,-5.135 5.801,-7.984c1.723,2.849 3.536,5.619 5.801,7.984c-2.265,2.366 -4.078,5.135 -5.801,7.984Z" style="fill:#d40000;fill-rule:nonzero;"/><path id="path6403-1" d="M164.272,209.077c-1.723,-2.849 -3.536,-5.618 -5.802,-7.984c2.266,-2.366 4.079,-5.135 5.802,-7.984c1.723,2.849 3.536,5.618 5.801,7.984c-2.265,2.366 -4.078,5.135 -5.801,7.984Z" style="fill:#d40000;fill-rule:nonzero;"/><path id="path6413-1" d="M89,143.662c-4.135,-6.838 -8.486,-13.485 -13.923,-19.162c5.437,-5.677 9.788,-12.323 13.923,-19.162c4.135,6.839 8.486,13.485 13.923,19.162c-5.437,5.677 -9.788,12.324 -13.923,19.162Z" style="fill:#d40000;fill-rule:nonzero;"/><path id="path41-87-9-4-8" d="M5.68,37.42l0,-2.253l2.147,0l4.574,-24.095l2.603,0l5.037,24.095l1.734,0l0,2.253l-5.907,0l0,-2.253l1.594,0l-0.637,-3.693l-5.959,0l-0.46,3.693l1.594,0l0,2.253l-6.32,0Zm10.637,-8.576l-2.591,-12.896l-2.426,12.896l5.017,0Z" style="fill:#d40000;fill-rule:nonzero;"/><path id="path41-8-5-6-1" d="M156.223,211.58l0,2.253l2.147,0l4.573,24.095l2.603,0l5.038,-24.095l1.734,0l0,-2.253l-5.907,0l0,2.253l1.594,0l-0.637,3.693l-5.959,0l-0.461,-3.693l1.595,0l0,-2.253l-6.32,0Zm10.637,8.576l-2.591,12.896l-2.427,-12.896l5.018,0Z" style="fill:#d40000;fill-rule:nonzero;"/></g></g></svg>