<?xml version="1.0" encoding="UTF-8" standalone="no"?><!DOCTYPE svg PUBLIC "-//W3C//DTD SVG 1.1//EN" "http://www.w3.org/Graphics/SVG/1.1/DTD/svg11.dtd"><svg width="100%" height="100%" viewBox="0 0 178 249" version="1.1" xmlns="http://www.w3.org/2000/svg" xmlns:xlink="http://www.w3.org/1999/xlink" xml:space="preserve" xmlns:serif="http://www.serif.com/" style="fill-rule:evenodd;clip-rule:evenodd;stroke-linejoin:round;stroke-miterlimit:2;"><rect id="ace-clubs" x="0" y="0" width="178" height="249" style="fill:none;"/><clipPath id="_clip1"><rect x="0" y="0" width="178" height="249"/></clipPath><g clip-path="url(#_clip1)"><rect x="0" y="0" width="2314" height="1245" style="fill:#fff;"/><g id="ace_clubs"><path id="path147-0-8-1-6-1-1-0-9-1-8" d="M88.997,105.67c-7.829,0.17 -11.34,8.985 -5.542,15.83c0.841,0.998 0.928,1.571 -0.612,0.612c-3.904,-2.61 -11.389,-0.894 -11.772,7.087c-0.474,9.833 13.266,12.666 15.846,2.21c0.136,-1.103 1.032,-1.078 0.816,0.488c-0.235,4.25 -1.562,8.223 -3.387,12.097l9.308,0c-1.825,-3.874 -3.152,-7.847 -3.387,-12.097c-0.217,-1.566 0.68,-1.591 0.816,-0.488c2.58,10.456 16.32,7.623 15.846,-2.21c-0.383,-7.981 -7.868,-9.697 -11.772,-7.087c-1.54,0.959 -1.454,0.386 -0.613,-0.612c5.799,-6.845 2.288,-15.66 -5.541,-15.83c0,0 0,0 -0.008,0l0.002,0Z" style="fill-rule:nonzero;"/><path id="path147-6-9-8-7-0-5-0-8-3" d="M164.273,209.077c3.131,-0.071 4.536,-3.744 2.216,-6.596c-0.336,-0.416 -0.371,-0.655 0.245,-0.255c1.562,1.088 4.556,0.373 4.709,-2.953c0.19,-4.097 -5.306,-5.277 -6.338,-0.921c-0.054,0.46 -0.413,0.45 -0.327,-0.203c0.094,-1.771 0.625,-3.426 1.355,-5.04l-3.723,0c0.73,1.614 1.261,3.269 1.355,5.04c0.087,0.653 -0.272,0.663 -0.327,0.203c-1.031,-4.356 -6.527,-3.176 -6.338,0.921c0.153,3.326 3.147,4.041 4.709,2.953c0.616,-0.4 0.581,-0.161 0.245,0.255c-2.319,2.852 -0.915,6.525 2.216,6.596c0.001,0 0,0 0,0l0.003,0Z" style="fill-rule:nonzero;"/><path id="path41-6-3-5-1" d="M5.68,37.42l0,-2.253l2.147,0l4.574,-24.095l2.603,0l5.037,24.095l1.734,0l0,2.253l-5.907,0l0,-2.253l1.594,0l-0.637,-3.693l-5.959,0l-0.46,3.693l1.594,0l0,2.253l-6.32,0Zm10.637,-8.576l-2.591,-12.896l-2.426,12.896l5.017,0Z" style="fill-rule:nonzero;"/><path id="path41-6-4-0-2-8" d="M156.223,211.58l0,2.253l2.147,0l4.573,24.095l2.603,0l5.038,-24.095l1.734,0l0,-2.253l-5.907,0l0,2.253l1.594,0l-0.637,3.693l-5.959,0l-0.461,-3.693l1.595,0l0,-2.253l-6.32,0Zm10.637,8.576l-2.591,12.896l-2.427,-12.896l5.018,0Z" style="fill-rule:nonzero;"/><path id="path147-6-9-8-7-4-5-6-8-9" d="M13.728,39.923c-3.132,0.071 -4.536,3.744 -2.217,6.596c0.337,0.416 0.371,0.655 -0.245,0.255c-1.561,-1.088 -4.555,-0.373 -4.709,2.953c-0.189,4.097 5.307,5.277 6.339,0.921c0.054,-0.46 0.413,-0.45 0.326,0.203c-0.094,1.771 -0.625,3.426 -1.355,5.04l3.723,0c-0.73,-1.614 -1.26,-3.269 -1.354,-5.04c-0.087,-0.653 0.272,-0.663 0.326,-0.203c1.032,4.356 6.528,3.176 6.339,-0.921c-0.154,-3.326 -3.148,-4.041 -4.709,-2.953c-0.616,0.4 -0.582,0.161 -0.245,-0.255c2.319,-2.852 0.915,-6.525 -2.217,-6.596c-0.001,0 0,0 0,0l-0.002,0Z" style="fill-rule:nonzero;"/></g></g></svg>