<?xml version="1.0" encoding="UTF-8" standalone="no"?><!DOCTYPE svg PUBLIC "-//W3C//DTD SVG 1.1//EN" "http://www.w3.org/Graphics/SVG/1.1/DTD/svg11.dtd"><svg width="100%" height="100%" viewBox="0 0 178 249" version="1.1" xmlns="http://www.w3.org/2000/svg" xmlns:xlink="http://www.w3.org/1999/xlink" xml:space="preserve" xmlns:serif="http://www.serif.com/" style="fill-rule:evenodd;clip-rule:evenodd;stroke-linejoin:round;stroke-miterlimit:2;"><rect id="ace-hearts" x="0" y="0" width="178" height="249" style="fill:none;"/><clipPath id="_clip1"><rect x="0" y="0" width="178" height="249"/></clipPath><g clip-path="url(#_clip1)"><rect x="0" y="-249" width="2314" height="1245" style="fill:#fff;"/><g id="ace_hearts"><g id="_5D" serif:id="5D"></g><path id="path9698-0-0" d="M13.729,55.892c0,0 -1.774,-2.547 -4.167,-5.541c-1.601,-2.004 -2.881,-4.174 -3,-6.043c-0.136,-2.135 1.156,-4.276 3.494,-4.38c2.338,-0.104 3.287,1.646 3.673,3.089c0.386,-1.443 1.335,-3.193 3.672,-3.089c2.339,0.104 3.631,2.245 3.495,4.38c-0.119,1.869 -1.399,4.039 -3,6.043c-2.393,2.994 -4.167,5.541 -4.167,5.541Z" style="fill:#d40000;fill-rule:nonzero;"/><path id="path9700-3-2" d="M164.272,193.109c0,0 -1.774,2.546 -4.167,5.541c-1.601,2.003 -2.881,4.173 -3,6.042c-0.136,2.135 1.155,4.276 3.494,4.38c2.338,0.104 3.286,-1.646 3.673,-3.088c0.386,1.442 1.335,3.192 3.672,3.088c2.339,-0.104 3.631,-2.245 3.494,-4.38c-0.119,-1.869 -1.398,-4.039 -2.999,-6.042c-2.393,-2.995 -4.167,-5.541 -4.167,-5.541Z" style="fill:#d40000;fill-rule:nonzero;"/><path id="path9714-6-6" d="M89,143.662c0,0 -3.721,-6.112 -8.74,-13.299c-3.358,-4.809 -6.042,-10.016 -6.292,-14.501c-0.286,-5.124 2.423,-10.264 7.329,-10.513c4.903,-0.249 6.893,3.95 7.703,7.413c0.81,-3.463 2.8,-7.662 7.703,-7.413c4.906,0.249 7.615,5.389 7.329,10.513c-0.25,4.485 -2.934,9.692 -6.292,14.501c-5.019,7.187 -8.74,13.299 -8.74,13.299Z" style="fill:#d40000;fill-rule:nonzero;"/><path id="path41-87-8-3-9" d="M5.68,37.42l0,-2.253l2.147,0l4.574,-24.094l2.603,0l5.037,24.094l1.734,0l0,2.253l-5.907,0l0,-2.253l1.594,0l-0.637,-3.692l-5.959,0l-0.46,3.692l1.594,0l0,2.253l-6.32,0Zm10.637,-8.575l-2.591,-12.896l-2.426,12.896l5.017,0Z" style="fill:#d40000;fill-rule:nonzero;"/><path id="path41-8-5-1-8-7" d="M156.223,211.58l0,2.253l2.147,0l4.573,24.094l2.603,0l5.038,-24.094l1.734,0l0,-2.253l-5.907,0l0,2.253l1.594,0l-0.637,3.692l-5.959,0l-0.461,-3.692l1.595,0l0,-2.253l-6.32,0Zm10.637,8.575l-2.591,12.897l-2.427,-12.897l5.018,0Z" style="fill:#d40000;fill-rule:nonzero;"/></g></g></svg>