<?xml version="1.0" encoding="UTF-8" standalone="no"?>
<!DOCTYPE svg PUBLIC "-//W3C//DTD SVG 1.1//EN" "http://www.w3.org/Graphics/SVG/1.1/DTD/svg11.dtd">
<svg width="100%" height="100%" viewBox="0 0 183 253" version="1.1" xmlns="http://www.w3.org/2000/svg" xmlns:xlink="http://www.w3.org/1999/xlink" xml:space="preserve" xmlns:serif="http://www.serif.com/" style="fill-rule:evenodd;clip-rule:evenodd;">
    <g transform="matrix(1,0,0,1,-45,-315)">
        <g transform="matrix(1,0,0,1,-328,1179.11)">
            <g id="ace_hearts" transform="matrix(0.995538,0,0,0.996801,25.6716,-13.1813)">
                <g id="_5D" serif:id="5D" transform="matrix(1,0,0,1,143.162,-1147.42)">
                    <path id="rect9666-2-2" d="M386.929,304.79C386.929,300.06 383.084,296.22 378.349,296.22L216.927,296.22C212.191,296.22 208.346,300.06 208.346,304.79L208.346,537.1C208.346,541.829 212.191,545.669 216.927,545.669L378.349,545.669C383.084,545.669 386.929,541.829 386.929,537.1L386.929,304.79Z" style="fill:white;stroke:black;stroke-width:0.8px;"/>
                </g>
                <g id="path9698-0-0" transform="matrix(1,0,0,1,441.6,-683.124)">
                    <path d="M-76.318,-112.097C-76.318,-112.097 -78.097,-114.649 -80.498,-117.649C-82.104,-119.657 -83.388,-121.831 -83.508,-123.703C-83.645,-125.843 -82.348,-127.989 -80.002,-128.093C-77.657,-128.197 -76.705,-126.443 -76.318,-124.998C-75.93,-126.443 -74.978,-128.197 -72.633,-128.093C-70.287,-127.989 -68.99,-125.843 -69.127,-123.703C-69.247,-121.831 -70.531,-119.657 -72.137,-117.649C-74.538,-114.649 -76.318,-112.097 -76.318,-112.097Z" style="fill:rgb(212,0,0);fill-rule:nonzero;"/>
                </g>
                <g id="path9700-3-2" transform="matrix(1,0,0,1,441.6,-683.124)">
                    <path d="M74.718,25.395C74.718,25.395 72.938,27.947 70.538,30.947C68.931,32.955 67.647,35.129 67.528,37.001C67.391,39.14 68.687,41.286 71.034,41.39C73.379,41.494 74.331,39.741 74.718,38.295C75.106,39.741 76.058,41.494 78.403,41.39C80.749,41.286 82.045,39.14 81.908,37.001C81.789,35.129 80.505,32.955 78.899,30.947C76.498,27.947 74.718,25.395 74.718,25.395Z" style="fill:rgb(212,0,0);fill-rule:nonzero;"/>
                </g>
                <g id="path9714-6-6" transform="matrix(1,0,0,1,441.6,-683.124)">
                    <path d="M-0.8,-24.151C-0.8,-24.151 -4.533,-30.276 -9.569,-37.476C-12.938,-42.295 -15.631,-47.512 -15.881,-52.007C-16.168,-57.141 -13.45,-62.291 -8.528,-62.541C-3.609,-62.79 -1.613,-58.582 -0.8,-55.113C0.013,-58.582 2.009,-62.79 6.928,-62.541C11.85,-62.291 14.568,-57.141 14.281,-52.007C14.031,-47.512 11.338,-42.295 7.969,-37.476C2.933,-30.276 -0.8,-24.151 -0.8,-24.151Z" style="fill:rgb(212,0,0);fill-rule:nonzero;"/>
                </g>
                <path id="path41-87-8-3-9" d="M357.208,-813.73L357.208,-815.987L359.362,-815.987L363.95,-840.13L366.561,-840.13L371.616,-815.987L373.355,-815.987L373.355,-813.73L367.428,-813.73L367.428,-815.987L369.028,-815.987L368.389,-819.687L362.41,-819.687L361.948,-815.987L363.548,-815.987L363.548,-813.73L357.208,-813.73ZM367.879,-822.322L365.28,-835.244L362.845,-822.322L367.879,-822.322Z" style="fill:rgb(212,0,0);fill-rule:nonzero;"/>
                <path id="path41-8-5-1-8-7" d="M508.243,-639.221L508.243,-636.964L510.397,-636.964L514.985,-612.821L517.597,-612.821L522.651,-636.964L524.391,-636.964L524.391,-639.221L518.464,-639.221L518.464,-636.964L520.063,-636.964L519.425,-633.264L513.446,-633.264L512.984,-636.964L514.583,-636.964L514.583,-639.221L508.243,-639.221ZM518.915,-630.629L516.315,-617.707L513.881,-630.629L518.915,-630.629Z" style="fill:rgb(212,0,0);fill-rule:nonzero;"/>
            </g>
        </g>
    </g>
</svg>
