<?xml version="1.0" encoding="UTF-8" standalone="no"?>
<!DOCTYPE svg PUBLIC "-//W3C//DTD SVG 1.1//EN" "http://www.w3.org/Graphics/SVG/1.1/DTD/svg11.dtd">
<svg width="100%" height="100%" viewBox="0 0 183 253" version="1.1" xmlns="http://www.w3.org/2000/svg" xmlns:xlink="http://www.w3.org/1999/xlink" xml:space="preserve" xmlns:serif="http://www.serif.com/" style="fill-rule:evenodd;clip-rule:evenodd;">
    <g transform="matrix(1,0,0,1,-45,-597)">
        <g transform="matrix(1,0,0,1,-328,1179.11)">
            <g id="ace_spades" transform="matrix(0.995538,0,0,0.996801,110.713,-204.289)">
                <path id="rect6355-6-85-62-9-7" d="M444.669,-368.557C444.669,-373.287 440.825,-377.127 436.089,-377.127L274.667,-377.127C269.931,-377.127 266.087,-373.287 266.087,-368.557L266.087,-136.247C266.087,-131.518 269.931,-127.678 274.667,-127.678L436.089,-127.678C440.825,-127.678 444.669,-131.518 444.669,-136.247L444.669,-368.557Z" style="fill:white;stroke:black;stroke-width:0.8px;"/>
                <path id="path153-0-1-2-5-5-5-3-4" d="M279.86,-337.148C276.412,-332.762 272.722,-330.238 272.661,-326.817C272.64,-325.709 273.312,-323.826 275.416,-323.465C276.781,-323.232 278.66,-324.218 278.7,-326.219C278.692,-326.618 279.173,-326.608 279.168,-326.062C279.104,-324.483 278.544,-322.644 277.602,-321.148L282.119,-321.148C281.177,-322.644 280.617,-324.483 280.553,-326.062C280.545,-326.608 281.027,-326.618 281.021,-326.219C281.06,-324.218 282.94,-323.232 284.305,-323.465C286.409,-323.826 287.081,-325.709 287.06,-326.817C286.998,-330.238 283.309,-332.762 279.86,-337.148Z" style="fill-rule:nonzero;"/>
                <path id="path153-0-1-2-5-6-5-9-1-9" d="M430.896,-167.656C427.448,-172.042 423.758,-174.566 423.697,-177.987C423.676,-179.095 424.348,-180.978 426.452,-181.339C427.817,-181.572 429.696,-180.586 429.735,-178.585C429.727,-178.186 430.208,-178.197 430.204,-178.743C430.14,-180.322 429.579,-182.16 428.637,-183.656L433.155,-183.656C432.213,-182.16 431.652,-180.322 431.588,-178.743C431.58,-178.197 432.063,-178.186 432.057,-178.585C432.096,-180.586 433.975,-181.572 435.34,-181.339C437.444,-180.978 438.116,-179.095 438.096,-177.987C438.034,-174.566 434.344,-172.042 430.896,-167.656Z" style="fill-rule:nonzero;"/>
                <path id="path153-6-3-1-6-92-7-2-9-8" d="M355.378,-271.602C347.997,-261.076 340.1,-255.019 339.969,-246.807C339.925,-244.148 341.362,-239.629 345.865,-238.764C348.787,-238.205 352.81,-240.57 352.894,-245.374C352.881,-246.33 353.906,-246.305 353.897,-244.995C353.759,-241.205 352.56,-236.793 350.544,-233.202L360.212,-233.202C358.196,-236.793 356.997,-241.205 356.859,-244.995C356.85,-246.305 357.875,-246.33 357.862,-245.374C357.946,-240.57 361.969,-238.205 364.89,-238.764C369.394,-239.629 370.831,-244.148 370.787,-246.807C370.656,-255.019 362.759,-261.076 355.378,-271.602Z" style="fill-rule:nonzero;"/>
                <path id="path41-4-9-2" d="M271.786,-339.656L271.786,-341.914L273.939,-341.914L278.528,-366.056L281.139,-366.056L286.194,-341.914L287.933,-341.914L287.933,-339.656L282.006,-339.656L282.006,-341.914L283.606,-341.914L282.967,-345.613L276.988,-345.613L276.526,-341.914L278.126,-341.914L278.126,-339.656L271.786,-339.656ZM282.457,-348.249L279.858,-361.171L277.423,-348.249L282.457,-348.249Z" style="fill-rule:nonzero;"/>
                <path id="path41-4-2-4-0" d="M422.821,-165.148L422.821,-162.89L424.975,-162.89L429.563,-138.748L432.175,-138.748L437.229,-162.89L438.969,-162.89L438.969,-165.148L433.042,-165.148L433.042,-162.89L434.641,-162.89L434.003,-159.191L428.024,-159.191L427.562,-162.89L429.161,-162.89L429.161,-165.148L422.821,-165.148ZM433.493,-156.555L430.893,-143.633L428.459,-156.555L433.493,-156.555Z" style="fill-rule:nonzero;"/>
            </g>
        </g>
    </g>
</svg>
