<?xml version="1.0" encoding="UTF-8" standalone="no"?>
<!DOCTYPE svg PUBLIC "-//W3C//DTD SVG 1.1//EN" "http://www.w3.org/Graphics/SVG/1.1/DTD/svg11.dtd">
<svg width="100%" height="100%" viewBox="0 0 183 253" version="1.1" xmlns="http://www.w3.org/2000/svg" xmlns:xlink="http://www.w3.org/1999/xlink" xml:space="preserve" xmlns:serif="http://www.serif.com/" style="fill-rule:evenodd;clip-rule:evenodd;">
    <g transform="matrix(1,0,0,1,-45,-878)">
        <g transform="matrix(1,0,0,1,-328,1179.11)">
            <g id="ace_diamonds" transform="matrix(0.995535,0,0,0.996803,6.83776,-274.482)">
                <path id="rect6367-6" d="M549.011,-15.786C549.011,-20.516 545.166,-24.356 540.431,-24.356L379.009,-24.356C374.273,-24.356 370.428,-20.516 370.428,-15.786L370.428,216.523C370.428,221.253 374.273,225.093 379.009,225.093L540.431,225.093C545.166,225.093 549.011,221.253 549.011,216.523L549.011,-15.786Z" style="fill:white;stroke:black;stroke-width:0.8px;"/>
                <path id="path6399-9" d="M384.202,31.623C382.473,28.768 380.655,25.993 378.382,23.623C380.655,21.252 382.473,18.478 384.202,15.623C385.931,18.478 387.75,21.252 390.022,23.623C387.75,25.993 385.931,28.768 384.202,31.623Z" style="fill:rgb(212,0,0);fill-rule:nonzero;"/>
                <path id="path6403-1" d="M535.238,185.114C533.509,182.259 531.69,179.485 529.417,177.114C531.69,174.744 533.509,171.969 535.238,169.114C536.967,171.969 538.785,174.744 541.058,177.114C538.785,179.485 536.967,182.259 535.238,185.114Z" style="fill:rgb(212,0,0);fill-rule:nonzero;"/>
                <path id="path6413-1" d="M459.72,119.568C455.571,112.717 451.206,106.057 445.751,100.368C451.206,94.68 455.571,88.02 459.72,81.168C463.869,88.02 468.234,94.68 473.688,100.368C468.234,106.057 463.869,112.717 459.72,119.568Z" style="fill:rgb(212,0,0);fill-rule:nonzero;"/>
                <path id="path41-87-9-4-8" d="M376.127,13.114L376.127,10.857L378.281,10.857L382.869,-13.286L385.481,-13.286L390.535,10.857L392.275,10.857L392.275,13.114L386.348,13.114L386.348,10.857L387.947,10.857L387.309,7.157L381.33,7.157L380.868,10.857L382.467,10.857L382.467,13.114L376.127,13.114ZM386.799,4.522L384.199,-8.4L381.765,4.522L386.799,4.522Z" style="fill:rgb(212,0,0);fill-rule:nonzero;"/>
                <path id="path41-8-5-6-1" d="M527.163,187.623L527.163,189.88L529.317,189.88L533.905,214.023L536.517,214.023L541.571,189.88L543.31,189.88L543.31,187.623L537.384,187.623L537.384,189.88L538.983,189.88L538.344,193.58L532.365,193.58L531.904,189.88L533.503,189.88L533.503,187.623L527.163,187.623ZM537.834,196.215L535.235,209.137L532.8,196.215L537.834,196.215Z" style="fill:rgb(212,0,0);fill-rule:nonzero;"/>
            </g>
        </g>
    </g>
</svg>
