<?xml version="1.0" encoding="UTF-8" standalone="no"?>
<!DOCTYPE svg PUBLIC "-//W3C//DTD SVG 1.1//EN" "http://www.w3.org/Graphics/SVG/1.1/DTD/svg11.dtd">
<svg width="100%" height="100%" viewBox="0 0 183 253" version="1.1" xmlns="http://www.w3.org/2000/svg" xmlns:xlink="http://www.w3.org/1999/xlink" xml:space="preserve" xmlns:serif="http://www.serif.com/" style="fill-rule:evenodd;clip-rule:evenodd;">
    <g transform="matrix(1,0,0,1,-45,-34)">
        <g transform="matrix(1,0,0,1,-328,1179.11)">
            <g id="ace_clubs" transform="matrix(0.999997,0,0,1,4.78637,-272.411)">
                <path id="rect6355-6-85-9-3-2" d="M548.613,-862.192C548.613,-866.885 544.802,-870.696 540.109,-870.696L379.331,-870.696C374.637,-870.696 370.827,-866.885 370.827,-862.192L370.827,-630.549C370.827,-625.855 374.637,-622.045 379.331,-622.045L540.109,-622.045C544.802,-622.045 548.613,-625.855 548.613,-630.549L548.613,-862.192Z" style="fill:white;stroke:black;stroke-width:0.8px;"/>
                <path id="path147-0-8-1-6-1-1-0-9-1-8" d="M459.716,-765.177C451.897,-765.007 448.39,-756.203 454.182,-749.367C455.022,-748.369 455.108,-747.797 453.57,-748.755C449.671,-751.362 442.195,-749.648 441.812,-741.677C441.339,-731.856 455.062,-729.026 457.639,-739.469C457.775,-740.571 458.67,-740.546 458.454,-738.982C458.219,-734.737 456.894,-730.769 455.071,-726.9L464.368,-726.9C462.545,-730.769 461.22,-734.737 460.985,-738.982C460.769,-740.546 461.664,-740.571 461.8,-739.469C464.377,-729.026 478.1,-731.856 477.627,-741.677C477.244,-749.648 469.768,-751.362 465.869,-748.755C464.331,-747.797 464.417,-748.369 465.257,-749.367C471.049,-756.203 467.542,-765.007 459.723,-765.177C459.723,-765.177 459.723,-765.177 459.715,-765.177L459.716,-765.177Z" style="fill-rule:nonzero;"/>
                <path id="path147-6-9-8-7-0-5-0-8-3" d="M534.902,-661.895C538.03,-661.966 539.432,-665.634 537.116,-668.483C536.78,-668.899 536.745,-669.137 537.36,-668.738C538.92,-667.652 541.911,-668.366 542.064,-671.687C542.253,-675.779 536.764,-676.958 535.733,-672.607C535.679,-672.148 535.32,-672.158 535.407,-672.81C535.501,-674.579 536.031,-676.232 536.76,-677.844L533.042,-677.844C533.77,-676.232 534.301,-674.579 534.395,-672.81C534.481,-672.158 534.123,-672.148 534.069,-672.607C533.038,-676.958 527.549,-675.779 527.738,-671.687C527.891,-668.366 530.881,-667.652 532.441,-668.738C533.056,-669.137 533.022,-668.899 532.686,-668.483C530.369,-665.634 531.772,-661.966 534.9,-661.895C534.9,-661.895 534.9,-661.895 534.9,-661.895L534.902,-661.895Z" style="fill-rule:nonzero;"/>
                <path id="path41-6-3-5-1" d="M376.5,-833.345L376.5,-835.595L378.645,-835.595L383.212,-859.661L385.812,-859.661L390.844,-835.595L392.576,-835.595L392.576,-833.345L386.675,-833.345L386.675,-835.595L388.268,-835.595L387.632,-839.283L381.68,-839.283L381.22,-835.595L382.812,-835.595L382.812,-833.345L376.5,-833.345ZM387.124,-841.91L384.536,-854.791L382.113,-841.91L387.124,-841.91Z" style="fill-rule:nonzero;"/>
                <path id="path41-6-4-0-2-8" d="M526.862,-659.395L526.862,-657.145L529.006,-657.145L533.574,-633.079L536.174,-633.079L541.206,-657.145L542.937,-657.145L542.937,-659.395L537.037,-659.395L537.037,-657.145L538.629,-657.145L537.994,-653.457L532.041,-653.457L531.581,-657.145L533.174,-657.145L533.174,-659.395L526.862,-659.395ZM537.486,-650.83L534.898,-637.949L532.474,-650.83L537.486,-650.83Z" style="fill-rule:nonzero;"/>
                <path id="path147-6-9-8-7-4-5-6-8-9" d="M384.538,-830.845C381.41,-830.774 380.008,-827.106 382.324,-824.257C382.66,-823.842 382.695,-823.603 382.079,-824.002C380.52,-825.089 377.529,-824.374 377.376,-821.053C377.187,-816.961 382.676,-815.782 383.707,-820.133C383.761,-820.592 384.12,-820.582 384.033,-819.93C383.939,-818.161 383.409,-816.508 382.68,-814.896L386.398,-814.896C385.669,-816.508 385.139,-818.161 385.045,-819.93C384.959,-820.582 385.317,-820.592 385.371,-820.133C386.402,-815.782 391.891,-816.961 391.702,-821.053C391.549,-824.374 388.558,-825.089 386.999,-824.002C386.384,-823.603 386.418,-823.842 386.754,-824.257C389.071,-827.106 387.668,-830.774 384.54,-830.845C384.54,-830.845 384.54,-830.845 384.54,-830.845L384.538,-830.845Z" style="fill-rule:nonzero;"/>
            </g>
        </g>
    </g>
</svg>
