<?xml version="1.0" encoding="UTF-8" standalone="no"?>
<!DOCTYPE svg PUBLIC "-//W3C//DTD SVG 1.1//EN" "http://www.w3.org/Graphics/SVG/1.1/DTD/svg11.dtd">
<svg width="100%" height="100%" viewBox="0 0 182 253" version="1.1" xmlns="http://www.w3.org/2000/svg" xmlns:xlink="http://www.w3.org/1999/xlink" xml:space="preserve" xmlns:serif="http://www.serif.com/" style="fill-rule:evenodd;clip-rule:evenodd;stroke-linecap:round;stroke-linejoin:round;stroke-miterlimit:1.5;">
    <g transform="matrix(1,0,0,1,-677,-1163)">
        <g transform="matrix(1,0,0,1,-328,1179.11)">
            <g id="back" transform="matrix(2.22129,0,0,2.22129,-1268.75,-1950.92)">
                <g transform="matrix(1.21949,0,0,1,-176.049,3.0866e-11)">
                    <path d="M1050.25,875.929C1050.25,874.909 1049.92,873.931 1049.33,873.211C1048.74,872.49 1047.93,872.085 1047.1,872.085C1036.01,872.085 998.861,872.085 987.771,872.085C986.935,872.085 986.133,872.49 985.542,873.211C984.951,873.931 984.618,874.909 984.618,875.929C984.618,893.133 984.618,962.976 984.618,980.181C984.618,981.2 984.951,982.178 985.542,982.899C986.133,983.62 986.935,984.025 987.771,984.025C998.861,984.025 1036.01,984.025 1047.1,984.025C1047.93,984.025 1048.74,983.62 1049.33,982.899C1049.92,982.178 1050.25,981.2 1050.25,980.181C1050.25,962.976 1050.25,893.133 1050.25,875.929Z" style="fill:white;stroke:black;stroke-width:0.32px;"/>
                </g>
                <rect x="1032.68" y="880.033" width="64.03" height="96.044" style="fill:white;"/>
                <clipPath id="_clip1">
                    <rect x="1032.68" y="880.033" width="64.03" height="96.044"/>
                </clipPath>
                <g clip-path="url(#_clip1)">
                    <g transform="matrix(1,0,0,1,-1.47263,1.5)">
                        <path d="M1104.72,896.04L1024.68,976.077" style="fill:none;stroke:black;stroke-width:0.36px;stroke-linejoin:miter;"/>
                        <g transform="matrix(1,0,0,1,0,16.0074)">
                            <path d="M1104.72,896.04L1024.68,976.077" style="fill:none;stroke:black;stroke-width:0.36px;stroke-linejoin:miter;"/>
                        </g>
                        <g transform="matrix(1,0,0,1,0,32.0148)">
                            <path d="M1104.72,896.04L1024.68,976.077" style="fill:none;stroke:black;stroke-width:0.36px;stroke-linejoin:miter;"/>
                        </g>
                        <g transform="matrix(1,0,0,1,0,48.0221)">
                            <path d="M1104.72,896.04L1024.68,976.077" style="fill:none;stroke:black;stroke-width:0.36px;stroke-linejoin:miter;"/>
                        </g>
                        <g transform="matrix(1,0,0,1,0,64.0295)">
                            <path d="M1104.72,896.04L1024.68,976.077" style="fill:none;stroke:black;stroke-width:0.36px;stroke-linejoin:miter;"/>
                        </g>
                        <g transform="matrix(1,0,0,1,0,-16.0074)">
                            <path d="M1104.72,896.04L1024.68,976.077" style="fill:none;stroke:black;stroke-width:0.36px;stroke-linejoin:miter;"/>
                        </g>
                        <g transform="matrix(1,0,0,1,0,-32.0148)">
                            <path d="M1104.72,896.04L1024.68,976.077" style="fill:none;stroke:black;stroke-width:0.36px;stroke-linejoin:miter;"/>
                        </g>
                        <g transform="matrix(1,0,0,1,0,-48.0221)">
                            <path d="M1104.72,896.04L1024.68,976.077" style="fill:none;stroke:black;stroke-width:0.36px;stroke-linejoin:miter;"/>
                        </g>
                        <g transform="matrix(1,0,0,1,0,-64.0295)">
                            <path d="M1104.72,896.04L1024.68,976.077" style="fill:none;stroke:black;stroke-width:0.36px;stroke-linejoin:miter;"/>
                        </g>
                        <g transform="matrix(1,0,0,1,0,-80.0369)">
                            <path d="M1104.72,896.04L1024.68,976.077" style="fill:none;stroke:black;stroke-width:0.36px;stroke-linejoin:miter;"/>
                        </g>
                    </g>
                    <g transform="matrix(1,0,0,1,-1.47263,-1.54529)">
                        <path d="M1104.72,896.04L1024.68,976.077" style="fill:none;stroke:black;stroke-width:0.36px;stroke-linejoin:miter;"/>
                        <g transform="matrix(1,0,0,1,0,16.0074)">
                            <path d="M1104.72,896.04L1024.68,976.077" style="fill:none;stroke:black;stroke-width:0.36px;stroke-linejoin:miter;"/>
                        </g>
                        <g transform="matrix(1,0,0,1,0,32.0148)">
                            <path d="M1104.72,896.04L1024.68,976.077" style="fill:none;stroke:black;stroke-width:0.36px;stroke-linejoin:miter;"/>
                        </g>
                        <g transform="matrix(1,0,0,1,0,48.0221)">
                            <path d="M1104.72,896.04L1024.68,976.077" style="fill:none;stroke:black;stroke-width:0.36px;stroke-linejoin:miter;"/>
                        </g>
                        <g transform="matrix(1,0,0,1,0,64.0295)">
                            <path d="M1104.72,896.04L1024.68,976.077" style="fill:none;stroke:black;stroke-width:0.36px;stroke-linejoin:miter;"/>
                        </g>
                        <g transform="matrix(1,0,0,1,0,-16.0074)">
                            <path d="M1104.72,896.04L1024.68,976.077" style="fill:none;stroke:black;stroke-width:0.36px;stroke-linejoin:miter;"/>
                        </g>
                        <g transform="matrix(1,0,0,1,0,-32.0148)">
                            <path d="M1104.72,896.04L1024.68,976.077" style="fill:none;stroke:black;stroke-width:0.36px;stroke-linejoin:miter;"/>
                        </g>
                        <g transform="matrix(1,0,0,1,0,-48.0221)">
                            <path d="M1104.72,896.04L1024.68,976.077" style="fill:none;stroke:black;stroke-width:0.36px;stroke-linejoin:miter;"/>
                        </g>
                        <g transform="matrix(1,0,0,1,0,-64.0295)">
                            <path d="M1104.72,896.04L1024.68,976.077" style="fill:none;stroke:black;stroke-width:0.36px;stroke-linejoin:miter;"/>
                        </g>
                        <g transform="matrix(1,0,0,1,0,-80.0369)">
                            <path d="M1104.72,896.04L1024.68,976.077" style="fill:none;stroke:black;stroke-width:0.36px;stroke-linejoin:miter;"/>
                        </g>
                    </g>
                    <g transform="matrix(1,0,0,1,-1.47263,4.5)">
                        <path d="M1104.72,896.04L1024.68,976.077" style="fill:none;stroke:black;stroke-width:0.36px;stroke-linejoin:miter;"/>
                        <g transform="matrix(1,0,0,1,0,16.0074)">
                            <path d="M1104.72,896.04L1024.68,976.077" style="fill:none;stroke:black;stroke-width:0.36px;stroke-linejoin:miter;"/>
                        </g>
                        <g transform="matrix(1,0,0,1,0,32.0148)">
                            <path d="M1104.72,896.04L1024.68,976.077" style="fill:none;stroke:black;stroke-width:0.36px;stroke-linejoin:miter;"/>
                        </g>
                        <g transform="matrix(1,0,0,1,0,48.0221)">
                            <path d="M1104.72,896.04L1024.68,976.077" style="fill:none;stroke:black;stroke-width:0.36px;stroke-linejoin:miter;"/>
                        </g>
                        <g transform="matrix(1,0,0,1,0,64.0295)">
                            <path d="M1104.72,896.04L1024.68,976.077" style="fill:none;stroke:black;stroke-width:0.36px;stroke-linejoin:miter;"/>
                        </g>
                        <g transform="matrix(1,0,0,1,0,-16.0074)">
                            <path d="M1104.72,896.04L1024.68,976.077" style="fill:none;stroke:black;stroke-width:0.36px;stroke-linejoin:miter;"/>
                        </g>
                        <g transform="matrix(1,0,0,1,0,-32.0148)">
                            <path d="M1104.72,896.04L1024.68,976.077" style="fill:none;stroke:black;stroke-width:0.36px;stroke-linejoin:miter;"/>
                        </g>
                        <g transform="matrix(1,0,0,1,0,-48.0221)">
                            <path d="M1104.72,896.04L1024.68,976.077" style="fill:none;stroke:black;stroke-width:0.36px;stroke-linejoin:miter;"/>
                        </g>
                        <g transform="matrix(1,0,0,1,0,-64.0295)">
                            <path d="M1104.72,896.04L1024.68,976.077" style="fill:none;stroke:black;stroke-width:0.36px;stroke-linejoin:miter;"/>
                        </g>
                        <g transform="matrix(1,0,0,1,0,-80.0369)">
                            <path d="M1104.72,896.04L1024.68,976.077" style="fill:none;stroke:black;stroke-width:0.36px;stroke-linejoin:miter;"/>
                        </g>
                    </g>
                    <g transform="matrix(1,0,0,1,-1.47263,-4.5)">
                        <g transform="matrix(-1,0,0,1,2129.4,0)">
                            <path d="M1104.72,896.04L1024.68,976.077" style="fill:none;stroke:black;stroke-width:0.36px;stroke-linejoin:miter;"/>
                        </g>
                        <g transform="matrix(-1,0,0,1,2129.4,16.0074)">
                            <path d="M1104.72,896.04L1024.68,976.077" style="fill:none;stroke:black;stroke-width:0.36px;stroke-linejoin:miter;"/>
                        </g>
                        <g transform="matrix(-1,0,0,1,2129.4,32.0148)">
                            <path d="M1104.72,896.04L1024.68,976.077" style="fill:none;stroke:black;stroke-width:0.36px;stroke-linejoin:miter;"/>
                        </g>
                        <g transform="matrix(-1,0,0,1,2129.4,48.0221)">
                            <path d="M1104.72,896.04L1024.68,976.077" style="fill:none;stroke:black;stroke-width:0.36px;stroke-linejoin:miter;"/>
                        </g>
                        <g transform="matrix(-1,0,0,1,2129.4,64.0295)">
                            <path d="M1104.72,896.04L1024.68,976.077" style="fill:none;stroke:black;stroke-width:0.36px;stroke-linejoin:miter;"/>
                        </g>
                        <g transform="matrix(-1,0,0,1,2129.4,-16.0074)">
                            <path d="M1104.72,896.04L1024.68,976.077" style="fill:none;stroke:black;stroke-width:0.36px;stroke-linejoin:miter;"/>
                        </g>
                        <g transform="matrix(-1,0,0,1,2129.4,-32.0148)">
                            <path d="M1104.72,896.04L1024.68,976.077" style="fill:none;stroke:black;stroke-width:0.36px;stroke-linejoin:miter;"/>
                        </g>
                        <g transform="matrix(-1,0,0,1,2129.4,-48.0221)">
                            <path d="M1104.72,896.04L1024.68,976.077" style="fill:none;stroke:black;stroke-width:0.36px;stroke-linejoin:miter;"/>
                        </g>
                        <g transform="matrix(-1,0,0,1,2129.4,-64.0295)">
                            <path d="M1104.72,896.04L1024.68,976.077" style="fill:none;stroke:black;stroke-width:0.36px;stroke-linejoin:miter;"/>
                        </g>
                        <g transform="matrix(-1,0,0,1,2129.4,-80.0369)">
                            <path d="M1104.72,896.04L1024.68,976.077" style="fill:none;stroke:black;stroke-width:0.36px;stroke-linejoin:miter;"/>
                        </g>
                    </g>
                    <g transform="matrix(1,0,0,1,-1.47263,-1.54529)">
                        <g transform="matrix(-1,0,0,1,2129.4,0)">
                            <path d="M1104.72,896.04L1024.68,976.077" style="fill:none;stroke:black;stroke-width:0.36px;stroke-linejoin:miter;"/>
                        </g>
                        <g transform="matrix(-1,0,0,1,2129.4,16.0074)">
                            <path d="M1104.72,896.04L1024.68,976.077" style="fill:none;stroke:black;stroke-width:0.36px;stroke-linejoin:miter;"/>
                        </g>
                        <g transform="matrix(-1,0,0,1,2129.4,32.0148)">
                            <path d="M1104.72,896.04L1024.68,976.077" style="fill:none;stroke:black;stroke-width:0.36px;stroke-linejoin:miter;"/>
                        </g>
                        <g transform="matrix(-1,0,0,1,2129.4,48.0221)">
                            <path d="M1104.72,896.04L1024.68,976.077" style="fill:none;stroke:black;stroke-width:0.36px;stroke-linejoin:miter;"/>
                        </g>
                        <g transform="matrix(-1,0,0,1,2129.4,64.0295)">
                            <path d="M1104.72,896.04L1024.68,976.077" style="fill:none;stroke:black;stroke-width:0.36px;stroke-linejoin:miter;"/>
                        </g>
                        <g transform="matrix(-1,0,0,1,2129.4,-16.0074)">
                            <path d="M1104.72,896.04L1024.68,976.077" style="fill:none;stroke:black;stroke-width:0.36px;stroke-linejoin:miter;"/>
                        </g>
                        <g transform="matrix(-1,0,0,1,2129.4,-32.0148)">
                            <path d="M1104.72,896.04L1024.68,976.077" style="fill:none;stroke:black;stroke-width:0.36px;stroke-linejoin:miter;"/>
                        </g>
                        <g transform="matrix(-1,0,0,1,2129.4,-48.0221)">
                            <path d="M1104.72,896.04L1024.68,976.077" style="fill:none;stroke:black;stroke-width:0.36px;stroke-linejoin:miter;"/>
                        </g>
                        <g transform="matrix(-1,0,0,1,2129.4,-64.0295)">
                            <path d="M1104.72,896.04L1024.68,976.077" style="fill:none;stroke:black;stroke-width:0.36px;stroke-linejoin:miter;"/>
                        </g>
                        <g transform="matrix(-1,0,0,1,2129.4,-80.0369)">
                            <path d="M1104.72,896.04L1024.68,976.077" style="fill:none;stroke:black;stroke-width:0.36px;stroke-linejoin:miter;"/>
                        </g>
                    </g>
                    <g transform="matrix(1,0,0,1,-1.47263,1.5)">
                        <g transform="matrix(-1,0,0,1,2129.4,0)">
                            <path d="M1104.72,896.04L1024.68,976.077" style="fill:none;stroke:black;stroke-width:0.36px;stroke-linejoin:miter;"/>
                        </g>
                        <g transform="matrix(-1,0,0,1,2129.4,16.0074)">
                            <path d="M1104.72,896.04L1024.68,976.077" style="fill:none;stroke:black;stroke-width:0.36px;stroke-linejoin:miter;"/>
                        </g>
                        <g transform="matrix(-1,0,0,1,2129.4,32.0148)">
                            <path d="M1104.72,896.04L1024.68,976.077" style="fill:none;stroke:black;stroke-width:0.36px;stroke-linejoin:miter;"/>
                        </g>
                        <g transform="matrix(-1,0,0,1,2129.4,48.0221)">
                            <path d="M1104.72,896.04L1024.68,976.077" style="fill:none;stroke:black;stroke-width:0.36px;stroke-linejoin:miter;"/>
                        </g>
                        <g transform="matrix(-1,0,0,1,2129.4,64.0295)">
                            <path d="M1104.72,896.04L1024.68,976.077" style="fill:none;stroke:black;stroke-width:0.36px;stroke-linejoin:miter;"/>
                        </g>
                        <g transform="matrix(-1,0,0,1,2129.4,-16.0074)">
                            <path d="M1104.72,896.04L1024.68,976.077" style="fill:none;stroke:black;stroke-width:0.36px;stroke-linejoin:miter;"/>
                        </g>
                        <g transform="matrix(-1,0,0,1,2129.4,-32.0148)">
                            <path d="M1104.72,896.04L1024.68,976.077" style="fill:none;stroke:black;stroke-width:0.36px;stroke-linejoin:miter;"/>
                        </g>
                        <g transform="matrix(-1,0,0,1,2129.4,-48.0221)">
                            <path d="M1104.72,896.04L1024.68,976.077" style="fill:none;stroke:black;stroke-width:0.36px;stroke-linejoin:miter;"/>
                        </g>
                        <g transform="matrix(-1,0,0,1,2129.4,-64.0295)">
                            <path d="M1104.72,896.04L1024.68,976.077" style="fill:none;stroke:black;stroke-width:0.36px;stroke-linejoin:miter;"/>
                        </g>
                        <g transform="matrix(-1,0,0,1,2129.4,-80.0369)">
                            <path d="M1104.72,896.04L1024.68,976.077" style="fill:none;stroke:black;stroke-width:0.36px;stroke-linejoin:miter;"/>
                        </g>
                    </g>
                </g>
            </g>
        </g>
    </g>
</svg>
