<?xml version="1.0" encoding="UTF-8" standalone="no"?><!DOCTYPE svg PUBLIC "-//W3C//DTD SVG 1.1//EN" "http://www.w3.org/Graphics/SVG/1.1/DTD/svg11.dtd"><svg width="100%" height="100%" viewBox="0 0 178 249" version="1.1" xmlns="http://www.w3.org/2000/svg" xmlns:xlink="http://www.w3.org/1999/xlink" xml:space="preserve" xmlns:serif="http://www.serif.com/" style="fill-rule:evenodd;clip-rule:evenodd;stroke-linecap:round;stroke-miterlimit:1.5;"><rect id="card-back" x="0" y="0" width="178" height="249" style="fill:none;"/><clipPath id="_clip1"><rect x="0" y="0" width="178" height="249"/></clipPath><g clip-path="url(#_clip1)"><rect x="-532.211" y="-996" width="2312.21" height="1245" style="fill:#fff;"/><g><g id="back"><rect x="17.8" y="17.697" width="142.4" height="213.6" style="fill:none;"/><clipPath id="_clip2"><rect x="17.8" y="17.697" width="142.4" height="213.6"/></clipPath><g clip-path="url(#_clip2)"><g><path d="M174.725,56.633l-178,178" style="fill:none;stroke:#000;stroke-width:0.8px;"/><path d="M174.725,92.233l-178,178" style="fill:none;stroke:#000;stroke-width:0.8px;"/><path d="M174.725,127.833l-178,178" style="fill:none;stroke:#000;stroke-width:0.8px;"/><path d="M174.725,163.433l-178,178" style="fill:none;stroke:#000;stroke-width:0.8px;"/><path d="M174.725,199.033l-178,178" style="fill:none;stroke:#000;stroke-width:0.8px;"/><path d="M174.725,21.033l-178,178" style="fill:none;stroke:#000;stroke-width:0.8px;"/><path d="M174.725,-14.567l-178,178" style="fill:none;stroke:#000;stroke-width:0.8px;"/><path d="M174.725,-50.167l-178,178" style="fill:none;stroke:#000;stroke-width:0.8px;"/><path d="M174.725,-85.767l-178,178" style="fill:none;stroke:#000;stroke-width:0.8px;"/><path d="M174.725,-121.367l-178,178" style="fill:none;stroke:#000;stroke-width:0.8px;"/></g><g><path d="M174.725,49.86l-178,178" style="fill:none;stroke:#000;stroke-width:0.8px;"/><path d="M174.725,85.46l-178,178" style="fill:none;stroke:#000;stroke-width:0.8px;"/><path d="M174.725,121.06l-178,178" style="fill:none;stroke:#000;stroke-width:0.8px;"/><path d="M174.725,156.66l-178,178" style="fill:none;stroke:#000;stroke-width:0.8px;"/><path d="M174.725,192.26l-178,178" style="fill:none;stroke:#000;stroke-width:0.8px;"/><path d="M174.725,14.26l-178,178" style="fill:none;stroke:#000;stroke-width:0.8px;"/><path d="M174.725,-21.34l-178,178" style="fill:none;stroke:#000;stroke-width:0.8px;"/><path d="M174.725,-56.94l-178,178" style="fill:none;stroke:#000;stroke-width:0.8px;"/><path d="M174.725,-92.54l-178,178" style="fill:none;stroke:#000;stroke-width:0.8px;"/><path d="M174.725,-128.14l-178,178" style="fill:none;stroke:#000;stroke-width:0.8px;"/></g><g><path d="M174.725,63.305l-178,178" style="fill:none;stroke:#000;stroke-width:0.8px;"/><path d="M174.725,98.905l-178,178" style="fill:none;stroke:#000;stroke-width:0.8px;"/><path d="M174.725,134.505l-178,178" style="fill:none;stroke:#000;stroke-width:0.8px;"/><path d="M174.725,170.105l-178,178" style="fill:none;stroke:#000;stroke-width:0.8px;"/><path d="M174.725,205.705l-178,178" style="fill:none;stroke:#000;stroke-width:0.8px;"/><path d="M174.725,27.705l-178,178" style="fill:none;stroke:#000;stroke-width:0.8px;"/><path d="M174.725,-7.895l-178,178" style="fill:none;stroke:#000;stroke-width:0.8px;"/><path d="M174.725,-43.495l-178,178" style="fill:none;stroke:#000;stroke-width:0.8px;"/><path d="M174.725,-79.095l-178,178" style="fill:none;stroke:#000;stroke-width:0.8px;"/><path d="M174.725,-114.695l-178,178" style="fill:none;stroke:#000;stroke-width:0.8px;"/></g><g><path d="M-3.275,43.289l178,178" style="fill:none;stroke:#000;stroke-width:0.8px;"/><path d="M-3.275,78.889l178,178" style="fill:none;stroke:#000;stroke-width:0.8px;"/><path d="M-3.275,114.489l178,178" style="fill:none;stroke:#000;stroke-width:0.8px;"/><path d="M-3.275,150.089l178,178" style="fill:none;stroke:#000;stroke-width:0.8px;"/><path d="M-3.275,185.689l178,178" style="fill:none;stroke:#000;stroke-width:0.8px;"/><path d="M-3.275,7.689l178,178" style="fill:none;stroke:#000;stroke-width:0.8px;"/><path d="M-3.275,-27.911l178,178" style="fill:none;stroke:#000;stroke-width:0.8px;"/><path d="M-3.275,-63.511l178,178" style="fill:none;stroke:#000;stroke-width:0.8px;"/><path d="M-3.275,-99.111l178,178" style="fill:none;stroke:#000;stroke-width:0.8px;"/><path d="M-3.275,-134.711l178,178" style="fill:none;stroke:#000;stroke-width:0.8px;"/></g><g><path d="M-3.275,49.86l178,178" style="fill:none;stroke:#000;stroke-width:0.8px;"/><path d="M-3.275,85.46l178,178" style="fill:none;stroke:#000;stroke-width:0.8px;"/><path d="M-3.275,121.06l178,178" style="fill:none;stroke:#000;stroke-width:0.8px;"/><path d="M-3.275,156.66l178,178" style="fill:none;stroke:#000;stroke-width:0.8px;"/><path d="M-3.275,192.26l178,178" style="fill:none;stroke:#000;stroke-width:0.8px;"/><path d="M-3.275,14.26l178,178" style="fill:none;stroke:#000;stroke-width:0.8px;"/><path d="M-3.275,-21.34l178,178" style="fill:none;stroke:#000;stroke-width:0.8px;"/><path d="M-3.275,-56.94l178,178" style="fill:none;stroke:#000;stroke-width:0.8px;"/><path d="M-3.275,-92.54l178,178" style="fill:none;stroke:#000;stroke-width:0.8px;"/><path d="M-3.275,-128.14l178,178" style="fill:none;stroke:#000;stroke-width:0.8px;"/></g><g><path d="M-3.275,56.633l178,178" style="fill:none;stroke:#000;stroke-width:0.8px;"/><path d="M-3.275,92.233l178,178" style="fill:none;stroke:#000;stroke-width:0.8px;"/><path d="M-3.275,127.833l178,178" style="fill:none;stroke:#000;stroke-width:0.8px;"/><path d="M-3.275,163.433l178,178" style="fill:none;stroke:#000;stroke-width:0.8px;"/><path d="M-3.275,199.033l178,178" style="fill:none;stroke:#000;stroke-width:0.8px;"/><path d="M-3.275,21.033l178,178" style="fill:none;stroke:#000;stroke-width:0.8px;"/><path d="M-3.275,-14.567l178,178" style="fill:none;stroke:#000;stroke-width:0.8px;"/><path d="M-3.275,-50.167l178,178" style="fill:none;stroke:#000;stroke-width:0.8px;"/><path d="M-3.275,-85.767l178,178" style="fill:none;stroke:#000;stroke-width:0.8px;"/><path d="M-3.275,-121.367l178,178" style="fill:none;stroke:#000;stroke-width:0.8px;"/></g></g></g></g></g></svg>