<?xml version="1.0" encoding="UTF-8" standalone="no"?><!DOCTYPE svg PUBLIC "-//W3C//DTD SVG 1.1//EN" "http://www.w3.org/Graphics/SVG/1.1/DTD/svg11.dtd"><svg width="100%" height="100%" viewBox="0 0 178 249" version="1.1" xmlns="http://www.w3.org/2000/svg" xmlns:xlink="http://www.w3.org/1999/xlink" xml:space="preserve" xmlns:serif="http://www.serif.com/" style="fill-rule:evenodd;clip-rule:evenodd;stroke-linejoin:round;stroke-miterlimit:2;"><rect id="jack-hearts" x="0" y="0" width="178" height="249" style="fill:none;"/><clipPath id="_clip1"><rect x="0" y="0" width="178" height="249"/></clipPath><g clip-path="url(#_clip1)"><rect x="-1778.21" y="-249" width="2312.21" height="1245" style="fill:#fff;"/><g id="jack_hearts"><path id="path10378-7-1" d="M13.729,55.891c0,0 -1.774,-2.547 -4.167,-5.541c-1.601,-2.004 -2.881,-4.173 -3,-6.042c-0.136,-2.135 1.156,-4.277 3.494,-4.381c2.338,-0.103 3.287,1.647 3.673,3.089c0.386,-1.442 1.335,-3.192 3.672,-3.089c2.339,0.104 3.631,2.246 3.495,4.381c-0.119,1.869 -1.399,4.038 -3,6.042c-2.393,2.994 -4.167,5.541 -4.167,5.541Z" style="fill:#d40000;fill-rule:nonzero;"/><path id="path10380-5-9" d="M164.272,193.109c0,0 -1.774,2.547 -4.167,5.541c-1.601,2.004 -2.881,4.173 -3,6.042c-0.136,2.135 1.155,4.277 3.494,4.381c2.338,0.103 3.286,-1.646 3.673,-3.089c0.386,1.443 1.335,3.192 3.672,3.089c2.339,-0.104 3.631,-2.246 3.494,-4.381c-0.119,-1.869 -1.398,-4.038 -2.999,-6.042c-2.393,-2.994 -4.167,-5.541 -4.167,-5.541Z" style="fill:#d40000;fill-rule:nonzero;"/><path id="path35-67-2-8-6" d="M13.643,11.072l0,2.758l2.674,0c0,0 0.065,2.659 0.089,8.298c0.02,5.476 0.132,8.192 -0.217,9.752c-0.937,3.594 -6.139,3.614 -7.172,1.029c-0.601,-1.503 -0.441,-2.672 -0.469,-4.186l-2.875,0c0,0 0.017,0.763 0.021,1.695c0.016,4.042 1.353,5.975 4.481,6.737c3.216,0.87 6.976,-0.457 8.313,-3.208c0.797,-1.569 0.705,-1.676 0.725,-11.158c0.012,-6.326 0.107,-8.959 0.107,-8.959l2.463,0l0,-2.758l-8.14,0Z" style="fill:#d40000;fill-rule:nonzero;"/><path id="path35-6-7-4-8-8" d="M164.357,237.928l0,-2.758l-2.675,0c0,0 -0.065,-2.659 -0.088,-8.298c-0.021,-5.476 -0.132,-8.192 0.216,-9.752c0.937,-3.594 6.139,-3.614 7.173,-1.029c0.6,1.503 0.44,2.672 0.468,4.186l2.876,0c0,0 -0.017,-0.763 -0.021,-1.695c-0.017,-4.042 -1.353,-5.975 -4.481,-6.737c-3.216,-0.87 -6.977,0.457 -8.313,3.208c-0.797,1.569 -0.706,1.676 -0.725,11.159c-0.012,6.325 -0.108,8.958 -0.108,8.958l-2.462,0l0,2.758l8.14,0Z" style="fill:#d40000;fill-rule:nonzero;"/><g id="g3347-7-8-1"><g id="g9405-3-0-4"></g><g id="g3498-4-3-9"><g id="g2997-9-2-6"><g id="g3884-5-1-3"><g id="g3000-2-1-2"><path id="path2993-7-5-1" d="M152.655,29.071l-9.179,6.001l-0.127,6.999c-5.443,-2.62 -7.809,-6.911 -8.666,-11.937c-1.54,1.948 -1.235,11.782 -1.235,11.782c-1.398,0.728 -1.91,1.678 -2.804,2.533c0.878,1.454 3.364,3.93 3.364,3.93c-0.018,-0.044 -1.14,10.24 0.217,10.649c1.241,-4.383 2.892,-8.207 8.973,-12.216c0,0 0.092,16.326 -0.297,32.098c-2.573,-1.776 -8.012,-4.966 -11.527,-8.231c4.557,-5.894 -0.089,-13.578 -6.889,-8.474c-4.407,-2.393 -5.084,-13.695 -6.175,-19.615c-0.209,-1.188 -1.235,-4.669 -1.235,-4.669c0,0 -14.524,-4.029 -20.76,-3.701c5.238,13.69 4.221,30.375 -18.961,33.5c-11.107,5.095 -23.939,10.774 -36.411,21.384c-2.297,15.797 -10.42,23.575 -16.156,27.877c0.041,6.402 -0.043,12.739 0.22,19.2c-0.006,0.039 5.235,-3.451 6.059,-2.808c4.379,28.551 20.417,34.212 18.813,35.003c-0.258,0.128 -5.255,5.28 -5.255,5.28l-19.575,-12.933c-0.671,19.74 -0.282,39.87 0,59.645c3.456,-1.96 9.809,-6.647 9.809,-6.647l0.096,-6.716c-0.029,-0.638 8.902,5.595 8.923,13.02c0.695,0.474 2.219,-10.685 0.832,-11.893l3.66,-3.788l-3.942,-3.808c0,0 1,-6.319 -1.043,-9.959c-1.324,8.333 -8.221,10.932 -8.221,10.932c0,0 -0.135,-30.461 -0.313,-30.487l12.303,7.812c-6.663,9.101 5.064,12.055 6.437,7.627c7.566,7.072 4.654,15.527 7.963,25.56l21.47,3.951c-8.848,-16.467 0.753,-35.229 18.13,-33.888c3.255,-1.36 6.202,-3.323 6.202,-3.323c0,0 -2.161,-3.542 -4.889,-6.829l-37.191,-0.616l17.337,-32.604l-11.402,-0.368c0,0 9.266,-19.713 7.264,-21.301c-0.703,-0.558 -0.409,-6.914 -0.409,-6.914l10.185,0.38c0.403,-4.55 -4.926,-21.887 -12.444,-33.226l41.801,0.376l-23.532,32.919l12.639,0.365l-7.542,15.539l1.209,12.12l-11.214,0.364c1.933,16.803 14.377,34.505 18.752,39.973c7.232,-1.72 20.734,-12.084 29.113,-18.529c1.086,-11.275 4.957,-20.874 15.076,-28.034l0.031,-18.563c0,0 -5.776,3.74 -5.774,3.482c0.023,-4.018 -2.065,-12.381 -5.916,-19.835c-4.133,-8 -10.917,-15.245 -12.478,-15.698c3.589,-5.446 5.12,-5.934 5.069,-6.021l19.546,12.574l0.069,-59.244Zm-98.52,39.579c0,0 -3.802,1.451 -7.106,1.406c-5.919,0.306 -10.434,0.785 -12.835,5.655c-0.488,1.482 0.581,2.029 1.366,2.417c4.463,-5.557 16.322,1.783 18.575,-9.478Zm-26.278,25.502c0,0.785 0.874,2.067 1.313,0.736c0.38,-0.951 0.457,-2.491 0.03,-3.44c-1.188,-0.671 -1.329,1.935 -1.343,2.704Zm64.106,26.888l-5.781,0.027l-0.035,6.806l5.819,-0.004l-0.003,-6.829Zm56.784,33.88c-0.127,0.676 -0.75,3.717 0.661,3.188c1.664,-1.285 0.247,-7.196 -0.661,-3.188Zm-5.441,17.085c-0.683,-0.998 -2.795,1.482 -4.528,1.575c-7.702,0.414 -13.376,-0.62 -14.336,7.462c4.442,-2.844 10.665,-1.548 14.675,-2.467c2.898,-0.965 6.222,-3.597 4.189,-6.57Z" style="fill:#e2cf00;fill-rule:nonzero;"/><path id="path3504-0-2-5" d="M23.614,229.89l0,-210.78l130.772,0l0,210.78l-130.772,0Zm5.984,-136.602c0.112,-2.027 -0.719,-2.867 -1.44,-1.472c-0.171,0.329 -0.731,3.853 0.599,3.97c0.873,0.077 0.793,-1.628 0.841,-2.498Zm-2.11,2.379c-0.008,-0.478 -0.302,-0.687 0.348,-4.852c-1.242,-0.481 -2.318,-2.503 -1.413,-3.782c0.353,-0.499 0.25,-0.609 0.106,-1.027c-0.357,-1.036 -0.168,-1.879 0.79,-2.54c0.613,-0.422 0.639,-0.534 0.443,-1.089c-0.505,-1.431 -0.031,-2.828 1.333,-3.303c0.945,-0.33 0.763,-0.377 0.863,-0.978c0.222,-1.346 0.964,-2.16 2.31,-2.024c1.251,0.127 1.334,0.127 1.441,-0.486c0.298,-1.697 2.349,-3.55 5.026,-4.81c1.33,-0.626 3.535,-1.069 7.758,-1.057c2.419,-0.043 5.435,-0.367 7.128,-1.858c0.279,-0.261 0.667,-0.948 0.802,-0.855c0.315,0.218 0.238,1.908 -0.379,3.448c-1.801,4.49 -4.239,5.727 -11.129,5.686c-2.054,-0.098 -5.081,0.181 -6.364,1.491c-0.382,0.406 -0.637,0.79 -0.493,0.998c2.854,0.406 5.785,1.698 7.491,7.348c5.176,-3.681 13.427,-9.318 23.659,-14.414c-1.229,-6.752 4.608,-7.793 7.882,-6.45c0,0 0.083,-0.44 -0.044,-0.951c-0.123,-0.498 -0.305,-1.148 -0.909,-1.987c-0.152,-0.305 -1.071,-0.885 -0.89,-1.344c0.297,-0.752 0.165,-0.959 -0.462,-1.651c-0.407,-0.45 -0.137,-1.411 -0.038,-1.799c0.129,-0.723 0.603,-1.755 0.184,-2.144c-0.648,-0.602 -2.856,-1.62 -3.994,-2.43c-1.257,-0.917 -1.281,-1.742 0.561,-4.758c0.839,-1.753 1.632,-3.637 2.301,-4.896c1.012,-1.905 1.117,-3.161 0.504,-4.254c-0.802,-1.426 -0.669,-3.118 -0.65,-3.075c0,0 -7.562,-10.621 -10.677,-14.863l-35.528,0l0,80.839l6.111,-5.834l-1.654,-1.962c-0.234,1.139 -0.022,2.254 -1.423,2.319c-0.477,0.015 -0.918,-0.184 -0.994,-0.656Zm21.022,108.167c0.202,-3.208 -1.33,-8.459 -3.635,-12.097c0.099,2.762 0.297,6.14 -0.256,8.841l3.891,3.256Zm55.824,8.371c-0.279,-0.09 -2.601,-0.232 -4.059,-0.31c-4.835,-0.257 -7.975,-2.583 -10.07,-5.8c-0.515,-0.791 -0.302,-0.756 0.84,0.139c3.21,2.516 6.215,4.02 8.853,3.643c3.741,-0.535 5.758,0.84 5.24,2.443c-0.091,0.28 -0.121,0.106 -0.804,-0.115Zm-12.666,-7.156c-0.748,-0.651 -0.804,-0.943 0.084,-0.35c2.715,1.812 5.992,4.771 10.043,3.038c0.84,-0.541 0.067,-0.469 -1.339,-0.319c-2.149,0.229 -4.768,-0.866 -7.989,-3.097c-1.573,-1.089 -0.88,-2.008 0.891,-1.155c0.547,0.264 1.101,0.458 1.454,0.48c1.744,-1.161 5.408,-1.147 5.323,-1.141c0.417,-0.36 -0.952,-0.933 -2.99,-1.704c-1.323,-0.502 -1.643,-0.708 -0.658,-0.746c0.861,-0.034 2.215,0.397 3.191,1.031c1.63,1.05 2.451,1.632 2.937,1.701c0.799,0.063 1.615,0.178 0.243,0.816c-0.624,0.29 -0.569,0.364 -0.497,1.066c0.112,1.098 0.177,1.085 0.682,1.706c0.851,0.94 1.222,2.692 0.008,1.596c-0.262,-0.122 -0.289,0.111 -1.004,0.401c-4.197,1.188 -7.324,-0.666 -10.379,-3.323Zm7.748,0.313c0.234,-0.309 0.586,-1.099 0.634,-1.319c-0.081,-0.512 -0.535,-0.352 -0.764,-0.064c-0.392,0.483 -0.94,1.192 -0.489,1.434c0.213,0.115 0.421,0.211 0.619,-0.051Zm-1.433,-0.332l0.933,-1.668c-0.231,-0.108 -3.391,0.547 -2.896,1.001c0.439,0.403 1.963,0.667 1.963,0.667Zm3.558,-5.597c-1.439,-0.772 -1.859,-2.437 -0.783,-3.543c0.904,-0.929 2.436,-0.85 4.27,0.282c0.645,0.399 1.041,0.601 1.483,0.438c0.74,-0.273 1.023,0.143 0.962,0.724c-0.134,1.28 -2.121,1.593 -3.375,0.133c-1.657,-1.931 -3.459,-0.584 -2.931,0.812c0.269,0.711 0.791,0.822 1.391,1.089c-0.001,0.139 -0.598,0.289 -1.017,0.065Zm-6.563,-8.603c2.385,-0.645 5.931,1.885 7.854,1.541c0.834,-0.179 0.716,1.025 -0.149,1.461c-1.012,0.51 -2.45,0.167 -5.501,-1.429c-2.512,-1.361 -4.546,0.896 -2.866,2.579c0.36,0.341 0.885,0.546 1.529,0.516c0.85,-0.04 1.099,0.192 0.004,0.475c-0.63,0.162 -1.801,-0.094 -2.367,-0.669c-1.353,-1.374 -1.02,-4.016 1.496,-4.474Zm-50.472,-7.389c-0.07,-2.844 1.444,-4.423 1.483,-4.435l-10.719,-7.294l0.159,29.132c5.311,-3.382 7.054,-7.644 7.359,-13.146c10.486,11.78 7.213,26.12 0.664,34.286c-0.269,-4.998 -1.757,-10.904 -7.811,-13.931l-0.011,5.962l-10.182,7.146l0,7l23.834,0l11.432,-17.083c-2.068,-7.594 -1.757,-13.913 -3.156,-17.388c-1.05,-2.856 -3.043,-6.546 -4.331,-5.974c-4.356,3.459 -8.636,-0.577 -8.721,-4.275Zm9.021,3.361c3.713,2.682 4.703,7.064 5.464,10.959c0.026,0.033 1.949,13.204 2.01,13.381c0.249,0.723 0.167,1.443 -0.47,1.992c-3.429,4.717 -10.131,14.833 -10.131,14.833l65.695,0.388c-3.505,-5.115 -6.243,-10.171 -9.573,-14.376c0.14,-0.224 -0.26,-3.096 -0.815,-4.024c-0.571,-0.957 -0.703,-1.458 -0.316,-2.333c0.961,-2.155 1.947,-4.491 2.835,-6.468c1.699,-3.789 1.894,-3.821 -0.427,-5.051c-2.751,-1.607 -3.241,-2.129 -2.664,-3.963c0.21,-0.668 0.237,-0.935 -0.615,-1.109c-0.395,-0.081 -1.354,-0.311 -1.998,-0.49c-1.857,-0.587 -1.32,-0.223 -1.999,0.259c-0.517,0.256 -0.962,-0.727 -1.569,-1.89c-0.697,-1.335 -0.873,-1.367 0.28,-0.679c2.136,1.274 5.928,0.779 4.592,-0.696c-0.652,-0.72 -1.255,-1.089 -1.187,-2.717c0.068,-1.617 0.093,-2.09 -1.001,-2.315c-2.189,-0.45 -4.569,-0.262 -6.607,0.248c-6.2,1.553 -11.175,6.948 -13.061,10.957c-0.425,0.699 0.551,0.663 0.971,0.666c2.033,-0.182 3.474,3.066 2.145,4.522c-0.615,0.65 -1.229,0.251 -0.572,-0.593c0.748,-1.396 -0.368,-3.243 -2.004,-2.773c-2.059,0.592 -2.118,3.262 -2.373,5.123c-0.702,5.361 2.014,12.529 2.678,13.991c0,0 0.145,0.218 0.096,0.218c-0.05,0 -0.376,0.302 -0.515,0.144c-0.476,-0.543 -1.68,-4.929 -2.332,-8.062c-1.265,-8.666 0.97,-16.635 8.159,-21.161c6.368,-4.608 9.575,-3.616 13.19,-3.829c1.235,-0.445 2.948,-1.121 4.245,-1.759c11.34,-5.933 21.675,-11.733 31.183,-19.439c6.952,-5.26 10.269,-9.527 16.226,-14.902l-0.604,-30.037c0,0 -0.6,-0.501 -0.598,-0.979c0.391,-2.011 -3.126,1.341 -5.383,2.464c-1.421,-13.781 -8.85,-27.332 -17.856,-35.256l0.37,-0.508c0,0 3.012,1.995 4.516,2.945l0,-1.922l-3.627,-2.278c-0.161,-0.702 -0.071,-0.81 0.721,-0.813l2.906,2.149l0,-1.754l-2.349,-1.502l0.752,-0.951l1.259,0.819c-0.534,-1.389 0.221,-1.34 0.996,-0.419c0.322,0.421 0.738,0.962 0.914,1.473c0.067,0.195 0.268,0.674 0.268,0.674l2.06,1.537c0,0 -0.079,-0.749 -0.006,-0.979c0.348,-1.089 2.835,2.427 2.522,2.509l2.11,1.526c0.5,-0.765 2.379,0.758 2.457,1.508c0.166,0.326 7.272,4.911 7.272,4.911l0.077,-2.532l0.766,-1.001l0.345,-58.507l-9.435,6.05l-0.104,7.083c-4.457,-1.446 -8.318,-7.922 -8.882,-11.961c-0.291,-0.159 -1.582,7.967 -0.899,11.523c-1.178,0.88 -3.163,2.937 -3.147,2.947l3.574,3.923c0,0 -0.714,6.007 -0.547,8.992c0.145,1.416 0.173,1.559 0.595,1.562c0.343,0.002 0.65,-0.369 0.652,-0.693c0.84,-3.573 3.598,-9.149 8.369,-11.048c0.316,-0.009 -0.025,31.875 -0.025,31.875l-11.841,-8.103c-0.591,-0.508 0.773,-0.476 1.605,-3.174c2.146,-6.96 -5.298,-9.419 -8.173,-5.389c-0.473,-0.003 -2.449,-2.452 -2.744,-3.475c-2.19,-4.426 -2.61,-9.443 -3.035,-13.467c-0.257,-1.83 -0.926,-4.829 -1.481,-6.635c-0.296,-0.964 -0.326,-1.661 0.313,-2.559c2.751,-5.688 8.052,-9.601 10.059,-15.344l-65.868,-0.213c4.172,3.454 7.794,13.091 11.597,14.329c-1.822,0.236 -1.203,1.834 -0.496,3.552c0.87,2.112 0.774,2.548 -1.433,6.899c-3.234,6.379 -3.409,5.819 -0.182,7.793c1.993,1.28 2.356,1.56 2.063,3.297c-0.293,1.738 -0.375,1.201 1.27,1.342c0.88,0.076 1.581,0.236 1.978,0.416c0.449,0.204 0.784,0.489 1.363,0.299c0.975,-0.321 0.998,-0.084 1.037,0.632c0.017,0.305 0.477,0.935 0.619,1.169c0.376,0.617 0.2,0.72 -0.488,0.286c-2.118,-1.339 -5.659,-0.767 -4.356,0.688c0.537,0.599 1.076,2.592 1.122,3.582c0.083,1.772 1.23,2.4 3.64,2.036c4.629,-0.346 15.066,-6.109 17.497,-12.582c-5.345,1.826 -4.247,-4.755 -2.341,-4.547c0,0 -0.513,1.167 -0.529,1.833c-0.058,2.353 1.907,2.535 3.261,0.869c0.589,-0.876 1.303,-4.128 0.952,-7.8c-0.426,-4.446 -2.222,-9.42 -2.548,-10.654c7.645,18.303 0.625,26.351 -10.117,31.604c-4.114,1.723 -4.679,1.713 -7.103,1.826c-1.659,0.135 -3.156,0.962 -4.748,1.487c-9.191,4.4 -20.487,9.887 -30.591,18.072c-7.25,5.388 -13.009,10.23 -18.734,16.453l-0.023,32.294c1.722,-0.269 4.516,-1.951 6.171,-2.918c1.896,12.062 8.08,26.03 18.324,34.383c-0.006,-0.004 -0.242,0.456 -0.248,0.452c-1.459,-0.972 -2.916,-1.938 -4.33,-2.684l-0.074,1.537l3.447,2.378c0.092,0.369 -0.591,0.884 -0.591,0.884l-2.845,-1.971l-0.022,1.565l2.203,1.409c0.595,0.597 -0.721,0.909 -0.721,0.909l-1.305,-0.949c0,0 0.093,0.761 0.054,0.895c-0.341,1.156 -2.226,-1.396 -2.566,-2.669l-1.854,-1.101c0.263,0.753 -0.401,0.858 -0.926,0.67c-1.394,-0.709 -1.316,-1.899 -1.607,-2.605l-2.467,-1.57c-0.425,2.358 -2.933,-0.963 -2.537,-1.758l-3.164,-2.16c0.174,0.065 -1.207,0.352 -1.674,0.046c-0.539,-0.353 -0.728,-1.792 -0.728,-1.792l-1.897,-1.178l0,2.063l19.516,13.667l-0.282,0.53l-20.357,-13.97l0.825,60.632l9.925,-6.887c-0.19,-2.269 0.227,-4.295 0.04,-6.88c5.099,3.183 6.816,5.349 9.064,12.034c1.456,-3.805 1.2,-7.457 0.547,-10.836c1.303,-1.07 2.573,-2.109 3.228,-3.723c-1.227,-1.693 -2.426,-2.168 -3.718,-3.74c-0.101,-1.915 1.017,-7.619 -0.483,-9.501c0,0 -2.742,8.287 -8.648,10.779c-0.18,-8.751 0.024,-30.749 0.024,-30.749c0,0 6.07,4.202 9.165,5.909c1.455,0.779 2.469,1.267 2.488,1.822c0.01,0.282 -0.575,0.641 -0.831,1.038c-0.159,0.247 -0.831,2.614 -0.57,4.465c0.119,1.364 0.76,2.227 1.374,2.881c1.947,2.073 5.514,1.095 6.926,-0.505Zm11.748,-15.485l23.347,-32.758c2.778,12.055 7.467,23.094 13.584,33.102l-36.931,-0.344Zm11.545,-34.432c0,0 1.629,-3.239 2.376,-4.957l-2.859,0l1.71,-1.925l4.258,0l-2.278,4.868l1.807,0l2.499,-4.868l6.634,0l-2.321,4.868l1.529,0l2.482,-4.868l6.168,0l-2.17,4.868l1.446,0l1.267,-2.456l0.309,4.47l-6.127,0l2.422,-4.957l-1.975,0l-2.737,4.957l-5.74,0l2.49,-4.957l-2.182,0l-2.735,4.957l-6.273,0Zm18.906,-17.444l2.475,-5.245l-1.959,0l-2.738,5.136l-6.118,0l2.408,-5.077l-1.525,0.005c-1.033,1.601 -2.682,4.852 -2.682,4.852l-6.489,0c0,0 1.835,-3.448 2.559,-5.135l-1.6,0l-1.304,2.084c-0.458,-0.778 -0.156,-2.844 -0.233,-3.721l6.116,0l-2.457,5.033l1.951,0l2.679,-5.033l6.459,0l-2.631,5.033l1.529,0l2.607,-4.757l6.571,0l-2.303,4.757l2.029,0l-0.895,2.068l-4.449,0Zm-6.045,-9.139l-1.239,0.233c-1.585,-13.591 -9.084,-27.448 -12.258,-33.169l37.311,0.526l-23.814,32.41Zm43.809,-78.477c0,0 -3.558,4.589 -3.796,12.288l3.389,-2.714c-0.215,-7.813 0.407,-9.574 0.407,-9.574Zm-3.758,12.866c-0.057,5.729 1.441,9.381 3.334,12.24c0.033,-3.69 0.403,-7.425 0.621,-8.404l-3.955,-3.836Zm-92.373,109.606l-12.065,-8.336l0,1.827l14.34,9.77l-2.275,-3.261Zm-2.174,-4.474c-3.232,-1.627 -9.891,-6.665 -9.891,-6.665l0,1.666l10.601,7.471c0.209,0.206 0.488,0.153 0.586,-0.077c-0.417,-0.706 -0.919,-1.667 -1.296,-2.395Zm-2.96,-7.237l-6.931,-4.85l0,1.509c1.777,1.597 7.625,5.396 7.625,5.396l-0.694,-2.055Zm-6.931,-5.954l6.52,4.227l-0.405,-1.871l-4.632,-3.154l-1.483,0.798Zm117.17,-58.599l0.349,-30.122c-6.794,3.222 -8.141,12.62 -7.915,12.912c-6.762,-6.99 -9.311,-22.063 0.174,-32.199c0.714,3.251 0.953,7.967 7.663,12.276l0.172,-6.38l9.372,-6.024l0,-7.535l-22.598,0c-3.498,4.444 -6.994,9.612 -10.454,14.328c-1.299,1.769 -1.623,2.6 -1.374,3.524c2.275,8.201 1.819,18.298 6.595,23.072c6.405,-6.042 12.407,3.054 7.427,8.663l10.589,7.485Zm-97.431,130.255c0.867,2.744 0.271,8.277 0.215,8.277c1.034,-0.564 3.847,-8.577 3.144,-11.587m32.635,-147.11c-1.595,-0.454 -2.795,-1.141 -4.48,-0.98c-1.325,0.138 -1.776,-0.302 -0.968,-1.026c1.058,-0.899 2.083,-1.269 4.042,-0.241c5.896,3.094 6.078,-1.424 3.423,-1.744c-0.753,-0.09 -0.718,-0.573 0.033,-0.451c4.119,0.165 2.864,5.639 -2.05,4.442Zm-6.894,-4.511c-0.779,-0.286 -1.721,-0.763 -2.068,-0.67c-0.875,0.236 -0.905,-0.247 -0.801,-0.818c0.252,-1.38 1.658,-1.13 3.517,0.057c2.664,1.701 3.684,-0.744 1.261,-2.063c-0.816,-0.444 -0.563,-0.567 -0.087,-0.587c1.262,-0.052 2.451,1.672 2.116,3.081c-0.849,2.262 -2.91,1.376 -3.938,1Zm7.804,-4.176c-1.723,-0.3 -4.219,-2.624 -5.377,-2.783c-0.651,-0.074 -1.416,0.005 -1.624,-0.257c-0.637,-0.803 1.166,-0.802 1.289,-1.094c0.004,-0.677 0.046,-1.1 0.019,-1.332c-0.318,-0.432 -1.572,-2.161 -1.528,-2.999c0.03,-0.052 0.657,0.464 0.98,0.466c3.077,-1.627 5.18,-0.905 7.777,0.244c1.073,0.475 3.843,2.629 3.877,2.97c0.059,0.578 -1.174,-0.506 -2.138,-1.154c-2.375,-1.657 -4.512,-2.834 -7.494,-1.852c-0.464,0.16 -0.384,0.246 1.144,0.153c1.492,-0.091 2.715,0.367 4.621,1.615c0.474,0.31 1.046,0.839 1.387,1.002c2.399,1.147 2.922,2.274 1.395,1.969c-0.327,-0.066 -0.96,-0.407 -1.582,-0.628c-1.097,-0.389 -0.709,-0.271 -1.764,0.222c-0.37,0.173 -1.262,0.538 -1.994,0.625c-0.561,0.093 -2.38,0.078 -1.576,0.849c0.855,0.858 2.271,1.49 3.245,1.882c0.701,0.312 0.161,0.245 -0.657,0.102Zm0.205,-3.735c1.123,-0.418 0.245,-1.362 -1.187,-1.571c-0.327,-0.047 -1.028,1.504 -1.043,1.831c-0.012,0.243 1.615,-0.032 2.23,-0.26Zm-3.1,0.167c0.257,-0.164 1.12,-1.415 1.121,-1.614c0.005,-0.803 -1.02,-0.58 -1.257,0.256c-0.288,1.017 -0.313,1.643 0.136,1.358Zm-3.589,-6.472c-0.923,-0.41 -2.179,-2.201 -0.743,-1.899c0.309,0.072 1.92,0.156 2.96,0.16c3.541,0.016 7.069,1.624 9.314,3.965c1.248,1.302 1.329,2.265 0.063,1.368c-4.49,-4.041 -7.245,-3.29 -11.594,-3.594Zm34.968,139.33l-1.253,0.669c0.003,0.696 0.253,0.588 0.808,1.081c0,0 -0.768,0.126 -1.331,0.088c-0.915,-0.061 -1.125,-0.045 -0.72,0.601c0.187,0.298 0.443,0.739 0.443,0.739c0,0 -0.497,0.108 -1.244,-0.098c-1.132,-0.311 -1.712,-0.155 -1.284,0.477c0.119,0.174 0.346,0.501 0.346,0.501c-0.827,-0.188 -2.345,-0.928 -2.345,-0.928l-1.07,0.326c2.136,4.184 9.731,1.545 7.65,-3.456Zm37.048,-5.97c1.174,-0.989 0.603,-2.2 -1.112,-3.089c-0.714,-0.369 -0.643,-0.374 -1.8,0.307c-1.427,0.841 -1.527,0.884 -0.512,1.965c1.227,1.304 2.561,1.543 3.424,0.817Zm-4.358,-2.794c1.08,-0.48 0.678,-0.399 0.605,-1.531c-0.315,-1.304 0.421,-1.395 0.786,-2.613c0.15,-0.666 -0.411,-0.42 -1.502,0.598c-0.9,0.758 -1.167,0.943 -1.165,0.574c0.102,-0.308 -0.617,-1.099 -1.262,-1.206c-0.545,-0.091 -0.494,-0.216 0.039,-0.907c0.924,-1.2 1.304,-2.713 0.684,-4.046c-0.784,-1.685 -1.042,-1.932 -2.775,-0.461c-0.887,0.819 -2.14,1.448 -2.746,2.462c-0.433,0.745 -0.182,1.467 0.503,2.932c1.712,3.657 4.356,5.3 6.833,4.198Zm6.067,0.032c1.904,-0.748 1.136,-2.81 -1.839,-4.887c-1.794,-1.253 -2.302,-1.24 -0.779,0.117c0.974,0.868 1.126,1.175 0.709,1.8c-0.348,0.52 -0.714,1.133 -0.368,1.609c0.544,0.751 1.475,1.676 2.277,1.361Zm-107.196,-3.428l-2.075,-1.314l0,1.797l2.075,1.243l0,-1.726Zm103.718,1.624c0.412,-0.29 0.766,-1.106 0.768,-1.467c0.093,-0.836 -1.264,-0.635 -1.912,0.29c-0.729,1.039 0.133,1.891 1.144,1.177Zm4.647,-2.83c0.946,-0.994 0.486,-2.052 -1.456,-3.313c-0.75,-0.493 -1.131,-0.815 -1.039,0.162c0.028,0.298 -0.298,0.692 -0.507,0.927c-0.673,0.755 -0.374,0.891 1.544,2.11c0.976,0.621 0.925,0.675 1.458,0.114Zm-108.365,-1.911l-2.075,-1.257l0,1.632l2.075,1.405l0,-1.78Zm-4.537,1.629l0.027,-1.636l-2.689,-1.793l-0.038,1.824l2.7,1.605Zm105.735,-0.662c-0.346,0.937 1.047,0.512 1.128,0.417c0.241,-0.473 0.028,-0.518 -0.091,-0.568c-0.245,-0.103 -1.193,0.06 -1.037,0.151Zm0.608,-1.182c0.478,-0.155 0.534,-0.095 0.468,-0.959c-0.101,-1.304 0.095,-1.408 0.959,-1.982c0.69,-0.459 0.695,-0.39 0.684,-1.19c-0.014,-0.965 0.053,-1.381 1.319,-1.578c0.518,-0.08 0.815,-0.208 0.858,-0.618c0.072,-0.689 -1.033,-1.853 -2.407,-2.525c-0.203,-0.001 -3.274,2.679 -4.132,3.605l-0.523,0.566l0.626,1.177c0.977,1.837 0.817,2.513 0.243,4.948c-0.118,0.652 0.383,0.557 0.515,-0.227c0.172,-0.733 0.272,-1 1.39,-1.217Zm4.681,-6.498c-0.237,1.48 0.528,2.389 1.249,1.655c0.392,-0.4 0.722,-3.667 0.449,-4.185c-1.482,-1.591 -1.64,2.174 -1.698,2.53Zm-23.863,24.497c5.508,-3.235 12.586,-0.591 16.574,-3.244c1.86,-2.056 3.73,-3.366 2.676,-4.784c-0.821,-1.104 -1.355,-1.273 -1.355,-1.273c0.058,0.078 -2.906,2.583 -7.207,2.003c-7.169,-0.247 -10.557,2.01 -10.688,7.298Zm9.412,-7.702c3.508,0.123 6.359,-0.489 7.663,-1.509c0.81,-0.633 0.932,-0.745 -0.337,-0.847c-2.724,-0.22 -5.483,-3.388 -6.346,-6.461c-0.176,-0.632 -0.384,-1.318 -0.384,-1.318c-7.258,5.81 -23.233,14.961 -23.233,14.961c1.06,4.947 -2.512,7.896 -7.351,6.14c-0.841,-0.076 -0.732,1.01 -0.573,1.456c0.263,0.732 0.848,1.345 0.962,1.443c0.721,0.619 0.855,1.028 0.747,1.621c-0.108,0.586 -0.097,0.566 0.312,0.785c0.727,0.391 0.689,0.947 0.293,2.095c-0.427,1.614 -0.457,2.02 0.7,2.789c1.489,0.959 4.411,2.009 3.979,3.452c-0.977,3.27 -2.583,6.085 -3.994,9.145c-0.524,0.847 -0.412,2.246 0.001,2.899c0.513,1 0.453,2.196 1.116,3.114c3.669,5.463 6.828,10.186 10.171,15.12l34.535,0l0,-80.482c0,0 -5.826,5.325 -5.809,5.701c0.02,0.448 1.266,1.149 1.802,1.238c0.022,-0.243 -0.004,-1.201 0.065,-1.537c0.05,-0.488 1.606,-0.361 2.121,0.062c0.361,0.297 0.25,2.233 -0.115,3.809c-0.299,1.289 -0.257,1.306 0.294,2.051c0.672,0.908 0.904,1.679 0.816,2.704c-0.048,0.562 -0.044,1.006 0.115,1.378c0.374,0.875 0.264,2.106 -0.147,2.679c-0.596,0.832 -0.606,0.958 -0.476,1.403c0.489,1.54 0.306,2.851 -1.406,3.518c-0.219,0.085 -0.459,0.465 -0.599,0.793c-0.747,2.464 -2.147,2.461 -4.063,1.751c-1.355,5.302 -6.871,6.634 -10.843,6.477c-4.139,-0.164 -8.349,0.147 -10.221,2.863c0.438,-6.432 3.307,-9.533 10.205,-9.293Zm12.491,-10.68c0.703,-0.264 0.791,-0.999 0.2,-1.471c-0.908,-0.725 -1.95,0.013 -1.524,1.061c0.238,0.587 0.64,0.666 1.324,0.41Zm-108.948,-2.335l-2.757,-1.915l0.016,1.715l2.747,1.769l-0.006,-1.569Zm5.199,1.409l-1.95,-2.346c-5.75,-3.527 -10.734,-7.472 -15.516,-10.649l-0.036,2.175l1.367,0.691c0,0 0.116,-0.478 0.209,-0.754c0.176,-0.518 1.757,0.941 2.261,2.109c0.125,0.291 0.398,0.941 0.398,0.941l1.842,1.021c0,0 0.028,-0.525 0.029,-0.671c0.006,-1.112 1.977,0.419 2.876,2.238c0.218,0.441 0.503,0.909 0.503,0.909l1.734,1.057c0.684,-0.938 2.428,0.345 2.874,1.484c0.565,1.444 1.562,1.57 1.601,1.575l1.808,0.22Zm-10.379,-0.316l0.004,-1.666l-2.874,-1.896l-0.036,1.69l2.906,1.872Zm118.31,0.137c0.075,-0.438 -0.355,-2.139 -1,-2.235c-0.403,-0.059 -1.034,0.553 -1.037,0.981c-0.003,0.556 1.956,1.727 2.037,1.254Zm-2.337,-2.022c0.627,-0.688 -0.165,-1.584 -1.124,-1.273c-1.14,0.37 -0.746,1.406 0.53,1.428c0.285,0.004 0.456,-0.004 0.594,-0.155Zm-116.121,-1.226l0.011,-1.589l-2.655,-1.759l-0.055,1.552l2.699,1.796Zm-5.221,-0.561l0.026,-1.529l-1.744,-1.219l0,1.831l1.718,0.917Zm0.063,-4.581l-1.781,-1.164l0,1.657l1.861,1.068l-0.08,-1.561Zm7.236,-5.041c-0.185,-0.49 -0.937,-2.04 -0.937,-2.04l-8.08,-5.657l0,1.742l9.039,6.097l-0.022,-0.142Zm-3.781,-13.442l-0.095,-0.709l-0.72,0.385l0.815,0.324Zm-1.713,0.176l-1.13,0.613l3.415,2.227l-0.275,-1.583l-2.01,-1.257Zm118.543,-18.763l0.88,-0.639l-1.555,-1.056l-0.116,1.071l0.791,0.624Zm1.575,-1.017l1.157,-0.957l-3.869,-2.736l0.275,1.702l2.437,1.991Zm2.742,-1.431l0,-1.169l-6.273,-4.249l0.433,2.136c1.106,0.641 2.457,1.577 3.87,2.573c0.896,0.634 0.899,0.878 1.97,0.709Zm0,-2.165l0,-1.855l-7.257,-4.833l0.589,2.176l6.668,4.512Zm0,-2.785l0.003,-1.944l-8.785,-5.822l0.962,2.572l7.82,5.194Zm0,-4.883l-11.075,-7.434l1.417,2.849l9.658,6.474l0,-1.889Zm0,-2.84l-13.899,-9.274l1.561,2.596l12.338,8.368l0,-1.69Zm0,-3.015l-0.52,-0.002c-0.041,1.329 -1.477,0.365 -2.017,-1.096c-0.407,-0.979 -0.498,-1.226 -0.498,-1.226l-2.799,-1.897c0.058,0.386 0.22,1.487 0.22,1.487l-1.886,-1.155c0,0 -0.544,-1.828 -0.562,-1.84l-3.221,-2.195c0.068,0.374 0.122,0.991 -0.087,1.033c0,0 -0.98,-0.42 -1.428,-1.073c-0.466,-0.681 -0.536,-1.365 -0.536,-1.365l-2.629,-1.706l-0.654,0.07c0,0 -0.355,-0.24 -0.688,-0.511c-0.623,-1.118 -1.353,-1.287 -2.225,-1.742c0,0 1.85,2.166 2.838,3.446c0.908,1.181 2.009,2.025 2.009,2.025l14.683,9.826l0,-2.079Zm0,-3.031l-1.135,-0.684l0.084,1.794l1.051,0.717l0,-1.827Zm-114.468,-3.948c0.069,-0.113 -0.221,-0.243 -0.54,-0.946c-0.79,-1.743 -0.868,-2.35 -0.445,-4.181c0.201,-0.874 -0.59,-1.249 -0.954,-0.317c-0.283,0.725 -0.722,1.132 -1.143,1.08c-0.397,-0.05 -0.482,0.117 -0.309,0.667c0.211,0.761 -0.247,1.753 -0.884,2.023c-0.643,0.166 -0.76,0.574 -0.579,1.166c0.3,0.982 -0.757,1.812 -1.587,1.765c-1.283,-0.073 -0.78,1.098 0.766,2.213c0.573,0.413 0.829,0.637 1.279,0.428c1.17,-1.109 3.346,-2.695 4.396,-3.898Zm111.318,3.595l-0.064,-1.711l-3.227,-2.186l0.397,2.29l2.894,1.607Zm3.15,-0.717l0,-1.724l-1.328,-0.855l0.068,1.831l1.26,0.748Zm-121.464,-2.669c0.309,0.313 0.617,0.342 1.108,0.045c0.566,-0.296 0.349,-0.745 -0.243,-1.037c-0.553,-0.292 -1.328,0.597 -0.865,0.992Zm-0.963,-0.756c-0.044,-0.361 0.395,-0.847 0.698,-0.865c0.663,-0.039 0.545,-0.394 -0.213,-0.855c-0.355,-0.215 -0.986,-0.72 -1.216,-0.888c-1.133,-0.825 -2.229,0.449 -1.386,1.526c0.705,0.901 1.744,1.436 2.117,1.082Zm118.958,1.068l-0.25,-1.904l-2.914,-1.942l0.23,2.096l2.934,1.75Zm-105.947,-4.64c0.159,-0.264 0.207,-0.516 0.191,-0.834c-0.06,-1.198 -0.675,-2.606 -1.538,-3.784c-0.643,-0.877 -1.422,-1.626 -2.211,-2.066c-2.23,-1.15 -5.204,-0.655 -4.772,0.826c0.308,1.001 0.237,1.839 -0.62,2.342c-0.582,0.342 -0.656,0.804 -0.04,0.804c0.447,0.001 1.632,-0.41 2.127,-1.191c0.697,-1.101 1.096,-1.741 0.939,0.056c-0.065,0.751 0.029,0.695 1.19,0.635c1.576,-0.081 1.284,0.215 0.363,0.927c-1.341,1.036 -1.607,2.79 -0.93,4.281c0.419,0.922 0.708,1.413 1.254,1.29c1.18,-0.777 3.104,-2.338 4.047,-3.286Zm100.8,2.222l-2.869,-1.894l0.113,2.026l3.097,1.834l-0.341,-1.966Zm-110.091,-1.854c-1.051,-1.331 -2.285,0.369 -1.488,1.113c0.579,0.51 2.041,-0.013 1.488,-1.113Zm-2.486,0.186c-0.13,-0.415 0.629,-1.081 0.749,-1.346c0.348,-0.771 -2.765,-2.917 -3.734,-1.645c-0.667,0.876 -0.204,1.752 1.595,2.951c1.086,0.723 1.606,0.723 1.39,0.04Zm112.297,-1.285l-2.651,-1.656l0.046,1.75l2.816,1.703l-0.211,-1.797Zm-4.674,1.566l0,-1.787l-2.671,-1.868l-0.044,1.85l2.715,1.805Zm-103.853,-2.112c0.485,-0.481 0.321,-0.637 -0.616,-0.589c-0.592,0.031 -0.774,-0.068 -0.814,0.204c-0.088,0.602 0.932,0.878 1.43,0.385Zm-2.223,-0.676c0.049,-0.124 -0.287,-0.369 -0.833,-0.829c-1.044,-0.877 -1.162,-1.423 -0.158,-2.107c1.43,-0.975 -0.07,-2.362 -1.731,-1.798c-1.341,0.455 -1.345,1.81 -0.548,2.682c1.092,0.73 3.074,2.835 3.27,2.052Zm106.076,-1.787l-2.627,-1.806l0,1.759l2.627,1.537l0,-1.49Zm-105.581,0.116c1.17,-0.598 1.233,-2.098 0.061,-1.549c-0.483,0.226 -1.117,0.84 -1.118,1.118c-0.003,0.541 0.46,0.736 1.057,0.431Zm0.859,-3.444c1.517,-0.817 1.285,-1.577 -0.227,-2.526c-1.844,-1.061 -3.135,0.973 -1.616,2.357c0.795,0.724 0.98,0.635 1.843,0.169Zm1.967,-1.474c2.466,-2.657 4.1,-2.521 7.355,-2.45c8.397,0.076 10.97,-3.949 10.704,-6.771c-4.08,2.032 -7.722,0.941 -11.606,1.529c-6.701,1.5 -7.487,4.661 -7.954,6.47l1.501,1.222Zm33.661,-9.05c2.164,0.019 2.067,0.085 1.177,-1.699c2.106,0.289 2.956,1.301 2.26,-0.801c1.118,0.399 1.787,0.707 2.941,1.088l0.732,-0.426c-4.456,-4.35 -9.399,-0.664 -8.097,3.724l1.655,-0.794l-0.668,-1.092Z" style="fill:#131f67;fill-rule:nonzero;"/><path id="path3502-5-8-1" d="M79.889,228.213l1.036,-5.036l9.249,0.451c0,0 1.075,3.161 1.509,4.585l-11.794,0Zm-21.36,-0.122l4.907,-8.129l6.969,1.897l-1.604,6.354l-10.272,-0.122Zm13.555,0.122l2.111,-8.677c-3.987,-0.88 -7.747,-1.459 -12.147,-2.65l-7.142,11.318l-4.297,-0.115c3.702,-4.947 10.464,-14.938 10.464,-14.938c15.508,5.352 31.144,6.255 46.886,3.428c0,0 5.799,7.674 7.878,11.836l-4.09,-0.202l-5.082,-8.536c-3.539,0.385 -7.019,0.858 -10.711,1.013l2.528,7.523l-4.062,0l-2.304,-7.502c-4.428,-0.172 -8.151,0.175 -13.458,-0.658l-1.871,8.156l-4.703,0.004Zm29.267,0.003l-1.398,-5.336l4.991,-0.584c0,0 2.315,4.068 3.583,5.917l-7.176,0.003Zm-44.794,-49.579c6.208,-9.465 28.109,-39.807 28.109,-39.807l3.217,0.131c0,0 -19.614,27.4 -29.072,41.217l-2.254,-1.541Zm-31.66,-14.724l7.645,5.521l0.055,42.992l-7.769,5.485l0.069,-53.998Zm31.739,-70.334l4.629,9.085c-19.664,18.687 -15.806,40.616 -5.272,56.257c0,0 -1.362,3.499 -4.33,7.215c-14.253,-9.428 -18.589,-33.93 -18.48,-34.192c15.707,-14.052 17.825,-18.527 23.453,-38.365Zm80.355,66.972c1.015,-13.835 7.761,-22.878 15.321,-28.403l0.387,14.072c-4.949,4.764 -10.182,9.683 -15.708,14.331Zm-20.532,-13.936c17.221,-16.131 17.808,-39.04 5.262,-55.856l5.134,-7.192c7.278,7.813 14.414,15.999 17.452,35.025c-10.906,8.622 -20.543,22.87 -23.107,37.252l-4.741,-9.229Zm-23.731,-18.769l-0.031,-6.593l6.441,-0.032l-0.183,6.582l-6.227,0.043Zm-13.616,-0.051l-0.093,-6.57l6.368,0.046l-0.099,6.66l-6.176,-0.136Zm11.027,-17.592c0,0 21.346,-29.968 29.724,-40.786l1.78,1.314l-28.387,39.639l-3.117,-0.167Zm-49.857,-20.957c-0.021,11.824 -7.578,21.193 -15.296,27.306l0.105,-13.461l15.191,-13.845Zm112.149,-57.058l0.045,52.482l-7.214,-4.357l0.612,-44.012l6.557,-4.113Zm-34.383,3.108c-16.284,-4.247 -31.119,-5.518 -46.715,-2.165c-2.032,-2.432 -8.863,-12.558 -8.863,-12.558l3.943,0.058l5.579,8.957l10.63,-1.393l-2.736,-7.287l4.382,0.019l2.184,7.147c-0.023,-0.057 8.647,0.086 13.466,0.658c0.766,-2.653 2.191,-7.926 2.191,-7.926l4.828,-0.003c-0.62,2.534 -2.286,8.562 -2.286,8.562c3.954,0.551 11.288,2.421 11.355,2.502c2.573,-3.647 4.965,-7.295 7.292,-10.943l4.705,-0.023c-1.386,2.355 -9.694,14.512 -9.955,14.395Zm-3.005,-6.291l-7.194,-1.682l1.879,-6.36l10.055,-0.005l-4.74,8.047Zm-41.31,-2.3l-3.345,-5.902l6.436,0l2.131,5.198l-5.222,0.704Zm14.61,-1.203l-0.975,-4.699l11.689,0l-1.195,5.006l-9.519,-0.307Z" style="fill:#d40000;fill-rule:nonzero;"/><path id="path3500-9-6-1" d="M61.618,20.407l10.396,15.048c0.048,-0.048 5.826,-1.154 11.504,-1.433c5.645,-0.278 12.376,0.076 12.433,0.248c0,0 1.778,5.38 2.38,8.022c0.795,3.53 0.712,7.591 -0.127,10.287c-1.23,3.949 -1.88,5.135 -4.627,7.848c-2.037,1.981 -4.916,4.136 -7.886,5.287c-4.114,1.724 -4.533,1.714 -6.958,1.827c-1.603,0.076 -1.765,0.139 -2.642,0.595c-0.271,0.095 -0.447,0.377 -0.688,0.459c-0.203,0.068 -0.588,-0.01 -0.588,-0.01c-13.372,5.878 -23.839,12.433 -31.746,18.286c-0.092,0.068 -0.151,0.372 -0.239,0.445c-0.648,0.531 -1.244,0.933 -1.875,1.418c-0.087,0.067 -0.281,-0.052 -0.367,0.014c-9.303,7.189 -14.572,13.018 -16.51,14.7l0.19,33.473c0,0 4.235,-2.183 6.407,-3.513c1.525,12.96 7.971,25.551 18.146,34.295l-4.414,6.104l-20.343,-14.049l0.283,61.76l10.816,-7.534l0,-6.514c3.223,2.177 6.369,3.026 8.657,12.941c1.83,-3.483 1.669,-8.67 0.85,-12.136c0.013,0 2.746,-2.264 3.584,-4l-4.02,-3.576c0,0 1.041,-8.66 -0.854,-10.404c-1.499,3.931 -2.695,8.097 -8.298,11.129l-0.07,-30.084c2.792,1.774 5.433,3.772 8.194,5.592l0.381,-0.077l2.856,1.963c0,0 -0.303,0.614 -0.58,1.035c-3.471,5.279 2.312,11.755 7.017,7.858c1.842,-1.525 5.299,4.819 5.951,10.92c0.664,3.942 1.021,8.835 2.089,12.259c0.33,0.999 0.201,1.56 -0.503,2.166c-3.604,5.087 -10.851,15.338 -10.851,15.338l5.221,0l0.378,-0.6l-3.849,0c3.315,-4.425 6.478,-9.58 9.917,-13.899c12.813,4.838 33.802,5.955 46.478,3.022c2.618,3.683 5.163,7.543 7.681,11.295l-3.646,0l0.502,0.786l4.931,0l-10.388,-15.339c-7.16,2.137 -24.614,1.304 -24.296,1.127c0,0 -0.049,-0.118 -0.654,-1.858c-2.997,-9.704 -3.274,-18.317 4.244,-25.277c3.993,-3.562 8.454,-5.911 13.434,-5.466c2.227,-0.044 2.27,-0.165 3.199,-0.585c0.511,-0.232 1.571,-0.473 1.571,-0.473l5.046,-2.807l0.665,-0.132l1.452,-0.768l0.3,-0.356l2.346,-1.195l0.262,0.022l3.17,-1.83l0.042,-0.257l1.248,-0.773l0.297,0.315c0.346,0.029 12.428,-7.924 17.467,-12.357l0.312,0.117c5.884,-4.775 13.884,-12.304 16.257,-15.163l-0.128,-14.328l-0.2,-0.175l-0.081,-15.866l-0.459,0l-0.02,-1.956c-2.602,0.966 -5.465,3.39 -5.658,3.289c-1.656,-13.432 -7.822,-25.804 -17.897,-34.89l4.29,-5.943l19.921,13.445l0.054,-3.927l0.248,0c0.244,-15.061 0.378,-54.1 0.378,-54.1l-0.196,-0.018l-0.005,-3.118l-10.182,6.522l-0.143,6.589c-4.515,-1.479 -7.374,-6.919 -8.322,-11.767c-1.316,0.529 -1.926,5.634 -1.441,12.099c-1.395,0.836 -2.288,1.749 -3.143,2.856c1.105,1.396 2.332,2.541 3.685,3.713c-0.283,0.61 -0.88,9.238 -0.287,10.308c0.272,0.79 1.212,0.676 1.217,-0.154c1.373,-6.729 7.736,-11.145 8.093,-10.738l-0.155,31.027l-11.304,-7.948c2.373,-2.688 2.873,-7.222 -0.117,-9.441c-2.998,-2.224 -5.932,-0.338 -6.626,1.077c-3.67,-2.399 -4.906,-11.289 -5.441,-14.769c-0.134,-1.693 -0.568,-3.992 -1.067,-6.066c-0.313,-1.3 -0.685,-2.542 -0.733,-3.706c-0.021,-0.548 0.043,-0.786 0.54,-1.473l10.991,-15.639l-5.611,-0.021l-0.054,0.097l4.413,0.012l-9.912,14.119c-14.912,-4.699 -30.374,-5.836 -46.915,-2.855l-8.171,-11.527l3.714,-0.016l-0.146,-0.248l-4.665,0l0,0Zm8.624,0.133l0.157,0.282l6.423,-0.02l-0.097,-0.239c0,0 -6.469,-0.023 -6.483,-0.023l0,0Zm9.523,0.034l0.123,0.34l4.381,0.016l-0.133,-0.333l-4.371,-0.023l0,0Zm22.372,0.12l-0.043,0.155l4.828,0.008l0.044,-0.155l-4.829,-0.008Zm-14.797,0.003l0.047,0.199l11.649,0l0.043,-0.186l-11.739,-0.013l0,0Zm22.432,0.105l-0.045,0.164l10.054,-0.008l0.086,-0.156l-10.095,0Zm42.427,8.603l0.031,2.123l-6.754,4.307c-0.169,9.079 -0.429,44.004 -0.429,44.004l-1.618,-1.064l0.318,-43.734c0,0 5.975,-3.852 8.452,-5.636l0,0Zm-17.725,1.708l0.229,0l0.069,0.492l-0.394,0l0.096,-0.492Zm0.48,1.283l0.177,0.666l-0.988,-0.005l0.167,-0.642l0.644,-0.019l0,0Zm17.049,0.345l0,1.385l-5.828,3.653l0,-1.375l5.828,-3.663Zm-17.987,1.153l1.524,0.02l0.255,0.766l-1.919,0l0.14,-0.786l0,0Zm-37.427,0.412l1.019,0.153c2.335,5.589 2.938,10.388 3.344,15.382c0.931,6.482 2.811,12.979 4.117,15.741l-1.494,-0.016c-0.173,-0.022 -3.328,-9.406 -3.986,-14.947c-0.176,-1.097 -0.105,-2.115 -0.161,-3.133c-0.333,-4.284 -0.918,-7.504 -2.839,-13.18l0,0Zm1.915,0.224l1.302,0.134c0.909,3.969 2.233,7.715 2.772,11.702c0.86,6.378 1.321,12.891 4.388,19.177l-1.217,-0.011c-1.86,-4.25 -3.012,-8.683 -3.753,-13.476c-0.58,-2.748 -0.586,-4.812 -0.893,-7.297c-0.373,-2.984 -1.52,-6.778 -2.599,-10.229l0,0Zm1.977,0.186l1.302,0.193c0.856,3.942 2.325,8.279 2.714,11.841c0.792,7.255 1.928,14.016 4.209,18.813l-0.911,-0.028c-3.525,-6.848 -3.581,-12.948 -4.569,-19.365c-0.581,-3.78 -1.814,-7.56 -2.745,-11.454l0,0Zm2.075,0.306l1.149,0.178c0.799,3.921 2.235,8.359 2.568,12.336c0.591,7.04 1.836,12.37 4.449,18.054l-1.078,0.02c-3.154,-5.536 -3.577,-12.331 -4.559,-19.213c-0.542,-3.801 -1.765,-7.625 -2.529,-11.375l0,0Zm49.447,0.008l0,1.716l-5.828,3.752l0,-1.692l5.828,-3.776Zm-47.567,0.332l1.201,0.187c0.774,3.782 2.213,7.817 2.553,11.499c0.58,6.293 1.734,12.648 4.321,18.503l-1.109,0.07c-2.736,-5.912 -3.926,-11.292 -4.444,-18.088c-0.291,-3.81 -1.752,-8.456 -2.522,-12.171l0,0Zm31.739,0.02l0.417,1.019l-2.793,0.136l0.035,-1.144l2.341,-0.011l0,0Zm-29.762,0.356l1.428,0.279c1.514,6.033 1.911,11.744 2.942,17.478c1.288,7.124 2.645,10.704 3.755,12.032l-1.182,0.039c-2.885,-6.168 -3.907,-12.3 -4.577,-18.654c-0.395,-3.748 -1.62,-7.441 -2.366,-11.174l0,0Zm2.178,0.407l1.089,0.22c1.299,4.931 1.883,9.542 2.454,14.005c1.039,8.475 3.855,14.922 4.454,15.22l-1.201,-0.055c-2.605,-3.611 -3.569,-9.757 -4.85,-18.432c-0.563,-3.814 -1.123,-7.402 -1.946,-10.958l0,0Zm1.753,0.353l1.22,0.301c0,0 1.101,4.338 1.932,10.095c0.692,4.797 1.055,14.237 6.254,19.665c2.596,2.71 7.168,5.063 10.288,2.505c1.333,-1.139 2.193,-2.966 1.391,-4.919c-1.347,-3.27 -5.91,-2.71 -4.391,0.721c0.17,0.823 -0.902,0.858 -1.649,0.055c-0.785,-0.859 -0.589,-1.837 -0.033,-2.737c1.173,-1.897 4.313,-2.092 6.157,-0.398c2.945,2.893 1.671,7.858 -2.058,9.432c-4.296,1.83 -9.833,-1.949 -12.026,-5.555c-3.627,-6.282 -4.187,-12.244 -5.038,-18.587c-0.432,-3.425 -1.265,-7.021 -2.047,-10.578l0,0Zm1.839,0.507l1.238,0.303c0.004,0.016 1.358,6.112 1.807,9.725c0.556,4.464 1.169,9.725 3.074,13.786c1.185,2.525 2.91,4.649 4.654,5.886c1.499,1.064 2.843,1.737 4.838,1.302c2.303,-0.503 2.402,-4.078 0.205,-4.087c-1.123,-0.004 -0.391,-1.087 0.541,-1.118c3.312,-0.11 3.407,5.126 0.29,6.294c-3.571,1.337 -7.43,-1.184 -9.82,-4.35c-4.182,-6.514 -4.018,-12.456 -4.936,-17.709c-0.245,-2.767 -1.799,-9.902 -1.891,-10.032Zm25.057,0.183l0.756,1.014l-4.204,-0.019l0.018,-0.966l3.43,-0.029l0,0Zm-23.212,0.337l1.185,0.413c0.033,0 1.19,4.734 1.908,10.327c0.853,5.393 1.131,9.882 3.916,13.777c1.158,1.62 3.345,3.782 4.722,4.039c0.853,0.185 1.737,-0.003 1.954,-0.653c0.355,-1.066 1.267,-0.576 1.286,0.391c-0.004,0.677 -0.499,1.379 -1.336,1.623c-4.093,0.71 -7.837,-4.443 -8.974,-7.057c-1.539,-3.802 -2.197,-8.05 -2.865,-13.34c-0.282,-2.239 -1.634,-9.378 -1.796,-9.52Zm37.975,0.188l-0.02,1.709l-5.808,3.673l0,-1.662l5.828,-3.72l0,0Zm-36.191,0.334l1.328,0.364c0,0 1.108,4.162 1.769,9.303c0.67,5.215 2.11,11.273 4.8,14.406c0.245,0.3 0.412,0.513 0.518,0.69c0.193,0.426 -0.038,1.145 -0.237,1.146c-4.792,-2.501 -5.925,-12.554 -6.337,-15.951c-0.607,-5.256 -1.841,-9.958 -1.841,-9.958Zm18.636,0.805l4.228,0.12l1.008,0.996l-5.598,-0.05c-0.591,-0.612 -0.224,-0.542 0.362,-1.066Zm17.555,1.387l0,1.417l-5.828,3.704l0,-1.449l5.828,-3.672Zm-17.409,0.45l6.186,0.107l2.17,1.295l-9.452,-0.078l1.096,-1.324l0,0Zm17.409,1.797l0,1.701l-5.828,3.663l0,-1.596l5.828,-3.768Zm-19.698,0.321l10.512,0.113l0.026,1.142l-11.4,-0.295l0.862,-0.96Zm-1.371,1.955l11.89,0.032l0.03,1.263l-10.812,-0.104l-1.108,-1.191l0,0Zm21.069,0.195l0,1.774l-5.828,3.622l0,-1.682l5.828,-3.714Zm-18.834,1.859l9.114,0.043l-0.989,1.057l-6.872,-0.069l-1.253,-1.031l0,0Zm18.834,0.624l0,1.672l-5.828,3.676l0,-1.649l5.828,-3.699Zm-11.975,1.278l-1.105,1.076l-4.722,-0.065l0.161,-0.98l5.666,-0.031l0,0Zm11.975,1.173l0,1.794l-5.828,3.572l0,-1.554l5.828,-3.812Zm-17.868,0.655l3.897,0.086l-0.596,0.821l-3.41,0.015l0.109,-0.922l0,0Zm-35.04,1.429c0.587,4.512 3.851,13.607 3.85,13.604l-1.285,0.011c0.064,0.087 -2.334,-5.729 -3.198,-11.209c-0.105,-0.523 0.251,-2.287 0.633,-2.406l0,0Zm34.785,0.259l3.001,0.055l-0.653,1.162l-2.444,-0.004l0.096,-1.213l0,0Zm18.123,0.277l0,1.568l-5.828,3.594l0,-1.429l5.828,-3.733Zm-18.219,1.586l1.988,0.063l-0.47,1.076l-1.541,-0.045l0.023,-1.094Zm18.219,0.846l0,1.672l-5.828,3.626l0,-1.614l5.828,-3.684Zm-54.135,0.356c0.585,3.285 3.069,9.886 3.258,10.319l-1.101,0.014c-0.05,0.151 -2.582,-5.917 -2.853,-8.513c-0.13,-0.543 0.157,-1.619 0.696,-1.82l0,0Zm35.896,0.697l1.179,0.055l-0.201,0.614l-0.955,0.024l-0.023,-0.693l0,0Zm0.105,1.479l0.613,0.016l-0.146,0.585l-0.383,0l-0.084,-0.601l0,0Zm18.134,0.031l0,1.352l-5.828,3.699l0,-1.281l5.828,-3.77Zm-55.596,0.147c0.884,2.634 1.768,5.318 2.815,7.887l-1.305,-0.031c-0.864,-1.852 -1.472,-3.934 -2.146,-5.977c-0.186,-0.853 0.209,-1.583 0.636,-1.879l0,0Zm-1.3,1.758l2.169,6.082l-1.232,0c-0.506,-1.223 -1.076,-2.59 -1.476,-3.849c-0.409,-1.306 -0.371,-1.35 0.539,-2.233Zm56.896,0.381l0,1.604l-5.828,3.617l0,-1.383l5.828,-3.838Zm-58.36,1.294c0.283,-0.029 0.303,0.333 0.555,1.059l1.19,3.367l-1.521,-0.038c-0.446,-1.06 -0.719,-1.987 -0.831,-3.019c-0.041,-0.5 -0.132,-1 0.216,-1.21c0.172,-0.098 0.296,-0.15 0.391,-0.159l0,0Zm-1.618,1.27c0.256,0.008 0.356,0.47 0.557,1.167l0.631,1.975l-1.42,-0.036c-0.418,-0.933 -0.578,-1.604 -0.452,-2.581c0.32,-0.371 0.531,-0.53 0.684,-0.525l0,0Zm59.978,0.008l0,1.677l-5.828,3.513l0,-1.557l5.828,-3.633Zm-61.439,1.204l0.596,1.944l-1.283,-0.03c-0.213,-0.456 -0.077,-1.011 -0.084,-1.525l0.771,-0.389l0,0Zm-1.679,0.995c0.018,0.001 0.036,0.006 0.043,0.016c0.183,0.86 0.004,0.914 0.016,0.907l-1.792,-0.011c0,0 1.452,-0.925 1.733,-0.912l0,0Zm63.118,0.504l0,1.341l-5.828,3.644l0,-1.359l5.828,-3.626Zm-69.289,2.122l35.017,0.102l1.167,1.654c0,0 -3.407,0.093 -14.566,0.023c-9.394,0.121 -28.271,-0.201 -28.271,-0.201l1.837,-0.868c2.542,-0.059 4.852,-0.723 4.816,-0.71l0,0Zm69.289,0.198l0,1.476l-5.828,3.541l0,-1.43l5.828,-3.587Zm-98.535,1.417c-2.816,1.252 -5.444,1.559 -7.408,1.4c-4.228,-0.344 -10.696,1.43 -11.997,5.504c-0.409,1.439 -0.414,1.478 0.362,2.211c0.386,0.364 0.759,0.639 0.831,0.612c0.68,-0.606 1.581,-1.729 2.548,-2.057c1.27,-0.385 1.959,-0.438 4.042,-0.53c4.49,-0.2 5.504,-0.389 6.621,-0.685c2.457,-0.653 4.934,-3.078 5.083,-5.779c0.017,-0.31 -0.082,-0.676 -0.082,-0.676Zm-0.122,0.368c-0.474,5.635 -6.559,6.37 -9.232,6.21c-5.42,-0.325 -7.555,1.299 -8.413,2.306c-0.283,0.27 -0.448,0.205 -0.403,-0.041c0.629,-3.12 5.656,-3.237 8.186,-3.203c6.202,0.284 7.773,-2.715 7.597,-2.744c-0.47,0.212 -0.819,0.397 -1.295,0.624c-0.205,0.086 -0.162,-0.04 -0.699,-0.351c-0.008,0.041 -0.62,1.435 -1.412,0.112c0.02,0.066 -0.564,1.175 -1.646,0.139c0.007,0.112 -0.653,1.063 -1.711,0.091c-0.994,0.854 -1.467,0.383 -1.894,-0.217c-0.314,0.188 -1.235,1.436 -2.002,0.093c-0.819,0.523 -1.161,1.09 -1.865,0.748c-1.644,0.295 -3.065,1.986 -3.645,3.535c-0.181,0.532 -0.547,0.616 -0.591,0.031c-0.195,-1.616 2.458,-4.417 5.121,-5.19c2.07,-0.602 3.481,-1.036 8.032,-0.862c2.588,0.099 5.872,-1.281 5.872,-1.281l0,0Zm66.432,0.428l1.641,1.115l-28.565,39.504l-2.521,-0.066l29.445,-40.553l0,0Zm-45.821,0.026l3.247,0l0,5.385l-2.8,0l-1,-1.492c0.259,0.153 0.559,0.244 0.881,0.244c0.961,0 1.74,-0.783 1.74,-1.746c0,-0.964 -0.779,-1.743 -1.74,-1.743c-0.961,0 -1.742,0.779 -1.742,1.743c0,0.085 0.008,0.168 0.02,0.251l-1.047,-1.557c0,0 0.444,-0.266 1.506,-0.74c0.274,-0.122 0.935,-0.345 0.935,-0.345l0,0Zm10.009,0l5.502,0l0,5.385l-5.502,0l0,-5.385Zm12.055,0l5.696,0l0,5.419l-5.696,-0.034l0,-5.385l0,0Zm12.299,0l5.692,0l0,5.385l-5.692,0l0,-5.385Zm43.598,0.128l0.085,1.681l-5.828,3.552l0,-1.661l5.743,-3.572Zm-40.959,0.557c-1.017,0 -1.847,0.825 -1.847,1.845c0,1.019 0.83,1.847 1.847,1.847c1.016,0 1.841,-0.828 1.841,-1.847c0,-1.02 -0.825,-1.845 -1.841,-1.845Zm-24.229,0.097c-1.017,0 -1.842,0.824 -1.842,1.844c0,1.02 0.825,1.848 1.842,1.848c1.017,0 1.842,-0.828 1.842,-1.848c0,-1.02 -0.825,-1.844 -1.842,-1.844Zm12.002,0.036c-1.016,0 -1.841,0.823 -1.841,1.843c0,1.019 0.825,1.848 1.841,1.848c1.017,0 1.842,-0.829 1.842,-1.848c0,-1.02 -0.825,-1.843 -1.842,-1.843Zm6.202,0.22c0.853,0 1.545,0.694 1.545,1.549c0,0.856 -0.692,1.55 -1.545,1.55c-0.853,0 -1.544,-0.694 -1.544,-1.55c0,-0.855 0.691,-1.549 1.544,-1.549Zm-24.416,0.023c0.853,0 1.544,0.694 1.544,1.55c0,0.855 -0.691,1.549 -1.544,1.549c-0.854,0 -1.545,-0.694 -1.545,-1.549c0,-0.856 0.691,-1.55 1.545,-1.55Zm36.599,0.055c0.367,0 0.7,0.14 0.953,0.368l-1.683,2.292c-0.416,-0.25 -0.695,-0.705 -0.695,-1.228c0,-0.791 0.636,-1.432 1.425,-1.432Zm-24.18,0.008c0.853,0 1.544,0.694 1.544,1.549c0,0.856 -0.691,1.55 -1.544,1.55c-0.854,0 -1.545,-0.694 -1.545,-1.55c0,-0.855 0.691,-1.549 1.545,-1.549Zm-18.652,0.112c0.636,0 1.151,0.517 1.151,1.155c0,0.638 -0.515,1.158 -1.151,1.158c-0.636,0 -1.154,-0.52 -1.154,-1.158c0,-0.638 0.518,-1.155 1.154,-1.155Zm-3.534,0.063c9.813,12.535 15.029,25.243 17.323,39.093l-1.646,-0.078c-2.727,-15.064 -8.865,-27.983 -17.191,-38.409l1.514,-0.607l0,0.001Zm40.208,0.011c0.673,0 1.219,0.545 1.219,1.22c0,0.675 -0.546,1.224 -1.219,1.224c-0.673,0 -1.222,-0.549 -1.222,-1.224c0,-0.675 0.549,-1.22 1.222,-1.22Zm-24.229,0.096c0.673,0 1.221,0.545 1.221,1.22c0,0.676 -0.548,1.225 -1.221,1.225c-0.673,0 -1.219,-0.549 -1.219,-1.225c0,-0.675 0.546,-1.22 1.219,-1.22Zm12.002,0.035c0.673,0 1.22,0.545 1.22,1.22c0,0.675 -0.547,1.225 -1.22,1.225c-0.673,0 -1.221,-0.55 -1.221,-1.225c0,-0.675 0.548,-1.22 1.221,-1.22Zm30.538,0.877c0.647,4.961 -0.63,8.163 -4.402,8.682c-4.81,0.662 -5.435,1.026 -5.462,5.594c-0.031,5.414 -0.829,6.978 -4.652,7.406c-4.301,0.481 -5.301,0.993 -4.915,6.356c0.281,3.914 -1.257,5.579 -4.569,6.305c-2.59,0.568 -4.832,1.437 -5.793,4.055l-2.367,0.031c0.615,-4.122 4.747,-6.091 7.395,-6.228c2.855,-0.679 3.452,-1.638 2.989,-6.657c-0.348,-3.779 1.034,-4.927 5.46,-5.79c3.539,-0.7 4.405,-1.719 4.213,-4.622c-0.413,-6.224 -0.004,-7.159 3.523,-7.916c1.796,-0.427 4.722,-0.619 5.837,-1.996c1.269,-1.566 0.946,-2.899 0.831,-4.823l1.912,-0.397l0,0Zm22.733,0.165l0,1.627l-5.828,3.606l0,-1.584l5.828,-3.649Zm-85.647,0.964c-1.246,5.396 3.04,6.569 5.647,7.48c3.033,1.059 3.769,2.594 3.425,7.955c-0.26,4.056 0.185,4.953 2.803,6.346c4.005,2.072 5.081,5.018 3.302,9.33c-1.096,2.659 -0.522,3.404 0.173,5.724l-1.941,-0.018c-0.142,0.044 -1.782,-2.895 -0.383,-6.059c1.658,-3.748 1.611,-5.629 -2.086,-7.315c-2.86,-1.305 -3.737,-2.537 -3.915,-5.223c-0.075,-1.13 -0.066,-1.693 0.198,-4.151c0.332,-3.099 -0.769,-4.432 -5.337,-6.135c-2.036,-0.759 -3.42,-2.526 -3.836,-5.327c-0.117,-0.784 -0.011,-1.688 -0.011,-1.688l1.961,-0.919l0,0Zm68.319,0.585l17.373,11.594l-0.119,2.579l-18.431,-12.352l1.177,-1.821Zm-11.195,0.256c0.841,0 1.523,0.683 1.523,1.526c0,0.843 -0.682,1.526 -1.523,1.526c-0.84,0 -1.521,-0.683 -1.521,-1.526c0,-0.843 0.681,-1.526 1.521,-1.526Zm-54.655,0.666c0.763,0 1.378,0.618 1.378,1.383c0,0.765 -0.615,1.387 -1.378,1.387c-0.763,0 -1.383,-0.622 -1.383,-1.387c0,-0.765 0.62,-1.383 1.383,-1.383Zm83.127,0.163l-0.058,1.554l-5.719,3.548l0,-1.554l5.777,-3.548l0,0Zm-76.939,1.018l39.579,0l-1.016,1.372l-37.812,-0.387l-0.751,-0.985Zm-13.723,0.068c5.254,6.868 10.417,13.943 14.399,27.278l-1.698,0.656c-3.288,-10.734 -8.345,-19.651 -14.308,-27.026l1.607,-0.909l0,0.001Zm90.713,1.223l0,1.7l-4.383,2.676l-1.29,-0.844l5.673,-3.532Zm-93.037,0.182l0.776,1.022c0,0 -0.84,0.663 -1.792,1.345c-2.591,1.859 -2.929,2.069 -3.101,3.28c-0.41,2.874 2.537,4.292 5.495,2.63c1.061,-0.486 3.387,-1.964 3.387,-1.964l0.667,0.988c0,0 -3.334,2.502 -5.29,3.072c-4.292,1.25 -7.496,-4.206 -4.324,-7.446c0.484,-0.495 1.508,-1.159 2.323,-1.688c0.837,-0.542 1.859,-1.239 1.859,-1.239Zm17.666,0.677l36.468,0.217l-23.288,31.929l-1.035,-0.058c-1.805,-11.942 -6.283,-22.376 -12.145,-32.088l0,0Zm-15.902,1.353l2.131,2.986c0,0 -1.389,1.332 -3.683,2.59c-1.84,1.01 -3.83,-0.824 -2.673,-2.477c1.189,-1.642 4.225,-3.099 4.225,-3.099Zm91.273,0.306l0,1.557l-2.526,1.552l-1.154,-0.739l3.68,-2.37Zm-91.539,1.197c-1.011,0.053 -2.688,1.203 -3.259,2.195c-0.245,0.426 -0.158,0.785 0.069,1.078c0.345,0.445 0.753,0.419 1.966,-0.229c2.476,-1.324 2.94,-2.109 1.849,-2.885c-0.15,-0.107 -0.331,-0.156 -0.533,-0.159c-0.031,-0.001 -0.059,-0.002 -0.092,0l0,0Zm-0.081,0.638c0.16,-0.016 0.345,0.034 0.498,0.02c0.428,0.177 0.297,0.71 -0.151,0.836c-0.098,-0.156 -0.841,-0.177 -0.792,0.581c-0.18,0.429 -0.173,0.396 -0.718,0.457c-0.361,-0.088 -0.602,0.163 -0.672,0.321c-0.376,0.202 -0.837,0.139 -0.923,-0.089c-0.083,-0.22 0.226,-0.856 0.487,-0.855c0.126,0.01 0.349,-0.178 0.579,-0.334c-0.008,-0.414 0.478,-0.474 0.619,-0.472c0.138,0.029 0.602,0.035 0.826,-0.345c0.064,-0.08 0.151,-0.111 0.247,-0.12l0,0Zm91.62,0.373l0,2.401l-1.83,-1.173l1.83,-1.228Zm-101.189,0.301c6.641,7.866 11.425,16.239 14.469,27.826l-1.331,0.922c-2.013,-8.123 -5.111,-16.708 -14.277,-27.868l1.139,-0.88Zm77.706,0.132c3.007,2.562 15.33,14.196 17.678,34.845l-1.649,1.014c-1.324,-10.899 -5.598,-23.394 -17.094,-34.468l1.065,-1.391Zm-5.942,0.717c0.84,0 1.521,0.683 1.521,1.525c0,0.843 -0.681,1.526 -1.521,1.526c-0.84,0 -1.523,-0.683 -1.523,-1.526c0,-0.842 0.683,-1.525 1.523,-1.525Zm-73.614,0.596c0,0 1.396,1.439 1.394,1.781c-0.005,0.679 -0.542,1.064 -3.75,2.236c-0.542,0.198 -2.91,0.746 -2.91,0.746l-0.088,-1.153c1.209,-0.437 4.455,-1.218 4.693,-1.91c0.116,-0.272 -0.461,-0.959 -0.339,-0.959l1,-0.741Zm22.129,0.293c0.763,0 1.378,0.622 1.378,1.387c0,0.765 -0.615,1.387 -1.378,1.387c-0.763,0 -1.383,-0.622 -1.383,-1.387c0,-0.765 0.62,-1.387 1.383,-1.387Zm55.903,0.396c10.039,9.837 15.564,21.992 16.855,34.544c-11.692,9.537 -19.635,21.527 -22.791,36.527c-1.56,-2.607 -2.887,-5.605 -4.329,-8.536c15.601,-13.751 18.885,-38.516 5.391,-55.876l4.874,-6.659Zm-61.4,1.876l0.703,1.092c0,0 -0.148,0.133 -2.333,1.494c-3.197,1.991 -3.725,3.29 -2.657,5.327c1.091,2.083 2.309,2.193 5.743,0.526c1.212,-0.589 2.243,-1.208 2.243,-1.208l0.549,1.142c0,0 -1.537,1.255 -4.499,2.344c-2.785,1.024 -5.418,-0.721 -5.912,-3.948c-0.36,-2.345 0.66,-3.603 4.722,-5.914c0.457,-0.243 1.441,-0.855 1.441,-0.855Zm47.837,0.518c0.841,0 1.521,0.684 1.522,1.527c0,0.843 -0.681,1.526 -1.522,1.526c-0.84,0 -1.521,-0.683 -1.521,-1.526c0,-0.843 0.681,-1.527 1.521,-1.527Zm-62.04,0.059l0.919,0.869c0,0 -0.396,0.584 -2.66,1.95c-2.035,1.228 -2.245,1.029 -1.232,1.888c1.889,1.601 4.51,5.146 4.495,6.061c-0.013,0.883 -0.8,1.696 -2.311,2.378c-0.827,0.374 -4.1,1.544 -4.581,1.628c-0.956,0.104 -1.225,0.489 -0.269,1.36c1.624,1.868 3.01,5.867 2.453,7.087c-0.628,1.373 -1.381,1.605 -7.395,1.881c-0.685,0.032 -1.012,-0.163 -0.641,0.716c0.27,0.639 0.553,1.518 1.089,4.23c0.478,2.419 0.397,3.507 -0.54,4.005c-0.538,0.287 -4.721,0.186 -6.449,-0.154c-1.978,-0.39 -2.193,-0.416 -1.873,0.875c0.415,1.784 0.674,6.565 -0.672,7.488c-0.559,0.365 -1.162,0.275 -3.618,-0.554c-1.566,-0.529 -2.924,-1.136 -2.924,-1.136l0.028,-1.482c1.277,0.527 4.777,2.042 5.772,1.563c1.181,-1.697 -0.459,-7.646 -1.085,-8.92c-0.756,-1.521 0.034,-1.853 1.776,-0.909c0.914,0.646 8.79,3.76 8.342,0.973c-0.48,-2.644 -1.336,-5.654 -2.997,-7.544c-1.537,-1.747 -0.771,-2.462 0.939,-1.695c3.026,1.356 9.278,1.023 8.966,-0.383c-0.412,-2.286 -2.481,-5.384 -5.315,-7.787c-0.788,-0.668 -0.819,-0.954 0.11,-1.118c2.647,-0.212 10.223,-0.992 9.164,-2.776c-0.909,-1.46 -2.123,-3.075 -3.156,-3.944c-1.697,-1.427 -3.409,-2.047 -4.167,-2.344l0.048,-1.094c3.45,-0.287 5.243,-1.328 7.783,-3.112l0.001,0Zm-8.352,1.076c-1.237,13.008 -6.662,23.725 -17.86,31.2l-0.062,-1.457c9.844,-7.417 14.571,-17.959 15.852,-28.159l2.07,-1.584l0,0Zm9.507,0.615l0.921,0.829c0,0 -0.238,0.36 -1.563,1.423c-1.031,0.795 -0.671,0.482 0.031,1.429c0.625,0.751 1.737,2.262 1.737,2.262l-0.331,2.01c-1.165,-1.665 -2.133,-2.877 -3.862,-4.656c-0.879,-0.908 -0.828,-0.933 0.426,-1.588c0.94,-0.522 1.705,-1.155 2.641,-1.709l0,0Zm14.35,0.203c0.004,0 0.007,0.002 0.008,0.003c0,0 1.8,3.25 1.798,3.545c-1.07,0.994 -3.875,2.448 -5.023,2.106c-1.771,-0.566 -2.049,-2.461 -0.348,-3.579c1.468,-1.073 3.298,-2.006 3.545,-2.072c0.008,-0.002 0.015,-0.003 0.02,-0.003l0,0Zm10.789,1.092c0.762,0 1.377,0.617 1.378,1.382c0,0.765 -0.616,1.387 -1.378,1.387c-0.763,0 -1.383,-0.622 -1.383,-1.387c0,-0.765 0.62,-1.382 1.383,-1.382Zm-11.169,0.116c-1.315,0.348 -2.605,1.526 -3.329,2.045c-0.263,0.189 -0.055,1.137 0.198,1.463c0.325,0.419 0.924,0.35 1.641,-0.049c0.301,-0.168 0.844,-0.442 1.205,-0.609c1.012,-0.468 1.434,-0.817 1.397,-1.208c-0.162,-0.525 -0.575,-1.681 -1.112,-1.642Zm-26.468,0.503c0.284,1.46 -0.593,4.024 -1.091,5.469c-2.945,3.864 -7.216,5.84 -11.277,7.19c-0.902,0.3 -2.114,0.148 -2.114,0.148c5.619,-5.797 10.436,-10.048 14.482,-12.807Zm26.543,0.097c0.369,0.016 0.635,0.494 0.516,0.776c-0.634,0.343 -0.985,0.052 -0.904,0.533c0,0 0.064,0.75 -0.864,0.768c-0.227,-0.099 -0.62,-0.081 -0.811,0.112c-0.648,0.27 -1.215,-0.3 -0.51,-0.624c0.191,-0.087 0.662,-0.236 0.792,-0.527c0.067,-0.361 0.366,-0.65 0.692,-0.45c0.174,0.013 0.56,0.041 0.686,-0.235c-0.048,-0.31 0.171,-0.338 0.328,-0.35c0.026,-0.003 0.05,-0.004 0.075,-0.003l0,0Zm-38.076,0.649c-0.158,-0.013 -0.277,0.001 -0.312,0.052c-0.274,0.257 -0.709,4.285 -0.425,4.574c0.395,0.403 1.483,0.514 1.587,0.035c0.341,-1.58 0.257,-2.76 0.42,-4.093c0.03,-0.244 -0.795,-0.528 -1.27,-0.568l0,0Zm0.439,0.437c0.14,0.032 0.257,0.225 0.344,0.56c-0.015,0.664 -0.092,2.042 -0.347,2.812c-0.159,0.599 -0.621,0.463 -0.795,-0.089c-0.181,-0.574 -0.03,-2.202 0.313,-2.869c0.182,-0.315 0.345,-0.445 0.485,-0.414Zm26.013,0.011l0.961,1.197c-2.037,19.407 -15.857,36.197 -30.614,42.854l-0.043,-1.287c16.881,-8.893 27.04,-23.699 29.696,-42.764l0,0Zm66.786,0.081l1.829,2.525l-2.621,0.081l0.792,-2.606Zm-78.488,0.821c0.905,0 5.713,2.968 5.071,4.447c-0.512,1.176 -4.536,1.271 -6.381,1.106l0.277,-1.133c0,0 0.562,0.196 2.706,-0.031c2.252,-0.151 2.086,-0.927 -0.494,-2.565c-1.111,-0.697 -1.368,-0.869 -1.368,-0.869l0.189,-0.955l0,0Zm13.324,1.591c1.49,2.519 2.9,5.358 4.225,8.538c-18.178,17.205 -16.767,40.636 -5.306,56.015l-4.939,6.686c-9.875,-9.451 -15.252,-21.078 -17.068,-33.427c14.414,-10.402 21.187,-25.925 23.088,-37.812Zm67.504,0.763l1.085,2.082l-2.607,-0.044l1.522,-2.038l0,0Zm-11.256,1.043c0.841,0 1.521,0.683 1.521,1.525c0,0.843 -0.68,1.523 -1.521,1.523c-0.84,0 -1.522,-0.68 -1.523,-1.523c0,-0.842 0.683,-1.525 1.523,-1.525Zm-42.297,0.41l0.518,1.182c0.024,0.149 -3.678,1.321 -4.87,2.828c-1.101,1.392 -0.997,2.844 -0.378,3.846c1.055,1.428 1.804,1.628 3.584,1.081c1.451,-0.447 2.518,-1.05 3.959,-1.787l0.227,0.596c0.002,-0.031 -2.068,1.219 -3.646,2.111c-0.593,0.335 -1.305,0.477 -1.923,0.462c-3.591,-0.087 -5.494,-4.735 -2.532,-7.48c0.433,-0.402 1.899,-1.208 3.134,-1.847c0.822,-0.425 1.927,-0.992 1.927,-0.992Zm47.541,0.733c11.856,17.153 3.74,35.949 -3.915,42.599l-0.206,-2.019c12.89,-14.727 8.406,-31.925 3.035,-39.57l1.086,-1.01Zm7.629,0.771l0.932,2.119l-2.753,-0.292l1.821,-1.827Zm-47.787,0.693c0.762,0 1.381,0.622 1.381,1.387c0,0.765 -0.619,1.382 -1.381,1.382c-0.763,0 -1.38,-0.617 -1.38,-1.382c0,-0.765 0.617,-1.387 1.38,-1.387Zm38.744,0.271c10.391,15.142 4.597,39.288 -15.225,46.643l-0.102,-1.693c20.211,-8.475 22.197,-31.038 14.076,-43.769l1.251,-1.181Zm-45.046,0.092l1.313,3.556c-1.652,1.11 -2.299,1.299 -4.15,1.75c-1.459,0.335 -2.596,-2.195 -1.476,-3.164c1.279,-1.106 2.655,-1.584 4.313,-2.142Zm-33.703,0.013c0.245,-0.012 -0.013,0.595 -0.64,2.118c-1.383,3.357 -1.476,3.429 -4.956,3.982c-1.811,0.288 -3.16,0.36 -4.447,0.236c-1.943,-0.187 -2.774,-0.738 -1.515,-1.004c3.649,-0.804 7.683,-2.7 10.306,-4.535c0.684,-0.492 1.085,-0.789 1.252,-0.797Zm66.05,0.413c0.943,0 1.71,0.768 1.711,1.715c0,0.946 -0.768,1.713 -1.711,1.713c-0.944,0 -1.707,-0.767 -1.707,-1.713c0,-0.947 0.763,-1.715 1.707,-1.715Zm-51.658,0.474l-0.146,1.32c0,0 -2.109,1.117 -3.107,1.539c-0.763,0.309 -0.815,0.378 -0.571,1.087c0.494,1.416 1.445,3.172 1.445,3.172l-0.88,2.002c-0.538,-1.8 -1.105,-3.703 -2.094,-5.38c-0.937,-1.312 -1.112,-1.474 0.347,-1.749c1.885,-0.636 3.351,-1.096 5.006,-1.991Zm18.826,0.429c-1.031,0.046 -3.186,0.915 -3.399,1.746c-0.121,0.47 0.013,1.127 0.409,1.275c1.072,0.399 3.225,-0.485 3.793,-1.293c0.176,-0.25 -0.092,-0.767 -0.282,-1.089c-0.145,-0.247 -0.117,-0.656 -0.521,-0.639Zm0.053,0.709c0.018,-0.002 0.036,-0.002 0.054,0c0.175,-0.016 0.811,0.792 0.097,0.724c-0.246,-0.024 -0.47,0.069 -0.672,0.279c-0.025,0.388 -0.579,0.535 -0.846,0.403c-0.199,-0.099 -0.478,0.104 -0.506,0.224c-0.401,0.29 -0.907,0.277 -0.972,0.07c-0.136,-0.144 0.268,-0.738 0.621,-0.716c0.075,0.005 0.326,-0.165 0.559,-0.368c0.113,-0.405 0.539,-0.335 0.808,-0.314c0.304,0.123 0.583,-0.274 0.857,-0.302l0,0Zm55.826,0.062l0.763,2.122l-2.724,-0.243l1.961,-1.879Zm-12.618,0.467c0.915,0.26 1.423,1.118 0.918,1.978c-0.564,0.72 -1.084,0.728 -1.905,0.69c0.673,0.799 0.971,1.905 0.315,2.629c-0.996,1.019 -2.919,-0.544 -2.776,-0.687l3.448,-4.61Zm-73.99,0.777c0,0 4.193,3.622 4.223,5.245c0.012,0.619 -0.186,0.819 -0.679,0.983c-1.648,0.548 -6.232,-0.86 -6.232,-0.86l0.59,-1.121c0.721,0.199 4.274,1.121 4.579,0.667c0.317,-0.471 -2.967,-3.684 -2.974,-3.688l0.493,-1.226Zm20.811,1.513l0.503,1.752l-1.715,-0.427l1.212,-1.325Zm66.956,0.314l0.448,2.421l-2.745,-0.643l2.297,-1.778Zm-52.339,0.039l0.409,1.421c-18.212,8.471 -23.531,27.924 -14.033,43.978l-1.074,1.481c-12.713,-20.663 0.164,-41.635 14.698,-46.88Zm-41.472,1.43c0.36,0.005 0.429,0.201 0.427,0.414c-0.001,0.291 -1.84,2.645 -2.436,3.175c-1.291,0.523 -6.274,-1.565 -7.018,-3.181c-0.147,-0.474 0.345,-0.266 1.448,-0.041c2.796,0.8 5.63,-0.299 7.579,-0.367l0,0Zm48.522,0.029c0.762,0 1.381,0.617 1.381,1.382c0,0.765 -0.619,1.387 -1.381,1.387c-0.763,0 -1.38,-0.622 -1.38,-1.387c0,-0.765 0.617,-1.382 1.38,-1.382Zm-23.459,0.029l0.248,2.156l-2.116,-0.123l1.868,-2.033Zm-33.911,1.676c1.386,1.249 3.423,2.282 5.229,2.643c1.125,0.248 0.799,0.364 -0.244,1.445c-0.975,1.022 -0.895,1.152 -1.888,0.647c-1.657,-0.843 -3.461,-2.759 -3.388,-3.801c0.03,-0.433 0.106,-0.936 0.291,-0.934Zm103.448,0.234l0.344,2.3l-2.596,-0.902l2.252,-1.398Zm-72.116,0.828l0.846,2.06l-2.302,-0.066l1.456,-1.994l0,0Zm56.975,0.492c1.085,-0.05 1.506,0.79 1.513,1.476c-0.001,0.288 -0.07,0.774 -0.07,0.774c1.354,-0.864 3.151,-0.154 3.097,1.242c-0.075,1.968 -1.034,1.986 -2.602,1.725c0.858,1.428 -0.161,2.803 -1.775,2.277c-1.471,-0.48 -1.187,-2.036 -0.499,-2.959c-3.471,0.568 -4.399,5.52 -0.391,6.992c-0.806,-1.251 -1.006,-2.745 0.742,-2.996c1.624,-0.233 2.312,1.001 1.61,2.487c1.525,-0.532 2.962,0.346 2.503,1.836c-0.555,1.8 -2.149,1.675 -3.091,0.579c0.676,1.632 -0.887,2.806 -2.067,2.174c-1.86,-0.997 -0.94,-2.774 0.306,-3.247c-4.789,-0.495 -5.9,6.148 -2.37,7.096c-0.907,-0.57 -1.008,-3.186 1.061,-2.827c2.032,0.41 1.547,2.303 0.244,3.164c1.573,-0.337 3.046,1.041 2.089,2.435c-1.129,1.644 -2.686,0.473 -3.263,-0.646c0.181,1.5 -0.769,2.455 -1.993,1.893c-2.101,-0.966 -0.549,-3.385 1.093,-3.23c-3.332,-1.975 -7.862,2.169 -5.193,5.598c-0.104,-1.558 0.67,-2.836 1.737,-2.66c0.94,0.106 1.761,1.18 1.497,2.024c-0.246,0.719 -1.065,1.271 -1.921,1.445c2.548,0.283 2.765,2.092 1.709,2.983c-1.793,1.513 -2.625,-0.233 -3.041,-1.255c-0.365,2.539 -3.35,1.675 -3.453,-0.159c-0.102,-2.01 2.21,-1.968 2.638,-1.855c0.054,-0.069 -1.79,-1.899 -3.757,-2.159l0.013,-1.166c7.755,-4.878 10.422,-13.395 7.961,-21.468l0.467,-0.539c1.264,0.969 2.533,3.047 4.871,2.284c0,0 -0.544,-0.383 -0.813,-0.649c-1.204,-1.19 -0.527,-2.592 1.148,-2.669l0,0Zm-51.093,1.471l0.802,1.183c-11.759,13.817 -9.615,29.626 -2.853,40.091l-0.984,1.194c-5.985,-7.696 -10.871,-26.354 3.035,-42.468Zm-37.269,0.172c0.972,0.562 1.62,1.411 2.527,2.153c0.7,0.569 0.691,0.671 0.112,1.212c-1.302,1.26 -2.034,-0.565 -2.455,-1.31c-0.515,-0.999 -0.568,-2.018 -0.184,-2.055Zm45.861,0.079c0.88,0.084 1.474,0.947 1.428,1.659c-0.016,0.307 0.006,0.555 0.006,0.555c0,0 0.254,-0.314 0.459,-0.692c1.004,-1.684 3.165,-0.715 2.809,1.218c-0.166,0.907 -1.689,1.261 -2.104,1.002c0.395,1.08 1.464,1.334 2.766,1.802c0.455,0.087 1.235,0.31 1.235,0.31l0.031,0.732c-7.053,4.457 -11.046,12.014 -8.461,22.349l-0.779,1.057c-1.423,-3.432 -2.721,-3.357 -5.06,-3.491c0,0 0.582,0.411 0.916,0.808c0.709,0.841 0.394,2.306 -0.588,2.459c-2.274,0.353 -2.296,-1.263 -1.995,-2.359c0,0 -0.408,0.343 -0.607,0.472c-0.902,0.589 -2.026,-0.022 -2.131,-1.188c-0.099,-1.098 0.275,-1.808 1.401,-1.944c0.379,-0.046 0.962,0.049 0.962,0.049c0,0 -0.224,-0.431 -0.347,-0.674c-0.539,-1.061 0.643,-1.968 1.73,-1.739c1.714,0.414 1.579,1.898 0.586,3.064c2.659,0.201 4.054,-1.544 3.858,-3.275c-0.24,-2.112 -1.209,-3.253 -3.301,-3.621c0,0 0.338,0.531 0.482,0.788c0.535,0.952 -0.234,2.122 -1.359,2.115c-1.154,-0.007 -1.893,-1.068 -1.449,-2.115c0.109,-0.255 0.542,-0.575 0.476,-0.604c-0.045,-0.02 -0.64,0.165 -0.804,0.19c-1.386,0.217 -2.276,-1.006 -1.695,-2.228c0.411,-0.865 1.65,-1.098 2.549,-0.674c0.143,0.053 0.317,0.254 0.344,0.209c0.026,-0.042 -0.091,-0.325 -0.128,-0.525c-0.285,-1.119 0.251,-1.718 1.459,-1.64c1.692,0.109 2.322,1.493 1.186,2.74c-0.294,0.321 -0.744,0.797 -0.744,0.797c0.057,0.245 2.413,0.423 3.617,-0.841c1.393,-1.463 1.613,-4.515 0.213,-5.511c-0.231,-0.164 -0.696,-0.491 -0.696,-0.491c0.667,1.341 -0.561,2.884 -1.644,2.596c-2.165,-0.524 -1.978,-2.301 -0.553,-2.863c0,0 -1.445,-0.542 -1.861,-1.125c-0.588,-0.824 -0.389,-1.585 0.316,-2.164c0.889,-0.716 2.151,-0.246 2.761,0.638c0.368,-1.125 0.887,-1.885 2.422,-1.273c1.073,0.514 1.063,1.95 -0.118,2.732c-0.379,0.25 -1.052,0.484 -1.052,0.484c0,0 1.015,0.58 2.251,0.594c2.384,0.027 4.272,-2.791 3.31,-4.946c-0.195,-0.437 -0.683,-1.002 -0.683,-1.002c0,0 -0.052,0.753 -0.2,1.043c-0.551,1.074 -1.818,1.092 -2.567,0.415c-0.681,-0.616 -0.481,-1.439 0.047,-2.001c0.4,-0.425 0.761,-0.509 1.32,-0.77c-0.635,-0.215 -1.341,-0.371 -1.65,-1.03c-0.287,-0.628 -0.086,-1.401 0.675,-1.88c0.343,-0.18 0.668,-0.239 0.961,-0.211l0,0Zm58.252,0.269l0.161,2.437l-2.706,-1.042l2.545,-1.395Zm-74.599,0.143l0.974,2.216l-2.514,-0.011l1.54,-2.205l0,0Zm52.529,0.003c2.363,8.759 -0.96,15.047 -7.264,19.971l-0.698,-0.917c4.927,-4.199 8.615,-9.148 6.985,-17.965l0.977,-1.089Zm-72.434,0.03c0,0 3.651,4.741 2.923,6.345c-0.967,1.531 -6.724,-1.764 -6.649,-1.937l0.722,-0.696c0.914,0.372 3.76,1.946 4.39,1.697c0.22,-1.432 -1.459,-3.288 -2.091,-4.523l0.705,-0.886Zm43.473,0.009l27.714,0.512l-0.829,1.464l-2.159,0.012l-4.283,7.592l-19.918,-0.005l-0.525,-9.575l0,0Zm-31.106,0.763l-0.958,1.738c-0.897,0.276 -3.604,0.326 -3.822,0.506c0.327,0.891 0.686,3.507 0.686,3.507l-1.067,1.369c-0.284,-1.684 -0.759,-3.812 -1.179,-5.372c-0.359,-1.324 -0.258,-1.033 2.553,-1.252c1.26,-0.071 2.558,-0.231 3.787,-0.496Zm5.684,2.096l1.14,2.03l-2.309,0.023l1.169,-2.053l0,0Zm-27.753,0.135c0.126,-0.051 0.842,0.753 0.965,0.985c-0.053,0.528 -0.869,0.815 -0.994,0.627c-0.051,-0.076 -0.068,-1.26 0.014,-1.588c0.003,-0.013 0.007,-0.02 0.015,-0.024l0,0Zm104.545,0.029l-0.024,2.54l-2.745,-1.22l2.769,-1.32Zm21.798,0.572l-0.037,1.646c-9.956,4.877 -24.808,17.972 -29.044,41.46l-0.868,-0.96c4.234,-22.425 18.845,-35.685 29.949,-42.146l0,0Zm-100.148,2.266l1.238,1.87l-2.235,0.245l0.997,-2.115Zm78.404,0.717l-0.219,2.25l-2.704,-1.502l2.923,-0.748Zm-52.011,0.468c0.011,0.534 0.056,0.92 0.089,1.453c-6.135,3.984 -8.208,10.253 -7.186,18.142l-0.85,1.259c-1.996,-7.153 0.019,-15.968 7.947,-20.854Zm-50.222,0.309c0,0 2.337,5.278 1.414,6.522c-0.898,0.734 -2.969,-0.488 -3.911,-0.986l-0.026,-1.262c0,0 0.718,0.369 1.44,0.658c1.485,0.661 1.489,-0.126 0.676,-2.331c-0.287,-0.775 -0.57,-1.672 -0.57,-1.672l0.977,-0.929l0,0Zm121.352,0.156c0.625,0.368 2.652,0.968 2.652,0.968l-0.022,1.496l-4.175,-1.503l1.545,-0.961l0,0Zm-98.979,1.631l1.597,1.677l-2.227,0.512l0.63,-2.189Zm96.975,0.189c0.151,-0.011 0.308,-0.008 0.472,0.012c1.414,0.002 4.142,1.155 4.142,1.155l-0.017,1.66c-1.386,-0.403 -2.995,-1.176 -4.46,-1.392c-1.157,-0.16 -1.089,0.49 -1.095,2.13c-0.008,2.221 0.548,4.227 1.607,6.448c0.877,1.84 0.419,2.332 -1.013,1.51c-2.577,-1.774 -8.07,-3.112 -8.916,-2.079c-0.869,1.061 0.844,6.347 2.823,8.869c0.805,1.025 0.855,1.189 0.48,1.589c-0.305,0.323 -0.797,0.342 -1.665,0.065c-2.856,-0.911 -6.988,-1.117 -8.179,-0.345c-1.181,0.767 1.894,6.061 4.476,7.77c1.674,1.199 1.351,1.794 -1.355,1.855c-4.42,0.021 -7.82,1.01 -7.632,2.221c0.321,2.057 3.183,4.877 6.468,6.375c2.011,0.823 1.17,1.151 -0.166,1.627c-2.236,0.757 -4.384,1.969 -6.487,3.102l-1.011,-1.297c0,0 2.117,-1.35 4.418,-2.646c0.539,-0.304 0.511,-0.415 -0.244,-1.05c-2.452,-2.062 -4.251,-4.362 -4.626,-5.91c-0.366,-1.505 0.383,-2.456 2.61,-3.305c1.376,-0.524 1.882,-0.678 3.097,-0.951c1.749,-0.394 1.779,-0.449 1.031,-1.798c-0.335,-0.605 -0.884,-1.604 -1.22,-2.22c-2.607,-4.472 -1.232,-6.085 4.819,-6.177c1.486,-0.078 1.77,-0.083 1.688,-0.597c-0.322,-2.107 -1.251,-4.526 -1.12,-6.312c0.277,-2.692 3.039,-3.342 7.89,-2.128c1.123,0.282 1.2,0.224 1.003,-0.686c-0.88,-3.843 -0.076,-7.333 2.182,-7.496l0,0.001Zm-17.331,0.299l-0.425,2.61l-2.583,-1.724l3.008,-0.886Zm-96.613,0.616l7.126,0.468l-1.133,1.333l-4.305,-0.081l-0.162,3.687l-1.378,1.185l-0.148,-6.592Zm46.178,0.283l5.865,0l-0.046,6.22l-5.847,0l0.028,-6.22l0,0Zm6.989,0l5.459,0l0,6.22l-5.413,0.058l-0.046,-6.278l0,0Zm6.537,0l5.854,0l-0.053,6.22l-5.798,0l-0.003,-6.22Zm51.128,0.496c-0.138,1.599 0.196,4.491 0.331,5.732c-0.095,0.37 -0.351,0.317 -1.884,-0.031c-1.063,-0.356 -4.01,-0.462 -4.01,-0.462l1.235,-1.312c1.01,0.12 1.806,0.111 2.852,0.242c-0.015,-1.048 0.029,-3.047 0.029,-3.047l1.447,-1.122l0,0Zm-94.795,1.231l1.638,1.654l-2.097,0.538l0.459,-2.192Zm80.008,0.538l-0.652,2.662l-2.372,-2.139l3.024,-0.523Zm19.184,0.074c1.186,-0.028 2.178,0.375 3.273,1.34l0.009,1.359l-2.331,-1.053c-0.027,1.548 1.34,4.346 1.34,4.346l-1.109,0.523c-0.959,-1.573 -1.626,-2.986 -1.681,-4.759c0.012,-0.641 -0.077,-1.726 0.499,-1.756l0,0Zm-99.992,2.685l1.948,1.161l-2.159,0.875l0.211,-2.036Zm80.063,0.596l-0.953,2.738l-2.082,-2.37l3.035,-0.368Zm-103.211,0.872l5.251,1.785l-0.935,0.995l-4.363,-1.382l0.047,-1.398l0,0Zm73.682,0.724l0.432,9.703l-27.75,-0.229l0.966,-1.372l1.803,-0.016l4.75,-8.032l19.799,-0.054l0,0Zm-50.904,0.755l2.063,1.46l-2.144,0.949l0.081,-2.409Zm103.761,0.857l0.005,1.586c-6.7,4.965 -13.945,13.523 -15.177,28.652l-1.808,1.55c0.882,-14.773 7.016,-24.958 16.98,-31.788l0,0Zm-24.443,0.057l-0.974,2.464l-1.927,-2.294l2.901,-0.17Zm7.983,0.454c-0.041,1.465 1.141,6.01 1.141,6.01c-1.826,0.091 -3.598,-0.12 -5.57,0.436l0.929,-1.662c0,0 0.858,-0.091 1.61,-0.24c1.553,-0.31 1.392,-0.122 1.031,-1.476c-0.339,-1.274 -0.358,-1.539 -0.358,-1.539c0,0 1.105,-1.537 1.217,-1.529Zm5.116,0.309c1.821,0.015 4.554,1.653 5.78,2.587l-0.646,0.724c-0.182,0.061 -2.737,-1.311 -4.745,-1.634c0.657,1.305 0.969,2.278 2.425,4.346l-0.938,0.93c-0.283,-0.063 -3.924,-5.457 -2.961,-6.675c0.294,-0.198 0.664,-0.281 1.085,-0.278Zm-107.527,1.262c2.397,14.567 8.127,24.569 17.165,33.57l-0.919,1.205c-10.625,-9.754 -16.425,-22.165 -17.941,-33.838l1.695,-0.937l0,0Zm14.952,0.612l1.953,1.07l-2.006,1.174l0.053,-2.244l0,0Zm103.892,0.044l-0.012,2.136l-1.224,-1.238c0.33,-0.299 0.732,-0.599 1.236,-0.898l0,0Zm-25.757,0.437l-1.331,2.452l-1.739,-2.323l3.07,-0.129Zm23.863,1.057c1.772,0.248 2.341,3.798 1.751,4.489c-0.273,-0.432 -2.713,-1.953 -3.82,-2.591c-0.071,-0.188 1.715,-1.787 2.069,-1.898Zm-28.486,1.823l2.836,0.27l-1.506,2.346l-1.33,-2.616Zm-73.484,0.001l2.208,1.082l-2.005,1.416l-0.203,-2.498Zm99.724,1.043c0.368,0.002 0.782,0.158 1.299,0.446c1.996,1.115 3.044,2.337 2.933,3.423c-0.051,0.499 -0.328,0.6 -0.652,0.237c-0.582,-0.653 -2.547,-1.504 -4.24,-1.836c-1.283,-0.252 -1.4,-0.362 -1.016,-0.957c0.584,-0.902 1.063,-1.317 1.676,-1.313Zm-34.156,1.029c3.071,11.662 8.469,20.638 15.246,28.025l-1.405,1.2c-5.146,-5.921 -10.806,-12.851 -15.427,-27.833l1.586,-1.392Zm6.13,0.624l2.838,0.431l-1.662,2.122l-1.176,-2.553Zm-40.007,0.125c0.329,0.011 -0.976,4.975 -5.483,5.318c-2.853,0.475 -3.174,0.956 -3.217,5.41c-0.058,6.039 -1.03,7.452 -5.951,7.825c-3.259,0.247 -3.687,0.912 -3.136,5.604c0.525,4.467 -1.158,6.744 -5.309,6.74c-3.595,0.299 -5.082,1.981 -5.078,5.322c0.001,1.354 0.023,1.681 0.023,1.681l-2.324,0.182c0,0 0.005,-2.199 0.18,-3.268c0.709,-4.323 2.557,-6.055 6.446,-6.035c3.008,-0.23 3.475,-0.719 3.371,-5.291c-0.116,-4.651 -0.179,-4.62 1.031,-5.838c0.779,-0.785 1.669,-1.137 3.248,-1.286c4.918,-0.465 5.306,-0.794 5.294,-5.852c-0.457,-4.203 0.703,-6.776 3.364,-6.987c5.385,-0.428 5.257,-3.361 5.02,-3.483l2.506,-0.039c0.006,-0.002 0.01,-0.003 0.015,-0.003l0,0Zm11.013,0c3.159,17.087 13.152,33.086 18.636,38.992l-1.07,0.569c-7.994,-9.959 -15.259,-21.394 -18.852,-39.535l1.286,-0.027l0,0.001Zm-5.704,0.007l2.5,0.028l-28.782,40.626l-1.516,-1.146l27.798,-39.508l0,0Zm3.492,0.028c2.704,9.848 4.831,19.479 13.334,32.362l-36.067,-0.237l22.733,-32.125Zm9.958,0.039c0.21,-0.098 1.058,4.982 -0.205,7.328c-1.135,3.175 -0.58,4.963 1.89,6.119c4.241,1.986 5.31,3.969 4.772,8.847c-0.376,3.415 0.654,5.065 3.85,6.163c3.812,1.308 5.48,3.365 5.46,6.735c-0.003,0.517 -0.196,1.108 -0.196,1.108l-2.128,1.254c0,0 0.026,-0.458 0.107,-1.006c0.555,-3.736 -0.151,-4.749 -4.548,-6.511c-4.153,-1.664 -5.182,-3.588 -4.475,-8.386c0.231,-1.565 -0.088,-3.146 -0.734,-4.338c-1.087,-1.941 -3.49,-1.923 -5.217,-3.696c-1.428,-1.518 -1.587,-3.638 -0.371,-7.269c0.754,-2.25 0.868,-3.102 0.282,-4.977c-0.386,-1.235 -0.537,-1.345 -0.537,-1.345l2.05,-0.026Zm-50.091,0.541l2.447,0.679l-1.842,1.917l-0.605,-2.596Zm97.17,0.509c0.84,-0.023 2.464,0.272 3.794,0.936c3.05,1.524 3.605,2.774 0.931,2.1c-1.507,-0.38 -3.675,-0.294 -5.766,0.225c-2.209,0.548 -2.162,0.572 -1.401,-0.768c0.963,-1.696 1.214,-2.46 2.442,-2.493Zm-11.004,0.638c1.85,-0.028 3.715,0.503 5.468,1.162l-0.555,0.957c-1.213,-0.202 -2.487,-0.798 -4.334,-0.651c0.757,1.453 1.655,2.204 2.859,3.486l-0.45,0.961c-0.107,0.13 -3.516,-2.723 -4.199,-4.64c-0.309,-0.866 -0.03,-1.243 1.211,-1.275Zm-40.091,0.221c0.914,0 1.654,0.743 1.654,1.659c0,0.916 -0.74,1.662 -1.654,1.662c-0.913,0 -1.652,-0.746 -1.652,-1.662c0,-0.916 0.739,-1.659 1.652,-1.659Zm34.24,0.05c0,0 2.694,5.346 2.523,5.55c-1.67,0.738 -3.493,1.12 -5.328,1.791l0.352,-1.554c0,0 0.611,-0.043 2.663,-0.827c0.982,-0.375 -1.072,-3.115 -1.072,-3.115l0.862,-1.845Zm-10.946,0.4l2.792,0.502l-1.862,2.092l-0.93,-2.594Zm-52.22,0.02c0.661,-0.053 1.681,1.232 1.679,1.234l-3.385,4.69c-1.611,-0.325 -1.267,-2.773 0.208,-2.847c0.341,0.002 0.963,0.061 0.963,0.061c0,0 -0.454,-0.249 -0.715,-0.596c-0.989,-1.198 -0.053,-2.438 1.25,-2.542l0,0Zm44.528,1.161c3.931,0.033 3.98,4.871 3.227,6.472c-0.547,1.098 -1.38,1.707 -3.896,2.847c-2.181,0.988 -2.425,0.922 -2.425,0.922l-0.521,-1.167c0,0 1.27,-0.562 2.638,-1.115c2.827,-1.145 3.514,-2.02 3.204,-4.071c-0.438,-2.904 -2.675,-3.355 -7.001,-1.409c-0.502,0.226 -1.136,0.453 -1.136,0.453l-0.297,-0.586c0.069,-0.057 3.465,-1.842 5.368,-2.285c0.298,-0.043 0.577,-0.063 0.839,-0.061l0,0Zm-60.804,0.526l2.224,0.736l-1.623,1.599l-0.601,-2.335Zm99.083,0.624c1.965,-0.006 3.585,0.326 3.581,1.029c-0.003,0.334 -0.078,0.363 -1.844,0.609c-2.682,0.373 -7.167,2.669 -9.689,4.801c-1.494,1.262 -1.107,0.969 -0.477,-0.861c0.625,-1.821 1.559,-3.994 2.065,-4.325c1.264,-0.829 4.136,-1.247 6.364,-1.253Zm-32.14,0.251l1.892,0.415l-1.231,1.197l-0.661,-1.612Zm-6.34,1.031c0.678,-0.01 1.011,0.31 1.277,0.96c0.576,1.405 0.007,2.231 -2.185,3.173c-0.994,0.447 -1.881,1.074 -2.97,1.273l-1.378,-3.71c0,0 0.436,-0.16 1.87,-0.755c1.634,-0.678 2.709,-0.931 3.386,-0.941Zm-6.395,0.45c4.377,12.417 9.732,20.483 15.4,27.166l-1.371,0.86c-6.019,-7.143 -11.56,-15.512 -15.551,-27.833l1.522,-0.193Zm48.367,0.385c0.19,0.02 0.285,0.09 0.252,0.225c-0.003,0.52 -7.875,8.004 -12.376,11.814c-2.05,1.736 -1.98,1.721 -2.156,1.507c-0.11,-1.29 0.762,-5.894 1.292,-6.697c3.006,-3.192 7.644,-5.79 12.157,-6.766c0.355,-0.071 0.641,-0.103 0.831,-0.083Zm-42.297,0.056c-0.53,0.015 -1.325,0.337 -2.386,0.747c-1.543,0.598 -1.677,1.318 -0.985,2.211c0.302,0.39 0.614,0.304 2.097,-0.285c1.514,-0.602 2.167,-0.87 2.259,-1.411c0.132,-0.788 -0.303,-1.281 -0.985,-1.262Zm0.14,0.418c0.282,0.009 0.526,0.255 0.524,0.57c-0.001,0.241 -0.35,0.475 -0.711,0.472c-0.128,0 -0.439,0.072 -0.636,0.275c-0.195,0.283 -0.321,0.555 -0.672,0.488c-0.204,-0.039 -0.582,-0.052 -0.729,0.077c-0.692,0.603 -1.379,0.103 -1.06,-0.503c0.081,-0.152 0.361,-0.23 0.588,-0.229c0.197,0.001 0.645,-0.045 0.71,-0.287c0.077,-0.289 0.519,-0.368 0.827,-0.359c0.335,0.045 0.604,-0.123 0.691,-0.263c0.124,-0.112 0.27,-0.227 0.409,-0.238c0.019,-0.001 0.04,-0.004 0.059,-0.003l0,0Zm-35.596,0.097c0.914,0 1.657,0.742 1.657,1.659c0,0.916 -0.743,1.661 -1.657,1.661c-0.913,0 -1.652,-0.745 -1.652,-1.661c0,-0.917 0.739,-1.659 1.652,-1.659Zm-23.923,0.034l2.505,0.342l-1.578,2.03l-0.927,-2.372Zm50.026,1.28c0.913,0 1.653,0.742 1.653,1.658c0,0.916 -0.74,1.659 -1.653,1.659c-0.914,0 -1.654,-0.743 -1.654,-1.659c0,-0.916 0.74,-1.658 1.654,-1.658Zm-48.906,1.874l2.719,0.174l-1.558,2.088l-1.161,-2.262Zm14.354,0.399c0.913,0 1.651,0.741 1.652,1.657c0,0.916 -0.739,1.658 -1.652,1.658c-0.914,0 -1.654,-0.742 -1.654,-1.658c0,-0.916 0.74,-1.657 1.654,-1.657Zm67.917,1.034c1.134,-0.018 2.448,0.097 2.448,0.097l-0.318,1.275c-1.382,0.132 -3.157,-0.252 -4.64,0.37c0.55,0.903 3.777,2.181 4.134,2.499c0.033,0.134 -0.266,1.351 -0.266,1.351c0.087,0.311 -5.461,-2.258 -5.645,-4.426c0.005,-0.735 2.397,-1.135 4.287,-1.166Zm-19.081,1.325c3.152,0.029 4.709,4.444 3.484,6.398c-0.485,0.884 -1.58,1.931 -3.024,2.854c-0.694,0.444 -2.534,1.348 -2.534,1.348l-0.826,-1.281c0,0 0.734,-0.295 1.425,-0.674c1.737,-0.983 5.259,-3.081 3.556,-5.935c-0.956,-1.545 -2.386,-1.846 -5.359,-0.332c-2.218,1.13 -2.723,1.236 -2.723,1.236l-0.563,-1.024c0.147,0.085 4.429,-2.5 6.564,-2.59Zm10.156,0.165c1.505,2.922 4.081,5.129 4.784,5.659c0,0 -2.565,1.652 -4.097,2.704l-0.899,-1.061l2.2,-1.894l-2.478,-3.467l0.49,-1.941Zm-71.701,0.295l2.475,0.005l-1.058,2.237l-1.417,-2.242l0,0Zm95.853,0.411c-0.279,1.442 -0.322,2.973 -0.44,4.658c0.543,0.498 1.031,0.747 1.457,0.718c0.479,-1.515 0.823,-3.237 0.594,-5.01c-0.453,-0.354 -1.049,-0.314 -1.611,-0.366Zm0.746,0.433c0.063,-0.019 0.132,-0.016 0.206,0.013c0.308,0.15 0.282,0.372 0.289,0.65c-0.008,0.952 0.124,2.139 -0.281,3.057c-0.231,0.522 -0.758,0.326 -0.777,-0.384c-0.024,-0.96 0.171,-1.767 0.226,-2.641c0.024,-0.374 0.15,-0.636 0.337,-0.695l0,0Zm-35.242,1.317c1.625,0.122 2.251,1.485 1.652,2.464c-1.469,1.882 -2.971,2.224 -4.897,3.312l-1.923,-3.606c0,0 3.743,-2.119 5.168,-2.17Zm-0.045,0.805c-1.075,0.126 -1.754,0.653 -2.657,1.097c-1.107,0.543 -1.467,1.385 -0.716,2.147c0.828,0.925 3.718,-1.28 4.195,-1.813c0.294,-0.457 0.245,-0.875 -0.168,-1.204c-0.179,-0.143 -0.4,-0.225 -0.654,-0.227Zm-59.282,0.153l2.422,0.027l-1.31,1.855l-1.112,-1.882Zm59.229,0.286c0.105,0.008 0.199,0.041 0.273,0.093c0.413,0.294 0.377,0.819 -0.203,0.968c-0.294,0.075 -0.801,0.078 -0.812,0.471c-0.009,0.293 -0.455,0.402 -0.71,0.36c-0.26,-0.042 -0.7,-0.065 -0.785,0.262c-0.223,0.446 -0.39,0.453 -0.702,0.142c-0.334,-0.339 -0.177,-0.767 0.476,-0.839c0.279,-0.031 0.521,-0.235 0.621,-0.449c-0.015,-0.279 0.179,-0.44 0.487,-0.376c0.434,-0.005 0.719,-0.167 1.028,-0.573c0.108,-0.051 0.222,-0.067 0.327,-0.059l0,0Zm-13.892,0.142c0.913,0 1.653,0.741 1.653,1.657c0,0.916 -0.74,1.661 -1.653,1.661c-0.914,0 -1.652,-0.745 -1.652,-1.661c0,-0.916 0.738,-1.657 1.652,-1.657Zm-35.299,3.05c0.913,0 1.656,0.745 1.656,1.662c0,0.916 -0.743,1.657 -1.656,1.657c-0.914,0 -1.653,-0.741 -1.654,-1.657c0,-0.917 0.74,-1.662 1.654,-1.662Zm69.619,1.404l0.012,1.248c0.042,0.056 -2.574,1.214 -4.106,1.91c-0.496,0.272 -0.303,0.8 -0.272,1.345l-0.738,0.501c0,0 -1.02,-0.746 -1.154,-1.225c-0.374,-1.512 4.426,-3.322 6.258,-3.779l0,0Zm-109.174,0.067l18.934,12.988l-1.295,1.894l-17.584,-11.995l-0.055,-2.887l0,0Zm95.061,0.423c1.232,0.001 2.181,0.712 3.1,2.145c1.825,2.847 0.91,5.092 -2.868,7.386c-1.756,1.066 -1.769,1.079 -1.769,1.079l-0.893,-1.105c0,0 1.279,-0.755 1.808,-1.089c3.106,-1.968 3.98,-3.709 2.615,-5.67c-1.316,-1.89 -2.699,-1.739 -6.535,0.708c-0.776,0.495 -1.703,0.883 -1.703,0.883l-0.842,-1.146c0,0 2.172,-1.119 2.912,-1.592c1.7,-1.088 3.088,-1.6 4.175,-1.599Zm-13.222,0.852c0.914,0 1.657,0.742 1.657,1.658c0,0.917 -0.743,1.662 -1.657,1.662c-0.913,0 -1.653,-0.745 -1.653,-1.662c0,-0.916 0.74,-1.658 1.653,-1.658Zm-51.292,0.465c0.913,0 1.652,0.742 1.652,1.658c0,0.916 -0.739,1.657 -1.652,1.657c-0.913,0 -1.654,-0.741 -1.654,-1.657c0,-0.916 0.741,-1.658 1.654,-1.658Zm64.444,1.324c0.627,-0.022 1.098,0.388 1.355,1.015c0.657,1.604 -0.236,2.792 -3.47,4.61c-0.272,0.153 -0.847,0.463 -0.847,0.463l-2.383,-3.299c0,0 0.839,-0.579 1.63,-1.054c1.772,-1.162 2.908,-1.705 3.715,-1.735Zm-0.317,0.79c-0.153,0.004 -0.328,0.064 -0.532,0.183c-0.831,0.479 -2.218,1.001 -2.873,1.87c-0.383,0.532 -0.21,1.061 0.516,1.743c0.615,0.408 3.791,-1.937 3.87,-2.618c-0.268,-0.721 -0.524,-1.19 -0.981,-1.178Zm-94.538,0.179l0.528,0.356l-0.528,0.418l0,-0.774Zm94.569,0.398c0.195,0.011 0.379,0.067 0.474,0.18c0.235,0.287 0.094,0.774 -0.404,0.859c-0.251,0.043 -0.622,0.112 -0.742,0.484c-0.1,0.245 -0.442,0.453 -0.78,0.445c-0.389,-0.09 -0.595,0.146 -0.615,0.318c-0.192,0.329 -0.668,0.382 -0.957,0.073c-0.226,-0.24 0.179,-0.932 0.445,-0.922c0.047,0.023 0.339,0.088 0.694,-0.387c0.071,-0.345 0.471,-0.557 0.762,-0.544c0.295,0.101 0.468,-0.226 0.586,-0.407c0.136,-0.073 0.342,-0.109 0.537,-0.099Zm-93.311,0.431l0.761,0.515l-2.019,1.437l0,-1.158l1.258,-0.794Zm1.475,0.967l1.035,0.695l-3.768,2.707l0,-1.469l2.733,-1.933Zm1.931,1.236l1.092,0.725l-5.756,3.901l0,-1.504l4.664,-3.122Zm2.074,1.055l0,1.254l-6.738,4.718l0,-1.271l6.738,-4.701Zm0.761,0.901l1.451,0.996l0.364,42.528l-9.08,6.257l0.008,-1.86l7.624,-5.526l-0.367,-42.395l0,0Zm109.519,1.15c-2.036,2.332 -4.768,2.488 -7.149,2.425c-6.418,0.09 -10.401,0.434 -11.226,8.11c2.614,-1.96 5.385,-2.215 8.595,-2.122c4.065,-0.006 5.894,-0.273 7.546,-1.1c2.654,-1.328 4.334,-3.706 4.013,-5.375c-0.315,-0.36 -1.14,-1.849 -1.779,-1.938Zm-110.28,0.373l0,1.472l-6.738,4.527l0,-1.494l6.738,-4.505Zm76.942,0.136c0.914,0 1.657,0.742 1.657,1.658c0,0.917 -0.743,1.657 -1.657,1.657c-0.913,0 -1.651,-0.74 -1.652,-1.657c0,-0.916 0.739,-1.658 1.652,-1.658Zm-43.987,0.17c11.905,0.371 37.19,0.228 37.19,0.228l1.348,1.949l-39.755,-0.419l1.217,-1.758Zm77.597,0.07c0.364,-0.024 0.413,0.468 -0.339,1.208c-1.425,1.401 -2.903,2.087 -7.585,2.003c-4.947,-0.089 -6.875,0.694 -8.155,2.904c-0.372,0.642 -0.364,0.893 0.174,0.407c0.452,-0.539 1.48,-1.578 1.905,-0.594c0.84,-0.552 1.567,-1.392 2.007,-0.33c0.244,-0.054 1.669,-1.487 2.007,-0.218c0.681,-0.764 1.265,-1.003 1.585,0.081c0.968,-0.461 1.482,-1.333 2.033,-0.128c0.78,-0.56 1.371,-1.26 1.826,-0.193c0.665,-0.197 1.343,-1.421 1.728,-0.445c0.071,0.024 2.476,-1.427 3.158,-2.863c0.558,-1.266 1.072,-0.426 0.437,0.867c-1.631,3.168 -4.419,4.325 -10.82,4.335c-3.886,0.004 -5.494,0.386 -6.714,1.1c-1.96,1.146 -0.903,-1.74 0.47,-3.491c1.731,-2.206 3.704,-2.857 9.109,-2.66c2.955,0.018 4.843,-0.392 5.642,-1.039c0.677,-0.548 1.167,-0.919 1.532,-0.944Zm-87.817,0.671c0.913,0 1.657,0.746 1.657,1.662c0,0.916 -0.744,1.658 -1.657,1.658c-0.914,0 -1.654,-0.742 -1.654,-1.658c0,-0.916 0.74,-1.662 1.654,-1.662Zm-22.735,1.23l0,1.496l-6.738,4.612l0,-1.529l6.738,-4.579Zm32.58,0.717l5.228,0l0,5.534l-5.228,0l0,-5.534Zm11.716,0l5.626,0l0,5.534l-5.626,0l0,-5.534Zm12.523,0.178l5.429,0l0,5.356l-5.429,0l0,-5.356Zm11.763,0.108l3.613,0.125c0,0 2.007,2.56 2.854,3.741l-2.672,1.375l-3.795,0.008l0,-5.249Zm-33.489,0.376c-1.016,0 -1.841,0.824 -1.841,1.844c0,1.02 0.825,1.847 1.841,1.847c1.017,0 1.842,-0.827 1.842,-1.847c0,-1.02 -0.825,-1.844 -1.842,-1.844Zm12.023,0.182c-1.017,0 -1.842,0.825 -1.842,1.845c0,1.019 0.825,1.847 1.842,1.847c1.017,0 1.841,-0.828 1.841,-1.847c0,-1.02 -0.824,-1.845 -1.841,-1.845Zm12.296,0.049c-1.017,0 -1.843,0.822 -1.843,1.842c0,1.02 0.826,1.849 1.843,1.849c1.017,0 1.842,-0.829 1.842,-1.849c0,-1.02 -0.825,-1.842 -1.842,-1.842Zm-29.346,0.374c0.363,0.26 0.602,0.68 0.602,1.161c0,0.791 -0.639,1.434 -1.428,1.434c-0.278,0 -0.538,-0.079 -0.757,-0.217l1.583,-2.378Zm5.027,0.019c0.673,0 1.221,0.545 1.221,1.22c0,0.675 -0.548,1.223 -1.221,1.223c-0.673,0 -1.219,-0.548 -1.219,-1.223c0,-0.675 0.546,-1.22 1.219,-1.22Zm30.329,0.047c0.817,0 1.48,0.664 1.48,1.483c0,0.819 -0.663,1.483 -1.48,1.483c-0.816,0 -1.474,-0.664 -1.474,-1.483c0,-0.819 0.658,-1.483 1.474,-1.483Zm6.229,0.003c-1.017,0 -1.842,0.824 -1.842,1.844c0,1.02 0.825,1.847 1.842,1.847c1.017,0 1.843,-0.827 1.843,-1.847c0,-1.02 -0.826,-1.844 -1.843,-1.844Zm-30.591,0.054c0.817,0 1.478,0.665 1.478,1.484c0,0.819 -0.661,1.484 -1.478,1.484c-0.817,0 -1.476,-0.665 -1.476,-1.484c0,-0.819 0.659,-1.484 1.476,-1.484Zm6.056,0.079c0.673,0 1.221,0.545 1.221,1.22c0,0.675 -0.548,1.223 -1.221,1.223c-0.673,0 -1.22,-0.548 -1.22,-1.223c0,-0.675 0.547,-1.22 1.22,-1.22Zm-47.116,0.021l0,1.489l-6.738,4.721l0,-1.463l6.738,-4.747Zm59.412,0.025c0.673,0 1.219,0.545 1.219,1.22c0,0.675 -0.546,1.225 -1.219,1.225c-0.673,0 -1.221,-0.55 -1.221,-1.225c0,-0.675 0.548,-1.22 1.221,-1.22Zm-6.164,0.155c0.816,0 1.477,0.665 1.477,1.484c0,0.818 -0.661,1.482 -1.477,1.482c-0.817,0 -1.48,-0.664 -1.48,-1.482c0,-0.819 0.663,-1.484 1.48,-1.484Zm18.403,0.29c0.673,0 1.221,0.545 1.221,1.22c0,0.675 -0.548,1.223 -1.221,1.223c-0.674,0 -1.22,-0.548 -1.22,-1.223c0,-0.675 0.546,-1.22 1.22,-1.22Zm-52.41,1.282c3.139,-0.036 6.535,1.562 8.45,4.215c2.898,3.887 4.835,8.843 5.715,15.349c0.435,3.223 1.934,12.898 2.784,15.184l-1.17,-0.225c-0.158,0.076 -1.661,-6.085 -2.607,-14.223c-0.35,-3.013 -0.988,-6.904 -2.733,-10.455c-1.992,-4.053 -5.375,-8.35 -9.886,-8.692c-2.632,-0.199 -5.101,1.456 -5.367,3.786c-0.379,1.84 0.697,3.554 2.108,4.128c1.386,0.564 3.042,0.144 3.227,-1.751c0.033,-0.311 0.001,-0.625 -0.115,-0.914c0.642,-0.105 1.131,0.186 1.391,0.729c0.136,0.017 0.006,2.747 -2.136,3.284c-2.583,0.848 -5.565,-1.716 -5.797,-4.33c-0.177,-2.201 1.494,-4.921 3.599,-5.659c0.8,-0.28 1.659,-0.415 2.537,-0.426Zm-19.241,0.848l0,1.518l-6.738,4.663l0,-1.529l6.738,-4.652Zm19.389,0.964c3.769,-0.108 7.439,4.107 8.992,6.884c1.622,2.897 2.907,7.499 3.349,11.829c0.753,7.365 2.16,13.388 2.457,13.661l-1.029,-0.224c-0.215,0.144 -1.631,-6.505 -2.493,-13.906c-0.484,-4.152 -2.02,-8.267 -3.847,-11.438c-1.686,-2.927 -3.959,-5.113 -6.65,-5.43c-1.686,-0.17 -3.421,0.318 -3.761,2.098c-0.18,1.047 0.365,2.074 1.602,2.163c0.292,0.021 0.571,0.044 0.623,0.053c0.654,0.117 -0.374,1.184 -1.05,1.089c-2.417,-0.338 -3.53,-3.576 -1.626,-5.298c1.114,-1.008 2.279,-1.448 3.433,-1.481Zm8.07,1.081l42.326,0.431c0,0 0.037,0.76 -2.597,0.635c-2.24,-0.106 -3.687,0.207 -5.172,0.685l-33.255,-0.074l-1.302,-1.677Zm-27.459,0.492l0,1.41l-6.738,4.729l0,-1.557l6.738,-4.582Zm19.671,0.597c0.813,-0.011 1.642,0.199 2.266,0.562c5.243,3.045 7.246,10.606 7.936,15.365c0.942,7.048 2.029,13.597 2.332,13.758l-1.143,-0.259c-0.153,0.006 -1.402,-6.106 -2.181,-12.953c-0.63,-5.536 -2.518,-11.095 -6.261,-13.434c-2.402,-1.639 -2.874,-1.804 -3.985,-0.847c-0.959,0.826 -1.934,-0.417 -1.131,-1.429c0.554,-0.52 1.353,-0.752 2.167,-0.763Zm-19.671,1.91l0,1.158l-6.738,4.705l0,-1.371l6.738,-4.492Zm30.806,0.029c0.087,-0.08 3.643,5.974 4.766,15.517c0.592,5.024 2.285,13.592 2.556,13.661l-1.232,-0.131c-1.26,-5.053 -1.955,-9.834 -2.629,-14.145c-0.761,-4.876 -1.372,-9.209 -4.402,-14.863l0.938,-0.031c0,-0.004 0.002,-0.006 0.003,-0.008l0,0Zm0.808,0.052l1.101,0.016c1.883,3.595 3.885,9.179 4.576,14.776c0.597,4.835 1.201,9.754 2.926,14.874l-1.18,-0.326c-1.482,-4.156 -2.008,-9.179 -2.805,-14.385c-0.881,-5.755 -2.263,-10.765 -4.618,-14.955l0,0Zm6.793,0.008c1.925,5.002 3.178,7.388 4.058,13.544c0.683,4.779 1.647,10.755 3.842,17.085l-1.114,-0.049c-1.626,-4.369 -2.872,-10.221 -3.442,-15.842c-0.775,-7.635 -4.193,-14.764 -4.225,-14.719l0.881,-0.019l0,0Zm-1.897,0.019c0.104,-0.156 3.672,7.004 4.499,14.873c0.55,5.236 1.771,10.417 3.448,15.42l-1.138,-0.026c-1.316,-1.526 -2.301,-8.757 -3.387,-15.507c-1.108,-6.89 -2.669,-11.127 -4.402,-14.749l0.977,0c0,-0.006 0.002,-0.01 0.003,-0.013l0,0.002Zm-2.876,0.008l1.011,0.004c2.647,5.801 3.746,9.252 4.561,14.862c1.031,7.094 2.021,13.494 3.116,15.16l-1.235,-0.081c-1.705,-5.113 -2.474,-10.222 -3.079,-15.335c-0.655,-5.537 -2.241,-10.28 -4.374,-14.61l0,0Zm5.583,0.046l1.202,0.019c2.071,4.207 3.791,9.323 4.398,15.172c0.333,3.172 0.914,8.04 3.29,15.551l-0.962,-0.061c-1.945,-5.037 -3.113,-10.966 -3.811,-16.136c-0.703,-5.215 -1.945,-9.519 -4.117,-14.545l0,0Zm7.399,0.035c1.135,2.917 2.07,5.814 2.684,8.796l-0.68,1.33c-1.065,-3.936 -2.262,-7.001 -3.455,-10.106l1.451,-0.02l0,0Zm-5.48,0.005l1.464,0.034c2.514,5.852 3.806,12.042 4.16,14.118c0,0 0.347,1.838 0.37,2.441c-0.085,5.114 0.798,8.762 2.695,14.262l-0.869,-0.063c-2.203,-6.391 -2.795,-10.931 -3.358,-15.268c-0.467,-5.453 -2.236,-11.072 -4.462,-15.524l0,0Zm3.381,0.045c1.498,3.751 2.639,7.369 3.678,10.988c-0.047,0.823 -0.125,1.723 -0.659,2.388c-1.222,-4.428 -2.252,-9.03 -4.139,-13.368l1.12,-0.008l0,0Zm2.764,0.031l1.158,0.02l2.309,6.634l-0.904,1.004c-0.678,-2.197 -1.372,-4.612 -2.563,-7.658l0,0Zm6.761,0.047l0.847,1.995l-0.912,0.774c0,0 -0.93,-1.866 -1.174,-2.746l1.239,-0.023Zm1.719,0l0.425,1.15l-0.765,0.585l-0.595,-1.712l0.935,-0.023Zm-6.634,0.023l1.193,0.008c0.482,1.394 1.764,4.807 1.764,4.807l-0.857,0.902c0,0 -1.615,-4.314 -2.1,-5.717l0,0Zm1.849,0l1.058,0.011c0.319,0.906 1.31,3.414 1.31,3.414l-0.731,0.696l-1.637,-4.121l0,0Zm5.533,0.047l1.047,0.05l-0.123,0.259l-0.653,0.326l-0.271,-0.635Zm-34.322,1.476c4.384,2.318 5.593,9.259 6.068,13.076c0.83,6.66 1.76,12.079 1.957,12.225l-0.972,-0.156c0,0 -0.719,-3.422 -1.216,-6.678c-0.414,-2.709 -0.735,-4.977 -0.847,-6.015c-0.069,-0.648 -0.178,-1.404 -0.239,-1.677c-0.612,-2.736 -0.809,-3.362 -1.599,-5.027c-0.758,-1.598 -1.025,-2 -2.285,-3.425c-0.484,-0.547 -0.955,-0.946 -1.12,-1.296c-0.236,-0.501 0.253,-1.027 0.253,-1.027Zm-22.187,0.356l0,1.309l-6.738,4.773l0,-1.497l6.738,-4.585Zm0,2.296l0,1.508l-6.738,4.457l0,-1.335l6.738,-4.63Zm0,2.569l0,1.398l-6.738,4.71l0,-1.445l6.738,-4.663Zm11.252,1.413l0.595,0l0.042,0.98l-0.918,-0.058l0.281,-0.922l0,0Zm-11.252,1.209l0,1.495l-6.738,4.462l0,-1.395l6.738,-4.562Zm10.557,0.57l1.425,0.015l-0.016,1.027l-1.83,-0.062l0.421,-0.98l0,0Zm-0.826,1.646l2.34,0.042l0,0.977l-2.9,-0.047l0.56,-0.972l0,0Zm-9.731,0.212l0,1.57l-6.738,4.493l0,-1.577l6.738,-4.486Zm8.538,1.632l3.425,0.037l-0.02,0.818l-4.089,-0.026l0.684,-0.829l0,0Zm-8.538,0.91l0,1.533l-6.738,4.327l0,-1.379l6.738,-4.481Zm7.108,0.728l4.704,0.066l-0.116,0.789l-5.364,-0.023l0.776,-0.832l0,0Zm-7.108,1.67l0,1.474l-6.738,4.401l0,-1.418l6.738,-4.457Zm5.345,0l6.189,0.142l1.305,1.19l-9.635,0.058l2.141,-1.39l0,0Zm-1.873,2.176l10.641,0.131l0.742,0.69l-11.419,0.042l0.036,-0.863l0,0Zm-3.472,0.337l0,1.565l-6.738,4.426l0,-1.429l6.738,-4.562Zm3.483,1.375l11.793,0.054l-0.854,0.949l-10.955,0.031l0.016,-1.034l0,0Zm-3.483,1.186l0,1.432l-6.738,4.587l0,-1.646l6.738,-4.373Zm3.189,0.747l10.194,0.034l-1.196,0.941l-7.045,0.164l-1.953,-1.139l0,0Zm-3.189,1.769l0,1.368l-6.738,4.842l0,-1.534l6.738,-4.676Zm6.171,0.175l5.985,0.026l0.112,0.807l-5.147,-0.012l-0.95,-0.821l0,0Zm1.656,1.662l4.595,0.046l0.216,1.043l-4.089,-0.055l-0.722,-1.034l0,0Zm-7.827,0.728l0,1.27l-6.738,4.718l0,-1.405l6.738,-4.583Zm12.739,1.042l0.053,0.991l-2.741,0.105l-0.773,-1.038l3.461,-0.058l0,0Zm-0.023,1.759l-0.023,1.042l-1.912,0.03l-0.429,-1.004l2.364,-0.068l0,0Zm-1.7,1.855l1.507,0.011l-0.127,0.802l-1.167,0.015l-0.213,-0.828Zm0.453,1.925l0.734,0l-0.125,0.627l-0.375,0l-0.234,-0.627Zm14.906,10.605l-0.352,0.453l10.534,0l0.115,-0.453l-10.297,0Zm13.581,0l-0.187,0.612l4.754,0l0.132,-0.612l-4.699,0Zm7.765,0.12l-0.146,0.577l12.151,0l-0.201,-0.577l-11.804,0Zm14.539,0l0.247,0.701l4.09,0l-0.271,-0.701l-4.066,0Zm14.108,0l-7.177,0.003l0.259,0.784l7.422,0l-0.504,-0.787l0,0Z" style="fill-rule:nonzero;"/></g></g></g></g></g><path id="path163-0-2-5-8-7-5-0-7-4" d="M47.722,64.451c0,0 -3.721,-6.112 -8.74,-13.298c-3.358,-4.809 -6.043,-10.016 -6.292,-14.502c-0.286,-5.123 2.423,-10.263 7.329,-10.512c4.903,-0.249 6.893,3.95 7.703,7.412c0.81,-3.462 2.8,-7.661 7.703,-7.412c4.906,0.249 7.615,5.389 7.329,10.512c-0.25,4.486 -2.934,9.693 -6.292,14.502c-5.019,7.186 -8.74,13.298 -8.74,13.298Z" style="fill:#d40000;fill-rule:nonzero;"/><path id="path163-0-2-5-8-7-7-8-0-0-6" d="M130.278,184.549c0,0 -3.721,6.112 -8.74,13.298c-3.358,4.809 -6.042,10.016 -6.292,14.502c-0.286,5.123 2.423,10.263 7.329,10.513c4.903,0.249 6.893,-3.951 7.703,-7.413c0.81,3.462 2.8,7.662 7.703,7.413c4.906,-0.25 7.615,-5.39 7.329,-10.513c-0.25,-4.486 -2.934,-9.693 -6.292,-14.502c-5.019,-7.186 -8.74,-13.298 -8.74,-13.298Z" style="fill:#d40000;fill-rule:nonzero;"/></g></g></svg>