<?xml version="1.0" encoding="UTF-8" standalone="no"?><!DOCTYPE svg PUBLIC "-//W3C//DTD SVG 1.1//EN" "http://www.w3.org/Graphics/SVG/1.1/DTD/svg11.dtd"><svg width="100%" height="100%" viewBox="0 0 178 249" version="1.1" xmlns="http://www.w3.org/2000/svg" xmlns:xlink="http://www.w3.org/1999/xlink" xml:space="preserve" xmlns:serif="http://www.serif.com/" style="fill-rule:evenodd;clip-rule:evenodd;stroke-linejoin:round;stroke-miterlimit:2;"><rect id="jack-diamonds" x="0" y="0" width="178" height="249" style="fill:none;"/><clipPath id="_clip1"><rect x="0" y="0" width="178" height="249"/></clipPath><g clip-path="url(#_clip1)"><rect x="-1778.21" y="-747" width="2312.21" height="1245" style="fill:#fff;"/><g id="jack_diamonds"><path id="path7130-4" d="M14.065,55.891c-1.723,-2.849 -3.536,-5.618 -5.801,-7.984c2.265,-2.365 4.078,-5.135 5.801,-7.984c1.723,2.849 3.536,5.619 5.801,7.984c-2.265,2.366 -4.078,5.135 -5.801,7.984Z" style="fill:#d40000;fill-rule:nonzero;"/><path id="path7134-0" d="M163.936,209.077c-1.723,-2.849 -3.536,-5.618 -5.801,-7.984c2.265,-2.366 4.078,-5.135 5.801,-7.984c1.723,2.849 3.536,5.618 5.801,7.984c-2.265,2.366 -4.078,5.135 -5.801,7.984Z" style="fill:#d40000;fill-rule:nonzero;"/><path id="path7136-1" d="M47.906,64.451c-4.135,-6.838 -8.486,-13.484 -13.923,-19.161c5.437,-5.678 9.788,-12.324 13.923,-19.162c4.136,6.838 8.486,13.484 13.923,19.162c-5.437,5.677 -9.787,12.323 -13.923,19.161Z" style="fill:#d40000;fill-rule:nonzero;"/><path id="path7154-5" d="M130.094,222.882c-4.136,-6.839 -8.486,-13.485 -13.923,-19.162c5.437,-5.677 9.787,-12.324 13.923,-19.162c4.135,6.838 8.486,13.485 13.923,19.162c-5.437,5.677 -9.788,12.323 -13.923,19.162Z" style="fill:#d40000;fill-rule:nonzero;"/><path id="path6263-5" d="M23.906,229.552l0,-210.104l130.188,0l0,210.104l-130.188,0Zm46.868,-175.168c-4.656,-1.271 -4.543,3.361 -1.134,3.534c3.82,0.329 5.454,-6.192 3.631,-8.763c0,0 -1.587,4.913 -2.497,5.229Zm-30.208,26.193l-5.591,2.499l-0.022,4.181c2.332,-1.857 4.154,-4.124 5.613,-6.68l0,0Zm38.161,125.646c-1.101,-0.557 -2.427,-1.752 -2.224,-1.962c0.101,-0.104 0.697,0.085 1.238,0.329c4.369,1.844 7.761,1.725 12.971,-0.169c0.394,-0.144 0.983,0.609 0.763,1.023c-2.307,3.419 -9.773,2.203 -12.748,0.779Zm-2.304,-5.131c-1.003,-1.51 0.328,-0.366 0.774,0.063c3.233,3.011 7.612,4.032 11.372,1.194c0.175,-0.195 0.198,-0.375 0.146,-0.511c-0.106,-0.278 -0.108,0.019 -1.715,0.578c-3.609,1.353 -6.65,0.241 -9.616,-2.033c-1.221,-0.944 -1.789,-1.408 -1.789,-1.655c0,-0.226 0.228,-0.367 0.639,-0.296c0.254,0.044 0.965,0.192 1.485,0.234c0.902,0.074 0.833,0.036 1.758,-0.392c1.978,-0.915 3.799,-1.249 5.865,-0.878c0.479,0.086 1.08,0.245 1.162,0.218c0.463,-0.155 -0.22,-0.766 -1.971,-2.157c-0.345,-0.274 -0.774,-0.508 -0.916,-0.746c-0.22,-0.369 0.02,-0.467 0.27,-0.464c0.72,0.009 3.955,2.719 5.064,4.327c0.338,0.489 0.571,0.541 0.572,1.05c-0.065,0.528 -0.149,1.034 0.421,1.774c0.41,0.531 0.805,1.384 0.809,1.425c0.008,0.047 -0.081,0.314 -0.456,0.066c-0.171,-0.031 -0.254,-0.215 -0.566,-0.169c-0.273,0.039 -0.715,0.254 -1.202,0.484c-4.533,2.921 -8.707,1.496 -12.106,-2.112l0,0Zm9.93,-0.204c0.091,0.009 -0.312,-1.67 -0.769,-2.165c-0.9,-0.977 -2.273,-1.155 -3.102,-0.155c-0.467,0.562 -0.98,2.129 -0.98,2.129c0,0 0.727,0.214 0.93,0.214c0.029,-0.351 0.031,-1.332 0.753,-1.908c0.355,-0.28 1.12,-0.272 1.418,-0.039c0.592,0.291 0.841,1.468 0.849,1.926c0.324,0.101 1.069,0.01 0.901,-0.002l0,0Zm-5.48,-2.419c-0.639,0.285 -1.47,0.478 -1.661,0.906c-0.251,0.566 0.636,0.737 1.098,0.927c0.639,0.308 0.653,0.195 0.86,-0.298c0.129,-0.308 0.299,-0.709 0.462,-1.079c0.477,-0.924 0,-0.796 -0.759,-0.456Zm6.916,1.607c0.368,-0.369 0.437,-0.612 0.109,-1.031c-0.149,-0.189 -0.573,-0.382 -1.034,-0.537c-0.592,-0.2 -0.85,-0.442 -0.479,0.361l0.531,1.149c0.273,0.55 0.512,0.403 0.873,0.058l0,0Zm-60.481,-39.218c0.225,0 2.456,-0.732 3.25,-1.086c0.787,-0.301 0.881,-0.293 0.568,-0.729c-0.117,-0.164 -0.212,-0.625 -0.155,-1.13l0.059,-0.705c-1.375,-0.28 -3.428,0.483 -4.135,1.447c-0.502,0.615 -0.451,1.985 0.413,2.203l0,0Zm-0.28,3.438c0.418,0.419 0.533,0.434 1.787,-0.033c0.439,-0.294 1.357,-0.662 2.001,-0.704c1.511,-0.402 1.512,-0.243 1.084,-1.213c-0.197,-0.446 -0.262,-0.815 -0.2,-1.227c0.073,-0.488 0.131,-0.555 -0.144,-0.641c-0.722,-0.227 -4.083,1.032 -4.686,2.012c-0.423,0.689 -0.367,1.28 0.158,1.806l0,0Zm78.17,33.2c0.064,0.774 0.081,1.975 0.083,2.622c-0.031,1.259 0.472,1.552 1.008,0.862c0.53,-1.643 0.742,-4.239 2.005,-5.552c0.937,-0.272 2.088,0.208 2.758,-0.443c1.539,-1.495 0.332,-3.184 -1.077,-3.306c-2.886,-0.055 -4.981,3.461 -4.777,5.817Zm7.04,-4.032c0.1,1.595 -1.487,2.682 -3.101,2.313c-0.653,-0.165 -0.85,-0.015 -1.288,0.92c-0.952,2.565 -1.328,5.138 -1.58,6.821c-0.109,1.514 -0.664,5.456 -0.262,6.712c4.598,5.694 9.439,11.625 14.74,17.486l31.623,0l0,-37.198l-9.062,-8.677l0.018,-13.756c-9.802,4.628 -19.575,9.319 -29.358,13.987c2.132,6.851 -5.097,8.287 -6.682,3.695c-1.372,1.261 -2.497,8.062 -1.991,8.398c0,0 0.182,0.246 0.486,-0.295c0.5,-0.891 1.154,-1.547 1.853,-1.981c2.038,-1.264 4.464,-0.641 4.603,1.575l0.001,0Zm-25.094,-0.694c-1.547,-1.232 -0.718,-3.112 0.567,-3.675c0.681,-0.299 1.775,-0.258 2.978,0.167c1.057,0.487 1.688,0.418 2.771,0.285c0.719,-0.08 0.586,1.428 -0.165,1.817c-0.529,0.274 -1.742,0.144 -3.217,-0.698c-2.546,-1.452 -3.664,0.43 -2.087,2.13c0.873,0.936 -0.623,0.186 -0.847,-0.026l0,0Zm-52.405,-22.524c1.36,-0.877 0.796,-2.425 -0.472,-2.684c-1.707,0.036 -2.141,2 -0.92,2.678c0,0.238 -0.607,0.044 -0.935,-0.202c-0.509,-0.382 -0.045,-1.875 -0.518,-1.935c-0.362,0.007 -3.887,1.256 -4.267,1.505c-1.584,0.901 -0.097,2.934 0.822,2.701c1.909,-0.482 4.504,-0.912 6.29,-2.063Zm-7.879,-2.905c0.032,0.905 0.285,1.308 0.878,1.316c1.241,-0.215 2.395,-0.808 3.553,-1.184c0.905,-0.296 1.272,-0.631 0.583,-1.197c-0.209,-0.24 -0.394,-0.583 -0.294,-1.236c0.238,-0.747 0.056,-0.785 -0.26,-0.821c-0.315,-0.037 -1.035,0.266 -2.882,0.976c-0.971,0.374 -1.158,0.536 -1.41,1.072c-0.113,0.41 -0.183,0.661 -0.168,1.074Zm10.278,11.685c0.214,-0.252 0.687,-1.83 0.687,-2.22c-0.096,-0.649 -0.578,-0.796 -1.005,-0.377c-0.519,0.466 -0.379,1.169 -0.687,1.708c-0.107,0.187 -0.221,0.447 -0.19,0.552c0.167,0.567 0.864,0.671 1.195,0.337Zm4.043,-8.591c15.8,-16.859 25.588,-40.188 8.466,-72.364c-1.048,-1.032 -2.513,2.308 -2.697,2.436l-2.188,1.91c11.59,20.025 9.577,43.06 -4.594,59.439l0.015,1.04c0.034,2.287 0.691,2.188 1.652,1.118c1.017,-1.075 0.336,-0.2 -0.079,0.243c-0.359,0.38 -0.929,1.137 -1.081,1.335c0.187,1.372 1.049,3.93 0.506,4.843l0,0Zm-1.048,-5.066c-0.162,-0.455 -0.335,-1.495 -0.424,-2.296c-0.054,-0.521 -0.076,-1.014 -0.103,-1.523c-0.168,-1.013 -0.58,-3.339 -0.916,-3.851c-0.361,-0.553 -1.244,-0.957 -2.23,-1.02c-0.842,-0.054 -0.912,-0.039 -1.091,0.236c-0.308,0.472 -0.097,2.852 0.216,3.725c0.353,1.024 0.145,1.58 -0.141,2.595c-0.099,0.368 -0.136,0.393 0.045,0.419c0.788,-0.056 1.051,-1.024 1.362,-0.736c0.105,0.106 -0.168,0.901 -0.536,1.704c-0.388,0.848 -0.504,2.015 -0.042,3.452c0.258,0.804 0.148,1.058 -0.008,1.543c-0.105,0.324 -0.287,1.318 -0.293,2.307c0.368,1.239 0.183,1.794 -0.033,2.203c-0.471,1.052 -0.834,2.477 -0.581,3.278c0.111,0.351 0.401,0.05 0.614,-0.551c0.331,-1.188 0.718,-1.452 1.692,-1.453c0.709,0 0.776,0.249 1.01,-0.069c0.533,-0.721 1.833,-3.277 1.858,-3.989c0.502,-1.817 0.527,-3.378 -0.4,-5.974l0.001,0Zm7.556,11.935c0.429,-0.164 1.089,-1.074 1.09,-1.387c0,-0.346 -2.649,-2.927 -3.752,-3.639c-0.5,-0.323 -0.737,-0.094 -1.621,1.098c-0.785,1.058 -0.888,1.067 -0.742,1.271c0.175,0.245 2.875,2.004 3.771,2.503c0.31,0.173 0.835,0.313 1.254,0.154Zm4.965,-4.594c-0.396,-0.304 -3.566,-3.826 -4.507,-4.001c-0.358,-0.067 -1.505,1.242 -1.505,1.539c0,0.204 1.98,2.223 3.383,3.45c0.4,0.35 0.843,0.637 0.983,0.637c0.446,-0.229 1.589,-1.154 1.646,-1.625Zm3.368,-3.323c0,-0.208 -0.35,-0.638 -1.203,-1.478c-2.175,-2.14 -3.386,-3.119 -3.767,-3.116c-0.416,0.139 -1.169,1.408 -1.214,1.85c0.141,0.265 3.779,3.57 4.25,3.891c0.581,0.562 1.853,-0.749 1.934,-1.147Zm3.411,-3.412c0.093,-0.315 -0.089,-0.583 -0.549,-1.025c-0.327,-0.313 -1.486,-1.451 -2.577,-2.528c-2.288,-2.258 -2.292,-2.26 -3.027,-1.205c-0.756,1.087 -0.752,1.095 1.477,3.275c2.377,2.323 2.934,2.794 3.302,2.794c0.565,-0.26 1.179,-0.695 1.374,-1.311Zm-25.492,-2.039c-0.398,-0.119 -0.764,-0.049 -1.077,0.202c-1.685,1.435 0.705,3.283 1.688,2.13c0.654,-0.647 0.628,-2.037 -0.611,-2.332Zm28.992,-1.502c0,-0.241 -0.491,-0.78 -2.19,-2.406c-4.205,-4.022 -4.016,-3.869 -4.482,-3.619c-0.291,0.156 -0.856,1.237 -0.856,1.639c0,0.301 0.404,0.718 3.521,3.634c1.827,1.71 2.368,2.142 2.683,2.142c0.498,-0.247 1.303,-0.782 1.324,-1.39Zm-28.885,0.151c0.826,-0.36 0.98,-1.256 0.512,-1.963c-0.898,-0.793 -2.147,-0.138 -2.168,0.885c0.155,0.957 0.967,1.362 1.656,1.078Zm32.341,-3.529c0,-0.48 -7.201,-7.227 -7.713,-7.227c-0.348,0 -0.597,0.283 -0.924,1.047c-0.284,0.662 -0.255,1.055 0.102,1.399c0.52,0.501 1.908,1.783 3.228,2.98c0.781,0.708 1.678,1.554 1.994,1.879c0.741,0.762 1.556,1.351 1.868,1.351c0.446,-0.261 1.066,-0.614 1.445,-1.429Zm-32.718,-0.87c0.008,-0.271 -0.062,-0.547 -0.256,-0.753c-0.494,-0.527 -1.413,-0.25 -1.644,0.448c-0.21,1.643 1.833,1.716 1.9,0.305Zm5.333,-52.511l1.408,-4.314l4.303,-0.111l0.603,-4.289l4.429,-0.638l0.071,-4.431l4.236,-0.58l-0.262,-4.745l3.929,-0.932l-0.195,-4.393l3.57,-1.097l-0.143,-3.824l0.613,-0.482l-1.544,-1.573l-1.329,0.433l-0.024,3.93l-3.566,1.15l0.376,4.348l-3.604,0.824l-0.045,4.728l-4.14,0.465l-0.296,4.172l-4.039,0.797l-0.602,4.086l-3.919,0.267l-1.196,3.592l-2.59,0.03l0,2.404l3.956,0.183Zm46.817,77.188c-0.135,-0.324 0.218,-0.276 0.833,0.114c0.644,0.407 1.581,0.747 2.248,0.748c0.277,0 1.27,-0.177 2.206,-0.394c1.117,-0.411 2.109,-0.436 3.27,-0.184c0.863,0.116 1.733,0.21 1.932,0.209c0.576,0.081 1.554,-0.633 1.816,-1.082c0.71,-1.216 0.541,0.994 0.544,1.247c0.013,1.132 0.154,2.434 -0.655,1.828c-0.479,-0.248 -1.315,-0.468 -1.983,-0.022c-0.672,0.45 -1.228,0.546 -2.015,0.071c-0.647,-0.255 -0.988,-0.309 -1.472,0.141c-0.539,0.502 -1.845,0.323 -2.546,0.092c-1.203,-0.2 -1.877,-0.375 -2.684,0.264c-0.43,0.247 -0.541,0.063 -0.865,-0.892c-0.323,-0.956 -0.579,-2.021 -0.629,-2.14l0,0Zm3.063,-0.799c-0.076,-0.123 0.57,-0.757 1.006,-0.983c1.28,-0.664 3.824,-0.634 5.643,0.039c0.948,0.351 1.095,0.951 0.172,0.825c-1.919,-0.403 -4.327,-0.735 -6.182,0.15c-0.146,0.078 -0.603,0.028 -0.639,-0.031l0,0Zm1.624,-3.004c-1.313,-0.488 -1.957,-1.007 -1.957,-1.173c0,-0.178 0.282,-0.145 1.314,0.137c1.406,0.523 3.068,0.798 4.455,0.311c0.997,-0.369 1.495,-0.603 1.495,-0.381c0,0.235 -0.412,0.847 -1.097,1.2c-1.365,0.557 -3.165,0.292 -4.21,-0.094Zm28.493,-3.653l0.974,-0.134l-0.338,-4.073l3.588,-1.067l-0.252,-4.051l3.825,-1.318l-0.228,-4.56l3.973,-0.784l0.518,-3.99l3.752,-0.268l0.778,-4.341l4.03,-0.139l0.83,-3.608l2.682,-0.017l-0.012,-2.026l-4.177,0.013l-0.885,3.905l-3.942,0.114l-0.837,4.29l-4.133,-0.03l-0.529,4.623l-3.887,0.639l0,4.979l-3.75,0.974l0.29,4.257l-3.745,1.37l0.423,4.063l1.052,1.179Zm25.052,-95.571c-0.536,0.383 -0.739,1.14 -0.573,1.758c0.528,1.397 2.386,0.961 2.606,-0.055c0.11,-0.441 -0.182,-1.106 -0.689,-1.251c-0.089,-0.025 -0.405,0.005 -0.569,-0.165c-0.119,-0.122 0.621,-0.502 1.056,-0.358c0.544,0.18 0.989,0.9 0.99,1.524c0,0.242 -0.068,0.601 0.019,0.721c0.899,-0.022 1.929,-0.517 2.892,-0.785c1.628,-0.452 2.218,-1.388 1.857,-2.484c-0.301,-0.913 -1.234,-1.275 -2.46,-0.813c-1.683,0.634 -3.658,0.937 -5.129,1.908l0,0Zm-69.523,99.995c5.514,-3.882 8.761,-6.1 15.839,-6.483c-2.525,-1.041 -2.938,-2.408 -3.647,-3.716c-8.768,0.83 -13.424,3.636 -17.589,6.254c1.721,0.813 3.518,1.757 5.397,3.945Zm30.737,-5.384c-2.674,-1.893 -5.856,-3.038 -9.157,-3.922l-2.53,2.626c-0.148,-0.093 7.326,0.076 11.687,1.296Zm25.675,-24.915c-17.247,-26.554 -5.661,-49.919 6.331,-64.807c0.385,-0.489 0.479,-0.513 0.392,-0.902c-0.115,-0.512 -0.256,-3.093 -0.168,-4.584c-22.167,22.012 -22.735,50.688 -8.831,73.447c0.993,-0.89 2.998,-2.076 2.276,-3.154Zm2.586,-2.272c-2.831,-4.724 -17.91,-30.301 5.121,-58.836c0,0 -0.079,-1.455 -0.251,-2.001c-0.309,-0.98 -0.79,-1.375 -0.79,-1.375c-9.673,14.549 -23.731,32.754 -6.173,64.37l2.093,-2.158Zm-13.187,-48.14c0.345,-0.281 0.845,-1.305 0.845,-1.727c0,-0.377 -0.271,-0.692 -2.869,-3.333c-3.464,-3.521 -4.061,-4.06 -4.505,-4.06c-0.419,0 -1.512,1.039 -1.512,1.437c0,0.191 1.02,1.291 3.425,3.697c4.464,4.465 4.253,4.283 4.616,3.986Zm3.19,-6.484c0,-0.212 -0.321,-0.633 -1.08,-1.416c-2.002,-2.065 -4.857,-4.682 -5.108,-4.682c-0.319,0 -1.193,0.709 -1.423,1.153c-0.161,0.313 -0.158,0.384 0.031,0.68c0.354,0.554 4.822,4.802 6.091,5.871c0.763,0.701 1.453,-1.073 1.489,-1.606l0,0Zm1.727,-2.635c0.354,-0.19 1.025,-1.447 0.944,-1.768c-0.038,-0.15 -1.171,-1.372 -2.518,-2.715c-2.666,-2.657 -2.821,-2.753 -3.485,-2.158c-0.602,0.539 -0.978,1.079 -0.904,1.296c0.091,0.264 4.08,4.328 4.895,4.986c0.645,0.52 0.72,0.546 1.068,0.359Zm20.337,-0.197c1.252,-1.205 -0.167,-2.526 -1.198,-1.916c-0.439,0.272 -0.7,0.864 -0.566,1.258c0.223,0.654 1.107,1.01 1.764,0.658Zm2.48,-0.307c2.12,-0.558 3.136,-0.931 3.579,-1.593c0.308,-0.458 0.343,-0.74 0,-1.487c-0.319,-0.69 -0.691,-0.9 -2.019,-0.171c-0.912,0.5 -2.943,0.74 -3.654,1.161c-0.283,0.245 -0.145,0.242 0.084,0.387c0.511,0.326 0.76,0.547 0.705,0.977c-0.121,0.937 -0.025,1.081 1.309,0.726l-0.004,0Zm-2.244,-3.33c1.03,-0.528 0.821,-1.801 -0.328,-2.307c-1.518,-0.4 -2.495,1.43 -1.253,2.322c0.333,0.233 1.177,0.192 1.581,-0.015l0,0Zm3.421,-0.516c1.488,-0.511 2.061,-0.911 2.49,-1.736c0.34,-0.652 0.195,-0.944 0.15,-1.576c-0.068,-0.957 -0.548,-0.848 -1.936,-0.347c-0.677,0.262 -3.917,1.176 -3.963,1.509c1.564,0.896 1.165,1.368 1.178,2.511c0.082,0.261 0.816,0.074 2.081,-0.361Zm-20.29,-1.524c0,-0.433 -4.159,-4.514 -4.6,-4.514c-0.687,0 -1.671,1.07 -1.524,1.657c0.067,0.266 3.967,4.199 4.454,4.491c0.681,0.399 1.626,-0.983 1.67,-1.634Zm2.39,-2.545c0.179,-0.141 0.497,-0.506 0.707,-0.811c0.448,-0.653 0.416,-1.017 -0.12,-1.362c-0.196,-0.126 -1.068,-0.916 -1.938,-1.756c-0.869,-0.841 -1.693,-1.57 -1.83,-1.62c-0.717,-0.096 -2.013,1.055 -1.879,1.644c0.078,0.308 3.265,3.453 3.976,3.923c0.46,0.304 0.681,0.3 1.084,-0.018l0,0Zm5.632,-6.079c0,-0.116 -0.724,-0.582 -1.882,-1.213c-3.542,-1.928 -3.603,-1.942 -4.71,-1.038c-0.379,0.309 -0.69,0.662 -0.69,0.784c0,0.124 0.768,0.949 1.746,1.876c2.031,1.925 2.531,2.341 2.814,2.341c0.585,-0.431 2.632,-2.216 2.722,-2.75Zm4.958,-1.812c0.437,-0.525 0.928,-2.343 0.694,-2.709c-0.214,-0.215 -0.766,-0.182 -1.031,0.058c-0.273,0.248 -0.947,2.532 -0.843,2.803c0.105,0.276 0.8,0.147 1.18,-0.152l0,0Zm-38.692,77.392c0.335,-0.046 0.992,-0.456 1.946,-1.277c1.02,-0.878 4.252,-2.832 4.603,-3.618c0.157,-0.446 0.043,-1.087 -0.294,-1.136c-0.256,-0.037 -0.311,0.16 -2.46,1.712c-1.449,1.047 -3.996,2.918 -4.379,3.314c-0.166,0.425 0.21,0.96 0.584,1.005Zm-0.301,12.507c2.212,-1.538 4.004,-3.131 6.888,-4.912c0.223,-0.294 0.257,-0.733 0.121,-1.091c-0.168,-0.442 -0.4,-0.268 -1.273,0.34c-2.125,1.435 -4.312,3.125 -6.143,4.378c-0.587,0.399 -1.082,0.619 -0.958,0.843c0.164,0.298 1.072,0.388 1.365,0.442Zm2.151,0.943c1.455,-1.192 3.196,-2.331 4.75,-3.484c0.217,-0.217 0.274,-0.95 0.051,-1.251c-0.176,-0.237 -0.03,-0.194 -0.46,0.051c-0.629,0.357 -4.392,2.928 -5.093,3.509c-0.409,0.339 -0.749,0.508 -0.648,0.626c0.47,0.303 0.97,0.49 1.401,0.549l-0.001,0Zm1.829,0.924c0.301,-0.202 2.887,-1.858 3.095,-2.079c0.238,-0.252 0.169,-1.379 -0.062,-1.468c-0.653,0.521 -4.103,2.626 -4.109,2.965c0.351,0.316 0.815,0.607 1.076,0.582l0,0Zm2.766,0.231c0.397,-0.365 0.476,-0.427 0.484,-0.836c0.015,-0.74 -0.168,-0.708 -1.221,0.046c-0.735,0.476 -1.183,0.812 -1.051,1.097c0.522,0.82 1.264,0.173 1.788,-0.307l0,0Zm0.285,1.512c0.206,-0.077 0.208,-0.183 0.178,-0.442c-0.034,-0.288 -0.075,-0.275 -0.388,-0.275c-0.837,0.031 -0.082,0.791 0.21,0.717Zm-10.07,-4.143c0.38,-1.258 0.913,-2.252 1.783,-3.195c3.479,-3.089 2.416,-6.891 0.219,-9.986c2.842,-3.987 5.681,-8.212 8.123,-12.082l-0.009,-6.292l0.328,0.035c-0.113,13.731 0.513,36.247 0.513,36.247l2.826,2.159l-0.381,0.189c0.465,-0.073 -8.228,-5.526 -13.402,-7.075l0,0Zm2.554,-1.568c2.406,-1.82 4.747,-3.25 7.133,-5.188c0.254,-0.21 0.404,-0.221 0.411,-0.697c0.014,-0.906 -0.166,-0.916 -1.058,-0.276c-0.396,0.283 -1.843,1.297 -3.216,2.226c-1.433,0.969 -2.761,1.831 -3.028,2.141c-1.342,1.56 -1.839,2.294 -1.701,2.517c0.144,0.234 0.416,-0.019 1.459,-0.723Zm2.625,-4.41c1.236,-0.816 4.194,-2.873 4.464,-3.127c0.468,-0.442 0.55,-1.145 0.127,-1.226c-0.206,-0.039 -2.496,1.49 -4.431,2.96c-0.943,0.716 -1.152,0.881 -1.152,1.555c0,0.409 0.246,0.33 0.992,-0.162Zm1.232,-3.204c3.792,-2.701 3.694,-2.473 3.612,-3.479c-0.028,-0.339 -0.103,-0.493 -0.254,-0.522c-0.117,-0.022 -0.788,0.46 -1.542,0.992c-0.754,0.532 -1.654,1.246 -2.105,1.56c-1.318,0.916 -1.754,1.162 -1.754,1.687c0,0.518 0.139,0.844 0.368,0.844c0.086,0 0.84,-0.487 1.675,-1.082Zm-0.543,-2.092c1.746,-1.235 3.67,-2.63 3.932,-2.961c0.318,-0.402 0.261,-1.277 -0.145,-1.277c-1.752,1.173 -3.862,2.715 -5.344,3.933c-0.192,0.17 -0.436,0.332 -0.512,0.553c-0.014,0.286 0.344,0.663 0.487,0.675c0.289,0.001 0.733,-0.322 1.582,-0.923Zm-1.137,-4.182c1.333,-0.905 2.545,-1.98 3.87,-2.893c0.994,-0.682 1.276,-0.893 1.217,-1.751c-0.035,-0.495 -0.469,-0.21 -2.153,0.914c-1.235,0.825 -1.803,1.151 -2.241,1.715c-0.307,0.712 -1.321,1.38 -1.374,2.193c0,0.302 0.198,0.159 0.681,-0.178Zm4.093,-5.439c1.024,-0.68 1.121,-0.696 1.01,-1.599c-0.139,-1.13 -0.255,-1.063 -1.234,0.435c-0.643,0.985 -0.863,1.27 -0.766,1.453c0.167,0.313 0.352,0.134 0.99,-0.289Zm-3.73,-8.315c-0.109,-0.503 -0.262,-0.394 -0.778,0.06c-0.948,0.834 -1.098,1.438 -0.507,1.755c0.314,0.168 0.557,0.149 0.743,-0.263c0.402,-0.888 0.515,-1.202 0.542,-1.552l0,0Zm-5.313,7.9c-0.122,-0.459 -0.682,-1.084 -1.108,-1.305c-0.423,-0.219 -0.679,-0.178 -1.083,0.336c-0.372,0.474 -0.199,0.755 0.36,1.464c0.41,0.519 0.576,0.684 0.898,0.684c0.391,-0.154 1.015,-0.681 0.933,-1.179Zm-20.564,19.808c-0.271,-0.524 -0.846,-1.077 -1.109,-0.985c-0.28,0.098 -0.552,0.499 -0.555,0.751c0.115,0.515 0.549,0.864 0.883,0.874c0.628,-0.09 1.01,-0.199 0.781,-0.64Zm2.507,-0.799c-0.541,-0.572 -1.612,-1.835 -1.787,-1.835c-0.274,0 -0.928,0.688 -0.928,0.971c0,0.333 0.975,1.701 1.299,1.81c0.82,-0.076 2.326,0.016 1.416,-0.946Zm3.095,0.161c-0.056,-0.276 -3.104,-3.523 -3.33,-3.523c-0.29,0 -0.864,0.639 -0.864,0.934c0,0.236 0.984,1.523 1.894,2.475c0.453,0.474 0.493,0.543 1.048,0.456c0.605,-0.095 1.393,0.036 1.252,-0.342Zm5.387,-0.725c0,-0.655 -0.342,-1.015 -1.719,-2.507c-0.499,-0.542 -1.343,-1.482 -1.875,-2.091c-1.028,-1.177 -1.469,-1.537 -1.879,-1.538c-0.324,-0.002 -0.82,0.525 -0.82,0.86c0,0.216 2.534,3.126 4.828,5.596c0.509,0.549 0.738,0.708 1.226,0.448c0.281,-0.192 0.239,-0.517 0.239,-0.768Zm-3.967,-7.797c-0.515,0.424 -0.706,0.598 -0.709,0.881c0,0.431 4.37,5.245 4.759,5.245c0.23,0 0.194,-0.031 0.33,-0.549c0.27,-1.571 -0.156,-2.032 -1.289,-3.069c-0.76,-0.695 -2.292,-3.086 -3.091,-2.508Zm7.712,-3.22c-1.22,-1.463 -1.895,-2.136 -2.143,-2.136c-0.17,0 -0.424,0.164 -0.698,0.468c-0.456,0.432 -0.412,0.417 -0.124,0.932c0.15,0.267 0.57,0.793 0.933,1.169c0.673,0.696 1.017,0.916 1.342,0.583c0.287,-0.295 0.995,-0.644 0.69,-1.016Zm-0.637,-3.65c-0.297,-0.003 -0.798,0.535 -0.798,0.827c0,0.248 0.991,1.491 1.682,2.111c0.558,0.502 0.822,0.636 1.21,0.306c0.291,-0.423 0.225,-0.81 0.044,-1.132c-0.494,-0.565 -1.575,-2.087 -2.137,-2.112l-0.001,0Zm3.431,0.359c-0.008,-0.427 -1.257,-2.054 -1.652,-2.216c-0.329,0 -1.027,0.767 -1.027,1.121c0,0.19 0.268,0.613 0.721,1.14c0.891,1.036 1.12,1.265 1.314,1.103c0.318,-0.266 0.651,-0.73 0.644,-1.148Zm1.41,-1.833c0.082,-0.357 -0.139,-0.725 -0.638,-1.353c-0.623,-0.785 -0.929,-0.838 -1.517,-0.23c-0.217,0.224 -0.318,0.42 -0.318,0.529c0,0.3 1.308,1.966 1.551,1.966c0.562,-0.07 0.733,-0.479 0.922,-0.912Zm-2.302,4.126c-0.117,0.538 -0.343,0.89 -0.861,1.139c-3.995,2.884 -3.866,7.584 -4.719,11.923c-6.469,-0.065 -16.695,2.594 -16.632,2.733l34.378,-34.748c0,0 0.427,0.106 0.165,0.411c-2.782,2.004 -2.609,5.9 -4.438,7.852c-3.058,3.701 -5.899,6.913 -7.893,10.69Zm-18.659,14.194c0.056,-0.393 -0.305,-0.5 -0.62,-0.184c-0.309,0.309 -0.187,0.551 0.253,0.5c0.231,-0.027 0.339,-0.12 0.367,-0.316Zm10.594,-1.461c0.127,-0.33 -0.174,-0.639 -2.017,-2.688c-1.865,-2.074 -2.288,-2.559 -2.611,-2.559c-0.274,0 -0.942,0.679 -0.942,0.957c0,0.127 0.294,0.548 0.652,0.934c0.358,0.386 1.039,1.144 1.512,1.685c0.815,0.931 1.202,1.38 1.512,1.597c0.305,0.213 0.535,0.202 1.022,0.202c0.67,0 0.815,0.022 0.872,-0.128Zm3.187,-6.52c0.127,-0.409 0.308,-0.769 0.309,-0.922c0,-0.285 -2.353,-2.69 -2.751,-2.948c-0.477,-0.308 -1.373,0.7 -1.15,1.288c0.062,0.163 0.763,0.988 1.557,1.835c1.01,1.076 1.515,1.582 1.679,1.557c0.169,-0.026 0.191,-0.279 0.356,-0.81Zm0.985,-2.528c0.172,-0.253 0.313,-0.589 0.313,-0.744c0,-0.177 -0.394,-0.655 -0.958,-1.29c-1.05,-1.183 -1.32,-1.32 -1.895,-0.767c-0.572,0.549 -0.378,0.803 0.629,1.946c1.26,1.431 1.403,1.604 1.911,0.855Zm9.003,-11.295c0.392,-0.467 0.4,-0.698 0.041,-1.124c-0.152,-0.181 -0.374,-0.446 -0.492,-0.587c-0.323,-0.389 -0.751,-0.324 -1.192,0.179c-0.21,0.24 -0.35,0.483 -0.349,0.566c0,0.082 0.227,0.414 0.503,0.737c0.621,0.726 1.005,0.805 1.489,0.229l0,0Zm1.379,-1.783c0.267,-0.407 0.147,-0.855 -0.352,-1.311c-0.472,-0.432 -0.706,-0.45 -1.038,-0.081c-0.443,0.494 -0.372,0.659 0.105,1.187c0.538,0.597 0.971,0.686 1.285,0.205Zm1.106,-1.479c0.368,-0.369 0.361,-0.685 0.031,-1.105c-0.309,-0.394 -0.629,-0.501 -0.955,-0.327c-0.566,0.304 -0.506,0.825 0.051,1.414c0.339,0.357 0.497,0.395 0.873,0.018l0,0Zm-26.304,74.12c7.041,0.79 14.604,1.342 27.938,-0.734l0.067,-4.534c-4.159,3.25 -9.618,1.022 -9.933,-2.718c-0.036,-3.334 0.852,-7.18 1.6,-9.922c0.558,-2.038 0.717,-2.824 0.195,-3.22c-1.15,-0.65 -3.191,-0.732 -3.713,-2.086c-0.25,-0.715 -0.274,-1.479 0.092,-0.935c0.168,0.251 1.495,0.869 2.532,1.101c1.806,0.404 2.097,0.539 2.301,1.282c0.129,0.469 -0.168,2.088 -0.644,3.549c-0.34,1.047 -0.738,2.726 -0.738,3.051c0,0.353 0.277,0.411 0.587,0.313c0.134,-0.043 0.768,-0.679 1.168,-1.036c1.735,-1.551 2.238,-1.505 0.757,0.012c-0.59,0.604 -1.402,1.436 -1.402,1.499c0,0.321 0.301,0.285 0.966,0.044c1.026,-0.371 3.431,-0.327 4.501,0.212c1.33,0.67 1.387,0.64 1.356,-1.39c-0.239,-3.793 -0.856,-8.281 -2.089,-11.783c-1.882,-5.342 -5.789,-10.298 -11.561,-10.075c-7.035,0.367 -11.282,3.174 -16.068,6.537c2.891,6.426 -1.288,11.349 -2.801,11.999c-0.146,0.062 1.895,6.532 2.766,9.819c0.792,2.985 2.123,9.015 2.123,9.015l0,0Zm29.952,-154.999c-0.164,-0.423 -4.078,-13.202 -5.173,-18.547c-10.581,-0.617 -18.405,-1.497 -27.723,1.153c0,0 -0.202,3.6 -0.104,3.775c0.095,0.445 0.415,0.435 0.677,0.289c4.304,-2.369 8.968,-1.302 9.292,4.541c0.123,2.231 -0.625,3.803 -0.762,5.92c-0.119,1.848 -1.57,4.312 -0.69,5.716c0.112,0.172 0.732,0.512 1.579,0.876c1.58,0.678 2.199,1.3 2.315,2.335c0.172,0.714 -0.264,1.194 -0.395,0.461c-0.084,-0.466 -0.165,-0.876 -2.116,-1.545c-1.901,-0.652 -2.413,-1.409 -2.603,-1.807c-0.261,-0.549 -0.212,-0.938 0.033,-1.814c0.52,-1.862 1.033,-3.762 0.986,-4.659c-0.017,-0.323 -0.374,-0.166 -0.83,0.223c-0.58,0.494 -3.059,2.129 -3.128,2.059c-0.033,-0.032 0.409,-0.691 1.103,-1.356c0.842,-0.807 1.889,-1.784 1.889,-1.963c0,-0.317 -0.123,-0.097 -0.939,0.146c-1.423,0.393 -3.063,0.337 -4.165,-0.151c-0.935,-0.413 -1.59,-0.652 -1.729,-0.426c-0.347,5.691 0.497,11.558 2.88,16.134c2.135,4.159 6.572,9.366 13.245,8.197c6.894,-1.207 13.602,-6.763 13.361,-6.77c-2.573,-5.836 0.359,-10.183 2.997,-12.787l0,0Zm-54.653,155.377c-3.054,-3.065 -10.755,-6.4 -16.048,-7.93c-0.423,-0.092 -0.84,-0.294 -0.843,0.209l-0.063,10.52l-9.517,8.882l0,4.232l20.293,0l13.321,-19.564c0,0 0.642,-0.116 0.713,-0.235c-2.445,-10.392 -6.127,-18.691 -8.466,-22.85c0.039,0.051 -3.364,2.754 -6.356,-0.606c-1.679,-1.886 -0.649,-5.198 0.944,-6.411c-1.344,-0.991 -4.128,-2.787 -5.954,-3.305c-0.38,-0.093 -0.945,0.676 -1.131,1.373c-0.334,1.132 -0.888,2.144 -1.261,3.285c-0.409,0.954 -0.804,1.097 -1.414,0.83c-0.951,-0.283 -1.204,-0.382 -1.204,-0.382l0.031,12.368c7.301,2.538 14.816,9.041 16.956,19.584l-0.001,0Zm30.346,-132.17l2.163,-2.354c-3.422,-0.42 -7.009,-1.033 -11.207,-2.354c2.915,2.171 5.967,3.515 9.044,4.708Zm-11.887,-6.621c3.815,1.274 8.641,4.246 14.668,3.127c-5.494,-2.184 -9.666,-7.286 -11.443,-17.673c-0.389,2.016 -1.192,6.209 -2.458,6.662c-1.777,-6.893 -8.925,-2.884 -6.059,2.738c-7.244,4.987 -15.954,7.801 -23.854,11.647c0,0 -1.189,3.657 -7.107,8.666c-1.117,-5.873 0.214,-14.586 -0.478,-20.487l-9.278,-8.778c0.143,1.672 0.078,2.709 0,4.667c0.255,0.341 0.607,0.519 0.964,0.733c0.599,33.831 -0.207,67.273 -0.199,98.002c-0.092,18.831 0.405,38.452 0.13,56.231l-0.347,0.644l0.014,4.249l9.473,-9.037c0,0 -0.44,-6.413 0.056,-11.313c5.978,1.206 11.554,4.021 16.553,7.108c0.629,0.175 -3.068,-12.312 -16.512,-17.858c0,0 -0.018,-3.9 -0.018,-12.379c0,-8.179 -0.128,-9.044 -0.309,-9.177c-0.544,0.592 -7.424,2.915 -7.772,2.522c0.184,0.061 -1.941,-14.478 -0.104,-16.686l6.581,0.139c1.883,1.522 1.127,-0.332 2.219,-0.637c0.656,-0.177 3.7,1.012 3.7,1.012c12.543,-14.836 11.29,-39.234 2.288,-52.962c-2.306,1.876 -4.758,4.42 -7.07,5.511c-0.028,-0.079 -0.043,-7.569 -0.043,-7.569c11.986,-7.708 25.023,-30.035 24.191,-30.111c0,0 3.711,3.622 5.152,5.67l-11.831,17.169c2.71,5.467 5.451,10.425 7.23,15.233c0.241,0.65 0.982,0.632 1.168,1.316c0.16,0.585 -0.553,1.397 -0.454,2.043c2.497,9.567 3.063,19.72 0.599,28.917c-0.519,2.07 0.433,3.748 1.704,5.306c0.105,0.135 -1.185,-1.119 -1.3,-1.189c-0.443,-0.266 -1.18,0.668 -1.336,1.846c0.102,0.722 0.493,0.849 1.012,1.435c0.913,0.76 4.54,4.339 6.138,5.974c1.419,1.451 1.786,1.517 2.742,0.487c0.27,-0.252 0.55,-0.596 0.811,-0.81c0.049,0.08 0.403,-0.289 0.523,-0.407l21.367,-20.896c2.482,-2.427 -21.335,21.925 -21.335,21.925c0,0 -11.55,11.361 -14.383,14.161c-2.926,2.893 -3.321,3.526 -3.438,3.741c-0.209,0.384 0.943,0.373 1.468,0.295c0.042,-0.006 -0.44,0.111 -0.928,0.108c-3.008,-0.408 -4.033,2.658 -5.929,3.329c-5.016,3.569 -1.643,9.301 3.15,7.408l1.167,-0.562c2.905,5.405 7.095,15.253 9.062,23.813l-0.793,0.367l-12.638,18.995l71.673,0c-5.148,-5.135 -9.527,-11.44 -13.987,-16.158c-7.148,2.141 -28.761,1.704 -28.42,0.773c0,0 -3.273,-13.274 -5.123,-19.795c5.875,-5.042 5.273,-12.996 -3.256,-16.567c6.209,-4.912 12.46,-6.577 18.554,-6.976c1.98,5.038 6.627,5.355 8.821,0.743c0.014,-0.052 8.241,2.533 11.274,5.331c-4.497,-0.466 -8.939,-1.363 -13.439,-1.578c3.961,1.567 7.994,5.66 9.286,10.341c0.633,1.672 1.6,7.19 1.856,7.211c0,0 1.501,-6.375 2.665,-6.024c2.969,6.207 8.087,1.538 5.931,-3.406c7.56,-3.616 16.066,-7.654 23.021,-11.005c2.03,-3.067 7.02,-8.891 7.348,-8.916c0,0 9.18,-52.693 9.178,-70.308c-0.305,-21.177 0.369,-44.749 -0.542,-64.557l0,-5.639l-19.342,0l-13.842,20.348c0,0 -0.104,0.323 -0.102,0.463c1.889,8.229 4.313,15.231 8.116,22.833c5.248,-3.971 9.671,2.569 5.735,6.366c-0.739,0.713 -0.541,0.893 0.198,1.389c0.729,0.489 5.71,3 5.942,3c0.9,-1.341 1.161,-3.321 1.769,-4.834c0.153,-0.576 0.587,-0.647 1.455,-0.545c1.116,0.132 1.11,0.597 1.073,-6.515l-0.032,-6.109c-6.729,-3.105 -15.638,-11 -16.054,-19.21c3.891,2.836 12.83,6.959 15.218,7.329c1.048,0.293 0.887,-1.538 0.92,-2.273c0.284,0.191 0.386,3.019 0.386,3.019c-3.949,-1.196 -6.018,-0.952 -15.875,-6.674c1.691,8.075 9.762,14.444 15.615,17.349c0,0 0.244,3.835 0.232,8.132c-0.037,13.103 0.093,13.68 0.093,13.68c0,-0.006 3.221,-0.822 4.115,-1.266c1.597,-1.282 4.156,-0.299 4.51,0.645c0.52,4.945 0.02,9.529 -0.089,14.252c-2.728,0.195 -4.223,0.77 -5.568,0.825c-0.875,-0.117 -1.407,-0.123 -1.854,-0.621c-1.303,-2.82 -1.218,-1.032 -1.377,1.086c-0.119,0.626 -3.38,-0.464 -3.706,-0.653c-14.083,16.244 -12.884,34.945 -3.318,52.264c1.58,-1.068 4.301,-3.107 7.021,-4.446c0.065,2.203 0.103,6.739 0.103,6.739c-11.026,8.105 -24.23,29.578 -23.783,29.637l-4.48,-5.358c0,0 2.82,-4.491 3.814,-5.679c0.116,-0.136 0.19,-1.529 0.19,-1.529l6.845,-9.917c-2.919,-6.618 -6.925,-11.704 -7.955,-18.17c-4.567,-20.673 0.382,-30.955 0.017,-31.738c0,0 -0.061,-0.414 -0.158,-0.495c-0.15,-0.124 0.039,-0.244 0.207,-0.539c0.325,-0.572 0.844,-1.747 0.667,-2.095c-0.131,-0.257 -3.834,-3.967 -7.009,-7.022c-1.67,-1.607 -1.604,-1.791 -2.467,-0.914c-0.32,0.326 -1.107,1.252 -1.107,1.252c-11.471,10.634 -20.575,20.318 -32.087,31.638l-0.553,-0.503c16.747,-16.678 33.648,-33.19 50.233,-50.029l-2.917,0.05c0.082,-0.212 0.203,-0.41 0.373,-0.467c1.564,0.001 3.172,-0.474 4.335,-1.135c2.365,-1.761 5.761,-4.118 6.027,-6.44c-0.171,-4.47 -3.933,-5.117 -6.65,-2.932c-3.777,-6.797 -6.766,-14.973 -8.367,-22.606c-0.076,-0.379 -0.608,-1.033 -0.688,-1.465c0.809,-2.535 13.634,-20.046 13.634,-20.046l-72.025,0l13.708,16.354c0,-0.653 19.535,-2.964 28.483,-0.234l5.448,19.392c-4.95,4.795 -6.413,12.68 2.691,16.785c0.177,0.385 -0.863,1.017 -0.863,1.017c0.145,-0.236 0.396,-0.481 0.294,-0.698c-2.453,-1.075 -5.081,-3.796 -5.081,-3.796c-5.476,4.287 -10.595,6.673 -15.61,6.885c0,0 2.648,1.799 3.159,3.774c0,0 -0.246,-0.03 -0.31,-0.109c-0.544,-0.666 -1.793,-2.818 -2.846,-3.452c-1.785,-0.429 -2.841,-0.117 -4.25,0.856l-1.907,1.845c-4.375,-1.333 -9.235,-3.514 -11.913,-6.825l0.005,0Zm-0.733,47.463l1.997,-1.974c0.229,-1.465 0.626,-3.328 2.313,-5.357c1.872,-2.251 3.941,-4.368 5.465,-6.372c1.83,-2.407 2.823,-4.586 2.342,-5.596c2.728,-0.492 5.231,-2.904 5.311,-7.281c0.032,-2.299 1.14,-5.653 1.223,-5.607c0,0 19.038,-0.649 32.134,-13.158c0,0 0.917,0.2 0.702,0.366c-4.962,4.98 -10.239,8.652 -16.477,10.989l-34.401,34.43l-0.609,-0.44Zm3.809,-3.95c0.514,-0.515 0.63,-0.684 0.339,-0.926c-0.443,-0.369 -1.297,0.393 -1.297,1.157c0,0.486 0.384,0.344 0.958,-0.231Zm1.781,-1.754c0.409,-0.393 0.394,-0.678 0.056,-1.017c-0.465,-0.466 -1.141,-0.18 -1.368,0.571c-0.229,0.757 0.67,1.062 1.312,0.446l0,0Zm1.568,-1.589c0.21,-0.24 0.383,-0.487 0.383,-0.547c0,-0.267 -0.657,-0.871 -0.946,-0.871c-0.369,0 -1.029,0.621 -1.029,0.969c0,0.29 0.662,0.886 0.984,0.886c0.124,0 0.397,-0.197 0.608,-0.437Zm1.477,-2.958c-0.468,-0.395 -0.776,-0.398 -1.161,-0.011c-0.449,0.449 -0.403,0.944 0.133,1.415c0.407,0.425 0.581,0.384 1.131,0.044c0.462,-0.473 0.545,-0.914 -0.103,-1.448Zm1.735,-0.264c0.506,-0.427 0.434,-0.777 -0.118,-1.33c-0.581,-0.582 -1.029,-0.586 -1.442,0.03c-0.155,0.231 -0.184,0.463 -0.184,0.529c0,0.226 0.958,1.08 1.211,1.08c0.138,0 0.324,-0.133 0.533,-0.309l0,0Zm1.668,-1.65c0.43,-0.45 0.375,-0.772 -0.242,-1.408c-0.519,-0.535 -0.88,-0.576 -1.337,-0.152c-0.473,0.439 -0.374,0.903 0.159,1.437c0.54,0.541 0.94,0.624 1.42,0.123Zm1.889,-1.916c0.316,-0.335 0.231,-0.308 0.008,-0.671c-0.346,-0.562 -1.355,-1.491 -1.643,-1.491c-0.361,0 -0.678,0.579 -0.675,1.15c0,0.567 0.279,0.798 0.998,1.364c0.477,0.376 0.331,0.41 0.698,0.195c0.204,-0.12 0.481,-0.366 0.615,-0.547l-0.001,0Zm1.5,-1.373c0.676,-0.772 0.548,-0.921 -1.086,-2.646c-0.554,-0.584 -0.669,-0.651 -1.065,-0.618c-0.376,0.032 -0.402,0.124 -0.595,0.522c-0.357,0.732 -0.093,1.104 0.935,2.199c1.058,1.128 1.214,1.224 1.811,0.543Zm1.674,-1.802c0.262,-0.23 0.437,-0.498 0.437,-0.667c0,-0.301 -1.323,-1.771 -1.796,-2.042c-0.334,-0.192 -0.684,-0.084 -1.118,0.29c-0.26,0.225 -0.254,0.279 -0.192,0.526c0.101,0.404 1.803,2.2 2.083,2.2c0.117,0 0.346,-0.096 0.586,-0.307Zm1.661,-1.614c0.281,-0.287 0.503,-0.635 0.503,-0.787c0,-0.324 -1.426,-1.977 -1.867,-2.209c-0.374,-0.196 -0.593,-0.114 -0.963,0.406c-0.426,0.6 -0.259,0.874 0.586,1.851c0.803,0.926 1.06,1.207 1.209,1.207c0.05,0 0.256,-0.186 0.532,-0.468Zm1.568,-1.691c0.36,-0.219 0.831,-0.681 0.64,-1.058c-0.202,-0.387 -2.698,-3.037 -2.967,-3.181c-0.527,-0.283 -0.512,0.124 -0.512,1.437l0,0.681l1.149,1.127c1.675,1.643 1.301,1.242 1.69,0.994Zm2.03,-1.866c0.199,-0.199 0.386,-0.534 0.384,-0.659c-1.036,-1.264 -4.05,-5.261 -4.594,-5.113c-0.056,0.015 -0.08,0.018 -0.118,0.132c-0.135,0.401 -0.19,1.229 -0.096,1.899c0.951,0.916 3.193,3.898 3.701,4.083c0.303,0.117 0.437,-0.055 0.723,-0.342Zm1.619,-1.702c0.191,-0.183 0.347,-0.431 0.347,-0.55c0,-0.12 -0.336,-0.54 -0.692,-0.961c-0.356,-0.421 -1.054,-1.272 -1.55,-1.892c-2.839,-3.548 -3.045,-3.813 -3.479,-3.453c-0.284,0.237 -0.353,1.073 -0.21,1.385c0.247,0.539 3.347,4.286 4.347,5.253c0.635,0.614 0.761,0.675 1.237,0.218Zm1.634,-1.568c0.242,-0.229 0.44,-0.533 0.44,-0.675c0,-0.142 -0.457,-0.72 -0.936,-1.284c-0.48,-0.564 -1.278,-1.526 -1.775,-2.138c-1.274,-1.57 -1.284,-1.627 -2.235,-1.725c-1.44,-0.148 -1.248,0.17 0.384,2.078c0.395,0.462 1.141,1.373 1.658,2.026c1.21,1.528 1.744,2.09 1.983,2.09c0.106,0 0.238,-0.143 0.481,-0.372Zm1.665,-1.635c0.738,-0.623 0.593,-0.827 -1.809,-3.311c-0.787,-0.815 -0.843,-0.944 -1.455,-0.944c-0.615,0 -0.813,0.127 -0.813,0.425c0,0.184 3.128,3.909 3.356,4c0.308,0.124 0.343,0.148 0.721,-0.17Zm1.75,-1.795c0.197,-0.212 0.358,-0.485 0.358,-0.608c0,-0.267 -0.679,-1.131 -1.315,-1.69c-0.299,-0.262 -0.674,-0.533 -0.915,-0.533c-0.408,0 -1.109,0.231 -1.229,0.427c-0.078,0.126 0.851,1.276 1.764,2.24c0.605,0.639 0.842,0.695 1.337,0.164Zm1.536,-1.527c0.386,-0.388 0.383,-0.743 -0.012,-1.262c-0.287,-0.376 -0.373,-0.413 -0.963,-0.413c-1.117,0 -1.149,0.286 -0.284,1.212c0.642,0.689 0.82,0.902 1.259,0.463l0,0Zm1.644,-1.621c0.435,-0.554 0.063,-0.858 -0.65,-0.532c-0.169,0.077 -0.259,0.278 -0.295,0.371c-0.22,0.575 0.528,0.693 0.945,0.161Zm-27.462,4.677c-1.588,1.005 -4.257,2.911 -6.072,4.184c-0.048,0.274 -0.083,0.97 0,1.511c1.028,-0.701 4.335,-2.817 5.836,-4.009c0.076,-0.447 0.185,-1.236 0.234,-1.686l0.002,0Zm2.913,-4.617c-0.054,-0.27 -0.231,-0.099 -0.702,0.299c-0.615,0.522 -5.837,4.398 -7.224,5.373c-0.527,0.371 -1.024,0.684 -1.08,0.815c-0.054,0.123 -0.104,1.175 0.095,1.441c1.132,-0.866 6.501,-4.473 6.582,-4.598c0.554,-0.887 1.792,-2.436 2.329,-3.33Zm-0.599,11.684c0,0 -6.405,7.715 -8.465,11.558c0,0 -0.013,4.396 -0.073,6.927l-0.349,0.098c0,0 -0.03,-6.785 -0.117,-14.149c-0.216,-18.401 -0.396,-22.869 -0.396,-22.869l-2.08,-1.526l-0.086,-0.723c0,0 9.229,6.475 13.733,7.507c-3.291,5.166 -6.333,7.159 -2.166,13.177l-0.001,0Zm-7.601,9.227c0.129,-0.31 0.041,-0.295 -0.223,-0.284c-0.194,0.009 -0.305,0.188 -0.314,0.385c-0.01,0.225 0.011,0.279 0.186,0.245c0.125,-0.024 0.29,-0.197 0.351,-0.346Zm1.541,-2.287c0.921,-1.137 1.683,-1.874 1.82,-2.711c-0.59,0.098 -3.988,2.484 -4.042,2.737c0.033,1.264 -0.255,1.415 0.782,0.858c0.456,-0.247 0.824,-0.553 1.44,-0.884Zm0.29,-2.818c0.991,-0.825 4.603,-2.771 5.017,-3.73c0.16,-0.441 -0.355,-0.854 -0.436,-0.814c0.065,0.058 -5.172,3.202 -7.083,4.852c-0.17,0.212 -0.127,0.575 -0.013,0.875c0.21,0.552 0.628,0.103 2.515,-1.183l0,0Zm-1.202,-1.517c1.077,-0.72 3.625,-2.484 4.259,-2.925c1.078,-0.751 1.292,-1.002 0.904,-1.558c-0.155,-0.222 -0.366,-0.354 -0.722,-0.197c-3.119,2.177 -3.388,2.545 -5.756,4.07c-0.16,0.428 -0.12,1.067 0.127,1.294c0.18,0.01 0.481,-0.211 1.188,-0.684Zm-0.012,-2.348c2.842,-2.06 4.375,-3.101 4.476,-3.328c0.111,-0.251 0.144,-1.23 -0.042,-1.335c-1.057,0.806 -3.884,2.539 -5.815,4.109c-0.051,0.323 -0.11,1.047 0.047,1.203c0.392,0.162 0.508,-0.051 1.335,-0.649l-0.001,0Zm-0.338,-7.435c2.068,-1.537 3.98,-2.875 6.133,-4.316c1.824,-1.214 2.129,-1.484 1.429,-1.847c-0.241,-0.125 -0.726,-0.322 -1.038,-0.217c-2.425,1.961 -5.118,3.838 -7.688,5.743c-0.063,0.285 0,0.843 -0.015,1.095c-0.025,0.389 0.487,0.056 1.179,-0.458l0,0Zm-0.285,-2.193c0.17,-0.15 1.253,-0.869 2.407,-1.706c3.094,-2.243 3.459,-2.462 3.459,-2.7c0,-0.651 -0.893,-0.79 -1.706,-0.126c-1.492,1.217 -5.053,3.435 -5.061,3.749c-0.013,0.464 -0.091,0.92 0.044,1.124c0.171,0.257 0.422,0.042 0.857,-0.341l0,0Zm0.893,-3.04c3.149,-2.2 3.024,-2.097 3.024,-2.493c0,-0.344 -0.306,-0.189 -0.788,-0.224c-0.454,-0.033 -0.463,0.094 -1.327,0.748c-1.837,1.391 -2.509,1.772 -2.702,2.182c-0.06,0.129 -0.103,0.64 0.009,0.752c0.222,0.222 0.477,-0.051 1.784,-0.965l0,0Zm0.209,-2.188c0.616,-0.514 1.11,-0.891 1.151,-0.999c0.09,-0.234 -0.375,-0.652 -0.726,-0.652c-0.38,0 -0.676,0.197 -1.617,1.009c-0.832,0.716 -1,0.566 -0.934,0.971c0.038,0.234 0.042,0.752 0.12,0.846c0.201,0.243 0.631,-0.029 2.006,-1.175Zm-1.276,-1.421c0.666,-0.561 0.806,-0.676 0.321,-1.163c-0.44,-0.44 -0.952,-0.55 -1.222,-0.279c-0.15,0.198 0,1.359 -0.02,1.591c-0.026,0.372 0.468,0.234 0.922,-0.149l-0.001,0Zm14.259,-12.108c0,-0.24 1.158,-1.089 2.027,-1.283c1.108,-0.247 2.498,-0.119 3.472,0.368c0.838,0.419 1.748,1.428 0.401,0.814c-1.238,-0.552 -3.89,-0.558 -4.851,-0.113c-0.713,0.362 -1.049,0.455 -1.049,0.214Zm-0.861,-4.251c0.09,-0.09 1.248,0.209 1.885,0.377c1.71,0.452 3.114,0.186 4.906,-0.332c0.421,-0.121 0.63,0.17 0.371,0.384c-0.91,0.631 -2.091,0.999 -3.109,1.094c-2.24,0.209 -4.65,-0.937 -4.053,-1.523Zm-10.983,-3.313c0.955,-0.468 2.122,-7.038 1.746,-8.168c-1.17,1.791 -2.482,2.595 -4.35,2.284c-3.06,-0.508 -3.174,-4.281 -0.809,-4.661c0.944,-0.152 2.1,0.472 2.289,0.326c1.008,-0.474 1.797,-3.866 2.043,-4.963c0.181,-1.076 0.448,-4.059 0.487,-5.008c0.085,-2.019 0.008,-4.997 0.008,-4.997l-14.889,-17.918l-32.412,0c0,0 -0.078,24.93 0,37.719l9.008,8.879l0.117,14.352c10.317,-4.511 20.304,-9.25 30.081,-14.374c-1.134,-1.358 -1.101,-4.778 0.966,-6.072c3.043,-1.905 5.572,0.616 5.718,2.601l-0.003,0Zm8.174,3.042c0.069,-0.809 0.67,-1.474 0.712,-2.297c0,-0.183 0.148,-0.396 0.633,-0.138c0.633,0.337 0.827,0.1 1.543,-0.23c1.27,-0.586 1.633,-0.573 2.611,-0.181c0.633,0.34 0.827,0.337 1.419,0.03c0.812,-0.538 1.675,-0.712 2.388,-0.461c1.065,0.372 1.435,0.577 2.043,0.282c0.306,-0.148 0.689,-0.704 0.756,-0.663c0.437,0.651 0.349,1.675 0.628,2.252c0.494,0.977 0.301,1.678 -0.281,1.197c-1.224,-1.011 -2.178,-1.036 -3.934,-0.6c-1.028,0.255 -1.545,0.453 -2.684,0.318c-3.529,-0.419 -3.768,-0.313 -4.485,0.167c-0.697,0.467 -1.232,0.514 -1.349,0.324l0,0Zm9.473,-6.408c-1.019,-0.255 -2.184,-1.183 -3.027,-0.934c-1.04,0.07 -1.633,-1.159 -1.099,-1.832c0.913,-0.89 2.33,0.008 2.88,0.426c1.196,0.91 1.367,0.982 1.85,0.982c1.984,-0.039 1.604,-1.897 0.645,-2.575c-0.569,-0.598 -0.625,-0.985 -0.504,-1.131c0.196,-0.237 0.763,-0.037 1.383,0.617c1.188,1.118 1.216,3.346 -0.241,4.019c-0.725,0.406 -1.202,0.6 -1.887,0.428Zm4.141,-6.439c-0.923,-0.671 -2.567,-2.175 -2.996,-2.711c-0.726,-0.906 -1.016,-1.485 -0.926,-2.212c0.07,-0.566 0.157,-0.903 -0.206,-1.09c-0.386,-0.199 -0.756,-1.054 -0.681,-1.503c0.021,-0.125 0.455,-0.05 0.719,0.279c0.333,0.054 0.264,-0.144 0.626,-0.384c3.773,-2.538 6.802,-2.049 10.382,-0.305c1.039,0.5 3.75,2.56 2.298,1.892c-0.087,-0.04 -1.038,-0.453 -1.998,-0.938c-3.105,-1.489 -6.564,-2.391 -9.38,-0.477c-0.485,0.34 -0.778,0.601 -0.401,0.601c1.583,-0.308 3.149,-0.968 4.775,-0.865c2.424,0.032 3.891,1.23 5.71,2.058c1.973,0.884 2.354,1.186 1.635,1.915c-0.203,0.225 -0.366,0.219 -1.319,0.145c-1.025,-0.078 -1.11,-0.049 -1.687,0.321c-1.511,0.97 -3.474,1.5 -5.218,1.353c-2.054,-0.173 -2.274,-0.338 -2.316,-0.042c-0.027,0.19 0.414,0.518 1.023,1.076c0.461,0.423 1.082,1.047 1.136,1.143c0.172,0.303 -0.611,0.154 -1.176,-0.256l0,0Zm-0.576,-3.294c-0.008,-0.243 -0.457,-1.302 -0.727,-1.576c-0.26,-0.262 -0.463,-0.16 -1.015,0.229c-0.415,0.293 -0.459,0.524 -0.077,0.864c0.812,0.723 1.826,0.904 1.819,0.483l0,0Zm3.093,0.146c0.829,-0.402 1.673,-1.827 1.29,-2.29c-0.228,-0.275 -0.426,-0.014 -0.861,0.759c-0.209,0.37 -0.567,0.839 -0.72,0.946c-0.678,0.476 -1.572,0.032 -1.948,-1.017c-0.227,-0.633 -0.466,-1.036 -0.731,-0.795c-0.478,0.434 0.063,2 1.013,2.405c0.562,0.239 1.376,0.274 1.957,-0.008Zm2.579,-0.234c0.841,-0.26 1.243,-0.639 1.172,-1.007c-0.058,-0.304 -0.664,-0.663 -1.075,-0.663c-0.184,0 -0.545,-0.008 -0.675,0.165c-0.286,0.381 -0.74,1.54 -0.76,1.665c0.098,0.255 0.382,0.136 1.338,-0.16Zm2.906,-6.279c-4.193,-1.607 -7.505,-2.251 -11.493,-0.547c-1.278,0.555 -2.007,0.613 -2.071,0.16c-0.054,-0.382 0.866,-1.515 1.859,-2.038c2.784,-1.275 6.127,-1.395 8.928,-0.049c1.047,0.514 3.985,2.606 3.985,2.796c0,0.209 -0.266,0.047 -1.208,-0.322l0,0Zm49.081,47.078c0.999,-0.528 1.458,-1.566 0.847,-2.178c-0.18,-0.18 -0.43,-0.179 -0.638,-0.179c-0.35,0 -2.973,0.704 -3.482,0.977c-0.332,0.178 -0.211,0.489 0.106,0.776c0.146,0.133 0.255,0.417 0.277,0.727c0.03,0.399 -0.05,0.76 0.214,0.698c0.535,-0.123 1.38,-0.241 2.676,-0.821Zm-3.728,0.962c0.285,-0.519 0.163,-1.231 -0.584,-1.667c-0.39,-0.202 -0.698,-0.094 -1.011,0.354c-0.743,1.357 1.102,1.94 1.595,1.313Zm-3.743,0.637c0.16,-1.735 0.082,-6.859 0.082,-6.859c0,0 -0.931,0.788 -1.518,0.816c0.215,-0.75 0.449,-1.025 0.783,-1.759c0.192,-0.778 0.298,-2.154 0.244,-2.941c-0.058,-0.861 -0.664,-0.884 -0.04,-2.433c0.32,-0.791 0.377,-1.623 -0.037,-2.602c-0.178,-0.484 -0.236,-0.762 0.229,-1.375c0.432,-0.569 0.261,-0.854 0.253,-2.042c-0.011,-1.645 0,-1.913 -0.499,-0.585c-0.743,1.099 -1.084,0.889 -2.215,0.756c-1.095,2.458 -2.375,5.035 -2.425,7.153c-0.032,1.329 -0.05,1.535 0.778,4.328c0.308,1.04 0.413,1.386 0.431,2.644c0.017,1.2 0.107,1.622 0.289,2.285c0.324,1.179 1.643,3.128 3.645,2.614l0,0Zm-38.074,110.536l0.008,-2.471c0,0 -3.945,1.219 -5.947,0.47c-2.062,-0.559 -2.055,-0.662 -2.014,-0.438c0.072,0.399 1.602,1.208 3.018,1.541c0.997,0.234 2.992,-0.003 3.97,-0.293c0.556,-0.165 0.615,-0.01 0.392,0.161c-2.418,1.894 -5.486,1.022 -7.413,-0.55c-1.03,-1.011 -1.72,-1.016 -1.164,0.341c2.647,5.375 9.22,2.204 9.154,1.239l-0.004,0Zm-2.663,-3.672l0.898,0.017c0,0 -0.276,-1.566 -0.741,-2.023c-0.951,-0.934 -2.295,-0.792 -3.148,0.126c-0.391,0.421 -0.689,1.908 -0.689,1.908l0.721,0.015c0.268,-0.694 1.406,-3.951 2.959,-0.043Zm-3.59,-2.369c-0.51,-0.14 -1.628,0.37 -2.173,0.724c-0.202,0.224 -0.203,0.256 0.037,0.573c0.523,0.689 1.322,1.019 1.378,0.761c0.232,-0.364 0.812,-1.917 0.758,-2.058Zm5.928,1.742c0.118,-0.482 -0.335,-1.305 -1.042,-1.594c-0.305,-0.076 -0.607,-0.137 -0.518,0.2c0.099,0.377 0.311,0.997 0.508,1.411c0.143,0.311 0.235,0.467 0.536,0.349c0.237,-0.079 0.436,-0.153 0.516,-0.366Zm38.499,-32.758l0.008,-4.186c-2.11,2.142 -4.867,5.737 -5.702,7.083l5.694,-2.897Zm-64.431,-115.348c0.893,-0.383 1.549,-1.554 1.323,-2.145c-0.141,-0.367 -0.512,-0.073 -0.887,0.471c-0.604,0.874 -0.757,0.969 -1.288,0.969c-0.565,0 -0.789,-0.145 -1.176,-0.907c-0.267,-0.719 -0.456,-0.832 -0.705,-0.518c-0.118,0.141 -0.108,0.344 0.044,0.869c0.398,1.371 1.423,1.805 2.689,1.261l0,0Zm2.435,-0.433c0.991,-0.341 1.193,-0.45 1.146,-0.781c-0.049,-0.346 -0.838,-0.808 -1.284,-0.723c-0.323,0.196 -1.161,1.524 -1.113,1.761c0.114,0.185 0.446,0.021 1.251,-0.257Zm-5.717,-0.579c-0.034,-0.306 -0.077,-0.606 -0.161,-0.708c-0.318,-0.384 -0.99,-0.113 -0.99,0.375c0,0.371 0.527,0.79 0.953,0.79c0.301,0 0.258,0.074 0.198,-0.457Zm5.601,-2.502c1.41,0.532 2.125,0.592 1.358,-0.131c-1.054,-1.172 -5.887,-2.51 -8.481,-0.597c-0.185,0.263 -0.146,1.274 0.056,1.218c2.11,-1.426 4.811,-1.35 7.068,-0.49l-0.001,0Zm-4.827,-4.041c-1.184,0.395 -2.297,1.016 -2.439,1.594c-0.23,0.931 0.186,0.94 1.736,0.452c1.995,-0.655 4.227,-0.358 5.928,0.627c1.292,0.941 1.674,0.629 1.456,-0.161c-0.722,-2.618 -4.759,-3.089 -6.681,-2.512Z" style="fill:#131f67;fill-rule:nonzero;"/><path id="path6265-7" d="M152.391,27.232l-8.715,8.651l0.122,10.239c0.876,1.608 -13.449,-4.588 -15.71,-6.463c0.262,6.839 9.578,14.631 15.636,17.483l0.166,21.892c2.503,-1.276 5.597,-2.049 7.795,-2.262c1.189,-14.887 2.204,-34.256 0.706,-49.54Zm-48.469,10.716c-0.848,0.014 -1.357,0.245 -1.346,0.792c-0.255,-0.043 3.22,12.783 4.802,18.139c-3.079,3.117 -6.293,8.532 -1.693,13.544c0.982,1.07 2.779,1.976 4.489,3.003c0.762,0.741 -9.352,7.273 -18.354,7.276c-2.886,-6.34 -6.917,-2.834 -9.141,-0.622c-1.737,-0.153 -8.22,-4.022 -11.535,-6.237c-0.054,-0.035 -0.019,-0.953 -0.012,-1.121c0.23,1.512 12.991,4.772 13.568,3.258c-0.369,0 -5.725,-3.629 -7.263,-7.211c-1.963,-4.039 -3.536,-9.587 -3.536,-9.587c-0.714,2.052 -0.47,4.895 -2.438,5.912c-0.589,-6.677 -10.105,-3.272 -5.368,3.258c-2.662,0.782 -4.938,2.162 -7.521,3.312c5.405,7.368 12.845,12.27 20.703,15.159c-1.036,2.213 -7.155,7.192 -2.129,13.062c0.227,0.18 -4.803,5.678 -7.278,9.977c-1.862,3.237 -1.3,5.72 -1.087,5.801c6.815,-7.826 10.645,-14.445 10.645,-14.445c-0.059,0.91 8.088,0.417 7.952,-6.933c0.18,-1.983 0.539,-4.133 1.3,-5.974c12.431,0.586 23.12,-3.851 32.154,-13.169c0,0 1.84,0.526 3.001,0.707c3.195,-0.087 5.02,-1.715 6.494,-3.169c1.353,-1.097 2.702,-2.155 3.182,-3.285c1.779,-7.65 -6.032,-4.66 -6.399,-4.252c-4.462,-6.077 -8.236,-23.347 -8.843,-23.482c-2.492,-0.503 -11.017,-3.77 -14.347,-3.713l0,0Zm-30.623,11.732c-0.332,0.022 -1.528,5.367 -2.588,5.325c-4.486,-2.896 -4.583,3.097 -0.725,2.824c3.26,-0.23 5.082,-5.5 3.329,-8.145c-0.008,-0.003 -0.01,-0.005 -0.015,-0.004l-0.001,0Zm-47.959,10.167c0.149,32.494 0.733,64.977 1.493,97.461c2.931,-0.725 5.062,-1.278 7.937,-0.019c0.27,-9.235 -0.541,-32.539 -0.347,-55.105c10.956,-8.537 18.65,-17.952 24.055,-30.258l-16.727,7.849c0,0 -5.467,7.85 -7.212,8.354c-0.249,-1.117 -0.528,-14.406 -0.301,-20.106l-8.898,-8.176Zm37.168,20.098l-3.286,4.765c0,0 0.077,16.364 0.266,24.248c0.136,1.57 1.56,3.01 0.421,4.417c0.694,0 3.732,21.23 0.844,29.836c-0.517,1.542 -0.032,2.631 0.776,2.983c4.123,4.575 6.387,8.962 11.821,6.369c5.929,-5.435 14.351,-14.955 14.351,-14.955l-22.266,-21.088c-1.909,-5.115 -2.927,-36.575 -2.927,-36.575Zm81.143,68.243c-10.108,9.053 -19.35,18.341 -23.135,29.63c5.404,-2.177 10.549,-4.837 15.807,-7.286c2.548,-3.067 4.507,-6.027 7.425,-8.946c0,0 0.315,13.315 0.058,19.994c2.631,1.96 8.878,8.084 8.878,8.084c0,-0.002 1.725,-94.597 -1.998,-96.998c-3.615,0.702 -5.43,2.025 -6.778,-2.176c-0.954,19.26 -0.256,57.698 -0.256,57.698l-0.001,0Zm-35.008,-53.238c-3.888,3.184 -17.256,16.322 -17.228,16.458c3.545,5.957 17.547,17.89 24.259,24.562l0.972,33.986c0.987,-1.33 1.705,-2.583 2.777,-3.915c0,0 -0.175,-17.208 -0.59,-25.276c-0.123,-2.385 -0.669,-4.266 -0.498,-4.482c-1.889,-9.793 -2.672,-20.61 0,-31.109c-6.34,-5.471 -8.354,-9.109 -9.693,-10.224l0.001,0Zm1.041,38.817c-0.009,0.003 -0.02,0.011 -0.031,0.023c-3.282,4.684 -9.558,14.851 -10.008,14.827c-0.133,-0.304 -6.485,-0.02 -7.687,3.984c-1.008,2.981 -1.085,5.725 -1.82,8.799c-12.746,-0.417 -22.077,3.621 -31.903,12.695c-4.816,-0.031 -8.392,1.084 -10.063,3.118c-2.494,1.811 -3.169,3.357 -3.047,5.248c0.222,3.427 6.266,3.915 6.576,1.499c0.307,0 5.915,12.837 6.46,15.025c1.323,3.536 2.74,10.152 2.908,10.163c2.258,0.145 14.934,3.707 14.98,2.415c1.194,-0.513 -4.408,-18.883 -4.408,-18.883c9.793,-8.231 -1.004,-17.027 -3.541,-16.705c5.576,-3.977 11.974,-6.656 19.03,-7.008c1.092,3.928 6.155,5.947 8.704,0.726c0,0 10.968,3.933 10.923,5.236c-4.516,-0.682 -8.229,-1.038 -12.751,-1.472c8.664,4.712 8.93,10.922 10.699,17.104c0.241,-1.095 2.526,-5.878 2.526,-5.878c2.939,6.529 8.527,1.998 6.221,-3.273l6.954,-3.231c0.801,-0.407 -10.394,-13.024 -20.576,-14.812c0.513,-0.939 0.716,-1.823 1.246,-2.589c2.553,-2.509 4.532,-6.183 0.628,-10.58c2.577,-3.607 8.551,-12.315 8.173,-12.47c0,0 0.116,-4.07 -0.193,-3.961l0,0Zm-83.718,40.132c-0.098,0 -0.278,30.195 -0.067,45.184c-0.25,0.621 -0.413,3.938 -0.413,3.938l9.272,-8.726l0.278,-11.28c2.421,-0.58 17.51,7.095 16.303,7.052c1.151,-0.485 -6.966,-15.844 -16.434,-17.547c-0.176,-8.701 -0.265,-18.552 -0.513,-21.2c-3.288,0.629 -8.426,2.599 -8.426,2.579l0,0Zm82.318,18.165c-2.596,0.776 -3.679,6.243 -2.838,8.895c0.155,0.491 0.057,0.597 0.47,0.116c1.012,-1.488 0.693,-4.451 2.48,-6.016c4.721,1.426 4.252,-4.724 -0.112,-2.995Z" style="fill:#e2cf00;fill-rule:nonzero;"/><path id="path6267-4" d="M48.217,227.677l12.273,-18.578c14.654,4.907 29.614,4.996 44.732,2.575l13.512,16.003l-5.525,0l-8.504,-12.168c-3.082,0.713 -6.285,1.025 -9.476,1.464l3.98,10.704l-4.332,0l-3.127,-10.588c-7.335,0.285 -12.33,-0.369 -17.423,-0.967l-1.834,11.555l-4.409,0l2.976,-11.931c-3.465,-0.65 -6.961,-1.208 -9.864,-2.14l-9.01,14.071l-3.969,0Zm14.056,-10.933l5.095,1.383l-2.488,9.55l-9.322,0l6.715,-10.933Zm13.159,10.933l1.441,-8.437c3.422,0.676 7.887,0.813 12.595,0.765l2.214,7.672l-16.25,0Zm24.119,-7.822l4.02,-1.067l6.026,8.889l-7.324,0l-2.722,-7.822Zm-58.638,-53.687c19.606,-22.847 16.998,-46.832 6.167,-66.177l2.302,-2.373c12.526,20.622 15.191,49.943 -7.891,72.667c-0.243,-1.37 -0.578,-4.117 -0.578,-4.117Zm78.183,-25.624c2.816,4.804 4.538,9.667 7.515,14.497l-7.062,9.563l-0.453,-24.06Zm-84.353,15.133c-0.183,-15.076 0.045,-45.621 0.045,-45.621l6.615,-5.069c7.915,9.626 12.235,35 -1.979,51.888c-1.034,-0.755 -3.849,-0.441 -4.681,-1.198l0,0Zm93.921,-3.042c-18.143,-30.662 -8.829,-53.059 8.657,-72.913c0.051,1.53 0.078,3.092 0.216,4.616c-15.012,17.222 -21.015,42.693 -6.296,65.736l-2.577,2.561Zm-32.854,-4.455l8.263,-11.28c0,0 1.566,-4.487 2.886,-5.813l1.515,-1.343c0.505,0.488 1.542,1.515 1.542,1.515l-0.917,3.48c-3.057,4.719 -6.274,9.438 -9.663,14.158c0,0 -2.933,-0.515 -3.626,-0.717Zm43.95,-54.754c0.261,-0.296 3.541,1.075 3.541,1.075l0.21,46.357l-6.566,4.227c-1.906,0.969 -16.793,-29.453 2.815,-51.659Zm-69.175,19.528c2.99,-4.081 6.14,-7.613 9.037,-11.361c0.749,0.258 2.717,0.302 2.717,0.302c0.208,0.112 -0.662,3.109 -2.806,5.175c-5.884,7.052 -7.221,8.358 -7.435,11.266c-0.07,0.936 -2.145,2.01 -2.145,2.01l-1.492,-1.576c0.457,-2.31 1.172,-4.081 2.124,-5.816Zm-18.646,-17.782l6.754,-8.852l0.481,23.023l-7.235,-14.171Zm21.535,-57.641l-13.027,-16.313l6.308,0l7.758,11.544l9.292,-1.062l-3.27,-10.482l3.849,0l2.72,10.313c5.699,0.136 11.269,0.58 16.678,1.123l2.78,-11.436l3.92,0l-3.558,11.967l10.493,2.76l9.35,-14.727l4.645,0l-13.251,19.014c-17.323,-5.213 -31.237,-4.616 -44.687,-2.701Zm37.557,-6.828l2.968,-9.496l8.878,0.01l-6.795,10.847l-5.051,-1.361Zm-21.487,-2.31l-1.876,-7.175l15.653,0l-2.022,8.022c-4.133,-0.699 -7.908,-0.833 -11.755,-0.847Zm-18.763,-7.175l6.248,0l2.433,7.425l-3.604,0.409l-5.077,-7.834Z" style="fill:#d40000;fill-rule:nonzero;"/><path id="path6269-8" d="M58.405,20.166l15.086,18.083c3.143,-1.127 18.984,-2.937 28.487,-0.765c1.656,6.5 3.408,13.064 5.261,18.981c0,0 -0.593,0.694 -1.022,1.136c-6.069,7.007 -1.773,13.776 3.78,15.984c-1.001,2.084 -11.643,7.272 -18.124,6.655c0.011,-0.064 -1.991,-4.762 -6.047,-3.174c-1.386,0.543 -1.958,1.588 -3.031,2.608c-3.872,-1.169 -8.984,-3.72 -11.641,-6.524c4.973,2.481 9.869,3.816 14.786,3.159c0,0 -0.61,-0.509 -1.302,-0.827c-0.415,-0.192 -1.417,-0.795 -2.225,-1.341c-2.285,-1.543 -3.803,-3.404 -5.369,-6.585c-1.801,-3.224 -2.094,-6.692 -3.082,-9.75c-0.522,1.567 -0.748,5.707 -2.113,6.566c-0.354,0.232 -0.418,0.162 -0.682,-0.715c-1.042,-3.184 -4.855,-2.781 -6.113,-0.514c-0.638,1.948 -0.546,2.804 0.26,4.614l-2.312,1.287l0,0.382l-1.423,0.68l-0.297,-0.201c-6.616,3.202 -13.101,6.534 -19.851,9.6c0,0 -3.584,5.959 -6.865,8.33l-0.128,-20.237l-9.715,-8.791l-0.046,4.815c0,0 0.466,0.489 0.698,0.734c0.133,33.877 0.021,67.205 0.042,97.96l0.045,28.313l-0.593,0.035l-0.03,3.302l0.668,0.15l-0.094,4.664l-0.347,0.023l-0.05,2.952l0.53,0.083l-0.01,16.665l-0.524,0.676l0.012,4.757l10.143,-9.656l0.226,-10.984c8.001,1.514 16.364,7.274 16.364,7.274c-1.408,-9.199 -11.139,-16.779 -16.729,-18.293l0.018,-21.796c0,0 -4.155,1.736 -6.208,2.002c-1.017,0.145 -1.408,-0.01 -1.894,-0.746c-0.354,-0.535 -0.362,-1.024 -0.042,-2.133c0.149,-0.517 0.144,-0.653 -0.042,-1.174c-0.262,-0.732 -0.264,-1.062 -0.008,-2.354c0.268,-0.758 0.15,-1.163 -0.132,-1.866c-0.302,-0.752 -0.325,-0.893 -0.196,-1.326c0.34,-1.141 0.359,-1.326 0.181,-1.835c-0.349,-0.996 -0.361,-1.715 -0.038,-2.361c1.496,-2.515 4.849,-1.895 6.668,-1.805c0.922,1.028 1.473,1.602 1.558,0.112c0.646,-1.778 3.15,0.042 4.319,0.798c9.953,-13.363 14.863,-31.455 2.377,-54.098l-6.946,5.569l0.016,-6.971c9.21,-5.93 19.573,-19.414 24.06,-30.046c1.492,1.752 3.205,3.473 4.82,5.24l-1.056,1.769l-0.311,-0.177c-2.857,5.462 -10.617,15.793 -10.742,15.689c2.872,5.332 5.43,10.718 7.604,16.167l0.57,-0.256l0.509,1.641l-1.004,0.301c3.398,11.17 3.509,21.512 0.952,31.049l0.6,2.534c0,0 3.596,3.49 4.566,4.516c2.533,2.457 5.357,5.201 5.357,5.201l3.282,-3.219l-0.191,-0.274l28.77,-28.619l1.794,1.718c-17.621,17.781 -48.226,48.479 -48.226,48.479l-1.061,0.154c-0.603,0.09 -1.495,0.129 -2.063,0.089c-0.936,-0.065 -1.051,-0.044 -1.801,0.313c-0.846,0.403 -1.545,1 -2.48,2.122c-0.428,0.513 -0.721,0.734 -1.196,0.904c-5.998,3.584 -0.575,10.801 4.527,7.002c3.739,7.158 6.906,15.496 8.652,23.742c0,0.061 -0.671,0.29 -0.671,0.29l-13.445,19.975l5.172,0l0.54,-0.92l-3.876,0l12.369,-17.899c15.735,4.294 30.177,4.905 44.835,2.349l12.758,15.55l-5.06,0l0.721,0.92l6.549,0.104l-14.996,-17.731c-5.37,1.438 -19.533,2.594 -28.416,1.088c-1.359,-6.613 -3.6,-13.799 -5.257,-19.519c8.479,-6.649 2.112,-15.427 -3.12,-16.651c-0.254,-0.48 10.611,-7.098 18.351,-6.639c2.216,5.333 7.069,4.544 8.811,0.575c3.21,1.181 7.375,2.36 10.682,4.994c-4.41,-0.968 -9.52,-1.497 -13.725,-1.562c7.999,3.108 10.243,9.656 11.229,15.832c0.173,1.024 0.721,2.347 0.721,2.347c0.681,-2.23 1.238,-4.534 2.58,-6.443c0.616,2.184 2.887,3.88 5.176,2.581c1.327,-0.963 1.789,-2.617 1.369,-4.903c-0.117,-0.636 -0.176,-0.984 -0.176,-0.984l1.777,-0.964l0.232,0.197c0,0 1.947,-0.833 2.914,-1.304c0.152,-0.074 -0.177,-0.377 -0.177,-0.377l17.97,-8.491c-0.068,-0.038 4.53,-6.328 7.17,-8.754c0.08,7.537 0.061,10.635 0.057,19.583l1.014,0.993c0.9,0.881 2.863,2.707 7.286,6.778c0.996,0.917 1.691,1.37 1.691,1.37l-0.136,-131.808l-0.148,0l0,-2.536l0.208,-0.011l0,-6.595l-0.186,-0.108l0,-2.078l0.247,-0.181l0.017,-17.804l-0.286,-0.049l-0.017,-4.271l-10.017,10.615l0.076,10.009c-4.47,-0.579 -10,-3.445 -13.807,-5.757c-1.23,-0.752 -1.917,-0.952 -1.878,-0.522c0.535,5.959 9.145,15.074 15.762,17.459l0.011,22.42c0,0.011 1.563,-0.783 2.517,-1.185l0.143,0.399l2.134,-0.885l0.173,-0.461l1.849,-0.234c0.021,0.378 0.084,0.326 0.084,0.326c1.648,0.462 2.377,1.588 1.713,2.852c-0.232,0.424 -0.277,1.025 -0.085,1.183c0.714,1.128 0.901,2.123 0.038,3.191c-0.332,0.546 -0.329,0.854 0.011,1.434c0.892,1.801 0.385,1.682 -0.285,2.755c-0.151,0.811 0.736,1.34 0.444,2.103c-0.137,0.503 -0.667,1.093 -1.026,1.36c-0.422,0.306 -0.768,-0.263 -0.768,-0.263c0,0 -1.335,0.574 -2.295,0.757c-0.943,0.307 -2.568,0.856 -3.131,-0.417c-0.323,-0.729 -0.063,-1.395 -0.085,-2.21l-1.385,-0.151l-0.05,3.702c-0.792,0.422 -3.942,-1.19 -3.942,-1.19c-13.513,17.549 -13.135,37.013 -3.112,53.319c0.098,0.262 7.062,-4.772 7.062,-4.772c0,0 -0.015,4.127 0.046,6.364c-8.853,7.336 -17.405,17.207 -23.519,29.377l-3.787,-4.498c0.652,-0.577 0.676,-1.492 0.663,-2.184l2.75,-4.107l0.023,-1.067l7.151,-10.007c0.111,0.598 -7.378,-13.435 -8.375,-18.003l0.495,-0.135c-3.361,-12.741 -2.672,-21.664 -0.244,-32.055l-0.693,-0.67l-9.433,-9.44c-0.766,0.709 -1.53,1.421 -2.292,2.136c-0.117,0.109 -0.692,0.044 -0.809,0.154c-4.965,4.663 -9.737,9.345 -14.461,14.209c-0.122,0.126 0.083,0.645 -0.039,0.77c-4.731,4.883 -9.637,9.517 -14.426,14.392l-1.748,-1.671c16.957,-16.984 48.9,-48.532 48.9,-48.532c0,0 0.139,-0.25 0.359,-0.259c0.889,-0.034 1.683,-0.236 2.561,-0.49c1.053,-0.245 1.223,-0.323 1.666,-0.781c0.272,-0.281 0.716,-0.673 0.988,-0.873c0.462,-0.34 1.52,-1.232 3.174,-2.674c1.01,-0.882 1.634,-2.166 1.612,-3.312c-0.039,-2.041 -1.387,-3.781 -3.124,-4.031c-0.722,-0.103 -2.137,0.273 -2.854,0.758c-0.547,0.369 -0.804,0.538 -1.039,0.373c-3.46,-7.032 -6.828,-15.875 -8.256,-23.173c-0.077,-0.46 -0.035,-0.596 0.339,-1.174c0.233,-0.36 0.74,-1.154 1.13,-1.766c4.318,-6.735 8.733,-12.381 12.512,-18.578l-5.336,0l-0.659,1.052l4.392,0l-13.065,18.84c-24.075,-7.885 -43.805,-2.887 -44.278,-2.78l-13.015,-16.06l5.952,0l-0.721,-1.052l-7.631,0Zm11.717,0l0.663,1.052l6.244,0l-0.354,-1.052l-6.553,0Zm10.413,1.052l3.849,0l-0.221,-1.052l-3.948,0l0.32,1.052Zm6.889,-1.052l0.244,1.052l15.652,0l0.278,-1.052l-16.174,0Zm19.137,1.052l3.921,0l0.296,-1.052l-3.944,0l-0.273,1.052Zm7.761,-1.052l-0.336,1.052l8.891,0l0.667,-1.052l-9.222,0Zm38.022,7.271l0.139,2.92l-6.41,6.769l0.008,9.451l-1.866,-0.434l-0.074,-9.767l8.203,-8.939Zm-1.797,6.225c0.054,2.895 -0.413,5.67 0.351,8.621c0.376,1.453 1.138,3.156 1.234,4.873l-2.115,-0.05c-0.267,-0.867 -0.372,-1.823 -0.689,-2.89c-0.781,-2.632 -1.414,-5.404 -0.837,-8.193l2.056,-2.361Zm-46.146,4.721c0.076,0.144 0.329,1.367 0.563,2.502c1.11,6.227 2.597,10.847 4.115,15.549c1.929,5.925 4.784,13.384 7.559,16.841c0.368,0.431 0.549,0.922 0.417,1.136c-0.224,0.363 -1.357,-0.144 -2.118,-0.947c-0.311,-0.328 -0.91,-1.249 -1.35,-2.075c-0.969,-1.819 -2.273,-4.466 -2.402,-4.884c-0.053,-0.17 -0.564,-1.478 -1.138,-2.906c-1.004,-2.498 -1.599,-4.209 -2.438,-6.987c-0.665,-2.204 -1.278,-4.51 -2.02,-6.832c-1.215,-3.798 -1.917,-6.818 -2.592,-10.31c-0.099,-0.513 -0.27,-1.111 -0.207,-1.234c0.383,-0.277 1.426,-0.166 1.611,0.147Zm0.678,0.237c-0.119,-0.101 1.102,-0.119 1.493,0.209c0.116,0.116 0.323,0.846 0.501,1.785c1.105,5.729 2.768,11.649 4.702,17.258c1.544,4.481 3.232,8.795 5.334,12.288c0.659,1.164 1.551,2.408 2.688,3.753c0.637,0.753 0.689,0.859 0.517,1.066c-0.211,0.254 -0.579,0.222 -1.288,-0.116c-0.662,-0.314 -1.379,-1.004 -2.052,-1.978c-0.23,-0.333 -0.58,-0.834 -0.779,-1.113c-3.101,-5.371 -4.983,-10.472 -6.688,-15.654c-1.749,-5.314 -3.321,-10.687 -4.389,-16.88c-0.013,-0.206 -0.026,-0.412 -0.038,-0.618l-0.001,0Zm3.895,0.807c0.272,0.277 0.427,0.807 0.664,1.914c1.291,5.311 2.347,10.057 3.872,14.417c0.821,2.345 1.531,4.689 2.411,6.898c1.405,3.529 3.124,6.744 5.237,9.421c0.697,0.881 1.962,1.969 3.024,2.601c0.736,0.438 0.847,0.55 0.798,0.804c-0.064,0.227 -0.782,0.323 -1.018,0.305c-1.162,-0.199 -2.88,-1.102 -3.371,-1.77c-3.554,-3.848 -6.095,-10.145 -7.946,-15.312c-3.181,-8.895 -5.747,-20.006 -5.259,-19.661c-0.032,-0.258 1.273,0.039 1.588,0.383Zm1.528,0.321c0.115,0.002 0.245,0.023 0.39,0.062c0.664,0.182 0.75,0.275 0.91,1.009c1.136,5.079 2.34,9.558 3.683,13.819c1.367,4.335 2.773,8.424 4.964,12.713c1.606,3.13 3.64,5.293 5.827,6.388c0.628,0.314 1.189,0.616 1.246,0.672c0.057,0.057 0.042,0.22 -0.035,0.363c-0.116,0.217 -0.248,0.261 -0.783,0.252c-0.992,-0.018 -1.688,-0.327 -2.754,-1.044c-2.793,-1.93 -5.235,-6.3 -6.313,-8.779c-1.315,-3.025 -2.524,-6.168 -3.614,-9.595c-1.956,-6.15 -3.176,-10.219 -4.069,-15.407c0,-0.299 0.202,-0.459 0.548,-0.453l0,0Zm41.862,8.301l-0.019,1.801c-7.034,0.467 -14.246,-2.512 -20.043,-5.194c4.368,5.804 9.028,10.953 20.042,12.016l0.02,1.859c-14.345,-0.203 -24.449,-14.759 -23.917,-18.386c5.9,3.819 16.559,8.235 23.917,7.904l0,0Zm-39.59,-7.624c0.344,0.015 0.809,0.162 0.991,0.344c1.172,4.384 2.026,9.253 3.965,14.139c2.381,6.004 3.702,11.303 8.118,16.249c1.374,1.414 4.065,1.372 4.065,1.372c0,0 -0.34,0.765 -0.798,0.893c-0.946,0.143 -1.632,0.186 -2.322,-0.037c-2.558,-1.083 -4.513,-3.82 -5.523,-5.674c-0.946,-1.391 -3.254,-7.118 -5.156,-12.957c-2.072,-6.358 -3.778,-12.968 -3.583,-14.298c0.072,-0.028 0.128,-0.036 0.243,-0.031Zm2.364,0.738c0.169,0 0.393,0.064 0.663,0.193c0.288,0.138 0.414,0.223 0.563,0.765c0.098,0.354 0.082,0.9 0.255,1.789c0.997,4.579 2.372,8.296 3.737,11.918c1.297,3.441 2.689,6.819 4.405,9.873c0.866,1.538 1.725,2.977 2.267,3.52c1.478,1.481 3.986,1.554 4.725,0.085c0.409,-0.835 0.326,-2.158 -0.485,-2.843c-0.629,-0.601 -2.053,-0.347 -2.091,0.378c0,0.193 0.354,0.107 0.867,0.046c1.434,-0.166 1.883,2.378 0.039,2.802c-2.335,0.537 -3.955,-2.625 -1.894,-4.564c3.493,-2.373 6.159,0.87 5.334,3.988c-0.798,1.844 -2.134,2.783 -3.899,2.848c-2.279,0.073 -3.222,-0.632 -5.558,-4.034c-2.678,-4.307 -3.84,-8.51 -5.727,-13.22c-1.785,-4.454 -2.974,-9.203 -3.533,-13.351c0.049,-0.129 0.163,-0.193 0.332,-0.193l0,0Zm2.215,0.735c0.206,0.007 0.64,0.116 0.832,0.235c0.114,0.071 0.279,0.229 0.279,0.229c3.141,11.483 5.76,18.362 8.426,23.217c0,0 -0.043,0.893 -0.22,1.146c-0.318,0.455 -0.474,0.343 -0.887,-0.375c-1.678,-3.253 -3.275,-6.846 -4.763,-10.549c-1.752,-4.358 -3.306,-8.87 -3.965,-13.162c0.034,-0.553 -0.09,-0.708 0.298,-0.741Zm21.188,6.564c0.444,0 0.806,0.359 0.806,0.804c0,0.445 -0.362,0.808 -0.806,0.808c-0.444,0 -0.806,-0.363 -0.806,-0.808c0,-0.445 0.362,-0.804 0.806,-0.804Zm-65.265,-0.146c-0.931,1.27 -1.694,5.822 -2.663,5.877c-1.066,-0.017 -2.363,-0.629 -3.199,0.336c-1.016,1.174 -0.393,2.47 0.86,3.185c0.576,0.285 1.801,0.353 2.546,0.139c3.047,-1.024 4.205,-5.979 2.456,-9.537Zm68.312,1.194c0.642,0 1.161,0.523 1.161,1.167c0,0.643 -0.519,1.163 -1.161,1.163c-0.642,0 -1.161,-0.52 -1.161,-1.163c0,-0.644 0.519,-1.167 1.161,-1.167Zm-68.258,0.552c1.042,2.625 -0.111,5.764 -1.38,6.821c-1.169,0.973 -3.003,1.098 -4.05,0.15c-0.873,-0.821 -0.484,-2.794 1.142,-2.647c0.547,0.018 1.198,0.517 1.565,1.044c1.06,0.109 2.28,-5.273 2.723,-5.368Zm72.307,0.642c0.725,0 1.312,0.588 1.312,1.314c0,0.725 -0.587,1.313 -1.312,1.313c-0.724,0 -1.311,-0.588 -1.311,-1.313c0,-0.726 0.587,-1.314 1.311,-1.314Zm4.644,0.927c0.739,0 1.338,0.6 1.338,1.341c0,0.741 -0.599,1.341 -1.338,1.341c-0.739,0 -1.338,-0.6 -1.338,-1.341c0,-0.741 0.599,-1.341 1.338,-1.341Zm-43.215,6.098c0.199,-0.001 0.339,0.191 0.47,0.576c0.272,0.8 0.266,0.893 -0.158,1.43c-4.116,5.709 -0.364,11.546 5.6,12.18c0.503,0.036 0.756,0.603 1.022,1.263c-0.036,0.313 -0.039,0.312 -1.392,0.337c-0.885,0.016 -1.594,-0.039 -2.037,-0.159c-2.089,-0.564 -4.649,-2.455 -5.696,-4.208c-1.206,-2.02 -1.407,-4.108 -0.663,-6.894c0.477,-1.788 1.083,-2.968 2.021,-3.941c0.374,-0.389 0.633,-0.583 0.833,-0.584Zm39.023,0.634l0.069,19.588l-2.083,0.761l0.085,-20.832l1.929,0.483Zm3.94,0.756c2.594,6.453 2.709,12.369 0.367,17.75l-2.366,0.343c3.245,-7.582 1.865,-13.009 0.031,-18.249l1.968,0.156Zm-124.434,1.075l8.423,7.965l0.293,88.728l-1.342,-0.475l-0.536,-87.272l-6.838,-6.283l0,-2.663Zm82.257,0.255c0.015,0 0.029,0.003 0.043,0.004c0.225,0.028 0.431,0.312 0.621,0.85c0.223,0.635 0.219,0.654 -0.031,1.283c-1.156,2.839 -0.213,5.54 2.641,6.392c0.678,0.215 0.791,0.325 1.188,1.167c0.259,0.547 0.374,0.745 0.274,0.866c-0.148,0.108 -0.511,0.158 -1.585,-0.074c-4.247,-1.452 -5.788,-6.106 -3.857,-9.8c0.241,-0.422 0.462,-0.652 0.664,-0.684c0.014,-0.002 0.028,-0.004 0.042,-0.004l0,0Zm-33.816,-0.351c0,0 0.888,3.14 0.802,3.853c-0.225,1.376 -2.177,3.575 -3.884,4.378c-1.583,0.607 -3.975,0.302 -4.975,-0.754c-3.635,-4.262 3.146,-8.541 4.852,-4.104c1.025,2.912 -3.143,3.601 -3.328,1.364c0,-0.576 0.185,-0.757 0.721,-1.132c0.477,-0.333 0.422,-0.63 0.012,-0.63c-1.574,0.575 -1.61,2.029 -0.902,2.946c1.418,1.485 3.173,0.62 4.382,-0.47c1.628,-1.469 1.948,-3.577 2.32,-5.451l0,0Zm35.168,3.239c0.082,0 1.748,3.989 1.968,4.557c-0.055,0.4 -0.49,0.371 -1.233,-0.149c-0.755,-0.528 -0.98,-0.901 -1.3,-2.125c-0.095,-0.435 -0.258,-2.02 0.565,-2.283Zm-33.814,1.684c0.366,0 0.747,1.349 0.574,2.04c-0.299,1.197 -3.428,3.219 -5.627,3.637c-0.441,0.083 -0.913,0.172 -1.049,0.197c-0.454,0.081 -0.985,-0.174 -1.538,-0.738c-0.39,-0.399 -0.576,-0.795 -0.482,-0.889c0.076,-0.076 1.084,0.099 1.939,0.086c2.395,0.028 4.244,-1.694 5.666,-3.746c0.217,-0.323 0.449,-0.587 0.517,-0.587Zm-47.612,0.999c0,0 1.622,1.47 2.476,2.313c-0.092,3.912 -1.533,8.153 -1.531,11.651c0.034,3.042 1.999,5.575 2.198,8.223c0.118,1.712 -0.384,4.256 -1.226,6.183c-0.785,1.794 -1.197,3.706 -1.196,5.564c0.1,4.323 3.198,9.048 2.11,13.324c-1.023,4.017 -2.187,6.337 -1.879,8.471c0.596,4.116 2.78,7.763 2.199,11.187c-0.541,3.188 -1.978,6.372 -1.825,9.247c0.178,3.32 1.417,6.095 1.767,9.124c0.228,1.972 -0.328,5.04 -0.328,5.04l-2.273,0.188c1.25,-4.663 -0.612,-8.88 -1.325,-13.362c-0.608,-3.817 1.099,-6.854 1.608,-10.109c0.316,-2.022 -0.042,-3.948 -1.041,-6.523c-1.976,-4.756 -1.266,-7.855 0.158,-11.995c1.76,-4.41 -0.661,-7.901 -1.265,-12.126c-0.311,-3.641 -0.07,-6.215 1.296,-9.452c1.017,-3.117 1.304,-4.924 -0.213,-7.915c-0.958,-1.89 -1.209,-3.006 -1.211,-5.495c0.496,-4.937 1.825,-7.706 1.501,-13.538Zm48.696,1.969c0.353,0 0.528,0.249 0.528,0.753c0,0.922 -1.371,2.088 -3.795,3.231c-1.257,0.592 -1.987,0.681 -2.723,0.332c-0.687,-0.325 -0.653,-0.61 0.1,-0.831c1.895,-0.554 3.24,-1.312 4.771,-2.689c0.487,-0.438 0.991,-0.796 1.119,-0.796Zm-10.97,0.635c6.254,6.707 12.386,10.158 17.074,11.772l-0.737,1.752c-6.16,-2.39 -12.444,-5.716 -17.767,-12.864l1.43,-0.66Zm12.049,1.096c0.169,0 0.806,0.809 0.806,1.024c0,0.126 -0.231,0.531 -0.516,0.896c-0.414,0.532 -0.779,0.805 -1.813,1.372c-1.4,0.768 -2.246,0.956 -2.854,0.634c-0.604,-0.32 -0.401,-0.588 1.107,-1.476c0.778,-0.458 1.817,-1.198 2.306,-1.642c0.49,-0.445 0.922,-0.808 0.964,-0.808Zm-16.564,0.989c5.123,7.024 11.72,11.69 19.476,14.18l-1.219,1.651c-7.086,-2.445 -14.015,-6.87 -20.346,-14.661l2.089,-1.17Zm17.891,0.866c0.258,0 0.837,0.654 0.837,0.947c0,0.14 -0.113,0.397 -0.251,0.571c-0.274,0.35 -1.704,1.427 -2.314,1.743c-0.476,0.247 -0.834,0.244 -1.353,-0.015c-0.617,-0.308 -0.512,-0.566 0.493,-1.214c0.492,-0.317 1.236,-0.906 1.655,-1.306c0.418,-0.4 0.838,-0.726 0.933,-0.726Zm-20.61,0.512c-0.145,0.184 -7.542,17.159 -23.214,29.195l-0.074,-2.819c8.68,-6.898 14.992,-16.342 19.752,-24.589l3.536,-1.787Zm22.099,1.219c0.237,-0.007 0.404,0.155 0.571,0.471c0.199,0.379 -0.019,0.717 -0.895,1.38c-0.548,0.414 -0.751,0.495 -1.203,0.487c-1.167,-0.021 -1.137,-0.303 0.142,-1.449c0.664,-0.595 1.08,-0.881 1.385,-0.889Zm30.264,0.839l3.267,0.251c0.88,0.613 -12.768,9.563 -22.231,8.76l0.251,-2.145c8.307,0.238 18.94,-6.48 18.713,-6.866Zm-28.022,0.837c0.751,0.422 1.686,0.921 1.453,1.083c-0.348,0.218 -2.564,0.077 -3.074,-0.197c-0.382,-0.205 -0.361,-0.312 0.166,-0.904c0.645,-0.726 0.756,-0.371 1.455,0.018Zm-29.12,-0.532c-5.177,9.15 -11.342,17.502 -18.479,22.944l-0.095,-4.84c6.792,-5.239 11.934,-14.809 11.947,-14.843l6.627,-3.261Zm64.838,0.583l1.583,0.927c-9.871,9.154 -20.533,13.1 -30.778,12.111l0.824,-1.854c16.626,1.316 27.665,-11.007 28.371,-11.184Zm2.399,0.325c0,0 0.531,-0.067 0.474,0.041c-3.277,3.218 -7.777,6.654 -10.724,8.571c-13.958,14.361 -25.905,25.694 -38.063,38.487l-1.944,-2.038l1.76,-1.866c0.008,-3.685 4.511,-7.819 7.181,-11.002c1.115,-1.258 3.208,-4.494 2.97,-5.854c-0.081,-0.311 -0.092,-0.429 -0.092,-0.429c4.224,-0.845 5.235,-4.277 5.326,-7.311c0.197,-2.029 0.467,-3.871 1.149,-5.537c19.119,1.534 31.437,-12.568 31.963,-13.062Zm-33.317,2.118c2.169,-0.008 3.808,1.712 3.803,4.15c-0.017,1.019 -0.376,1.793 -1.756,4.49c-1.336,2.305 -1.51,3.708 -2.035,6.371l-1.359,-1.224l-2.472,2.232l0.034,-3.252c0,0 0.853,-1.085 2.232,-2.637c1.747,-1.943 3.329,-4.446 3.256,-5.851c-0.047,-1.406 -1.529,-2.551 -3.045,-1.632c-1.317,0.923 -1.925,2.592 -2.701,7.582c-0.137,0.884 -0.266,1.925 -0.338,2.152c-0.195,0.614 -2.101,2.42 -2.101,2.42c-0.161,0 -0.914,-3.663 -0.914,-3.663l-1.925,0.319c2.231,-2.426 3.961,-5.352 5.086,-8.416c1.034,-1.891 2.35,-3.021 4.235,-3.041l0,0Zm-41.888,0.776c0,0 -3.833,7.978 -10.563,13.167l-0.044,-3.123c3.91,-3.038 6.889,-8.273 6.885,-8.262l3.722,-1.782Zm92.256,0.203c-13.305,13.804 -30.67,39.222 -9.119,74.931l2.847,-3.292c-17.354,-32.295 -5.056,-49.034 6.367,-65.83l-0.095,-5.809Zm-71.946,1.138c3.895,2.775 7.962,5.531 13.22,7.282c-0.28,0.938 -7.509,7.033 -2.322,12.668c0.217,0.295 -0.335,1.013 -1.179,2.03c-2.478,3.394 -4.952,5.81 -7.023,9.63l-0.085,7.176l-2.071,-1.831l-0.54,-36.955Zm71.435,0.661l0.089,4.092c-19.77,24.074 -17.543,45.75 -6.369,65.715l-2.14,2.175c-18.316,-31.586 -6.889,-55.397 8.42,-71.982Zm-48.772,2.421c-0.872,2.307 -4.685,6.259 -4.685,6.259c0,0 0.506,-3.849 0.823,-5.063c0.243,-0.927 0.791,-2.179 1.331,-2.778c1.539,-1.696 3.075,0.229 2.531,1.582Zm-26.229,-2.164l0.37,32.253l-2.778,-2.807l-0.409,-24.663l2.817,-4.783Zm-3.754,6.312l0.553,21.899c-2.773,-6.561 -6.672,-13.744 -6.75,-13.673c0,0 3.19,-4.241 6.197,-8.226Zm21.948,6.852c0,0 0.423,-0.357 1.088,-1.121c1.441,-1.459 1.572,-1.469 1.439,0.499c-0.051,0.756 -0.008,1.727 -0.008,1.727c0.843,-0.49 2.832,-2.844 3.394,-2.42c0.435,0.409 0.785,1.262 0.794,2.586c-0.049,2.593 -1.513,4.974 -3.833,5.75c-6.406,1.988 -10.702,-5.414 -6.254,-10.108c0.442,-0.466 1.702,-1.33 2.307,-1.159c0.749,1.372 0.723,2.894 1.072,4.246l0.001,0Zm63.558,-2.327c0.372,1.021 0.849,2.032 2.147,2.489c-0.199,31.36 -0.05,86.879 -0.05,86.879l6.294,5.918l-0.042,2.586l-8.341,-7.651c0,0 -0.448,-65.474 -0.008,-90.221l0,0Zm6.251,1.453c0.224,3.034 -0.289,6.228 0.231,9.344c0.513,2.155 1.29,4.098 1.354,6.218c0.058,1.939 -0.068,3.042 -0.895,5.75c-0.578,1.89 -0.635,2.191 -0.768,4.081c-0.311,2.63 0.537,5.014 1.188,7.11c0.865,2.779 0.624,6.14 -0.76,10.573c-0.498,1.595 -0.593,2.268 -0.52,3.713c0.191,3.035 1.273,5.921 1.824,8.9c0.298,1.707 -0.008,3.94 -1.057,7.728c-0.39,1.41 -0.802,3.864 -0.802,4.792c0,0.996 0.317,2.87 0.625,3.679c1.455,3.833 1.527,4.519 1.602,6.823c0.01,1.73 -0.488,3.479 -1.101,5.002c-1.02,2.432 -0.35,4.929 0,7.663l-2.509,-2.148c-0.74,-2.34 -0.48,-4.528 0.207,-6.273c0.976,-2.732 1.22,-2.985 1.207,-4.557c-0.019,-2.084 -1.211,-4.549 -1.705,-6.015c-0.876,-2.603 -0.879,-5.155 -0.008,-7.907c0.428,-1.351 1.045,-4.002 1.184,-5.077c0.267,-2.069 0.065,-3.702 -0.972,-7.853c-0.505,-2.025 -0.612,-2.806 -0.648,-4.822c-0.032,-1.867 0.238,-3.809 0.837,-6.06c0.862,-3.577 0.852,-5.724 -0.27,-9.042c-0.907,-2.742 -1.161,-4.602 -0.929,-6.786c0.134,-1.267 0.48,-2.454 1.06,-3.64c1.075,-2.689 1.24,-5.262 0.44,-7.829c-1.375,-5.255 -1.352,-7.925 -1.217,-12.668l2.402,-0.699Zm-7.051,1.72c-0.218,21.491 0,46.095 0,46.095c0,0 -6.354,4.458 -6.329,4.226c-8.187,-13.527 -11.307,-33.454 2.993,-51.426c0,0 2.302,0.984 3.333,1.105l0.003,0Zm-96.639,5.123c11.588,21.678 13.096,43.578 -6.064,66.046c0.617,1.986 0.516,3.837 0.209,5.649c3.736,-2.914 33.69,-32.89 8.463,-74.63l-2.608,2.935Zm59.051,-1.765l5.691,0.335l0.383,4.905l-1.839,1.828c0,0 -0.034,-1.014 -0.059,-1.921c-0.029,-1.108 -0.186,-2.078 -0.289,-2.044c-0.096,0.032 -0.199,1.326 -0.281,2.736l-0.085,2.106l-0.637,0.638c-0.848,0.849 -1.02,0.783 -1.053,-0.414c-0.071,-2.601 -0.064,-2.779 -0.254,-2.589c-0.107,0.107 -0.167,0.997 -0.193,2.342c-0.021,1.068 -0.096,2.091 -0.166,2.272c-0.144,0.373 -1.226,1.341 -1.5,1.341c-0.264,0 -0.249,-0.376 -0.251,-1.994c0,-1.365 -0.143,-2.115 -0.362,-1.611c-0.052,0.119 -0.143,1.475 -0.162,2.577c-0.019,1.102 -0.092,2.109 -0.158,2.234c-0.237,0.442 -1.355,1.389 -1.551,1.314c-0.282,-0.109 -0.352,-0.919 -0.343,-2.273c0.008,-0.663 0.108,-1.222 -0.147,-1.402c-0.254,-0.18 -0.3,0.587 -0.231,2.535l-0.019,2.117l-0.714,0.781c-1.13,1.167 -1.208,1.111 -1.211,-0.904c0.051,-1.595 -0.008,-2.295 -0.32,-2.168c-0.314,0.126 -0.189,0.897 -0.127,2.469c0.055,1.405 0.037,2.109 -0.058,2.288c-0.075,0.142 -0.442,0.556 -0.813,0.919c-0.371,0.363 -0.829,0.866 -0.884,0.866c-0.086,-1.693 -0.231,-5.337 -0.231,-5.337l-5.936,-0.262c0,0 1.216,-1.446 1.732,-1.724c0.268,-0.144 0.687,-0.161 2.175,-0.097c1.015,0.044 2.379,-0.042 2.5,-0.088c0.446,-0.172 -0.484,-0.325 -1.794,-0.41c-0.874,-0.063 -1.101,-0.04 -2.071,-0.182l0.864,-0.892l0.648,-0.646l1.894,0.062c1.145,0.039 1.997,0.032 2.129,-0.042c1.121,-0.222 0.071,-0.478 -1.208,-0.479c-1.246,-0.003 -1.951,-0.004 -1.951,-0.279c0,-0.279 1.395,-1.548 1.793,-1.63c0.205,-0.043 1.221,-0.085 2.257,-0.093c1.779,-0.014 2.425,-0.04 2.325,-0.336c-0.1,-0.296 -1.279,-0.209 -2.063,-0.244c-2.179,-0.003 -2.28,-0.086 -0.791,-1.391l0.721,-0.634l1.366,0.039c2.06,0.058 3.058,-0.025 3.058,-0.22c0,-0.177 -1.341,-0.348 -2.48,-0.348c-0.681,0 -1.234,0.011 -1.234,0.011c0.509,-0.663 1.054,-1.202 1.651,-1.793l1.839,-0.034c1.343,0.02 2.168,0.071 2.191,-0.174c0.022,-0.246 -0.481,-0.244 -1.099,-0.248c-0.836,-0.005 -1.828,-0.077 -1.959,-0.208c-0.141,-0.141 0.122,-0.535 0.705,-1.059l0.602,-0.545l0,0Zm-56.348,0.064c15.921,26.058 10.174,54.216 -7.578,71.742l-0.521,-3.419c16.759,-20.42 19.686,-41.504 6.128,-66.312l1.971,-2.011Zm29.609,3.499c-2.859,4.306 -7.229,8.554 -8.878,12.071c-0.338,0.395 -0.448,1.287 -0.972,1.466c-0.262,0 -0.348,-0.497 -0.282,-1.647c0.049,-0.865 0.13,-1.156 0.548,-2.001c2.255,-4.126 4.87,-7.091 7.756,-11.01l1.828,1.121Zm0.67,0.417l2.642,0.168c-0.588,1.873 -1.38,3.209 -2.315,4.425c-1.199,1.558 -2.641,3.129 -4.321,5.046c-2.433,2.776 -3.652,5.603 -3.539,6.846c-0.609,0.644 -1.031,1.086 -1.804,1.745l-1.541,-1.42c1.142,-5.872 6.676,-11.267 10.878,-16.81Zm32.325,2.385l0.856,0.05c2.93,0.172 4.758,0.352 4.863,0.479c0.066,0.079 0.151,0.53 0.193,1.001c0.064,0.716 0,1.192 -0.374,2.898c-0.248,1.122 -0.526,2.117 -0.617,2.21c-0.338,0.344 -0.472,0.002 -0.629,-1.592c-0.095,-0.961 -0.132,-1.662 -0.258,-1.584c-0.061,0.038 -0.192,1.07 -0.154,1.839c0.098,2.005 0.085,2.495 -0.537,3.1c-1.088,1.058 -1.148,0.951 -1.23,-0.928c-0.034,-0.779 -0.219,-1.916 -0.274,-1.971c-0.235,-0.236 -0.314,0.844 -0.316,2.671l0,1.947l-0.517,0.564c-0.674,0.733 -0.893,0.844 -1.141,0.595c-0.154,-0.153 -0.097,-0.487 -0.097,-1.599c0,-1.305 -0.227,-2.055 -0.474,-1.805c-0.046,0.047 -0.058,1.309 -0.062,2.407c0,1.1 -0.017,2.072 -0.031,2.161c-0.04,0.263 -1.274,1.507 -1.496,1.507c-0.259,0 -0.467,-1.435 -0.467,-2.609c0,-0.783 -0.167,-0.921 -0.331,-0.49c-0.042,0.107 -0.074,1.207 -0.074,2.194l0,1.793l-0.725,0.75c-0.97,1.006 -1.128,0.947 -1.13,-0.429c0,-1.185 -0.081,-1.812 -0.32,-1.812c-0.137,0 -0.17,0.561 -0.17,1.893c0,0.914 -0.06,1.818 -0.131,2.01c-0.072,0.191 -0.39,0.612 -0.706,0.935c-0.316,0.323 -0.64,0.587 -0.721,0.587c-0.134,0 -0.325,-1.123 -0.274,-1.607c0.011,-0.102 0.011,-0.809 0,-1.573c-0.025,-1.822 0.098,-1.744 -2.804,-1.836c-3.405,-0.107 -3.454,-0.127 -2.429,-1.12c0.973,-0.943 0.836,-0.908 3.093,-0.758c1.812,0.121 2.031,0.114 2.214,-0.069c0.111,-0.112 0.173,-0.232 0.138,-0.267c-0.034,-0.034 -0.725,-0.098 -1.535,-0.143c-2.242,-0.124 -2.437,-0.286 -1.488,-1.236l0.536,-0.541l2.295,0c1.548,0 2.602,-0.068 2.659,-0.161c0.149,-0.241 -0.465,-0.302 -1.938,-0.388c-0.791,-0.046 -1.536,-0.112 -1.655,-0.147c-0.375,-0.111 -0.235,-0.489 0.398,-1.082l0.609,-0.572l2.025,0c1.88,0 2.8,-0.123 2.8,-0.371c0,-0.175 -0.374,-0.246 -1.339,-0.259c-1.365,-0.017 -2.275,-0.149 -2.337,-0.336c0.333,-0.645 0.793,-1.007 1.331,-1.546l2.059,0.074c2.073,0.073 2.723,-0.002 2.723,-0.363c0,-0.189 -0.887,-0.325 -2.036,-0.255c-0.74,0.044 -1.635,-0.133 -1.635,-0.395c0,-0.112 0.297,-0.503 0.663,-0.865l0.667,-0.657l2.017,0.081c1.125,0.046 2.325,0.034 2.415,-0.027c0.335,-0.23 -0.442,-0.409 -1.709,-0.483c-1.954,-0.114 -2.082,-0.266 -1.049,-1.244l0.656,-0.626Zm-70.333,1.082c10.45,18.749 8.884,36.413 -2.245,51.445c-1.277,-0.745 -2.639,-1.152 -4.095,-1.306l-0.282,-45.27l6.622,-4.869Zm74.741,7.326c0.209,-0.032 0.205,0.313 0.146,1.04c-0.047,0.584 -0.134,1.196 -0.196,1.36c-0.12,0.316 -0.215,0.331 -1.231,0.186c-1.155,-0.166 -1.139,-0.375 0.132,-1.627c0.615,-0.607 0.964,-0.93 1.149,-0.959Zm-56.105,0.843c0,0 1.377,-0.009 2.065,0.016c0,0 0.107,3.508 0.388,5.531l4.479,0.216l-1.739,1.812l-3.397,-0.108c0,0 -1.032,-4.98 -1.796,-7.467l0,0Zm53.374,2.121c0.631,-0.011 2.287,0.274 2.48,0.468c0.152,0.152 0.157,0.526 0.023,2.79c-0.048,0.816 -0.097,2.569 -0.108,3.895c-0.019,2.401 -0.02,2.411 -0.297,2.45c-0.365,0.052 -0.406,-0.076 -0.505,-1.658c-0.056,-0.89 -0.178,-1.67 -0.281,-1.704c-0.12,-0.04 -0.108,0.745 -0.108,2.369l0,2.098c-0.357,0.297 -0.687,0.689 -1.096,0.897c-0.251,0 -0.385,-0.394 -0.509,-1.492c-0.123,-1.09 -0.244,-1.858 -0.389,-1.615c-0.035,0.057 -0.02,1.244 0.05,2.218l0.127,1.774l-0.787,0.792c-0.807,0.816 -0.908,0.882 -1.037,0.672c-0.301,-0.808 0.125,-4.508 -0.602,-4.977c-0.116,-0.061 -1.082,-0.088 -2.202,-0.135c-1.891,-0.08 -2.964,-0.112 -3.228,-0.34c-0.16,-0.139 0.733,-1.176 1.192,-1.384c0.33,-0.149 0.704,-0.158 2.264,-0.054c1.805,0.121 2.715,0.108 2.476,-0.124c-0.063,-0.06 -0.982,-0.195 -1.701,-0.266c-1.452,-0.144 -1.963,-0.291 -1.963,-0.56c0.337,-0.601 0.751,-0.955 1.249,-1.469l0.702,0.074c0.386,0.038 1.299,0.136 2.029,0.22c0.73,0.083 2.203,0.097 1.608,0.046c0.193,-0.193 -0.56,-0.392 -1.604,-0.521c-1.969,-0.245 -2.148,-0.468 -1.157,-1.446l0.609,-0.599c1.034,0.079 2.079,0.105 3.105,0.263c0.75,0.119 1.157,0.077 1.157,-0.178c0,-0.178 -0.374,-0.171 -1.281,-0.351c-0.329,-0.066 -2.023,-0.041 -2.052,-0.541c0.4,-0.555 1.117,-1.567 1.836,-1.612l0,0Zm-45.896,4.255c0.301,-0.017 0.316,0.717 0.348,2.655c0.034,2.122 0.068,2.488 0.25,2.67c0.174,0.174 0.608,0.234 2.469,0.328c2.848,0.145 2.921,0.187 1.916,1.156c-0.698,0.674 -0.728,0.589 -1.303,0.521c-1.505,-0.176 -3.705,-0.135 -3.791,0.004c-0.149,0.241 0.012,0.29 1.388,0.395c1.675,0.127 2.133,0.186 2.133,0.471c0,0.125 -0.285,0.494 -0.633,0.819l-0.632,0.591l-1.763,-0.069c-1.855,-0.075 -2.807,-0.102 -2.807,0.151c0,0.152 1.059,0.321 2.738,0.487c0.436,0.043 0.882,0.05 0.906,0.123c0.06,0.183 -0.788,1.236 -1.311,1.627c-0.426,0.318 -0.569,0.141 -2.43,0.101c-1.899,-0.042 -2.063,0.03 -1.708,0.382c0.084,0.084 0.398,0.093 1.106,0.143c1.163,0.082 1.721,0.256 1.721,0.545c0,0.276 -1.048,1.362 -1.539,1.596c-0.433,0.206 -0.619,0.215 -1.578,0.081c-0.755,-0.105 -0.899,-0.264 -0.879,-0.974c0.009,-0.32 0.065,-2.393 0.123,-4.61c0.114,-4.28 0.149,-4.498 0.714,-4.417c0.241,0.035 0.298,0.326 0.362,1.778c0.069,1.545 0.134,1.851 0.39,1.851c0.096,0 0.11,-0.613 0.05,-2.102c-0.093,-2.311 -0.097,-2.654 0.606,-3.324c0.313,-0.298 0.562,-0.536 0.709,-0.32c0.298,0.911 0.213,1.906 0.301,2.821c-0.009,0.92 0.349,1.113 0.432,0.235c-0.041,-1.39 -0.052,-2.638 -0.061,-4.123l0.856,-0.85c0.452,-0.449 0.737,-0.732 0.918,-0.742l-0.001,0Zm-5.549,1.731c0.34,-0.056 2.246,-0.024 2.522,0.039c-0.48,0.759 -1.501,1.747 -2.198,2.183c-0.176,0.01 -0.358,-1.842 -0.324,-2.222l0,0Zm53.983,4.201l0.405,2.855l-3.112,-0.212l2.707,-2.643Zm-41.939,0.463c0.021,-0.002 0.04,0.003 0.055,0.008c0.224,0.087 0.288,0.638 0.377,3.289c0.043,1.248 0.128,2.226 0.205,2.318c0.09,0.109 0.478,0.163 1.199,0.163c0.586,0 1.69,0.037 2.453,0.081c1.665,0.096 1.71,0.166 0.718,1.147l-0.671,0.665l-2.087,-0.085c-2.139,-0.087 -2.495,-0.051 -2.495,0.244c0,0.2 0.365,0.296 1.049,0.278c0.271,-0.007 0.952,0.029 1.512,0.081c1.249,0.117 1.274,0.212 0.343,1.217l-0.671,0.723l-0.652,-0.089c-1.048,-0.144 -3.802,-0.109 -3.961,0.05c-0.257,0.257 0.077,0.368 1.331,0.445c1.944,0.118 2.283,0.176 2.283,0.398c0,0.107 -0.275,0.472 -0.61,0.807l-0.605,0.607l-2.468,-0.128c-1.731,-0.029 -2.322,0 -2.361,0.112c-0.067,0.195 0.217,0.256 2.002,0.441c1.713,0.178 1.963,0.355 1.311,1.167c-0.715,0.892 -0.984,0.992 -2.333,0.862c-1.484,-0.144 -3.001,-0.147 -3.221,-0.008c-0.341,0.217 0.01,0.362 1.065,0.44c1.598,0.119 2.53,0.291 2.53,0.526c0,0.265 -0.529,0.945 -1.041,1.337l-0.421,0.321l-1.824,-0.194c-1.817,-0.193 -2.747,-0.097 -2.488,0.163c0.075,0.075 0.752,0.181 1.501,0.235c1.371,0.1 2.051,0.278 2.051,0.561c0,0.084 -0.349,0.5 -0.775,0.923c-0.432,0.429 -0.917,0.714 -0.917,0.714l-5.616,-0.505c0,0 -0.287,-1.004 0.278,-3.733c0.508,-2.46 0.716,-3.012 0.96,-2.554c0.068,0.127 0.13,0.724 0.177,1.132c0.114,0.987 0.356,1.608 0.502,1.608c0.163,0 0.162,-0.587 -0.051,-1.967c-0.295,-1.924 -0.329,-2 0.402,-2.775c0.626,-0.664 0.981,-0.82 1.176,-0.518c0.055,0.085 0.13,0.957 0.204,1.689c0.131,1.287 0.207,1.582 0.374,1.414c0.108,-0.108 0.188,-0.476 0.07,-2.384l-0.151,-1.855l0.822,-0.838c0.751,-0.767 0.837,-0.82 0.987,-0.623c0.104,0.136 0.219,0.933 0.274,1.882c0.081,1.404 0.193,1.867 0.397,1.662c0.097,-0.097 0.05,-3.285 -0.054,-4.023c-0.067,-0.482 -0.033,-0.552 0.575,-1.236c0.724,-0.815 1.105,-1.152 1.303,-1.156c0.261,-0.005 0.404,0.795 0.405,1.859c0,1.135 0.091,1.585 0.197,1.727c0.272,0.366 0.303,-0.916 0.239,-2.183l-0.073,-2.311l0.748,-0.749c0.708,-0.71 0.765,-0.741 0.964,-0.542c0.165,0.165 0.154,0.557 0.22,1.724c0.099,1.613 0.415,2.399 0.505,1.279c0.047,-0.253 0.041,-0.747 -0.015,-1.097c-0.056,-0.351 -0.102,-1.147 -0.1,-1.766c0,-0.945 0.048,-1.197 0.277,-1.569c0.333,-0.54 1.312,-1.38 1.62,-1.411l0,0Zm32.44,1.759c0,0 1.253,1.073 1.253,1.379c0,0.136 -0.496,0.726 -1.168,1.387c-1.24,1.219 -1.357,1.428 -1.501,2.736c-0.053,0.488 -0.299,1.134 -0.871,2.288c-0.439,0.884 -1.072,1.917 -1.072,1.917c-1.979,2.368 -3.845,4.537 -7.314,9.538c-0.198,0.459 -0.208,0.92 -0.411,1.301c-0.156,0.283 -0.506,0.515 -0.66,0.58c-0.228,0.095 -0.687,0.38 -1.018,0.633c-1.296,0.991 -2.13,2.296 -2.507,3.919c-0.204,0.877 -0.325,1.665 -0.679,4.37c-0.146,1.112 -0.633,3.049 -0.633,3.049c-7.452,-0.106 -14.428,1.188 -20.648,4.705l37.229,-37.802Zm9.958,1.147l1.658,7.547l-1.708,-0.035l-0.17,-5.479l-5.33,-0.51l1.905,-1.847l3.645,0.324Zm-8.088,0.692c0.457,0.466 1.026,0.977 1.439,1.484c-1.425,4.773 -5.938,10.967 -10.421,17.111l-3.286,-0.359c-0.057,-0.135 4.551,-6.575 6.757,-9.016c0.841,-1.019 1.412,-1.986 2.161,-3.488c0.271,-0.543 0.745,-1.95 1.11,-3.417c0.774,-0.936 2.245,-2.301 2.24,-2.315Zm1.771,1.673l2.483,2.524l0.607,35.731c-3.831,-3.013 -8.346,-5.244 -13.16,-6.942l0.84,-1.921l0.926,-0.997c3.274,-3.55 2.545,-7.372 0.054,-10.074c3.034,-4.434 5.783,-7.737 8.096,-12.065l-0.031,-2.967c-0.028,-2.736 0.185,-3.289 0.185,-3.289Zm-29.717,1.492c0.26,-0.026 0.293,0.634 0.359,2.508c0.061,1.751 0.135,2.581 0.25,2.763c0.156,0.244 0.305,0.265 2.368,0.328c2.178,0.067 2.631,0.129 2.631,0.363c0,0.067 -0.28,0.403 -0.621,0.746l-0.621,0.622l-1.94,-0.031c-1.034,0.034 -2.255,0.013 -2.287,0.043c-0.171,0.159 0.474,0.377 1.419,0.379c0.589,0.001 1.524,0.105 1.632,0.146c0.367,0.142 0.195,0.505 -0.606,1.276l-0.798,0.773l-1.763,-0.035c-0.968,-0.018 -2.146,0.011 -2.298,0.062c-0.536,0.178 -0.27,0.324 0.617,0.336c1.482,0.02 2.505,0.143 2.549,0.375c0.021,0.112 -0.254,0.524 -0.617,0.915l-0.66,0.708l-2.591,-0.109c-2.451,0.018 -2.781,0.201 -0.737,0.406c0.781,0.078 2.012,0.271 2.056,0.278c0.043,0.008 0.113,0.1 0.154,0.205c0.086,0.225 -0.901,1.339 -1.427,1.612c-0.271,0.14 -0.459,0.149 -0.93,0.042c-0.552,-0.125 -2.926,-0.103 -3.181,0.05c-0.215,0.129 0.251,0.277 0.91,0.29c0.992,0.02 2.175,0.308 2.175,0.545c0,0.195 -0.503,0.819 -1.037,1.287c-0.248,0.217 -0.836,0.023 -2.477,0.077c-1.122,0.037 -1.87,0.142 -1.87,0.216c0,0.069 0.557,0.289 1.273,0.341c0.709,0.05 1.681,0.22 1.747,0.285c0.167,0.168 -1.095,1.66 -1.095,1.66l-5.389,-0.075l-0.497,-5.719l0.459,-0.53c1.031,-1.193 1.256,-1.02 1.462,1.121c0.15,1.568 0.262,2.048 0.489,1.82c0.083,-0.083 0.05,-0.978 -0.035,-2.295c-0.069,-1.084 -0.127,-2.072 -0.127,-2.195c0,-0.298 1.226,-1.588 1.466,-1.542c0.235,0.045 0.367,0.579 0.493,2.044c0.105,1.204 0.161,1.532 0.398,1.295c0.11,-0.112 0.126,-0.741 0.015,-2.265l-0.147,-1.99l0.521,-0.618c1.044,-1.241 1.25,-1.103 1.377,0.912c0.086,1.359 0.217,2.075 0.467,2.075c0.083,0 0.086,-1.016 0.034,-2.551l-0.078,-2.303l0.652,-0.664c0.359,-0.365 0.725,-0.661 0.81,-0.661c0.254,0 0.399,0.578 0.559,1.944c0.18,1.53 0.239,1.793 0.386,1.646c0.062,-0.063 0.049,-0.989 -0.035,-2.18l-0.181,-2.28l0.794,-0.807c0.438,-0.443 0.877,-0.788 0.976,-0.769c0.239,0.046 0.394,0.735 0.413,1.712c0.017,0.911 0.172,1.695 0.374,1.897c0.1,0.1 0.129,-0.461 0.104,-2.087c-0.039,-2.503 -0.103,-2.694 1.022,-3.868c0.3,-0.313 0.496,-0.516 0.632,-0.529l0.002,0Zm29.095,1.023l0.024,3.494c-1.398,2.997 -4.628,7.389 -7.903,12.103l-1.708,-0.927c4.096,-5.38 7.521,-10.395 9.587,-14.67l0,0Zm-46.774,1.098c0.076,-0.001 0.162,0.003 0.258,0.008c0.884,0.052 0.908,0.358 0.085,1.129c-0.345,0.323 -0.737,0.579 -0.887,0.579c-0.255,0 -0.267,-0.038 -0.189,-0.703c0.096,-0.818 0.195,-1.008 0.733,-1.012l0,-0.001Zm53.381,2.52l2.415,2.38l0.605,25.59l-2.541,4.152l-0.479,-32.122Zm3.024,3.373c2.177,5.131 4.438,9.943 6.942,13.845l-6.454,9.13l-0.488,-22.975Zm-21.714,7.976c2.968,-0.041 5.7,2.312 6.044,4.703c0.649,2.746 -0.763,5.704 -3.079,6.612c-0.807,0.29 -1.28,0.31 -1.28,0.31c-0.282,-1.656 -0.16,-3.251 -0.535,-4.932c0,0 -1.389,1.836 -2.171,2.478c-0.405,0.225 -0.587,0.285 -0.534,-0.247c0.027,-0.929 0.097,-2.992 0.097,-2.992l-3.428,3.555c0,0 -0.279,-0.386 -0.61,-1.271c-1.076,-2.889 0.322,-5.906 2.53,-7.292c0.963,-0.634 1.977,-0.91 2.966,-0.924l0,0Zm45.618,-0.216l0.066,3.128c-5.381,4.18 -13.057,12.988 -19.635,24.468l-2.897,1.224c4.463,-10.685 13.884,-21.567 22.466,-28.82l0,0Zm0.059,4.113l0.057,4.663c-4.748,4.573 -8.874,9.298 -12.464,15.38c-2.096,1.009 -5.979,2.925 -5.979,2.925c-0.486,-0.119 10.577,-17.375 18.386,-22.968l0,0Zm-47.897,3.993c0.216,-0.003 0.205,0.418 0.137,1.025c-0.154,1.377 -0.314,1.876 -0.817,2.547c-1.74,2.057 -4.503,4.855 -4.879,7.458c-0.19,1.39 0.893,2.691 1.957,2.558c3.306,-0.414 3.661,-6.3 3.94,-9.204c0.116,-0.72 0.169,-1.323 0.289,-1.55c0.697,-0.891 1.446,-1.759 2.386,-2.463l0.405,4.499l1.862,-0.623c-5.253,7.153 -3.743,7.601 -6.514,10.531c-2.575,2.723 -7.57,-0.379 -6.292,-4.518c1.111,-2.786 2.831,-5.581 3.295,-8.565c0.126,-0.886 0.199,-1.501 0.199,-1.501l1.195,2.496c0.607,-0.6 2.38,-2.585 2.837,-2.69Zm48.093,1.543l-0.012,3.212c-2.449,2.763 -4.563,4.885 -7.065,8.705l-3.975,1.815c2.595,-4.952 6.851,-9.584 11.051,-13.732l0.001,0Zm-48.56,2.834c0,0 0.264,1.499 -0.317,4.222c-0.276,1.291 -1.516,5.061 -3.477,4.172c-1.664,-1.473 0.364,-4.206 1.386,-5.497c0.791,-0.928 1.648,-1.93 2.408,-2.897Zm-5.231,0.385l-1.084,2.322c-9.737,0.036 -19.194,3.525 -27.611,10.65l-2.129,-0.699c8.918,-8.45 19.972,-12.559 30.824,-12.273Zm10.236,1.785c10.973,3.681 16.04,9.053 20.191,14.687l-1.735,0.891c-4.35,-5.639 -9.718,-10.8 -19.713,-13.785l1.257,-1.793Zm-12.573,3.474l-0.466,1.99c-6.146,0.185 -12.631,2.37 -18.941,6.759l-2.276,-0.363c6.351,-4.993 13.605,-7.844 21.683,-8.386Zm28.085,13.444l-1.949,0.922c-5.816,-7.56 -11.074,-9.712 -17.05,-11.638l0.644,-1.677c8.03,2.135 13.921,6.219 18.355,12.393Zm-81.098,-8.914l0.168,20.174l-1.402,-0.281l-0.199,-19.51l1.433,-0.383Zm-3.247,1.094c-2.673,10.035 -0.6,12.633 0.366,18.489l-2.213,-0.355c-2.155,-5.932 -2.376,-11.329 -0.559,-17.628l2.406,-0.506Zm67.259,1.541c0.168,0.16 -0.135,0.652 -0.547,0.896c-0.399,0.236 -0.311,0.2 -0.949,-0.031c-0.621,-0.224 -1.412,-0.812 -1.412,-1.035c0.453,0.008 2.511,-0.014 2.908,0.17l0,0Zm1.886,0.143c0.366,0.044 1.425,0.024 1.492,0.356c0.025,0.198 -0.391,0.519 -1.241,1.101c-1.291,0.883 -1.73,1.057 -2.11,0.637c-0.359,-0.397 -0.253,-0.809 0.351,-1.368c0.589,-0.544 0.93,-0.729 1.508,-0.726Zm-44.079,0.22c0.739,0 2.063,0.916 2.862,1.978c0.809,1.27 1.74,2.573 2.491,3.857c1.709,2.918 3.027,5.879 4.131,8.911c2.891,7.208 4.587,14.197 5.997,21.142c-0.026,0.585 -0.533,0.574 -0.949,0.436c-0.216,-0.069 -0.43,-0.214 -0.474,-0.324c-0.598,-1.701 -0.805,-3.44 -1.261,-5.147c-1.141,-4.27 -1.55,-6.716 -3.749,-12.737c-1.141,-3.125 -2.793,-7.474 -4.597,-10.816c-1.157,-2.143 -2.495,-4.124 -4.231,-5.874c-0.459,-0.458 -1.03,-0.876 -1.03,-0.966c0,-0.296 0.289,-0.46 0.81,-0.46Zm46.895,0.232c0.685,0.168 2.34,0.363 1.712,0.912c-2.326,0.896 -3.079,1.867 -4.312,2.855c-0.186,0 -0.921,-0.912 -0.921,-1.136c1,-1.231 2.26,-1.757 3.521,-2.631Zm-43.532,0.008c0.972,-0.035 1.923,1.224 2.372,2.017c2.99,4.408 5.55,10.695 7.656,16.856c2.267,6.632 3.706,13.008 4.331,17.532c-0.053,0.141 -0.335,0.193 -0.656,0.19c-0.612,-0.004 -0.699,-0.146 -0.856,-0.634c-1.559,-7.484 -3.653,-15.21 -6.186,-21.768c-1.361,-3.494 -2.905,-7.003 -5.076,-10.526c-1.48,-2.175 -2.321,-3.316 -2.256,-3.486c0.044,-0.115 0.289,-0.173 0.575,-0.173c0.031,-0.004 0.065,-0.007 0.096,-0.008l0,0Zm-6.684,0.131c1.312,-0.004 3.483,1.556 4.956,3.559c3.125,4.292 4.913,9.306 6.769,14.171c2.131,5.574 3.668,11.77 4.586,16.647c0.156,0.699 0.411,1.005 -0.247,1.225c-0.997,-0.285 -0.975,-0.257 -1.257,-1.472c-0.389,-1.306 -0.508,-2.626 -0.876,-3.953c-2.106,-7.595 -4.466,-16.023 -8.385,-22.881c-4.707,-7.55 -6.077,-5.45 -6.834,-6.782c0.058,-0.301 0.583,-0.512 1.288,-0.514Zm11.328,1.843c4.046,7.053 5.829,11.383 7.059,15.643c1.865,6.456 4.073,11.611 5.043,19.148c0,0 -1.062,0.019 -1.488,-0.155c-0.177,-0.175 -0.364,-0.928 -0.475,-1.546c-0.971,-5.322 -2.552,-11.619 -4.235,-16.581c-1.811,-5.524 -3.967,-10.777 -7.154,-15.852c-0.835,-1.366 -0.994,-1.904 -0.482,-1.928c0.913,0.063 1.314,0.766 1.732,1.271Zm42.147,-0.753c0.188,0.002 0.263,-0.025 0.605,0.093c0.536,0.184 0.707,0.301 0.737,0.514c0.044,0.309 -0.288,0.41 -1.323,0.653c-0.814,0.19 -2.401,1.039 -3.506,1.959c-0.512,0.427 -0.953,0.885 -1.076,0.885c-0.254,0 -0.86,-0.669 -0.86,-0.947c0.845,-1.294 3.536,-3.071 5.423,-3.157Zm-55.742,0.174c3.424,0.105 6.104,4.09 7.509,6.778c0.547,1.052 1.257,2.195 1.793,3.397c2.78,6.225 5.138,14.035 6.291,19.023c0.554,2.401 1.194,4.161 0.968,4.63c-0.282,0.179 -0.879,0.042 -1.154,-0.189c-0.175,-0.149 -0.271,-0.698 -0.582,-1.701c-0.799,-2.57 -2.121,-9.919 -5.569,-17.64c-0.078,-0.173 -1.746,-5.058 -4.628,-9.692c-1.174,-1.887 -3.072,-3.072 -4.802,-3.458c-0.871,-0.143 -1.13,-0.04 -1.076,-0.511c0.034,-0.299 0.128,-0.381 0.594,-0.529c0.207,-0.066 0.425,-0.102 0.656,-0.108Zm21.405,15.925c-0.235,0 -0.442,-0.448 -0.598,-1.183c-0.077,-0.361 -0.182,-0.619 0.494,-1.043c4.248,-4.527 0.595,-11.173 -4.744,-11.752c-0.495,-0.075 -1.133,-0.077 -1.319,-0.146c-0.271,-0.154 -0.768,-1.116 -0.985,-1.503c7.38,-1.792 15.211,8.791 7.152,15.627Zm36.759,-14.789c0.439,0.11 1.396,1 1.276,1.194c-0.143,0.232 -0.971,0.24 -2.163,0.452c-2.538,0.45 -3.626,2.108 -4.806,3.339c-0.262,0.08 -0.495,-0.102 -0.729,-0.502c-0.172,-0.296 -0.312,-0.65 -0.312,-0.789c1.319,-1.924 4.851,-3.87 6.734,-3.694Zm-59.9,0.568c2.158,0 4.313,1.048 5.527,2.755c4.429,6.641 9.404,21.404 10.591,28.685c-0.121,0.234 -0.436,0.259 -1.05,0.081c-0.342,-0.099 -0.3,-0.209 -0.516,-0.885c-1.391,-5.305 -2.916,-10.455 -4.71,-15.179c-0.924,-2.435 -2.011,-4.814 -3.035,-6.952c-0.648,-1.352 -1.951,-3.759 -2.445,-4.494c-1.164,-2.192 -3.518,-2.835 -5.001,-2.126c-1.534,0.831 -1.727,2.818 -0.559,3.7c0.97,0.678 2.499,0.566 3.061,-0.484c0.192,-0.372 0.132,-0.834 0.008,-0.951c-0.12,-0.113 -0.337,-0.08 -0.382,0.043c0.08,1.291 -1.563,1.374 -2.28,0.865c-1.146,-0.858 -0.384,-3.574 2.739,-2.481c1.205,0.635 1.608,1.836 1.037,3.111c-0.584,1.305 -1.49,1.898 -2.888,1.89c-1.698,-0.031 -3.623,-1.224 -3.637,-3.37c0.008,-1.601 0.745,-2.933 2.132,-3.825c0.515,-0.331 0.716,-0.383 1.408,-0.383l0,0Zm18.27,0.997c5.235,0.241 7.64,6.415 4.886,10.14c-0.702,0.89 -1.146,0.728 -1.446,-0.421c-0.147,-0.472 -0.311,-0.543 0.112,-0.908c2.451,-2.354 0.438,-6.93 -3.603,-7.115c0,0 -0.754,-1.1 -0.829,-1.684c0.27,-0.098 0.634,-0.012 0.88,-0.012l0,0Zm43.655,0.425c0.397,0.098 1.238,0.906 1.238,1.19c0,0.336 -0.165,0.272 -1.096,0.112c-2.201,-0.394 -4.407,0.882 -6.248,3.668c-0.893,1.672 -1.003,1.513 -1.473,0.073c-0.241,-0.739 -0.245,-0.722 0.69,-2.087c1.748,-2.245 4.327,-3.271 6.889,-2.956l0,0Zm2.048,2.833c1.841,1.676 0.982,5.369 -1.507,5.751c-2.196,0.253 -4.146,-2.124 -2.763,-3.742c0.899,-0.977 2.024,-1.076 2.715,-0.236c0.716,0.867 0.413,2.05 -0.605,2.172c-0.119,0.042 -0.216,0.135 -0.216,0.205c0,0.216 0.903,0.157 1.211,-0.093c0.619,-0.685 0.63,-1.73 0.077,-2.477c-0.49,-0.661 -1.534,-1.187 -2.372,-0.846c-1.477,0.529 -2.981,2.535 -3.841,5.062c-0.242,0.711 -0.384,1.378 -0.486,1.534c-0.21,0.322 -0.195,0.314 -0.39,0.189c-0.17,-0.108 -0.486,-1.655 -0.486,-2.245c0,-0.447 0.386,-1.629 0.895,-2.643c1.599,-2.977 5.194,-4.974 7.768,-2.631l0,0Zm-44.891,-0.75c2.144,0.129 3.84,3.172 2.908,5.29c-0.289,0.39 -0.704,0.655 -0.897,0.41c-0.07,-0.089 -0.4,-1.083 -0.856,-2.137c-0.457,-1.054 -0.877,-2.085 -1.007,-2.342c-0.341,-0.731 -0.587,-1.228 -0.148,-1.221Zm-14.566,1.766c2.443,4.334 4.485,9.304 6.179,14.155c1.32,3.78 2.401,7.488 3.024,10.766c0.059,0.331 0.14,0.504 0,0.649c-0.24,0.24 -1.406,-0.357 -1.406,-0.357c-2.043,-7.051 -3.692,-14.12 -8.554,-23.099c0,0 -0.211,-0.356 -0.268,-0.589c-0.065,-0.562 0.099,-1.273 0.441,-1.672c0.138,-0.147 0.323,-0.157 0.588,0.147l-0.004,0Zm-27.402,8.186c11.549,0.777 20.482,5.653 25.254,18.532c-1.695,-0.958 -10.296,-7.569 -25.123,-8.446l-0.024,-1.785c10.629,-0.087 20.998,5.455 20.782,5.375c-3.954,-8.169 -13.89,-11.478 -20.921,-11.694l0.032,-1.982Zm80.125,2.603c-0.729,1.143 -0.696,1.096 -1.046,2.083c0.041,0.32 0.099,2.317 0.147,3.482c0.061,1.484 0.103,2.131 0.22,2.272c0.198,0.239 0.6,0.277 0.775,0.062c0.069,-0.085 0.189,-0.405 0.27,-0.711c0.953,-3.609 1.402,-4.959 1.786,-5.407c0.253,-0.326 0.339,-0.296 1.384,-0.177c2.354,0.209 3.154,-2.602 1.616,-3.733c-2.058,-1.148 -4.242,0.776 -5.152,2.129l0,0Zm2.484,0.767c-1.682,1.386 -1.732,3.384 -2.241,5.223c-0.274,1.237 -0.66,1.889 -0.814,0.023c-0.287,-2.589 0.074,-4.522 1.194,-6.042c0.693,-1.118 1.832,-1.871 2.855,-1.943c2.203,-0.155 2.429,1.594 1.816,2.533c-0.445,0.682 -1.679,0.98 -2.81,0.206l0,0Zm-79.555,0.833c0.831,0 1.505,0.675 1.505,1.507c0,0.832 -0.674,1.507 -1.505,1.507c-0.83,0 -1.504,-0.675 -1.504,-1.507c0,-0.832 0.674,-1.507 1.504,-1.507Zm4.794,1.032c0.743,0 1.346,0.601 1.346,1.344c0,0.744 -0.603,1.349 -1.346,1.349c-0.742,0 -1.342,-0.605 -1.342,-1.349c0,-0.743 0.6,-1.344 1.342,-1.344Zm4.37,1.476c0.605,0 1.092,0.491 1.092,1.097c0,0.606 -0.487,1.098 -1.092,1.098c-0.604,0 -1.095,-0.492 -1.095,-1.098c0,-0.606 0.491,-1.097 1.095,-1.097Zm3.101,1.967c0.467,0 0.845,0.382 0.845,0.85c0,0.468 -0.378,0.846 -0.845,0.846c-0.467,0 -0.849,-0.378 -0.849,-0.846c0,-0.468 0.382,-0.85 0.849,-0.85Zm-10.865,2.704c-0.321,1.634 -0.07,3.314 0.305,4.472c0.856,2.495 0.467,6.96 0.467,6.96l-2.507,2.515c0.179,-2.344 0.457,-4.805 0.328,-6.773c-0.089,-1.306 -0.679,-2.527 -0.832,-3.838c-0.142,-1.214 0.073,-3.643 0.073,-3.643l2.166,0.307Zm4.063,0.753l0.087,10.651l-8.581,8.332l-0.012,-2.199l7.316,-7.269l-0.154,-9.869l1.344,0.354Zm21.161,24.288l-0.563,0.92l9.68,0l0.205,-0.92l-9.322,0Zm12.53,0l-0.227,0.92l4.482,0l0.149,-0.92c0,0 -2.356,0.002 -4.404,0Zm7.344,0l-0.143,0.92l16.638,0l-0.246,-0.92l-16.249,0Zm19.446,0l0.266,0.92l4.431,0l-0.366,-0.92l-4.331,0Zm7.409,0l0.324,0.92l7.617,0l-0.633,-0.92l-7.308,0Z" style="fill-rule:nonzero;"/><path id="path35-67-2-1-9" d="M13.98,11.072l0,2.758l2.674,0c0,0 0.065,2.659 0.089,8.298c0.02,5.476 0.132,8.192 -0.217,9.752c-0.937,3.594 -6.139,3.614 -7.172,1.03c-0.601,-1.504 -0.441,-2.673 -0.469,-4.186l-2.875,0c0,0 0.017,0.762 0.02,1.694c0.017,4.042 1.354,5.975 4.482,6.737c3.216,0.87 6.976,-0.457 8.313,-3.208c0.796,-1.569 0.705,-1.676 0.725,-11.158c0.012,-6.326 0.107,-8.959 0.107,-8.959l2.463,0l0,-2.758l-8.14,0Z" style="fill:#d40000;fill-rule:nonzero;"/><path id="path35-6-7-1-4" d="M164.021,237.928l0,-2.758l-2.675,0c0,0 -0.064,-2.659 -0.088,-8.298c-0.021,-5.476 -0.132,-8.192 0.217,-9.752c0.937,-3.594 6.138,-3.614 7.172,-1.029c0.6,1.503 0.441,2.672 0.468,4.186l2.876,0c0,0 -0.017,-0.763 -0.021,-1.695c-0.016,-4.042 -1.353,-5.975 -4.481,-6.737c-3.216,-0.87 -6.976,0.457 -8.313,3.208c-0.797,1.569 -0.705,1.676 -0.725,11.159c-0.012,6.325 -0.108,8.958 -0.108,8.958l-2.462,0l0,2.758l8.14,0Z" style="fill:#d40000;fill-rule:nonzero;"/></g></g></svg>