<?xml version="1.0" encoding="UTF-8" standalone="no"?><!DOCTYPE svg PUBLIC "-//W3C//DTD SVG 1.1//EN" "http://www.w3.org/Graphics/SVG/1.1/DTD/svg11.dtd"><svg width="100%" height="100%" viewBox="0 0 178 249" version="1.1" xmlns="http://www.w3.org/2000/svg" xmlns:xlink="http://www.w3.org/1999/xlink" xml:space="preserve" xmlns:serif="http://www.serif.com/" style="fill-rule:evenodd;clip-rule:evenodd;stroke-linejoin:round;stroke-miterlimit:2;"><rect id="jack-spades" x="0" y="0" width="178" height="249" style="fill:none;"/><clipPath id="_clip1"><rect x="0" y="0" width="178" height="249"/></clipPath><g clip-path="url(#_clip1)"><rect x="-1778.21" y="-498" width="2312.21" height="1245" style="fill:#fff;"/><g id="jack_spades"><path id="path7363-8-9" d="M13.729,39.923c-3.437,4.377 -7.115,6.896 -7.176,10.311c-0.021,1.105 0.649,2.985 2.746,3.345c1.36,0.232 3.234,-0.751 3.273,-2.749c-0.008,-0.398 0.471,-0.388 0.467,0.157c-0.064,1.576 -0.623,3.411 -1.562,4.904l4.503,0c-0.939,-1.493 -1.497,-3.328 -1.561,-4.904c-0.008,-0.545 0.473,-0.555 0.467,-0.157c0.039,1.998 1.912,2.981 3.273,2.749c2.097,-0.36 2.766,-2.24 2.746,-3.345c-0.062,-3.415 -3.739,-5.934 -7.176,-10.311Z" style="fill-rule:nonzero;"/><path id="path7367-3-1" d="M164.272,209.077c-3.438,-4.377 -7.115,-6.896 -7.176,-10.311c-0.021,-1.105 0.649,-2.985 2.746,-3.344c1.36,-0.233 3.234,0.751 3.273,2.748c-0.008,0.398 0.471,0.388 0.467,-0.157c-0.064,-1.576 -0.623,-3.411 -1.562,-4.904l4.503,0c-0.939,1.493 -1.498,3.328 -1.562,4.904c-0.008,0.545 0.474,0.555 0.468,0.157c0.039,-1.997 1.912,-2.981 3.272,-2.748c2.098,0.359 2.767,2.239 2.747,3.344c-0.062,3.415 -3.739,5.934 -7.176,10.311Z" style="fill-rule:nonzero;"/><path id="path35-7-9-2" d="M13.642,11.072l0,2.758l2.675,0c0,0 0.065,2.659 0.088,8.298c0.021,5.476 0.133,8.192 -0.216,9.752c-0.937,3.594 -6.139,3.614 -7.172,1.029c-0.601,-1.503 -0.441,-2.672 -0.469,-4.185l-2.875,0c0,0 0.016,0.762 0.02,1.694c0.017,4.042 1.354,5.975 4.481,6.737c3.216,0.87 6.977,-0.457 8.314,-3.208c0.796,-1.569 0.705,-1.676 0.725,-11.159c0.012,-6.325 0.107,-8.958 0.107,-8.958l2.463,0l0,-2.758l-8.141,0Z" style="fill-rule:nonzero;"/><path id="path35-7-8-1-4" d="M164.356,237.928l0,-2.758l-2.675,0c0,0 -0.065,-2.659 -0.088,-8.298c-0.021,-5.476 -0.133,-8.192 0.216,-9.752c0.937,-3.594 6.139,-3.614 7.172,-1.029c0.601,1.503 0.441,2.672 0.469,4.186l2.875,0c0,0 -0.016,-0.763 -0.02,-1.695c-0.017,-4.042 -1.354,-5.975 -4.481,-6.737c-3.216,-0.87 -6.977,0.457 -8.314,3.209c-0.796,1.568 -0.705,1.675 -0.724,11.158c-0.012,6.326 -0.108,8.958 -0.108,8.958l-2.463,0l0,2.758l8.141,0Z" style="fill-rule:nonzero;"/><g id="g3851-4-2-7-4"><path id="path4037-8-0-2" d="M23.614,19.11l0,210.78l130.772,0l0,-210.78l-130.772,0Zm41.543,1.157l59.24,0.217l-9.183,14.038c-11.974,-3.788 -31.4,-1.33 -41.412,0.584c-2.633,-4.392 -6.45,-9.907 -8.645,-14.839Zm-39.823,0.539l38.032,0l8.933,16.223c0.323,0.452 0.015,1.385 -0.179,1.91c-1.102,3.098 -2.077,4.893 -4.307,8.584c-2.112,3.497 -2.87,6.699 -2.12,8.852c0.112,0.265 0.209,0.666 0.171,1.004c-0.124,1.073 -1.027,2.316 -2.257,3.166c-0.835,0.134 -2.571,0.241 -3.577,1.232c-0.861,0.851 -1.567,2.095 -1.456,4.368c0.052,0.813 0.155,1.329 0.155,1.329c-11.359,4.717 -19.501,10.242 -19.231,10.445c-0.107,-0.049 -10.051,-4.586 -14.164,-5.709l0,-51.404Zm101.176,0l26.105,0l0,74.525l-9.856,-6.483c0.822,-0.572 1.329,-0.911 2.194,-1.496c0.153,-0.047 0.444,-0.051 0.633,-0.093c1.746,-0.389 2.963,-1.692 2.357,-3.043c-0.411,-0.916 0.151,-0.861 0.656,-1.608c0.57,-0.841 0.452,-1.59 0.09,-2.298c-0.18,-0.351 -0.081,-0.49 0.221,-1.139c0.8,-0.99 0.222,-2.664 -0.812,-3.205c-0.108,-0.16 0.114,-0.406 0.164,-0.636c0.291,-1.341 -0.244,-2.518 -1.406,-2.817c-0.599,-0.154 -0.798,-0.258 -0.587,-0.791c0.375,-0.946 -0.119,-1.297 -0.897,-1.605c-1.309,-0.516 -0.938,-0.599 0.68,-1.325c3.312,-1.486 4.092,-5.904 1.813,-9.913c-0.289,-0.51 -1.063,-1.706 -1.588,-2.508c-0.613,-0.937 -1.208,-1.744 -1.208,-1.744l4.385,-6.1c0,0 -3.053,-3.608 -4.14,-5.604c0.256,-0.985 3.312,-4.078 3.709,-7.08c0.621,-4.708 -2.961,-7.721 -6.35,-7.367c-2.351,0.245 -5.243,1.745 -5.025,6.103c0.067,1.354 0.597,2.752 1.557,4.446c0.671,1.266 1.54,2.607 2.373,3.894l-4.412,6.019l4.459,5.635c0,0 -0.059,0.091 -0.156,0.244c-0.444,0.704 -1.733,2.777 -2.291,3.992c-1.644,3.244 -2.227,6.806 1.149,9.316c0.591,0.362 1.046,0.67 1.298,0.919c0.331,0.328 0.124,0.577 -0.408,0.701c-0.627,0.132 -1.266,0.124 -1.927,0.384c-2.117,0.771 -4.238,2.015 -5.747,3.232c-0.847,0.684 -2.213,2.847 -3.045,4.604c-0.905,1.91 -1.157,2.333 -1.157,2.333l-15.507,-9.905c0,0 -0.394,-0.311 -0.501,-0.431c-0.289,-0.322 -0.185,-0.51 0.015,-0.868c0.17,-0.303 0.176,-1.194 0.101,-1.871c-0.021,-1.299 -0.011,-1.304 0.738,-2.496c0.264,-0.42 0.373,-0.84 0.221,-1.488c-0.243,-0.729 -0.266,-0.497 0.198,-0.996c0.181,-0.223 0.4,-0.333 0.435,-0.574c0.048,-0.323 0.018,-0.886 0.024,-1.938c0.011,-2.107 -0.017,-1.934 1.169,-2.86c1.473,-1.15 2.022,-1.693 2.256,-2.213c0.335,-0.746 0,-1.308 -0.827,-2.798c-0.378,-0.68 -0.964,-1.599 -1.247,-2.112c-0.529,-0.922 -1.294,-2.137 -1.658,-3.298c-0.552,-0.892 -0.468,-2.437 0.043,-3.345c0.64,-1.139 0.818,-1.828 0.796,-4.131c-0.021,-2.135 -0.176,-1.936 0.369,-2.651c4.074,-5.381 10.544,-15.517 10.544,-15.517Zm16.598,8.003c0.087,0 0.176,0.003 0.264,0.008c1.283,0.06 2.557,0.472 3.74,1.616c1.609,1.61 1.5,3.929 0.971,6.344c-0.244,0.701 -0.425,1.414 -0.921,2.147c-0.275,0.408 -0.5,0.786 -0.5,0.837c0,0.051 -0.397,0.688 -0.882,1.418c-0.474,0.714 -1.018,1.709 -1.018,1.709c0,0 0.758,1.357 2.101,3.054c1.014,1.503 1.671,2.813 1.748,2.736c0,0 -0.257,0.65 -0.61,1.113c-1.065,1.396 -3.028,4.311 -3.107,4.615c-0.018,0.074 -0.221,0.148 -0.217,0.221c0.014,0.271 0.404,0.592 0.99,1.395c3.542,4.853 4.043,8.95 1.383,11.356c-1.324,1.197 -2.63,1.572 -4.031,1.422c-2.568,-0.275 -4.938,-2.462 -4.661,-5.651c0.126,-1.465 0.049,-1.901 0.913,-3.604c0.39,-0.958 1.273,-2.601 1.86,-3.43c0.514,-0.594 1.061,-1.441 1.061,-1.441c0,0 -1.26,-1.937 -3.577,-4.659c-0.418,-0.497 -0.676,-1.17 -0.676,-1.17l3.969,-5.867c0,0 -0.461,-1.139 -1.235,-2.291c-1.587,-2.362 -2.611,-4.874 -2.601,-6.287c0.024,-3.522 2.332,-5.586 5.036,-5.591Zm9.884,83.822c-2.344,1.245 -4.626,5.492 -0.166,2.53l0.111,2.443c-2.319,3.285 -6.854,0.876 -5.701,-2.525c-3.131,0.405 -3.62,-2.767 -3.461,-4.276c-4.118,-0.896 -2.695,-5.248 -2.695,-5.248c-2.38,-1.985 -2.797,-4.065 -0.87,-6.256c-1.949,-1.21 -2.498,-1.985 -4.64,-2.863c1.642,14.575 9.525,22.145 17.822,28.891c-0.22,0 -0.244,4.694 -0.765,3.829c-11.847,-8.833 -19.462,-18.933 -20.773,-35.272c-0.1,0.257 -5.616,-4.261 -6.529,-4.021c-1.912,26.457 19.195,43.847 27.973,47.275c0,0 0.124,3.686 -0.027,3.699c-13.303,-5.791 -28.094,-22.786 -30.944,-43.006l-7.849,12.13l-2.94,-1.255l12.692,-19.955l-8.583,-5.368l-13.973,22.094c0,0 -0.371,1.842 0.641,1.814c19.614,2.094 48.784,25.61 39.011,63.883c-0.848,-0.334 -2.198,-0.989 -2.265,-0.961c1.533,-3.298 5.81,-24.665 -7.056,-41.925c-5.895,-7.907 -15.037,-16.323 -29.706,-18.807c1.213,2.496 0.684,8.158 0.684,8.158l3.417,0.689c-1.153,-1.216 -2.117,-2.218 -2.574,-3.538c-0.64,-2.056 0.298,-3.273 2.578,-2.05c0.906,0.507 1.134,0.487 2.016,-0.167c1.836,-1.362 3.932,0.041 3.449,2.306c-0.072,0.335 0.017,0.546 0.889,0.624c1.975,0.196 3.966,1.173 5.254,2.705c0.632,0.808 0.775,0.688 1.336,0.202c1.379,-1.195 3.663,0.461 3.255,2.31c-0.233,1.057 -0.105,1.31 0.384,1.515c2.694,1.13 3.356,1.843 4.194,4.197c0.308,0.862 0.56,1.146 0.719,1.097c0.111,-0.035 0.554,-0.182 0.944,-0.33c2.011,-0.76 3.188,1.667 1.763,3.57c-0.292,0.389 -0.076,0.764 0.443,1.046c1.673,0.911 2.811,3.088 3.009,5.371c0.076,0.869 0.167,0.87 1.037,0.834c2.227,-0.093 3.287,2.907 1.476,4.011c-0.631,0.384 -0.513,0.881 -0.023,1.461c1.298,1.537 1.601,2.647 1.487,4.398c-0.152,2.332 -0.003,2.287 0.742,2.57c2.164,0.822 1.76,4.273 -0.362,4.261c1.529,3.553 -0.484,7.886 -0.418,7.966c4.077,2.289 0.395,4.722 -0.789,4.294c0,0 -0.604,1.596 0.081,2.418c-3.576,4.723 -8.259,5.507 -13.445,7.852l-0.163,-16.626c2.157,1.733 4.295,3.35 6.432,4.961c0,0 0.541,-0.162 0.048,-0.617c-0.95,-0.877 -3.341,-2.42 -4.01,-3.034c-1.443,-1.093 -6.733,-6.14 -7.674,-7.336c-0.421,-0.797 -1.057,-0.336 -1.04,-0.288c0.632,1.091 1.104,2.362 1.923,3.495c1.769,2.447 3.486,5.167 3.308,7.857c-0.005,1.507 -0.604,3.062 -0.94,3.818c-0.249,1.033 -1.899,-0.176 -1.484,-1.047c0.734,-2.384 1.342,-4.338 -1.281,-8.169c-1.279,-1.868 -2.936,-5.259 -2.936,-5.259l-1.06,0.256l0.038,21.691c-0.889,0.036 -3.144,0.619 -2.679,0.635c7.028,-1.401 9.178,8.633 2.392,8.96c-1.289,0.046 -2.621,2.26 -2.757,3.461c0.058,2.914 0.486,5.987 -1.651,8.786c-0.561,0.735 -0.82,1.903 -1.34,2.821c-2.608,4.61 -3.773,7.251 -3.507,8.441c0.069,0.306 0.133,0.709 0.133,0.709c-8.309,2.072 -14.54,2.603 -22.91,2.798c-0.082,-0.131 2.81,-8.247 4.921,-12.409c1.56,-3.076 2.364,-5.178 1.926,-5.813c-6.637,0.332 -5.365,-9.38 0.986,-9.038c0,0 1.594,-5.595 3.375,-8.119c1.689,-0.938 5.086,0.339 6.991,-0.919c4.487,-1.373 7.425,3.922 7.425,3.922l1.208,-5.038l-39.683,-0.19c0,0 -3.86,1.599 -5.95,0.737c-1.336,-0.551 -3.237,-2.008 -3.239,-2.007c0,0 15.304,-24.479 17.531,-27.985c0.181,-0.285 -0.395,-0.898 -0.396,-0.903c-0.083,-0.797 -18.164,28.294 -18.164,28.294c-10.208,-6.524 -23.039,-14.779 -34.412,-22.032l-0.031,-10.898c8.26,-5.194 7.511,-7.316 -0.132,-1.654c-0.106,0.09 -0.163,-4.093 -0.163,-4.093c5.826,-5.195 0.981,-3.568 -0.169,-1.768c0.028,-1.295 -0.274,-3.054 0.557,-3.828c2.546,-2.342 5.547,-0.192 5.698,3.27c3.321,0.65 2.909,3.562 3.765,4.733c3.386,1.907 1.603,4.802 2.443,5.786c3.567,2.244 1.079,5.852 0.324,5.77c0.45,0.302 4.882,3.267 5.262,3.159c-0.385,-15.546 -15.949,-28.09 -18.016,-29.609l0.365,-3.352c0,0 21.439,13.685 21.251,35.643l6.835,4.054c-0.607,-22.53 -10.829,-37.806 -28.067,-47.479l-0.225,-4.174c14.471,6.721 27.89,20.324 31.015,42.619l8.012,-12.409l2.823,1.364l-12.864,20.597l8.033,5.272c6.231,-8.187 11.427,-18.225 14.594,-23.001c-0.083,-0.437 -0.256,-1.062 -0.256,-1.062c-30.63,-5.042 -47.883,-33.684 -39.659,-63.612l2.128,0.934c-6.387,22.165 4.029,54.069 37.341,60.593c-0.067,-2.357 -0.482,-8.154 -0.482,-8.154c0,0 -4.377,-1.314 -3.733,-0.787c1.072,0.914 3.481,4.857 2.463,6.259c-0.732,0.102 -1.957,-0.307 -3.297,-1.287c-0.506,-0.369 -0.52,-0.291 -1.087,0.314c-1.575,1.678 -3.863,0.717 -3.884,-1.589c-0.009,-0.973 -0.045,-1.18 -1.429,-1.19c-2.099,-0.015 -3.041,-0.374 -4.299,-2.054c-0.893,-1.191 -0.811,-1.196 -1.861,-0.837c-2.011,0.956 -3.617,-1.051 -2.986,-2.705c0.311,-0.775 -0.02,-1.023 -0.936,-1.174c-1.782,-0.294 -3.797,-2.526 -4.167,-4.348c-0.076,-0.373 -0.262,-0.467 -1.313,-0.43c-2.06,0.071 -3.201,-1.176 -2.388,-2.923c0.439,-0.944 0.563,-1.325 -0.26,-1.964c-1.01,-0.784 -1.579,-1.329 -2.028,-2.279c-0.355,-0.754 -0.408,-1.236 -0.652,-2.841c-0.085,-0.558 -0.271,-0.649 -1.002,-0.744c-2.131,-0.277 -2.971,-2.453 -1.406,-3.864c0.478,-0.431 0.476,-0.42 -0.248,-1.356c-1.394,-1.801 -1.917,-4.152 -1.309,-5.717c0.164,-0.423 0.004,-0.942 -0.493,-1.065c-1.943,-0.483 -1.977,-2.633 -0.117,-3.841c0.54,-0.351 0.568,-0.583 0.159,-1.29c-0.715,-1.24 -0.679,-4.485 0.012,-6.038c0.447,-1.005 0.444,-1.028 -0.248,-1.469c-1.477,-0.942 -1.055,-3.531 0.691,-3.957c0.848,-0.207 0.904,-0.317 0.676,-1.345c-0.407,-1.831 -0.477,-2.307 0.605,-3.031c2.978,-1.93 10.606,-5.619 10.606,-5.619l2.521,-1.197c0,0 0.252,15.363 0.089,17.179c-0.098,0.783 0.606,1.256 1.425,2.07c1.694,1.661 2.622,3.67 4.882,5.065c0,0 1.409,-0.781 2.28,-1.341l0.085,-21.892c0.179,-0.497 0.304,-0.552 0.882,-0.62c0.481,-0.093 1.689,-0.227 2.093,-0.345c0.973,-0.284 1.126,-0.676 -0.151,-0.547c-0.385,0.039 -0.963,0.203 -1.608,0.334c-3.994,1.196 -6.948,-5.011 -3.907,-8.139c0.584,-0.522 2.765,-1.43 3.755,-1.492c0.287,0.002 1.139,-1.045 1.721,-2.011c0.585,-0.972 0.828,-1.694 0.493,-2.667c-0.704,-2.048 -0.033,-5.193 2.074,-8.626c2.281,-3.241 4.043,-6.858 4.967,-10.708c8.083,-0.973 14.939,-2.979 22.245,-2.535c0.285,2.464 -7.987,16.992 -6.26,17.843c6.509,1.555 4.287,9.258 -0.66,9.002c-0.742,-0.004 -0.814,0.062 -1.286,1.698c-0.898,2.388 -1.478,4.211 -2.443,6.433c-0.003,0.572 -3.233,0.417 -5.94,0.397c-1.163,0.895 -6.144,3.318 -8.867,-2.882l-0.098,5.299c0,0 37.268,-0.59 43.895,0.239c0.142,-1.659 3.685,1.284 3.685,1.284l-18.189,28.554l0.851,0.83c2.624,-3.179 18.455,-28.657 18.455,-28.657l34.245,22.053c-0.282,3.279 0.046,10.63 0.046,10.63c-9.398,4.98 -6.527,7.518 -0.056,1.486l0.111,4.3Zm-56.743,-78.09c0,0 9.699,0.078 14.563,0.856c4.259,0.681 4.04,0.556 4.024,3.643c-0.012,2.192 -0.016,2.142 -0.579,3.193c-1.039,1.938 -0.862,3.848 0.78,6.523c1.595,2.596 2.762,4.514 2.762,4.883c-0.002,0.573 -0.099,1.273 -1.48,2.236c-1.63,1.137 -1.941,1.931 -1.918,3.085c0.018,0.934 -0.159,1.239 -0.719,1.236c-0.224,-0.001 -1.017,0.367 -1.868,0.768c-1.497,0.705 -1.5,0.705 -2.897,0.693c-0.701,-0.005 -1.04,-0.269 -1.235,-0.193c-0.376,0.175 -0.718,1.431 -0.707,1.798c0.04,0.129 0.24,0.051 0.653,-0.089c2.317,-0.792 5.763,-0.436 5.86,-0.089c0.467,0.422 0.468,1.074 -0.237,1.751c-0.457,0.717 -0.665,1.088 -0.474,2.198c0.26,1.507 0.066,2.106 -0.707,2.627c-2.356,1.59 -5.502,1.791 -10.532,0.826c-5.301,-1.017 -8.927,-3.035 -11.942,-6.647c-1.347,-1.613 -1.679,-2.179 -1.013,-2.29c0.821,-0.127 1.731,-0.297 2.574,-0.659c3.726,-1.6 3.66,-8.409 -1.359,-9.119c-2.047,-0.072 4.228,-9.706 6.451,-17.23Zm4.785,4.69c-1.802,1.007 -2.743,2.235 -2.746,2.902c-0.002,0.273 0.059,0.223 0.92,-0.341c2.498,-1.639 9.077,-4.006 11.426,-2.64c1.693,1.015 2.35,0.684 1.369,-0.68c-2.301,-3.201 -8.507,-0.58 -10.969,0.759Zm6.434,1.072c-0.266,0.003 -0.544,0.033 -0.819,0.09c-1.737,0.387 -3.648,1.815 -5.231,3.073c-0.781,0.62 -1.886,1.849 -2.059,2.17c-0.39,0.728 0.472,1.529 1.647,0.888c0.683,-0.374 0.744,-0.289 1.402,-0.198c1.516,0.456 3.245,1.162 5.919,0.938c0.248,0.057 0.23,0.115 0.143,0.349c-0.158,0.426 -1.105,1.242 -2.341,2.154c-0.638,0.471 -1.195,0.857 -1.239,0.927c-0.197,0.313 0.655,0.338 1.588,-0.19c1.325,-0.75 2.85,-2.408 3.783,-3.74c0.089,-0.127 0.212,-0.231 0.252,-0.368c0.091,-0.309 -0.466,-0.181 -0.765,-0.264c-0.129,-0.035 -0.102,-0.359 -0.136,-0.507c-0.088,-0.391 0.065,-1.038 0.136,-1.593c0.058,-0.45 0.541,-0.806 0.858,-1.136c1.397,-1.449 1.288,-2.106 -0.59,-0.992c-0.316,0.188 -0.566,0.301 -0.874,0.326c-2.771,0.087 -4.373,-0.021 -6.683,1.922c-1.028,0.826 -1.645,0.907 -0.731,0.027c1.395,-1.127 3.143,-2.731 5.076,-3.155c1.167,-0.29 2.278,0.602 2.789,0.372c0.003,-0.637 -0.971,-1.102 -2.125,-1.093Zm-0.401,4.007c0.317,0.209 0.629,1.291 0.599,1.656c-0.034,0.423 -0.765,0.248 -0.866,0.046l-0.396,-1.201c-0.172,-0.406 0.353,-0.636 0.663,-0.501Zm-1.412,0.245c0.339,0.334 0.417,1.058 0.609,1.655c-0.122,0.43 -2.85,-0.151 -3.193,-0.633c0.409,-0.531 1.815,-1.166 2.584,-1.022Zm4.784,7.759c-0.205,-0.014 -0.476,0.086 -0.722,0.337c-1.228,1.255 -0.832,3.392 0.645,4.084c0.72,0.338 1.809,0.09 3.413,-0.403c0.765,-0.234 1.318,-0.341 1.461,-0.341c0.626,0.004 0.967,-0.966 0.528,-1.41c-0.509,-0.514 -1.713,-0.438 -3.01,0.562c-0.656,0.505 -1.125,0.75 -1.654,0.744c-1.297,-0.017 -1.928,-1.349 -0.602,-2.748c0.441,-0.466 0.283,-0.803 -0.059,-0.825Zm-9.089,9.198c1.53,1.232 4.434,0.586 6.386,-0.703c1.745,-1.153 2.469,-1.493 3.868,-1.252c1.716,0.295 1.652,-0.378 0.909,-1.225c-0.842,-0.959 -2.923,-0.663 -4.664,0.488c-3.86,2.554 -5.256,2.981 -6.376,1.6c-1.204,-1.485 0.229,-3.389 1.646,-2.35c1.162,0.79 1.144,0.196 0.664,-0.345c-2.799,-2.355 -4.82,1.865 -2.433,3.787Zm-13.567,1.211c1.947,2.465 3.812,4.501 6.613,6.003l0.031,0.465l-9.056,-0.019c0.632,-1.103 2.43,-6.376 2.412,-6.449Zm-30.665,6.422c-0.192,3.715 0.476,5.897 2.656,8.495c2.318,2.761 2.145,7.064 0.655,9.723c-0.66,1.176 -2.002,-0.271 -1.369,-1.023c0.899,-1.129 0.953,-3.885 0.528,-5.608c-0.955,-2.847 -3.12,-4.241 -3.997,-7.251c-0.295,-1.284 -0.201,-3.592 -0.201,-3.592l1.728,-0.744Zm2.835,0.314c0.158,-0.025 0.411,0.138 0.784,0.461c1.281,1.106 1.063,4.273 -0.404,6.305c-0.449,0.617 -0.821,0.441 -1.25,-0.132c-0.58,-0.571 -0.379,-0.628 0.109,-1.631c0.508,-1.046 0.671,-2.224 0.567,-3.6c-0.071,-0.927 -0.038,-1.367 0.194,-1.403Zm83.073,1.085c1.131,-0.017 2.544,0.222 2.672,0.631c0.123,0.498 -0.146,0.897 -0.776,1.163c-1.655,0.697 -3.841,-0.278 -3.29,-1.469c0.138,-0.212 0.716,-0.315 1.394,-0.325Zm-2.866,0.271c0.325,-0.007 0.577,0.073 0.777,0.163c0.542,0.279 -0.31,2.184 2.389,2.147c0.645,0.095 1.121,-0.053 1.033,0.236c-0.135,0.439 -1.292,1.098 -2.548,1.283c-3.76,0.555 -3.596,0.368 -3.425,3.019c0.111,1.731 -0.002,2.314 -0.237,3.364c-0.408,1.82 -0.57,3.578 -0.295,3c0.366,-0.774 1.302,-3.216 1.297,-4.605c-0.009,-2.048 0.724,-2.453 1.017,-0.968c0.126,0.982 -0.315,1.536 0.346,2.538c0.375,0.563 0.546,0.553 0.295,1.426c-0.221,0.77 -0.068,0.997 0.202,1.388c0.271,0.393 0.544,0.484 0.314,1.034c-0.495,1.188 0.282,2.312 1.41,2.407c0.521,0.044 0.666,0.271 0.509,0.469c-0.276,0.342 -0.825,0.505 -1.282,0.605l-11.942,-7.616c0,0 0.886,-1.773 1.15,-2.248c1.716,-3.753 3.076,-5.464 8.093,-7.429c0.347,-0.149 0.645,-0.207 0.897,-0.213Zm6.346,2.465c0.329,-0.012 0.573,0.16 0.851,0.515c0.733,0.941 0.093,2.116 -1.709,3.128c-1.541,0.874 -1.989,0.979 -2.322,-0.395c-0.078,-0.248 -0.283,-0.553 -0.416,-0.675c-0.357,-0.325 -0.276,-0.597 0.179,-0.837c0.217,-0.115 0.909,-0.398 1.464,-0.763c0.963,-0.635 1.53,-0.957 1.953,-0.973Zm-5.083,2.728c0.377,0.006 0.766,0.097 1.052,0.283c0.478,0.31 0.482,1.089 0,1.399c-0.959,0.391 -2.473,-0.133 -2.346,-1.011c0.065,-0.447 0.665,-0.681 1.294,-0.671Zm6.143,0.961c0.341,-0.009 0.596,0.15 0.808,0.477c0.563,0.867 -0.098,1.737 -1.992,2.662c-1.247,0.61 -2.839,0.874 -2.734,0.516c0.084,-0.288 -0.361,-1.711 -0.559,-1.938c-0.077,-0.241 0.023,-0.024 1.596,-0.519c0.57,-0.18 1.258,-0.475 1.576,-0.674c0.541,-0.339 0.965,-0.515 1.305,-0.524Zm-89.59,2.248c-0.876,2.102 -1.015,3.03 -0.598,5.24c0.347,1.839 0.749,2.762 2.641,5.48c1.439,2.068 1.9,2.873 1.553,3.526c-0.244,0.352 -0.794,0.681 -1.136,0.342c-0.703,-0.917 -1.126,-2.032 -1.811,-3.055c-2.644,-3.869 -2.828,-4.854 -3.166,-7.909c-0.154,-1.397 0.65,-4.369 1.338,-4.814c0.77,-0.301 1.417,0.707 1.179,1.19Zm61.081,-0.969c-0.719,0.537 -1.171,1.615 -1.546,2.391c0.079,0.555 0.533,0.192 1.725,-1.554c0.286,-0.419 0.091,-0.871 -0.179,-0.837Zm22.754,0.95c1.058,0.032 1.433,0.978 0.959,1.472c-0.691,0.721 -1.934,0.177 -1.934,-0.833c0,-0.428 0.2,-0.649 0.975,-0.639Zm5.868,1.348c0.607,0.026 0.687,0.628 0.365,1.5c-0.402,0.81 -0.888,0.947 -2.342,1.399c-1.741,0.542 -2.026,0.463 -2.287,-1.135c-0.101,-0.614 -0.051,-0.478 1.553,-0.903c0.689,-0.183 1.493,-0.509 1.923,-0.686c0.324,-0.131 0.586,-0.183 0.788,-0.175Zm-102.85,0.717l0.428,3.228l0.695,-2.418l-1.123,-0.81Zm97.192,1.085c0.857,0.004 1.316,0.769 0.881,1.229c-0.242,0.256 -0.859,0.261 -1.157,0.112c-0.681,-0.496 -0.558,-1.344 0.276,-1.341Zm-26.176,1.686l1.67,1.027l-13.565,21.374l-1.635,-0.035l-0.155,-0.341l13.685,-22.025Zm30.782,0.206c1.001,-0.014 1.088,0.928 -0.125,1.794c-0.497,0.318 -1.054,0.396 -1.487,0.415c-0.603,0.026 -1.01,-0.13 -1.056,-0.547c-0.262,-1.02 -0.411,-1.274 0.52,-1.213c0.186,0.012 0.692,-0.017 1.099,-0.19c0.416,-0.176 0.768,-0.255 1.049,-0.259Zm-4.148,0.934c0.692,0.003 1.133,0.753 0.668,1.12c-0.574,0.453 -1.289,0.173 -1.286,-0.512c0.003,-0.438 0.122,-0.611 0.618,-0.608Zm-97.61,1.511l-3.691,3.262c1.353,1.598 2.488,3.193 3.66,4.868l0.031,-8.13Zm74.627,0.209c1.602,-0.064 2.126,0.709 1.367,1.229c-1.032,0.688 -1.916,0.655 -3.088,0.496c-1.549,-0.287 -0.316,-1.526 1.383,-1.701c0.116,-0.012 0.231,-0.019 0.338,-0.024Zm-1.701,2.326c0.323,-0.009 0.8,0.082 1.417,0.29c1.048,0.355 2.353,1.451 2.292,2.058c-0.1,0.984 -1.955,0.476 -3.449,-0.934c-0.936,-0.883 -0.972,-1.395 -0.26,-1.414Zm-1.418,0.015c0.909,0.086 1.815,3.153 1.111,4.097c-0.69,0.924 -1.906,-1.066 -1.685,-2.628c0.087,-0.619 0.243,-1.435 0.485,-1.465c0.029,-0.004 0.06,-0.007 0.089,-0.004l0,0Zm-59.318,0.675c0.512,0.122 1.167,0.828 1.026,1.364c-0.103,0.215 -0.319,0.152 -0.552,0.097c-0.42,-0.178 -0.745,-0.763 -0.664,-1.248c0.04,-0.132 0.096,-0.206 0.19,-0.213Zm68.833,0.527l2.668,1.806l-2.668,0.104l0,-1.91Zm-11.056,3.654c2.046,0.011 2.479,0.672 0.951,1.477c-0.635,0.334 -2.182,0.397 -2.983,0.12c-1.27,-0.44 0.254,-1.606 2.032,-1.597Zm16.559,1.376l0.14,1.852l-5.138,0.45l-0.264,-1.93l5.262,-0.372Zm-17.763,0.922c0.356,-0.022 0.923,0.142 1.666,0.523c1.398,0.718 2.193,1.922 1.472,2.303c-0.654,0.344 -1.819,-0.065 -2.641,-0.927c-1.089,-1.141 -1.177,-1.856 -0.497,-1.899Zm-1.748,0.004c0.933,0.056 1.741,2.609 1.126,3.872c-0.336,0.691 -0.763,0.54 -1.375,-0.597c-0.591,-1.099 -0.623,-3.04 0.059,-3.252c0.063,-0.019 0.128,-0.027 0.19,-0.023Zm-66.827,0.721l-2.246,4.507l4.069,3.545l-1.823,-8.052Zm86.971,3.472l0.361,1.783l-4.932,1.213l-0.481,-1.941l5.052,-1.055Zm-21.538,0.349c0.601,0.011 1.167,0.153 1.491,0.438c0.45,0.395 0.352,0.572 -0.711,1.004c-1.892,0.769 -4.222,0.303 -2.87,-0.845c0.478,-0.406 1.316,-0.61 2.09,-0.597Zm32.04,-0.104c-1.884,1.26 -0.07,1.953 1.276,1c-0.101,-0.324 -0.881,-0.995 -1.276,-1Zm-33.423,2.526c1.348,0.044 3.991,1.889 3.426,2.771c-0.308,0.484 -2.075,0.071 -2.777,-0.6c-0.923,-0.883 -1.411,-2.063 -0.901,-2.155c0.077,-0.014 0.162,-0.019 0.252,-0.016Zm-1.701,0.086c0.696,-0.13 1.807,3.104 0.967,3.933c-0.314,0.31 -0.401,0.292 -0.928,-0.174c-1.053,-0.931 -0.872,-2.646 -0.241,-3.604c0.061,-0.092 0.13,-0.142 0.202,-0.155Zm41.401,1.704c-0.183,-0.342 -0.412,-0.501 -0.664,-0.69c-6.548,2.511 -4.87,4.904 0.664,0.69Zm-15.517,0.222l0.653,1.806l-4.967,1.965l-0.73,-1.977l5.044,-1.794Zm-84.961,3.418l-1.681,4.418c1.828,0.011 3.477,0.872 5.145,1.639l-3.464,-6.057Zm86.612,1.298l1.052,1.775l-4.672,2.523l-0.932,-1.872l4.552,-2.426Zm-108.539,3.457l1.915,1.349l-2.812,3.488l-0.256,-0.492l0.031,-2.895l1.122,-1.45Zm111.09,1.097l1.13,1.628l-4.497,3.119l-1.103,-1.771l4.47,-2.976Zm-106.266,2.093l2.066,1.589l-3.266,3.933l-1.977,-1.507l3.177,-4.015Zm22.734,0.972l-0.097,4.732l4.863,0.186l-4.766,-4.918Zm56.199,2.133l5.527,3.176l-0.833,-4.847c-1.443,0.28 -3.296,1.219 -4.694,1.671Zm30.355,-0.993l1.289,1.6l-4.155,3.484l-1.332,-1.666l4.198,-3.418Zm-105.071,1.403l1.927,1.786l-3.395,3.659l-1.782,-1.678l3.25,-3.767Zm108.62,2.596l1.496,1.516l-3.787,3.929l-1.495,-1.515l3.786,-3.93Zm-104.243,1.926l1.492,1.737l-3.876,3.073l-1.437,-1.744l3.821,-3.066Zm22.335,0.407l1.087,4.635c-0.079,-0.337 4.825,-1.382 5.464,-1.031l-6.551,-3.604Zm57.094,0.392l4.628,4.877l0.521,-4.698l-5.149,-0.179Zm28.624,0.767l1.674,1.306l-3.107,4.418l-1.895,-1.484l3.328,-4.24Zm-104.717,2.945l1.379,1.989l-4.062,2.414l-1.154,-1.756l3.837,-2.647Zm109.102,0.469l0.256,0.256l-0.004,3.155l-1.289,1.891l-1.759,-1.035l2.796,-4.267Zm-26.185,3.544l4.094,7.428l1.155,-5.54c-1.514,-0.022 -3.911,-0.99 -5.249,-1.888Zm-79.678,0.991l0.975,2.143l-4.291,1.953l-0.979,-2.131l4.295,-1.965Zm2.319,5.115l0.784,2.151l-4.563,1.512l-0.722,-2.074l4.501,-1.589Zm-20.401,3.896l1.421,0.994c7.403,-3.883 5.096,-5.031 -1.421,-0.994Zm41.842,-2.47c0.28,-0.029 0.602,0.357 0.862,1.21c0.393,1.288 0.185,2.885 -0.691,2.864c-0.59,-0.072 -0.81,-1.582 -0.812,-2.02c-0.007,-1.292 0.281,-2.016 0.641,-2.054Zm4.058,0.772l1.763,0.19l-0.007,0.496l-14.043,22.249l-1.701,-1.078l13.988,-21.857Zm-7.561,0.515c0.56,0.005 1.379,0.39 2.105,1.159c0.424,0.459 0.879,1.111 0.99,1.779c-0.012,0.22 -0.389,0.136 -0.753,0.085c-0.933,-0.132 -2.305,-0.776 -2.742,-1.57c-0.537,-0.975 -0.234,-1.459 0.4,-1.453Zm64.56,0.792l1.872,9.112c0.58,-2.281 1.805,-3.596 2.712,-5.387c-2.386,-1.096 -3.366,-2.396 -4.584,-3.725Zm-80.685,1.843l0.439,2.357l-4.73,1.093l-0.489,-2.287l4.78,-1.163Zm17.643,0.818c0.067,-0.001 0.134,0 0.198,0.008c1.73,0.193 1.975,0.577 0.812,1.356c-0.705,0.473 -2.613,0.539 -2.928,0.035c-0.336,-0.537 0.913,-1.389 1.918,-1.399l0,0Zm-34.323,1.384l1.468,0.856c2.515,-1.814 -0.231,-2.177 -1.468,-0.856Zm31.834,0.794c0.529,0.007 0.847,0.949 1.033,1.814c0.18,0.838 0.242,1.594 -0.082,2.015c-0.396,0.515 -0.784,0.607 -1.099,0.097c-0.922,-1.494 -0.892,-3.939 0.148,-3.926Zm-3.899,1.368c0.247,-0.008 0.558,0.054 0.92,0.19c1.228,0.462 2.855,2.338 2.167,2.597c-1.015,0.382 -3.233,-0.729 -3.65,-1.853c-0.21,-0.566 0.02,-0.915 0.563,-0.934Zm-10.121,1.512l0.113,2.329l-4.975,0.201l-0.148,-2.317l5.01,-0.213Zm12.187,1.961c0.49,-0.014 0.98,0.05 1.375,0.221c0.712,0.307 0.193,0.863 -1.029,1.286c-0.808,0.279 -1.958,0.351 -2.362,0.031c-0.943,-0.742 0.546,-1.496 2.016,-1.538Zm-38.514,0.271c3.408,2.065 10.474,6.666 10.474,6.666c-0.333,0.065 -0.688,0.326 -1.017,0.581c-0.254,0.208 -0.529,0.402 -0.769,0.5c-0.377,0.154 -0.725,0.176 -1.041,0.244c-2.196,0.477 -3.272,1.717 -2.586,3.259c0.269,0.606 0.339,0.509 -0.128,1.02c-1.31,1.247 -1.15,1.62 -0.684,3.216c0.006,0.226 -1.559,2.144 -0.175,3.589c0.766,0.666 0.803,0.249 0.525,1.763c-0.097,0.911 0.152,1.658 1.479,1.919c0.738,0.338 0.728,0.22 0.466,0.845c-0.179,0.896 0.078,1.266 0.707,1.592c0.572,0.357 0.804,0.454 0.4,0.768c-4.422,2.259 -5.782,6.19 -1.612,11.983c0.492,0.682 1.729,2.609 1.729,2.609c-1.406,2.083 -2.748,3.798 -4.181,5.658l4.173,5.825c-0.676,1.057 -2.256,3.207 -3.227,5.328c-1.459,3.185 -0.496,7.651 3.701,8.987c1.799,0.573 4.175,0.108 5.673,-1.628c1.215,-1.408 1.877,-4.206 0.768,-7.119c-1.402,-3.264 -3.084,-4.865 -3.628,-5.794l4.468,-5.598c0,0 -3.078,-4.419 -4.307,-6.024c8.38,-10.236 1.535,-13.099 0.222,-13.975c-0.204,-0.137 -0.155,-0.791 -0.155,-0.791c7.526,-0.861 10.096,-4.988 12.31,-10.212c4.49,2.886 10.918,6.766 15.422,9.801c0.434,0.402 0.719,0.651 0.653,0.872c-0.055,0.181 -0.229,1.012 -0.237,1.864c0.209,1.358 0.109,1.972 -0.439,2.492c-0.516,0.489 -0.413,0.712 -0.33,1.24c0.144,0.919 0.283,1.011 -0.128,1.473c-0.507,0.57 -0.677,0.837 -0.583,2.221c0.056,0.821 0.161,1.437 -0.054,1.922c-0.28,0.631 -1.048,0.951 -2.055,1.74c-1.762,1.381 -1.524,1.803 0.909,6.817c2.074,4.272 2.31,5.249 1.515,6.767c-0.663,1.262 -0.912,2.238 -0.831,4.061c0.02,0.465 0.06,0.968 0.058,1.213c-0.005,0.59 0.003,0.522 -0.338,0.891c-0.265,0.288 -0.706,0.856 -0.979,1.264c-2.893,4.331 -10.505,15.457 -10.505,15.457l-25.663,0l0,-75.306Zm35.939,2.015c0.3,-0.021 0.662,0.514 1.072,1.597c0.237,0.625 0.212,1.71 -0.171,2.127c-0.762,0.832 -1.811,-1.116 -1.479,-2.658c0.149,-0.697 0.345,-1.049 0.578,-1.066Zm71.988,-1.171c0.004,3.947 -0.081,9.069 -1.443,12.845l1.545,0.698c-0.499,-3.877 0.119,-7.06 3.683,-8.737c-1.622,-1.098 -2.861,-2.954 -3.785,-4.806Zm-75.825,2.489c0.124,-0.003 0.267,0.027 0.423,0.077c0.578,0.159 1.281,0.495 1.709,0.93c0.732,0.745 1.488,1.64 1.297,1.725c-1.21,0.53 -4.282,-1.09 -3.879,-2.356c0.088,-0.269 0.244,-0.371 0.45,-0.376Zm-5.382,0.166l0.031,1.934l-2.975,-1.899l2.944,-0.035Zm67.935,0.931c0.482,0.042 1.226,0.671 1.111,1.108c-0.207,0.473 -0.462,0.429 -0.794,-0.068c-0.414,-0.62 -0.582,-1.007 -0.317,-1.04Zm-60.277,2.391c0.722,-0.02 1.346,0.139 1.414,0.515c-0.002,0.356 -0.551,0.815 -1.228,1.023c-1.691,0.52 -2.959,0.185 -2.497,-0.643c0.29,-0.548 1.382,-0.87 2.311,-0.895Zm58.906,2.193c-0.715,1.279 -0.803,5.369 0.458,7.038c1.96,2.16 3.77,4.973 3.562,8.716l-1.884,0.841c0.104,-3.078 -0.019,-5.08 -2.427,-7.735c-2.868,-3.11 -2.194,-8.499 -1.204,-10.084c0.85,-1.565 2.073,0.651 1.495,1.224Zm-82.518,-1.701c0.602,-0.035 1.339,0.32 2.672,1.197c3.409,2.408 5.257,3.338 8.637,5.721c0.494,0.462 0.47,0.395 0.384,0.759c-1.292,4.935 -5.045,8.851 -10.606,9.569c-0.643,0.083 -0.311,-0.319 -0.699,-1.093c-0.399,-0.797 -1.135,-1.144 -1.953,-1.151c-2.297,-0.021 -0.333,-1.307 2.47,-1.674c0.926,-0.142 2.043,-0.268 2.633,-0.826c0.128,0.06 -0.487,-3.86 0.143,-5.239c0.322,-1.241 0.018,-1.841 -0.33,-1.078c-0.218,0.479 -0.523,1.737 -0.687,3.027c-0.139,1.089 -0.368,1.238 -0.625,0.709c-0.118,-0.241 -0.115,-0.812 0.07,-1.263c0.208,-1.027 -1.089,-1.801 -0.828,-2.74c0.348,-0.785 -0.013,-1.651 -0.45,-1.938c-0.238,-0.509 -0.21,-0.877 -0.179,-1.232c0.073,-0.833 -0.482,-1.633 -1.359,-1.981c-0.388,-0.195 -0.272,-0.407 0.132,-0.608c0.189,-0.094 0.374,-0.147 0.575,-0.159Zm-2.789,1.407c0.221,-0.004 0.44,0.02 0.649,0.073c0.451,0.275 0.814,1.834 0.311,1.895c-0.186,0.023 -0.766,0.093 -1.216,0.225c-1.524,0.447 -2.247,0.387 -2.217,-0.488c0.03,-0.893 1.281,-1.685 2.473,-1.705Zm2.028,0.159c0.6,0.003 1.084,0.704 0.706,1.077c-0.39,0.385 -1.141,0.104 -1.137,-0.453c0.001,-0.301 0.138,-0.626 0.431,-0.624Zm0.407,2.43c0.172,-0.007 0.363,0.029 0.567,0.124c0.558,0.257 0.88,1.215 0.525,1.565c-0.27,0.267 -1.043,0.173 -1.457,-0.178c-0.738,-0.627 -0.38,-1.483 0.365,-1.511Zm-1.891,0.139c0.345,0.007 0.594,0.118 0.66,0.357c0.057,0.205 -0.038,0.394 0.055,0.686c0.146,0.459 0.437,0.811 0.182,0.996c-1.169,-0.07 -3.597,1.394 -4.299,1.325c-0.585,-0.078 -0.651,-0.616 -0.144,-1.488c0.587,-1.008 2.51,-1.898 3.546,-1.876Zm0.707,2.833c0.255,-0.016 0.297,0.124 0.194,0.496c-0.073,0.264 -0.013,0.893 0.167,1.298c0.193,0.435 0.543,0.694 0.361,0.865c-0.299,0.086 -1.303,0.286 -2.147,0.6c-1.09,0.602 -4.149,2.414 -3.379,-0.484c0.245,-0.968 1.371,-1.64 3.336,-2.325c0.745,-0.26 1.213,-0.434 1.468,-0.45Zm1.604,0.035c0.473,-0.034 1.012,0.193 1.254,0.779c0.71,1.41 -1.326,1.611 -1.977,0.438c-0.385,-0.695 0.115,-1.173 0.723,-1.217Zm0.388,3.282c1.058,0.006 1.879,1.315 1.111,1.81c-0.569,0.342 -1.275,0.277 -1.926,0.117c-0.98,-0.43 -0.528,-1.934 0.815,-1.927Zm101.268,0.028c4.025,2.102 9.486,4.04 14.793,5.479l0,52.201l-36.273,0l-9.934,-17.294c0,0 -0.329,-0.56 -0.435,-0.806c-0.2,-0.469 -0.128,-0.851 0.008,-1.337c0.329,-1.174 1.326,-3.475 2.245,-5.108c2.399,-4.396 5.807,-9.217 3.961,-13.44c-0.211,-0.483 1.906,-3.102 1.906,-3.102c3.262,0.266 5.959,-1.856 4.993,-6.865c6.809,-2.778 12.418,-5.036 18.736,-9.728l0,0Zm-103.144,0.255c0.093,-0.003 -0.185,1.14 0.393,1.841c0.36,0.552 0.301,0.534 -0.921,1.016c-0.457,0.247 -0.915,0.623 -1.173,0.852c-1.749,1.558 -3.481,-0.479 -1.79,-2.116c1.365,-1.224 2.792,-1.492 3.468,-1.577c0.01,-0.011 0.017,-0.015 0.023,-0.016Zm83.189,1.077c0.587,0.104 1.348,0.884 1.104,1.308c-0.828,1.384 -0.865,2.129 -0.939,3.56c-0.083,1.599 0.191,1.834 -0.42,1.558c-0.398,-0.185 -1.142,-0.504 -1.308,-0.91c-0.385,-0.937 0.599,-5.687 1.563,-5.516Zm-83.76,4.012c0.65,-0.011 1.333,0.2 1.717,0.694c0.32,0.411 0.354,0.762 0.035,0.93c-0.757,0.399 -3.264,0.191 -3.39,-0.322c-0.195,-0.792 0.688,-1.286 1.638,-1.302Zm37.974,1.015c3.063,0.013 6.636,0.663 9.402,1.868c3.927,1.478 7.386,5.245 8.168,6.856c0.237,0.489 -0.249,0.489 -0.668,0.535c-4.677,0.771 -6.234,6.513 -2.288,9.258c1.238,0.772 2.237,0.69 2.237,0.69c1.002,-0.085 -4.448,10.349 -6.618,16.851c-6.712,-0.275 -11.784,0.757 -18.346,-1.496c-0.705,-1.169 -0.537,-3.751 -0.023,-5.085c0.471,-1.211 1.092,-2.145 0.792,-3.538c-0.522,-2.427 -2.738,-5.588 -3.479,-7.592c-0.651,-1.53 -0.609,-2.101 0.524,-2.977c1.335,-1.032 1.664,-1.249 2.031,-1.771c0.341,-0.486 0.196,-0.598 0.202,-1.693c0.007,-1.329 -0.025,-1.123 1.076,-1.318c0.383,-0.068 1.289,-0.357 1.98,-0.721c1.435,-0.754 2.435,-0.728 3.278,-0.26c0.367,0.099 0.332,-0.28 0.486,-0.782c0.067,-0.219 0.222,-0.578 0.209,-0.686c-0.026,-0.225 -0.51,-0.16 -1.044,-0.086c-2.141,0.3 -3.828,0.365 -4.696,0.043c-0.752,-0.28 -0.754,-0.785 -0.314,-1.624c0.392,-0.747 0.669,-0.735 0.508,-2.294c-0.2,-1.957 0.072,-2.369 0.987,-3.011c1.141,-0.801 3.214,-1.176 5.596,-1.167Zm11.068,1.725l9.954,0c-0.977,1.572 -2.064,3.998 -2.68,6.297c-0.09,0.18 -0.196,0.356 -0.427,0.124c-1.342,-1.918 -2.871,-3.97 -6.847,-6.421Zm-8.252,6.995c-1.19,0.034 -2.678,0.605 -4.548,1.674c-1.271,0.727 -2.309,1.179 -3.658,0.93c-0.771,-0.142 -0.87,-0.032 -0.971,0.217c-0.454,1.124 1.23,2.329 2.932,1.539c0.494,-0.207 4.288,-2.169 4.497,-2.337c0.228,-0.183 1.799,-0.645 2.214,-0.639c1.255,0.015 2.029,1 1.876,2.135c-0.205,1.517 -2.361,1.593 -2.501,0.244c-0.109,-1.039 -0.543,-0.577 -0.583,-0.066c-0.002,0.436 0.327,1.431 0.687,1.655c1.821,1.135 4.222,-1.074 3.072,-3.348c-0.704,-1.392 -1.669,-2.042 -3.017,-2.004Zm-8.168,5.287c-1.235,0.234 -2.039,0.714 -3.37,0.825c-1.099,0.242 -1.018,1.115 -0.33,1.569c0.527,0.349 1.192,0.138 3.114,-1.081c1.888,-1.198 3.507,1.297 1.996,2.575c-0.95,0.804 -0.298,1.015 0.353,0.531c1.673,-1.245 0.713,-4.889 -1.763,-4.419Zm5.845,6.421c-0.144,-0.01 -0.373,0.042 -0.679,0.182c-1.415,0.647 -2.503,1.328 -3.181,2.236c-0.116,0.197 -0.053,0.53 -0.109,0.791c-0.044,0.205 -0.207,0.465 -0.178,0.604c0.025,0.121 0.425,0.251 0.485,0.365c0.246,0.461 0.088,1.637 -0.054,2.488c-0.068,0.407 -0.674,0.533 -0.917,0.779c-0.797,0.808 -0.597,1.055 0.253,0.74c0.593,-0.221 0.341,-0.629 1.809,-0.345c1.902,0.368 3.409,-0.148 4.905,-0.977c1.662,-0.921 2.263,-1.431 2.331,-1.321c0.11,0.181 0.023,0.277 -1.162,1.259c-2.969,2.463 -5.177,3.035 -6.842,2.112c-0.499,-0.338 -0.898,-0.476 -0.521,0.248c0.049,0.08 0.452,0.393 0.734,0.52c1.711,0.77 3.857,0.118 6.587,-2.035c0.599,-0.473 1.128,-1.002 1.821,-1.581c2.265,-1.892 1.67,-2.758 -0.889,-1.837c-0.807,0.29 -1.034,-0.023 -2.125,-0.446c-1.464,-0.568 -1.945,-0.621 -3.631,-0.651c-1.467,-0.026 -1.687,0.111 -1.685,-0.135c0.002,-0.314 0.988,-1.421 2.097,-1.903c1.082,-0.471 1.386,-1.063 0.951,-1.093Zm2.699,4.67c0.274,0.275 -0.118,0.452 -1.176,0.953c-0.6,0.284 -1.15,0.517 -1.227,0.516c-0.095,0.17 -1.093,-2.076 -0.82,-2.186c0.117,-0.047 2.561,0.159 3.223,0.717Zm-3.84,-0.237c0.245,0.51 0.432,1.043 0.528,1.535c0.022,0.151 0.13,0.37 -0.109,0.368c-0.188,0.027 -0.498,0.043 -0.61,-0.132c-0.239,-0.374 -0.505,-1.651 -0.415,-1.899c0.184,-0.248 0.507,-0.074 0.606,0.128Zm8.707,4.039c-0.089,0.001 -0.255,0.066 -0.517,0.22c-4.211,2.482 -9.262,3.775 -12.509,2.551c-1.095,-0.413 -1.295,-0.268 -0.897,0.48c0.276,0.519 0.824,1.128 1.658,1.357c2.653,0.728 6.926,-0.333 10.214,-2.485c1.338,-0.876 2.435,-2.126 2.051,-2.123Zm24.785,6.65c0.008,0 8.169,15.309 8.889,16.029l-60.553,-0.258l10.202,-14.403c0.091,0.809 24.61,4.169 41.462,-1.368Z" style="fill:#131f67;fill-rule:nonzero;"/><path id="path4035-6-4-6" d="M53.644,228.157l9.778,-14.411c14.463,2.743 27.475,1.294 41.728,-1.244l9.493,15.976l-60.999,-0.321Zm76.681,-53.707l-0.062,-8.556l2.986,1.108c-1.036,-3.979 1.581,-8.137 3.965,-8.303c-7.616,-5.733 -1.29,-11.866 -1.421,-11.997c-8.33,-4.29 -4.151,-10.877 -4.728,-11.468c-10.15,-2.626 -6.187,-10.666 -6.954,-9.836c-5.908,1.773 -9.162,-3.168 -9.262,-7.186c-5.113,2.892 -13.013,-1.205 -10.537,-5.809c0,0 2.708,1.282 3.186,1.023c4.175,-3.028 3.848,1.319 4.715,2.263c3.114,-0.45 4.952,1.928 5.727,3.083c4.593,0.005 4.404,-1.094 4.444,3.35c3.46,0.877 3.322,2.744 5.327,5.295c4.362,0.048 3.628,1.465 2.641,3.874c3.144,2.498 3.398,4.453 3.917,6.725c3.43,1.241 4.046,1.746 1.807,4.631c3.027,4.529 1.57,7.152 2.03,7.399c3.774,2.718 1.888,3.702 0.24,4.745c0.572,3.612 1.031,4.142 -0.3,7.819c4.339,3.073 -0.689,4.458 -0.945,4.395l-0.012,3.044l-6.764,4.401Zm-105.057,-22.308l-0.087,-10.601l36.781,23.718l-4.648,7.279l-32.046,-20.396Zm48.862,15.603l8.693,-18.165l-3.123,-19.812l24.917,0.543c2.801,6.355 4.49,11.758 11.668,22.277l-7.583,2.358l0.263,12.734l-34.835,0.065Zm21.31,-4.777c-0.254,-0.526 -0.396,-0.885 -0.348,-1.119c0.093,-0.303 0.324,-0.289 0.622,-0.126c1.059,0.513 2.118,0.956 2.898,-0.016c0.391,-0.508 0.289,-1.232 -0.043,-1.65c-0.598,-1.214 -2.477,-0.336 -3.109,-0.292c-0.587,0.013 -0.813,-0.48 -0.33,-1.181c0.287,-0.305 0.467,-0.642 0.514,-1.038c0.33,-2.777 -4.412,-1.789 -2.767,0.903c0.748,0.998 0.312,1.597 -0.787,0.966c-1.209,-0.693 -2.89,-0.046 -2.835,1.413c0.042,1.106 1.434,1.789 2.605,1.122c0.27,-0.154 0.481,-0.321 0.673,-0.404c0.543,-0.236 0.935,-0.042 0.754,0.57c-0.487,0.764 -1.059,1.862 -0.58,2.584c0.478,1.053 2.128,0.955 2.694,0.3c0.389,-0.451 0.499,-1.185 0.039,-2.032l0,0Zm57.479,-55.679l-36.852,-23.835c2.279,-2.948 3.63,-5.327 4.899,-7.697l31.991,20.534l-0.038,10.998Zm-57.618,-8.057l3.774,19.243l-25.727,0.366c-1.414,-6.461 -10.251,-21.085 -10.227,-20.829l6.86,-16.825l34.141,-0.04l-8.821,18.085Zm-9.655,-7.165c0.652,-0.596 0.608,-1.505 -0.111,-2.529c-0.696,-0.991 -0.386,-1.706 0.73,-1.035c0.618,0.414 1.598,0.5 2.261,0.29c0.841,-0.286 1.19,-0.957 1.066,-1.802c-0.151,-1.024 -1.288,-1.304 -2.502,-0.858c-0.351,0.074 -0.565,0.36 -0.867,0.496c-0.655,0.288 -0.916,-0.498 -0.317,-1.516c0.665,-1.129 -0.025,-2.339 -1.246,-2.446c-1.305,-0.114 -2.081,1.367 -1.55,2.18c0.764,1.166 0.211,1.978 -0.885,1.198c-1.576,-1.122 -3.634,0.3 -2.782,1.97c0.414,0.81 1.768,1.022 2.981,0.509c1.015,-0.429 1.316,0.065 0.701,1.102c-1.263,2.131 0.812,4.004 2.521,2.441Zm-37.328,-18.894l-0.272,10.254c-3.849,-2.349 -3.277,-2.378 -3.419,-2.343c1.132,3.082 -0.189,6.891 -3.454,8.763c5.883,5.508 2.705,9.38 1.739,11.995c7.516,4.355 3.703,11.88 3.733,11.49c7.411,0.042 7.261,6.508 7.475,9.206c9.163,-0.574 7.935,6.733 9.143,7.361c4.442,-1.984 9.63,-1.303 11.006,4.655c0.891,3.38 -2.376,0.122 -3.799,0.265c-5.064,3.147 -4.09,-1.656 -4.375,-2.325c-4.195,0.397 -4.759,-1.599 -6.597,-3.015c-4.531,0.87 -4.158,-0.617 -3.891,-3.363c-3.554,-0.719 -4.327,-2.933 -5.743,-5.099c-4.908,0.158 -2.906,-3.301 -2.887,-3.981c-0.596,-0.532 -3.414,-3.299 -3.553,-6.467c-5.038,-1.421 -1.874,-3.957 -1.693,-4.827c-1.905,-2.37 -2.406,-4.118 -1.768,-7.103c-4.472,-2.087 -0.737,-4.037 -0.42,-5.223c-1.459,-3.89 -0.396,-5.054 0.179,-7.158c-2.878,-3.367 -1.158,-3.18 0.948,-5.223c0.267,-0.368 -0.469,-2.059 -0.428,-3.054l8.076,-4.808Zm25.84,-38.003l-8.065,-14.408l57.608,0c0,0 -6.27,8.67 -8.701,13.032c-14.366,-2.263 -27.81,-1.189 -40.842,1.376Z" style="fill:#d40000;fill-rule:nonzero;"/><path id="path4039-1-1-4" d="M33.947,218.799c-5.052,-1.145 -5.91,-7.483 -1.167,-12.753c0.384,-0.427 0.645,-1.086 0.645,-1.086c-1.639,-2.526 -2.397,-3.416 -4.069,-5.925c1.476,-2.227 3.204,-3.926 4.313,-5.859c-0.068,-0.335 -0.56,-0.67 -1.149,-1.535c-3.421,-5.03 -3.798,-7.023 -2.062,-10.014c1.633,-2.812 5.533,-3.137 7.907,-0.659c2.565,2.679 2.446,5.113 -0.886,10.067c-0.732,1.087 -1.26,2.069 -1.26,2.069c0.921,1.852 2.485,3.575 4.078,5.905c-1.477,1.826 -2.983,3.539 -4.283,5.641c0,0 0.131,0.451 0.42,0.778c5.294,5.986 4.877,12.861 -1.11,13.445c-0.308,0.03 -1.056,-0.015 -1.377,-0.074Zm42.584,-76.392c-0.139,-0.227 -19.052,30.316 -19.052,30.316l2.159,1.382l18.092,-28.234c0.273,0.207 0.54,0.453 0.485,0.796c0,0 -14.902,24.233 -17.384,28.107c-0.067,0.104 3.695,2.327 3.821,2.334c5.541,-2.726 28.656,-0.366 44.004,-1.304c0.06,0.046 -0.236,5.38 -0.236,5.38c0,0 -3.5,-4.04 -4.207,-4.064c-3.489,-0.122 -7.159,1.362 -9.788,1.195c-1.679,0.513 -3.595,6.619 -3.972,8.149c-3.055,-0.354 -6.005,2.835 -5.299,5.806c0.998,3.3 2.714,3.052 4.57,3.106c-0.172,3.736 -6.783,13.583 -6.811,18.435c6.991,-0.551 14.555,-0.678 21.765,-2.848c0,0 2.709,-7.773 6.126,-12.896c1.127,-1.96 1.668,-4.902 1.211,-6.756c-0.29,-2.031 0.587,-2.544 1.37,-3.965c0.477,-0.889 2.239,-0.852 2.464,-0.917c4.587,-1.326 2.948,-7.245 0.997,-8.297c-2.435,-1.313 -5.876,0.722 -7.199,-1.941c-1.4,-2.819 -0.946,-8.647 -0.946,-8.647l-34.628,0.166c0,0 9.784,-18.554 9.535,-18.69c-2.675,-1.466 -7.045,-6.56 -7.077,-6.613Zm-23.161,16.888c0.161,-1.877 0.462,-32.367 -28.409,-47.525l0.154,-4.008c0.177,-0.207 26.263,11.75 30.737,42.808l8.05,-12.589l2.961,1.159c-4.375,6.562 -13.078,22.486 -13.493,20.155Zm-17.532,-10.984c1.189,-3.521 -0.762,-1.653 -2.54,-1.797c-1.216,-0.661 -2.41,-1.513 -3.539,-2.255c8.437,-4.461 3.412,-4.246 -1.503,-1.113c-1.275,-0.69 -2.886,-2.2 -2.988,-2.072c9.521,-6.112 5.95,-6.235 -0.143,-1.811c0.21,-4.149 0.062,-2.592 0.143,-3.987c5.195,-5.554 0.357,-2.536 0,-2.47c-1.278,-5.541 4.837,-4.381 5.398,-0.192c1.076,0.799 3.192,1.788 3.815,5.224c2.937,1.866 2.629,3.412 2.493,5.648c1.148,1.132 4.113,3.522 0.655,5.73l-1.791,-0.905Zm-10.951,-25.284l0.195,-3.065c0.398,-1.25 22.664,14.603 21.059,34.973c0.263,-0.143 -2.464,-1.422 -3.246,-2.122c0.011,-14.99 -15.933,-28.169 -18.008,-29.786Zm127.706,17.196c-14.857,-6.795 -28.964,-23.079 -29.705,-44.257l-8.391,14.026l-2.979,-1.259c0.278,0.23 6.637,-11.547 13.183,-19.688c1.846,26.722 12.347,39.148 28.255,48.174l-0.363,3.004Zm-77.804,-9.771c-14.395,-1.783 -35.21,-21.343 -28.989,-47.856c0.882,-2.693 14.765,12.225 14.766,12.224c0.087,-0.677 12.49,19.262 12.142,23.157c10.467,2.976 30.899,0.154 30.899,0.154c16.988,3.787 34.751,22.077 28.338,48.072c0,0 -4.515,-2.96 -8.29,-6.403c-11.465,-11.061 -15.103,-20.149 -19.166,-30.174c-14.679,-1.327 -28.441,1.301 -29.7,0.826Zm77.942,-22.081c0.251,1.32 0.089,4.056 0.138,4.05c-3.826,4.158 -4.223,4.234 0.573,2.897c-0.594,3.987 -3.548,4.642 -5.302,3.285c-0.647,-0.5 -0.653,-3.247 -0.653,-3.247c-2.909,-0.728 -3.908,-1.601 -3.495,-4.723c-3.35,-0.399 -3.218,-2.027 -2.943,-5.424c-3.05,-1.713 -2.291,-4.439 -0.486,-5.603l1.509,1.038c-0.484,0.432 -0.248,3.138 2.426,1.125c0,0 2.138,1.771 3.165,2.459c-7.735,4.964 -3.046,3.872 1.719,0.612c0.894,0.608 2.115,1.604 2.75,2.033c-6.277,4.493 -8.337,8.249 0.599,1.498Zm0.376,16.877l-0.256,3.579c-15.273,-9.326 -19.407,-21.624 -20.543,-34.723c0,0 2.05,1.507 2.988,2.132c1.363,16.898 16.868,28.307 17.811,29.012Zm-83.675,-44.341l36.626,0.234l-9.713,18.54l5.127,6.045c0,0 12.723,-19.789 19.121,-30.154l-2.213,-1.321l-18.261,28.641l-0.725,-0.803l18.002,-28.617c-1.079,-0.706 -3.123,-1.838 -3.123,-1.838c0,0 -31.191,0.5 -44.749,0.445c0.44,-1.868 0.535,-5.178 0.535,-5.178c1.999,2.865 4.141,5.424 8.803,2.608c0,0 5.513,0.186 5.716,-0.076c0.674,-1.089 1.87,-4.513 3.263,-8.38c5.319,-0.355 4.789,-2.921 5.394,-3.763c-0.407,-7.543 -4.646,-3.481 -4.282,-6.223c1.199,-4.887 7.323,-15.95 6.549,-16.919c-1.58,-1.047 -17.246,2.032 -21.805,2.592c-0.422,-0.162 -2.647,7.099 -4.995,10.203c-2.554,3.377 -3.464,6.998 -2.16,10.414c-1.352,3.755 -3.941,3.37 -6.021,4.433c-2.359,2.551 -1.709,6.456 0.54,7.966c1.566,1.052 3.969,0.998 6.419,-0.988l1.952,12.139Zm72.783,-26.224l-4.286,-5.744l4.155,-6.042c-1.64,-2.595 -4.344,-6.566 -3.859,-9.713c1.058,-6.241 9.494,-5.326 10.228,0.645c0.399,2.771 -1.624,6.169 -3.68,9.061c1.357,2.469 1.941,2.871 3.913,5.701c-1.172,2.064 -4.025,6.105 -4.025,6.105c1.779,2.988 4.255,6.281 4.075,9.321c-0.188,2.61 -3.038,5.255 -5.698,4.699c-8.271,-1.729 -3.652,-10.557 -0.823,-14.033Z" style="fill:#e2cf00;fill-rule:nonzero;"/><g id="g4049-4-4-2"><path id="path4033-2-3-3" d="M64.726,20.105c2.271,4.258 8.722,15.746 8.722,15.746c15.341,-3.175 28.242,-3.984 41.799,-1.02l9.686,-14.657l-60.207,-0.069Zm2,0.864l2.773,0l5.44,11.173l9.387,-1.872l-1.6,-9.278l2.656,0.016l1.344,8.921l13.791,-0.349l1.786,-8.611l2.544,0.031l-1.825,8.751l10.92,1.468l5.344,-10.25l3.67,0l-8.124,12.657c-14.453,-2.811 -28.811,-1.867 -40.828,1.085l-7.278,-13.742Zm5.231,0l8.097,0l1.942,7.541c-0.994,0.519 -4.707,1.404 -5.95,1.279c-1.483,-2.593 -3.016,-6.343 -4.089,-8.82Zm15.616,0l12.322,0l-1.052,6.421l-10.334,0.33l-0.936,-6.751Zm19.534,0l9.496,0l-3.748,7.797l-7.161,-0.973l1.413,-6.824Zm36.152,7.805c-0.555,-0.003 -1.067,0.045 -1.537,0.143c-2.463,0.515 -3.754,2.404 -3.775,5.488c-0.01,1.413 1.034,3.912 2.621,6.274c0.774,1.152 1.29,2.213 1.29,2.213l-4.133,6.062l4.397,5.731c0,0 -0.685,0.802 -1.092,1.376c-2.016,2.846 -2.948,5.507 -2.819,7.689c0.139,2.357 1.517,4.156 4.097,5.019c1.416,0.473 3.435,-0.106 4.792,-1.333c1.096,-0.991 1.647,-2.279 1.67,-3.791c0.034,-2.159 -1.012,-4.776 -3.095,-7.63c-0.566,-0.775 -0.843,-1.384 -0.843,-1.384c0,0 2.916,-4.143 4.016,-6.038l-3.985,-5.712c3.169,-4.751 3.807,-5.804 3.896,-8.724c-0.144,-2.894 -2.248,-5.365 -5.5,-5.383Zm-0.396,0.349c0.137,-0.003 0.275,0.001 0.412,0.011c3.618,0.279 5.529,2.962 5.049,6.407c-0.492,3.284 -3.458,6.345 -3.934,7.402c1.426,2.314 4.116,5.604 4.116,5.604c-1.141,2.07 -4.089,6.084 -4.089,6.084c0,0 0.17,0.332 0.357,0.597c3.078,4.352 3.925,6.409 3.713,9.018c-0.167,2.058 -1.795,3.894 -3.826,4.267c-3.216,0.591 -5.854,-1.687 -6.178,-4.763c-0.198,-2.692 1.541,-5.31 2.893,-7.352c0.573,-0.855 1.064,-1.674 1.064,-1.674l-4.381,-5.739c1.336,-2.113 3.022,-4.186 4.261,-5.969c0,0 -0.653,-1.048 -1.259,-2.003c-2.402,-3.787 -3.072,-5.728 -2.703,-7.821c0.455,-2.574 2.454,-4.035 4.505,-4.069Zm0.327,1.941c-1.337,0.036 -2.614,1.02 -3.123,2.442c-0.734,2.667 2.078,6.705 3.359,7.79c2.4,-2.753 3.928,-5.841 3.041,-8.003c-0.583,-1.308 -1.941,-2.264 -3.277,-2.229Zm0.33,0.865c2.423,0.05 3.329,2.92 1.46,6.185c-0.646,1.114 -1.596,2.279 -1.596,2.279c0,0 -0.888,-1.104 -1.422,-1.938c-2.165,-3.383 -1.607,-6.024 1.053,-6.495c0.174,-0.023 0.343,-0.035 0.505,-0.031Zm-48.215,1.492c-6.342,0.033 -14.816,1.087 -22.265,2.774c-0.646,3.987 -2.652,7.986 -4.839,11.162c-2.106,3.433 -2.867,6.423 -2.163,8.472c0.66,1.917 -1.14,4.78 -3.118,4.96c-2.458,0.224 -4.023,1.932 -3.993,4.364c-0.069,3.897 2.625,6.286 6.284,4.961c0.368,-0.046 0.614,0.193 0.614,0.193l-0.214,22.304c-2.059,0.322 -3.434,0.769 -5.184,1.697c-3.255,-3.7 -5.968,-6.32 -8.463,-8.158c-0.072,-4.964 0.133,-9.956 -0.089,-14.909c-3.68,1.417 -7.599,3.742 -10.824,5.883c-1.082,0.724 -1.191,1.126 -0.784,2.957c0.228,1.028 0.172,1.138 -0.676,1.345c-1.746,0.426 -2.292,3.202 -0.815,4.143c0.692,0.441 0.695,0.465 0.248,1.469c-0.691,1.553 -0.665,4.523 0.051,5.763c0.408,0.707 0.38,0.936 -0.16,1.286c-1.859,1.208 -1.733,3.792 0.21,4.275c0.497,0.123 0.627,0.336 0.462,0.76c-0.607,1.564 -0.054,3.942 1.34,5.743c0.724,0.936 0.722,0.926 0.245,1.356c-1.565,1.411 -0.717,3.94 1.413,4.217c0.731,0.095 0.735,0.097 0.82,0.655c0.244,1.604 0.355,2.052 0.71,2.806c0.449,0.95 0.987,1.592 1.997,2.375c0.823,0.64 0.824,0.649 0.384,1.593c-0.812,1.746 0.48,3.478 2.54,3.407c1.05,-0.037 1.051,-0.039 1.126,0.333c0.371,1.823 2.541,3.961 4.323,4.255c0.916,0.152 1.06,0.369 0.749,1.144c-0.5,1.247 -0.176,2.05 1.088,2.697c0.847,0.434 1.094,0.449 2.023,0.132c1.05,-0.36 1.061,-0.355 1.953,0.837c1.258,1.679 2.092,2.101 4.191,2.116c1.384,0.01 1.436,0.045 1.444,1.019c0.022,2.305 2.465,3.266 4.039,1.589c0.568,-0.605 0.567,-0.602 1.072,-0.233c2.215,1.62 4.179,2.038 3.996,0.524c-0.427,-3.546 -2.998,-5.709 -2.998,-5.709l3.212,0.837c0.141,3.744 0.275,8.257 1.056,11.378l-14.315,22.753c0,0 -0.868,-0.529 -1.782,-1.158c-1.346,-0.927 -2.994,-2.016 -4.004,-2.647c-0.517,-0.324 -1.177,-0.718 -1.697,-1.155c-0.499,-0.415 0.308,-0.961 0.478,-1.399c3.296,-5.873 8.454,-12.933 12.209,-19.796l-3.635,-1.403c-2.78,4.369 -4.828,7.885 -7.417,11.913c-2.579,-18.877 -15.781,-35.449 -31.752,-42.429l0.054,4.942c16.767,8.559 28.735,26.224 28.416,47.06c-0.065,0.078 -1.404,-0.722 -3.212,-1.923c-0.953,-0.633 -2.872,-1.885 -3.11,-2.007c0.775,-23.074 -22.156,-36.718 -22.195,-36.073c0,0 -0.144,2.982 -0.21,4.364c9.772,6.533 17.449,18.419 18.226,28.996c0.009,0.086 -4.587,-2.86 -4.587,-2.86c2.735,-1.359 1.982,-4.879 0.012,-5.833c-0.616,-0.276 -0.653,-0.409 -0.346,-1.24c0.631,-1.705 -0.525,-4.27 -2.116,-4.701c-0.698,-0.189 -0.813,-0.371 -0.847,-1.348c-0.062,-1.788 -1.053,-2.956 -2.839,-3.349c-0.493,-0.108 -0.497,-0.113 -0.524,-0.728c-0.15,-3.463 -3.544,-4.873 -6.089,-2.531c-0.285,0.262 -0.583,0.759 -0.583,0.759l-0.019,3.756c0.869,-0.478 2.188,-2.109 2.73,-2.043c0.598,0.07 0.308,0.472 -1.037,1.632c-0.873,0.753 -1.72,1.546 -1.72,1.546l0.054,4.945c1.45,-0.939 2.902,-2.001 4.26,-2.945c1.171,-0.815 1.771,-1.08 1.915,-0.845c0.161,0.265 -0.1,0.61 -0.765,1.008c-1.785,1.186 -3.862,2.579 -5.363,3.751l-0.004,3.407l0.287,0.422l0.085,2.984l-0.267,0.066l0.003,3.759l35.267,22.482l17.946,-28.252l0.295,0.298l-17.95,28.132c0,0 0.739,0.634 1.437,1c0.713,0.398 1.603,0.929 2.365,1.434c0.36,0.587 0.989,1.105 1.663,1.031c0.618,-0.673 3.314,-1.385 3.573,-1.695c10.04,-0.148 38.863,0.048 38.863,0.048l0.163,4.6c-1.296,-4.461 -5.474,-5.381 -8.758,-3.383l-5.394,0.007c-0.042,0 -3.192,5.73 -3.655,8.72c-2.267,-0.307 -5.284,1.898 -5.437,4.135c-0.367,3.185 1.73,5.506 4.47,5.054c0.05,0.02 -0.43,3.155 -1.98,5.604c-2.057,4.323 -3.117,6.741 -4.373,10.429c-0.85,2.317 -0.56,2.729 -0.416,2.786c8.048,-0.116 15.451,-0.894 23.088,-3.352c0,0 -0.141,-0.543 -0.209,-0.849c-0.276,-1.234 0.763,-3.759 3.701,-8.975c2.268,-4.029 2.918,-5.567 3.145,-7.468c0.116,-0.963 0.094,-1.212 -0.24,-3.008c-0.022,-0.167 -0.153,-0.408 -0.117,-0.589c0.238,-1.209 2.082,-3.334 2.124,-3.282c0,0 0.67,-0.124 0.936,-0.148c4.161,-0.291 5.45,-5.934 1.938,-8.479c-1.711,-1.046 -2.719,-1.125 -4.532,-0.651l-0.031,-21.885l2.529,0.095l2.78,-1.37c4.466,3.806 7.379,7.696 12.187,10.627l-0.078,0.193l-3.573,-2.445l0.008,14.339c4.136,-2.148 7.991,-4.129 11.709,-7.135l-0.75,-0.647l0.031,-2.05c3.494,0.275 3.83,-4.163 0.96,-4.693c0,0 0.066,-0.358 0.341,-0.922c0.881,-1.804 0.991,-3.504 0.35,-5.38c-0.392,-1.144 -0.375,-1.432 0.089,-1.43c2.122,0.012 1.927,-3.746 -0.237,-4.569c-0.745,-0.283 -0.692,-0.048 -0.54,-2.379c0.115,-1.752 -0.313,-2.94 -1.611,-4.477c-0.49,-0.579 -0.449,-0.859 0.182,-1.244c1.812,-1.103 0.499,-4.29 -1.728,-4.197c-0.87,0.037 -0.868,0.036 -0.944,-0.833c-0.198,-2.283 -1.475,-4.46 -3.149,-5.371c-0.519,-0.283 -0.595,-0.514 -0.303,-0.903c1.425,-1.903 0.093,-4.504 -1.919,-3.744c-0.389,0.147 -0.801,0.295 -0.912,0.329c-0.159,0.05 -0.287,-0.172 -0.594,-1.034c-0.837,-2.348 -1.579,-3.084 -4.241,-4.201c-0.524,-0.22 -0.555,-0.375 -0.319,-1.446c0.408,-1.849 -2.144,-3.57 -3.522,-2.376c-0.561,0.487 -0.58,0.483 -1.212,-0.325c-1.259,-1.446 -3.307,-2.453 -5.13,-2.643c-0.872,-0.078 -1.003,-0.146 -0.932,-0.481c0.484,-2.265 -1.725,-3.741 -3.561,-2.379c-0.882,0.654 -1.11,0.673 -2.016,0.166c-1.903,-1.066 -2.738,-1.106 -2.936,-0.143c-0.061,0.802 0.116,1.75 0.311,2.341c0.463,1.591 1.063,2.182 2.376,3.302c0,0 -2.179,-0.604 -2.73,-0.713c0.055,-0.057 -0.158,-7.553 -1.588,-11.797l13.938,-22.137l7.985,5.255l-12.769,20.156l3.716,1.508c0,0 4.963,-8.228 7.561,-12.262c1.702,20.035 17.223,37.604 31.283,42.816c-0.048,0.024 0.045,-2.881 0.105,-4.286c-14.834,-6.518 -28.944,-24.731 -28.055,-46.591l5.957,3.806c1.729,17.52 9.377,27.787 22.125,36.468l0,-5.368c-8.779,-6.483 -16.074,-14.952 -18.008,-28.504c0,0 2.976,1.877 4.31,2.767c0,0 -0.376,0.215 -0.571,0.376c-1.592,1.323 -1.113,4.037 0.987,5.573c0.341,0.25 0.344,0.25 0.023,1.105c-0.637,1.695 0.345,3.745 2.004,4.174c0.952,0.246 0.946,0.234 0.963,1.321c0.034,2.111 0.886,3.084 3.146,3.589c0.309,0.069 0.32,0.101 0.315,1.046c-0.013,2.333 2.233,3.903 4.19,2.926c0.613,-0.306 2.54,-1.914 2.54,-1.914l0,-3.756c0,0 -0.873,0.713 -1.503,1.299c-1.104,1.026 -1.452,1.153 -1.449,0.527c0.003,-0.455 0.511,-1.051 1.569,-1.837c0.549,-0.408 1.383,-1.279 1.383,-1.279l0,-4.376c0,0 -0.493,-0.779 -0.462,-1.713c0.016,-0.507 0.159,-1.278 0.159,-1.278l0.528,0.011l-0.008,-5.065l-0.64,-0.5l0.027,-3.356l-34.871,-22.517l-18.164,28.826l-0.454,-0.531l18.183,-28.643l-4.831,-3.081l-2.917,1.434c0,0 -20.184,-0.318 -39.869,-0.066c0,0 -0.047,-0.542 -0.038,-2.074c0.01,-1.925 0.099,-2.194 0.454,-1.383c0.796,1.82 2.774,2.918 5.068,2.813c1.296,-0.059 1.476,-0.111 2.917,-0.887c0.535,-0.289 0.632,-0.297 3.157,-0.279c2.706,0.019 3.193,-0.08 3.196,-0.651c0.942,-2.139 1.87,-4.621 2.408,-6.488c0.259,-0.904 0.374,-1.303 0.586,-1.488c0.165,-0.143 0.294,-0.111 0.688,-0.136c1.732,-0.111 2.213,-0.222 3.46,-1.437c2.5,-2.508 1.067,-7.608 -2.555,-7.627c-0.96,-0.006 -0.303,-2.553 1.724,-6.686c2.097,-4.275 2.391,-4.931 3.476,-7.797c0.709,-1.873 1.047,-3.216 1.134,-4.034c-0.2,-0.001 -0.405,-0.001 -0.61,0Zm-0.19,1.236c0.501,0.42 -0.752,3.508 -3.01,8.181c-1.864,3.858 -2.698,5.787 -3.095,7.185c-0.115,0.403 -0.279,0.984 -0.365,1.291c-0.123,0.431 -0.283,0.644 -0.711,0.949c-0.304,0.217 -0.728,0.537 -0.944,0.709c-0.61,0.489 -0.755,0.334 -0.606,-0.651c0.278,-1.827 1.004,-3.798 2.68,-7.227c1.328,-2.73 2.628,-5.655 3.639,-8.639c0.227,-0.697 0.333,-1.404 0.711,-1.662c0.543,-0.304 1.118,-0.244 1.701,-0.136Zm-2.719,0.178c0.346,0.239 -1.293,4.468 -4.132,10.34c-3.542,7.327 -3.729,12.459 -0.544,13.715c2.512,0.99 5.042,-1.772 3.492,-3.786c-0.746,-0.969 -2.352,-1.05 -2.909,-0.047c-0.304,0.548 0.118,1.179 0.656,0.411c0.784,-1.118 2.352,0.173 1.973,1.496c-0.26,0.908 -1.533,1.638 -2.322,1.481c-3.48,-0.694 -2.825,-5.591 0.784,-5.86c3.453,-0.258 5.024,4.37 2.517,7.018c-0.795,0.858 -1.727,1.285 -3.348,1.283c-2.248,-0.003 -4.349,-1.856 -4.136,-3.573c0.297,-1.572 0.343,-2.842 -0.19,-4.081c-0.171,-0.398 -0.381,-0.793 -0.369,-1.294c0.032,-1.393 1.181,-3.555 3.744,-8.895c0.918,-1.913 2.045,-5.23 2.602,-7.324c0.196,-0.613 0.099,-0.785 0.33,-0.869c0.573,-0.126 1.392,-0.298 1.852,-0.015Zm-2.963,0.074c0.526,0.023 -0.685,3.875 -2.21,7.158c-1.158,2.513 -2.738,5.742 -3.914,8.727c-0.377,0.633 -0.628,0.683 -1.398,0.272c-0.849,-0.453 -0.598,-1.174 1.405,-5.151c1.511,-3.02 2.963,-6.437 3.981,-9.878c0.092,-0.414 0.232,-0.771 0.575,-0.969c0.523,-0.228 1.032,-0.182 1.561,-0.159Zm-2.819,0.434c0.28,0.37 -1.556,5.564 -4.397,11.421c-0.606,1.243 -1.017,2.38 -1.627,3.651c-0.293,0.294 -1.423,0.443 -1.988,0.558c-0.583,-0.078 -0.031,-1.17 1.631,-4.523c1.354,-2.733 1.739,-3.507 2.45,-5.17c0.519,-1.218 1.274,-3.309 1.981,-5.263c0.057,-0.157 0.112,-0.508 0.264,-0.589c0.527,-0.222 1.17,-0.312 1.686,-0.085Zm-2.773,0.325c0.046,0.125 -0.059,0.383 -0.097,0.582c-0.447,2.09 -1.468,4.036 -2.214,6.034c-0.089,0.272 -0.907,1.973 -1.818,3.778c-0.91,1.806 -1.745,3.53 -1.856,3.833c-0.11,0.304 -0.413,1.11 -0.672,1.791c-1.634,3.499 0.123,6.257 2.288,6.45c3.376,0.278 3.695,-4.445 1.313,-4.9c-0.899,-0.15 -1.886,0.342 -1.892,1.373c-0.063,0.539 0.602,1.164 0.592,0.39c-0.035,-1.407 1.935,-1.342 2.178,-0.147c0.473,2.33 -2.18,3.468 -3.76,1.639c-0.651,-0.753 -0.646,-1.612 -0.525,-2.383c0.328,-2.085 2.736,-3.593 4.967,-2.019c3.054,2.153 2,6.914 -1.945,7.689c-1.349,0.35 -3.049,-0.098 -4.113,-1.19c-0.677,-0.695 -1.123,-1.72 -1.293,-2.992c-0.095,-0.708 -0.132,-1.541 -0.023,-2.321c0.319,-2.445 2.106,-6.015 3.673,-9.038c1.21,-2.508 2.161,-5.822 3.263,-8.487c0.311,-0.227 1.98,-0.437 1.934,-0.082Zm-2.979,0.334c0.18,0.055 -0.743,2.951 -2.058,6.08c-1.448,3.174 -3.327,6.806 -4.393,9.929c-0.335,0.767 -0.58,0.744 -1.534,-0.143c-0.503,-0.468 -0.22,-1.166 1.546,-4.763c2.716,-5.534 3.725,-7.894 4.132,-9.212c0.192,-0.619 0.345,-1.379 0.754,-1.62c0.521,-0.246 1.035,-0.427 1.553,-0.271Zm-2.715,0.693c-0.287,0.932 -1.228,3.693 -2.839,6.965c-1.01,2.065 -1.996,4.352 -2.994,6.483c-0.557,1.315 -0.573,1.314 -1.522,1.512c-1.601,0.333 -1.601,0.315 -0.187,-2.546c0.421,-0.851 1.229,-2.413 1.799,-3.469c1.05,-1.947 2.673,-5.737 3.262,-7.627c0.157,-0.506 0.377,-0.981 0.633,-1.24c0.164,-0.087 1.424,-0.463 1.848,-0.078Zm-3.499,0.349c0.286,-0.01 0.544,0.041 0.664,0.198c0.072,0.65 -1.688,4.806 -2.769,6.732c-0.33,0.59 -0.657,1.355 -1.029,2.038c-1.377,2.187 -3.033,6.39 -3.46,8.135c-0.678,2.771 2.496,4.866 4.142,2.851c1.045,-1.219 -0.042,-3.414 -1.548,-2.801c-0.526,0.214 -0.311,0.448 0.407,0.508c1.186,0.1 1.275,1.924 0.019,2.324c-1.396,0.427 -2.425,-0.782 -2.42,-2.019c0.011,-2.538 2.793,-3.47 4.534,-2.084c1.737,1.444 2.013,4.875 -0.617,6.205c-2.565,1.296 -5.723,-0.461 -6.358,-3.535c-0.484,-2.346 0.041,-4.495 2.303,-8.111c1.3,-2.082 3.32,-5.675 4.354,-8.829c0.202,-0.534 0.381,-0.977 0.567,-1.201c0.172,-0.199 0.734,-0.394 1.211,-0.411Zm68.759,7.383l-3.445,4.372c0.994,1.432 3.356,4.251 3.356,4.251l3.266,-4.209l-3.177,-4.414Zm0.031,2.445l1.425,1.845l-1.631,1.922l-1.53,-1.794l1.736,-1.973Zm0.128,9.503c0,0 -4.164,4.554 -3.208,7.933c0.855,3.011 5.393,3.742 6.498,-0.663c0.077,-0.35 0.016,-0.825 -0.031,-1.414c-0.095,-1.794 -3.259,-5.856 -3.259,-5.856Zm0,0.899c0,0 1.196,1.73 2.039,3.263c0.944,1.458 1.191,5.533 -2.159,5.407c-1.816,0.186 -3.55,-2.202 -2.105,-5.124c0.393,-0.889 2.225,-3.546 2.225,-3.546Zm-68.739,0.733c0.231,-0.036 0.464,0.463 0.61,0.825c0.198,0.493 -0.369,1.913 -0.967,2.62c-0.114,0.119 -0.879,0.184 -2.016,0.763c-0.003,-0.531 0.322,-1.697 0.536,-2.212c0.775,-0.765 1.433,-1.676 1.74,-1.946c0.032,-0.029 0.064,-0.045 0.097,-0.05Zm-8.299,0.255c0.511,0.579 1.014,1.08 0.994,1.438c-0.03,0.524 -0.648,1.171 -1.115,1.632c-0.586,0.578 -1.755,0.234 -1.751,-0.516c0.001,-0.277 1.671,-2.555 1.872,-2.554Zm17.627,0.752c0.495,0.265 0.996,1.165 1.06,1.574c-0.725,3.894 -3.407,8.654 -3.316,8.475c0,0 -1.644,0.293 -2.342,-0.062c1.807,-2.502 3.016,-5.686 3.837,-8.293c0.352,-1.125 0.513,-1.69 0.761,-1.694Zm-1.522,0.547c0.276,-0.016 0.383,0.207 0.151,0.81c-1.061,4.306 -3.448,8.833 -5.324,9.657c-2.464,1.083 -4.913,0.184 -5.965,-1.666c-1.139,-2.003 -0.937,-5.164 2.858,-5.856c2.232,-0.228 4.52,1.528 3.328,4.352c-1.326,2.095 -4.889,0.928 -3.844,-1.775c0.789,-0.99 2.442,-0.131 1.903,0.988c-0.274,0.568 -0.01,0.917 0.396,0.524c1.299,-1.263 -0.838,-3.429 -2.28,-2.345c-2.351,1.768 0.552,5.656 3.289,3.988c0.835,-0.508 2.343,-3.36 2.909,-5.437c0.244,-0.895 0.464,-1.744 1.041,-2.287c0.549,-0.517 1.183,-0.933 1.538,-0.953Zm-6.233,0.17c0.134,0.005 0.292,0.072 0.508,0.178c0.275,0.135 0.597,0.381 0.56,0.698c-0.043,0.367 -0.253,1.164 -0.676,1.55c-0.255,-0.087 -0.958,-0.367 -1.437,-0.496c-0.301,-0.081 0.1,-0.727 0.284,-1.085c0.296,-0.576 0.46,-0.818 0.702,-0.841c0.019,-0.002 0.04,-0.005 0.059,-0.004l0,0Zm-7.756,0.147c0.354,-0.006 0.915,0.386 1.286,0.438c0.071,0.535 -0.611,1.68 -1.721,3.031c-0.91,1.109 -0.906,1.111 -1.51,-0.108c-0.394,-0.794 -0.405,-0.772 0.718,-2.167c0.604,-0.749 0.895,-1.093 1.157,-1.186c0.022,-0.004 0.047,-0.007 0.07,-0.008Zm3.523,0.392c0.016,0.286 -0.13,0.916 -0.253,1.283c-1.259,3.752 -4.199,7.469 -6.625,8.382c-3.167,1.033 -6.066,-0.631 -6.14,-4.468c0.08,-4.521 5.474,-5.774 7.103,-1.651c0.736,1.861 -1.269,4.66 -3.002,4.193c-1.749,-0.471 -2.479,-3.194 -1.037,-3.867c0.945,-0.442 1.923,0.298 1.717,1.298c-0.072,0.347 -0.052,0.394 0.151,0.356c0.899,-0.167 0.424,-1.969 -0.637,-2.418c-2.005,-0.849 -3.52,1.846 -2.167,3.856c1.62,2.406 4.168,1.945 5.635,-1.023c0.25,-0.505 0.725,-1.23 1.053,-1.608c0.888,-1.027 1.171,-1.43 1.957,-2.787c0.433,-0.747 0.665,-1.22 0.885,-1.465c0.352,-0.024 0.593,0.074 1.36,-0.081Zm7.103,0.198c0.38,0.002 0.672,0.249 0.664,0.775c-0.008,0.439 -0.638,2.292 -0.932,2.736c-0.113,0.17 -0.377,0.766 -0.416,0.635c-0.37,-1.233 -1.032,-1.614 -1.126,-1.937c-0.11,-0.38 0.224,-0.744 0.373,-1.086c0.316,-0.726 0.948,-1.127 1.437,-1.123Zm6.695,0.585c0.459,-0.004 1.109,0.206 1.243,0.546c0.419,0.734 -2.417,7.568 -2.521,7.588l-2.116,-0.093c1.271,-2.724 2.395,-5.425 3.211,-8.026c0.056,-0.009 0.117,-0.015 0.183,-0.015Zm28.397,10.816l2.691,1.597l-17.74,28.132l-2.579,-1.969l17.628,-27.76Zm-44.261,0.582c16.57,0.061 39.391,0.031 39.391,0.031l-0.963,1.825c0,0 -24.926,-0.243 -38.428,-0.217l0,-1.639Zm-22.37,1.151l-0.035,9.246c-1.714,-1.497 -6.903,-4.789 -6.929,-4.712c0,0 4.471,-2.982 6.964,-4.534Zm70.949,0.918l1.666,1.05l-18.641,29.609l-1.037,-2.031l18.012,-28.628Zm-48.576,0.411l2.595,0l0,2.926l-2.595,0l0,-2.926Zm5.942,0l3.15,0l0,2.926l-3.15,0l0,-2.926Zm6.882,0.031l3.239,0l0,2.926l-3.239,0l0,-2.926Zm6.754,0.011l3.273,0l0,2.926l-3.273,0l0,-2.926Zm6.804,0.02l3.231,0l0,2.926l-3.231,0l0,-2.926Zm6.808,0.062l3.304,0l0,2.062l-0.501,0.864l-2.803,0l0,-2.926Zm17.814,0.953l31.616,20.412l-0.02,2.818l-32.913,-21.226l1.317,-2.004Zm-2.074,2.387l0.272,0.194l-1.34,2.047l-0.276,-0.156l1.344,-2.085Zm-48.84,0.303l35.488,0l-1.068,1.794l-34.42,-0.05l0,-1.744Zm-29.135,0.914c0.239,-0.015 0.705,0.195 1.429,0.601c1.745,0.977 2.844,3.038 2.09,3.783c-0.671,0.662 -2.242,-0.757 -3.216,-2.783c-0.516,-1.074 -0.652,-1.578 -0.303,-1.601Zm62.794,1.768l-11.449,18.261c-2.588,-3.54 -5.49,-6.598 -11.826,-4.527c-3.303,-2.548 -6.795,-2.942 -10.512,-0.779l0.042,-12.893l33.745,-0.062Zm-58.938,0.007l0.894,0.772c-0.264,0.502 -0.385,1.23 -0.556,1.879c-0.013,-0.89 -0.091,-1.775 -0.338,-2.651Zm72.581,0.19l35.274,23.16l0,2.147l-36.505,-23.47l1.231,-1.837Zm-77.26,0.527c0.456,-0.008 0.902,0.186 1.239,0.589c0.533,0.64 0.313,1.813 -0.435,2.314c-1.491,0.998 -3.28,-0.933 -2.097,-2.263c0.37,-0.417 0.837,-0.631 1.293,-0.64Zm5.841,0.275l1.926,1.539c-3.344,19.028 6.208,38.238 26.781,43.994l0.233,2.438c0.039,0.116 -8.74,-2.602 -12.575,-5.464c-5.243,-3.539 -9.672,-8.523 -12.726,-14.32c-2.084,-3.738 -3.227,-7.854 -3.966,-11.181c-0.873,-5.707 -0.848,-11.357 0.327,-17.006Zm-2.187,2.582c0.739,0.03 0.819,0.561 0.225,1.581c-0.762,1.311 -1.905,2.225 -3.759,3.003c-1.021,0.429 -1.287,0.234 -1.169,-0.852c0.178,-1.634 1.317,-2.83 3.29,-3.461c0.473,-0.131 0.952,-0.274 1.413,-0.271Zm5.67,0.205c0.302,0.255 0.396,0.335 0.765,0.647c-0.632,0.216 -1.087,0.811 -1.087,1.515c0,0.887 0.72,1.605 1.608,1.605c0.796,0 1.452,-0.576 1.58,-1.333c0.288,0.246 0.558,0.476 0.769,0.659c-0.371,0.933 -1.282,1.592 -2.349,1.592c-1.396,0 -2.528,-1.13 -2.528,-2.523c0,-0.923 0.5,-1.723 1.242,-2.162Zm1.286,1.263c0.087,0 0.172,0.016 0.252,0.039c0.202,0.171 0.364,0.311 0.559,0.477c0.056,0.117 0.09,0.245 0.09,0.383c0,0.497 -0.404,0.9 -0.901,0.9c-0.498,0 -0.901,-0.403 -0.901,-0.9c0,-0.496 0.403,-0.899 0.901,-0.899Zm-6.07,0.582c-0.21,2.454 -0.144,5.019 -0.066,7.588c-0.475,-2.036 -1.534,-3.559 -3.297,-4.6c1.217,-0.84 2.491,-1.861 3.363,-2.988Zm9.27,1.926l1.712,1.476c-1.472,20.143 16.217,27.787 16.692,27.45l0.746,2.279c-12.215,-4.148 -20.659,-16.748 -19.15,-31.205Zm98.53,48.29l-0.089,2.537c-13.861,-5.368 -29.658,-25.169 -29.457,-44.142c-3.559,5.445 -5.559,9.078 -8.614,13.983l-2.432,-1.156c4,-5.945 7.802,-12.305 11.812,-18.146c0.457,-0.659 0.831,-0.962 0.852,0.481c-0.003,6.528 2.026,33.384 27.928,46.443Zm-112.701,-46.717c0.445,-0.028 1.083,0.187 1.887,0.725c1.268,0.848 2.69,3.469 2.198,4.054c-0.442,0.526 -2.322,-0.1 -3.254,-1.085c-1.849,-1.953 -1.97,-3.621 -0.831,-3.694Zm10.808,0.264c1.395,0 2.528,1.126 2.528,2.519c0,1.392 -1.133,2.523 -2.528,2.523c-1.396,0 -2.529,-1.131 -2.529,-2.523c0,-1.393 1.133,-2.519 2.529,-2.519Zm5.658,0.24l1.651,1.93c0.322,16.905 13.694,22.118 13.569,22.16l0.404,1.818c-0.746,0.104 -16.544,-7.073 -15.624,-25.908Zm-5.658,0.674c-0.888,0 -1.608,0.719 -1.608,1.605c0,0.886 0.72,1.604 1.608,1.604c0.887,0 1.607,-0.718 1.607,-1.604c0,-0.886 -0.72,-1.605 -1.607,-1.605Zm0,0.706c0.497,0 0.901,0.402 0.901,0.899c0,0.496 -0.404,0.899 -0.901,0.899c-0.498,0 -0.901,-0.403 -0.901,-0.899c0,-0.497 0.403,-0.899 0.901,-0.899Zm8.544,1.53c0.203,0.002 1.157,1.384 1.157,1.384c0,0 -1.048,0.367 -1.499,-0.089c-0.449,-0.453 -0.207,-1.297 0.342,-1.295Zm73.217,0.624l2.477,1.69c1.157,11.405 7.704,21.81 17.578,29.027l-0.063,2.826c-12.025,-8.109 -18.702,-19.126 -19.992,-33.543Zm-92.833,0.194c0.04,-0.002 0.081,0 0.12,0c1.516,0.026 2.158,2.349 0.536,3.015c-1.02,0.419 -2.129,-0.186 -2.237,-1.22c-0.076,-0.729 0.466,-1.509 1.204,-1.725c0.13,-0.038 0.255,-0.062 0.377,-0.07Zm20.676,1.523c0.397,0.002 0.829,0.229 1.239,0.69c1.086,1.223 1.076,1.578 -0.07,2.042c-1.613,0.653 -2.953,-0.254 -2.416,-1.635c0.282,-0.725 0.736,-1.098 1.247,-1.097Zm-16.509,0.058c0.131,-0.002 0.253,0.015 0.365,0.059c1.188,0.462 -1.388,5.173 -3.092,5.65c-1.082,0.303 -1.309,-0.118 -0.955,-1.771c0.393,-1.837 2.416,-3.911 3.682,-3.938Zm7.58,0.109c1.396,0 2.529,1.127 2.529,2.519c0,1.392 -1.133,2.523 -2.529,2.523c-1.395,0 -2.528,-1.131 -2.528,-2.523c0,-1.392 1.133,-2.519 2.528,-2.519Zm0,0.915c-0.887,0 -1.607,0.718 -1.607,1.604c0,0.886 0.72,1.604 1.607,1.604c0.888,0 1.608,-0.718 1.608,-1.604c0,-0.886 -0.72,-1.604 -1.608,-1.604Zm-6.318,0.135c0.224,2.333 0.604,4.491 1.643,7.364c-0.974,-1.554 -2.363,-2.326 -3.694,-3.205c0.933,-1.387 2.013,-2.773 2.051,-4.159Zm6.318,0.57c0.498,0 0.901,0.403 0.901,0.899c0,0.496 -0.403,0.899 -0.901,0.899c-0.497,0 -0.901,-0.403 -0.901,-0.899c0,-0.496 0.404,-0.899 0.901,-0.899Zm14.307,0.275c2.637,-0.057 4.501,2.11 4.385,4.186c0.077,2.41 0.164,3.954 -0.035,6.948l-2.14,-3.91c-0.03,-1.108 0.159,-1.947 0.074,-3.05c-0.243,-2.966 -3.155,-2.554 -3.293,-2.259l-0.921,-1.493c0.676,-0.278 1.322,-0.409 1.93,-0.422Zm9.286,0.298c2.47,-0.002 3.901,1.386 3.977,3.857c0.144,4.729 -0.109,15.529 -0.109,15.529l-5.344,0.003l-2.916,-7.216c0,0 -0.116,-0.694 -0.093,-1.197c0.185,-2.314 0.069,-4.89 0.147,-6.98c0.308,-2.216 2.133,-3.993 4.338,-3.996Zm-12.365,0.748c0.343,-0.004 0.662,0.101 0.905,0.345c1.24,1.251 1.232,2.071 -0.024,2.636c-1.661,0.746 -2.524,0.605 -3.091,-0.504c-0.556,-1.087 0.982,-2.461 2.21,-2.477Zm77.905,0.341l1.355,0.872c0,0 -0.285,0.445 -0.439,0.71c-0.77,1.321 0.538,2.096 2.35,1.395c0.327,-0.127 0.605,-0.306 0.605,-0.306l1.119,0.759c0,0 -0.806,0.435 -1.686,0.864c-2.26,1.104 -3.885,0.636 -4.431,-1.275c-0.216,-0.758 0,-1.708 0.424,-2.263c0.216,-0.284 0.703,-0.756 0.703,-0.756Zm-57.322,0.159c2.068,-0.07 4.081,1.542 4.559,3.709c0.198,1.015 -0.058,14.432 -0.058,14.432l-8.206,-0.003l0.144,-14.076c-0.055,-0.89 0,-1.771 0.477,-2.403c0.902,-1.121 2,-1.622 3.084,-1.659Zm-8.521,0.617c-1.657,0.076 -2.598,2.755 -0.893,4.018c0.712,0.528 0.727,0.627 0.346,2.411c-0.435,2.035 0.015,4.822 1.033,6.391c0.78,1.298 0.621,0.635 0.221,-0.524c-0.514,-2.171 -0.262,-3.766 0.994,-6.289c1.123,-2.126 2.21,-5.394 -1.359,-5.984c-0.116,-0.019 -0.231,-0.029 -0.342,-0.023Zm68.103,0.612l0.742,0.5c0,0 -0.112,0.092 -0.272,0.248c-0.297,0.287 -0.887,0.332 -1.068,0.112c-0.3,-0.364 0.598,-0.86 0.598,-0.86Zm-59.116,1.038c-1.781,-0.059 -2.955,3.238 -0.676,4.035c0.518,0.333 0.605,0.77 0.284,1.387c-0.432,0.829 -0.864,2.798 -0.797,3.62c0.097,1.18 0.399,2.721 0.637,3.255c0.598,1.474 0.479,0.885 0.323,-0.817c-0.06,-1.903 0.324,-3.275 1.433,-5.093c1.317,-2.18 3.131,-5.725 -1.029,-6.371c-0.059,-0.009 -0.118,-0.014 -0.175,-0.016Zm-30.649,0.012c1.395,0 2.528,1.127 2.528,2.519c0,1.393 -1.133,2.523 -2.528,2.523c-1.396,0 -2.529,-1.13 -2.529,-2.523c0,-1.392 1.133,-2.519 2.529,-2.519Zm11.716,0.256c0.436,-0.004 0.765,0.285 1.162,0.876c1.091,1.624 0.966,1.957 -1.138,3.112c-2.23,1.224 -3.721,-1.854 -1.589,-3.279c0.645,-0.431 1.102,-0.669 1.476,-0.705c0.03,-0.003 0.06,-0.004 0.089,-0.004l0,0Zm-23.138,0.12c2.352,0.024 6.025,3.374 4.233,3.86c-0.256,0.07 -0.578,0.117 -0.715,0.109c-2.954,-0.18 -6.338,-3.998 -3.518,-3.969Zm11.422,0.539c-0.888,0 -1.608,0.718 -1.608,1.604c0,0.886 0.72,1.605 1.608,1.605c0.888,0 1.607,-0.719 1.607,-1.605c0,-0.886 -0.719,-1.604 -1.607,-1.604Zm93.128,0.473l1.173,0.794c0,0 -0.717,0.329 -1.561,0.779c-2.294,1.222 -2.96,2.119 -2.167,2.918c0.282,0.286 0.617,0.41 1.219,0.182c1.59,-0.616 3.072,-1.701 4.555,-2.557l0.882,0.604c-0.02,-0.04 -3.506,2.473 -5.41,3.531c-2.988,1.531 -4.696,-1.6 -3.033,-3.69c1.283,-1.273 2.657,-1.69 4.342,-2.561Zm-93.128,0.232c0.497,0 0.901,0.403 0.901,0.899c0,0.497 -0.404,0.899 -0.901,0.899c-0.498,0 -0.901,-0.402 -0.901,-0.899c0,-0.496 0.403,-0.899 0.901,-0.899Zm94.961,0.841l0.641,0.43c0,0 -0.069,0.033 -2.027,1.155c-2.131,1.222 -2.224,1.243 -2.342,1.05c-0.105,-0.058 0.041,-0.557 0.695,-0.996c1.146,-0.769 3.174,-1.704 3.033,-1.639Zm-55.43,0.062c1.451,-0.028 2.93,0.66 3.774,2.132c0.431,1.117 0.468,2.155 0.463,3.329l-0.035,7.878l-8.265,0c0,0 -0.383,-5.37 0,-9.839c0.376,-2.246 2.197,-3.464 4.063,-3.5Zm-25.667,1.167c0.525,-0.039 0.911,0.475 1.41,1.589c0.494,1.102 0.122,1.726 -1.429,2.395c-0.196,0.084 -0.42,0.146 -0.498,0.139c-1.568,-0.149 -2.21,-1.954 -1.083,-3.05c0.699,-0.679 1.192,-1.044 1.6,-1.073Zm83.994,0.806l0.719,0.445c0,0 -0.368,0.333 -3.037,2.275c-2.156,1.569 -2.466,1.995 -2.016,2.876c0.363,0.71 1.152,0.618 2.241,-0.217c1.51,-1.159 3.887,-3.12 3.887,-3.12l0.078,1.341c-1.564,1.254 -3.452,3.394 -4.955,4.209c-2.901,1.425 -4.981,-2.489 -2.331,-4.418c2.285,-1.663 5.414,-3.391 5.414,-3.391Zm-58.013,0.004c-2.16,-0.018 -2.964,3.181 -0.641,3.86c0.669,0.357 0.613,0.541 0.167,2.135c-0.27,0.965 -0.357,2.154 -0.209,2.91c0.173,0.964 0.388,0.942 0.299,-0.093c0.003,-0.565 0.586,-2.075 1.169,-3.023c2.154,-2.996 1.589,-5.761 -0.785,-5.789Zm-50.331,0.038c1.425,0.01 2.223,1.991 0.986,2.845c-0.875,0.605 -2.708,-0.133 -2.703,-1.089c0.005,-0.815 0.648,-1.59 1.426,-1.729c0.1,-0.017 0.196,-0.027 0.291,-0.027Zm4.101,0.167c0.449,-0.001 0.707,0.655 0.703,1.953c-0.005,1.862 -0.668,3.485 -1.81,4.434c-1.653,1.373 -2.022,-2.37 -0.478,-4.845c0.644,-1.031 1.189,-1.541 1.585,-1.542Zm105.758,0.492c0.407,-0.006 0.343,0.305 -0.128,0.632c-0.367,0.254 -0.988,0.762 -2.913,2.383c-0.349,0.294 -0.85,0.678 -1.111,0.853c-0.641,0.429 -1.184,0.317 -0.874,-0.178c0.306,-0.488 4.66,-3.684 5.026,-3.69Zm-96.849,0.085c1.395,0 2.528,1.127 2.528,2.519c0,1.393 -1.133,2.523 -2.528,2.523c-1.395,0 -2.528,-1.13 -2.528,-2.523c0,-1.392 1.133,-2.519 2.528,-2.519Zm0,0.915c-0.888,0 -1.608,0.719 -1.608,1.604c0,0.887 0.72,1.605 1.608,1.605c0.888,0 1.608,-0.718 1.608,-1.605c0,-0.885 -0.72,-1.604 -1.608,-1.604Zm-30.234,0.047c17.099,8.626 27.758,24.767 30.389,43.153l8.307,-13.15l2.245,0.845l-12.105,19.688l-0.524,-0.163c-0.051,-19.234 -9.657,-37.428 -28.351,-47.413l0.039,-2.96Zm30.234,0.658c0.497,0 0.901,0.403 0.901,0.899c0,0.497 -0.404,0.9 -0.901,0.9c-0.498,0 -0.901,-0.403 -0.901,-0.9c0,-0.496 0.403,-0.899 0.901,-0.899Zm-7.057,0.105c0.748,1.65 1.658,3.381 3.065,5.36c-1.426,-1.337 -2.985,-1.279 -4.529,-1.481l1.464,-3.879Zm20.331,0.357c0.265,-0.013 0.53,0.098 0.738,0.383c0.699,0.959 0.828,1.849 0.342,2.329c-0.667,0.658 -1.727,0.398 -2.206,-0.538c-0.498,-0.975 0.33,-2.136 1.126,-2.174Zm83.854,1.333l0.028,1.492c0,0 -0.319,0.382 -0.657,0.697c-0.953,0.89 -2.256,2.309 -2.349,2.671c-0.303,1.176 0.863,1.608 2.011,0.744c0.397,-0.299 0.967,-0.752 0.967,-0.752l0,1.837c-0.969,0.822 -1.935,1.63 -3.258,1.364c-0.771,-0.235 -1.448,-0.84 -1.588,-1.612c-0.553,-2.315 1.694,-3.606 3.437,-5.155c0.562,-0.499 1.409,-1.286 1.409,-1.286Zm-93.567,1.302c0.043,-0.002 0.085,0 0.128,0c1.396,0 2.529,1.127 2.529,2.519c0,1.392 -1.133,2.523 -2.529,2.523c-1.395,0 -2.528,-1.131 -2.528,-2.523c0,-1.349 1.065,-2.452 2.4,-2.519Zm50.766,0.566c1.378,-0.006 2.108,1.846 0.998,2.895c-0.435,0.412 -1.419,0.705 -1.976,0.317c-1.536,-1.067 -0.405,-3.142 0.978,-3.212Zm-2.749,1.468c0.797,0.844 1.401,3.296 0.932,3.76c-1.039,1.07 -4.059,-2.49 -3.879,-4.817c0.321,-1.396 2.652,0.745 2.947,1.057Zm-36.949,-1.337c0.578,0.004 0.686,0.521 0.556,0.826c-0.125,0.291 -0.577,0.314 -0.936,0.167c-0.611,-0.251 -0.325,-0.996 0.38,-0.993Zm-10.94,0.217c-0.888,0 -1.607,0.719 -1.607,1.605c0,0.886 0.719,1.604 1.607,1.604c0.888,0 1.608,-0.718 1.608,-1.604c0,-0.886 -0.72,-1.605 -1.608,-1.605Zm-12.035,0.706c3.049,0.004 6.266,2.4 3.468,2.875c-2.077,0.353 -3.424,-0.056 -5.041,-1.53c-0.822,-0.749 -0.529,-1.147 0.967,-1.314c0.2,-0.023 0.403,-0.031 0.606,-0.031Zm12.035,0c0.498,0 0.901,0.402 0.901,0.899c0,0.496 -0.403,0.899 -0.901,0.899c-0.497,0 -0.901,-0.403 -0.901,-0.899c0,-0.497 0.404,-0.899 0.901,-0.899Zm4.222,2.282c0.043,-0.002 0.088,0 0.132,0c1.395,0 2.528,1.127 2.528,2.519c0,1.393 -1.133,2.523 -2.528,2.523c-1.395,0 -2.528,-1.13 -2.528,-2.523c0,-1.348 1.061,-2.451 2.396,-2.519Zm49.682,0.128c0.722,-0.012 1.355,0.124 1.721,0.458c0.447,0.408 -0.225,1.193 -1.596,1.86c-1.602,0.779 -4.397,0.671 -4.393,-0.171c0.006,-1.119 2.425,-2.116 4.268,-2.147Zm-60.863,0.663c1.401,0.007 1.781,4.344 0.563,6.422c-0.631,1.078 -1.482,0.357 -2.089,-1.771c-0.499,-1.746 0.457,-4.657 1.526,-4.651Zm11.313,0.124c-0.888,0 -1.608,0.719 -1.608,1.604c0,0.887 0.72,1.605 1.608,1.605c0.888,0 1.608,-0.718 1.608,-1.605c0,-0.885 -0.72,-1.604 -1.608,-1.604Zm52.385,0.283c0.12,0.002 0.271,0.061 0.47,0.159c1.53,0.75 2.643,4.249 1.845,5.809c-0.839,1.643 -2.727,-1.519 -2.711,-4.542c0.006,-0.988 0.07,-1.386 0.346,-1.422c0.016,-0.002 0.034,-0.004 0.05,-0.004l0,0Zm-67.671,0.225c0.032,-0.002 0.065,-0.002 0.097,0c1.384,0.034 2.389,1.942 1.088,2.922c-0.57,0.429 -1.447,0.496 -1.985,0.155c-1.06,-0.673 -1.003,-2.311 0.101,-2.883c0.236,-0.123 0.472,-0.185 0.699,-0.194Zm15.286,0.197c0.497,0 0.901,0.403 0.901,0.899c0,0.497 -0.404,0.9 -0.901,0.9c-0.497,0 -0.901,-0.403 -0.901,-0.9c0,-0.496 0.404,-0.899 0.901,-0.899Zm-9.445,0.303c0.757,1.124 3.824,4.092 4.249,4.348c-1.355,-0.438 -2.75,-0.252 -4.144,-0.066c0.157,-1.027 0.323,-2.713 -0.105,-4.282Zm49.287,0.255c20.789,4.856 33.48,26.87 28.462,47.521c0,0 -1.75,-0.975 -2.027,-1.441c0.735,-3.574 1.188,-9.233 0.268,-14.925c-1.561,-9.653 -9.403,-23.819 -26.583,-28.678c-0.19,-0.624 -0.12,-2.477 -0.12,-2.477Zm11.202,0.152c0.235,1.412 0.461,2.835 0.81,4.106c-1.464,-1.05 -3.123,-1.953 -4.822,-2.682c1.213,-0.254 2.321,-0.468 4.012,-1.424Zm5.994,0.453c0.827,-0.021 1.669,0.567 1.651,1.585c-0.008,0.448 -0.487,1.253 -0.859,1.442c-1.381,0.703 -2.799,-0.637 -2.19,-2.07c0.273,-0.643 0.832,-0.942 1.398,-0.957Zm-52.23,0.546c1.395,0 2.528,1.127 2.528,2.52c0,1.392 -1.133,2.522 -2.528,2.522c-1.396,0 -2.529,-1.13 -2.529,-2.522c0,-1.393 1.133,-2.52 2.529,-2.52Zm0,0.915c-0.888,0 -1.608,0.718 -1.608,1.605c0,0.886 0.72,1.604 1.608,1.604c0.888,0 1.608,-0.718 1.608,-1.604c0,-0.887 -0.72,-1.605 -1.608,-1.605Zm-43.019,0.24c10.33,6.084 19.596,19.023 20.284,33.655l-2.501,-1.632c-1.077,-9.855 -6.133,-20.578 -17.864,-29.368c0,0 0.03,-0.946 0.081,-2.655Zm57.202,0l13.351,0l0,2.872l4.004,-2.058l0,6.352l-4.004,-2.418l0,2.771l-13.351,0l0,-2.915l-4.09,1.973l0.047,-6.321l4.043,2.267l0,-2.523Zm-14.183,0.465c0.497,0 0.901,0.403 0.901,0.9c0,0.496 -0.404,0.899 -0.901,0.899c-0.498,0 -0.901,-0.403 -0.901,-0.899c0,-0.497 0.403,-0.9 0.901,-0.9Zm5.25,0.504c0.017,-0.001 0.034,0 0.051,0l0.159,0.915c-0.026,-0.001 -0.051,-0.004 -0.078,-0.004c-0.888,0 -1.607,0.718 -1.607,1.604c0,0.886 0.719,1.605 1.607,1.605c0.215,0 0.419,-0.04 0.606,-0.116l0.156,0.918c-0.241,0.076 -0.496,0.116 -0.762,0.116c-1.395,0 -2.528,-1.13 -2.528,-2.523c0,-1.348 1.061,-2.447 2.396,-2.515Zm30.16,0.318c0.044,-0.002 0.088,0 0.132,0c1.396,0 2.528,1.127 2.528,2.519c0,1.196 -0.837,2.194 -1.957,2.453l-0.151,-0.907c0.684,-0.184 1.188,-0.805 1.188,-1.546c0,-0.886 -0.72,-1.604 -1.608,-1.604c-0.036,0 -0.073,0.001 -0.108,0.003l-0.156,-0.906c0.043,-0.005 0.088,-0.01 0.132,-0.012Zm17.729,0.853c3.117,0.016 4.412,1.803 1.856,2.561c-1.184,0.352 -2.733,0.165 -4.264,-0.511c-1.276,-0.564 0.481,-2.061 2.408,-2.05Zm-65.171,0.17c0.755,-0.003 1.485,0.113 2.024,0.368c1.303,0.617 1.273,1.035 -0.121,1.837c-1.943,1.119 -6.52,-0.013 -5.138,-1.271c0.65,-0.591 1.978,-0.929 3.235,-0.934Zm17.414,0.275c0.069,0 0.138,0.009 0.202,0.024l0.28,1.635c-0.14,0.088 -0.304,0.14 -0.482,0.14c-0.497,0 -0.901,-0.403 -0.901,-0.9c0,-0.496 0.404,-0.899 0.901,-0.899Zm30.168,0.322c0.494,0.004 0.893,0.405 0.893,0.899c0,0.392 -0.252,0.722 -0.602,0.845l-0.291,-1.744Zm5.499,0.643c1.395,0 2.528,1.127 2.528,2.519c0,1.393 -1.133,2.523 -2.528,2.523c-1.395,0 -2.528,-1.13 -2.528,-2.523c0,-1.392 1.133,-2.519 2.528,-2.519Zm-49.216,0.636c0.149,-0.008 0.319,0.061 0.501,0.209c1.514,1.236 2.27,3.852 1.673,5.798c-0.568,1.856 -2.93,-1.44 -2.916,-4.069c0.006,-1.213 0.292,-1.913 0.742,-1.938Zm65.457,0.221c0.209,0.002 0.43,0.16 0.649,0.523c0.941,1.563 0.898,4.792 -0.078,5.798c-0.553,0.57 -0.759,0.462 -1.336,-0.702c-0.985,-1.99 -0.242,-5.627 0.765,-5.619Zm-16.241,0.058c-0.888,0 -1.608,0.718 -1.608,1.604c0,0.886 0.72,1.605 1.608,1.605c0.888,0 1.608,-0.719 1.608,-1.605c0,-0.886 -0.72,-1.604 -1.608,-1.604Zm-47.209,0.43c1.909,1.202 3.863,2.299 5.896,3.213c-1.902,-0.449 -3.308,0.188 -4.758,1.046c0.278,-1.587 -0.264,-2.877 -1.138,-4.259Zm57.361,0.34c1.423,0.2 2.831,0.433 4.481,0.123c-0.304,1.396 -0.411,2.818 -0.277,4.272c-1.227,-1.585 -2.596,-3.073 -4.204,-4.395Zm-10.152,-0.065c0.498,0 0.901,0.403 0.901,0.899c0,0.497 -0.403,0.899 -0.901,0.899c-0.497,0 -0.901,-0.402 -0.901,-0.899c0,-0.496 0.404,-0.899 0.901,-0.899Zm-51.236,0.857c1.17,0.572 1.204,1.988 0.066,2.728c-1.431,0.93 -3.296,-0.702 -2.404,-2.104c0.796,-0.95 1.349,-0.943 2.338,-0.624Zm56.308,0.817c1.395,0 2.528,1.127 2.528,2.519c0,1.393 -1.133,2.523 -2.528,2.523c-1.395,0 -2.528,-1.13 -2.528,-2.523c0,-1.392 1.133,-2.519 2.528,-2.519Zm14.789,0.423c0.243,-0.005 0.497,0.05 0.749,0.182c0.899,0.47 1.088,1.661 0.373,2.356c-0.791,0.771 -1.871,0.638 -2.404,-0.294c-0.607,-1.064 0.226,-2.224 1.282,-2.244Zm-24.385,0.372c12.443,4.227 20.777,18.041 18.769,31.341l-1.553,-1.465c1.183,-7.537 -2.965,-21.937 -16.824,-27.849l-0.392,-2.027Zm9.596,0.12c-0.888,0 -1.608,0.718 -1.608,1.604c0,0.887 0.72,1.605 1.608,1.605c0.888,0 1.608,-0.718 1.608,-1.605c0,-0.886 -0.72,-1.604 -1.608,-1.604Zm0,0.705c0.497,0 0.901,0.403 0.901,0.899c0,0.497 -0.404,0.9 -0.901,0.9c-0.497,0 -0.901,-0.403 -0.901,-0.9c0,-0.496 0.404,-0.899 0.901,-0.899Zm-47.314,0.159c0.635,0.056 1.707,-0.058 1.958,0.539c0.282,0.755 -1.27,2.061 -3.239,2.318c-0.802,0.047 -2.52,0.251 -2.882,-0.326c-0.339,-0.719 1.979,-2.509 4.163,-2.531Zm-39.503,0.442c1.682,-0.074 3.578,2.172 1.875,4.003c-1.362,1.408 -4.151,3.326 -4.151,3.326l0,-1.233c0,0 2.732,-1.994 2.777,-2.891c0.005,-1.042 -0.855,-1.63 -1.814,-1.004c-0.19,0.124 -0.94,0.733 -0.94,0.733l0.062,-2.066c0.509,-0.555 1.406,-0.833 2.191,-0.868Zm42.971,0.527c1.248,0.048 4.139,4.496 3.402,5.406c-0.583,0.722 -2.931,-0.877 -3.813,-2.596c-0.474,-0.923 -0.331,-2.567 0.241,-2.783c0.052,-0.02 0.109,-0.029 0.17,-0.027Zm19.232,0.539c0,0 0.128,10.351 -0.454,11.328c-2.338,4.222 -7.384,2.025 -7.814,-1.14c-0.31,-1.908 -0.124,-10.169 -0.124,-10.169l8.392,-0.019Zm0.738,0l8.062,0c0,0 -0.036,14.569 -0.361,15.405c-0.265,0.68 -1.436,1.853 -2.171,2.174c-2.368,1.032 -4.899,-0.432 -5.526,-3.197c-0.452,-1.994 -0.004,-14.382 -0.004,-14.382l0,0Zm8.738,0l5.352,0c0,0 0.183,0.772 0.396,1.407c0.371,1.107 1.633,4.282 1.778,4.476c0.654,0.871 0.686,10.394 0.039,11.479c-2.36,3.532 -6.289,2.504 -7.724,-1.407c-0.36,-1.253 0.159,-15.955 0.159,-15.955Zm6.241,0.36c9.598,4.55 16.943,14.196 16.024,26.574l-1.764,-1.755c0.643,-8.544 -5.874,-19.223 -13.48,-22.397l-0.78,-2.422Zm13.216,0.291c1.395,0 2.528,1.127 2.528,2.519c0,1.392 -1.133,2.523 -2.528,2.523c-1.396,0 -2.529,-1.131 -2.529,-2.523c0,-1.392 1.133,-2.519 2.529,-2.519Zm9.468,0.256c0.939,0.013 2.086,0.337 2.944,1.042c1.025,0.844 1.168,1.511 0.372,1.756c-1.536,0.473 -3.381,0.015 -4.539,-1.124c-1.077,-1.058 -0.149,-1.694 1.223,-1.674Zm-9.468,0.659c-0.888,0 -1.608,0.718 -1.608,1.604c0,0.886 0.72,1.604 1.608,1.604c0.888,0 1.607,-0.718 1.607,-1.604c0,-0.886 -0.719,-1.604 -1.607,-1.604Zm-50.572,0.201c1.346,0.007 1.964,1.899 0.932,2.856c-0.424,0.393 -1.579,0.477 -2.082,0.151c-1.383,-0.895 -0.573,-3.016 1.15,-3.007Zm17.798,0.481c-0.445,1.279 -1.162,2.722 -1.755,3.708c-1.59,2.645 -1.383,4.418 0.295,5.314c2.464,1.315 4.253,-2.216 1.825,-3.601c-0.852,-0.485 -0.852,-0.491 -0.544,-1.802c0.385,-1.635 0.452,-3.585 0.179,-3.619Zm32.774,0.023c0.497,0 0.901,0.403 0.901,0.899c0,0.496 -0.404,0.899 -0.901,0.899c-0.498,0 -0.901,-0.403 -0.901,-0.899c0,-0.496 0.403,-0.899 0.901,-0.899Zm-24.133,0.519c-0.113,-0.007 -0.026,0.651 -0.035,1.818c-0.014,1.884 -0.172,2.457 -1.379,4.984c-1.541,3.226 -1.335,5.431 0.575,6.146c1.484,0.555 2.927,-0.577 2.936,-2.306c0.005,-0.823 -0.363,-1.468 -0.928,-1.635c-0.511,-0.033 -1.077,-0.271 -1.037,-0.516c0.313,-1.926 1.986,-5.555 -0.132,-8.491Zm31.884,0.26c1.248,0.783 2.531,1.526 4.389,1.62c-0.792,1.893 -0.711,3.277 -0.843,4.786c-0.794,-2.033 -2.021,-4.282 -3.546,-6.406Zm-95.194,0.294c0.1,-0.001 0.2,0.006 0.299,0.02c1.193,0.185 2.2,1.709 1.88,2.844c-0.28,0.991 -0.368,1.159 -4.206,3.717c-2.131,1.419 -2.354,1.48 -2.354,1.48l-1.142,-0.767c0,0 0.967,-0.644 2.498,-1.67c2.945,-1.976 3.378,-2.447 3.075,-3.329c-0.329,-0.96 -1.431,-0.758 -3.172,0.581c-2.579,1.981 -2.847,2.112 -2.847,2.112l0,-1.182c0,0 1.13,-0.897 1.619,-1.318c1.196,-0.847 2.847,-2.472 4.35,-2.488Zm76.277,0.516c0.29,-0.003 0.513,0.266 0.412,0.523c-0.048,0.123 -0.218,0.203 -0.443,0.202c-0.462,-0.003 -0.487,-0.658 -0.027,-0.721c0.02,-0.003 0.039,-0.004 0.058,-0.004l0,0Zm25.885,1.375c0.544,1.865 -0.628,4.974 -1.346,5.372c-0.764,0.755 -1.242,0.034 -1.408,-1.918c0.004,-1.585 1.822,-6.535 2.754,-3.454Zm-30.693,-1.046c0.235,2.687 0.319,4.918 -0.943,7.1c-1.637,2.829 -1.212,5.255 0.54,5.79c1.745,0.533 3.287,-0.713 2.978,-2.407c-0.094,-0.518 -0.807,-1.365 -1.242,-1.476c-0.537,-0.138 -0.601,-0.47 -0.296,-1.535c0.592,-2.064 0.394,-4.677 -0.501,-6.565c-0.082,-0.282 -0.41,-0.917 -0.535,-0.907l-0.001,0Zm5.872,0.895c1.472,0.008 2.167,1.918 1.065,2.926c-0.614,0.562 -1.005,0.307 -1.647,-1.069c-0.596,-1.277 -0.412,-1.862 0.582,-1.857Zm13.71,0.392c1.395,0 2.528,1.127 2.528,2.519c0,1.392 -1.133,2.523 -2.528,2.523c-1.396,0 -2.529,-1.131 -2.529,-2.523c0,-1.392 1.133,-2.519 2.529,-2.519Zm0,0.914c-0.888,0 -1.608,0.719 -1.608,1.605c0,0.886 0.72,1.604 1.608,1.604c0.887,0 1.607,-0.718 1.607,-1.604c0,-0.886 -0.72,-1.605 -1.607,-1.605Zm0,0.706c0.497,0 0.901,0.403 0.901,0.899c0,0.496 -0.404,0.899 -0.901,0.899c-0.498,0 -0.901,-0.403 -0.901,-0.899c0,-0.496 0.403,-0.899 0.901,-0.899Zm-10.847,0.663c0.206,-0.009 0.407,0.026 0.594,0.116c1.332,0.642 1.186,2.482 -0.284,3.581c-0.93,0.695 -1.323,0.454 -2.19,-1.341c-0.47,-0.974 0.764,-2.31 1.88,-2.356Zm-77.19,0.209c0.135,0.003 0.262,0.025 0.384,0.058c1.373,0.377 2.242,1.975 1.899,3.189c-0.757,1.873 -3.32,2.503 -5.266,3.287l-1.01,-0.736c0,0 1.427,-0.809 2.812,-1.446c1.297,-0.596 1.507,-0.833 1.41,-1.585c-0.19,-1.469 -0.901,-1.416 -4.125,0.318c-1.311,0.705 -2.275,1.329 -2.275,1.329l-0.715,-0.585c1.067,-0.701 1.708,-1.089 2.874,-1.884c1.947,-1.33 3.057,-1.902 3.872,-1.941c0.047,-0.003 0.094,-0.005 0.14,-0.004l0,0Zm102.547,1.087c0.469,1.424 -0.488,2.672 -1.93,2.113c-0.783,-0.304 -1.338,-1.302 -0.852,-2.227c0.648,-1.015 2.467,-0.84 2.782,0.114Zm-28.938,-0.494l2.272,4.073c0,0 0.03,1.133 0.05,1.763c0.087,2.645 0.654,3.52 2.206,3.263c0.111,-0.018 0.664,-0.178 0.664,-0.178l0.987,1.659c0,0 -1.067,0.465 -1.344,0.523c-1.827,0.383 -4.357,-0.987 -4.75,-2.817c-0.38,-1.772 -0.085,-8.286 -0.085,-8.286Zm-74.425,1.674c0.686,0.05 0.394,0.573 0.078,0.744c-1.335,0.678 -2.596,1.416 -3.989,2.217l-0.932,-0.578c0,0 0.719,-0.4 1.216,-0.705c1.526,-0.937 3.081,-1.656 3.627,-1.678Zm91.303,0.523c1.395,0 2.528,1.127 2.528,2.519c0,1.393 -1.133,2.523 -2.528,2.523c-1.395,0 -2.528,-1.13 -2.528,-2.523c0,-1.392 1.133,-2.519 2.528,-2.519Zm-10.695,0.345c0.581,-0.017 1.067,0.233 1.382,0.756c0.675,1.118 -0.04,2.484 -1.677,3.213c-0.915,0.406 -1.068,0.322 -2.043,-1.12c-0.66,-0.976 -0.656,-1.151 0.074,-1.772c0.817,-0.695 1.605,-1.058 2.264,-1.077Zm-88.729,0.221l36.207,23.396l-1.033,1.752l-35.104,-22.931l-0.07,-2.217Zm107.583,0.302c2.2,0.042 5.072,2.585 4.055,3.589c-0.108,0.107 -0.317,0.187 -0.466,0.178c-3.141,-0.185 -6.608,-3.824 -3.589,-3.767Zm-8.159,0.047c-0.888,0 -1.608,0.718 -1.608,1.604c0,0.886 0.72,1.605 1.608,1.605c0.888,0 1.608,-0.719 1.608,-1.605c0,-0.886 -0.72,-1.604 -1.608,-1.604Zm-48.354,0.445l0.959,2.488l-18.02,28.629l-1.771,-1.136l18.832,-29.981Zm48.354,0.26c0.497,0 0.901,0.403 0.901,0.899c0,0.497 -0.404,0.899 -0.901,0.899c-0.497,0 -0.901,-0.402 -0.901,-0.899c0,-0.496 0.404,-0.899 0.901,-0.899Zm6.618,0.298c0.882,1.638 2.352,2.641 4.023,3.345c-1.578,1.3 -2.372,2.985 -2.311,4.747c-0.4,-2.645 -0.746,-5.276 -1.712,-8.092Zm-95.261,0.865c0.386,0.003 0.735,0.083 1.01,0.271c3.377,2.309 0.276,4.593 -0.012,4.414l-1.149,-0.725c0.395,-0.654 1.293,-1.54 -0.152,-2.367c-0.819,-0.357 -1.732,0.071 -2.528,0.624l-1.208,-0.826c0,0 2.366,-1.404 4.039,-1.391l0,0Zm79.637,1.306c0.127,-0.004 0.252,0.003 0.373,0.027c1.906,0.367 1.774,2.386 -0.218,3.321c-1.133,0.532 -1.333,0.424 -2.322,-1.271c-0.464,-0.796 0.938,-2.037 2.167,-2.077Zm-80.246,0.74c0.202,0.005 0.462,0.183 0.493,0.349c0.098,0.53 -0.886,1.062 -0.886,1.062l-1.13,-0.748c0.483,-0.266 0.988,-0.626 1.523,-0.663Zm101.551,0.484c0.276,-0.021 0.479,0.109 0.56,0.438c0.386,1.568 -1.36,4.477 -2.971,4.949c-0.941,0.276 -1.213,-0.166 -0.905,-1.465c0.433,-1.825 2.33,-3.844 3.316,-3.922Zm-58.401,0.121l2.932,2.123l-17.592,27.749l-3.045,-1.806l17.705,-28.066Zm47.873,0.224c1.395,0 2.528,1.127 2.528,2.519c0,1.393 -1.133,2.523 -2.528,2.523c-1.395,0 -2.528,-1.13 -2.528,-2.523c0,-1.392 1.133,-2.519 2.528,-2.519Zm0,0.915c-0.888,0 -1.608,0.718 -1.608,1.604c0,0.887 0.72,1.605 1.608,1.605c0.888,0 1.608,-0.718 1.608,-1.605c0,-0.886 -0.72,-1.604 -1.608,-1.604Zm0,0.705c0.497,0 0.901,0.403 0.901,0.899c0,0.497 -0.404,0.899 -0.901,0.899c-0.497,0 -0.901,-0.402 -0.901,-0.899c0,-0.496 0.404,-0.899 0.901,-0.899Zm-40.424,0.093c1.908,2.148 4.054,6.952 11.542,4.686c2.551,2.074 6.074,3.255 10.416,0.953l0.031,12.944l-33.248,0.035l11.259,-18.618Zm-60.724,0.33l32.743,21.505l-1.026,1.806l-31.748,-20.25l0.031,-3.061Zm91.921,0.019c0.031,0 0.058,0.002 0.081,0.008c1.674,0.408 1.863,2.078 0.307,2.716c-0.833,0.342 -1.003,0.257 -1.798,-0.91c-0.317,-0.466 -0.496,-0.852 -0.451,-0.969c0.112,-0.286 1.392,-0.851 1.861,-0.845l0,0Zm21.01,1.767c0.585,0.004 1.167,0.313 1.441,0.923c0.41,0.914 0.173,1.681 -0.672,2.189c-1.399,0.841 -2.963,-0.703 -2.237,-2.209c0.291,-0.605 0.883,-0.907 1.468,-0.903Zm-20.502,1.756c0.772,0.004 1.42,0.739 1.045,1.186c-0.249,0.296 -0.569,0.211 -0.979,-0.26c-0.481,-0.553 -0.509,-0.929 -0.066,-0.926Zm9.387,0.322c1.395,0 2.528,1.126 2.528,2.519c0,1.392 -1.133,2.523 -2.528,2.523c-1.395,0 -2.528,-1.131 -2.528,-2.523c0,-1.393 1.133,-2.519 2.528,-2.519Zm7.122,0.139c1.906,0.01 4.546,3.187 4.098,4.93c-0.147,0.568 -1.215,0.261 -2.486,-0.713c-1.716,-1.317 -2.827,-4.224 -1.612,-4.217Zm-7.122,0.775c-0.888,0 -1.608,0.718 -1.608,1.605c0,0.886 0.72,1.604 1.608,1.604c0.888,0 1.608,-0.718 1.608,-1.604c0,-0.887 -0.72,-1.605 -1.608,-1.605Zm6.124,0.326c0.527,1.538 1.065,3.139 3.441,4.251c-3.687,1.714 -4.39,4.601 -3.837,8.301l-0.862,-0.527c0.79,-3.315 1.388,-7.092 1.258,-12.025Zm-6.124,0.379c0.497,0 0.901,0.403 0.901,0.9c0,0.496 -0.404,0.899 -0.901,0.899c-0.497,0 -0.901,-0.403 -0.901,-0.899c0,-0.497 0.404,-0.9 0.901,-0.9Zm-0.47,4.05c1.395,0 2.528,1.127 2.528,2.519c0,0.881 -0.452,1.657 -1.138,2.109l-0.815,-0.609c0.603,-0.231 1.033,-0.816 1.033,-1.5c0,-0.886 -0.72,-1.604 -1.608,-1.604c-0.846,0 -1.536,0.653 -1.6,1.48l-0.819,-0.612c0.316,-1.032 1.281,-1.783 2.419,-1.783Zm11.503,0.322c1.203,0.007 -0.667,3.336 -2.384,4.244c-1.308,0.691 -2.505,0.745 -2.501,0.112c0.009,-1.655 3.048,-4.366 4.885,-4.356Zm-11.503,1.298c0.497,0 0.901,0.403 0.901,0.899c0,0.497 -0.404,0.9 -0.901,0.9c-0.494,-0.054 -0.895,-0.442 -0.901,-0.9c0,-0.496 0.404,-0.899 0.901,-0.899Zm11.115,3.035c0.592,0.008 1.179,0.264 1.429,0.763c0.323,0.645 0.2,1.222 -0.392,1.806c-1.454,1.435 -3.432,-0.038 -2.482,-1.848c0.258,-0.492 0.853,-0.73 1.445,-0.721Zm-4.649,1.352c2.025,0.063 3.558,2.578 3.193,4c-0.322,0.377 -2.552,-1.312 -2.793,-1.484c-0.285,-0.504 -0.302,-1.319 -0.4,-2.516Zm-2.761,1.558c2.16,1.447 4.279,2.733 6.346,3.806l-6.33,4.058l-0.016,-7.864Zm-56.506,1.884l34.086,0.124l0.004,1.43l-35.022,0.019l0.932,-1.573l0,0Zm-1.39,2.236l2.291,0l0,2.786l-3.146,0l0,-1.538l0.855,-1.248Zm32.754,0.066l2.757,0l0,2.786l-2.757,0l0,-2.786Zm-27.057,0.019l3.138,0l0,2.787l-3.138,0l0,-2.787Zm6.528,0.023l3.39,0l0,2.787l-3.39,0l0,-2.787Zm6.936,0l3.262,0l0,2.787l-3.262,0l0,-2.787Zm6.967,0.047l3.107,0l0,2.786l-3.107,0l0,-2.786Zm-28.381,3.434l37.807,0.089l0,1.67l-38.887,-0.089l1.08,-1.67Zm32.257,3.519c3.849,-0.043 6.092,4.244 3.084,7.254c-2.766,2.768 -7.379,-0.766 -5.076,-3.879c1.286,-1.738 4.447,-0.337 3.658,1.515c-0.519,1.22 -2.223,0.651 -2.171,-0.67c0.003,-0.531 -0.39,-0.168 -0.435,0.395c-0.057,0.715 0.678,1.506 1.534,1.508c2.234,0.005 2.569,-2.95 0.416,-4.035c-1.923,-0.969 -3.948,0.268 -4.416,2.721c-0.051,0.268 -0.368,0.937 -0.61,1.411c-0.711,1.425 -0.94,2.248 -1.297,3.875c-0.163,0.203 -0.662,0.528 -1.009,0.702c-1.098,0.547 -1.052,0.316 -0.641,-1.465c1.183,-5.131 3.116,-8.436 5.48,-9.108c0.514,-0.146 1.01,-0.219 1.483,-0.224Zm11.383,0.267c2.376,-0.051 4.166,1.903 4.478,3.412c1.366,4.592 -4.743,7.405 -6.873,3.244c-1.189,-2.378 1.275,-5.216 3.533,-4.11c1.848,0.905 1.729,3.719 -0.159,3.709c-1.026,0.048 -1.65,-0.871 -1.084,-1.608c0.293,-0.291 0.645,-0.064 0.792,-0.551c0.062,-0.204 -0.228,-0.366 -0.928,-0.224c-1.159,0.234 -1.041,2.566 0.303,3.03c2.002,0.692 3.714,-1.415 2.761,-3.499c-1.146,-2.506 -4.247,-2.517 -5.666,0.104c-0.206,0.381 -0.529,0.925 -0.707,1.167c-2.116,2.865 -2.282,3.294 -2.912,4.891c-0.063,0.159 -0.174,0.277 -0.365,0.255c-0.584,0 -1.155,0.127 -1.546,0.279c-0.264,-0.069 0.087,-1.074 0.112,-1.151c1.442,-4.441 5.145,-8.84 8.261,-8.948Zm-18.416,1.248c-0.502,0.872 -2.011,3.706 -3.056,7.894c-0.276,-0.171 -1.018,-0.479 -1.554,-0.666c-0.203,-0.071 -0.038,-0.305 -0.05,-0.659c0.38,-1.889 1.603,-5.19 2.951,-6.871c0.286,-0.21 2.126,-0.276 1.709,0.302Zm2.155,0.837c-1.291,1.645 -2.639,6.015 -2.92,8.27c-0.043,0.341 -0.104,0.718 -0.14,0.837c-0.201,0.675 -1.466,-0.774 -1.46,-1.67c0.01,-1.523 1.701,-6.161 2.909,-7.933c0.42,-0.618 0.471,-0.72 1.371,-0.752c1.445,-0.036 0.81,0.522 0.24,1.248Zm-63.127,-1.085c-0.319,0.007 -0.636,0.049 -0.948,0.124c-1.87,0.462 -4.098,2.44 -4.315,4.538c-0.102,0.063 -0.357,1.531 -0.194,2.275c0.618,2.816 2.265,4.726 4.28,7.518c0,0 -2.531,3.916 -4.268,5.724l4.109,5.934c-1.137,2.239 -3.112,3.933 -3.608,6.697c-0.775,3.638 1.134,7.183 5.196,7.51c3.031,0.091 5.018,-1.953 5.394,-5.05c0.154,-2.058 -0.695,-4.64 -3.747,-8.719c-0.151,-0.202 -0.447,-0.62 -0.447,-0.62c0,0 0.343,-0.402 0.524,-0.671c1.073,-1.449 3.872,-4.991 3.872,-4.991l-4.182,-5.903c0,0 0.181,-0.397 0.505,-0.837c3.413,-4.646 4.049,-7.008 3.444,-9.317c-0.238,-0.909 -0.805,-1.609 -1.573,-2.387c-1.241,-1.257 -2.661,-1.858 -4.042,-1.825Zm-0.097,0.569c1.334,-0.019 2.71,0.514 3.825,1.679c2.565,2.678 2.338,4.944 -0.994,9.898c-0.732,1.087 -1.449,2.282 -1.449,2.282l4.206,5.798c-1.379,1.946 -2.949,3.672 -4.388,5.724c0.728,1.116 1.912,2.309 2.656,3.651c0.898,1.519 1.433,3.034 1.592,4.422c0.335,2.917 -1.565,6.024 -4.815,6.1c-3.155,0.021 -5.557,-2.602 -5.488,-5.895c0.031,-1.468 0.639,-2.825 1.379,-4.147c0.756,-1.345 2.528,-3.961 2.528,-3.961l-4.07,-5.921l4.311,-5.744c0,0 -3.135,-3.83 -4.097,-6.592c-0.782,-3.136 0.683,-4.923 0.877,-5.197c0.956,-1.342 2.415,-2.075 3.927,-2.097Zm-2.667,8.32c0.625,1.627 1.643,2.838 2.796,3.994c1.068,-1.246 2.26,-2.885 2.914,-4.449c3.15,-7.532 -9.017,-8.146 -5.71,0.455Zm2.75,3.253c-1.544,-1.792 -2.635,-3.282 -2.74,-5.645c-0.17,-4.683 5.964,-4.157 5.659,0.029c-0.342,2.279 -1.541,3.721 -2.919,5.616Zm76.015,-7.36c0.118,0.659 0.762,1.775 0.707,2.039c-0.298,0.691 -0.734,1.035 -1.34,2.174c-0.127,0.242 -0.068,0.292 -0.407,0.232c-0.32,-0.045 -0.881,-0.22 -1.181,-0.306c-0.171,-0.049 -0.368,-0.143 -0.287,-0.36c0.581,-1.335 1.233,-2.927 2.508,-3.779Zm-10.167,2.015l-0.721,1.868c-0.069,0.201 -0.076,0.234 -0.288,0.189c-0.411,-0.051 -0.771,-0.083 -1.181,-0.053c-0.895,-0.11 0.79,-3.447 1.044,-3.952c0.366,0.061 0.907,1.487 1.146,1.948Zm0.68,0.431c0.015,-0.002 0.031,-0.002 0.046,0c0.368,0.047 0.914,0.245 1.321,0.422c0.224,0.092 0.231,0.098 0.132,0.376c-0.207,0.411 -0.461,1.596 -0.734,2.011c-0.008,0.06 -1.275,-0.752 -1.636,-0.908c-0.014,-0.225 0.401,-1.838 0.871,-1.901Zm10.746,0.22c0.419,0.015 0.936,0.395 1.219,0.613c0.133,0.262 0.012,0.526 -0.454,1.329c-0.413,0.71 -0.843,1.477 -0.948,1.395c-0.313,-0.245 -0.893,-0.562 -1.18,-0.957c-0.214,-0.294 0.193,-1.046 0.469,-1.457c0.437,-0.649 0.647,-0.884 0.894,-0.923Zm-6.835,-0.094c0.387,0.086 -0.227,2.078 -0.342,2.327c-0.367,0.547 -0.937,1.267 -1.391,1.558c-0.231,0.148 -0.944,-0.277 -0.928,-0.775c0.012,-0.354 0.69,-2.139 0.916,-2.613c0.033,-0.069 1.31,-0.49 1.745,-0.497Zm-15.811,0.761c0.087,-0.003 0.174,-0.001 0.261,0.004c1.522,-0.044 3.088,0.705 4.074,2.379c0.466,0.792 0.472,0.826 0.365,1.566c-0.252,1.739 -0.165,2.907 0.295,3.972c0.523,1.214 0.444,1.63 -0.835,4.329c-1.284,2.718 -2.843,6.028 -4.027,9.096c-0.526,1.315 -1.008,2.804 -1.309,4.023c-0.198,0.766 -1.136,0.536 -2.07,0.5c-0.475,0.103 0.685,-3.086 2.404,-6.899c1.376,-3.051 3.247,-6.489 3.994,-9.904c0.608,-2.784 0.413,-3.928 0.08,-5.097c-1.289,-3.402 -5.771,-2.569 -5.76,0.565c0.096,2.03 2.45,3.118 3.313,1.128c0.144,-0.915 -0.309,-0.382 -0.687,0.062c-0.812,0.952 -2.204,-0.106 -1.985,-1.511c0.288,-1.846 2.675,-2.452 3.829,-0.992c1.265,1.598 0.987,3.247 -0.839,4.483c-1.88,1.379 -3.593,0.595 -4.532,-0.837c-2.005,-3.215 0.737,-6.784 3.429,-6.867l0,0Zm9.302,1.349c1.867,0.038 3.893,1.599 4.221,2.836c0.176,0.838 -0.094,1.826 0.206,2.636c0.25,0.649 0.49,1.023 0.311,1.6c-1.537,4.934 -5.164,10.196 -6.956,16.037c-0.207,0.407 -0.396,0.458 -0.858,0.589c-0.716,0.204 -0.996,0.183 -1.072,-0.19c-0.072,-0.355 0.168,-1.03 0.586,-2.294c0.502,-1.515 1.61,-4.109 2.261,-5.329c1.515,-2.841 2.359,-4.784 3.46,-7.212c0.206,-0.453 0.264,-0.723 0.586,-1.376c1.387,-2.806 -0.179,-5.573 -3.052,-5.588c-2.276,-0.012 -3.294,3.545 -1.301,4.584c1.949,1.017 3.403,-1.654 1.67,-2.6c-0.418,-0.228 -0.526,-0.01 -0.19,0.391c0.771,0.926 0.079,2.17 -0.995,1.675c-1.662,-0.767 -0.806,-3.593 1.134,-3.43c2.995,0.252 3.385,4.599 0.33,5.701c-4.199,1.514 -6.402,-5.233 -2.45,-7.503c0.655,-0.377 1.385,-0.54 2.109,-0.527Zm8.846,0.135c1.106,-0.027 2.266,0.365 3.22,1.279c2.349,2.251 1.723,5.724 -2.245,12.441c-1.299,2.251 -2.567,4.954 -3.258,6.929c-0.172,0.492 -0.316,0.742 -0.707,0.957c-0.688,0.379 -1.468,0.426 -1.569,0.159c-0.258,-0.683 1.708,-4.926 5.208,-11.592c0.92,-1.776 2.082,-3.838 2.023,-5.952c-0.23,-1.679 -1.629,-2.886 -3.503,-2.337c-1.26,0.369 -1.775,2.144 -0.846,3.038c0.388,0.374 0.865,0.57 1.173,0.539c0.58,0.019 1.24,-0.554 0.116,-0.616c-1.189,-0.007 -1.594,-1.498 -0.59,-2.171c1.443,-0.967 3.099,0.173 2.982,2.054c-0.241,3.783 -5.776,3.219 -5.922,-0.678c-0.091,-2.411 1.808,-3.997 3.918,-4.05Zm-15.639,6.058c0.837,-0.064 -0.603,4.433 -3.118,9.479c-1.373,2.795 -2.412,5.797 -3.48,8.72c-0.289,0.391 -2.023,0.462 -2.019,0.058c3.075,-9.834 5.248,-11.527 6.299,-15.273c0.183,-0.647 0.317,-1.582 0.342,-1.663c0.777,-0.223 1.432,-1.152 1.976,-1.321Zm-56.933,0.662l-3.258,4.24l3.18,4.503l3.305,-4.305l-3.227,-4.438Zm70.557,1.31c-0.003,0.508 -0.979,2.953 -1.709,4.422c-3.192,6.428 -3.985,8.161 -4.536,9.875c-0.099,0.309 -0.261,0.514 -0.462,0.589c-0.397,0.148 -1.504,0.36 -1.596,0.209c0.675,-3.757 5.841,-12.303 6.843,-16.048c0.402,-0.018 1.426,0.591 1.46,0.953Zm2.555,-0.391c0.216,-0.016 0.303,0.073 0.241,0.36c-0.1,0.466 -0.657,1.563 -1.627,3.465c-2.689,5.273 -4.099,8.397 -4.548,10.003c-0.105,0.376 -0.17,0.671 -0.35,0.767c-0.369,0.196 -1.662,0.716 -1.724,0.155c0.404,-2.383 1.978,-3.935 6.047,-13.874c0.19,-0.327 0.357,-0.486 0.536,-0.516c0.5,-0.082 0.934,-0.319 1.425,-0.36Zm-11.029,1.632c-0.103,0.614 -0.808,1.9 -1.973,4.274c-1.938,3.951 -3.193,6.895 -3.953,9.507c-0.124,0.424 -0.293,0.87 -0.459,0.984c-0.315,0.218 -1.728,0.151 -1.728,0.151c-0.214,-1.08 1.491,-5.108 3.39,-9.344c1.034,-2.303 2.231,-4.599 3.035,-6.666c0.551,0.082 1.612,0.61 1.688,1.094Zm2.876,-1.017c0.575,-0.006 0.129,0.958 -1.249,3.675c-1.117,2.204 -2.899,5.296 -4.05,8.848c-0.301,0.782 -0.654,1.754 -0.785,2.162c-0.169,0.527 -0.326,0.787 -0.544,0.895c-0.415,0.207 -1.419,0.196 -1.596,-0.019c-0.28,-0.341 1.207,-4.339 2.657,-7.41c1.279,-2.58 2.18,-4.652 3.285,-7.038c0.303,-0.474 0.316,-0.506 0.623,-0.568c0.639,-0.05 1.3,-0.477 1.659,-0.545Zm-64.905,0.513l1.678,2.24l-1.969,2.445l-1.639,-2.379l1.93,-2.306Zm-0.252,9.661c0,0 -0.713,0.819 -1.445,2.116c-2.143,3.562 -2.202,6.19 0.326,7.751c1.067,0.542 2.458,0.424 3.336,-0.341c2.864,-2.493 0.735,-5.917 -1.114,-8.239c-0.491,-0.682 -1.103,-1.287 -1.103,-1.287Zm0.105,0.911c1.073,1.264 1.859,2.213 2.575,3.802c0.822,2.134 0.295,3.812 -1.298,4.6c-2.516,1.246 -4.806,-1.552 -3.611,-4.538c0.885,-2.213 2.334,-3.864 2.334,-3.864Zm70.475,4.216c0.236,0.449 -23.954,6.033 -41.799,1.241l-10.858,15.68l62.688,-0.109l-10.031,-16.812Zm-0.916,1.113c0,0 5.827,10.065 8.687,14.994l-4.019,0l-5.729,-12.239c-3.064,0.853 -6.085,1.469 -9.149,1.857l2.039,10.382l-3.01,0l-1.701,-9.921c-4.391,0.338 -8.863,0.466 -13.43,0.337l-1.969,9.584l-3.149,0l2.019,-9.518c-3.466,-0.467 -6.917,-0.907 -10.439,-1.485l-5.907,11.003l-4.446,0l9.27,-13.808c13.839,2.771 26.601,2.119 40.933,-1.186Zm-2.191,5.402l4.544,9.592l-8.606,0l-1.584,-8.557l5.646,-1.035Zm-36.843,0.698l7.522,0.972l-1.942,7.922l-10.159,0l4.579,-8.894Zm24.56,1.182l1.033,7.712l-12.964,0l1.441,-7.561l10.49,-0.151Z" style="fill-rule:nonzero;"/></g></g><path id="path153-6-3-1-9-5-1-4" d="M47.722,26.128c-7.357,10.505 -15.228,16.55 -15.359,24.745c-0.044,2.654 1.389,7.165 5.878,8.028c2.912,0.557 6.921,-1.802 7.005,-6.597c-0.013,-0.954 1.009,-0.93 1,0.378c-0.138,3.782 -1.333,8.185 -3.343,11.769l9.638,0c-2.01,-3.584 -3.205,-7.987 -3.343,-11.769c-0.009,-1.308 1.013,-1.332 1,-0.378c0.084,4.795 4.093,7.154 7.005,6.597c4.489,-0.863 5.922,-5.374 5.878,-8.028c-0.131,-8.195 -8.002,-14.24 -15.359,-24.745Z" style="fill-rule:nonzero;"/><path id="path153-6-3-1-8-6-9-9-4" d="M130.278,222.872c-7.357,-10.505 -15.228,-16.55 -15.359,-24.745c-0.044,-2.654 1.389,-7.165 5.878,-8.028c2.912,-0.558 6.921,1.802 7.005,6.597c-0.013,0.954 1.009,0.93 1,-0.378c-0.138,-3.782 -1.333,-8.185 -3.343,-11.769l9.638,0c-2.01,3.584 -3.205,7.987 -3.343,11.769c-0.009,1.308 1.013,1.332 1,0.378c0.084,-4.795 4.093,-7.155 7.005,-6.597c4.489,0.863 5.922,5.374 5.878,8.028c-0.131,8.195 -8.002,14.24 -15.359,24.745Z" style="fill-rule:nonzero;"/></g></g></svg>