<?xml version="1.0" encoding="UTF-8" standalone="no"?><!DOCTYPE svg PUBLIC "-//W3C//DTD SVG 1.1//EN" "http://www.w3.org/Graphics/SVG/1.1/DTD/svg11.dtd"><svg width="100%" height="100%" viewBox="0 0 178 249" version="1.1" xmlns="http://www.w3.org/2000/svg" xmlns:xlink="http://www.w3.org/1999/xlink" xml:space="preserve" xmlns:serif="http://www.serif.com/" style="fill-rule:evenodd;clip-rule:evenodd;stroke-linejoin:round;stroke-miterlimit:2;"><rect id="jack-clubs" x="0" y="0" width="178" height="249" style="fill:none;"/><clipPath id="_clip1"><rect x="0" y="0" width="178" height="249"/></clipPath><g clip-path="url(#_clip1)"><rect x="-1778.21" y="0" width="2312.21" height="1245" style="fill:#fff;"/><g id="jack_clubs"><g id="g5275-8-4-5"><g id="JC"><g id="g3799-8-1-3"><path id="path3306-4-9-5" d="M128.86,23.927c0.68,-0.977 3.628,5.843 5.521,11.013c0.93,2.54 2.173,4.634 1.66,5.302c-1.348,1.37 -4.839,0.144 -7.377,-1.814c-2.713,-2.092 -4.627,-5.169 -4.627,-5.169l4.823,-9.332Zm23.791,5.056l0.108,4.012c-2.337,2.113 -5.238,4.705 -8.634,8.649l9.066,0.05c-0.08,49.292 0.073,148.083 0.073,148.083c0,0 -10.078,-10.251 -9.833,-10.289c0.012,-0.001 -0.287,-59.686 -0.325,-99.837c-0.079,-0.189 5.27,-0.199 5.609,-2.826c0.225,-1.736 -5.609,-1.496 -5.701,-1.612c0.012,-18.047 -0.053,-30.787 -0.053,-30.787l-5.359,-0.177l15.049,-15.266Zm-31.483,18.581c0.779,1.558 2.019,7.547 2.968,7.404c4.357,-1.451 5.761,5.007 1.252,5.34c-1.707,0.126 -3.614,-2.109 -4.683,-4.889c-0.514,-1.457 0.015,-8.438 0.463,-7.855Zm-0.983,8.982c1.286,2.108 2.516,9.809 4.858,9.373c2.138,-0.489 3.506,1.392 3.298,3.04c-1.097,4.628 -8.931,0.231 -10.987,-0.835c1.019,-2.324 2.458,-8.119 2.831,-11.578Zm16.533,21.714c-1.793,4.072 -1.311,7.418 0.21,11.515c-4.652,2 -9.238,4.395 -13.823,6.796c-0.028,-0.011 -0.228,-16.058 1.291,-23.385c0.522,-1.115 2.407,-0.225 3.495,0.319c2.945,1.395 6.108,2.965 8.827,4.755Zm-82.567,73.724c0.949,7.584 0.259,19.385 -1.087,24.054c-0.517,1.581 -11.298,-5.546 -12.078,-6.033c2.124,-3.951 -0.779,-13.131 -0.463,-11.487c0.748,-0.525 13.38,-7.3 13.628,-6.534Zm4.632,31.475c-0.202,0.486 -1.008,6.163 -1.257,6.185c-0.819,0.071 -2.018,-5.56 -4.104,-7.418c-3.938,0.457 -4.4,-2.223 -3.63,-3.518c-0.19,-0.568 1.272,-1.804 2.637,-1.686c3.396,1.332 7.975,2.51 6.354,6.437Zm45.183,9.692c0,0 -2.959,16.69 -2.973,16.669c-7.315,1.061 -14.366,2.277 -20.887,1.535c1.287,-17.348 3.312,-32.351 8.87,-34.954l-11.515,-9.298c0,0 -12.786,8.003 -12.056,7.883c0.315,-0.085 0.565,-6.807 0.752,-17.677c-0.325,-28.369 -16.592,-57.09 -17.224,-56.801c-0.344,-0.231 13.858,-1.345 24.068,3.069l0.459,-37.567c0,0 -5.06,-2.535 -5.997,-3.708c-1.869,-6.535 3.169,-8.206 6.189,-6.571c1.412,-4.967 3.559,-17.247 3.637,-17.242c6.819,-1.132 13.871,-2.01 20.844,-1.611c-1.17,5.778 -1.91,10.175 -2.287,15.986c-0.88,8.666 -2.649,16.875 -7.191,18.826c0.808,-0.322 11.359,8.929 11.359,8.929l12.816,-7.915c-4.142,27.035 2.937,53.291 15.154,74.531c-6.156,0.713 -13.127,0.374 -24.005,-2.891c0,0 0.611,37.639 0.615,37.43c12.035,4.761 5.467,14.03 -0.628,11.377Zm-46.803,3.369c-0.045,0.383 -0.22,4.634 -0.22,4.634c-1.703,-2.006 -3.076,-7.89 -3.415,-7.79c0,0 -2.186,0.345 -2.867,-0.383c-2.218,-2.373 -0.037,-5.174 2.18,-4.65c2.205,0.569 4.63,4.36 4.322,8.189Zm-22.621,-127.613c0,0 0.472,66.751 0.46,100.208c-8.413,-0.132 -6.761,4.56 0.112,4.066l0.023,30.848l4.557,0.159c0,0 -8.578,8.992 -14.016,14.733l-0.125,-2.92l8.277,-8.965l-8.57,0.015l-0.03,-148.016l9.312,9.872Zm14.311,155.038c-2.076,0.454 -4.24,-9.159 -7.84,-14.993c4.091,-2.462 10.544,2.221 11.995,5.979c-0.945,3.184 -4.214,8.98 -4.155,9.014Z" style="fill:#e2cf00;fill-rule:nonzero;"/><path id="path3304-4-6-6" d="M154.386,229.889l0,-210.778l-130.772,0l0,210.778l130.772,0Zm-43.34,-44.39c-0.177,-0.339 -0.467,-0.829 -0.467,-0.829c0,0 0.316,-0.082 0.536,-0.226c15.155,-5.637 31.368,-18.194 31.651,-18.563l0,13.9l10.03,10.618l0,37.666l-39.43,0l-11.558,-19.431c0.694,-5.09 2.494,-14.944 2.494,-14.944c1.061,0.258 4.64,0.596 6.574,-2.191c0.922,-1.33 1.414,-3.142 0.17,-6Zm-73.885,-43.349l-1.498,1.906l2.64,-0.121l-1.813,1.976l2.92,0.068l-2.276,1.944l3.072,0.035l-2.284,1.912l3.364,-0.152l-2.409,2.08l3.325,-0.015l-2.48,2.093l3.253,0.045l-2.114,1.879l2.84,0.034l-3.21,2.266c-1.371,-0.602 -3.21,-0.944 -5.06,-0.984l-0.039,-15.255l1.769,0.289Zm-2.302,26.454c-7.505,-0.026 -9.109,4.005 -0.04,4.646c-0.17,10.144 0.409,30.432 0.409,30.432l4.941,0.127c0,0 -13.245,14.374 -14.493,15.543c-1.131,-48.317 -1.081,-160.499 -1.081,-160.499l10.12,10.18l0.112,31.72c3.387,3.45 5.328,8.483 7.344,11.742l5.534,2.703l-1.301,4.471l0.557,1.271l1.727,-6.325l-6.054,-2.893l-0.641,-1.308l1.02,-5.96l-5.73,-1.976l-0.993,-1.371l0.359,-5.82l-1.203,-0.365l0,-1.153l1.196,0.101l0.424,-6.534l-1.62,-0.478l0,-1.475c0.001,0.026 0.949,-0.006 1.412,0.035c0.639,0.347 1.691,1.724 1.691,1.724l-0.571,7.256l7.262,1.464l0.541,0.769l-1.336,7.252l7.626,2.346c-0.783,-1.936 -1.82,-3.748 -2.684,-5.653c1.047,-0.305 2.141,-0.374 3.201,-0.602c0.286,-9.799 -0.044,-19.994 0.259,-29.209c6.137,-0.445 3.258,0.142 5.927,0.101c1.044,0 1.892,-0.852 1.892,-1.903c0,-0.671 -0.346,-1.26 -0.869,-1.599l1.058,-0.381l1.849,2.105l-3.865,3.727l0.023,1.072l4.8,-4.827l-2.078,-2.411l1.236,-0.644l1.896,2.007c0,0 4.08,-4.198 3.826,-4.275c-0.126,-0.038 -0.353,-0.25 -0.506,-0.465c-2.905,-6.307 1.059,-9.319 5.851,-7.574c1.218,-5.804 2.38,-11.041 3.338,-17.053c3.581,-1.359 20.421,-2.145 20.607,-1.833c0,0 0.426,0.41 0.445,0.613c-0.076,0.269 0.482,-0.559 0.482,-0.559c0,-0.358 14.68,0.367 21.92,1.755c0,0 0.148,0.698 0.089,1.619c-0.119,1.847 0.023,1.829 -1.649,1.561c-3.414,-0.23 -6.063,0.948 -7.116,3.968c-0.59,1.692 -0.314,3.216 0.587,7.742c0.874,4.395 0.884,3.921 0.78,4.515c-0.122,0.698 -0.87,1.476 -1.946,2.353c-0.811,0.661 -0.892,1.91 -0.239,1.219c0.449,-0.658 1.238,-0.893 1.946,-1.262c1.661,-0.874 1.606,-1.717 0.625,-5.327c-0.46,-1.693 -0.942,-3.518 -0.958,-3.731c-0.049,-0.663 0.189,-0.392 1.178,0.291c0.634,0.466 1.365,0.851 2.016,1.235c1.988,1.066 1.107,-0.101 -0.807,-1.382c-1.505,-1.122 -1.754,-1.605 -0.456,-1.068c1.338,0.55 3.259,0.312 4.761,-0.256c0.295,-0.166 0.512,-0.147 0.56,0.124c0.067,0.423 -0.19,1.485 -0.301,3.937c-0.282,6.202 -1.734,12.813 -5.838,16.633c-5.873,5.469 -15.526,1.758 -20.881,-3.308l-0.58,0.885c3.596,3.034 9.827,6.82 15.897,6.084c-2.538,2.128 -8.136,5.653 -8.136,5.653c-3.839,-2.799 -6.67,-5.592 -10.884,-8.623l-0.734,0.489l11.591,9.241l12.487,-8.278c0,0 -0.519,7.941 -0.714,10.844l5.417,-4.814l-4.178,-6.22l4.429,-4.581c0,0 -0.748,0.105 0.069,-1.309c1.247,-2.542 2,-6.638 2.576,-10.797c-0.112,-3.107 0.649,-6.544 0.884,-9.281c0.41,2.564 0.894,3.91 1.838,6.237c0.866,2.241 1.205,2.224 2.182,1.897c5.298,-0.447 2.901,9.829 -3.36,3.107c-0.275,-0.285 -0.728,-0.634 -0.749,-0.567c-0.13,0.413 1.662,5.825 2.355,7.073c0.733,1.318 0.739,1.504 1.827,1.392c2.036,-0.211 2.725,0.517 2.931,2.673c-0.27,4.074 -4.656,2.353 -7.464,1.1c-0.254,-0.195 1.318,1.439 1.88,2.016c0.765,0.782 0.888,1.285 0.888,1.285l-0.166,2.162l-4.297,3.945l3.533,5.245l-0.147,1.876l-3.776,4.554l4.023,4.391l0.05,1.565l-3.27,4.376l4.382,3.533l0.213,1.409c0,0 -2.814,5.234 -2.738,5.424c0.064,0.16 4.749,3.413 4.749,3.413l0.471,2.201l-2.034,5.587l4.868,2.796l0.892,2.524l-1.37,5.175l5.05,2.345l1.44,2.916l-0.938,5.44l5.66,1.685l1.502,2.391l-0.197,4.784l1.387,0.143l-0.02,1.181l-1.544,-0.012c0,0 0.12,0.176 -0.05,2.539c-0.29,4.018 -0.317,3.864 0.637,4.03c2.009,0.352 1.549,1.593 -0.506,1.363c-0.315,-0.035 -0.582,-0.062 -0.807,-0.105c-0.541,-0.102 -0.958,-0.807 -0.958,-0.807l0.452,-7.42l-7.239,-1.215l-0.688,-0.932l1.213,-6.876l-6.796,-1.976l-0.915,-1.666l1.927,-7.152l-6.85,-3.028l-0.452,-1.328l2.908,-6.348l-6.294,-3.075l-0.394,-1.522l3.495,-6.546l-7.256,-5.308c0,0 0.195,0.52 0.483,1.386l5.753,4.132l-2.915,5.587c0,0 -0.232,-0.409 -0.479,-0.323c0.147,0.933 0.262,1.87 0.328,2.788l2.97,7.781l-9.606,6.495c4.115,2.492 9.309,2.409 14.077,3.343c0,0 0.209,0.667 0.567,1.266c1.388,2.237 2.636,5.082 4.183,8.017c-1.14,0.54 -1.634,0.471 -2.858,0.711c-1.695,9.567 -3.372,20.574 -6.074,28.902c-1.178,0 -2.131,0.963 -2.131,2.147c0,0.648 0.287,1.226 0.737,1.619c-0.264,0.076 -0.543,0.151 -0.838,0.222c-0.389,0.005 -1.965,-1.744 -1.965,-1.744l4.05,-4.014l0.024,-1.328c-1.616,1.691 -5.167,5.342 -5.167,5.342l2.14,2.26l-1.058,0.497l-1.734,-1.918l-3.888,4.018l-0.996,-0.683c1.31,-1.73 2.162,-2.293 4.123,-4.337c-1.024,-1.218 -4.992,-5.063 -4.992,-5.063l0.011,1.328l3.912,3.813l-3.803,3.816l-0.221,0.253c0,0 -3.019,-1.312 -3.211,-1.31c1.284,1.062 3.589,1.972 4.841,2.89c5.674,3.364 0.284,10.325 -4.949,8.597c-0.149,-0.561 -2.886,14.683 -2.578,15.524c-0.277,2.36 -0.338,2.027 0.476,3.379c2.437,5.646 9.545,16.331 9.545,16.331l-63.967,0.411c0.666,-1.306 1.337,-2.366 1.843,-3.891c0,0 -3.595,-3.765 -4.91,-8.716c-0.733,-2.762 -1.788,-5.347 -3.636,-7.186c-0.029,-0.066 0.065,-0.148 0.178,-0.225c5.057,-1.793 10.822,2.546 12.592,7.496l2.903,-4.757c-1.311,-0.149 19.317,2.354 24.378,1.722c-0.448,-0.089 -0.978,-0.463 -0.679,-1.891c0.515,-2.461 1.432,-11.357 1.432,-11.357c1.018,-8.655 1.802,-19.531 7.482,-23.127c0,0 -0.87,-0.932 -1.62,-1.407c-0.019,0.012 0.669,0.71 0.691,0.792c-0.004,0.252 -0.146,0.411 -0.313,0.544c-1.203,0.981 -2.671,3.014 -2.618,3.067c-4.688,-4.093 -12.023,-7.617 -16.444,-6.154c-1.745,0.368 -2.519,2.059 -3.445,0.687c1.202,-7.445 1.12,-15.635 0.653,-22.068c-0.723,-14.339 -3.872,-22.555 -6.992,-32.713c1.605,-0.57 9.838,-6.12 9.838,-6.12c0.05,-0.706 -9.932,-3.01 -13.848,-2.601c0,0 -0.806,-0.79 -0.809,-0.623c0.022,0.043 0.051,0.101 0.077,0.156c-0.581,0.325 -0.973,0.949 -0.973,1.665c0,1.051 0.843,1.903 1.888,1.903c0.196,0 0.386,-0.03 0.564,-0.086c0.492,1.213 0.911,2.275 0.911,2.275l-5.545,-2.426l1.807,-6.1l-0.606,-1.355l-2.204,7.944l7.077,3.048l0.479,1.409l-2.935,6.026l6.329,3.77l0.266,1.2l-3.405,6.468l6.127,4.733l-4.483,5.824l5.518,4.659l-0.062,0.773l-4.571,5.292l4.726,4.884l0.131,1.976l-5.151,4.605l4.448,6.496c-1.854,1.252 -2.889,2.68 -4.104,4.104l-1.085,-0.478l3.95,-3.009l-4.22,-6.131l-4.452,4.042l2.413,3.956l-1.471,-0.671l-1.348,-2.12l0.22,-2.167l4.398,-4.026l-3.78,-5.505l-0.031,-1.01c0,0 2.351,-2.717 4.062,-4.737l-4.791,-5.315l3.919,-5.028l-4.931,-4.22l0.139,1.265l3.637,3.087l-2.791,3.401c-0.201,2.05 0.242,5.568 -0.799,7.112c1.682,1.656 0.803,5.646 -0.024,6.939c1.608,1.914 0.689,6.115 -0.337,6.293c1.228,1.547 0.739,4.683 -0.287,5.703c-0.328,0.176 4.382,1.884 7.354,3.936c-2.473,4.627 -1.896,8.979 -2.676,10.548c-1.07,-3.104 -2.439,-6.406 -3.621,-8.783c-0.125,-0.246 -0.388,-0.191 -0.78,-0.198c-4.914,-0.439 -4.446,-4.512 -0.761,-5.555c0,0 -7.493,-5.611 -11.29,-6.232c-0.04,-0.1 -0.011,-0.232 0.116,-0.497c0.539,-1.121 0.85,-3.059 0.93,-4.764c0.274,-2.537 -0.946,-6.43 -0.946,-6.43l1.556,-0.967c0.31,-1.339 2.049,-1.367 2.217,-2.321c-0.368,-4.1 -8.329,-19.798 -10.009,-21.572c-0.637,11.202 0.579,23.361 -0.029,34.541Zm1.816,-28.566l-1.29,1.066l0.031,-1.695l1.259,0.629Zm-1.259,-2.596l0.65,0.487l-0.655,0.731l0.005,-1.218Zm80.058,-19.993c-0.121,-0.771 -0.264,-1.537 -0.421,-2.287c0.916,-0.241 1.591,-1.077 1.591,-2.073c0,-1.184 -0.957,-2.147 -2.135,-2.147c-0.168,0 -0.33,0.025 -0.487,0.062c-0.335,-1.182 -0.657,-2.201 -0.907,-2.951l-0.432,-0.31c1.167,4.083 -1.095,6.279 2.247,9.671c0.049,0.17 0.294,0.122 0.544,0.035Zm-68.98,110.753l-20.818,-0.137l0,-7.726l16.043,-17.151l-6.186,-0.077l0.066,-29.418c1.696,-0.709 3.313,-1.808 4.877,-2.87l9.757,5.428l0.703,0.361c0,0 -0.27,0.077 -0.842,0.455c-1.104,0.727 -1.525,2.515 -1.023,3.859c0.819,2.197 2.512,1.8 3.923,1.805c1.171,0.91 2.173,3.953 2.996,5.983c0.38,0.882 0.743,1.558 0.838,2.07c0.087,0.473 0.084,0.886 0.084,0.886c0,0 -0.19,-0.059 -0.467,-0.63c-1.554,-3.292 -5.186,-4.883 -7.116,-1.77c-0.977,1.909 -0.302,4.089 1.34,4.698c0.503,0.187 2.213,-0.012 2.213,-0.012c0.1,-0.06 1.239,1.616 2.849,7.124c0.661,2.276 0.834,7.211 0.205,7.921c-1.067,1.301 -1.341,3.129 -2.244,4.442c-0.409,0.824 -0.388,0.31 -1.031,-0.61c-2.191,-3.135 -6.042,-5.566 -9.567,-5.412c-2.503,0.109 -3.276,0.967 -2.684,1.693c1.374,1.41 2.272,3.39 2.722,5.125c1.049,4.036 2.161,7.636 4.981,10.774l-1.619,3.189Zm10.569,-19.166c-0.263,-0.25 -0.055,-0.635 -0.008,-1.332c0.121,-1.769 0.16,-1.789 1.17,-1.343c1.94,0.855 4.683,0.107 6.337,-1.697c2.085,-2.275 2.151,-4.617 0.849,-9.24c-1.487,-5.201 -1.452,-5.887 0.332,-6.95c1.073,-0.919 2.172,-2.844 1.761,-2.838c-0.057,0 -0.206,0.116 -0.329,0.256c-0.122,0.14 -1.102,0.933 -1.857,1.452c-2.071,1.425 -2.72,2.152 -1.768,4.783c0.939,2.597 1.696,5.135 1.305,5.292c-0.187,0.075 -0.902,-0.77 -1.344,-1.025c-0.905,-0.522 -2.816,-1.488 -3.05,-1.487c-0.323,0.002 0.022,0.236 0.954,0.85c2.493,1.647 3.513,3.137 1.108,2.194c-1.289,-0.505 -2.652,-0.21 -3.421,0.043c-0.896,0.295 -1.364,0.592 -1.46,0.252c-0.13,-1.601 -0.005,-3.251 0.093,-4.861c0.029,-0.103 0.15,-1.198 0.27,-2.43c0.456,-4.679 1.249,-8.62 3.294,-11.159c6.84,-8.494 14.624,-6.018 23.367,0.78c-3.261,9.086 -3.036,16.166 -3.841,19.049c-0.755,0.228 -1.64,-0.218 -2.19,-0.529c-1.218,-0.696 -2.603,-1.115 -3.934,-1.188c-1.239,-0.067 -1.455,0.11 -1.344,-0.26c0.086,-0.284 2.083,-0.874 3.305,-1.13c2.225,-0.465 2.062,-0.982 0.189,-0.812c-1.971,0.179 -3.874,0.966 -5.892,2.315c-1.397,0.934 -1.448,0.936 -1.073,2.108c0.09,0.282 0.28,0.705 -0.386,0.951c-0.691,0.256 -0.593,0.54 -0.201,0.855c0.096,0.077 0.345,0.095 0.444,0.174c0.125,0.099 -0.009,0.539 -0.008,0.598c2.545,2.164 7.032,2.217 10.72,-0.005c0.185,0.067 0.377,0.357 0.196,0.755c-0.388,0.853 -4.356,1.876 -7.174,1.922c-1.285,0.02 -1.536,-0.144 -3.471,-0.738c-0.796,-0.245 -1.241,-0.308 -1.313,-0.187c-0.165,0.277 0.122,1.101 0.734,1.542c2.066,1.489 5.074,1.371 9.181,-0.268c2.199,-0.877 1.969,-1.178 1.259,3.184c-0.197,1.21 -0.424,2.134 -0.424,2.134c0,0 -19.219,-0.687 -22.38,-2.01Zm2.958,-4.096c-1.016,-0.007 -1.945,-0.263 -2.487,-0.792c-0.791,-0.881 0.04,-1.156 1.298,-0.676c1.609,0.614 3.439,0.265 4.857,-0.621c0.91,-0.569 1.105,-0.264 0.34,0.551c-0.928,0.987 -2.524,1.547 -4.008,1.538Zm14.614,-1.518c-1.772,0.012 -3.395,-0.308 -4.062,-1.06c-0.609,-0.687 -0.022,-0.757 1.498,-0.159c2.141,0.841 4.996,0.575 7.352,-0.602c1.211,-0.605 1.582,-0.728 1.421,-0.039c-0.711,1.116 -3.619,1.842 -6.209,1.86Zm-14.174,-0.556c-1.689,-0.004 -3.123,-0.393 -2.857,-1.281c0.095,-0.316 0.178,-0.125 1.386,0.249c1.206,0.373 2.749,0.232 4.297,-0.222c1.445,-0.423 1.722,-0.519 1.074,0.109c-0.788,0.764 -2.41,1.149 -3.9,1.145Zm-3.439,-0.853c-1.71,-2.649 -2.012,-6.535 -3.831,-8.639c-3.366,0.63 -4.958,-2.553 -2.127,-4.671c1.44,-0.804 3.195,-0.199 4.486,1.926c1.23,2.023 1.569,3.249 1.609,4.533c-0.112,2.697 0.039,4.141 -0.137,6.851Zm19.702,-1.216l-0.745,-0.089c-0.541,-1.844 -1.753,-1.956 -2.479,-0.024l-0.564,-0.093c0.857,-2.368 3.005,-2.466 3.788,0.206Zm1.154,-0.035c-0.31,0.018 -0.569,-0.311 -0.706,-0.745c-0.29,-0.982 0.04,-0.858 0.714,-0.443c0.683,0.417 1.208,0.694 0.815,0.862c-0.294,0.158 -0.526,0.265 -0.823,0.326Zm-6.401,-0.629c-0.258,-0.321 -0.316,-0.567 0.015,-0.8c0.325,-0.171 0.563,-0.278 0.877,-0.392c0.3,-0.091 0.484,-0.019 0.359,0.416c-0.079,0.372 -0.312,0.905 -0.487,1.114c-0.292,0.053 -0.604,-0.155 -0.764,-0.338Zm-9.039,0.225l-0.591,-0.042c-0.619,-1.687 -2.067,-1.638 -2.625,-0.175l-0.529,0.004c0.997,-2.611 3.025,-2.14 3.745,0.213Zm1.065,-0.221c-0.566,0.001 -1.117,-0.819 -0.806,-1.239c0.313,-0.263 1.71,0.037 1.834,0.556c0.048,0.313 -0.461,0.682 -1.028,0.683Zm-5.467,-0.159c-0.274,-0.066 -0.255,-0.273 -0.262,-0.307c-0.145,-0.69 0.676,-0.931 0.861,-0.668c0.101,0.146 -0.331,0.698 -0.599,0.975Zm13.01,-7.385c1.383,-0.389 2.026,-1.59 1.939,-2.931c-0.07,-1.085 -0.631,-1.968 -1.45,-2.155c-1.651,-0.376 -2.793,0.782 -4.479,1.25c-0.729,0.191 -0.558,1.136 -0.092,1.547c0.599,0.527 1.519,0.198 2.752,-0.751c2.42,-1.862 3.002,1.719 0.796,2.352c-0.342,0.098 -0.185,0.89 0.534,0.688Zm71.553,-82.479l-0.941,-0.272l0.94,-1.12c0,0 -0.004,0.967 0.002,1.392l-0.001,0Zm-2.62,-3.831l1.938,-2.193l-2.633,0.2l1.786,-1.866l-2.741,-0.111l2.015,-2.095l-2.694,0.055l1.992,-2.022l-2.542,-0.073l1.68,-1.851l-2.797,0.216l2.041,-2.214l-2.995,0.054l2.27,-2.065l-2.988,0.021l0.898,-1.027l-0.796,-0.402c-0.813,0.38 -5.498,1.845 -5.653,2.949c1.034,0.279 4.081,-1.28 4.282,-1.021c1.223,5.418 6.491,17.401 9.966,20.896l0.243,-33.864c0.532,-0.496 1.38,-0.25 1.921,-0.47c1.763,0.092 4.707,-2.868 3.168,-3.456c-0.804,-0.178 -5.258,-0.945 -5.27,-1.168c-0.546,-9.816 0.336,-19.683 -0.07,-30.16c-1.245,-0.186 -5.317,-0.42 -5.317,-0.42c0,0 14.932,-15.667 15.225,-15.351c-0.349,16.791 -0.166,49.618 0.127,49.739c-0.002,0.985 -0.345,3.06 -0.345,3.06l0.322,104.43c0,0 0.087,0.467 0.267,0.765c0.306,0.509 0.329,0.64 0.351,2.205c0.119,0.968 -0.019,1.22 -0.019,1.22l0,0l-10.216,-10.849l-0.013,-30.357c0,0 -9.666,-14.353 -11.892,-20.982c-4.879,-9.87 -4.351,-24.254 -7.309,-29.76c-0.062,0 -0.121,0.002 -0.181,0.008c-0.072,-0.803 -0.081,-1.125 -0.197,-1.251c-0.222,-1.795 -0.464,-4.247 -0.464,-4.247l1.07,-1.708l-1.193,-1.538l-0.008,-4.1l1.591,-1.627l-1.456,-1.856l0.406,-3.828l1.135,-1.017l-0.645,-0.874c0,0 -0.107,-1.379 0.151,-2.958c0.175,-1.073 1.226,-0.928 3.413,0.19c3.098,1.181 6.27,3.294 8.718,4.888c-0.146,1.993 -2.601,6.538 0.815,11.551c1.263,0.951 4.93,0.602 5.251,0.745l-0.029,15.439m0.005,1.783l-1.653,0.29l1.669,-1.68l-0.016,1.39Zm-78.724,77.067c0.135,-0.015 0.304,-0.142 0.522,-0.388c0.229,-0.259 0.595,-0.189 1.525,-0.132c0.995,0.061 1.248,0.033 1.903,-0.206c0.748,-0.272 0.764,-0.272 1.282,-0.05c0.811,0.346 1.318,0.387 2.062,0.174c0.914,-0.26 1.491,-0.189 2.054,0.09c0.571,0.282 0.751,0.225 0.95,-0.295c0.083,-0.219 0.488,-1.067 0.676,-1.355c0.609,-0.938 0.462,-1.094 -0.815,-0.699c-0.877,0.271 -2.495,0.443 -3.699,-0.058c-0.915,-0.382 -2.006,-0.26 -3.309,0.31c-1.143,0.5 -2.271,0.659 -3.367,-0.268c-0.638,-0.539 -0.604,-0.131 -0.44,0.986c0.183,1.249 0.311,1.931 0.656,1.891Zm43.349,-3.941c1.178,0 2.135,-0.958 2.135,-2.143c0,-1.184 -0.957,-2.147 -2.135,-2.147c-0.558,0.467 -0.847,4.204 0,4.29Zm-41.205,-0.017c1.298,-0.443 3.082,-1.037 5.092,-0.445c1.579,0.485 1.202,-0.708 -0.513,-0.858c-1.192,-0.103 -1.112,-0.103 -0.182,-0.978c0.784,-0.737 -0.198,-0.684 -0.733,-0.225c-0.632,0.541 -2.349,0.4 -3.317,-0.043c-0.425,-0.194 -0.472,0.614 0.035,0.792c1.274,0.448 0.969,0.482 -0.422,0.937c-0.515,0.117 -0.535,1.017 0.04,0.82Zm41.205,-0.701c-0.674,-0.255 -0.253,-2.742 0,-2.854c0.784,0 1.421,0.641 1.421,1.429c0,0.788 -0.637,1.425 -1.421,1.425Zm11.383,-0.089c-0.545,0.187 -0.927,-0.723 -0.927,-1.336c0,-0.788 0.634,-1.429 1.417,-1.429c0.958,0.941 1.133,1.988 0.024,2.579c-0.16,0.061 -0.331,0.123 -0.514,0.186Zm-5.61,-2.101l4.56,-4.635l-4.475,-4.559l-4.483,4.659l4.398,4.535Zm-54.01,-1.836c-0.653,0 -1.181,-0.535 -1.181,-1.192c0,-0.657 0.528,-1.188 1.181,-1.188c0.653,0 1.186,0.531 1.186,1.188c0,0.657 -0.532,1.192 -1.186,1.192Zm54.048,-1.557c-0.653,0 -1.181,-0.535 -1.181,-1.192c0,-0.657 0.528,-1.188 1.181,-1.188c0.653,0 1.182,0.531 1.182,1.188c0,0.657 -0.529,1.192 -1.182,1.192Zm-48.468,-1.138l-3.267,-4.422l4.004,-3.611l-0.205,2.244c-0.883,0.161 -1.552,0.941 -1.552,1.876c0,0.811 0.506,1.501 1.216,1.774l-0.196,2.139Zm54.395,-0.244l0.046,-1.204l-4.116,-4.1l4.074,-4.251l-0.035,-1.177l-5.069,5.428l5.1,5.304Zm-11.633,-0.004l5.031,-5.191l-4.854,-5.331l-0.062,1.351l3.811,3.96l-3.884,3.879l-0.042,1.332Zm-72.601,-0.831c-1.025,0.001 -1.902,-0.336 -2.17,-1.009c-0.21,-0.379 -0.323,-0.706 -0.63,-0.847c-0.597,-0.275 -1.409,-0.086 -1.447,0.117c-0.071,0.001 0.953,0.098 1.127,0.256c0.801,0.725 0.665,1.182 -0.471,1.091c-0.366,-0.017 -1.389,-0.032 -1.412,-0.435c-0.227,-1.387 1.608,-2.403 3.956,-2.217c1.675,0.278 1.683,-0.371 1.8,-1.27c0.073,-0.295 0.331,-0.772 0.54,-1.149c0.592,-1.068 0.788,-0.919 0.375,-1.332c-0.401,-0.525 -0.919,-1.177 -0.911,-1.789l0.018,-5.629c0,0 3.513,0.015 4.735,0.903c1.279,2.347 2.148,7.407 0.27,10.184c-0.657,0.833 -1.619,1.23 -2.726,2.113c-0.854,0.68 -2.03,1.011 -3.054,1.013Zm19.865,-0.633l0.128,-1.627c0.892,-0.152 1.575,-0.93 1.575,-1.871c0,-0.835 -0.538,-1.541 -1.282,-1.798l0.112,-1.413l2.606,3.762l-3.139,2.947Zm10.232,-1.099c-0.385,-0.215 -0.645,-0.627 -0.645,-1.102c0,-0.56 0.358,-1.036 0.858,-1.204l-0.213,2.306Zm54.369,-0.594c1.803,-0.942 1.183,-4.592 0,-4.29c-1.178,0 -2.132,0.963 -2.132,2.147c0,1.185 0.954,2.143 2.132,2.143Zm-11.777,-0.054c1.178,0 2.136,-0.959 2.136,-2.143c0,-1.185 -0.958,-2.147 -2.136,-2.147c-1.566,0.495 -0.679,4.22 0,4.29Zm-52.642,-0.544l0.185,-2.341c0.415,0.208 0.699,0.637 0.699,1.134c0,0.568 -0.372,1.048 -0.884,1.207Zm64.419,-0.12c-0.784,0 -1.417,-0.637 -1.417,-1.425c0,-0.788 0.633,-1.429 1.417,-1.429c0.467,-0.092 0.764,2.607 0,2.854Zm-11.777,-0.054c-0.95,-0.078 -0.161,-2.509 0,-2.854c0.784,0 1.421,0.641 1.421,1.429c0,0.788 -0.637,1.425 -1.421,1.425Zm-47.835,-1.355l4.707,-4.718l-4.649,-5.152l-3.869,4.729l3.811,5.141Zm53.527,-0.897l4.513,-4.675l-4.266,-4.434l-4.502,4.78l4.255,4.329Zm29.693,-2.559l-1.681,-1.759l1.681,-0.015l0,1.774Zm-82.853,-0.175c-0.654,0 -1.182,-0.535 -1.182,-1.192c0,-0.656 0.528,-1.188 1.182,-1.188c0.653,0 1.181,0.532 1.181,1.188c0,0.657 -0.528,1.192 -1.181,1.192Zm53.183,-0.644c-0.653,0 -1.186,-0.531 -1.186,-1.188c0,-0.657 0.533,-1.192 1.186,-1.192c0.653,0 1.181,0.535 1.181,1.192c0,0.657 -0.528,1.188 -1.181,1.188Zm-5.834,-1.39l4.988,-5.183l-4.818,-5.16l-0.066,1.223l3.861,3.906l-3.915,4.03l-0.05,1.184Zm11.73,-0.008l-0.05,-1.312l-4.004,-3.991l4.208,-4.256l-0.17,-1.145l-5.174,5.381l5.19,5.323Zm-53.848,-1.421l-3.61,-3.611l3.599,-4.03l0.004,2.093c-0.742,0.258 -1.274,0.968 -1.274,1.801c0,0.835 0.535,1.538 1.278,1.794l0.003,1.953Zm-9.954,-0.186l-0.038,-1.476c0.811,-0.214 1.413,-0.953 1.413,-1.836c0,-0.918 -0.649,-1.685 -1.51,-1.864l-0.031,-1.168l2.858,3.168l-2.692,3.176Zm83.463,-0.664c0,0 -1.206,-1.292 -1.614,-1.821c0.319,-0.375 0.517,-0.858 0.517,-1.39c0,-1.185 -0.957,-2.147 -2.135,-2.147c-0.339,0 -0.658,0.083 -0.942,0.225c-0.219,-0.327 -1.182,-1.666 -1.182,-1.666l5.676,0.917l-0.32,5.882Zm-31.364,-0.858c1.178,0 2.135,-0.959 2.135,-2.143c0,-1.185 -0.957,-2.147 -2.135,-2.147c-2.143,0.438 -1.72,4.187 0,4.29Zm11.884,-0.082c3.039,-0.335 2.251,-4.221 0,-4.29c-1.178,0 -2.131,0.962 -2.131,2.147c0,1.185 0.953,2.143 2.131,2.143Zm-64.037,-0.532l-0.065,-2.38c0.5,0.168 0.861,0.645 0.861,1.204c0,0.534 -0.329,0.991 -0.796,1.176Zm52.153,-0.104c-1.38,-0.506 -0.96,-2.949 0,-2.854c0.783,0 1.421,0.641 1.421,1.429c0,0.788 -0.638,1.425 -1.421,1.425Zm11.884,-0.082c-0.783,0 -1.417,-0.637 -1.417,-1.425c0,-0.788 0.634,-1.429 1.417,-1.429c2.015,0.243 1.504,2.808 0,2.854Zm-54.032,-0.136c-0.385,-0.216 -0.645,-0.627 -0.645,-1.103c0,-0.474 0.257,-0.889 0.641,-1.106l0.004,2.209Zm71.45,-0.609l-1.661,-2.148c0.153,-0.057 0.318,-0.089 0.491,-0.089c0.783,0 1.421,0.641 1.421,1.429c0,0.3 -0.093,0.578 -0.251,0.808Zm-76.829,-0.975l3.9,-4.714l-4.792,-4.274l-3.398,4.232l4.29,4.756Zm53.291,-0.567l4.784,-4.884l-3.378,-3.529l1.869,0.205l2.702,2.772l0.062,-0.92l-1.471,-1.693l1.57,0.055c0.568,-0.886 -2.969,-0.913 -4.97,-1.254c-2.54,-0.433 -8.072,-2.476 -6.855,-0.977l1.394,0.359l-1.317,1.585l0.016,1.203l2.278,-2.454l0.772,0.179l-3.228,3.347l0.216,1.021l3.969,-4.085l1.155,0.264l-4.035,4.139l4.467,4.667Zm-53.488,-2.811c-0.653,0 -1.181,-0.531 -1.181,-1.188c0,-0.657 0.528,-1.188 1.181,-1.188c0.653,0 1.186,0.531 1.186,1.188c0,0.657 -0.533,1.188 -1.186,1.188Zm53.651,-0.617c-0.654,0 -1.182,-0.532 -1.182,-1.188c0,-0.657 0.528,-1.188 1.182,-1.188c0.653,0 1.181,0.531 1.181,1.188c0,0.656 -0.528,1.188 -1.181,1.188Zm26.796,-0.342c0,0 0.306,-3.908 0.479,-5.789l-6.182,-1.662l-0.769,6.244l6.472,1.207Zm2.695,-0.295l-0.861,-0.031l0.144,-3.639l0.836,0.898l-0.119,2.772Zm-11.437,-1.58c0,0 -0.622,-1.005 -1.332,-2.112c0.382,-0.387 0.618,-0.918 0.618,-1.507c0,-1.184 -0.957,-2.147 -2.135,-2.147c-0.217,0 -0.425,0.033 -0.622,0.093c-0.278,-0.527 -0.795,-1.366 -0.795,-1.366l5.297,1.56l-1.031,5.479Zm-66.322,-0.4l-4.159,-3.405l3.232,-3.999l0.216,1.716c-0.729,0.265 -1.251,0.966 -1.251,1.79c0,0.989 0.752,1.799 1.711,1.891l0.251,2.007Zm71.936,-0.058c-0.653,0 -1.181,-0.532 -1.181,-1.188c0,-0.657 0.528,-1.192 1.181,-1.192c0.653,0 1.186,0.535 1.186,1.192c0,0.656 -0.533,1.188 -1.186,1.188Zm-83.118,-0.377c1.044,0 1.896,-0.848 1.896,-1.899c0,-1.05 -0.852,-1.906 -1.896,-1.906c-0.413,-0.305 -0.527,3.267 0,3.805Zm0,-0.637c-0.112,-0.566 -0.25,-2.665 0,-2.531c0.695,0 1.262,0.571 1.262,1.269c0,0.699 -0.567,1.262 -1.262,1.262Zm75.77,-1.265c-0.472,-0.75 -0.964,-1.557 -1.378,-2.287c0.085,-0.016 0.173,-0.024 0.263,-0.024c0.783,0 1.421,0.641 1.421,1.429c0,0.334 -0.114,0.639 -0.306,0.882Zm-64.921,-0.327c-0.568,-0.12 -0.996,-0.626 -0.996,-1.234c0,-0.496 0.286,-0.926 0.699,-1.134l0.297,2.368Zm-5.633,-1.114l3.514,-4.741l-5.332,-4.181l-3.02,5.187l4.838,3.735Zm80.207,-1.93l-3.973,-1.168l0.749,-4.089c0.063,0.239 0.285,0.67 0.583,1.185c-0.17,0.308 -0.27,0.662 -0.27,1.04c0,1.185 0.953,2.143 2.131,2.143c0.057,0 0.115,-0.003 0.17,-0.007c0.355,0.525 0.61,0.896 0.61,0.896Zm-5.888,-0.993l1.294,-6.519l-5.977,-2.419l-1.456,6.888l6.139,2.05Zm-74.998,-0.051c-0.653,0 -1.182,-0.531 -1.182,-1.188c0,-0.657 0.529,-1.188 1.182,-1.188c0.653,0 1.185,0.531 1.185,1.188c0,0.657 -0.532,1.188 -1.185,1.188Zm79.774,-0.602c-0.622,-0.15 -1.085,-0.713 -1.085,-1.386c0,-0.089 0.012,-0.175 0.027,-0.26c0.342,0.552 0.714,1.126 1.058,1.646Zm-84.847,-0.177l3.204,-6.07l-5.447,-3.825l0.373,1.298l3.896,2.873l-2.265,4.174l0.239,1.55Zm77.418,-2.195c-0.653,0 -1.181,-0.535 -1.181,-1.192c0,-0.657 0.528,-1.188 1.181,-1.188c0.654,0 1.182,0.531 1.182,1.188c0,0.657 -0.528,1.192 -1.182,1.192Zm-5.641,-0.606l-1.27,-2.224c0.524,-0.391 0.865,-1.015 0.865,-1.72c0,-1.185 -0.957,-2.147 -2.135,-2.147c-0.177,0 -0.346,0.025 -0.51,0.066l-0.919,-1.961l5.549,2.442l-1.58,5.544Zm-73.014,-0.019c0.498,0.116 0.974,-0.203 1.314,-0.534c0.357,-0.346 0.578,-0.831 0.578,-1.369c0,-1.05 -0.847,-1.902 -1.892,-1.902c-1.428,0.347 -0.661,3.651 0,3.805Zm11.48,-0.524l-4.51,-3.242l2.633,-5.11c0,0 0.264,1.033 0.599,2.419c-0.641,0.305 -1.085,0.96 -1.085,1.72c0,1.051 0.847,1.903 1.892,1.903c0.007,0 0.015,0 0.023,0c0.177,0.832 0.335,1.634 0.448,2.31Zm-11.48,-0.113c-0.783,-0.24 -0.518,-2.45 0,-2.531c0.687,-0.108 1.259,0.567 1.259,1.265c0,0.699 -0.564,1.266 -1.259,1.266Zm71.431,-2.236l-1.154,-2.466c0.064,-0.009 0.13,-0.015 0.197,-0.015c0.783,0 1.421,0.641 1.421,1.429c0,0.416 -0.18,0.791 -0.464,1.052Zm-60.542,-0.606c-0.64,-0.059 -1.139,-0.599 -1.139,-1.258c0,-0.458 0.245,-0.856 0.606,-1.079c0.175,0.737 0.358,1.54 0.533,2.337Zm-5.95,-0.648l3.089,-6.139l-5.707,-3.498l-2.626,5.937l5.244,3.7Zm76.419,-1.181l-3.517,-1.607l0.992,-3.65l0.429,0.893c-0.208,0.332 -0.332,0.722 -0.332,1.142c0,1.106 0.833,2.016 1.903,2.131l0.525,1.091Zm-5.556,-1.731l1.726,-6.139l-5.483,-2.869l-2.502,6.177l6.259,2.831Zm4.618,-0.222c-0.46,-0.235 -0.776,-0.714 -0.776,-1.269c0,-0.097 0.012,-0.192 0.031,-0.284l0.745,1.553Zm-76.497,-0.497c-0.653,0 -1.185,-0.535 -1.185,-1.191c0,-0.657 0.532,-1.189 1.185,-1.189c0.653,0 1.182,0.532 1.182,1.189c0,0.656 -0.529,1.191 -1.182,1.191Zm-5.208,-0.338l2.618,-6.425l-6.011,-3.334l0.452,1.171l4.443,2.578l-1.905,4.65l0.403,1.36Zm74.886,-2.143c-0.653,0 -1.181,-0.531 -1.181,-1.188c0,-0.656 0.528,-1.188 1.181,-1.188c0.653,0 1.182,0.532 1.182,1.188c0,0.657 -0.529,1.188 -1.182,1.188Zm-76.774,-0.951c1.044,0 1.892,-0.852 1.892,-1.902c0,-1.051 -0.848,-1.941 -1.892,-1.903c-1.899,0.044 -0.931,3.821 0,3.805Zm70.898,-0.213c-0.36,-0.654 -0.63,-1.337 -0.877,-2.039c0.566,-0.385 0.938,-1.036 0.938,-1.774c0,-1.141 -0.889,-2.077 -2.007,-2.143c-0.043,-0.003 -0.24,-0.031 -0.24,-0.031l-0.34,-1.293l4.719,2.489c-0.662,1.786 -1.228,3.024 -2.193,4.791Zm-70.898,-0.424c-0.552,-0.232 -0.7,-2.46 0,-2.531c0.695,0 1.258,0.567 1.258,1.266c0,0.699 -0.563,1.265 -1.258,1.265Zm11.629,-0.737l-4.637,-2.671l2.328,-5.052l0.692,2.314c-0.501,0.343 -0.831,0.918 -0.831,1.573c0,1.043 0.835,1.89 1.869,1.902l0.579,1.934Zm58.141,-1.592l-0.737,-2.469c0.75,0.038 1.212,0.646 1.212,1.409c0,0.422 -0.184,0.799 -0.475,1.06Zm-58.917,-1.002c-0.59,-0.104 -1.038,-0.619 -1.038,-1.242c0,-0.363 0.15,-0.689 0.393,-0.92l0.645,2.162Zm69.199,-0.163l-3.587,-2.108l1.618,-4.209l0.471,1.518c-0.321,0.376 -0.517,0.863 -0.517,1.398c0,1 0.682,1.836 1.602,2.073l0.413,1.328Zm-74.875,-0.085l2.174,-5.859l-6.29,-3.324l-1.571,5.995l5.687,3.188Zm74.18,-2.147c-0.365,-0.258 -0.606,-0.686 -0.606,-1.169c0,-0.172 0.033,-0.336 0.089,-0.489l0.517,1.658Zm-4.699,-0.292l2.553,-5.944l-5.309,-3.517l-2.765,6.196l5.521,3.265Zm-71.454,-0.966c-0.653,0 -1.181,-0.532 -1.181,-1.188c0,-0.657 0.528,-1.188 1.181,-1.188c0.653,0 1.182,0.531 1.182,1.188c0,0.656 -0.529,1.188 -1.182,1.188Zm-6.221,-2.613c0.529,-0.341 0.843,-1.003 0.843,-1.681c0,-1.051 -0.847,-1.909 -1.892,-1.903c-0.233,0.002 -0.442,0.026 -0.628,0.07c-0.545,0.734 0.227,3.548 1.677,3.514Zm76.088,0.171c-0.653,0 -1.181,-0.532 -1.181,-1.189c0,-0.656 0.528,-1.191 1.181,-1.191c0.653,0 1.182,0.535 1.182,1.191c0,0.657 -0.529,1.189 -1.182,1.189Zm-77.418,-3.061c0.078,-0.042 0.171,-0.062 0.281,-0.057c0.694,0.032 1.259,0.567 1.259,1.266c0,0.398 -0.183,0.753 -0.469,0.985c-1.087,0.82 -1.246,-2.358 -1.071,-2.194Zm70.43,-1.012c-0.218,-0.975 -0.456,-1.902 -0.691,-2.765c0.096,-0.02 0.195,-0.035 0.297,-0.035c0.784,0 1.421,0.641 1.421,1.429c0,0.651 -0.434,1.2 -1.027,1.371Zm-65.917,-0.699l1.644,-6.589l-6.293,-2.306l-1.205,6.235l5.854,2.66Zm76.724,-0.089l-3.34,-2.318c0,0 1.08,-2.618 1.993,-4.015l0.258,1.211c-0.553,0.388 -0.915,1.03 -0.915,1.759c0,1.05 0.747,1.924 1.738,2.108l0.266,1.255Zm-70.62,-0.315c-0.695,0 -1.255,-0.563 -1.255,-1.262c0,-0.458 0.136,-0.647 0.498,-0.87c0.277,0.626 0.657,1.245 1,2.085c-0.102,0.027 -0.132,0.047 -0.243,0.047Zm70.184,-1.739c-0.502,-0.219 -0.854,-0.723 -0.854,-1.309c0,-0.371 0.141,-0.708 0.371,-0.963l0.483,2.272Zm-5.016,-0.963l3.031,-5.296l-4.448,-3.421l-3.475,5.3l4.892,3.417Zm-73.388,-0.179c-0.653,0 -1.182,-0.535 -1.182,-1.192c0,-0.656 0.529,-1.188 1.182,-1.188c0.653,0 1.185,0.532 1.185,1.188c0,0.657 -0.532,1.192 -1.185,1.192Zm-5.444,-1.646l-0.773,-1.204c0.241,-0.318 0.386,-0.714 0.386,-1.145c0,-1.051 -0.851,-1.903 -1.895,-1.903c-0.142,0 -0.281,0.013 -0.413,0.043l-0.622,-0.967l3.946,1.421l-0.629,3.755Zm77.925,-1.413c-0.653,0 -1.182,-0.532 -1.182,-1.188c0,-0.657 0.529,-1.188 1.182,-1.188c0.653,0 1.185,0.531 1.185,1.188c0,0.656 -0.532,1.188 -1.185,1.188Zm-79.076,-0.381l-1.166,-1.821c0.012,0 0.023,0 0.035,0c1.101,0.021 1.568,0.933 1.131,1.821Zm73.404,-0.081l4.293,-5.727l-5.695,-4.244l0.089,1.266l4.162,2.989l-3.166,4.24l0.317,1.476Zm-62.701,-1.938l-5.668,-1.79l1.212,-5.653l1.336,2.233c-0.363,0.347 -0.591,0.834 -0.591,1.378c0,1.051 0.844,1.903 1.889,1.903c0.211,0 0.416,-0.037 0.606,-0.101l1.216,2.03Zm61.747,-0.982c1.076,-0.11 1.919,-1.021 1.919,-2.132c0,-1.184 -0.957,-2.147 -2.135,-2.147c-0.543,-0.065 -0.621,0.769 0,0.719c0.784,0 1.421,0.64 1.421,1.428c0,0.757 -0.588,1.374 -1.328,1.421l0.104,0.711c0.006,-0.001 0.013,0.001 0.019,0Zm-69.446,-0.61l0.984,-6.542l-6.421,-1.378l-0.478,5.932l5.915,1.988Zm80.284,-0.159l-3.031,-2.252l2.302,-3.238l0.123,0.928c-0.549,0.389 -0.907,1.033 -0.907,1.759c0,0.929 0.588,1.713 1.409,2.011l0.104,0.792Zm-74.407,-0.815c-0.695,0 -1.255,-0.567 -1.255,-1.266c0,-0.312 0.112,-0.594 0.297,-0.815l1.224,2.05c-0.086,0.018 -0.175,0.031 -0.266,0.031Zm20.259,-0.886c-0.167,-0.038 -0.409,-0.077 -0.359,-0.178c0.051,-0.105 1.077,-1.239 1.077,-1.239l-0.116,-1.056l-1.822,2.078l-0.734,-0.272l2.56,-2.617l0.12,-0.975l-3.41,3.367l-1.455,-0.404l3.965,-3.926l-4.568,-4.655l-4.571,4.687l3.247,3.568l-1.606,-0.152c-0.678,-0.776 -1.423,-2.012 -2.668,-2.671l0.123,0.932c0.064,-0.044 1.511,1.369 1.282,1.599l-1.278,-0.093c-1.502,0.408 1.835,0.96 5.052,1.505c1.67,0.067 6.53,2.221 5.371,0.574c-0.069,-0.031 -0.145,-0.05 -0.21,-0.072Zm53.928,0.043c-0.35,-0.259 -0.579,-0.673 -0.579,-1.145c0,-0.336 0.116,-0.645 0.309,-0.889l0.27,2.034Zm-82.416,-1.137c-0.653,0 -1.181,-0.532 -1.181,-1.188c0,-0.657 0.528,-1.188 1.181,-1.188c0.654,0 1.182,0.531 1.182,1.188c0,0.656 -0.528,1.188 -1.182,1.188Zm77.698,-0.117l3.691,-4.717l-4.181,-4.034l-4.282,5.047l4.772,3.704Zm-82.891,-1.207l-0.288,-0.051l0,-3.218l0.454,0.101l-0.166,3.168Zm28.816,-1.495c-0.653,0 -1.182,-0.531 -1.182,-1.188c0,-0.657 0.529,-1.188 1.182,-1.188c0.653,0 1.185,0.531 1.185,1.188c0,0.657 -0.532,1.188 -1.185,1.188Zm53.503,-0.338c-0.653,0 -1.181,-0.535 -1.181,-1.192c0,-0.657 0.528,-1.188 1.181,-1.188c0.654,0 1.182,0.531 1.182,1.188c0,0.657 -0.528,1.192 -1.182,1.192Zm-5.699,-0.936l4.769,-5.715l-5.12,-5.315l0.016,1.188l3.977,4.193l-3.726,4.368l0.084,1.281Zm-53.318,-0.524l4.908,-4.985l-4.892,-5.098l-0.116,1.146l3.776,3.832l-3.537,3.673l-0.139,1.432Zm10.788,-0.516l-0.008,-1.355l-3.077,-3.149l3.151,-3.234l-0.019,-1.375l-4.468,4.632l4.421,4.481Zm-25.14,-0.594l-5.78,-1.099l0.355,-5.49l1.39,1.689c-0.236,0.318 -0.378,0.714 -0.378,1.142c0,1.05 0.847,1.898 1.892,1.898c0.299,0 0.579,-0.07 0.83,-0.194l1.691,2.054Zm77.899,-0.979l-2.85,-3.012l2.722,-3.095l0.023,1.052c-0.758,0.33 -1.289,1.089 -1.289,1.973c0,0.915 0.568,1.692 1.37,1.999l0.024,1.083Zm-10.564,-0.761c0.947,-0.218 1.656,-1.07 1.656,-2.088c0,-1.019 -0.709,-1.874 -1.656,-2.093l0,0.749c0.548,0.199 0.942,0.725 0.942,1.344c0,0.618 -0.395,1.142 -0.942,1.339l0,0.749Zm-41.882,-0.201c0.877,-0.581 0.485,-3.859 0,-3.805c-1.045,0 -1.888,0.852 -1.888,1.902c0,1.051 0.843,1.903 1.888,1.903Zm-11.193,-0.311c1.044,0 1.891,-0.852 1.891,-1.903c0,-1.05 -0.847,-1.902 -1.891,-1.902c-0.831,0.276 -0.493,3.615 0,3.805Zm-16.781,-0.245c-0.695,0 -1.259,-0.563 -1.259,-1.261c0,-0.229 0.065,-0.444 0.17,-0.629l1.498,1.824c-0.128,0.045 -0.266,0.066 -0.409,0.066Zm27.974,-0.081c-0.695,0 -1.255,-0.567 -1.255,-1.266c0,-0.699 0.56,-1.266 1.255,-1.266c-0.064,0.453 0.237,2.584 0,2.532Zm52.407,-0.291c-0.387,-0.254 -0.641,-0.692 -0.641,-1.192c0,-0.479 0.232,-0.906 0.591,-1.165l0.05,2.357Zm-63.6,-0.02c-0.158,-0.512 -0.354,-2.62 0,-2.531c0.694,0 1.258,0.567 1.258,1.265c0,0.699 -0.564,1.266 -1.258,1.266Zm5.722,-1.844l4.606,-4.609l-4.703,-4.834l-4.448,4.772l4.545,4.671Zm53.137,-0.249l4.123,-4.476l-3.973,-5.187l-4.66,4.667l4.51,4.996Zm22.355,-0.163c-1.268,-0.001 -2.452,-0.219 -2.934,-1.067c-1.942,-2.615 -1.384,-7.988 -0.039,-9.835c3.022,-2.758 4.731,-3.488 8.14,-2.858c-0.392,1.55 1.246,2.386 1.482,2.043c0.03,-0.005 0.157,-0.277 0.004,-0.295c-1.174,-0.145 -1.082,-1.554 -0.943,-1.56c1.298,0.04 2.142,0.018 2.275,0.599c0.082,0.359 -0.127,0.913 -0.884,1.535c-0.889,0.716 -4.981,0.699 -4.981,0.699c-0.015,-0.006 0.01,1.17 -0.401,1.844c-0.361,0.593 -0.861,1.25 -0.518,1.522c0.59,0.275 0.989,0.941 1.074,1.709c0.159,1.609 -0.093,5.483 -0.035,5.525c-0.689,0.065 -1.479,0.14 -2.24,0.139l0,0Zm-75.485,-2.989c-0.653,0 -1.185,-0.532 -1.185,-1.188c0,-0.657 0.532,-1.188 1.185,-1.188c0.653,0 1.182,0.531 1.182,1.188c0,0.656 -0.529,1.188 -1.182,1.188Zm53.099,-0.462c-0.654,0 -1.182,-0.532 -1.182,-1.188c0,-0.657 0.528,-1.192 1.182,-1.192c0.653,0 1.185,0.535 1.185,1.192c0,0.656 -0.532,1.188 -1.185,1.188Zm-58.732,-1.118l4.815,-4.939l-5.132,-5.339l0.163,1.449l3.695,3.824l-3.614,3.789l0.073,1.216Zm10.877,-0.094l0.131,-1.366l-3.409,-3.603l3.096,-3.2l0.047,-1.553l-4.556,4.83l4.691,4.892Zm52.716,-1.863l-2.722,-3.84l3.239,-2.858l-0.085,1.091c-0.94,0.224 -1.641,1.075 -1.641,2.089c0,0.899 0.55,1.665 1.328,1.984l-0.119,1.534Zm-10.194,-0.757c0.064,-0.797 0.107,-1.44 0.147,-2.027c0.883,-0.263 1.529,-1.086 1.529,-2.058c0,-0.863 -0.509,-1.604 -1.239,-1.945c0.058,-0.615 0.135,-1.296 0.243,-2.151l3.255,4.787l-3.935,3.394Zm-76.972,-0.226l-0.111,-13.429l-9.701,-10.099l0,-37.816l39.795,0l10.251,17.37c0.202,0.344 0.498,0.222 0.722,0.551l-3.039,16.319c-4.784,-2.215 -8.809,3.515 -6.197,8.157c-14.747,5.416 -31.72,18.947 -31.72,18.947Zm23.546,-0.073c1.045,0 1.892,-0.848 1.892,-1.899c0,-1.05 -0.847,-1.906 -1.892,-1.906c-1.362,0.627 -0.672,3.778 0,3.805Zm11.016,-0.113c0.525,-0.601 0.825,-3.831 0,-3.805c-1.044,0.033 -1.892,0.856 -1.892,1.907c0,1.05 0.847,1.898 1.892,1.898Zm-11.016,-0.524c-0.996,-0.737 -0.092,-2.359 0,-2.532c0.695,0 1.259,0.571 1.259,1.27c0,0.699 -0.564,1.262 -1.259,1.262Zm11.016,-0.113c-0.695,0 -1.255,-0.563 -1.255,-1.261c0,-0.699 0.56,-1.266 1.255,-1.266c-0.075,0.21 0.316,2.442 0,2.527Zm52.781,-0.5c-0.402,-0.252 -0.671,-0.7 -0.671,-1.212c0,-0.592 0.358,-1.1 0.868,-1.316l-0.197,2.528Zm-10.166,-1.274c0.059,-0.911 0.101,-1.66 0.162,-2.419c0.359,0.26 0.595,0.679 0.595,1.157c0,0.547 -0.308,1.023 -0.757,1.262Zm-47.917,-0.439l4.491,-4.515l-4.676,-4.884l-4.444,4.729l4.629,4.67Zm53.415,-1.172l4.703,-3.797l-3.027,-4.667l-1.054,-0.637l-4.305,3.704l3.683,5.397Zm18.88,-0.315l-11.069,-5.94c0,0 2.872,-1.209 2.792,-3.137c-0.114,-2.157 -1.4,-3.919 -3.95,-3.258c-0.585,0.085 -0.852,-0.158 -1.417,-1.483c-1.08,-2.535 -2.147,-5.32 -1.73,-5.234c1.358,1.091 1.155,1.151 2.753,1.872c2.982,0.826 4.795,-1.963 3.854,-4.221c-0.878,-2.082 -2.339,-2.201 -3.804,-1.988c-0.214,-0.049 -0.395,-0.286 -0.54,-0.559c-0.465,-0.948 -1.171,-2.635 -1.722,-5.23c-0.851,-4.001 -1.042,-9.009 -0.421,-10.269c0.858,-1.741 2.042,-4.1 2.042,-4.1c2.309,4.425 7.34,8.303 12.993,6.93c0.191,-0.119 0.23,-0.744 -0.027,-1.11c-1.834,-2.42 -2.144,-4.637 -2.799,-7.016c-1.68,-6.097 -5.071,-9.587 -5.024,-8.964l1.776,-3.235c0,0 15.372,-0.077 21.662,0l0,7.427l-16.479,16.973l6.528,0.278l-0.225,29.259c-2.387,0.5 -5.193,3.005 -5.193,3.005Zm-72.376,-1.875c-0.653,0 -1.181,-0.531 -1.181,-1.188c0,-0.657 0.528,-1.192 1.181,-1.192c0.654,0 1.186,0.535 1.186,1.192c0,0.657 -0.532,1.188 -1.186,1.188Zm53.998,-1.204c-0.653,0 -1.185,-0.531 -1.185,-1.188c0,-0.656 0.532,-1.192 1.185,-1.192c0.653,0 1.182,0.536 1.182,1.192c0,0.657 -0.529,1.188 -1.182,1.188Zm-48.712,-1.091l-0.116,-1.172l-3.239,-3.413l3,-3.067c0.437,-0.602 1.556,-0.471 1.907,-0.513c-0.242,-0.75 -0.914,-0.657 -1.602,-0.947l-4.359,4.484l4.409,4.628Zm-0.05,-2.651c0.786,-0.249 0.647,-3.611 0,-3.805c-1.045,0 -1.892,0.851 -1.892,1.902c0,1.051 0.847,1.903 1.892,1.903Zm-11.108,-0.517c-0.079,-0.311 -0.196,-2.503 0,-2.531c0.695,0 1.258,0.567 1.258,1.265c0,0.699 -0.563,1.266 -1.258,1.266Zm11.108,-0.12c-0.695,0 -1.259,-0.567 -1.259,-1.266c0,-0.699 0.564,-1.266 1.259,-1.266c0.17,0.292 0.45,2.49 0,2.532Zm38.951,-0.61c0.188,-0.071 0.448,-0.026 0.653,-0.027c0.657,-0.002 1.472,0.466 1.652,0.381c0.206,-0.098 0.137,-0.531 0.126,-0.725c-0.023,-0.179 -0.523,-0.239 -0.728,-0.374c-0.331,-0.219 -0.241,-0.295 0.135,-0.385c0.333,-0.078 0.603,-0.1 0.815,-0.404c0.131,-0.189 0.143,-0.518 -0.082,-0.515c-1.311,0.02 -2.975,0.563 -4.545,0.033c-0.896,-0.322 -1.481,-0.523 -1.624,-0.399c-0.299,0.258 0.751,1.267 1.756,1.456c1.013,0.191 1.376,0.113 1.049,0.416c-0.17,0.158 -0.399,0.097 -0.415,0.209c-0.047,0.316 0.184,0.642 0.459,0.687c0.294,0.047 0.526,-0.263 0.749,-0.353Zm-5.641,-3.168c0.106,-0.001 0.26,-0.077 0.467,-0.245c0.598,-0.399 1.534,-0.934 3.792,-0.31c1.241,0.41 2.633,0.051 3.444,-0.178c0.632,-0.178 1.538,-0.353 2.263,-0.02c0.708,0.342 1.483,0.861 1.339,0.326c-0.036,-0.136 -0.079,-0.921 -0.088,-1.386c-0.023,-1.095 -0.098,-2.008 -0.885,-1.149c-0.34,0.372 -0.751,0.375 -1.521,0.069c-0.549,-0.217 -0.934,-0.365 -1.359,-0.085c-0.603,0.396 -1.123,0.495 -2.236,0.117c-0.527,-0.18 -1.081,-0.196 -1.749,0.217c-1.11,0.687 -1.813,0.019 -2.239,-0.683c-0.337,-0.557 -0.506,0.237 -1.128,1.887c-0.32,0.787 -0.419,1.444 -0.1,1.44Zm5.316,-6.134c0.604,-0.343 1.447,-0.446 2.06,-0.852c1.297,-0.899 0.081,-1.648 -0.819,-1.46c-0.368,0.084 -0.795,0.269 -1.267,0.584c-1.623,1.083 -2.523,0.924 -2.676,-0.387c-0.165,-1.418 2.006,-2.057 1.803,-2.715c-0.272,-0.429 -1.326,0.161 -1.978,1.05c-1.936,2.638 0.194,5.303 2.877,3.78Zm-8.406,-7.437c2.202,-0.251 5.516,-1.319 7.179,-2.577c1.308,-1.024 1.666,-1.281 1.112,-1.689c-0.507,-0.373 -0.897,-0.386 -0.201,-1.102c0.248,-0.256 0.669,-0.79 0.668,-0.893c-0.007,-0.514 -3.113,-2.037 -4.896,-2.276c-1.375,-0.183 -3.598,0.027 -4.795,0.513c-1.579,0.641 -1.632,1.078 -0.141,0.638c1.165,-0.344 2.57,-0.603 3.956,-0.502c1.246,0.09 2.468,0.472 3.239,0.749c1.908,0.686 1.575,1.485 -0.351,0.804c-2.22,-0.964 -5.096,-0.948 -7.649,0.21c-1.031,0.467 -1.319,0.834 -1.506,0.675c-0.046,-0.039 -0.15,-0.294 -0.178,-0.365c-0.065,-0.169 -0.071,0.436 -0.162,1.398c-0.076,0.798 -0.15,1.867 -0.15,1.867c0,0 0.153,-0.451 0.15,-0.663c-0.02,-1.397 0.654,-1.404 2.56,-0.334c2.24,1.237 3.329,1.116 5.459,1.104c0.932,-0.006 0.974,0.264 -0.338,0.7c-0.625,0.208 -1.584,0.542 -3.013,1.002c-1.181,0.38 -1.5,0.805 -0.943,0.741Zm16.886,-2.817c-0.811,-0.001 -1.537,-0.693 -1.745,-2.039l0.807,0.058c0.269,2.006 1.717,1.552 2.285,0.358l0.711,-0.02c-0.558,1.104 -1.342,1.643 -2.058,1.643Zm-2.062,-0.125c-0.329,0.03 -1.856,-0.714 -1.95,-0.943c-0.102,-0.251 0.48,-0.522 0.989,-0.672c0.585,-0.172 0.466,-0.198 0.65,0.151c0.258,0.488 0.712,1.445 0.311,1.464Zm3.896,-0.097c-0.016,-0.216 0.448,-1.004 0.784,-1.106c0.396,-0.121 0.707,0.406 0.382,0.675c-0.292,0.153 -1.105,0.74 -1.166,0.431Zm-15.703,-0.105c-1.027,0.042 -1.982,-0.999 -2.062,-2.232l0.517,0.012c0.479,2.565 2.44,1.985 2.881,0.155l0.61,0.175c-0.509,1.325 -1.244,1.862 -1.946,1.89l0,0Zm2.015,-0.182c-0.281,0.019 -0.244,-0.211 0.093,-0.893c0.159,-0.322 0.273,-0.504 0.552,-0.493c0.379,0.057 0.633,0.179 0.826,0.481c0.132,0.299 -0.177,0.533 -0.834,0.742c-0.3,0.096 -0.509,0.154 -0.637,0.163Zm-4.313,-0.19c-0.18,-0.002 -0.508,-0.118 -1.023,-0.346c-1.318,-0.584 -1.473,-0.825 -0.784,-1.157c0.307,-0.147 0.561,-0.258 0.765,-0.326c0.618,-0.207 0.599,0.14 0.764,0.571c0.095,0.243 0.208,0.464 0.328,0.722c0.168,0.361 0.175,0.537 -0.05,0.536Zm19.31,-2.175c-0.219,0.002 -0.694,-0.289 -1.649,-0.632c-1.37,-0.493 -2.752,-0.312 -4.571,0.271c-0.751,0.241 -1.007,0.392 -0.711,-0.046c0.235,-0.347 1.513,-0.983 2.556,-1.243c1.954,-0.487 4.536,0.438 4.537,1.445c-0.014,0.145 -0.063,0.205 -0.162,0.205Zm-6.468,-1.657c-0.198,-0.005 -0.005,-0.304 0.41,-0.769c0.642,-0.721 1.622,-1.216 2.621,-1.394c2.103,-0.374 3.845,0.202 3.862,1.386c0.012,0.853 -0.137,0.865 -1.174,0.326c-0.881,-0.457 -2.861,-0.567 -4.456,-0.05c-0.524,0.139 -1.061,0.46 -1.154,0.485c-0.045,0.012 -0.08,0.016 -0.109,0.016Zm-16.162,-1.146c1.595,-0.423 3.289,-0.85 4.838,-1.149c1.659,-0.327 4.077,-0.027 5.34,0.598c0.932,0.461 1.259,0.189 0.849,-0.707c-0.267,-0.585 -0.672,-1.199 -1.869,-1.619c-1.738,-0.61 -5.812,0.381 -8.838,1.953c-1.76,0.786 -1.422,1.263 -0.32,0.924Zm26.275,-12.055l-2.724,4.651c-18.439,-3.59 -38.389,-0.983 -44.495,-0.133c0,0 -6.668,-11.092 -9.065,-14.986c-0.226,-0.414 -0.846,-1.817 -0.846,-1.817l62.96,0.051c-0.881,1.782 -1.718,4.086 -1.718,4.086c1.923,0.776 3.416,3.666 4.34,6.104c0.81,2.141 2.214,7.367 4.062,9.914c-3.232,1.842 -11.357,-2.27 -12.514,-7.87Z" style="fill:#131f67;fill-rule:nonzero;"/><path id="path3302-0-9-2" d="M67.183,20.448l62.357,-0.001l-8.125,16.33c-15.159,-2.307 -30.102,-2.019 -44.875,0.331l-9.357,-16.66l0,0Zm85.248,13.234l0.131,7.829l-8.077,-0.179l7.946,-7.65Zm-68.179,52.643l-0.088,23.761c-3.221,-2.285 -6.441,-4.575 -9.756,-6.39l0.128,-24.586l9.716,7.215Zm27.182,5.199c0.572,13.437 2.518,18.682 3.781,25.493l-11.564,7.516l-0.033,-27.583l7.816,-5.426Zm31.613,23.57l-0.066,33.093c-10.629,-15.373 -17.345,-30.987 -19.197,-52.066c2.89,-1.172 5.709,-2.466 8.673,-3.511c3.029,8.309 6.641,15.748 10.59,22.484Zm-107.631,-13.626c9.823,12.549 15.677,29.268 18.769,49.866l-8.992,4.389c-2.985,-7.272 -6.014,-14.997 -9.789,-21.032l0.012,-33.223Zm38.381,22.195l-0.036,27.671l-7.678,5.013c-0.478,-9.728 -2.012,-18.817 -3.786,-25.555l11.5,-7.129Zm20.207,14.571c2.84,2.149 5.797,4.125 9.076,5.628l-0.48,24.55l-8.666,-6.71l0.07,-23.468Zm-60.916,69.17c0,0 -5.405,5.52 -7.41,7.313l-0.044,-7.495l7.454,0.182Zm68.065,3.574l10.078,17.294l-63.174,0.533l8.117,-17.414c16.73,3.076 31.044,1.687 44.979,-0.413Z" style="fill:#d40000;fill-rule:nonzero;"/><path id="path3300-3-9-0" d="M72.199,55.424c-0.145,-0.046 -2.098,1.283 -3.111,3.24c-1.094,2.162 -0.104,4.287 -0.43,4.295c-2.015,-0.605 -1.435,-4.469 -0.734,-5.667c0.595,-1.041 1.734,-1.743 2.911,-1.943c1.162,-0.198 1.364,0.075 1.364,0.075Zm-3.285,8.449c0.406,-0.006 0.583,0.063 0.85,0.341c0.371,0.388 0.817,0.648 1.054,0.614c0.319,-0.046 0.465,0.011 0.467,0.182c0.002,0.14 -0.14,0.164 -0.664,0.117c-0.319,-0.029 -0.993,0.478 -0.993,0.478l-0.007,36.527c-2.856,-1.191 -7.125,-1.876 -10.406,-2.268l-0.219,-32.557c0,0 -4.813,2.535 -6.561,3.548l-0.063,29.142l-3.409,0.375l5.384,11c0.755,-0.584 11.352,0.412 13.998,2.143l-9.669,6.066c0.983,3.012 1.876,5.891 2.697,8.941c0.025,0.093 0.204,0.084 0.229,0.178c0.199,0.744 0.34,1.079 0.527,1.828c0.035,0.14 -0.022,0.367 0.018,0.506c2.083,7.216 3.505,16.778 3.794,25.338c-0.031,0.081 -0.338,0.011 -0.338,0.011l0.061,5.23l0.344,-0.23l-0.034,2.367l-0.349,0.347c-0.008,0.458 -0.04,1.324 -0.04,1.324l0.447,0.281l-0.231,3.965l-0.461,0.069l-0.253,6.277l12.245,-7.97c0,0 7.991,5.754 11.486,8.738c-3.845,2.629 -4.865,7.756 -5.818,12.01c-0.975,4.211 -1.295,7.687 -1.572,11.21c-0.304,3.882 -0.944,8.847 -1.455,11.294c-0.31,1.478 -0.299,1.641 0.135,1.666c0.149,0.008 -0.005,0.057 -0.344,0.108c-7.852,0.316 -16.283,-0.86 -23.77,-1.839c0,0 -1.852,3.471 -2.496,4.75c0,0 -0.376,-1.174 -0.777,-1.99c-0.91,-1.732 -2.988,-3.569 -4.765,-4.559c-0.663,-0.438 -2.571,-1.081 -3.861,-1.3c-0.759,-0.126 -1.98,0.115 -2.884,0.477c-0.311,0.131 -0.554,0.294 -0.556,0.458c-0.003,0.166 0.242,0.334 0.556,0.633c0.267,0.255 0.624,0.749 0.795,1.099c0.544,1.11 1.374,2.974 1.838,4.717c1.305,3.469 2.274,7.654 5.273,9.499l-2.07,4.164l65.164,-0.018l-10.083,-17.077c0,0 -0.305,-0.509 -0.405,-0.69c-0.298,-0.539 -0.42,-0.462 -0.42,-0.462c0.657,-5.971 1.59,-11.849 2.825,-17.626c0,0 0.131,0.461 2.046,0.433c5.604,-0.081 7.567,-6.344 2.881,-9.116c-0.442,-0.264 -1.194,-0.77 -1.935,-1.161c-0.213,-0.111 -2.9,-1.697 -2.9,-1.697l3.22,1.457l0.233,-37.58c0,0 6.715,2.029 11.141,2.22l-0.044,32.584l6.182,-3.355l0.281,-29.132l3.386,-0.22c0,0 -1.283,-2.744 -1.568,-3.321c-0.572,-1.155 -2.012,-3.723 -2.996,-5.346c-0.348,-0.574 -1.162,-1.852 -1.162,-1.852c-4.512,-0.12 -9.13,-0.801 -13.326,-2.677l9.712,-6.354c-4.056,-11.493 -9.115,-28.309 -6.297,-55.453l-0.68,0.434l-0.187,2.925l-12.09,8.366l-14.914,-12.077c0,0 1.083,0.029 1.325,0.039c3.804,0.135 6.483,-3.777 7.402,-7.043c1.62,-5.757 1.832,-7.178 2.578,-16.308c0.295,-3.61 1.006,-7.093 1.73,-10.533c0.382,-1.729 0.325,-1.902 0.325,-1.902c-7.586,-0.243 -15.508,0.563 -21.451,1.883c0,0 -2.508,11.973 -3.403,17.056c-0.845,-0.487 -1.596,-0.7 -2.357,-0.684c-5.882,0.644 -5.378,8.755 -2.346,8.982l0,0Zm26.182,164.14l-3.084,-10.879l7.553,-0.703l6.27,11.492l-10.739,0.09Zm-46.428,0.152l7.764,-16.561c16.287,2.299 25.688,2.517 44.592,-0.174l9.827,16.512l-2.586,0.022l-7.409,-13.183l-11.005,1.103l3.042,12.064l-2.908,0.09l-3.009,-11.839l-17.033,0.091c-0.552,3.967 -1.621,11.724 -1.621,11.724l-3.145,-0.035l2.096,-11.986l-10.061,-1.269l-5.813,13.4l-2.731,0.041Zm21.845,-0.153l0.992,-10.07l14.089,-0.109l2.254,10.185l-17.335,-0.006Zm-17.071,0.193l4.783,-11.952l6.97,0.937l-1.903,10.848l-9.85,0.167Zm-8.594,-11.711c-0.309,-1.021 -0.624,-2.021 -0.699,-2.225c-1.137,-3.099 -1.605,-4.122 -2.348,-5.152c-0.122,-0.17 -0.16,-0.15 0.021,-0.296c3.423,-1.683 9.61,2.458 11.101,6.25c-0.188,0.367 -1.016,1.906 -1.016,1.906c-0.432,-0.847 -0.108,-1.685 -0.391,-2.446c-0.07,-0.324 -0.778,2.193 -0.778,2.193c0,0 -0.683,-1.117 -0.766,-3.266c-0.013,-0.332 -0.889,1.441 -0.889,1.441c-1.102,-1.491 -1.04,-4.077 -1.04,-4.077c-1.241,1.515 -0.467,2.383 -2.385,-1.478c-0.221,0.401 -0.114,0.828 -0.404,0.715c-0.843,-0.328 -2.027,-0.922 -2.458,-0.802c0.562,0.708 1.653,1.081 1.953,2.021c0,0 -0.866,-0.073 -0.922,-0.031c0.98,0.536 1.922,0.999 2.658,2.029c-0.219,0.081 -1.106,-0.071 -1.067,0.023c1.327,1.205 3.318,2.179 0.438,1.907c1.872,1.324 3.958,2.239 0.707,2.14c2.319,1.101 2.944,1.781 2.512,1.968c-0.243,0.106 -0.937,-0.314 -2.043,0.041c1.864,0.765 2.632,1.114 2.706,1.366c0.09,0.305 -0.795,0.472 -1.402,1.133c0,0 0.75,-0.171 1.078,0.178c0,0 -0.365,1.056 -0.645,1.665c-2.373,-2.165 -3.306,-5.231 -3.921,-7.203Zm-19.989,4.203c0,0 10.484,-11.358 15.675,-16.993l-5.072,-0.076l-0.232,-30.755c-1.767,-0.239 -4.832,-0.005 -5.992,-1.188c-0.72,-1.072 2.067,-3.179 3.636,-2.737c1.047,0.285 2.34,0.059 2.34,0.059l-0.106,-34.269c3.347,6.247 5.906,10.201 9.611,21.049c-1.073,0.751 -2.177,1.33 -2.362,1.457c1.424,3.454 2.41,8.885 0.422,13.618l-1.371,-0.821c1.005,-2.889 1.375,-7.16 -0.268,-11.108l-0.377,0.398c0,0 0.407,0.788 0.668,1.657c0.233,0.776 0.568,1.776 0.571,2.811c0.066,1.836 0.01,3.412 -0.421,4.884c-0.148,0.481 -0.36,1.197 -0.471,1.418c-0.11,0.22 -0.217,0.424 -0.216,0.485c4.033,1.643 6.925,4.046 10.402,5.766c0.132,0.064 0.242,0.12 0.33,0.169c0.441,0.247 0.325,0.331 -0.365,0.607c-1.452,0.581 -2.043,1.286 -2.011,2.702c0.045,2.015 1.117,2.8 3.459,2.668c0.851,-0.048 0.906,-0.036 1.058,0.256c0.354,0.684 1.578,3.402 1.579,3.51c0.002,0.064 0.256,0.675 0.568,1.359c0.481,1.09 1.037,2.214 1.264,3.352c0.114,0.566 0.44,0.788 0.524,0.204c0.619,-4.337 1.19,-6.626 2.305,-9.233c0.331,-0.775 0.582,-1.428 0.556,-1.452c-0.108,-0.095 -1.973,-0.966 -2.846,-1.328c-3.406,-1.409 -4.955,-2.279 -4.429,-2.488c0.366,-0.146 0.498,-0.401 0.591,-1.13c0.244,-1.91 0.217,-2.887 -0.1,-3.491c-0.334,-0.634 -0.326,-0.679 0.22,-1.036c0.473,-0.311 0.371,-0.312 0.5,-1.907c0.152,-1.893 0.049,-3.097 0.049,-3.097l-0.849,-1.094l0.863,-1.08l0.199,-4.959l-1.165,-0.889l1.089,-1.081l-0.389,-4.522c0,0 0.143,-0.417 0.331,-0.625c-1.845,-19.125 -8.973,-38.398 -19.65,-51.534l-0.107,-31.418l-10.463,-10.528l0.452,162.41Zm0.819,-2.022l0,-2.477l8.886,-9.623l-8.886,-0.155l0,-2.099l13.642,0.027l-13.642,14.327Zm0.137,-4.204l-0.023,-6.934l6.642,-0.009l-6.619,6.943Zm60.941,-3.495l-1.385,0.058c0.055,-1.397 0.605,-7.852 1.264,-13.504c0.743,-6.372 2.262,-11.869 2.554,-11.869l1.337,0.815c-2.215,7.31 -2.805,16.719 -3.77,24.5Zm-6.284,0.2c0.196,-3.945 1.018,-6.705 1.269,-11.37c0.311,-5.697 1.285,-12.791 3.834,-18.675c0.859,-1.982 2.445,-3.842 4.671,-4.72c3.902,-1.539 7.215,3.325 4.576,6.902c-2.085,2.827 -5.349,2.791 -6.34,-0.07c-0.818,-2.364 1.812,-5.332 3.912,-4.41c1.459,0.641 1.087,3.284 -0.552,3.905c-0.679,0.258 -1.254,-0.608 -0.919,-1.386c0.264,-0.611 0.292,-0.994 -0.066,-0.734c-1.482,1.05 -0.365,3.554 1.474,2.617c2.454,-1.249 2.041,-4.92 -0.431,-5.08c-3.129,-0.309 -5.543,3.566 -7.089,10.924c-1.695,8.234 -1.274,15.607 -2.899,22.072l-1.44,0.025Zm3.999,-0.138l-1.645,0.05c0.131,-0.612 0.155,-1.264 0.267,-2.011c0.648,-4.32 1.032,-10.626 1.696,-15.568c0.938,-6.973 2.618,-11.212 2.66,-10.695c0.188,0.846 0.719,1.532 1.126,2.201c-1.695,4.637 -2.379,8.856 -2.814,12.829c-0.509,4.642 -0.652,8.949 -1.29,13.194Zm7.03,-0.4l-1.443,0.075c0.562,-9.245 1.909,-17.626 2.706,-21.224c0.246,-1.084 0.328,-1.554 0.533,-1.645c0.227,-0.1 0.605,0.267 1.525,0.781c-1.4,-0.199 -2.522,15.718 -3.321,22.013Zm-2.25,0.133l-1.567,0.155c0.233,-3.343 0.794,-8.597 1.422,-13.335c0.76,-5.727 1.755,-10.803 2.251,-10.727l1.305,0.455c-0.873,-0.275 -3.026,16.813 -3.411,23.452Zm2.973,-0.163c1.023,-6.998 1.121,-15.176 3.241,-21.711l1.467,0.686c-0.401,-0.131 -1.444,4.252 -1.798,9.213c-0.307,4.318 -1.082,9.016 -1.312,11.618l-1.598,0.194Zm2.419,-0.256c0.584,-2.472 0.583,-6.114 1.02,-9.151c0.542,-3.762 1.119,-11.401 1.984,-11.226l1.498,0.764c-0.786,-0.238 -2.157,14.235 -2.991,19.376l-1.511,0.237Zm3.945,-0.613l-1.521,0.207c0.732,-5.651 2.056,-18.827 2.84,-18.925l1.426,0.761c-0.556,2.315 -1.965,10.184 -2.745,17.957Zm0.945,-0.22c0.63,-6.212 1.221,-12.502 2.538,-17.332l1.56,0.707c0,0 -1.083,5.313 -1.596,9.044c-0.507,3.683 -0.584,4.208 -0.745,5.168c-0.356,2.116 -0.455,2.195 -0.455,2.195l-1.302,0.218Zm-66.817,-6.367l0.15,-29.826l1.73,0.066l-0.071,29.807l-1.809,-0.047Zm-4.085,-0.236c-0.653,0 -1.181,-0.531 -1.181,-1.188c0,-0.656 0.528,-1.192 1.181,-1.192c0.654,0 1.182,0.536 1.182,1.192c0,0.657 -0.528,1.188 -1.182,1.188Zm27.858,-10.945c-1.224,-2.252 -2.163,-3.077 -3.242,-3.508c-1.946,-0.777 -4.63,1.137 -3.654,3.816c0.514,1.409 1.817,1.618 3.47,1.337c0,0 0.712,0.509 1.55,3.061c0.991,3.021 2.548,6.13 2.548,6.13c0.098,-3.79 0.985,-7.736 -0.672,-10.836Zm-29.607,8.177c-0.653,0 -1.185,-0.531 -1.185,-1.188c0,-0.657 0.532,-1.188 1.185,-1.188c0.653,0 1.182,0.531 1.182,1.188c0,0.657 -0.529,1.188 -1.182,1.188Zm3.243,-0.047c-0.653,0 -1.181,-0.531 -1.181,-1.188c0,-0.656 0.528,-1.192 1.181,-1.192c0.653,0 1.186,0.536 1.186,1.192c0,0.657 -0.533,1.188 -1.186,1.188Zm26.506,0.286c-1.097,-2.288 -1.329,-4.01 -2.393,-6.082c-0.466,-0.905 -0.884,-1.68 -0.884,-1.68c-3.475,1.643 -4.812,-2.496 -1.993,-3.817c2.774,-1.3 5.897,3.642 5.593,8.963c-0.083,1.467 -0.323,2.616 -0.323,2.616Zm-28.062,-3.089c-0.653,0 -1.181,-0.531 -1.181,-1.188c0,-0.657 0.528,-1.192 1.181,-1.192c0.654,0 1.182,0.535 1.182,1.192c0,0.657 -0.528,1.188 -1.182,1.188Zm-3.13,-2.233l0,-2.541l6.177,-6.027l0,2.458l-6.177,6.11Zm81.221,-1.956c-1.18,-0.016 -1.747,-0.367 -0.965,-0.68c2.594,-1.036 3.746,-2.686 3.889,-5.571c0.006,-1.459 -0.168,-1.65 0.725,-0.835c2.28,3.207 -1.005,7.105 -3.649,7.086Zm-2.168,-1.044c-0.287,0.011 -0.573,-0.026 -0.857,-0.116c-0.695,-0.22 -0.441,-0.236 0.731,-1.018c2.234,-1.491 2.914,-2.951 3.013,-5.937c0.028,-0.449 -0.064,-0.822 -0.027,-1.011c0.032,-0.143 0.204,-0.097 0.308,-0.091c0.427,0.071 0.689,0.525 0.812,0.908c1.416,2.843 -1.202,7.159 -3.98,7.265l0,0Zm-2.419,-0.987c-0.193,0.002 -0.361,-0.028 -0.498,-0.097c-0.547,-0.274 -0.345,-0.314 0.656,-1.032c1.776,-1.272 2.654,-3.143 2.86,-5.233c0.133,-1.341 -0.896,-2.935 0.925,-1.621c1.28,1.068 1.024,3.843 -0.334,5.748c-0.837,1.175 -2.571,2.222 -3.609,2.235Zm-76.634,0.581l0,-2.894l6.177,-5.9l0,2.962l-6.177,5.832Zm74.65,-1.509c-0.702,-0.007 -1.016,-0.46 -0.197,-0.978c2,-1.264 3.203,-3.676 3.085,-6.193c-0.113,-1.52 -0.171,-1.793 0.796,-0.788c1.555,1.619 0.459,6.013 -2.557,7.657c-0.409,0.216 -0.808,0.306 -1.127,0.302Zm-2.046,-0.842c-1.152,0.028 -1.312,-0.558 -0.282,-1.281c1.966,-1.381 3.279,-3.812 3.247,-6.022c-0.015,-1.027 0.065,-1.155 0.517,-0.808c2.271,1.744 -0.163,7.827 -3.239,8.095c-0.086,0.008 -0.167,0.014 -0.243,0.016Zm-40.623,-0.19c-0.283,-0.021 -0.786,-1.026 -1.576,-3.13c-0.761,-2.028 -1.99,-4.586 -2.251,-4.682c-0.08,-0.03 -0.426,0.091 -0.768,0.272c-2.592,1.367 -4.416,-2.513 -1.861,-3.957c1.818,-1.026 3.533,0.075 5.116,3.289c1.866,3.789 2.377,6.602 1.475,8.118c-0.038,0.063 -0.082,0.093 -0.135,0.09Zm38.514,-1.033c-0.312,0.014 -0.614,-0.046 -0.899,-0.194c-0.671,-0.35 -0.574,-0.608 0.455,-1.216c1.061,-0.626 1.479,-1.017 2.089,-1.945c0.951,-1.446 1.111,-2.003 1.112,-3.867c0,-1.519 0.449,-1.603 1.352,-0.252c1.555,2.327 -1.564,7.361 -4.109,7.474Zm-2.586,-1.363c-1.018,0.023 -1.689,-0.395 -0.715,-0.912c3.098,-1.647 4.4,-4.011 3.807,-6.919c-0.186,-0.912 0.85,-0.14 1.479,1.102c0.919,1.814 -0.776,5.321 -3.089,6.391c-0.484,0.224 -1.02,0.328 -1.482,0.338Zm-34.963,-2.675c-0.194,-0.014 -0.419,-0.532 -0.915,-1.809c-0.323,-0.833 -0.757,-1.829 -0.965,-2.213c-0.209,-0.385 -0.355,-0.747 -0.321,-0.804c0.175,-0.293 1.61,0.205 2.093,0.726c0.745,0.805 0.982,2.604 0.479,3.634c-0.148,0.3 -0.255,0.474 -0.371,0.466Zm-29.754,-2.194c-0.653,0 -1.181,-0.531 -1.181,-1.188c0,-0.657 0.528,-1.192 1.181,-1.192c0.654,0 1.182,0.535 1.182,1.192c0,0.657 -0.528,1.188 -1.182,1.188Zm121.267,-1.918c-0.653,0 -1.182,-0.535 -1.182,-1.192c0,-0.656 0.529,-1.188 1.182,-1.188c0.653,0 1.181,0.532 1.181,1.188c0,0.657 -0.528,1.192 -1.181,1.192Zm-48.855,-0.357c-1.291,0.046 -1.69,-0.568 -1.908,-2.539c-0.149,-1.354 -0.439,-1.48 -2.556,-1.122c-2.234,0.377 -2.983,-0.232 -3.143,-2.559c-0.126,-1.846 -0.11,-1.831 -2.652,-1.848c-2.502,-0.017 -2.771,-0.272 -3.058,-2.85c-0.214,-1.915 -0.142,-1.862 -2.603,-1.829c-2.725,0.037 -2.97,-0.165 -3.154,-2.589c-0.15,-1.965 -0.279,-2.092 -2,-1.949c-1.687,0.139 -4.797,0.154 -5.379,0.027c-1.45,-0.318 -1.51,-0.258 -1.822,1.708c-0.411,2.59 -0.92,2.914 -4.085,2.594c-1.557,-0.158 -1.737,-0.126 -1.957,1.251c-0.294,1.836 -0.66,2.373 -0.661,0.783c-0.002,-4.016 0.275,-4.204 2.941,-3.489c2.002,0.537 2.035,0.124 2.244,-1.814c0.185,-1.709 0.472,-2.41 1.097,-2.683c0.485,-0.213 2.12,-0.031 2.776,0.156c0.249,0.071 1.804,0.109 3.645,0.089c4.435,-0.047 4.481,-0.057 4.478,3.075c-0.002,1.319 0.286,1.602 2.607,1.532c2.912,-0.088 2.76,-0.167 3.255,3.349c0.172,1.219 0.269,1.266 2.679,1.231c2.627,-0.038 3.225,-0.076 3.07,2.15c-0.14,2.023 0.349,2.554 2.541,2.042c2.334,-0.546 2.781,0.45 3.008,2.259c0.211,1.676 0.352,1.257 1.467,1.344c1.235,0.096 1.09,1.494 -0.22,1.623c-0.224,0.022 -0.426,0.052 -0.61,0.058Zm-74.238,-0.61c-0.653,0 -1.182,-0.531 -1.182,-1.188c0,-0.656 0.529,-1.188 1.182,-1.188c0.653,0 1.181,0.532 1.181,1.188c0,0.657 -0.528,1.188 -1.181,1.188Zm3.328,-0.066c-0.653,0 -1.181,-0.535 -1.181,-1.191c0,-0.657 0.528,-1.189 1.181,-1.189c0.653,0 1.182,0.532 1.182,1.189c0,0.656 -0.529,1.191 -1.182,1.191Zm117.992,-1.98c-0.653,0 -1.185,-0.531 -1.185,-1.188c0,-0.656 0.532,-1.188 1.185,-1.188c0.653,0 1.182,0.532 1.182,1.188c0,0.657 -0.529,1.188 -1.182,1.188Zm3.321,-0.027c-0.653,0 -1.182,-0.531 -1.182,-1.188c0,-0.657 0.529,-1.188 1.182,-1.188c0.653,0 1.181,0.531 1.181,1.188c0,0.657 -0.528,1.188 -1.181,1.188Zm-61.789,-1.012l-12.292,-9.224l-11.636,7.83l0.07,-2.856l11.552,-7.725c0,0 9.832,7.655 14.584,11.352l-2.278,0.623Zm-61.18,-0.137c-0.653,0 -1.182,-0.535 -1.182,-1.192c0,-0.657 0.529,-1.188 1.182,-1.188c0.653,0 1.181,0.531 1.181,1.188c0,0.657 -0.528,1.192 -1.181,1.192Zm20.134,-1.557l-2.916,-4.764l2.911,-2.124l-2.649,-3.406l2.857,-2.944l-3.14,-2.006l2.936,-4.112l4.065,-1.815l-4.065,5.371l3.364,2.322l-3.191,3.457l2.863,3.774l-2.964,2.329l3.207,5.288l-0.21,0.255l-3.068,-1.625Zm53.895,1.052l-21.599,-16.249c0,0 -1.995,-1.509 -2.567,-1.874c-1.213,-0.773 -1.455,-0.463 -2.665,0.372c-2.729,1.63 -9.335,6.15 -9.335,6.15l0.052,-2.34c0,0 6.645,-5 10.324,-7.074c0.522,-0.289 1.081,-0.015 1.474,0.284c8.021,6.388 16.231,12.583 24.363,18.842l-0.047,1.889Zm-49.632,-0.259c-0.091,-0.163 -0.381,-0.223 -0.522,-0.441c-0.957,-1.49 -2.692,-4.137 -2.692,-4.137l3.037,-2.423l-2.789,-3.682l3.485,-3.56l-3.559,-2.436c0,0 2.21,-3.403 3.881,-4.959l0.041,2.643l-1.428,1.731l1.638,1.134l0.005,3.634l-1.666,1.765l1.526,1.55l-0.272,3.974l-1.455,1.157l1.201,1.654l-0.431,2.396Zm96.982,-0.81c-0.653,0 -1.185,-0.532 -1.185,-1.188c0,-0.657 0.532,-1.189 1.185,-1.189c0.653,0 1.182,0.532 1.182,1.189c0,0.656 -0.529,1.188 -1.182,1.188Zm-124.182,-4.334l6.009,-5.585l0,2.537l-6.009,5.93l0,-2.882Zm120.748,2.727l0,-3.06l6.416,-5.958l0,2.954l-6.416,6.064Zm-120.748,-3.51l0,-3.038l6.009,-5.677l0,3.008l-6.009,5.707Zm7.07,-0.477l-0.124,-98.759l-6.977,-7.423l-0.005,-2.463l8.83,9.198l0.201,99.365l-1.925,0.082Zm113.678,0.294l0,-3.438l6.416,-5.886l0,3.235l-6.416,6.089Zm-43.898,-0.631l-8.486,-6.643l0.035,-23.158c3.437,2.599 6.196,4.148 8.804,5.465l-0.353,24.336Zm-74.055,-7.49c-0.654,0 -1.182,-0.531 -1.182,-1.188c0,-0.656 0.528,-1.188 1.182,-1.188c0.653,0 1.185,0.532 1.185,1.188c0,0.657 -0.532,1.188 -1.185,1.188Zm63.014,-1.132l-0.031,-23.63l1.671,1.536l0.098,23.435l-1.738,-1.341Zm57.955,-0.227c-0.653,0 -1.181,-0.531 -1.181,-1.188c0,-0.656 0.528,-1.192 1.181,-1.192c0.653,0 1.185,0.536 1.185,1.192c0,0.657 -0.532,1.188 -1.185,1.188Zm-122.548,-1.685c-0.653,0 -1.182,-0.531 -1.182,-1.188c0,-0.656 0.529,-1.192 1.182,-1.192c0.653,0 1.181,0.536 1.181,1.192c0,0.657 -0.528,1.188 -1.181,1.188Zm3.367,-0.147c-0.653,0 -1.182,-0.532 -1.182,-1.188c0,-0.657 0.529,-1.188 1.182,-1.188c0.653,0 1.181,0.531 1.181,1.188c0,0.656 -0.528,1.188 -1.181,1.188Zm60.278,0.115l-5.176,-4.867l5.332,-5.087l0.043,2.348l-2.967,2.877l2.982,3.109l-0.214,1.62Zm-1.971,-0.43l-4.316,-3.204l0.676,-0.824l3.64,4.028Zm59.125,-0.718c-0.653,0 -1.181,-0.531 -1.181,-1.188c0,-0.657 0.528,-1.188 1.181,-1.188c0.653,0 1.182,0.531 1.182,1.188c0,0.657 -0.529,1.188 -1.182,1.188Zm3.463,-0.058c-0.653,0 -1.181,-0.535 -1.181,-1.192c0,-0.657 0.528,-1.188 1.181,-1.188c0.654,0 1.182,0.531 1.182,1.188c0,0.657 -0.528,1.192 -1.182,1.192Zm-84.831,-0.432c-0.831,-9.453 -1.408,-15.997 -3.836,-24.911l11.165,-7.179l-0.102,27.381l-7.227,4.709Zm-30.772,-21.631l0.044,-32.469c10.538,15.078 16.219,32.702 18.048,49.405c0,0 -5.657,2.62 -8.404,4.228c-2.909,-6.856 -1.653,-6.848 -9.688,-21.164Zm-7.223,20.257c-0.653,0 -1.181,-0.535 -1.181,-1.192c0,-0.656 0.528,-1.188 1.181,-1.188c0.653,0 1.182,0.532 1.182,1.188c0,0.657 -0.529,1.192 -1.182,1.192Zm121.066,-1.277c-0.653,0 -1.182,-0.531 -1.182,-1.188c0,-0.657 0.529,-1.192 1.182,-1.192c0.653,0 1.181,0.535 1.181,1.192c0,0.657 -0.528,1.188 -1.181,1.188Zm-65.879,0.109l-4.101,-3.147l-0.01,-2.386l4.905,4.744l-0.794,0.789Zm1.405,-1.26l-5.127,-5.096l5.376,-5.393l5.301,5.052l-5.55,5.437Zm-38.607,-0.178l4.944,-2.039c-1.891,-17.229 -6.798,-30.144 -13.413,-40.614l-0.151,24.167c3.416,5.436 6.001,11.983 8.62,18.486Zm-20.782,-0.356l0,-2.71l6.154,-5.675l0,2.699l-6.154,5.686Zm59.394,-1.491l3.266,-3.207l-3.29,-3.199l-3.166,3.199l3.19,3.207Zm61.499,0.355l0,-2.882l6.109,-5.933l0,3.064l-6.109,5.751Zm-68.79,-1.615l-0.05,-27.577l1.359,-0.647l-0.095,28.81l-1.214,-0.586Zm7.352,-0.417l-1.482,-1.499l1.552,-1.568l1.459,1.498l-1.529,1.569Zm-59.455,-0.289l0,-3.125l6.154,-5.778l0.103,2.981l-6.257,5.922Zm68.089,-11.72c-6.351,-5.526 -11.23,-13.913 -16.588,-18.602c-2.166,-1.888 -7.465,-4.836 -10.324,-5.742c-3.251,-1.03 -5.78,-1.452 -9.043,-1.51c-2.576,-0.046 -2.587,-0.062 -2.587,-0.062l-1.091,-1.949l1.803,0.025l0.118,-6.883c-1.909,-0.093 -3.779,0.013 -5.625,0.243l-0.667,-1.253c13.136,-1.79 25.976,3.215 33.698,9.611c3.522,2.911 6.384,6.466 9.867,11.641c6.705,10.516 18.515,15.594 29.513,15.712l0.912,1.425l-1.838,-0.062c0,0 -0.186,1.323 -0.21,3.57c-0.027,2.532 -0.012,2.976 0.185,3.049c1.332,0.156 5.349,0.073 5.231,-0.098l0.827,1.486c-13.112,1.359 -26.015,-3.23 -34.181,-10.601Zm52.804,10.379l0,-2.828l6.109,-5.794l0,2.831l-6.109,5.791Zm-67.154,-0.241l0.161,-2.527l2.913,-2.896l-3.099,-3.025l0.074,-2.112l5.464,5.096l-5.513,5.464Zm39.907,-0.898c0.281,0 0.45,-0.025 0.482,-0.078c0.073,-0.122 0.032,-1.208 0.271,-5.137c0.087,-1.44 0.186,-1.445 -1.015,-1.591c-1.008,-0.034 -3.262,-0.615 -4.763,-0.793c-1.264,-0.169 -1,0.218 -1.356,1.235c-0.388,1.111 -0.599,2.096 -1.082,3.683c-0.441,1.452 -0.239,1.499 2.608,2.034c1.968,0.37 4.011,0.646 4.855,0.647Zm-28.418,0.24l-4.945,-4.961l4.868,-4.973l0.086,2.403c-0.94,0.84 -2.058,1.796 -2.884,2.745l2.869,2.946l0.006,1.84Zm24.798,-1.608l-0.531,-0.878l-1.274,-0.211l0.222,-0.893l-0.648,-0.921l0.798,-0.601l-0.028,-1.111l0.997,0.035l0.867,-0.624l0.686,0.876l0.999,0.033l-0.054,1.245l0.648,0.55l-0.774,0.698l0.1,1.104l-1.231,-0.208l-0.777,0.906Zm8.029,-1.496l-0.785,-0.518l0.799,-0.554l0.035,-0.849l0.489,-0.419l1.794,3.531l-1.167,-0.476l-0.891,0.595l-0.274,-1.31Zm-14.394,0.816c0.627,-0.01 0.709,-1.177 1.389,-3.383c0.948,-3.079 1.016,-2.794 -0.803,-3.436c-0.81,-0.286 -2.359,-0.812 -3.179,-1.199c-1.997,-0.944 -2.007,-0.94 -2.753,0.342c-0.331,0.568 -0.958,1.964 -1.398,2.688c-1.095,1.807 -1.125,1.72 0.888,2.695c1.185,0.574 1.902,0.808 4.392,1.824c0.693,0.282 1.135,0.475 1.464,0.469Zm-1.993,-2.042l-0.872,-0.549l-0.981,0.41l-0.196,-1.06l-1.072,-0.418l0.305,-1.043l-0.472,-0.781l0.913,-0.179l0.663,-1.445l1.003,0.707l1.063,-0.386l0.295,0.795l1.089,0.529l-0.395,0.876l0.543,1.182l-1.246,0.095l-0.64,1.267Zm-21.926,-1.084l-5.458,-5.378l4.97,-5.008l5.456,5.396l-4.968,4.99Zm-56.941,-0.979c-0.654,0 -1.182,-0.532 -1.182,-1.189c0,-0.656 0.528,-1.188 1.182,-1.188c0.653,0 1.181,0.532 1.181,1.188c0,0.657 -0.528,1.189 -1.181,1.189Zm71.517,-0.262c0.316,-0.004 0.498,-0.297 0.772,-0.861c0.116,-0.238 0.789,-1.504 1.412,-2.484c1.404,-2.21 1.405,-2.098 0.004,-2.963c-0.594,-0.367 -1.962,-1.499 -3.137,-2.567c-1.088,-0.989 -0.97,-0.755 -3.313,1.601c-1.528,1.537 -2.471,1.969 -1.875,2.779c1.448,1.248 2.636,2.16 4.206,3.354c1.038,0.778 1.572,1.147 1.931,1.141l0,0Zm-14.832,-0.6l3.22,-3.172l-3.628,-3.306l-3.009,3.108l3.417,3.37Zm55.143,1.076l-0.035,-24.81c-3.54,-6.087 -7.175,-12.229 -9.066,-19.078l-5.193,2.559c2.484,20.269 8.262,31.508 14.294,41.329Zm9.245,-1.558c-0.653,0 -1.181,-0.531 -1.181,-1.188c0,-0.657 0.528,-1.188 1.181,-1.188c0.653,0 1.182,0.531 1.182,1.188c0,0.657 -0.529,1.188 -1.182,1.188Zm-64.426,-1.324l-1.553,-1.432l1.429,-1.561l1.568,1.63l-1.444,1.363Zm-58.095,-0.233c-0.653,0 -1.185,-0.531 -1.185,-1.188c0,-0.657 0.532,-1.188 1.185,-1.188c0.653,0 1.182,0.531 1.182,1.188c0,0.657 -0.529,1.188 -1.182,1.188Zm3.174,-0.12c-0.653,0 -1.185,-0.531 -1.185,-1.188c0,-0.657 0.532,-1.188 1.185,-1.188c0.653,0 1.181,0.531 1.181,1.188c0,0.657 -0.528,1.188 -1.181,1.188Zm69.061,0.077l-0.897,-0.668l-1.054,0.455l-0.077,-1.248l-0.959,-0.475l0.604,-0.885l-0.365,-1.163l1.039,-0.034l0.807,-1.065l0.725,0.7l1.413,-0.096l0.225,1.213l0.611,0.481l-0.475,0.803l0.348,1.068l-1.21,0.083l-0.735,0.831Zm52.024,-1.323c-0.653,0 -1.182,-0.532 -1.182,-1.188c0,-0.657 0.529,-1.189 1.182,-1.189c0.653,0 1.181,0.532 1.181,1.189c0,0.656 -0.528,1.188 -1.181,1.188Zm-3.402,-0.035c-0.653,0 -1.181,-0.536 -1.181,-1.192c0,-0.657 0.528,-1.188 1.181,-1.188c0.653,0 1.182,0.531 1.182,1.188c0,0.656 -0.529,1.192 -1.182,1.192Zm-68.433,-2.836l2.818,-2.646l-2.778,-2.912l0.084,-2.232l4.929,4.942l-5.009,4.945l-0.044,-2.097Zm27.866,0.575l10.578,-7.056l0.643,1.766l-9.429,6.209l-1.792,-0.919Zm-78.688,0.576c-0.653,0 -1.181,-0.536 -1.181,-1.192c0,-0.657 0.528,-1.188 1.181,-1.188c0.653,0 1.182,0.531 1.182,1.188c0,0.656 -0.529,1.192 -1.182,1.192Zm63.418,-0.718c0.489,-0.034 0.989,-0.616 1.938,-1.63c0.931,-0.996 2.03,-2.165 2.264,-2.331c0.735,-0.52 0.699,-0.646 -0.579,-2.089c-0.388,-0.438 -1.122,-1.333 -1.629,-1.992c-0.508,-0.658 -1.317,-1.482 -1.478,-1.652c-0.519,-0.547 -0.804,-0.432 -3.189,1.289c-2.897,2.091 -2.884,1.781 -0.22,5.238c1.532,1.99 2.264,3.212 2.893,3.167Zm57.536,-0.731c-0.653,0 -1.181,-0.531 -1.181,-1.188c0,-0.656 0.528,-1.188 1.181,-1.188c0.653,0 1.185,0.532 1.185,1.188c0,0.657 -0.532,1.188 -1.185,1.188Zm-62.04,-0.431l-1.912,-2.061l0.171,-0.206l1.741,2.267Zm-61.796,-0.459l0,-3.573l5.888,-5.469l0,3.268l-5.888,5.774Zm65.943,-1.044l-0.715,-0.99l-1.214,0.078l0.179,-1.166l-0.645,-0.474l0.63,-0.883l0.05,-1.115l1.002,0.24l0.821,-0.993l0.807,0.951l0.952,-0.111l-0.032,1.159l0.971,0.554l-0.686,0.754l-0.021,1.298l-1.413,0.053l-0.686,0.645Zm-29.131,-0.074l-0.588,-1.802l14.721,-9.632l1.286,1.485l-15.419,9.949Zm38.54,-1.206l-1.172,-0.888l15.452,-9.99l0.466,1.302l-14.746,9.576Zm45.195,0.383l0,-2.971l6.519,-6.316l0,3.068l-6.519,6.219Zm-61.188,-0.713l-0.189,0.156l-5.052,-4.878l0.954,-1.021l4.287,5.743Zm13.954,-1.432l-0.138,-28.814l1.347,0.937l-0.102,27.338l-1.107,0.539Zm-0.83,-0.665l-1.096,-0.971l1.05,-1.032l0.046,2.003Zm-72.483,0.246l0,-2.922l5.888,-5.623l0,3.056l-5.888,5.489Zm120.547,-1.404l0,-2.746l6.519,-6.264l0,2.774l-6.519,6.236Zm-60.752,-0.374c0.169,0.003 0.352,-0.107 0.618,-0.318c0.242,-0.191 0.835,-0.606 1.317,-0.92c1.774,-1.159 3.277,-2.245 3.344,-2.406c0.136,-0.331 -1.643,-2.666 -4.113,-5.465c-0.972,-1.1 -0.945,-1.313 -1.919,-0.334c-0.775,0.884 -3.614,3.306 -3.532,3.954c0.157,0.742 1.133,1.585 3.556,4.88c0.322,0.415 0.513,0.606 0.729,0.609Zm10.948,-0.301l-3.876,-5.576l0.517,-0.518l4.755,4.717l-1.396,1.377Zm7.572,-0.658l-0.007,-26.883l7.275,-5.196c-0.133,-0.07 0.893,16.152 3.675,24.803l-10.943,7.276Zm-18.091,-0.947l-0.713,-1.337l-1.078,0.182l0.142,-1.229l-0.914,-0.721l0.899,-1.249l-0.119,-0.89l1.058,0.241l0.964,-1.002l0.662,1.275l1.391,-0.022l-0.195,1.225l0.97,0.82l-1.059,0.629l-0.147,1.117l-0.912,-0.079l-0.949,1.04Zm-6.313,-0.208l-0.12,-1.099l0.649,0.567l-0.529,0.532Zm18.598,-1.952l0.011,1.572l-4.638,-4.501l4.736,-4.464l-0.033,2.12l-2.696,2.583l2.62,2.69Zm-38.331,0.87l-0.659,-2.005l9.529,-5.899l1.921,1.004l-10.791,6.9Zm-31.392,-3.313c-0.653,0 -1.185,-0.531 -1.185,-1.188c0,-0.657 0.532,-1.192 1.185,-1.192c0.653,0 1.181,0.535 1.181,1.192c0,0.657 -0.528,1.188 -1.181,1.188Zm60.646,-3.867l3.349,3.37l-0.421,0.458l-2.928,-3.828Zm-8.625,3.029c1.135,-0.976 3.556,-3.789 3.552,-4.253c-0.004,-0.463 -3.352,-3.374 -5.367,-4.666c-0.632,-0.405 -0.883,-0.418 -1.127,-0.05c-3.48,5.227 -3.628,5.051 -2.25,6.071c1.4,1.077 3.037,2.679 4.154,3.23c0.471,0.232 0.553,0.089 1.038,-0.332Zm12.548,-0.255l-5.519,-5.321l5.118,-4.963l5.312,5.635l-4.911,4.649Zm56.35,-0.402c-0.653,0 -1.182,-0.531 -1.182,-1.188c0,-0.656 0.529,-1.188 1.182,-1.188c0.653,0 1.181,0.532 1.181,1.188c0,0.657 -0.528,1.188 -1.181,1.188Zm-69.729,-1.069l-0.929,-0.831l-1.107,0.29l-0.249,-1.1l-1.068,-0.395l0.573,-1.119l-0.079,-1.41l1.075,0.202l0.746,-1.157l1.092,1.105l1.252,-0.106l-0.07,1.234l1.107,0.538l-0.702,0.81l0.439,1.11l-1.324,-0.21l-0.756,1.039Zm-52.762,-0.495c-0.653,0 -1.181,-0.532 -1.181,-1.188c0,-0.657 0.528,-1.189 1.181,-1.189c0.653,0 1.186,0.532 1.186,1.189c0,0.656 -0.533,1.188 -1.186,1.188Zm69.04,-2.805l-3.267,-3.362l-3.007,2.899l3.187,3.384l3.087,-2.921Zm-65.781,2.758c-0.653,0 -1.181,-0.531 -1.181,-1.188c0,-0.657 0.528,-1.192 1.181,-1.192c0.653,0 1.182,0.535 1.182,1.192c0,0.657 -0.529,1.188 -1.182,1.188Zm120.861,-1.239c-0.653,0 -1.181,-0.535 -1.181,-1.191c0,-0.657 0.528,-1.189 1.181,-1.189c0.653,0 1.182,0.532 1.182,1.189c0,0.656 -0.529,1.191 -1.182,1.191Zm-3.463,-0.011c-0.653,0 -1.182,-0.535 -1.182,-1.192c0,-0.657 0.529,-1.188 1.182,-1.188c0.653,0 1.181,0.531 1.181,1.188c0,0.657 -0.528,1.192 -1.181,1.192Zm-54.718,-0.265l-1.487,-1.542l1.376,-1.458l1.537,1.59l-1.426,1.41Zm-20.19,-1.057c0.761,-0.549 2.829,-4.487 3.183,-5.353c-0.002,-0.209 -0.997,-0.844 -2.243,-1.429c-1.061,-0.499 -4.506,-1.889 -4.823,-1.966c-0.693,-0.169 -0.812,0.096 -0.927,0.549c-0.061,0.24 -0.335,1.155 -0.64,2.151c-1.067,3.485 -1.387,3.321 0.201,3.85c0.547,0.182 2.265,0.765 3.347,1.267c1.073,0.497 1.557,0.937 1.902,0.931Zm-44.081,-0.631c-0.653,0 -1.185,-0.532 -1.185,-1.188c0,-0.657 0.532,-1.192 1.185,-1.192c0.653,0 1.182,0.535 1.182,1.192c0,0.656 -0.529,1.188 -1.182,1.188Zm56.447,-1.631l-0.185,-23.37l1.819,1.431l0.049,23.447l-1.683,-1.508Zm8.134,-3.982l5.02,-5.139l0.032,2.618l-2.811,2.559l2.862,3.01l-0.059,2.023c-1.831,-1.507 -3.395,-3.361 -5.044,-5.071Zm56.265,4.483c-0.653,0 -1.181,-0.531 -1.181,-1.188c0,-0.657 0.528,-1.192 1.181,-1.192c0.653,0 1.185,0.535 1.185,1.192c0,0.657 -0.532,1.188 -1.185,1.188Zm-77.485,0.051l-1.013,-0.85l-0.848,0.513l-0.488,-0.874l-1.218,-0.171l0.546,-1.336l-0.715,-1.031l1.188,-0.221l0.295,-1.424l1.164,0.696l0.885,-0.385l0.643,1.206l1.379,0.056l-0.753,1.311l0.709,1.036l-1,0.066l-0.774,1.408Zm15.495,-0.093l0.009,-2.061l2.185,-2.227l-2.193,-2.4l0.012,-2.396l4.54,4.648l-4.553,4.436Zm-23.293,-1.354c0.457,-0.014 0.462,-0.499 0.812,-2.08c0.076,-0.343 0.319,-1.261 0.537,-2.042c0.661,-2.367 0.745,-2.411 -1.297,-2.818c-1.182,-0.177 -6.297,-1.375 -6.402,-0.555c-0.128,1.393 -0.211,4.672 -0.229,5.786c-0.045,0.374 0.042,0.726 0.414,0.77c2.332,0.28 4.926,0.896 6.165,0.939Zm19.928,-0.1c-2.906,-1.994 -5.717,-4.026 -9.056,-5.846l-0.084,-24.033l9.16,6.859l-0.02,23.02Zm-58.301,-0.069l0,-2.946l6.106,-5.863l0,2.815l-6.106,5.994Zm35.77,-1.022l-0.529,-1.14l-1.112,0.372l0.006,-1.362l-0.991,-0.629l1.195,-0.554l0.106,-1.657l1.211,0.375l0.998,-0.621l0.883,0.933l1.081,0.02l-0.397,1.474l0.698,0.672l-1.014,0.501l-0.083,1.315l-1.085,-0.653l-0.967,0.954Zm84.577,0.219l0,-2.84l6.647,-6.152l0,2.482l-6.647,6.51Zm-92.9,-1.78l-1.492,-2.536l0.539,-1.025l1,0.491l1.098,-0.408l-0.168,1.356l0.848,0.677l-0.858,0.793l0.039,0.995l-1.006,-0.343Zm39.371,-0.837l-5.096,-5.311l5.192,-5.391l5.096,5.387l-5.192,5.315Zm-66.818,-3.325l6.106,-5.703l0,2.775l-6.106,5.821l0,-2.893Zm120.347,2.32l0,-2.771l6.647,-6.263l0,2.568l-6.647,6.466Zm-53.541,-0.991l3.31,-3.293l-3.283,-3.313l-3.316,3.232l3.289,3.374Zm-0.045,-1.888l-1.417,-1.462l1.355,-1.415l1.461,1.429l-1.399,1.448Zm5.684,-2.024l-5.053,-5.217l0.58,-0.688l4.478,3.497l-0.005,2.408Zm-10.847,-0.422l-0.135,-2.355l2.757,-2.366l-2.518,-2.656l-0.069,-2.446l4.79,4.958l-4.825,4.865Zm-58.88,-2.391c-0.654,0 -1.182,-0.531 -1.182,-1.188c0,-0.656 0.528,-1.188 1.182,-1.188c0.653,0 1.181,0.532 1.181,1.188c0,0.657 -0.528,1.188 -1.181,1.188Zm120.795,-1.436c-0.653,0 -1.181,-0.531 -1.181,-1.188c0,-0.657 0.528,-1.192 1.181,-1.192c0.653,0 1.182,0.535 1.182,1.192c0,0.657 -0.529,1.188 -1.182,1.188Zm-24.194,-0.728l3.729,-5.608l-2.938,-1.979l2.783,-3.761l-2.896,-3.501l2.915,-2.514l-2.957,-5.09c1.175,0.233 2.371,1.022 3.453,1.569l2.23,4.265l-2.565,2.218l2.603,3.037l-2.73,3.252l2.737,1.931l-2.985,4.617l-3.379,1.564Zm-98.014,-0.747c-0.653,0 -1.182,-0.532 -1.182,-1.189c0,-0.656 0.529,-1.188 1.182,-1.188c0.653,0 1.181,0.532 1.181,1.188c0,0.657 -0.528,1.189 -1.181,1.189Zm73.331,0.092l-25.735,-19.945l0.105,-2.647l25.74,19.891l10.929,-7.759l-0.098,2.824l-10.941,7.636Zm-70.181,-0.252c-0.653,0 -1.181,-0.531 -1.181,-1.188c0,-0.656 0.528,-1.188 1.181,-1.188c0.654,0 1.182,0.532 1.182,1.188c0,0.657 -0.528,1.188 -1.182,1.188Zm59.9,-2.546l0.27,-0.052l2.808,2.061l-0.612,0.693c0,0 -1.841,-2.044 -2.466,-2.702Zm57.409,1.149c-0.653,0 -1.185,-0.536 -1.185,-1.192c0,-0.657 0.532,-1.188 1.185,-1.188c0.653,0 1.182,0.531 1.182,1.188c0,0.656 -0.529,1.192 -1.182,1.192Zm3.185,-0.016c-0.653,0 -1.185,-0.531 -1.185,-1.188c0,-0.657 0.532,-1.188 1.185,-1.188c0.654,0 1.182,0.531 1.182,1.188c0,0.657 -0.528,1.188 -1.182,1.188Zm-122.231,-1.569c-0.654,0 -1.182,-0.535 -1.182,-1.191c0,-0.657 0.528,-1.189 1.182,-1.189c0.653,0 1.181,0.532 1.181,1.189c0,0.656 -0.528,1.191 -1.181,1.191Zm120.807,-1.316c-0.653,0 -1.182,-0.535 -1.182,-1.192c0,-0.656 0.529,-1.188 1.182,-1.188c0.653,0 1.181,0.532 1.181,1.188c0,0.657 -0.528,1.192 -1.181,1.192Zm-123.525,-2.213l0,-2.624l5.772,-5.625l0,2.534l-5.772,5.715Zm77.898,-0.788c-0.859,0.008 -2.009,-0.036 -3.556,-0.089c-1.326,-0.046 -2.791,-0.075 -3.255,-0.062c-1.835,0.049 -2.434,-0.578 -2.468,-2.571c-0.029,-1.772 -0.022,-1.766 -2.328,-1.863c-2.78,-0.118 -3.514,-0.835 -3.552,-3.475c-0.015,-1.028 -0.841,-1.431 -2.46,-1.2c-2.551,0.365 -3.047,0.012 -3.343,-2.372c-0.246,-1.99 -0.114,-1.888 -2.452,-1.872c-2.514,0.018 -3.075,-0.406 -3.104,-2.352c-0.017,-1.13 -0.291,-1.469 -1.263,-1.557c-1.039,-0.094 -1.486,-0.63 -0.973,-1.161c0.093,-0.097 0.574,-0.156 1.332,-0.167c1.602,-0.023 2.13,0.482 2.429,2.329c0.207,1.282 0.337,1.349 2.467,1.289c2.717,-0.076 2.929,0.09 3.224,2.474c0.252,2.046 0.594,2.257 2.931,1.813c1.698,-0.323 2.598,0.43 2.818,2.353c0.248,2.157 0.343,2.236 2.753,2.321c2.415,0.086 3.088,0.513 3.108,1.973c0.033,2.261 0.317,2.466 3.286,2.376c1.441,-0.044 2.917,-0.018 3.765,0.07c1.799,0.187 1.789,0.196 1.969,-1.542c0.269,-2.596 0.647,-2.835 4.062,-2.582c1.426,0.106 1.528,0.039 1.625,-1.052c0.123,-1.366 0.626,-2.208 1.012,-1.693c0.202,0.27 0.204,0.295 0,2.295c-0.227,2.238 -0.252,2.255 -3.154,2.031c-1.967,-0.152 -1.872,-0.224 -2.082,1.572c-0.255,2.186 -0.216,2.689 -2.791,2.714Zm42.352,0.205l0,-2.88l6.744,-6.297l0,2.791l-6.744,6.386Zm-20.952,-3.385l-1.468,-2.015l0.476,-3.749l1.246,-0.944l-0.883,-1.782l0.283,-2.19l0.35,-0.201l2.448,4.779l-2.898,2.564l2.97,3.642l-2.805,3.802l2.912,2.058l-3.498,5.18c-0.607,0.74 -0.642,-2.199 -0.642,-2.199l1.449,-2.207l-1.621,-1.407l-0.004,0l-0.005,-3.491l1.69,-1.84l0,0Zm-1.852,1.698l-0.158,4.7l1.264,0.985l-0.975,1.63l0.066,4.164l0.294,0.203c2.431,29.807 16.943,47.419 19.214,51.414c0,0 0.504,0.408 0.412,1.432c-0.04,0.444 -0.06,3.072 -0.042,5.839c0.091,14.129 -0.027,23.808 -0.027,23.808l10.667,11.434l-0.061,-4.184l-0.524,-0.379l0.002,-19.048l0.443,-0.025c0,0 0.137,-5.122 0.102,-8.639l-0.635,-0.018l0.039,-13.089l0.54,-0.065l-0.031,-8.48l-0.588,0.001c0,0 -0.138,-8.891 0.073,-13.215l0.438,-0.027l-0.03,-8.429l-0.496,-0.038l-0.033,-12.057l0.612,-0.093l-0.166,-7.959l-0.499,-0.028c-0.179,-4.917 -0.094,-13.418 -0.094,-13.418l0.57,-0.026l-0.14,-7.902l-0.409,-0.027l0.119,-13.872l0.373,-0.045l-0.143,-8.193l-0.402,-0.037l0.068,-6.814l0.276,-0.047l0.066,-2.548l-0.295,-0.676l-0.019,-9.078l0.225,-0.099l0.066,-4.56l-16.545,16.82l6.091,0.184l-0.004,5.436c-0.002,8.971 -0.121,16.211 0.147,24.961c0.08,0.078 0.683,0.175 1.343,0.214c3.135,0.184 3.986,0.44 3.997,1.196c0.013,0.936 -1.408,2.095 -2.587,2.112c-0.267,0.004 -0.714,0.27 -0.714,0.27l0.379,99.537l7.402,7.796l-0.032,2.475l-9.12,-9.707l-0.343,-99.484l-0.346,0.161l-0.026,33.41c-4.674,-7.029 -7.296,-13.996 -9.896,-20.962c0,0 -0.92,0.318 -0.957,0.338c-0.008,0.007 0.328,0.117 0.328,0.117c2.652,8.903 6.009,15.359 10.362,22.097l-0.063,32.379c-11.146,-15.831 -16.534,-30.069 -18.773,-50.59l5.641,-2.833l0.547,-0.735l4.261,-2.142l0.408,0.684l2.583,-1.799c-1.995,-3.501 -1.922,-8.532 -0.295,-11.197l-0.7,-0.438c-0.048,-0.192 -2.677,5.449 0.264,11.186l-1.925,1.192c-2.776,-5.77 -1.487,-11.986 -0.18,-13.588c0,0 -2.01,-1.287 -3.453,-2.075c-1.57,-0.858 -2.965,-1.642 -4.847,-2.251c-1.159,-0.474 -1.896,0.083 -1.892,0.095l-0.563,3.221l0.895,1.228l-1.043,0.845l-0.475,4.932l1.12,1.138l-1.151,1.282Zm-97.446,-1.317l0,-3.177l5.772,-5.499l0,3.127l-5.772,5.549Zm120.25,-3.403l6.744,-6.224l0,2.588l-6.744,6.367l0,-2.731Zm-117.956,-4.234c-0.653,0 -1.185,-0.536 -1.185,-1.192c0,-0.657 0.532,-1.188 1.185,-1.188c0.653,0 1.182,0.531 1.182,1.188c0,0.656 -0.529,1.192 -1.182,1.192Zm115.263,-1.925l-0.006,-29.323l1.78,-0.001l-0.083,29.682l-1.691,-0.358Zm5.956,0.267c-0.653,0 -1.181,-0.532 -1.181,-1.188c0,-0.657 0.528,-1.188 1.181,-1.188c0.653,0 1.182,0.531 1.182,1.188c0,0.656 -0.529,1.188 -1.182,1.188Zm-119.537,-1.134c-0.653,0 -1.181,-0.531 -1.181,-1.188c0,-0.657 0.528,-1.192 1.181,-1.192c0.654,0 1.186,0.535 1.186,1.192c0,0.657 -0.532,1.188 -1.186,1.188Zm-3.185,-0.05c-0.653,0 -1.181,-0.532 -1.181,-1.189c0,-0.656 0.528,-1.188 1.181,-1.188c0.653,0 1.185,0.532 1.185,1.188c0,0.657 -0.532,1.189 -1.185,1.189Zm120.877,-1.786c-0.654,0 -1.186,-0.536 -1.186,-1.192c0,-0.657 0.532,-1.188 1.186,-1.188c0.653,0 1.181,0.531 1.181,1.188c0,0.656 -0.528,1.192 -1.181,1.192Zm-60.883,-0.035c-6.161,-0.767 -4.529,-7.266 -1.931,-8.616c3.535,-1.656 6.367,1.679 4.109,5.059c-1.657,2.48 -4.809,0.84 -3.591,-1.878c0.686,-1.531 2.108,-1.352 2.095,0.196c-0.508,1.472 -0.042,0.947 0.355,0.428c1.246,-1.63 -1.269,-3.36 -2.561,-1.751c-0.793,0.988 -0.96,2.16 -0.688,3.097c0.463,1.6 2.301,2.537 4.379,1.055c2.484,-2.994 3.811,-6.869 4.545,-11.203c1.561,-9.225 1.64,-18.93 2.98,-21.391l1.459,0.035c-2.121,10.557 -2.132,19.593 -4.396,27.916c-1.12,4.126 -3.98,7.062 -6.755,7.053Zm64.114,-0.051c-0.653,0 -1.181,-0.535 -1.181,-1.192c0,-0.657 0.528,-1.188 1.181,-1.188c0.653,0 1.182,0.531 1.182,1.188c0,0.657 -0.529,1.192 -1.182,1.192Zm-24.997,-0.163c1.625,-0.032 3.274,-1.385 3.147,-3.114c-0.154,-2.098 -1.39,-3.033 -3.425,-2.822c-1.087,0.112 -1.058,0.13 -1.791,-1.189c-0.659,-1.186 -2.398,-6.252 -2.41,-7.019c0.836,1.115 2.787,3.184 4.587,3.098c1.934,-0.141 3.561,-1.984 2.1,-4.593c-0.777,-1.28 -2.16,-1.529 -3.565,-1.107c-2.103,-3.29 -2.5,-6.586 -3.169,-10.41c0,0 -0.831,8.185 -1.082,11.45c-0.478,5.004 -1.158,8.245 -3.084,12.213c1.606,0.931 3.325,1.663 5.054,2.333c0.687,0.266 1.409,0.271 2.09,0.717c0.47,0.318 1.007,0.454 1.548,0.443Zm-97.737,-0.667c-0.653,0 -1.182,-0.532 -1.182,-1.188c0,-0.657 0.529,-1.192 1.182,-1.192c0.653,0 1.181,0.535 1.181,1.192c0,0.656 -0.528,1.188 -1.181,1.188Zm94.409,-2.625c-1.217,-1.99 -2.404,-4.861 -2.509,-6.669c-0.042,-1.196 0.194,-2.665 0.396,-4.039c0.099,-0.679 0.354,-0.016 0.816,1.451c1.914,6.089 2.421,7.254 3.752,6.95c0.757,-0.173 1.546,-0.202 2.062,0.084c1.687,0.936 1.842,4.073 -0.621,4.673c-1.947,0.426 -3.2,-1.313 -3.896,-2.45Zm0.044,1.513c-2.454,-0.972 -4.022,-2.438 -3.574,-4.822c0.196,-0.898 0.328,-1.637 0.567,-1.542c0.276,0.111 0.656,1.187 1.419,3.038c0.173,0.599 1.922,3.314 1.588,3.326Zm-40.625,-0.103c-0.13,0.019 -0.333,-0.104 -0.61,-0.365c-1.936,-1.916 -0.886,-6.235 1.692,-7.479c1.061,-0.734 3.014,-0.614 3.024,0.096c0.004,0.276 -0.058,0.351 -0.329,0.355c-2.169,-0.017 -4.474,3.013 -3.835,6.24c0.079,0.485 0.225,1.129 0.058,1.153Zm67.47,-1.049c-0.653,0 -1.182,-0.532 -1.182,-1.188c0,-0.657 0.529,-1.192 1.182,-1.192c0.653,0 1.185,0.535 1.185,1.192c0,0.656 -0.532,1.188 -1.185,1.188Zm-69.504,-0.365c-0.136,0.02 -0.606,-0.183 -0.917,-0.56c-1.824,-2.21 -0.343,-5.973 2.523,-7.264c1.094,-0.595 2.016,-0.184 1.784,0.428c-1.952,0.815 -3.795,2.922 -3.602,5.805c0.074,1.011 0.41,1.561 0.212,1.591Zm38.648,-0.402l-0.663,-0.316l0.274,-0.578c0.128,0.346 0.125,0.48 0.389,0.894Zm-40.722,-0.239c-0.145,0.004 -0.47,0.052 -0.778,-0.248c-1.179,-1.152 -1.365,-4.382 -0.233,-5.978c0.532,-0.749 2.18,-2.109 2.672,-2.246c0.573,-0.071 0.971,-0.156 1.923,0.28c0.32,0.01 -0.142,0.314 -0.744,0.663c-2.135,1.239 -3.55,3.45 -3.179,5.525c0.229,1.284 0.617,1.997 0.339,2.004Zm-2.162,-1.042c-0.565,-0.048 -1.003,-0.548 -1.272,-0.972c-1.402,-2.023 -0.237,-6.281 2.631,-7.163c1.909,-0.588 2.621,-0.032 1.075,0.875c-2.222,1.303 -3.374,3.85 -2.732,5.873c0.308,0.967 0.599,1.367 0.298,1.387Zm-2.313,-1.482c-0.668,-0.009 -1.185,-0.524 -1.42,-1.054c-0.553,-1.307 -0.467,-3.138 0.254,-4.426c0.718,-1.285 2.092,-2.353 3.618,-2.51c0.4,-0.037 0.746,0.023 1.047,0.153c0.671,0.291 0.44,0.334 -0.823,0.998c-2.011,1.057 -3.199,3.255 -2.894,5.684c0.114,0.911 0.478,1.154 0.218,1.155Zm72.84,0.443l0,-3.138l6.564,-6.231l0,3.065l-6.564,6.304Zm-55.774,-0.406c-0.125,-0.13 -0.867,-1.911 -0.96,-2.278c1.538,-2.223 1.972,-5.873 2.21,-8.637c0.868,-7.836 1.769,-17.298 2.163,-17.384l1.709,-0.039c-0.651,-0.437 -1.486,12.994 -2.811,21.502c-0.102,0.667 -1.521,7.233 -2.311,6.836Zm-19.859,-1.39c-2.255,-1.534 -1.051,-6.322 2.084,-7.506c1.138,-0.44 1.556,-0.497 2.072,0.007c0.324,0.318 0.634,0.425 -0.193,0.719c-2.318,0.608 -3.955,2.784 -3.563,5.312c0.046,0.615 0.621,2.239 -0.4,1.468Zm18.238,-1.326l-1.026,-0.662c1.106,-3.316 1.515,-7.225 1.967,-11.01c0.547,-4.579 1.03,-9.292 1.692,-13.787l1.569,-0.057c-0.818,2.778 -1.196,10.537 -2.008,17.038c-0.473,3.29 -0.988,7.815 -2.194,8.478Zm-1.78,-1.083l-1.315,-0.766c0.465,-1.85 1.014,-3.877 1.286,-5.818c0.604,-4.314 0.841,-9.547 2.23,-17.599l1.422,-0.121c-0.358,2.586 -1.036,8.346 -1.614,13.646c-0.671,6.154 -1.725,10.808 -2.009,10.658Zm59.175,0.208l0,-3.08l6.564,-6.077l0,2.837l-6.564,6.32Zm-61.399,-1.181c0,0 -1.131,-0.641 -1.274,-0.716c0.853,-3.399 1.271,-6.558 1.691,-9.64c0.568,-4.157 0.989,-8.2 1.772,-12.769l1.516,-0.096c-0.754,3.504 -1.618,11.735 -2.297,17.538c-0.394,3.37 -1.209,5.748 -1.408,5.683Zm36.137,-6.919c-0.019,-2.322 0.487,-5.922 0.487,-5.922c0.199,-0.114 0.819,5.272 2.983,7.709c2.636,-1.262 4.91,1.698 3.113,3.733c-3.509,3.034 -6.582,-3.446 -6.583,-5.52Zm-38.114,5.993l-1.834,-0.852c0.225,0.039 0.658,-1.231 1.08,-3.214c1.285,-6.039 2.561,-17.943 2.769,-17.938l1.415,-0.118c-0.459,3.198 -1.088,8.249 -1.747,12.718c-0.746,5.062 -1.442,9.377 -1.683,9.404l0,0Zm-2.549,-1.158l-1.394,-0.843c0.121,0.089 0.625,-1.411 0.87,-2.455c1.255,-6.024 1.821,-11.307 2.597,-17.15l1.52,-0.2c0.115,-0.168 -1.311,11.501 -2.488,17.395c-0.402,2.014 -0.993,3.32 -1.105,3.253Zm-2.174,-1.048l-1.494,-0.743c1.625,-4.623 1.775,-9.045 3.332,-18.324l1.579,-0.287c-0.636,5.94 -1.537,12.32 -2.832,18.134c-0.179,0.781 -0.568,1.203 -0.585,1.22Zm-2.136,-1.086l-1.681,-0.678l3.52,-17.036l1.418,-0.193c-0.883,4.911 -1.341,10.59 -2.532,15.066c-0.252,0.949 -0.394,2.015 -0.725,2.841Zm73.197,-2.698c-0.653,0 -1.185,-0.532 -1.185,-1.188c0,-0.657 0.532,-1.188 1.185,-1.188c0.653,0 1.181,0.531 1.181,1.188c0,0.656 -0.528,1.188 -1.181,1.188Zm-1.544,-2.788c-0.654,0 -1.186,-0.535 -1.186,-1.192c0,-0.657 0.532,-1.188 1.186,-1.188c0.653,0 1.181,0.531 1.181,1.188c0,0.657 -0.528,1.192 -1.181,1.192Zm3.077,-0.074c-0.653,0 -1.186,-0.531 -1.186,-1.188c0,-0.657 0.533,-1.192 1.186,-1.192c0.653,0 1.181,0.535 1.181,1.192c0,0.657 -0.528,1.188 -1.181,1.188Zm-1.475,-2.741c-0.653,0 -1.182,-0.535 -1.182,-1.192c0,-0.657 0.529,-1.188 1.182,-1.188c0.653,0 1.185,0.531 1.185,1.188c0,0.657 -0.532,1.192 -1.185,1.192Zm-10.693,-3.97l14.178,-14.442l0.044,2.886l-9.718,9.596l9.793,0.15l-0.022,1.953l-14.275,-0.143Zm6.499,-2.753l7.597,-7.292l0.063,7.415l-7.66,-0.123Zm-8.115,-0.533c0,0 0.041,-0.266 -0.672,-1.522c-2.073,-3.623 -2.551,-6.97 -4.384,-10.852c-0.912,-2.125 -2.965,-4.27 -3.424,-4.391l2.282,-4.199l-64.392,0.135l10.309,18.093c16.359,-3.045 31.057,-2.511 44.874,-0.077c0.792,-1.07 1.66,-3.248 2.492,-4.823c2.064,5.584 8.663,9.188 12.915,7.636Zm-2.344,-0.486c-3.403,0.049 -6.239,-1.578 -8.757,-5.028c-0.801,-1.099 -1.113,-1.595 -1.11,-2.057c0.085,-0.533 1.14,-2.24 1.14,-2.24c0,0 0.612,1.694 0.757,2.514c0.915,-3.388 1.28,0.538 1.632,1.574c1.116,-3.273 1.718,1.226 1.661,2.439c1.519,-2.098 1.421,1.349 2.162,1.989c0.018,-1.819 1.082,-0.574 2.46,-0.187c-0.721,-1.016 -2.124,-1.699 -0.332,-1.923c-1.787,-1.241 -2.683,-1.051 -0.948,-1.736c-1.337,-0.742 -3.538,-1.635 -1.105,-2.123c-1.487,-0.943 -3.879,-1.339 -1.307,-2.239c-1.942,-1.196 -4.529,-1.11 -0.891,-2.069c-1.318,-0.775 -3.641,-1.066 -1.042,-1.739c-0.401,-0.181 -1.097,-0.651 -1.097,-0.651l1.123,-1.783c0,0 0.405,0.033 0.681,0.323c1.192,1.252 2.353,3.557 3.392,6.787c0.764,2.375 1.674,4.885 2.677,6.969c0.542,1.102 0.492,1.157 -1.096,1.18Zm-57.506,-4.074l-8.899,-15.312l2.111,-0.033l7.857,13.11l10.6,-1.205l-3.49,-11.719l3.15,-0.087l3.127,11.53c5.918,-0.241 11.564,-0.307 16.485,0.09l1.668,-11.695l3.006,0.101l-1.904,11.576l9.947,1.279l5.396,-12.984l3.108,-0.059c-2.006,3.402 -7.015,14.388 -7.951,15.47c-21.668,-3.487 -32.919,-1.607 -44.211,-0.062Zm2.079,-3.55l-6.738,-11.779l10.824,-0.05l3.636,10.907l-7.722,0.922Zm40.496,-0.345c-2.135,-0.626 -4.433,-0.762 -6.748,-0.847l1.968,-10.539l9.591,0.019l-4.811,11.367Zm-26.996,-1.24l-2.545,-10.235l18.054,-0.093l-1.489,10.202c-4.739,-0.285 -9.368,-0.022 -14.02,0.126Z" style="fill-rule:nonzero;"/></g></g></g><path id="path147-0-8-1-3-6-4-3-4" d="M130.281,222.872c7.829,-0.17 11.34,-8.985 5.542,-15.83c-0.841,-0.998 -0.928,-1.571 0.612,-0.612c3.904,2.61 11.389,0.894 11.772,-7.087c0.474,-9.833 -13.266,-12.666 -15.846,-2.21c-0.136,1.103 -1.032,1.078 -0.816,-0.488c0.235,-4.25 1.562,-8.223 3.387,-12.097l-9.308,0c1.825,3.874 3.152,7.847 3.387,12.097c0.216,1.566 -0.68,1.591 -0.816,0.488c-2.58,-10.456 -16.32,-7.623 -15.846,2.21c0.383,7.981 7.868,9.697 11.772,7.087c1.54,-0.959 1.453,-0.386 0.613,0.612c-5.799,6.845 -2.288,15.66 5.541,15.83c0,0 0,0 0.008,0l-0.002,0Z" style="fill-rule:nonzero;"/><path id="path147-0-8-1-0-3-83-9-4-0" d="M47.725,26.128c7.829,0.17 11.34,8.985 5.542,15.83c-0.841,0.999 -0.928,1.571 0.612,0.612c3.904,-2.61 11.389,-0.894 11.772,7.087c0.474,9.833 -13.266,12.666 -15.846,2.21c-0.136,-1.103 -1.032,-1.078 -0.816,0.488c0.235,4.25 1.562,8.223 3.387,12.097l-9.308,0c1.825,-3.874 3.152,-7.847 3.387,-12.097c0.217,-1.566 -0.68,-1.591 -0.816,-0.488c-2.58,10.456 -16.32,7.623 -15.846,-2.21c0.383,-7.981 7.868,-9.697 11.772,-7.087c1.54,0.959 1.453,0.387 0.613,-0.612c-5.799,-6.845 -2.288,-15.66 5.541,-15.83c0,0 0,0 0.008,0l-0.002,0Z" style="fill-rule:nonzero;"/></g></g></svg>