<?xml version="1.0" encoding="UTF-8" standalone="no"?><!DOCTYPE svg PUBLIC "-//W3C//DTD SVG 1.1//EN" "http://www.w3.org/Graphics/SVG/1.1/DTD/svg11.dtd"><svg width="100%" height="100%" viewBox="0 0 178 249" version="1.1" xmlns="http://www.w3.org/2000/svg" xmlns:xlink="http://www.w3.org/1999/xlink" xml:space="preserve" xmlns:serif="http://www.serif.com/" style="fill-rule:evenodd;clip-rule:evenodd;stroke-linejoin:round;stroke-miterlimit:2;"><rect id="king-diamonds" x="0" y="0" width="178" height="249" style="fill:none;"/><clipPath id="_clip1"><rect x="0" y="0" width="178" height="249"/></clipPath><g clip-path="url(#_clip1)"><rect x="-2134.21" y="-747" width="2312.21" height="1245" style="fill:#fff;"/><g id="king_diamonds"><path id="path6351-0" d="M23.917,19.448c0.068,63.372 -0.046,141.083 0,210.104l130.177,0l0,-210.104l-130.177,0Zm38.101,1.192c22.466,0.614 45.072,-0.05 67.705,0.128c0,0 -8.223,14.422 -10.716,18.962c-0.545,0.998 -0.601,1.704 -0.307,2.118c0.455,0.64 0.418,1.724 -0.092,2.35c-0.218,0.269 -0.317,0.443 -0.334,0.603c-0.017,0.161 0.126,0.337 0.242,0.627c0.402,1.382 -0.636,2.339 -1.724,2.783c-0.729,0.298 -2.353,0.494 -3.551,0.437c-7.511,-0.359 -22.241,-6.75 -28.311,-7.248c-4.211,-1.184 -9.653,-0.77 -14.14,-0.515c-0.847,0.052 -0.698,-1.936 -0.698,-1.936c-0.707,-6.566 -5.326,-12.283 -8.074,-18.309Zm68.926,0.723l21.488,0l0,3.352l-9.095,9.22c-0.842,0.862 -1.505,1.577 -1.505,1.577l-0.054,8.319c-6.09,-3.295 -7.303,-7.232 -8.415,-11.562c-10.18,7.562 -10.657,24.111 0.456,32.631c0.091,-3.701 2.892,-10.973 7.856,-11.513l0.069,28.828l-6.104,-6.004l-13.273,0.174c2.188,-3.575 2.238,-6.414 0.822,-9.765c-2.386,-5.475 -6.068,-17.971 -5.786,-17.93c0,0 0.106,-0.268 0.407,-0.336c1.1,-0.247 1.8,-1.316 1.486,-2.602c-0.06,-0.413 -0.057,-0.316 0.223,-0.854c1.08,-1.855 -0.208,-3.87 -0.208,-3.87l11.633,-19.665Zm-70.416,0l7.967,14.551c0,0 -0.104,0.665 -0.062,1.055c0.063,0.562 0.249,1.062 0.568,1.585c0.211,0.347 0.367,0.82 0.415,1.257c0.079,0.719 0.079,0.72 1.125,1.67c0.22,0.199 0.262,0.322 0.18,0.529c-0.346,0.881 -0.143,2.682 0.542,4.833c0.864,2.716 1.088,2.68 -0.522,6.313c-0.336,0.758 -0.743,1.771 -1.179,2.702c-1.988,4.111 -2.295,5.226 1.117,7.418c0.961,0.617 1.242,1.152 1.002,2.382c-0.189,0.966 -0.227,1.584 0.234,2.13c0.299,0.353 0.571,0.411 0.496,0.684c-0.051,0.185 -0.275,0.99 -0.2,1.666c0.201,1.822 -1.89,4.506 -3.797,5.447c-0.382,0.272 -0.491,-0.06 -0.707,-0.441c-1.976,-3.484 -6.895,-2.072 -7.221,2.084c-0.086,1.099 -0.053,1.575 -0.334,1.809c-0.096,0.079 -0.384,0.244 -0.384,0.244c0,0 -7.361,4.82 -12.044,7.298c-0.305,0.162 -0.579,0.428 -0.795,0.472c-0.248,0.05 -0.433,0.005 -0.587,-0.151c-1.728,-3.31 -0.77,-7.219 -0.622,-8.605c-0.037,-0.491 -0.454,-0.58 -1.083,-0.588c-1.064,-0.012 -2.596,1.075 -2.929,2.088c-0.283,0.861 -0.465,1.419 -0.722,1.415c-0.258,-0.004 -0.383,-0.351 -1.025,-1.593c-1.334,-2.583 -1.54,-2.911 -2.787,-4.411c-0.995,-1.197 -1.843,-1.355 -2.818,-0.464c-0.678,0.62 -0.655,0.081 -1.232,-0.232c-0.996,-0.682 -2.493,-0.071 -2.53,0.889c-0.032,0.806 -0.038,1.412 -0.849,1.466c-0.903,0.059 -1.295,1.233 -1.04,2.907c0.133,0.881 0.16,1.022 -0.108,1.345c-0.873,1.053 -0.987,1.781 -0.507,3.251c1.37,4.191 3.354,7.013 5.218,10.824c0,0 -4.602,2.707 -7.414,4.28l0,-78.109l34.634,0Zm92.046,4.194l0.111,67.745l-10.166,-10.063c0,0 -0.198,-12.981 -0.188,-18.289c0.01,-5.307 0.086,-10.614 0.065,-11.601c-0.021,-0.987 0.053,-5.187 0.085,-9.498c0.067,-9.033 -0.755,-7.917 0.913,-9.65l9.18,-8.644Zm-19.868,8.123l0.56,1.635c-4.26,2.459 -9.472,16.154 0.096,26.21l-0.192,2.072c-10.029,-9.16 -8.173,-22.296 -0.464,-29.917Zm0.729,1.932c1.462,3.039 3.126,5.729 5.394,7.376c-1.221,2.936 -1.747,6.175 0.323,10.542c-1.452,0.802 -3.468,2.931 -5.556,7.291c-7.55,-7.68 -5.869,-18.815 -0.161,-25.209Zm-56.172,5.741c4.188,0.007 8.555,0.695 12.558,1.91c2.526,12.853 6.961,21.494 6.942,26.527c0,0 -0.35,-0.059 -1.094,-0.599c-1.824,-1.326 -4.219,-0.586 -5.502,1.102c-1.216,1.6 0.009,3.825 -0.614,4.758c-1.179,1.741 -4.214,4.958 -4.723,4.852c-0.369,-0.077 -0.31,-0.24 0.991,-2.25c1.355,-2.093 2.394,-3.99 1.946,-4.453c-0.189,-0.197 -0.29,0.219 -1.301,1.987c-2.373,4.15 -4.46,6.716 -5.287,6.382c-0.387,-0.156 -0.186,-0.5 1.571,-2.837c1.984,-2.64 2.535,-4.291 2.338,-5.022c-0.152,-0.561 -0.459,0.346 -1.283,1.968c-0.877,1.716 -2.464,3.629 -3.747,5.466c-0.406,0.665 -0.928,1.05 -1.597,1.353c-0.495,0.216 -1.285,0.569 -1.743,0.51c-0.235,-0.03 -0.072,-0.169 0.25,-0.487c2.531,-2.625 4.708,-5.552 5.943,-8.362c0.191,-0.368 -0.083,-0.893 -0.396,-0.506c-1.894,3.356 -4.531,7.543 -7.394,9.39c-0.615,0.396 -1.539,0.732 -2.373,0.661c-1.409,-0.041 -0.911,-0.356 0.373,-1.187c2.747,-1.777 6.603,-6.887 7.225,-8.694c0.147,-0.427 -0.016,-0.671 -0.288,-0.642c-2.26,3.642 -5.247,7.648 -8.719,9.325c-1.871,0.903 -4.23,1.081 -5.39,0.51c-0.85,-0.419 -0.637,-0.563 0.872,-0.661c3.63,-0.36 7.883,-3.792 9.989,-7.422c1.233,-2.011 0.368,-1.549 -1.04,0.39c-2.404,3.31 -7.176,6.483 -10.136,6.232c-2.993,-0.179 -4.715,-2.514 -4.33,-4.516c0.232,-1.21 1.086,-2.445 2.76,-2.798c2.866,-0.606 4.743,3.966 2.119,4.828c-0.893,0.294 -1.233,0.071 -0.91,-0.29c1.946,-0.857 1.081,-3.212 -0.56,-3.452c-1.033,-0.151 -2.23,0.549 -2.281,2.161c0.031,1.202 1.013,2.376 2.983,2.404c2.337,0.034 5.922,-1.66 8.097,-4.778c1.544,-2.383 0.122,-1.578 -1.029,0.012c-1.015,1.403 -4.295,3.366 -4.545,3.294l0.111,-1.616c0.05,0.279 5.05,-3.168 4.757,-5.733c-0.188,-1.862 0.083,-2.432 2.008,-2.409c1.439,0.018 3.269,0.526 3.801,1.191c0.548,0.658 1.162,0.865 0.89,-0.244c-0.441,-1.799 0.088,-2.096 -0.948,-1.755c-0.714,0.236 -1.349,-0.342 -2.065,-0.854c-0.789,-0.564 -1.786,-0.805 -2.976,-0.762c-0.889,0.033 -1.29,-0.021 -1.148,-0.866c0.1,-0.595 0.214,-1.136 0.043,-1.527c-0.279,-0.634 -1.392,-1.29 -2.65,-2.222c-1.484,-1.101 -1.209,-1.166 1.955,-8.509c1.328,-3.083 1.334,-3.716 0.537,-5.992c-1.259,-3.597 -1.457,-5.037 0.902,-5.54c1.336,-0.154 2.713,-0.23 4.108,-0.228l0,0Zm13.395,2.084l1.225,0.352c0.01,0.001 3.824,13.146 6.009,19.565c0.666,1.958 1.174,4.604 1.301,7.089c-0.06,3.423 -1.974,5.878 -4.308,6.147c-1.652,0.19 -3.444,-0.673 -4.265,-2.524c-0.692,-1.761 -0.17,-3.838 1.824,-4.554c3.452,-1.241 5.98,3.196 2.595,4.561c-1.751,0.707 -3.415,-0.566 -2.626,-2.048c0.553,-1.039 2.108,-0.927 2.476,0.146c0.3,1.143 0.796,0.604 0.584,-0.17c-0.642,-2.464 -3.787,-1.883 -4.039,0.387c0,2.813 3.059,3.474 4.884,1.894c1.413,-1.263 1.562,-3.544 1.209,-5.524c-0.486,-4.112 -2.797,-9.446 -4.438,-15.533c-0.82,-3.039 -2.007,-6.663 -2.431,-9.788Zm48.732,0.147l2.3,0.916l-0.054,7.631l-1.95,0.677c-2.552,-3.927 -0.43,-9.221 -0.296,-9.224l0,0Zm-46.612,0.495l1.685,0.653c0.923,5.387 5.275,15.684 6.811,23.369c0.428,4.619 0.496,5.974 -2.611,8.435l0,-0.035l-1.681,0c0,0 -0.008,-0.103 0.729,-0.657c4.069,-3.064 1.641,-9.817 0.104,-15.007c-2.678,-8.289 -5.07,-16.769 -5.037,-16.758l0,0Zm-15.753,0.537c-0.213,0.002 -0.43,0.011 -0.649,0.023c-2.542,0.138 -2.959,0.302 -2.967,0.858c-0.015,1.049 0.411,1.514 2.776,1.257c2.046,-0.223 5.01,0.097 7.052,0.982c2.33,1.009 2.883,1.247 3.72,1.681c2.103,1.09 1.735,0.006 -0.165,-1.252c-3.881,-2.57 -6.564,-3.588 -9.767,-3.549Zm18.34,0.371l1.582,0.607c0,0 0.418,1.242 0.568,1.952c1.54,6.877 5.726,14.61 6.216,22.654c0.111,2.636 -0.338,5.093 -2.257,6.282l-1.448,0c1.548,-1.55 2.579,-1.997 2.146,-7.384c-0.685,-6.918 -5.216,-15.562 -6.807,-24.111Zm2.807,1.117l1.459,0.541c1.68,9.287 10.009,23.161 4.707,29.856l-1.325,0c1.183,-1.857 1.671,-3.489 1.494,-5.996c-0.516,-8.438 -4.791,-16.627 -6.335,-24.401Zm2.445,0.855l1.571,0.483c2.131,9.408 10.324,24.826 4.484,29.09l-1.152,-0.031c4.4,-8.282 -2.27,-16.852 -4.903,-29.542l0,0Zm2.738,0.877c0.482,0.27 1.171,0.399 1.697,0.553c1.652,7.114 4.672,14.11 6.047,20.736c0.462,3.628 -0.328,6.344 -2.592,7.376l-0.484,0c2.032,-3.088 1.648,-6.982 0.565,-11.191c-1.458,-5.661 -4.289,-11.888 -5.233,-17.474Zm-24.74,0.124c-0.73,-0.007 -1.493,0.104 -2.3,0.363c-0.827,0.315 -0.725,0.971 0.042,0.835c0.26,-0.046 0.721,-0.128 1.025,-0.181c1.884,-0.331 4.206,0.352 7.019,2.068c0.679,0.414 1.417,0.813 1.601,0.951c0.516,0.388 1.068,0.386 0.879,-0.108c-0.076,-0.199 -1.16,-1.045 -2.12,-1.585c-2.051,-1.249 -3.958,-2.322 -6.146,-2.343l0,0Zm27.408,0.618l1.582,0.244c2.975,13.768 9.506,22.323 3.92,27.432l-1.398,0c1.529,-1.572 2.219,-4.034 1.712,-6.943c-0.517,-2.97 -2.041,-7.684 -3.305,-11.83c-1.466,-4.805 -2.645,-8.869 -2.511,-8.903Zm2.269,0.387c0,0 1.34,0.251 1.34,0.251c1.57,5.597 4.235,12.534 5.839,18.313c0.987,3.553 0.591,7.93 -1.612,8.736l-1.133,0.02c1.87,-2.516 2.137,-5.136 1.283,-8.524c-1.753,-6.955 -4.407,-13.025 -5.717,-18.796Zm8.27,0.008c1.354,5.802 4.602,14.653 5.77,17.709c1.553,3.121 1.088,7.743 -1.248,9.572l-1.105,0.023c1.335,-1.258 1.794,-3.375 1.581,-5.571c-0.601,-6.204 -4.962,-14.808 -6.542,-21.416l1.544,-0.317Zm-5.878,0.274l1.382,0.128c1.384,6.068 4.076,11.968 5.824,18.038c0.326,1.37 0.609,3.043 0.495,4.275c-0.239,2.583 -1.301,4.62 -2.234,4.62l-0.952,0c1.944,-2.333 1.85,-5.515 1.017,-8.934c-1.375,-5.651 -4.703,-12.465 -5.532,-18.127Zm-35.985,0.031c-0.576,0.003 -0.586,0.534 0.334,1.345c0.563,0.497 0.519,0.331 0.487,0.646c-0.137,1.344 0.074,2.574 0.622,1.191c0.147,-0.37 0.361,-0.787 0.576,-0.735c0.406,0.126 0.2,0.877 0.396,1.257c0.331,0.669 -0.021,0.833 -0.826,0.626c-0.579,-0.149 -0.612,0.166 -0.971,0.568c-0.629,0.703 -0.527,1.123 0.441,0.905c0.16,-0.036 0.295,0.01 0.419,0.038c0.302,0.07 0.578,0.263 1.297,0.816c0.925,0.71 2.234,1.657 3.083,1.802c1.361,0.231 1.057,-0.425 -0.057,-0.855c-0.955,-0.368 -2.139,-1.391 -2.135,-1.674c0,-0.217 0.303,-0.088 2.024,-0.564c0.746,-0.207 1.796,-0.669 2.238,-0.874c0.73,-0.338 0.765,-0.336 1.908,-0.301c1.947,0.058 2.244,-0.009 0.879,-1.029c-2.759,-2.061 -6.44,-3.402 -8.392,-2.547c-0.592,0.259 -0.578,0.1 -1.006,-0.147c-0.559,-0.323 -1.015,-0.469 -1.317,-0.468l0,0Zm39.49,0.186c1.913,7.417 5.612,14.063 6.511,21.099c0.204,2.013 -0.131,3.979 -1.792,5.679l-1.121,0.019c-0.165,0.003 1.565,-2.69 1.416,-4.994c0.045,-1.23 -0.09,-2.548 -0.438,-3.85c-2.172,-6.256 -4.312,-11.925 -5.973,-17.888l1.397,-0.065Zm-34.413,2.452c0.435,0.08 0.44,0.291 0.298,0.548c-0.225,0.404 -0.622,1.182 -0.622,1.182c0,0 -0.529,0.105 -0.638,-0.03c-0.179,-0.263 0.431,-1.521 0.781,-1.697c0.059,-0.034 0.124,-0.014 0.181,-0.003l0,0Zm1.204,0.223c0.058,-0.001 0.129,0.029 0.242,0.073c0.5,0.199 1.369,0.608 0.994,0.924c-0.445,0.375 -2.169,0.543 -2.085,0.387l0.576,-1.071c0.122,-0.228 0.176,-0.312 0.273,-0.313l0,0Zm-5.279,6.483c-0.045,0.002 -0.082,0.013 -0.112,0.031c-0.1,0.06 0.127,0.463 0.457,0.92c1.525,2.072 -0.586,2.686 -2.081,1.577c-1.419,-1.111 -3.61,-1.006 -3.294,0.159c0.112,0.41 0,0.61 0.795,0.622c0.704,0.01 0.886,0.05 1.52,0.487c2.427,1.672 5.563,-0.566 4.032,-2.965c-0.29,-0.453 -1.005,-0.849 -1.317,-0.831l0,0Zm5.989,3.235c-0.881,0 -1.438,0.662 -0.334,0.861c3.943,0.712 1.299,4.828 -1.482,2.708c-2.506,-2.278 -5.857,-2.262 -5.897,-0.646c-0.008,0.407 0.013,0.421 0.607,0.534c1.396,0.265 3.482,0.905 4.28,1.31c0.47,0.238 0.964,0.461 1.098,0.495c1.67,0.611 3.812,-0.183 4.236,-1.599c0.387,-1.296 0.074,-3.663 -2.508,-3.663Zm-49.453,13.245c0.528,0.006 1.089,0.471 1.489,1.152c0.926,1.573 2.051,4.217 2.768,5.675c0.181,0.367 0.188,0.695 0.177,0.87c0.057,0.854 0.341,1.177 0.845,0.792c0.495,-0.378 1.182,-1.012 0.376,-1.113c-0.811,-0.615 -1.262,-1.519 -0.76,-2.069c0.369,-0.404 0.225,-0.667 -0.073,-0.684c-1.136,-0.017 -2.829,-3.419 -2.031,-4.152c1.077,-0.988 2.268,0.236 4.803,5.3c1.117,2.237 1.169,4.684 0.211,3.472c-0.325,-0.306 -0.259,-0.147 -0.641,0.816c-0.287,0.723 -0.522,1.067 -1.616,2.126c-1.332,1.289 -2.139,2.308 -2.169,2.532c-0.058,0.427 0.719,0.028 1.286,-0.715c1.266,-1.245 1.313,-1.577 1.301,0.073c-0.01,1.493 -0.086,1.765 0.181,1.755c0.416,-0.016 0.639,-1.196 0.833,-2.621c0.232,-1.283 0.894,-1.93 1.996,-2.644c0.303,-0.196 0.308,-0.331 0.25,-0.897c-0.204,-1.813 0.82,-5.192 1.286,-4.357c0.065,0.188 0.268,0.628 0.376,0.936c0.087,0.477 0.386,1.015 0.841,1.051c0.566,0.427 0.564,0.657 0.76,2.219c0.064,0.51 0.288,1.275 0.446,1.682c0.292,0.757 0.554,1.201 0.391,1.426c-0.103,0.112 -0.322,0.321 -0.322,0.321l-9.23,5.509c0,0 -0.724,0.403 -0.987,0.514c-0.731,0.333 -1.176,0.087 -1.535,-0.464c-1.956,-2.932 -3.299,-6.227 -4.673,-9.266c-0.825,-1.804 -0.017,-2.997 1.049,-1.542c0.414,0.565 0.202,0.925 0,2.018c-0.038,0.197 0.145,0.122 0.487,0.177c0.539,-0.058 0.799,0.427 0.779,1.249c-0.34,1.178 0.131,0.542 0.354,0.483c0.426,0.007 0.521,0.265 0.76,0.754c0.149,0.69 0.451,0.49 0.891,0.035c0.363,-0.376 0.364,-0.367 -0.369,-1.249c-1.267,-1.382 -3.024,-4.502 -3.478,-6.402c-0.126,-0.524 -0.08,-0.942 0.015,-1.221c0.572,-1.298 1.369,-1.302 2.238,0.51c0.148,0.309 0.439,0.806 0.645,1.106c0.334,0.486 0.541,0.904 0.53,1.677c-0.257,0.649 -0.299,0.662 -0.077,0.75c0.551,0.22 1.53,1.222 1.574,2.119c0.045,0.911 0.198,1.395 0.91,0.854c0.812,-0.616 0.467,-0.864 -0.334,-1.654c-0.838,-1.005 -0.889,-1.877 -0.391,-2.602c0.081,-0.243 0.047,-0.312 -0.261,-0.282c-0.974,0.095 -1.921,-1.147 -1.244,-2.092c0.311,-0.553 0.275,-0.696 -0.165,-0.711c-0.23,-0.008 -0.608,0.036 -0.795,-0.069c-0.288,-0.544 -0.889,-1.304 -0.883,-1.926c0.284,-0.874 0.724,-1.227 1.19,-1.221l-0.004,0Zm57.846,0.046c1.6,0.988 3.184,2.017 4.983,2.486c-4.167,7.556 -10.867,11.605 -16.474,13.186c0.191,0.967 0.326,1.931 1.255,2.524c-0.032,-0.146 -0.443,-1.862 -0.353,-2.215c7.724,-1.986 14.524,-9.605 16.263,-13.534l33.946,-0.371c-25.165,24.308 -26.168,58.519 -5.636,87.193l-2.361,1.388c-15.821,-23.863 -15.66,-46.854 -10.915,-62.251c3.365,-10.916 9.403,-19.256 13.991,-24.022c0,0 -18.406,-0.255 -27.566,0.085c-1.331,2.05 -2.569,3.724 -4.358,5.66c0,0 4.655,-4.526 4.534,-5.312c8.49,-0.005 17.245,-0.499 25.723,0.097c-9.921,11.955 -14.811,24.298 -15.66,35.909c-0.032,1.51 -0.122,0.666 -0.618,1.222l-1.566,2.447l-1.256,-2.544c-0.853,-0.278 -2.532,0.17 -3.244,-0.089c-3.49,15.68 0.037,34.604 4.63,46.954c0,0 -1.153,0.651 -2.572,0.541c-1.553,-0.347 -1.933,0.085 -3.279,0.36c-1.547,0.296 -2.087,0.294 -2.43,0.688c-0.191,0.219 -0.535,0.525 -0.925,0.738c-3.77,1.379 -8.193,6.549 -8.193,6.476l-4.151,-1.875c3.824,-7.562 8.313,-10.283 16.202,-13.639l-0.733,-3.378c-8.403,3.151 -13.751,6.925 -17.968,14.257c-5.117,-0.074 -25.843,-0.22 -25.865,-0.155c8.454,-9.681 15.12,-24.282 15.849,-35.666c0.178,-2.217 -0.13,-1.151 0.844,-1.813l1.532,-1.836l1.202,1.809c0,0 0.87,1.115 1.42,0.185c1.542,-15.875 -0.089,-33.976 -7.686,-46.594c1.348,-0.09 2.69,-0.127 3.981,0.642c2.972,6.775 4.723,15.146 5.483,21.42c0.962,7.942 0.826,16.899 -0.154,24.505l0.507,0.07c1.481,-9.885 0.979,-20.399 -0.38,-29.589c-0.698,-4.794 -2.944,-12.292 -4.488,-15.753c-0.427,-0.957 -0.758,-1.204 -0.353,-1.345c9.257,-0.785 13.513,-3.895 16.839,-8.861l0,0Zm-25.67,0.835c0.709,0 1.283,0.578 1.283,1.291c0,0.713 -0.574,1.291 -1.283,1.291c-0.708,0 -1.282,-0.578 -1.282,-1.291c0,-0.713 0.574,-1.291 1.282,-1.291Zm69.583,0.657c-2.711,2.471 -4.888,5.031 -7.176,7.759c6.77,9.374 14.294,19.537 20.621,27.656c0,0 2.189,-1.306 2.18,-1.469c-0.008,-0.086 -0.175,-0.517 -0.215,-0.421c-0.093,0.225 -1.773,1.171 -1.773,1.171l-20.022,-26.458c0,0 1.085,-1.308 1.421,-1.72c1.555,-0.515 5.884,-5.914 6.096,-5.803c3.392,2.617 13.621,13.707 17.561,17.107l0.05,30.783c-0.407,1.232 -11.313,5.978 -19.016,23.686c-3.873,2.185 -8.164,3.361 -12.155,5.261c0,0 1.016,1.609 1.513,2.049c-0.61,-1.326 -0.717,-1.579 0.664,-2.145l28.821,-11.83l-0.053,2.389c-2.89,2.251 -22.003,16.173 -27.881,19.461c-27.577,-38.713 -9.998,-71.818 6.074,-87.298l3.29,-0.178Zm-89.804,2.092c0.753,0.012 0.563,1.77 0.284,2.377c-0.555,0.44 -1.11,0.049 -1.098,-0.773c0,-0.268 -0.048,-0.521 -0.115,-0.564c-0.417,-0.268 0.281,-1.05 0.929,-1.04Zm16.843,1.098c0.633,0.484 0.868,1.129 1.102,1.774c-0.855,-0.135 -3.143,-0.796 -2.07,-1.31l0.968,-0.464Zm-4.166,2.284c19.89,30.288 19,62.457 -3.198,86.842l28.084,-0.043c3.575,-7.102 9.53,-11.432 17.15,-14.098l0.664,2.23c-8.757,2.831 -13.188,7.524 -16.712,14.025l-33.493,0c12.868,-13.941 18.763,-25.718 19.691,-41.65c0.884,-15.172 -2.95,-29.029 -14.593,-45.701l2.407,-1.605Zm5.606,0.348l4.691,2.231l-0.695,4.848l-4.914,-2.281l0.918,-4.798Zm-8.458,1.361c25.084,38.209 14.326,65.085 -5.701,87.452l-3.69,0.062l-8.6,-8.045l0.157,48.884c0,0 -8.385,8.271 -9.348,9.262c-0.952,0.923 -1.666,-0.495 -1.666,-0.495l0.023,-64.802l0.372,-2.54l0.115,-13.963l5.345,-2.838l20.04,26.45c0,0 -0.805,1.195 -1.178,1.407c0.427,0.963 1.848,-1.438 1.969,-1.825c-7.27,-9.068 -20.785,-26.824 -20.785,-26.824l-5.629,2.957c0,0 0.163,-11.593 0.062,-16.043c0.216,-1.05 0.998,-0.769 1.524,-1.237c7.319,-4.789 13.353,-11.665 18.486,-23.4c3.9,-1.278 7.993,-3.094 11.909,-4.724l-5.64,-8.524l2.235,-1.214Zm-15.373,0.487c-0.211,-0.003 -0.749,0.243 -1.478,0.909c-1.344,1.228 -3.115,3.246 -3.121,3.63c0.361,0.131 0.68,-0.078 0.968,-0.372c1.124,-1.671 2.862,-2.324 3.881,-3.788c0.158,-0.271 -0.009,-0.382 -0.25,-0.379Zm12.635,1.774c0,0 3.892,5.709 4.888,7.226c-10.255,4.088 -20.986,9.488 -30.492,12.981l0,-2.288c0,0 17.851,-13.477 25.604,-17.919Zm15.258,3.774l3.835,1.994l-1.083,4.357l-3.87,-2.18l1.118,-4.171Zm3.163,7.248l3.152,2.312l-1.44,3.695l-3.175,-2.199l1.463,-3.808Zm-25.719,2.71c0,0 -0.486,1.713 -1.302,3.247c-3.9,6.824 -7.717,12.888 -15.602,18.154c-0.3,-0.269 -1.16,-1.782 -1.16,-1.782l-0.076,-2.022c4.18,-3.382 7.789,-5.864 13.326,-15.788l1.605,-0.657l1.366,0.595l0.926,-1.662l0.917,-0.085Zm16.405,0.015c-3.634,7.763 -7.21,15.77 -13,21.819l15.845,22.271c5.214,-15.725 3.278,-30.462 -2.845,-44.09Zm-19.937,1.694l-0.76,1.326l1.317,0.765l0.76,-1.326l-1.317,-0.765Zm-2.15,0.143c-2.871,6.462 -7.179,11.434 -12.835,15.011l-0.218,-9.483l13.053,-5.528Zm1.01,1.929l-0.761,1.326l1.317,0.765l0.76,-1.326l-1.316,-0.765Zm32.384,0.278l2.856,2.729l-1.697,3.012l-2.929,-2.44l1.77,-3.301Zm43.759,1.341c0,0.002 -0.008,0.005 -0.008,0.008c-5.02,15.711 -3.512,30.718 3.375,43.781c3.379,-8.468 6.153,-14.134 12.75,-23.149c-4.062,-5.356 -15.709,-20.809 -16.117,-20.639l0,-0.001Zm-77.264,0.252l-0.799,1.302l1.294,0.805l0.798,-1.303l-1.293,-0.804Zm21.902,1.832c4.526,10.893 4.127,20.714 1.72,29.226l-11.302,-14.377c4.141,-5.176 6.891,-10.076 9.582,-14.849Zm-23.07,0.039l-0.856,1.264l1.256,0.866l0.856,-1.268l-1.256,-0.862Zm-1.263,1.809l-0.936,1.21l1.197,0.943l0.937,-1.21l-1.198,-0.943Zm37.237,1.287l2.561,2.447l-1.616,3.174l-2.6,-2.393l1.655,-3.228Zm-38.715,0.596l-0.983,1.163l1.156,0.99l0.983,-1.164l-1.156,-0.989Zm82.559,0.344l11.403,14.813c-3.814,4.571 -6.984,9.956 -9.817,15.761c-3.177,-10.023 -4.611,-19.872 -1.586,-30.574Zm-84.16,1.5l-1.052,1.105l1.098,1.059l1.052,-1.105l-1.098,-1.059Zm26.637,1.48l-5.218,7.596l5.982,7.69c0.644,-4.163 0.788,-8.994 -0.764,-15.286Zm-28.338,0.248l-1.121,1.036l1.029,1.128l1.121,-1.036l-1.029,-1.128Zm-1.647,1.48l-1.182,0.967l0.96,1.19l1.178,-0.966l-0.956,-1.191Zm44.563,0.785l2.142,2.52l-2.173,2.594l-2.035,-2.304l2.066,-2.81Zm27.235,0.452l1.455,0.054c-2.386,23.702 2.304,35.694 6.454,46.123c0,0 -0.01,0.418 -0.15,0.542c-0.676,0.234 -2.044,0.487 -3.14,-0.484c-5.583,-14.449 -6.801,-32.247 -4.619,-46.235l0,0Zm-73.713,0.306l-1.233,0.896l0.891,1.241l1.232,-0.896l-0.89,-1.241Zm91.197,0.842c-0.37,0 -0.692,9.752 0.702,14.513l5.249,-7.16l-5.951,-7.353Zm-13.568,1.609l1.755,2.373l-1.862,2.555l-1.905,-2.42l2.012,-2.508Zm-79.054,0.645c0.088,-0.014 0.233,0.233 0.515,0.429c0.262,0.276 0.224,0.256 -0.07,0.491c-0.459,0.369 -0.595,0.309 -0.587,-0.267c0.039,-0.473 0.073,-0.642 0.142,-0.653l0,0Zm48.006,1.782l1.939,2.795l-2.146,2.78l-1.835,-2.927l2.042,-2.648Zm30.894,3.541l2.043,2.505l-1.755,2.749l-2.23,-2.625l1.942,-2.629Zm47.292,0.53l0.181,2.888l-0.707,-1.056l-1.297,1.002l0.906,1.21l1.132,-0.89l0.07,1.164c-7.194,5.235 -10.296,11.247 -13.215,15.757l-1.298,0.553l-1.478,-0.472l-0.722,1.288l-1.255,0.297c-0.038,-0.008 2.52,-5.527 6.899,-11.145c3.899,-5.002 10.764,-10.642 10.785,-10.596l-0.001,0Zm0.833,4.519l0.062,10.268l-12.873,5.007c3.341,-5.732 7.28,-11.052 12.811,-15.275Zm-3.198,-1.249l-1.175,0.971l1.014,1.171l1.171,-0.97l-1.01,-1.172Zm-1.808,1.547l-1.133,1.016l1.056,1.133l1.133,-1.024l-1.056,-1.125Zm-42.988,0.568l2.426,2.602l-1.777,3.073l-2.526,-2.439l1.877,-3.236Zm41.16,1.094l-1.063,1.094l1.163,1.125l1.064,-1.094l-1.164,-1.125Zm-1.673,1.728l-1.022,1.137l1.237,1.078l1.021,-1.136l-1.236,-1.079Zm-1.682,1.937l-0.948,1.198l1.286,1.002l0.948,-1.203l-1.286,-0.997Zm-36.972,1.84l3.033,1.983l-1.482,3.634l-3.029,-2.323l1.478,-3.294Zm35.505,0.015l-0.89,1.245l1.37,0.944l0.903,-1.288l-1.383,-0.901Zm-1.37,1.964l-0.826,1.288l1.386,0.896l0.822,-1.329l-1.382,-0.855Zm-1.225,1.945l-0.76,1.326l1.436,0.823l0.76,-1.341l-1.436,-0.808Zm-1.106,2.01l-0.76,1.326l1.59,0.692l0.629,-1.264l-1.459,-0.754Zm-30.161,0.82l3.106,2.118l-1.374,3.808l-3.279,-2.335l1.547,-3.591Zm44.935,3.746l0,78.481l-33.939,0c0,0 -1.599,-2.842 -4.945,-9.388c-1.417,-2.771 -2.614,-3.948 -2.737,-6.143c0.128,-1.288 -0.464,-2.751 -1.513,-3.34c-0.352,-0.197 -0.942,0.042 -0.745,-0.51c0.217,-0.607 -0.448,-1.541 -0.629,-1.74c-0.207,-0.351 -0.079,-0.436 -0.1,-1.743c-0.022,-1.263 -0.089,-1.791 -0.357,-2.745c-0.68,-2.409 -0.831,-3.613 -0.442,-4.863c1.01,-3.169 2.063,-5.6 3.425,-8.555c0.792,-1.729 0.671,-2.405 -1.759,-3.661c-1.819,-0.94 -2.06,-0.93 -1.831,-2.304c0.108,-0.643 0.207,-1.049 0.073,-1.361c-0.082,-0.189 -0.384,-0.455 -0.561,-0.607c-0.237,-0.204 -0.166,-0.625 0.077,-0.939c0.238,-0.308 0.24,-0.747 0,-1.481c-0.497,-1.542 0.627,-3.586 2.752,-4.998c0.94,-0.624 0.913,-0.495 1.893,0.541c2.863,3.028 7.118,1.126 7.126,-3.143c0,-1.33 -0.448,-1.251 0.802,-1.879c4.236,-2.714 12.931,-7.65 12.873,-7.515c0.566,1.162 0.755,2.154 1.114,3.406c0.309,1.073 0.268,1.155 0.153,3.243c-0.104,1.888 -0.161,2.327 0.28,2.448c2.51,0.278 3.082,-0.616 3.563,-2.247c0.208,-0.72 0.608,-0.574 0.856,-0.27c0.955,1.749 2.163,3.569 2.957,4.813c0.991,1.588 2.661,2.378 3.535,1.627c0.184,-0.617 0.336,-0.636 1.444,-0.382c1.344,0.307 2.109,-0.451 2.238,-1.446c0.052,-0.397 -0.236,-0.381 0.484,-0.773c1.785,-1.331 1.104,-3.147 0.837,-4.241c0.023,0.058 0.763,-0.453 0.779,-1.477c0.086,-5.317 -4.491,-12.974 -4.388,-12.776l6.685,-4.032Zm-43.073,3.061l3.632,1.767l-0.856,4.368l-3.732,-1.689l0.956,-4.446Zm35.341,1.624c2.091,2.442 3.604,6.513 4.384,9.166c0.385,1.321 0.432,2.829 0.088,3.038c-0.339,0.207 -0.498,-0.014 -0.434,-0.804c0.054,-0.657 0.073,-1.167 -0.207,-1.16c-0.812,0.211 -0.843,-1.027 -0.76,-1.318c0.056,-0.194 0.155,-0.331 0.2,-0.437c0.2,-0.479 -0.323,-0.414 -0.864,-0.421c-0.479,0.012 -0.603,-0.281 -0.58,-0.738c-0.014,-0.507 -0.68,-0.408 -1.06,-0.024c-0.346,0.352 -0.273,0.766 0.196,1.056c0.675,0.416 1.312,1.438 2.883,4.963c0.913,2.047 0.642,3.5 -0.445,3.484c-0.754,-0.023 -1.632,-2.102 -2.342,-3.634c-0.183,-0.396 0.276,-0.839 0.438,-1.052c0.417,-0.551 0.354,-0.725 -0.265,-0.734c-0.579,-0.009 -0.826,0.043 -1.175,-0.677c-0.131,-0.271 -0.227,-0.684 -0.18,-0.947c0.298,-0.794 -0.315,-0.985 -0.91,-0.68c-0.75,0.315 -0.745,0.988 0.399,2.091c0.737,1.217 0.544,1.133 -0.153,1.952c-0.146,0.29 -0.059,0.467 0.249,0.472c0.885,-0.272 1.849,1.333 1.586,1.883c-0.271,0.236 -1.013,1.092 -0.296,0.927c1.457,-0.399 2.344,1.75 1.486,2.478c-1.28,0.647 -1.584,0.445 -3.555,-3.521c-0.613,-1.232 -1.349,-2.555 -1.44,-2.691c-0.091,-0.136 -0.131,-0.499 -0.127,-0.792c0.086,-0.718 -0.218,-0.881 -0.837,-0.596c-0.465,0.112 -0.884,0.497 -0.295,0.862c0.687,1.194 0.93,1.387 0.553,1.69c-0.86,0.689 -0.487,0.661 0.476,0.854c0.471,0.143 0.711,0.387 0.84,0.68c0.498,1.125 1.38,2.712 1.467,3.035c0.292,0.825 -0.235,1.195 -0.956,1.16c-0.754,0.018 -1.1,-0.582 -1.467,-1.094c-1.371,-1.919 -2.359,-3.82 -3.758,-6l0.188,-2.037c0,0 0.367,0.08 0.572,-0.02c0.403,-0.195 0.642,-0.831 0.871,-1.677c0.368,-0.736 2.54,-2.41 3.371,-3.309c0.154,-0.102 0.283,-0.27 0.284,-0.372c-0.007,-0.329 -0.942,-0.109 -1.558,0.603c-0.906,0.81 -1.292,0.532 -1.263,-0.502c-0.089,-1.278 -0.864,-0.637 -0.903,0.611c-0.099,0.985 -0.439,1.586 -1.125,2.137c-1.293,1.042 -1.077,0.778 -1.017,2.223c0.105,2.521 -0.861,4.595 -1.493,3.221c-0.225,-0.488 -0.488,-1.043 -1.052,-1.067c-0.4,-0.018 -0.598,-0.413 -0.818,-1.388c-0.327,-1.578 -0.784,-2.594 -1.202,-4.048l12.006,-6.846Zm-32.192,5.431l4.184,1.678l-0.783,4.407l-4.146,-1.596l0.745,-4.489Zm31.907,0.406c-0.027,0.002 -0.06,0.009 -0.096,0.024c-1.178,0.897 -2.266,1.903 -3.551,2.675c-0.482,0.286 -1.045,1.027 -1.048,1.225c0,0.193 0.572,0.189 1.133,-0.058c0.532,-0.234 3.567,-3.103 3.57,-3.367c0.209,-0.232 0.189,-0.511 -0.008,-0.499l0,0Zm-38.427,5.351c0.99,-0.003 0.413,0.293 -1.746,1.801c-2.108,1.472 -5.582,6.128 -5.986,7.855c-0.183,0.785 0.311,0.846 0.868,-0.232c2.559,-4.953 7.4,-9.479 11.832,-9.278c2.172,0.099 3.345,0.689 1.548,0.948c-4.927,0.608 -8.61,3.438 -11.833,9.077c0,0.126 0.292,0.12 0.63,-0.097c2.95,-3.632 6.274,-8.442 12.113,-8.053c4.211,0.256 5.408,5.299 1.912,7.021c-3.048,1.5 -5.859,-2.154 -3.333,-4.322c0.82,-0.704 1.333,-0.395 0.545,0.324c-1.69,1.545 0.382,4.296 2.442,3.252c1.254,-0.529 1.761,-2.336 0.657,-3.7c-2.458,-3.034 -7.752,-0.727 -11.441,4.175c-0.387,0.516 -0.722,1.636 -0.396,1.515c0.573,-0.237 0.919,-0.689 1.256,-1.198c1.316,-1.839 2.328,-2.761 4.111,-3.75c1.378,-0.763 1.463,-0.62 0.949,0.704c-0.217,0.558 -0.391,0.743 -0.926,1.09c-2.246,1.545 -3.641,3.614 -3.697,4.933c-0.04,0.962 0.659,2.22 -0.1,2.478c-1.286,0.612 -4.796,0.113 -5.743,-1.106c-0.681,-0.876 -0.946,-0.369 -0.434,1.056c0.338,0.94 0.323,1.472 0.833,1.376c0.645,-0.344 1.088,-0.263 2.338,0.425c0.603,0.332 1.672,0.641 2.323,0.792c1.187,0.276 1.435,0.16 1.409,0.677c-0.008,0.159 0.046,0.605 0.011,0.885c-0.192,1.558 1.099,2.088 2.86,3.112c1.03,0.599 0.623,1.214 -0.568,4.179c-0.619,1.341 -1.148,3.146 -1.912,4.508c-0.714,1.53 -0.775,3.205 -0.315,5.114c0.855,3.544 1.47,5.344 -0.053,5.664c-3.919,0.597 -12.575,0.572 -17.3,-1.257c-1.208,-9.133 -7.613,-22.683 -6.791,-26.187c1.639,2.489 8.512,1.83 6.442,-5.126c0,0 0.563,-0.848 1.682,-1.991c2.884,-2.946 3.596,-3.434 2.226,-0.839c-1.053,1.995 -2.396,4.599 -2.426,5.103c-0.024,0.402 0.287,0.495 0.53,0.174c0.18,-0.238 0.393,-0.816 0.579,-1.256c1.72,-4.053 4.659,-7.707 6.685,-8.586c0.521,-0.227 0.495,0.015 0.134,0.46c-2.383,2.986 -4.204,5.747 -5.498,9.351c-0.057,0.372 0.466,0.527 0.634,0.174c2.235,-4.717 2.904,-5.788 5.651,-9.112c1.08,-1.306 2.084,-1.965 2.887,-1.894c0.694,0.062 0.489,0.177 -0.153,0.866c-0.491,0.527 -1.216,1.259 -2.389,2.745c-2.067,2.62 -4.148,6.884 -3.382,6.661c0.132,0.355 0.785,-0.778 1.336,-1.86c1.512,-2.555 3.117,-5.931 6.706,-8.151c0.75,-0.313 1.569,-0.492 2.293,-0.5l0,0Zm-69.421,0.823l6.393,6.433l12.857,-0.167c-2.12,3.318 -0.988,8.461 0.181,11.466c2.291,5.892 5.648,15.62 5.402,15.761c0,0 -1.87,0.484 -2.039,1.678c-0.25,1.77 0.511,1.638 -0.587,3.236c-0.248,0.359 -0.089,1.038 0.176,1.577c0.175,0.395 0.341,0.991 0.015,1.454l-11.341,20.347l-21.73,0l0,-3.945l10.984,-10.986l-0.13,-8.084c5.878,1.76 7.896,7.866 8.4,12.39c10.617,-9.756 10.355,-24.445 0.322,-33.659c-1.955,9.739 -8.96,11.763 -8.807,11.57l-0.096,-29.071Zm79.96,1.156c0.688,0.05 1.616,0.161 2.246,0.502c-0.426,0.257 -0.73,0.563 -1.013,0.878c-0.345,-0.615 -0.809,-0.952 -1.233,-1.38Zm17.822,0.069c0.572,-0.001 1.275,1.686 0.871,2.08c-0.227,0.223 -0.965,0.307 -1.228,0.139c-0.338,-0.252 -0.166,-2.217 0.357,-2.219Zm-20.279,2.927c0.738,0 1.336,0.602 1.336,1.345c0,0.743 -0.598,1.346 -1.336,1.346c-0.738,0 -1.336,-0.603 -1.336,-1.346c0,-0.743 0.598,-1.345 1.336,-1.345Zm-56.548,1.917l0.964,0.024c-1.752,2.358 -1.988,4.388 -1.367,7.329c0.698,3.31 6.025,15.752 6.369,19.178c0.015,0.155 0.031,0.592 0.031,0.592l-1.309,0.089c0,0 -0.098,-0.354 -0.138,-0.491c-1.832,-6.204 -3.656,-10.935 -4.93,-14.551c-1.269,-3.9 -3.213,-9.682 0.38,-12.17l0,0Zm7.041,0.024c0.009,-0.002 0.017,0.001 0.023,0.004l0.926,0.008c-0.035,0.02 -1.382,2.928 -1.479,4.693c-0.109,2 0.371,4.178 1.029,6.328c1.555,4.651 3.83,9.832 5.095,15.703c0.014,0.068 0.154,0.638 0.154,0.638l-1.371,-0.186c0,0 -0.135,-0.601 -0.15,-0.684c-0.946,-5.164 -3.586,-10.527 -5.16,-15.61c-0.806,-2.311 -1.367,-5.151 -1.079,-7.322c0.204,-1.532 1.73,-3.542 2.012,-3.572l0,0Zm11.191,0.011c-0.979,1.528 -1.872,3.443 -1.934,4.945c-0.057,2.793 0.751,5.151 1.558,7.619c2.485,7.599 3.691,11.607 4.934,17.702l-1.321,-0.569c0,0 -0.051,-0.342 -0.081,-0.44c-0.705,-3.816 -0.75,-3.484 -4.895,-16.318c-0.971,-3.08 -1.897,-5.781 -1.716,-8.346c0.042,-1.461 1.307,-4.354 2.642,-4.585l0.813,-0.008Zm1.586,0l1.233,0c0,0 -0.679,0.724 -0.876,0.994c-2.153,3.006 -1.53,6.232 -0.461,10.078c1.471,5.291 4.191,11.209 5.613,19.275c0.027,0.149 0,0.928 0,0.928l-1.466,-0.596c-1.333,-7.395 -4.62,-15.063 -6.204,-21.714c-0.932,-3.905 -0.667,-6.374 1.485,-8.501c0.54,-0.419 0.676,-0.464 0.676,-0.464Zm-15.038,0.043l0.921,0c0,0 -1.541,2.548 -1.539,4.047c-0.258,2.685 0.708,5.651 1.816,8.76c1.703,4.778 3.954,10.555 4.645,13.596c0.027,0.12 0.119,0.665 0.119,0.665l-1.608,-0.085c0,0 -0.085,-0.736 -0.181,-1.075c-1.856,-6.539 -3.665,-10.768 -5.797,-16.739c-0.323,-0.903 -0.838,-4.476 -0.231,-6.792c0.477,-1.817 1.855,-2.377 1.855,-2.377Zm-2.469,0.004l0.995,0.027c0,0 -0.15,0.272 -0.53,0.928c-1.815,3.307 -1.002,6.327 0.123,9.691c1.5,4.489 3.854,9.971 5.325,15.158c0.083,0.293 0.195,1.175 0.195,1.175l-1.435,-0.019c0,0 -0.292,-1.057 -0.311,-1.171c-0.808,-4.809 -5.173,-12.824 -6.308,-18.924c-0.623,-3.272 -0.088,-5.298 1.946,-6.865Zm13.318,0c0,0 -1.568,2.738 -1.712,4.264c-0.281,2.991 0.661,5.467 1.739,8.841c1.86,5.82 4.485,12.65 4.719,15.772c0.008,0.103 0.046,0.484 0.046,0.484l-1.616,-0.58c0,0 -0.073,-0.326 -0.104,-0.441c-1.409,-5.649 -3.074,-11.275 -5.313,-17.617c-0.553,-2.139 -1.277,-4.292 -1.214,-6.131c0.329,-2.456 0.744,-3.118 2.197,-4.573l1.258,-0.019Zm7.111,0.004l1.301,0.027c0,0 -0.388,0.21 -1.317,1.206c-5.134,4.724 3.196,18.063 5.118,30.207c0.021,0.13 0.081,0.588 0.081,0.588l-1.432,-0.518c-0.136,-0.605 -0.238,-1.341 -0.403,-2.003c-1.557,-6.208 -3.634,-12.591 -5.54,-18.381c-1.07,-4.22 -1.461,-7.935 0.46,-10.013c0.602,-0.718 1.732,-1.113 1.732,-1.113l0,0Zm-13.388,0.008l1.386,0.038c-1.001,1.265 -1.589,3.235 -1.643,4.987c-0.053,2.073 0.497,4.088 1.175,6.22c1.39,4.373 3.375,9.126 4.738,15.027c0.076,0.39 0.141,0.641 0.176,0.812c0.057,0.27 0.211,0.699 0.211,0.699l-1.462,-0.294c0,0 -0.151,-0.382 -0.25,-0.583c-0.148,-0.302 -0.283,-0.688 -0.403,-1.148c-0.708,-3.079 -3.315,-10.063 -4.903,-14.961c-1.259,-3.087 -1.602,-8.481 0.975,-10.797l0,0Zm17.304,0.054c1.773,-0.066 3.375,1.449 3.755,2.872c0.367,1.511 -0.103,3.217 -1.755,4.059c-2.678,1.366 -5.561,-2.268 -3.448,-4.268c1.602,-1.516 3.972,-0.394 3.456,1.547c-0.333,1.263 -2.236,1.344 -2.55,0.069c-0.086,-0.424 -0.297,-0.848 -0.449,-0.614c-0.985,2.328 2.326,3.419 3.701,1.252c0.816,-1.737 -0.737,-3.974 -3.021,-3.549c-3.133,0.583 -3.493,4.586 -2.192,9.255c1.814,7.38 6.142,17.305 6.135,21.861c0,0.06 0.015,0.248 0.015,0.248l-1.375,-0.414c0,0 -0.009,-0.077 -0.019,-0.143c-0.824,-6.363 -5.518,-16.898 -6.864,-24.996c-0.584,-3.693 0.845,-6.373 4.058,-7.106c0.186,-0.042 0.369,-0.066 0.553,-0.073l0,0Zm-13.591,0.058c-0.964,1.297 -1.594,3.247 -1.624,4.639c-0.03,2.039 0.697,4.024 1.298,6.146c1.518,5.243 5.066,14.923 4.937,16.735c0.037,0.195 0.134,0.797 0.134,0.797l-1.37,-0.41c0,0 -0.055,-0.087 -0.158,-0.336c-0.457,-1.8 -2.63,-9.509 -5.064,-16.175c-0.936,-2.68 -1.392,-4.768 -1.328,-6.545c0.198,-2.451 0.895,-3.475 1.962,-4.84l1.213,-0.011Zm26.099,8.69c-3.553,0.204 -3.211,4.565 -1.01,5.304c0.788,0.219 1.25,0.03 1.375,-0.143c0.142,-0.196 -0.017,-0.497 -0.534,-0.572c-1.493,-0.494 -2.027,-2.264 -0.678,-3.007c0.736,-0.389 1.912,-0.139 3.331,0.919c2.535,1.891 5.642,2.009 5.237,0.097c-0.099,-0.464 -0.297,-0.526 -2.154,-0.781c-1.508,-0.207 -2.188,-0.687 -2.845,-1.044c-1.036,-0.562 -1.949,-0.796 -2.722,-0.773Zm-50.862,4.055c9.178,9.026 7.818,23.172 -0.023,30.254c-0.162,-0.572 -0.504,-1.972 -0.542,-1.933c5.897,-6.178 8.674,-16.305 0.139,-26.685c0.044,0.039 0.189,-0.75 0.426,-1.636l0,0Zm57.523,0.24c-0.087,0.002 -0.163,0.012 -0.23,0.035c-2.377,0.655 -2.87,3.02 -1.329,3.993c0.945,0.597 1.671,0.231 0.496,-0.491c-1.008,-0.618 -0.511,-2.244 0.71,-2.226c0.534,0.008 0.897,0.241 2.254,1.248c1.116,0.829 2.168,0.895 2.407,-0.228c0.142,-0.67 -0.08,-0.968 -0.791,-0.792c-0.314,0.077 -0.499,-0.108 -0.925,-0.406c-0.949,-0.663 -1.985,-1.146 -2.592,-1.133l0,0Zm-58.471,1.771c8.273,9.669 5.617,19.753 0.038,25.661c-1.532,-4.552 -5.287,-7.391 -5.287,-7.391c1.415,-3.161 2.259,-6.463 -0.388,-10.631c2.462,-2.24 4.502,-4.702 5.636,-7.639l0.001,0Zm53.753,3.529c-0.389,-0.007 -0.262,0.37 0.652,1.013c2.181,1.493 2.367,1.763 0.254,1.728c-0.536,-0.032 -1.375,0.351 -1.851,0.51c-2.758,0.927 -2.892,0.853 -4.211,0.542c-0.44,-0.104 -0.886,-0.289 -1.079,-0.113c-0.298,0.274 -0.633,0.455 -0.257,0.863c0.273,0.297 0.782,0.524 1.401,0.881c3.203,1.848 3.494,2.29 7.26,2.389c0.431,0.011 0.653,-0.214 0.906,-0.216c0.615,-0.008 0.937,0.144 1.559,0.715c1.138,1.045 1.191,0.285 0.514,-1.087c-0.355,-0.719 -0.665,-0.891 -0.491,-1.438c0.397,-1.247 -0.169,-1.495 -0.91,-0.39c-0.556,0.865 -0.619,0.845 -1.144,-0.267c-0.697,-1.389 -0.37,-2.03 0.687,-1.125c0.801,0.686 1.005,0.176 1.317,-0.367c0.409,-0.714 0.347,-1.355 -0.384,-1.299c-0.421,0.032 -0.814,-0.163 -1.144,-0.526c-0.648,-0.711 -1.89,-1.604 -3.079,-1.813Zm0.906,3.758c0.087,0.005 0.147,0.04 0.176,0.131c0.008,0.458 -0.304,1.392 -0.56,1.883c-0.082,0.218 -0.222,0.246 -0.419,0.286c-0.66,0.123 -0.706,-0.083 -0.587,-0.495c0.242,-0.636 0.442,-1.54 1.294,-1.801c0.035,-0.004 0.067,-0.006 0.096,-0.004l0,0Zm-1.678,0.317c0.267,-0.02 0.276,0.092 0.169,0.336c-0.191,0.412 -0.526,0.802 -0.776,1.125c-0.529,0.345 -1.39,-0.709 -1.009,-0.982c0.531,-0.212 0.931,-0.429 1.485,-0.464c0.05,-0.008 0.093,-0.012 0.131,-0.015l0,0Zm-59.266,0.688c0.142,0 0.287,0.028 0.437,0.093c2.002,2.721 1.866,6.863 0.311,9.154c-0.116,0.171 -0.234,0.202 -0.43,0.135c-0.669,-0.399 -1.519,-0.546 -2.153,-0.777l0,-7.967c0.653,-0.14 1.217,-0.64 1.835,-0.638Zm52.759,0.649c-0.153,0.008 -0.217,0.112 -0.024,0.313c2.92,2.128 6.937,4.593 10.643,3.638c0.34,-0.074 0.614,-0.261 0.549,-0.614c-0.041,-0.221 -0.418,-0.41 -0.826,-0.302c-0.849,0.226 -2.479,0.255 -3.148,0.147c-2.548,-0.421 -4.799,-2.062 -6.757,-3.023c-0.145,-0.112 -0.319,-0.164 -0.438,-0.159l0.001,0Zm-0.853,2.03c-0.13,-0.007 -0.12,0.125 -0.038,0.371c0.411,1.232 4.542,4.103 7.805,5.053c2.802,0.815 6.826,0.013 6.592,-1.326c-0.122,-0.699 -0.631,-0.866 -2.419,-0.638c-3.936,0.77 -7.725,-0.851 -10.6,-2.652c-0.775,-0.492 -1.172,-0.8 -1.34,-0.808l0,0Zm-25.776,1.685c1.719,-0.02 3.423,0.12 5.267,0.429c3.587,0.617 7.744,1.735 11.26,3.375c5.977,2.259 13.492,4.002 19.869,3.766c1.556,0.043 4.369,-0.09 4.914,-0.271c1.421,-0.321 1.814,-0.017 2.154,1.759c0.059,0.386 0.178,0.498 0.671,0.835c0.756,0.515 0.63,1.024 0.538,2.161c-0.077,0.956 0.497,1.494 2.799,5.772c2.62,4.868 5.175,10.526 5.175,10.526c-22.965,-0.016 -44.875,-0.874 -68.373,-0.139c2.113,-5.045 7.875,-14.143 11.486,-21.446c-0.873,-2.248 0.205,-2.629 -0.247,-3.162c-0.731,-1.249 -0.204,-3.001 1.342,-3.396c1.077,-0.125 2.113,-0.196 3.145,-0.209Z" style="fill:#131f67;fill-rule:nonzero;"/><path id="path6353-8" d="M49.263,227.811c0,0 7.526,-15.319 10.697,-19.909c4.562,-5.823 25.153,2.531 35.394,4.619c4.162,0.808 13.811,0.429 13.811,0.429l8.065,14.636l-67.967,0.225Zm-15.627,-17.406l-0.319,-47.691l2.356,1.48l0.54,47.905l-10.184,9.819l-0.056,-2.877l7.663,-8.636Zm6.164,-5.442c2.426,-4.916 -0.282,-10.919 -0.282,-10.917c1.407,0.35 5.328,-7.142 5.676,-6.926c6.001,7.41 7.041,18.451 -0.291,25.293c-1.85,-4.756 -5.079,-7.45 -5.103,-7.45Zm4.479,-33.73c4.559,-4.691 8.175,-8.346 11.789,-13.596c0.296,-0.427 -19.236,-25.408 -18.933,-25.846c3.013,-3.353 7.052,-5.817 10.195,-9.865c0,0 16.018,21.113 16.387,20.927c1.623,-6.607 2.811,-12.589 2.501,-19.495c-0.988,-17.671 -8.487,-28.488 -8.545,-28.275c-2.536,16.235 -27.459,40.825 -32.366,39.073l-0.028,-11.345c0.297,0.567 15.789,-10.037 19.874,-24.052c0.294,-1.007 12.315,-4.88 12.231,-5.028c-0.509,-1.316 -5.768,-8.807 -5.768,-8.807c0,0 2.125,-0.996 2.361,-0.993c6.816,8.535 11.96,19.779 13.711,30.485c2.123,11.532 3.496,33.211 -19.469,56.887l-3.94,-0.07Zm68.846,-29.833c-3.593,-11.23 -3.495,-22.858 -1.843,-30.976c2.521,-14.711 11.755,-25.244 19.16,-33.276l3.213,0.001c0,0 -3.841,4.003 -5.239,5.459c-2.398,2.771 -5.873,8.55 -5.873,8.55l19.165,25.224l10.924,-2.377c0,0 -0.329,11.284 0.01,11.284c-8.49,7.076 -14.592,13.48 -18.971,23.789c-2.685,1 -11.585,4.863 -11.585,4.863c-4.231,-1.041 12.589,-27.594 9.391,-28.044c-1.318,-1.094 -15.907,-20.912 -16.192,-20.871c-6.726,20.734 -0.165,42.507 11.668,57.714c-1.344,0.876 -2.559,1.558 -2.448,1.353c-5.068,-7.08 -9.509,-15.533 -11.379,-22.693l-0.001,0Zm-35.012,-10.395c0.759,1.182 4.168,-25.303 -4.793,-46.503c0.853,-0.651 8.246,-2.075 8.246,-2.075l1.989,6.348l-5.043,2.15l0.931,2.976c3.915,-1.912 12.394,-4.735 17.609,-13.458c0,0 25.341,-0.219 25.881,-0.174c0.526,0.044 -5.169,5.539 -10.569,16.662c-2.467,5.081 -4.429,11.654 -4.838,19.367c-0.081,1.524 -5.798,-7.165 -5.798,-7.165c1.425,-7.342 5.236,-14.569 9.034,-21.798c0,0 -5.827,-0.333 -9.899,-0.213c-6.331,6.966 -10.301,10.638 -19.846,13.965c3.481,11.228 24.775,16.625 20.039,15.599c-0.967,-0.229 -2.193,10.322 -1.168,22.212c0.197,9.507 5.278,25.355 5.456,25.227c0,0 -3.386,0.768 -3.658,0.222c0.572,-0.139 -5.037,1.291 -5.037,1.291l-2.007,-5.906l5.429,-2.515l-0.878,-3.334c-0.022,0.002 -11.978,3.643 -17.835,14.145l-26.191,0.031c10.101,-11.036 14.221,-21.951 16.415,-36.382c2.143,0.387 6.531,-0.672 6.531,-0.672l0,0Zm64.412,-95.276c3.294,-2.775 9.903,-10.001 9.903,-10.001l0.086,3.703l-7.501,7.854l0.076,48.496l-2.538,-2.448l-0.026,-47.604Zm-3.466,17.75c-1.351,0.648 -4.044,3.835 -5.327,7.417c-8.691,-7.818 -5.112,-22.185 -0.354,-25.176c1.38,3.137 5.377,7.296 5.285,7.209c-0.919,3.285 -1.623,6.617 0.396,10.55Zm-76.943,-32.557l67.023,0.119c-3.823,7.579 -7.331,13.706 -11.394,21.168c-2.115,2.568 -47.884,-8.293 -48.099,-7.211l-7.53,-14.076Z" style="fill:#e2cf00;fill-rule:nonzero;"/><path id="path6355-9" d="M25.887,218.158l-0.448,-63.678l7.619,7.452l0.452,48.901l-7.623,7.325Zm34.957,-12.34c-1.577,0.243 -0.684,-1.227 -0.396,-2.624c0.16,-0.779 -0.588,-1.511 -0.584,-1.749c0.02,-1.382 1.048,-1.966 5.709,-1.911c10.987,0.768 16.667,4.309 22.969,5.955c6.036,1.577 12.018,1.545 18.678,1.391c0.488,0.283 2.273,4.913 1.941,5.376c-15.066,2.989 -34.291,-8.148 -48.317,-6.438Zm27.154,-32.973c-1.588,-1.158 -3.077,-1.372 -4.55,-1.624c2.584,-4.576 5.713,-8.746 10.939,-11.356l2.432,6.058c-3.074,1.591 -6.091,3.485 -8.821,6.922Zm-31.739,-15.732c0,0 -2.255,3.712 -4.383,5.517c-6.328,-8.542 -20.476,-26.73 -20.476,-26.73l-6.003,3.061c0,0 -0.024,-3.521 0.112,-3.767c16.215,-8.414 27.341,-24.315 32.241,-39.206c0,0 2.611,2.682 2.267,3.817c-4.384,11.746 -11.881,23.525 -22.906,32.359l19.148,24.949Zm20.223,-17.329l20.471,0.029l0.907,7.166c-7.839,2.645 -14.308,8.048 -20.357,14.297l-9.71,-0.17c3.184,-7.023 7.607,-14.148 8.689,-21.322l0,0Zm75.79,-30.188c0.662,2.02 -0.008,4.199 0.25,4.108c-24.521,12.21 -31.528,39.01 -31.528,39.01c0,0 -2.328,-3.711 -2.221,-4.285c12.691,-28.403 21.183,-29.249 22.814,-32.334l-19.303,-25.153l4.366,-5.98l20.704,27.128c2.058,-0.954 3.231,-1.754 4.918,-2.494Zm-12.09,36.746c4.158,-7.53 8.448,-11.907 12.721,-14.918l-0.208,9.937l-12.513,4.981Zm-114.637,-29.553l0.106,-9.641l12.631,-5.473c-3.492,7.665 -8.233,11.773 -12.737,15.114Zm56.269,-8.668l-0.747,-6.781c7.668,-3.367 14.442,-7.871 19.91,-14.036c5.875,-0.284 9.887,0.117 9.856,0.037c0.01,-0.012 -5.589,8.256 -9.296,21.273l-19.723,-0.493Zm63.526,-71.227l6.979,-7.101l0.22,63.491l-7.01,-6.841l-0.189,-49.549Zm-61.337,51.598l-2.214,-6.283c3.483,-1.314 6.12,-4.177 8.577,-7.013c1.665,1.501 3.814,2.03 4.56,2.318c1.022,0.241 -7.061,10.012 -10.923,10.978Zm-13.084,-47.58c0,0 -0.871,-0.507 -0.775,-1.222c0.288,-0.927 -0.931,-3.024 -0.931,-3.024c14.862,-4.54 36.504,8.236 49.349,5.549c-0.107,0.903 0.041,1.98 -0.323,2.832c0.404,1.81 0.69,1.868 -1.065,2.973c-9.024,2.571 -18.535,-2.911 -27.349,-5.532c-7.191,-2.281 -13.032,-1.7 -18.906,-1.576Z" style="fill:#d40000;fill-rule:nonzero;"/><path id="path6357-5" d="M61.35,20.029l2.714,5.148l-0.469,0.32c0.739,1.24 1.367,2.635 2.123,3.865l0.545,-0.063c0.892,1.721 1.253,2.357 2.42,4.395l-0.527,-0.002c0.271,0.906 0.967,1.508 0.981,2.158c0.008,0.809 -0.199,1.63 0.294,2.178c0.585,0.649 0.655,0.829 0.535,1.209c-0.319,1.009 0.589,2.127 1.511,2.027c6.498,-0.875 13.119,-0.133 19.737,1.881c4.76,1.511 8.985,3.204 12.985,4.395c1.262,0.379 3.811,0.977 6.005,1.138c6.086,0.449 9.502,-0.799 8.477,-3.348c-0.082,-0.204 -0.264,-0.354 -0.28,-0.459c-0.03,-0.194 0,-0.403 0.345,-0.688c0.999,-1.027 0.441,-1.775 -0.168,-2.912c0,0 7.817,-14.059 11.721,-21.064l-68.949,-0.178Zm67.673,1.263l-5.704,9.917c-3.05,-0.556 -3.766,2.026 -3.813,2.389c-3.96,-1.022 -3.352,4.148 -1.365,4.498c0.128,0.75 -3.255,1.681 -5.038,-0.076c2.74,0.37 3.71,-3.281 0.363,-4.092c4.413,-3.303 -3.866,-8.248 -3.965,-1.415c-3.893,-0.691 -3.387,4.489 -0.917,4.892c-1.263,1.402 -4.977,1.441 -6.919,-1.515c3.303,1.727 5.089,-2.73 1.659,-3.978c4.234,-3.738 -4.056,-7.184 -3.862,-1.144c-3.125,-1.864 -5.274,2.889 -1.102,3.619c-0.238,0.855 -5.701,0.862 -7.087,-1.35c3.873,0.89 4.051,-3.858 0.633,-4.244c3.431,-4.385 -5.278,-6.602 -3.816,-0.619c-3.365,-1.34 -4.636,2.884 -1.359,4.241c0.182,0.672 -5.307,1.244 -7.228,-1.181c4.219,-0.637 2.742,-4.754 0.01,-4.424c0,0 0.039,-0.119 0.193,-0.519c1.29,-4.132 -5.646,-4.478 -4.685,-0.096c0.154,0.403 0.323,0.941 0.323,0.941c-1.912,-0.393 -3.08,0.392 -2.942,2.198c0.477,2.398 1.735,2.221 3.344,1.743c0.676,0.711 -3.883,3.085 -6.745,0.965c3.505,-1.014 1.73,-5.15 -1.203,-4.592c-0.122,-1.32 -1.547,-3.171 -3.404,-2.268l-1.966,-3.893l66.595,0.003Zm5.733,55.092l-4.118,0.061c-2.892,2.974 -23.836,22.399 -20.309,51.741c1.509,12.551 4.99,23.408 14.295,36.235l2.487,-1.469l0.38,0.256l25.788,-14.937l0.013,-4.536l-29.933,12.644c-0.594,-0.636 -0.943,-1.346 -1.443,-2.129l11.995,-5.133c0,0 0.288,-0.734 0.38,-1.072c3.944,-10.046 11.955,-17.319 18.93,-22.939c-0.037,-9.891 -0.083,-30.6 -0.083,-30.6l-18.035,-18.085c-2.313,2.129 -4.364,4.319 -6.415,6.695l20.707,27.445l-1.836,1.203l-20.489,-27.302c2.427,-2.938 5.061,-5.5 7.686,-8.078l0,0Zm18.396,17.844c0,0 -0.099,-47.119 -0.236,-69.872l0.001,0l-10.747,11.102l0.042,47.76l10.94,11.01Zm-0.914,-65.386l-7.592,7.888l0.085,48.547l-1.952,-1.936l0.001,-47.241l9.485,-10.007l-0.027,2.749Zm-73.89,-1.169c0.227,0.403 0.129,0.962 -0.236,1.417c-1.553,1.94 3.324,5.31 6.834,4.724c2.671,-0.445 4.948,-2.061 3.966,-3.289c-0.8,-1.001 -0.278,-2.014 0.683,-2.007c0.988,0.007 1.782,0.799 0.925,1.883c-1.905,2.412 1.001,5.241 5.444,5.3c3.142,0.041 4.189,-0.738 4.02,-2.992c-0.08,-1.056 0.126,-1.348 0.856,-1.508c1.165,-0.256 1.753,1.089 0.787,2.115c-2.087,2.215 0.285,5.472 4.231,5.682c1.444,0.077 1.729,0 3.34,-0.916c1.259,-0.715 1.704,-1.796 1.087,-2.636c-0.795,-1.081 0.276,-2.372 1.512,-1.84c0.884,0.38 1.319,1.062 0.342,2.219c-1.284,1.519 -0.676,2.772 1.797,3.618c1.926,0.659 3.26,0.577 4.161,-0.251c0.281,-0.258 0.905,-0.796 0.896,-0.632c-0.606,1.054 -1.143,2.032 -1.143,2.032c-4.034,1.813 -7.184,-1.579 -7.08,-1.706c-4.156,2.415 -7.842,1.906 -10.956,-2.151c-0.81,0.452 -6.607,1.516 -10.792,-3.109c-4.223,2.133 -8.149,1.238 -11.638,-1.147c-2.577,2.45 -5.295,2.838 -8.118,1.661l-0.837,-1.694c0.211,-0.08 1.121,1.698 5.54,0.87c1.484,-0.279 4.036,-2.789 2.607,-4.013c-0.655,-0.932 -0.674,-1.352 -0.096,-1.917c0.569,-0.557 1.54,-0.271 1.868,0.287Zm-10.825,2.221c0.247,0.481 0.28,1.281 0.008,0.801c-0.143,-0.254 -0.891,-1.384 -0.856,-1.419c0.348,-0.029 0.693,0.332 0.848,0.618l0,0Zm84.719,0.387l0.049,62.649l-6.466,-6.459l-0.31,-49.079l6.727,-7.111Zm-74.88,3.033l2.037,1.289l-3.646,-0.022l1.609,-1.267Zm11.446,1.079l1.71,1.672l-3.594,-0.759l1.884,-0.913Zm32.027,0.867l-0.764,1.577c-0.441,-0.496 -0.569,-1.548 0.764,-1.577Zm12.92,26.045c1.298,-2.933 3.034,-6.669 5.844,-7.857c-2.092,-4.186 -1.82,-8.371 -0.336,-10.665c-2.122,-1.989 -4.301,-4.373 -5.653,-7.8c-6.707,5.963 -7.785,18.21 0.145,26.322Zm-0.201,-25.176l0.462,1.145c-5.973,7.36 -4.129,17.022 0.197,22.178l-0.621,1.299c-5.288,-5.615 -7.602,-17.483 -0.038,-24.622Zm-35.706,4.163c6.921,2.045 12.464,5.232 20.465,2.393l0.038,1.568c-5.093,3.292 -15.239,-0.186 -22.093,-2.733c-11.017,-4.095 -19.592,-3.856 -25.717,-3.388c-0.539,-0.107 -0.968,-1.524 -0.104,-1.534c11.455,-0.127 9.604,-1.567 27.411,3.694l0,0Zm1.564,-2.774l2.273,2.428c-1.707,-0.54 -3.367,-1.139 -4.911,-1.883l2.638,-0.545Zm34.69,0.599l0.445,0.618c0.193,0.268 -1.257,0.407 -1.013,0.093l0.568,-0.711Zm-39.051,4.443c8.261,3.124 17.358,6.241 23.327,3.445c0,0 0.038,1.19 -0.644,1.528c0,0 -0.63,0.512 -2.737,0.804c-9.659,0.798 -15.929,-3.228 -23.726,-5.608c-2.957,-0.903 -7.709,-1.996 -12.587,-2.2c-2.897,-0.132 -7.329,0.286 -7.329,0.286c-0.966,-0.081 -0.952,-0.655 -0.96,-1.217c8.398,-1.128 16.121,-0.287 24.656,2.962Zm39.949,-2.995c0.107,-0.005 0.215,0.003 0.323,0.02l0.844,1.086l-1.002,1.604c0,0 -0.884,-0.819 -1.332,-1.623c-0.247,-0.521 0.421,-1.052 1.167,-1.087Zm-24.341,0.306l2.617,1.988c-1.967,0.097 -4.181,0.171 -6.372,-0.705l3.755,-1.283Zm22.159,1.012c0.206,-0.005 0.422,0.215 0.676,0.65c0.487,0.837 0.422,0.997 -0.522,1.303c-1.241,0.401 -1.339,0.313 -0.937,-0.808c0.273,-0.764 0.518,-1.138 0.783,-1.145Zm3.974,0.513l1.768,1.495c-0.976,2.559 -1.616,5.807 0.346,10.469c-0.218,0.014 -1.489,1.278 -1.888,1.493c-1.12,-0.473 -3.586,-9.711 -0.226,-13.457Zm-2.012,1.958l-0.449,2.829c-0.037,0.232 -1.957,-1.339 -1.778,-2.126c0.342,-0.934 1.511,-0.734 2.227,-0.703Zm-3.174,0.993c0.232,0.002 0.597,0.567 1.044,1.307c0.35,0.577 0.278,0.794 -0.495,1.496c-1.138,1.158 -1.362,0.78 -1.109,-1.191c0.124,-0.974 0.297,-1.614 0.56,-1.612Zm2.354,2.564c0.154,0.004 0.289,0.041 0.387,0.12l0.131,2.757c0.012,0.248 -2.137,-0.098 -2.419,-1.149c-0.357,-0.672 1.067,-1.745 1.901,-1.728Zm-2.836,2.33c0.154,-0.022 0.635,0.301 1.09,0.572c0.791,0.473 0.808,0.681 0.127,1.562c-0.801,1.036 -1.198,0.869 -1.321,-0.932c-0.045,-0.661 -0.094,-1.173 0.104,-1.202Zm3.153,1.054c0.069,0 0.131,0.02 0.184,0.066c0.381,0.328 0.963,3.091 0.718,3.379c-0.349,0.41 -2.182,-0.136 -2.591,-0.785c-0.39,-0.618 1.02,-2.659 1.689,-2.66l0,0Zm-2.245,3.253c0.211,-0.015 0.59,0.131 1.164,0.41c0.344,0.167 0.92,0.482 1.047,0.75c0.224,0.473 -0.148,1.173 -0.629,1.755c-0.318,0.384 -0.616,0.098 -1.232,-1.191c-0.496,-1.037 -0.701,-1.7 -0.35,-1.724Zm3.703,1.235c0.042,-0.001 0.08,0.008 0.115,0.027c0.624,0.349 0.52,1.384 -0.219,2.15c-0.887,0.919 -1.657,0.227 -1.044,-0.94c0.388,-0.738 0.852,-1.23 1.148,-1.237l0,0Zm-51.523,25.703c-0.54,0.025 -1.383,0.517 -1.75,0.994c-0.465,0.602 -0.871,0.523 -1.386,0.479c-0.614,-0.009 -1.547,0.128 -2.811,0.708c-0.716,0.328 -1.042,0.402 -2.092,0.456c-0.685,0.035 -1.372,0.128 -1.524,0.209c-0.153,0.08 -0.646,0.254 -1.094,0.386c-0.917,0.271 -0.591,0.533 -0.065,1.723c2.676,6.909 4.594,14.959 5.293,21.516c0.784,7.522 0.547,16.644 -0.498,23.61c-2.562,0.017 -4.171,-0.115 -6.869,-0.069c-1.84,15.065 -6.834,27.027 -16.813,37.785l26.978,0.07c3.091,-8.301 17.196,-14.632 17.66,-14.166l0.743,3.03c0,0 -10.147,1.46 -16.98,14.425c0.698,-0.426 3.244,-0.131 4.924,1.625c3.355,-4.284 8.86,-7.083 8.896,-7.018l0.185,-0.516c0,0 1.009,-0.346 1.896,-0.516c0.285,-0.054 0.868,-0.165 1.256,-0.301c0.598,-0.211 0.895,-0.436 1.819,-0.356c1.924,0.185 3.854,-0.377 3.813,-0.387c-5.726,-15.903 -7.08,-30.259 -4.843,-46.935c2.11,0.016 6.737,0.096 6.737,0.096c0.465,-4.685 1.054,-9.374 2.484,-13.798c1.835,-5.68 4.048,-10.959 7.611,-15.787c2.012,-3.032 3.77,-5.19 5.85,-8.032l-26.409,0.062c-3.495,5.914 -10.229,10.854 -15.641,12.912c-1.842,0.697 -2.102,0.594 -2.407,-0.279c-0.545,-1.558 -0.519,-1.492 0.922,-1.905c0.481,-0.139 2.02,-0.955 4.422,-2.088c5.099,-2.606 8.604,-7.376 10.666,-10.596c0.82,-1.272 0.269,-0.985 -1.133,-0.998c-1.284,-0.101 -1.871,-0.5 -3.025,-1.585c-0.425,-0.399 -0.608,-0.684 -0.802,-0.661c-1.508,2.18 -4.038,5.056 -6.013,5.907l0,0Zm6.198,-5.035c1.187,1.28 2.596,2.028 4.449,2.272c-2.962,4.681 -6.581,8.342 -10.741,10.567l-2.114,-5.989c5.183,-2.43 6.569,-4.864 8.406,-6.85Zm43.045,1.905c-27.93,26 -26.286,58.778 -6.728,85.403l-2.049,1.241c-18.37,-24.786 -21.693,-61.452 6.374,-86.755l2.403,0.111Zm-17.607,3.171l6.846,-0.014l-4.661,6.084l-6.254,-0.024l4.069,-6.046Zm-1.073,0.051l-3.808,6.045l-10.271,0.133c-6.146,7.629 -12.748,11.351 -19.468,13.891l-1.312,-6.515c0,0 10.641,-2.583 17.532,-13.637l17.327,0.083Zm-10.437,0.5l-2.381,2.652l2.473,2.532l2.257,-2.571l-2.349,-2.613Zm5.39,-0.062l-2.411,2.524l1.881,2.54l2.499,-2.466l-1.969,-2.598Zm-11.89,0.46l-0.411,3.97l3.102,1.025l0.453,-3.395l-3.144,-1.6Zm18.871,0.148l-2.251,3.544l3.39,0.054l2.37,-3.528l-3.509,-0.07Zm-35.44,0.906l2.197,6.132l-1.929,0.937l-1.957,-6.405l1.689,-0.664Zm-2.601,0.983l2.266,6.344l-1.897,0.63l-2.081,-6.603l1.712,-0.371Zm2.715,25.047c0.253,8.822 0.378,14.141 -1.087,21.896c-0.076,0.405 -1.65,0.046 -1.65,0.046c0.199,0.067 0.887,-8.764 0.832,-14.31c-0.104,-10.563 -1.882,-21.012 -5.999,-31.48c0.784,-0.484 2.72,-0.73 2.72,-0.73c2.598,7.938 4.901,16.477 5.184,24.578l0,0Zm-27.422,-24.462c9.017,12.046 15.461,28.387 14.383,44.511c-1.033,18.749 -8.092,29.554 -20.49,42.538l-3.199,0.075c14.676,-14.17 21.17,-26.296 21.682,-42.294c0.589,-18.401 -4.992,-30.638 -14.392,-43.68l2.016,-1.15Zm-28.84,16.559l0.031,4.387l30.719,-13.266l-4.431,-6.572l-26.319,15.451Zm71.995,-14.372l-3.344,0.17l0.111,3.398l3.486,-0.085l-0.253,-3.483Zm29.808,-0.646l19.906,26.284l-4.925,3.684l-18.978,-24.698l3.997,-5.27Zm-15.602,1.796l5.958,0.092l-2.304,3.849l-5.759,-0.046l2.105,-3.895Zm-1.101,0.094c-2.739,5.131 -6.518,10.98 -8.64,20.434l-19.615,0.017c-0.037,-2.158 -0.314,-4.317 -0.634,-6.475c8.453,-3.115 15,-7.771 19.815,-13.925l9.074,-0.051Zm3.627,0.271l-2.557,1.485l1.563,1.809l2.818,-1.086l-1.824,-2.208Zm-23.347,1.891l-0.845,3.348l3.179,1.233l0.588,-3.978l-2.922,-0.603Zm18.29,2.501l5.717,0.035l-2.408,4.84l-5.662,-0.085l2.353,-4.79Zm13.611,-0.634l18.837,24.587l-1.766,1.407l-18.409,-24.033l1.338,-1.961Zm-11.442,1.024l-2.576,2.161l1.939,2.254l2.376,-1.909c0.051,-0.041 -1.739,-2.506 -1.739,-2.506Zm-25.001,0.178l-0.791,3.255l3.306,0.886l0.591,-3.491l-3.106,-0.65Zm-4.572,2.165l-0.672,3.205l3.113,0.847l0.657,-3.089l-3.098,-0.963Zm-25.708,-0.321c0.16,-0.033 -0.52,3.814 -1.522,4.507c-0.478,0.332 -0.726,0.258 -1.141,-0.193c-0.286,-0.31 -1.581,-2.438 -1.581,-2.438l1.106,-0.56c1.343,2.162 1.342,1.117 1.85,-0.726l1.288,-0.59Zm-5.163,2.215c0.439,-0.003 0.97,0.546 1.571,1.608c0.868,1.537 0.839,1.637 -0.588,2.08c-2.568,0.684 -3.523,0.849 -2.733,-0.858c0.85,-1.837 1.187,-2.826 1.75,-2.83Zm7.646,-0.305l1.758,3.03c-7.048,18.07 -18.416,31.032 -34.064,38.876l-0.036,-3.002c18.449,-10.574 26.014,-23.065 32.342,-38.904l0,0Zm47.922,1.307l5.548,0.1l-1.482,4.272l-5.897,-0.043l1.831,-4.329Zm-57.234,-0.187c-4.516,10.835 -10.686,20.289 -23.022,28.27l-0.049,-2.879c13.854,-8.406 19.842,-24.153 19.841,-24.158l3.23,-1.233Zm70.119,-0.018c3.285,0.09 6.739,3.696 6.388,6.668c-0.246,2.095 0.152,3.649 0.718,2.791c1.252,-1.894 4.938,-0.635 4.905,1.64c-0.017,1.211 -0.821,1.41 -1.282,0.317c-0.681,-1.615 -2.595,-1.654 -2.878,0.038c-0.265,1.587 1.071,2.752 4.642,4.052c4.184,0.988 6.702,4.764 5.214,6.935c-0.517,0.573 -0.828,0.715 -0.925,0.417c-0.028,-0.085 -0.131,-0.533 -0.227,-0.993c-0.474,-2.275 -1.557,-3.231 -2.873,-2.45c-0.659,0.392 -0.575,0.91 -0.191,1.594c0.513,0.91 0.192,1.264 -0.725,0.8c-1.448,-0.733 -1.927,-2.468 -0.523,-3.269c1.669,-0.672 1.104,-0.817 -1.029,-1.542c-4.54,-1.562 -6.488,-4.427 -6.726,-9.885c0.087,-2.488 -0.251,-3.375 -1.413,-3.715c-1.064,-0.311 -2.269,1.05 -1.505,1.766c0.415,0.39 0.754,0.744 0.534,0.959c-0.706,0.69 -2.471,-0.43 -2.453,-1.631c0.011,-0.786 0.306,-0.948 1.474,-1.871c0.324,-0.256 0.048,-0.739 -0.426,-0.746c-1.785,0.579 -1.659,-1.798 -0.699,-1.875l0,0Zm-10.284,0.63l-2.774,1.605l1.445,2.032l3.071,-1.453l-1.742,-2.184Zm-53.961,1.577c0.319,0 0.58,0.259 0.58,0.58c0,0.321 -0.261,0.584 -0.58,0.584c-0.318,0 -0.576,-0.263 -0.576,-0.584c0,-0.321 0.258,-0.58 0.576,-0.58Zm5.685,0.251c5.853,12.863 7.246,27.573 3.172,42.272l-15.807,-20.708c6.065,-6.875 10.142,-14.746 12.635,-21.564Zm-21.378,0.945l-14.105,5.967l-0.078,10.649c7.881,-5.415 11.223,-10.959 14.183,-16.616l0,0Zm13.558,-0.089c1.39,-0.043 0.704,3.735 -1.101,5.024c-0.662,0.512 -1.108,0.449 -1.326,-0.575c-0.113,-0.531 -0.668,-1.654 -1.367,-2.558c-0.813,-1.052 -0.804,-1.077 0.384,-1.152c1.311,0.02 2.386,-0.614 3.41,-0.739Zm-1.374,1.606c-1.025,-0.016 -1.332,0.467 -0.722,1.128c0.515,0.557 0.923,0.438 1.267,-0.367c0.211,-0.49 0.023,-0.753 -0.545,-0.761Zm-25.44,13.813l0.035,-9.038l12.062,-5.114c-2.42,5.281 -6.899,10.517 -12.097,14.152l0,0Zm107.155,7.302l-1.607,1.627l-15.572,-20.44l0.976,-2.58l16.203,21.393Zm-85.339,-20.675c0.522,0.008 1.706,1.831 2.039,3.139c0.246,0.971 -0.015,1.176 -1.843,1.45c-0.758,0.209 -2.804,0.007 -2.638,-0.541c0.297,-0.792 2.258,-4.05 2.442,-4.048Zm56.412,0.209l5.682,0.062l-1.301,4.693l-5.951,-0.089l1.57,-4.666Zm2.511,0.286l-2.645,1.844l2.092,2.076l2.803,-1.744l-2.25,-2.176Zm8.914,2.019l15.752,20.586c-4.699,6.019 -9.387,12.933 -12.468,22.073c-5.609,-13.209 -7.662,-26.066 -3.284,-42.659Zm-63.977,1.752c0.318,-0.001 0.579,0.259 0.579,0.579c0,0.321 -0.261,0.584 -0.579,0.584c-0.319,0 -0.576,-0.263 -0.576,-0.584c0,-0.32 0.257,-0.579 0.576,-0.579Zm-1.812,0.784c0.983,0.07 0.055,3.224 -1.425,4.374c-1.167,0.907 -1.669,0.486 -1.939,-1.173c-0.097,-0.599 -0.723,-1.618 -1.274,-2.422c-0.615,-0.899 -0.362,-1.042 1.198,-0.681c1.089,0.213 2.433,-0.047 3.44,-0.098Zm52.645,0.771l5.958,0.036l-0.918,7.127l-5.04,-7.163Zm-58.047,0.33c0.939,0.881 2.124,3.973 1.516,4.195c-0.707,0.259 -3.911,-0.115 -4.269,-0.487c-0.247,-0.256 -0.248,-0.257 0.276,-0.962c0.289,-0.388 0.837,-1.162 1.221,-1.721c0.346,-0.408 0.73,-1.514 1.256,-1.025Zm3.317,0.105c-0.907,0.031 -0.968,0.156 -0.538,1.141c0.351,0.803 0.595,0.875 1.198,0.348c0.84,-0.733 0.487,-1.527 -0.66,-1.489Zm104.571,0.619l0.215,3.514c-22.902,11.438 -31.478,38.442 -31.601,38.442l-1.663,-3.116c10.509,-26.074 24.485,-33.624 33.049,-38.84Zm-107.914,4.156c1.364,-0.029 1.762,-0.122 1.755,0.386c0.016,1.369 -1.255,3.311 -2.807,4.044c-1.044,0.493 -1.068,0.505 -1.186,-0.734c-0.091,-0.954 -0.4,-2.181 -0.891,-3.159c-0.154,-0.362 -0.746,-1.193 0,-0.957c0.744,0.237 2.281,0.438 3.131,0.42l-0.002,0Zm3.059,-0.318c0.319,0 0.576,0.259 0.576,0.58c0,0.321 -0.257,0.58 -0.576,0.58c-0.318,0 -0.576,-0.259 -0.576,-0.58c0,-0.321 0.258,-0.58 0.576,-0.58Zm-7.297,0.801c0.247,-0.007 0.482,0.504 0.764,1.256c0.611,1.636 0.799,2.523 0.618,2.907c-0.279,0.593 -4.038,0.211 -4.676,-0.452c-0.122,0.092 2.764,-3.382 3.294,-3.711Zm2.706,0.406c-0.538,0.037 -0.253,0.364 0.146,1.31c0.277,0.656 0.651,0.761 1.079,0.302c0.573,-0.615 0.65,-1.103 0.289,-1.365c-0.531,-0.215 -0.923,-0.244 -1.514,-0.247Zm109.606,3.555l0.02,1.177c-0.892,-0.268 -1.445,-0.649 -2.462,-0.989c-0.623,-0.211 -0.991,-0.361 -0.441,-1.022c0.863,-1.035 1.788,-1.683 2.839,-2.324l0.008,1.333c-1.68,0.75 -1.517,1.442 0.038,1.825l-0.002,0Zm-66.199,-1.197l6.327,0l0,4.206l4.949,0l-0.384,4.794l-4.565,0l0,4.206l-6.327,0l0,-4.206l-4.519,0l0.365,-4.794l4.154,0l0,-4.206Zm14.289,0.015c-3.204,15.985 -0.264,32.956 4.679,46.782l-2.495,0.277c-3.853,-11.057 -6.916,-26.799 -3.8,-47.05c0,0 1.116,-0.021 1.616,-0.009l0,0Zm46.962,0.31c0.319,0 0.576,0.259 0.576,0.58c0,0.321 -0.257,0.58 -0.576,0.58c-0.319,0 -0.576,-0.259 -0.576,-0.58c0,-0.321 0.257,-0.58 0.576,-0.58Zm-111.303,1.341c0.209,-0.006 0.853,0.273 1.424,0.433c0.859,0.241 1.536,0.345 2.319,0.36c1.573,0.03 1.779,0.016 1.102,1.318c-0.488,0.938 -1.586,2.178 -2.354,2.555c-1.087,0.585 -1.504,0.506 -1.439,-0.572c0.008,-0.731 -0.308,-2.001 -0.718,-2.907c-0.32,-0.704 -0.684,-1.176 -0.334,-1.187Zm6.654,0.514c0.318,0 0.579,0.259 0.579,0.58c0,0.32 -0.261,0.583 -0.579,0.583c-0.319,0 -0.576,-0.263 -0.576,-0.583c0,-0.321 0.257,-0.58 0.576,-0.58Zm106.457,-0.077c0.446,-0.01 1.211,0.266 1.908,0.607c1.85,0.905 1.8,1.113 -0.706,2.903c-1.82,1.391 -2.25,1.546 -2.315,-0.645c-0.065,-1.847 0.132,-2.844 1.113,-2.865Zm-114.06,0.53c0.734,0.01 1.547,3.859 0.887,4.202c-1.027,0.534 -4.209,-0.507 -4.196,-1.384c0,-0.286 2.986,-2.823 3.309,-2.818Zm111.849,-0.159c0.439,-0.019 0.497,0.327 0.457,1.554c-0.022,0.65 0.089,1.71 0.134,2.204c0.093,1.025 0.008,1.096 -0.798,0.638c-0.516,-0.294 -1.563,-0.775 -2.696,-0.874c-0.928,-0.081 -0.996,-0.465 -0.708,-1.082c0.82,-1.365 2.305,-2.324 3.611,-2.44Zm-109.123,0.58c-0.64,-0.005 -0.482,0.338 -0.084,1.303c0.281,0.683 0.769,0.748 1.271,0.166c0.702,-0.815 0.564,-1.247 -0.457,-1.403c-0.216,-0.033 -0.582,-0.065 -0.73,-0.066l0,0Zm108.274,0.916c-0.266,0.025 -0.631,0.237 -0.806,0.352c-0.602,0.38 -0.847,0.654 0.027,0.955c0.778,0.268 1.191,0.385 1.129,-0.29c-0.037,-0.406 -0.008,-0.996 -0.349,-1.017l-0.001,0Zm-59.385,0.499l0,4.19l5.037,0l0,-4.19l-5.037,0Zm54.886,0.363c0.319,0 0.576,0.259 0.576,0.58c0,0.321 -0.257,0.58 -0.576,0.58c-0.319,0 -0.576,-0.259 -0.576,-0.58c0,-0.321 0.257,-0.58 0.576,-0.58Zm-94.292,0.654l15.891,20.536l-1.056,2.678l-16.367,-21.68l1.532,-1.534Zm105.092,-0.097l0.035,2.684c-1.796,1.322 -13.196,9.641 -19.094,23.642l-3.087,1.324c4.346,-12.05 13.642,-22.371 22.146,-27.65l0,0Zm-120.883,1.137c1.035,0.316 2.023,1.041 2.999,1.171c1.122,0.138 1.509,0.066 1.205,0.649c-0.68,1.308 -1.965,2.677 -3.321,3.124c-0.969,0.32 -1.427,0.2 -1.274,-0.406c0.285,-1.135 0.334,-2.066 0.295,-3.1c0.154,-0.564 -0.324,-1.353 0.096,-1.438Zm-1.213,0.239c0.66,0.568 0.529,4.157 -0.207,4.929c-0.385,0.404 -1.501,0.035 -3.175,-0.92c-1.095,-0.624 -1.299,-1.005 -0.753,-1.388c0.926,-0.566 3.637,-2.755 4.135,-2.621Zm113.526,0.078c0.343,-0.008 0.768,0.052 1.279,0.17c1.98,0.448 2.422,0.903 0.733,2.253c-0.624,0.5 -1.286,1.12 -1.478,1.357c-0.908,1.122 -1.54,0.309 -1.739,-1.728c-0.139,-1.425 0.074,-2.236 1.205,-2.052Zm-2.48,0.193c0.322,0 0.528,0.169 0.522,0.572c-0.008,0.515 0.36,2.742 0.565,3.355c0.357,1.044 0.098,1.279 -0.76,0.824c-0.625,-0.339 -2.28,-0.597 -3.175,-0.526c-1.019,0.081 -0.99,-0.194 -0.691,-1.055c0.528,-1.527 2.574,-3.169 3.539,-3.17Zm-108.865,0.742c-0.387,-0.002 -0.403,0.524 -0.138,1.728c0.084,0.383 0.411,0.36 1.029,-0.077c0.73,-0.517 0.7,-0.841 -0.123,-1.338c-0.339,-0.204 -0.592,-0.312 -0.768,-0.313l0,0Zm4.503,0.132c0.319,-0.001 0.576,0.259 0.576,0.579c0,0.321 -0.257,0.58 -0.576,0.58c-0.318,0 -0.576,-0.259 -0.576,-0.58c0,-0.32 0.258,-0.579 0.576,-0.579Zm102.481,2.253c0.277,0.272 1.298,0.26 1.474,0.097c0.27,-0.251 0.145,-1.414 -0.08,-1.554c-0.576,-0.197 -1.739,1.028 -1.394,1.457Zm-95.374,2.215c0.347,1.66 2.665,1.568 2.403,-0.162c-0.153,-1.01 -0.188,-0.989 0.315,-0.966c2.393,0.118 1.978,3.915 -0.779,3.622c-0.576,0.069 -0.652,0.306 -0.166,0.51c0.484,0.203 2.337,0.681 2.623,0.681c3,-0.011 7.328,4.634 7.221,8.756c-0.069,2.695 0.838,4.635 1.766,4.855c0.738,0.175 1.809,-0.501 1.716,-1.326c-0.127,-1.139 0.792,-0.783 1.321,0.035c0.808,1.13 -0.234,2.76 -2.158,2.632c-0.818,0.161 0.602,0.684 1.654,0.99c0.954,0.055 0.148,1.239 -0.03,1.45c-0.539,0.631 -2.307,0.149 -3.693,-0.978c-1.702,-1.384 -2.433,-3.239 -2.634,-6.881c-0.129,-2.342 -0.302,-2.818 -0.979,-1.852c-1.216,2.154 -4.128,1.1 -4.491,-1.175c-0.204,-1.205 0.849,-2.074 1.19,-0.982c0.902,2.269 3.112,1.724 2.752,-0.53c-0.237,-1.487 -1.714,-2.307 -4.634,-3.135c-3.509,-0.995 -4.552,-2.205 -5.236,-5.103c-0.303,-1.283 -0.255,-1.954 0.418,-2.625c0.333,-0.331 0.757,-0.669 0.757,-0.669c0,0 0.468,1.95 0.664,2.853Zm91.798,-1.839c0.318,0 0.576,0.259 0.576,0.58c0,0.321 -0.258,0.58 -0.576,0.58c-0.319,0 -0.576,-0.259 -0.576,-0.58c0,-0.321 0.257,-0.58 0.576,-0.58Zm-110.15,0.551c1.045,0.381 1.943,0.946 3.021,1.315c0.699,0.239 0.508,0.802 -0.217,1.602c-0.807,0.96 -1.6,1.432 -2.719,1.967l0.012,-1.622c1.36,-0.478 2.225,-1.619 -0.059,-1.985l-0.038,-1.277Zm112.869,0.906c0.395,0.004 0.956,0.018 1.613,0.154c1.666,0.347 1.861,0.496 0.86,1.674c-0.37,0.437 -0.922,1.096 -1.224,1.465c-0.985,1.382 -1.515,0.908 -1.974,-0.877c-0.569,-1.864 -0.699,-2.579 0.725,-2.416Zm-107.647,0.664c0.318,0 0.576,0.26 0.576,0.58c0,0.321 -0.258,0.58 -0.576,0.58c-0.319,0 -0.576,-0.259 -0.576,-0.58c0,-0.32 0.257,-0.58 0.576,-0.58Zm105.968,1.263c0.159,0.589 0.4,1.339 0.584,1.87c0.904,2.007 0.332,1.231 -1.287,1.054c-1.089,-0.119 -2.821,0.064 -3.25,-0.239c-0.187,-0.245 -0.014,-0.889 0.335,-1.616c0.491,-1.024 1.385,-1.896 2.051,-2.292c1.688,-0.785 1.295,0.213 1.567,1.223Zm-97.289,-0.714l18.15,24.165l-1.423,2.043l-18.669,-24.846l1.942,-1.362Zm113.751,0.091c-9.435,6.865 -13.059,15.197 -13.794,16.286l13.832,-5.373l-0.038,-10.913Zm-18.015,0.787c-0.517,0.143 -1.26,1.109 -0.94,1.488c0.191,0.198 0.952,0.224 1.317,0.089c0.561,-0.207 0.178,-1.58 -0.377,-1.577Zm-79.541,26.133l-3.866,4.906l-20.145,-26.238l5.084,-3.695l18.927,25.027Zm96.55,-25.501l0.142,9.018l-11.831,4.967c3.962,-6.739 7.842,-10.905 11.689,-13.985Zm-80.9,0.765l4.738,6.212l-5.79,-0.132l1.052,-6.08Zm59.919,0.508c0.319,0 0.576,0.259 0.576,0.58c0,0.321 -0.257,0.58 -0.576,0.58c-0.318,0 -0.575,-0.259 -0.575,-0.58c-0.001,-0.321 0.257,-0.58 0.575,-0.58Zm3.473,1.47c2.168,0.03 2.891,0.148 2.261,1.221c-0.841,1.046 -1.338,2.041 -2.255,3.009c-0.53,0.543 -1.192,-0.576 -1.745,-2.367c-0.447,-1.446 -0.22,-1.81 0.628,-1.822c0.849,-0.012 0.993,-0.043 1.111,-0.041l0,0Zm-2.503,1.956c0.177,0.571 0.592,1.51 0.921,2.084c0.33,0.573 0.699,1.21 0.677,1.321c-0.056,0.269 -0.309,0.29 -0.88,0.073c-1.235,-0.56 -4.137,0.032 -4.214,-0.244c-0.431,-0.619 0.216,-2.305 1.434,-3.474c0.596,-0.57 1.141,-0.942 1.456,-0.947c0.315,-0.006 0.372,0.433 0.606,1.187l0,0Zm-101.245,-0.444l20.498,26.804l-1.419,1.738l-20.728,-27.321c0,0 -3.273,1.614 -4.235,2.153l0.129,13.863l-0.56,-0.027l0.084,70.217l11.438,-11.484l-0.149,-47.644c2.427,2.299 4.503,4.751 7.281,7.004l4.757,-0.038c12.417,-12.717 19.218,-23.601 20.711,-43.091c0.999,-13.039 -3.304,-29.435 -14.714,-45.325l-2.787,1.704l5.506,8.354l-11.662,5.204c-4.645,9.86 -10.151,18.96 -20.222,24.171l-0.057,12.762l-0.176,0.264l0.133,4.007l6.172,-3.315Zm100.217,0.915c-0.544,0.041 -1.395,1.224 -1.006,1.628c0.46,0.219 1.169,0.204 1.465,-0.192c0.203,-0.388 0.151,-1.209 -0.459,-1.436Zm-61.146,2.761l6.02,0.035l-1.574,5.199l-5.863,-0.112l1.417,-5.122Zm57.184,-0.023c0.318,0 0.575,0.259 0.575,0.58c0,0.32 -0.257,0.58 -0.575,0.58c-0.319,0 -0.576,-0.26 -0.576,-0.58c0,-0.321 0.257,-0.58 0.576,-0.58Zm-30.669,0.158l0.778,6.753c-6.566,2.403 -13.645,6.482 -19.837,13.98c-1.058,-0.07 -9.501,0.073 -9.501,0.073c0.211,0.031 7.823,-14.432 8.7,-20.709l19.86,-0.097Zm-23.842,0.629l-2.76,1.91l2.157,2.315l2.857,-1.948l-2.254,-2.277Zm57.451,0.028c0.587,-0.003 1.374,0.07 2.004,0.182c1.018,0.198 1.168,0.218 0.825,1.063c-0.458,1.122 -1.49,3.145 -1.751,3.306c-0.933,0.582 -3.004,-3.591 -2.298,-4.312c0.187,-0.148 0.583,-0.236 1.22,-0.239Zm-2.64,1.284c0.267,-0.024 0.623,0.498 0.728,0.948c0.128,0.547 1.067,1.924 1.659,2.584c0.745,0.83 0.706,0.946 -0.36,1.032c-1.271,0.102 -2.511,0.354 -3.226,0.615c-1.109,0.406 -1.26,0.316 -1.118,-0.989c0.214,-1.964 1.517,-4.121 2.317,-4.19Zm-0.973,4.063c0.139,0.38 1.858,-0.318 1.954,-0.775c-0.016,-0.205 -0.691,-1.389 -1.097,-1.443c-0.688,0.108 -0.976,1.679 -0.857,2.218Zm-58.088,-0.267l5.69,0.054l-1.866,4.72l-5.624,-0.015l1.8,-4.759Zm2.548,0.633l-2.726,1.735l2.123,2.069l2.61,-1.813l-2.007,-1.991Zm57.859,0.855c0.483,-0.004 0.994,0.042 1.102,0.221c0.302,0.501 -0.929,3.302 -0.929,3.302l-2.006,0.8c-0.431,-0.893 -1.168,-1.822 -1.347,-2.79c-0.071,-0.423 0.142,-0.578 0.606,-0.84c0.692,-0.391 1.769,-0.685 2.574,-0.693Zm-5.372,0.229c0.319,0 0.576,0.259 0.576,0.58c0,0.321 -0.257,0.58 -0.576,0.58c-0.318,0 -0.576,-0.259 -0.576,-0.58c0,-0.321 0.258,-0.58 0.576,-0.58Zm-25.946,0.081c0,0 1.23,6.994 1.296,6.224c-9.489,3.598 -15.039,8.908 -17.669,14.088l-17.802,-0.013l3.973,-6.208l10.539,-0.054c5.095,-6.224 11.379,-11.189 19.663,-14.037l0,0Zm-2.279,1.646l-0.879,2.826l2.66,1.709l1.002,-3.035l-2.783,-1.5Zm29.163,0.055c0.225,-0.021 0.448,0.362 0.906,1.179c0.338,0.604 0.783,1.483 0.783,1.483l-0.797,0.298c-0.642,-2.209 -1.231,-1.388 -1.299,0.562l-1.091,0.438c0,0 0.118,-1.88 0.741,-2.978c0.358,-0.631 0.558,-0.963 0.757,-0.982Zm-58.03,1.933l5.517,0.069l-2.308,4.813l-5.609,-0.155l2.4,-4.727Zm24.064,0.386l-0.438,3.572l2.972,0.634l0.407,-3.394l-2.941,-0.812Zm-21.719,0.043l-2.725,1.774l1.789,2.37l2.622,-1.775l-1.686,-2.369Zm17.457,3.127l-0.564,3.29l2.787,0.638l0.634,-3.309l-2.857,-0.619Zm-60.575,0.193l6.976,6.963l0.384,48.574l-6.937,7.005l-0.423,-62.542Zm37.953,1.779c-0.025,0.039 5.565,0.161 5.565,0.161l-2.237,4.065l-1.911,-0.086l2.515,-1.728l-1.613,-2.076l-2.584,1.697l1.44,2.099l-3.774,-0.081l2.599,-4.051Zm35.985,1.202l1.894,6.303l-2.277,0.398l-1.711,-5.93c0.698,-0.363 1.396,-0.543 2.094,-0.771Zm-17.897,0.394l0.039,3.781l3.04,0.259l0.119,-3.545l-3.198,-0.495Zm15.116,0.604l1.732,5.988l-1.445,0.414l-2.07,-5.684c0.566,-0.338 1.158,-0.585 1.783,-0.718Zm-2.639,1.236l2.227,5.862c-3.076,1.256 -6.266,3.945 -8.668,6.628c-1.78,-1.317 -2.827,-1.455 -3.925,-1.753c3.028,-5.681 6.605,-8.664 10.366,-10.737Zm-33.611,1.469l5.851,0.178l-4.069,6.12l-6.619,-0.008l4.837,-6.29Zm17.418,0.228l-0.38,3.58l3.133,1.864l0.476,-3.677l-3.229,-1.767Zm-3.774,0.503l-2.227,2.37l2.365,2.717l2.169,-2.837l-2.307,-2.25Zm-4.98,0.124l-2.645,2.443l2.104,2.764l2.419,-2.78l-1.878,-2.427Zm-33.702,2.279l0.259,47.453l-9.719,9.484l-0.073,-2.552l7.727,-8.124c0.009,-16.051 -0.042,-32.102 -0.095,-48.154l1.901,1.893Zm25.859,-1.533l-2.684,3.684l3.183,0.008l2.307,-3.568l-2.806,-0.124Zm-16.551,22.963c-1.058,3.834 -5.937,7.992 -6.024,7.922c2.415,3.486 2.334,8.456 0.204,10.904c0.01,-0.055 3.883,3.182 4.426,4.863c0.307,0.67 0.43,1.485 0.818,2.15c0.103,0.176 0.43,0.613 0.43,0.613c9.461,-9.66 4.956,-20.98 0.146,-26.452Zm0.142,1.002c9.186,11.475 3.13,21.979 -0.075,24.909l-0.612,-1.018c6.826,-7.988 3.933,-17.801 -0.044,-22.447l0.731,-1.444Zm-0.994,2.233c0.061,0.187 0.418,0.727 0.153,0.692l-0.461,-0.092l0.308,-0.6Zm-0.07,1.28c0.2,0 0.367,0.063 0.457,0.201c0.187,0.313 -0.762,2.952 -1.349,2.337c-0.176,-0.348 -0.385,-0.651 -0.547,-1.011c-0.192,-0.431 -0.066,-0.639 0.372,-1.067c0.302,-0.295 0.735,-0.46 1.067,-0.46Zm1.321,0.715c0.464,0.037 1.125,1.508 1.186,2.559c0.029,0.109 -1.568,-0.247 -1.992,-0.738c0.051,-0.431 0.452,-1.526 0.806,-1.821Zm-3.593,1.201c2.765,5.599 2.592,9.973 0.157,13.994l-1.908,-1.643c1.283,-3.058 1.918,-6.322 -0.242,-10.477l1.993,-1.874Zm1.865,1.401c0.192,-0.017 0.782,0.071 1.306,0.24c1.851,0.595 1.92,1.815 0.138,2.709c-0.738,0.371 -0.968,0.207 -1.394,-1.658c-0.21,-0.922 -0.369,-1.263 -0.05,-1.291l0,0Zm3.575,2.145c0.356,-0.001 0.52,0.678 0.564,1.848c0.041,1.112 -0.193,1.199 -1.083,0.406c-0.961,-0.857 -1.127,-1.061 -0.245,-1.766c0.258,-0.207 0.601,-0.487 0.764,-0.488Zm-2.523,1.837c0.176,-0.016 0.687,0.312 1.187,0.696c1.265,0.97 0.984,1.637 -0.453,2.106c-0.997,0.326 -0.947,0.367 -0.922,-1.368c0.013,-0.858 -0.038,-1.415 0.188,-1.434Zm16.755,1.579c-1.545,0.395 -2.194,1.782 -1.681,3.031c0.233,0.568 0.587,0.573 0.172,0.92c-0.464,0.539 -0.711,1.786 -0.2,2.24c0.602,0.348 0.756,-0.251 0.122,0.922l-11.636,21.522l69.847,-0.131l-8.394,-15.831c0.019,-0.023 0.671,-2.613 -0.672,-2.925c-0.431,-0.1 -0.678,-0.503 -0.766,-0.89c0.11,-1.101 -0.387,-1.57 -0.805,-2.139c-6.64,0.945 -12.408,0.474 -17.172,-0.605c-6.863,-1.554 -11.768,-4.245 -14.958,-5.091c-4.398,-1.165 -9.706,-1.672 -13.857,-1.023Zm3.762,0.149c5.412,-0.033 11.47,1.635 15.71,3.483c4.399,1.829 9.059,3.193 13.768,3.893c3.886,0.492 7.762,0.244 11.478,-0.052c0.406,-0.062 0.827,-0.006 1.13,0.318c0.77,0.862 0.245,1.402 -1.682,1.581c-3.094,0.258 -6.931,0.148 -10.335,-0.367c-5.39,-0.623 -11.103,-2.264 -16.033,-4.322c-6.16,-2.327 -11.818,-3.107 -16.29,-2.42c-2.455,0.377 -2.816,0.436 -2.806,-0.228c0.019,-1.296 1.084,-1.887 5.06,-1.886l0,0Zm-17.734,3.757c-0.237,0.549 -1.92,-1.248 -1.903,-1.755c0.035,-0.223 1.398,-1.119 1.939,-1.483c0.261,-0.202 0.244,-0.097 0.247,0.141c0.01,0.677 -0.043,2.426 -0.283,3.097Zm-2.591,-1.326c0.777,0.105 2.054,2.217 0.929,2.544c-0.996,0.29 -1.901,0.476 -2.023,-0.197c0.513,-1.651 0.706,-2.305 1.002,-2.343c0.03,-0.004 0.062,-0.004 0.092,-0.004l0,0Zm45.168,7.211c4.958,0.863 11.465,1.38 15.719,1.045c2.438,-0.247 2.952,-0.168 2.937,0.856c-0.01,0.641 0.06,0.626 -3.087,0.622c-2.615,0.176 -4.97,-0.106 -7.502,-0.238c-5.239,-0.262 -9.998,-1.166 -14.397,-2.704c-4.88,-1.274 -9.108,-3.723 -13.883,-4.229c-4.379,-0.432 -8.318,0.349 -9.144,0.811c-0.276,-0.004 -0.42,-0.416 -0.404,-0.795c0.016,-0.371 0.153,-0.669 0.461,-0.906c12.552,-3.188 19.273,3.641 29.3,5.538Zm-43.528,-4.222c0.418,0.004 0.285,0.627 -0.4,1.948c-0.582,1.123 -0.811,1.117 -1.14,-0.035c-0.352,-1.23 -0.318,-1.366 0.38,-1.546c0.411,-0.1 0.758,-0.316 1.16,-0.367l0,0Zm-2.93,0.626c0.491,0.007 1.187,2.243 0.829,2.663c-0.282,0.333 -1.303,0.107 -1.6,-0.285c-0.479,-0.632 0.133,-2.388 0.771,-2.378Zm21.944,0.604c1.947,-0.02 3.888,0.19 5.672,0.499c-1.027,0.382 -2.05,0.735 -3.116,1.355c-0.737,-0.637 -1.574,-1.258 -2.556,-1.854Zm2.53,2.713c6.881,-3.863 9.786,1.471 10.781,2.331c6.015,-1.341 7.193,-0.681 10.549,2.97c6.024,-2.965 8.944,-0.444 11.458,1.151c2.95,-2.776 6.69,-2.853 8.639,-1.46c0.365,0.615 0.872,1.394 0.913,1.626c0.033,0.181 -0.243,-0.03 -0.921,-0.518c-3.538,-2.549 -9.408,0.625 -7.84,3.986c0.423,0.905 0.355,1.295 -0.276,1.658c-0.897,0.611 -2,-0.403 -1.375,-1.438c1.044,-1.728 0.258,-3.175 -2.28,-4.511c-3.578,-1.884 -9.423,0.226 -8.22,3.003c0.77,0.887 0.056,1.513 -0.96,1.481c-1.15,-0.036 -1.54,-0.811 -0.802,-1.639c0.92,-1.058 0.678,-2.13 -0.393,-3.351c-3.213,-4.608 -9.713,-2.781 -8.852,1.256c0.377,1.004 -0.697,1.408 -1.812,0.962c-0.71,-0.284 -0.604,-1.388 0.173,-1.778c0.893,-0.091 1.02,-1.394 0.913,-2.231c-0.155,-1.217 -1.938,-2.416 -3.701,-3.052c-1.276,-0.461 -2.462,-0.56 -3.397,-0.473c-1.976,0.182 -3.078,1.532 -2.753,3.556c0.192,1.194 -0.14,2.432 -1.532,1.776c-0.762,-0.36 -0.57,-1.227 0.207,-2.027c2.735,-2.689 -2.772,-5.962 -6.096,-3.707c-0.564,0.466 -0.975,0.547 -0.975,0.547c2.085,-5.226 8.613,-0.331 8.552,-0.118Zm9.062,-0.704l4.155,1.576c-0.958,0.19 -1.633,0.462 -2.311,0.733l-1.844,-2.309Zm-10.851,1.7c-3.834,-0.732 -4.043,3.582 -1.544,4.286c-3.438,4.756 5.564,6.602 3.913,0.734c4.561,0.827 3.736,-4.4 0.344,-4.352c0.794,-1.947 7.055,-0.471 6.785,0.975c-4.233,0.452 -2.541,4.336 -0.71,4.34c-4.427,4.22 4.431,8.11 4.196,1.749c3.554,0.752 3.972,-3.998 0.556,-4.311c1.251,-1.772 5.719,-0.655 6.958,1.372c-3.526,0.471 -3.306,3.59 -0.546,4.094c-3.498,4.484 5.111,6.142 4.216,0.929c3.084,1.068 4.778,-3.076 0.781,-4.261c4.094,-2.455 8.539,1.205 8.057,1.279c-4.671,-0.278 -3.741,4.436 -0.361,4.18c-2.15,4.894 6.373,5.167 4.211,0.091c3.834,0.07 3.498,-4.402 -0.175,-4.701c2.313,-1.698 4.92,-1.847 6.598,-0.258c-3.495,0.925 -2.043,5.016 1.473,3.884c0.326,3.423 3.09,2.697 3.151,2.593l2.473,4.647l-67.018,0.108l5.72,-10.63c3.381,0.175 3.26,-3.102 3.112,-3.183c2.248,1.616 4.666,-2.401 1.377,-3.552c2.687,-2.832 6.671,-0.217 6.433,-0.013l0,0Zm-21.817,-0.297c-0.14,0.145 -0.176,0.231 -0.407,0.016c-0.584,-0.673 1.005,-0.73 0.407,-0.016Zm13.858,1.781c0.295,0.243 0.092,0.91 -0.148,1.137c-0.604,0.652 -0.807,0.6 -0.276,-0.525c0.157,-0.34 0.306,-0.616 0.424,-0.612Zm29.362,0.301l3.484,0.849l-1.655,0.939c-0.611,-0.668 -1.199,-1.246 -1.829,-1.788Zm10.89,1.413l3.789,0.244c-0.5,0.343 -0.992,0.662 -1.604,1.287c-0.477,-0.51 -1.381,-1.021 -2.185,-1.531Zm12.625,3.891c0.211,0.443 1.047,1.982 0.968,2.022c-1.225,0.215 -1.553,-1.621 -0.968,-2.022Z" style="fill:#100f08;fill-rule:nonzero;"/><path id="path12536" d="M47.906,64.451c-4.135,-6.838 -8.486,-13.484 -13.923,-19.161c5.437,-5.678 9.788,-12.324 13.923,-19.162c4.136,6.838 8.486,13.484 13.923,19.162c-5.437,5.677 -9.787,12.323 -13.923,19.161Z" style="fill:#d40000;fill-rule:nonzero;"/><path id="path12538" d="M14.065,55.891c-1.723,-2.849 -3.536,-5.618 -5.802,-7.984c2.266,-2.365 4.079,-5.135 5.802,-7.984c1.723,2.849 3.536,5.619 5.801,7.984c-2.265,2.366 -4.078,5.135 -5.801,7.984Z" style="fill:#d40000;fill-rule:nonzero;"/><path id="path12540" d="M130.094,184.558c-4.136,6.838 -8.486,13.485 -13.923,19.162c5.437,5.677 9.787,12.324 13.923,19.162c4.135,-6.838 8.486,-13.485 13.923,-19.162c-5.437,-5.677 -9.788,-12.324 -13.923,-19.162Z" style="fill:#d40000;fill-rule:nonzero;"/><path id="path12542" d="M163.936,193.109c-1.723,2.849 -3.536,5.618 -5.801,7.984c2.265,2.366 4.078,5.135 5.801,7.984c1.723,-2.849 3.536,-5.618 5.801,-7.984c-2.265,-2.366 -4.078,-5.135 -5.801,-7.984Z" style="fill:#d40000;fill-rule:nonzero;"/><path id="path12544" d="M14.701,34.517l2.647,0l-3.889,-9.728l-2.971,4.109l0.021,5.619l2.086,0l0,2.898l-7.353,0l0,-2.898l2.423,0l0,-20.921l-2.423,0.009l0,-2.533l7.461,0l0,2.619l-2.059,0l-0.044,10.197l6.512,-10.283l-2.298,0l0,-2.533l7.937,0l0,2.533l-2.094,0l-5.362,8.403l5.25,12.514l2.33,0l0.012,2.898l-8.162,0l-0.024,-2.902l0,-0.001Z" style="fill:#d40000;fill-rule:nonzero;"/><path id="path12546" d="M163.3,214.483l-2.647,0l3.888,9.728l2.972,-4.109l-0.021,-5.619l-2.087,0l0,-2.898l7.353,0l0,2.898l-2.422,0l0,20.921l2.422,-0.009l0,2.533l-7.46,0l0,-2.619l2.058,0l0.044,-10.197l-6.512,10.283l2.299,0l0,2.533l-7.938,0l0,-2.533l2.095,0l5.362,-8.403l-5.25,-12.514l-2.331,0l-0.012,-2.898l8.162,0l0.025,2.902l0,0.001Z" style="fill:#d40000;fill-rule:nonzero;"/></g></g></svg>