<?xml version="1.0" encoding="UTF-8" standalone="no"?><!DOCTYPE svg PUBLIC "-//W3C//DTD SVG 1.1//EN" "http://www.w3.org/Graphics/SVG/1.1/DTD/svg11.dtd"><svg width="100%" height="100%" viewBox="0 0 178 249" version="1.1" xmlns="http://www.w3.org/2000/svg" xmlns:xlink="http://www.w3.org/1999/xlink" xml:space="preserve" xmlns:serif="http://www.serif.com/" style="fill-rule:evenodd;clip-rule:evenodd;stroke-linejoin:round;stroke-miterlimit:2;"><rect id="king-hearts" x="0" y="0" width="178" height="249" style="fill:none;"/><clipPath id="_clip1"><rect x="0" y="0" width="178" height="249"/></clipPath><g clip-path="url(#_clip1)"><rect x="-2134.21" y="-249" width="2312.21" height="1245" style="fill:#fff;"/><g id="king_hearts"><path id="path163-0-2-7-7-1-8-7-00-1-2" d="M13.729,55.891c0,0 -1.774,-2.547 -4.167,-5.541c-1.601,-2.004 -2.881,-4.173 -3,-6.042c-0.136,-2.135 1.156,-4.277 3.494,-4.38c2.338,-0.104 3.287,1.646 3.673,3.088c0.386,-1.442 1.335,-3.192 3.672,-3.088c2.339,0.103 3.631,2.245 3.495,4.38c-0.119,1.869 -1.399,4.038 -3,6.042c-2.393,2.994 -4.167,5.541 -4.167,5.541Z" style="fill:#d40000;fill-rule:nonzero;"/><path id="path163-0-2-7-7-1-8-1-9-4-6-8" d="M164.272,193.109c0,0 -1.774,2.547 -4.167,5.541c-1.601,2.004 -2.881,4.173 -3,6.042c-0.136,2.135 1.155,4.277 3.494,4.381c2.338,0.103 3.286,-1.646 3.673,-3.089c0.386,1.443 1.335,3.192 3.672,3.089c2.339,-0.104 3.631,-2.246 3.494,-4.381c-0.119,-1.869 -1.398,-4.038 -2.999,-6.042c-2.393,-2.994 -4.167,-5.541 -4.167,-5.541Z" style="fill:#d40000;fill-rule:nonzero;"/><path id="path39-51-8-0-0" d="M15.661,35.524l2.647,0l-3.889,-9.729l-2.971,4.11l0.021,5.619l2.086,0l0,2.898l-7.353,0l0,-2.898l2.423,0l0,-20.922l-2.423,0.01l0,-2.533l7.461,0l0,2.619l-2.059,0l-0.044,10.196l6.512,-10.282l-2.298,0l0,-2.533l7.937,0l0,2.533l-2.095,0l-5.362,8.403l5.251,12.513l2.33,0l0.012,2.898l-8.162,0l-0.025,-2.902l0.001,0Z" style="fill:#d40000;fill-rule:nonzero;"/><path id="path39-3-9-6-0-8" d="M163.635,214.483l-2.647,0l3.888,9.728l2.971,-4.109l-0.021,-5.619l-2.086,0l0,-2.898l7.353,0l0,2.898l-2.423,0l0,20.921l2.423,-0.009l0,2.533l-7.461,0l0,-2.619l2.059,0l0.044,-10.197l-6.512,10.283l2.299,0l0,2.533l-7.938,0l0,-2.533l2.095,0l5.362,-8.403l-5.251,-12.514l-2.33,0l-0.012,-2.898l8.162,0l0.025,2.902l0,0.001Z" style="fill:#d40000;fill-rule:nonzero;"/><path id="path3876-2-1-7" d="M64.618,211.219c13.972,1.624 28.294,2.005 43.026,0.932c3.811,5.31 11.463,16.139 11.463,16.139l-69.336,0.566l14.847,-17.637Zm-18.006,3.697c1.859,-3.784 2.219,-7.43 1.865,-12.685c-0.279,-4.032 2.222,-7.173 4.802,-5.969c1.995,0.93 1.074,4.745 -0.989,3.938c-0.789,-0.309 -1.481,-0.028 -1.377,1.784c0.184,4.466 1.364,9.496 0.35,13.778c-0.707,4.16 -6.376,2.243 -4.651,-0.846Zm-17.419,-5.834c-2.191,-3.315 1.735,-6.422 4.192,-4.892c1.165,0.55 1.001,1.747 -0.468,1.109c-2.05,-0.89 -4.257,2.26 -2.473,3.526c0.822,0.583 1.134,0.504 0.51,-0.225c-1.663,-1.95 2.589,-2.812 2.466,-1.528c-0.29,1.565 -0.326,2.224 -0.468,2.532c-0.866,1.365 -2.53,0.668 -3.759,-0.522Zm6.109,-13.941c-2.366,-2.98 0.347,-5.323 0.311,-5.238c0.702,-0.767 -5.637,-12.689 -4.836,-12.767c8.006,-0.86 16.097,-0.211 24.12,0.042c0,0 -4.277,7.762 -5.983,11.603c-0.687,1.547 0.919,3.369 0.255,4.518c-2.066,2.278 -0.781,4.801 -2.069,4.914c-3.303,-0.625 -6.816,-0.988 -11.081,-0.046c-0.325,-0.028 -0.274,-2.015 -0.717,-3.026l0,0Zm34.656,-82.837c4.048,20.791 -1.92,42.83 -15.603,57.369c-1.932,-1.872 -3.412,-5.426 -5.339,-7.744c-5.347,-1.62 -9.194,0.287 -12.944,2.154c-3.331,-1.937 -7.084,-3.077 -10.741,-3.028l-0.118,-3.215c3.701,-0.081 7.609,0.264 10.905,2.322l5.156,-2.111l-16.079,-16.831l0.219,-2.876l19.51,19.863l2.512,0.091c-5.522,-14.811 -0.691,-38.336 22.522,-45.994Zm27.204,26.079l2.82,13.577c0,0 -15.818,15.821 -24.131,23.903l-6.948,-0.638c3.469,-5.209 5.445,-10.476 7.75,-15.731l20.509,-21.111Zm56.06,18.621c-6.623,7.483 -14.536,12.241 -23.324,17.484c-3.513,-3.961 -7.777,-8.317 -10.239,-12.222c7.666,-4.134 14.974,-7.337 22.481,-14.573c-0.411,0.468 -9.576,3.606 -9.546,3.245c-0.331,1.544 -0.132,2.497 -1.623,2.904c-1.766,-2.489 -3.473,-4.508 -6.257,-5.621c-1.167,0.106 -2.718,-0.672 -2.717,-0.672c0.779,-0.161 0.436,-9.709 0,-9.82c0.855,-0.28 1.718,-0.942 2.896,0.372c0.545,0.369 5.827,-4.999 7.626,-6.834c7.06,-0.586 13.315,0.116 20.271,-0.073c-0.054,8.499 0.432,17.31 0.429,25.81l0.003,0Zm-44.836,-21.526c-0.178,-0.36 -1.96,-14.443 -0.267,-23.274c4.648,-14.862 3.463,-19.002 15.476,-33.619c0.791,-0.781 3.553,1.736 5.617,6.086c5.996,3.813 13.684,-1.107 13.684,-1.107c0,0 2.984,2.458 9.731,3.802l-0.115,2.646c-0.034,0.769 -7.589,-0.82 -9.216,-2.355c0,0 -5.659,1.904 -5.658,2.252c0,1.483 15.072,15.541 15.072,15.541l-0.085,3.298c0.096,0.004 -20.666,-21.739 -20.935,-19.463c5.877,25.534 -4.121,38.47 -23.304,46.193Zm-24.968,-4.488l-0.335,-13.506l12.717,0.152l0.523,13.647l-12.905,-0.293Zm-58.188,-14.599c0.34,-0.48 -0.495,-25.173 -0.442,-25.173c8.093,-8.132 16.009,-12.677 23.944,-17.621c3.589,3.59 6.639,6.619 9.283,10.968l-10.949,6.811c0.416,1.66 -0.664,2.258 6.394,8.721c0.119,-0.442 2.444,-1.758 2.85,0.21c-0.955,4.155 0.425,7.686 0.606,9.919c-0.964,1.309 -3.118,-0.096 -3.118,-0.096c-1.395,-1.468 -6.858,5.78 -8.418,6.59c-6.806,-0.257 -20.532,0.209 -20.15,-0.329Zm76.499,-43.907c0.047,0.084 7.002,0.012 6.937,0.174c-1.265,3.132 -4.148,9.363 -7.038,16.26c-2.414,4.015 -19.68,20.732 -19.68,20.732c-0.818,-4.85 -2.048,-9.581 -3.33,-14.297l23.111,-22.869Zm30.005,-23.28c2.503,1.078 9.535,0.514 10.651,0.029c1.43,0.98 0.537,2.287 0.356,3.013c1.468,1.878 2.272,2.544 0.605,5.571c-0.381,-0.001 5.125,12.525 5.273,12.534c0,0 -5.819,-2.79 -7.871,-4.675l-4.013,5.393l-4.663,-6.089c-0.017,0.549 -8.984,6.562 -9.093,6.272c-0.281,-0.286 8.189,-9.501 6.509,-14.911c-0.405,-1.304 0.522,-2.629 1.155,-3.777c0.435,-0.789 -0.15,-2.312 1.091,-3.36l0,0Zm-4.654,-1.123c0.38,-0.44 -2.175,-11.766 0.594,-16.338c1.173,-1.662 3.294,-1.747 4.181,-0.386c0.678,1.892 -1.341,4.527 -1.746,5.814c-1.314,3.585 0.636,8.314 -0.315,11.702c-2.85,7.401 -7.898,-0.728 -2.714,-0.792Zm18.972,-5.03c-1.502,0.067 -0.453,-4.47 -0.206,-5.769c-0.008,-0.258 2.75,-0.908 3.743,0.876c1.603,2.667 -0.324,6.031 -3.537,4.893Zm-17.915,-22.872l-14.15,17.393c-14.309,-1.665 -28.667,-2.722 -43.298,-0.459l-11.767,-16.589l69.215,-0.345Z" style="fill:#e2cf00;fill-rule:nonzero;"/><path id="path3874-3-1-4" d="M154.386,19.11l-130.772,0l0,210.78l130.772,0l0,-210.78Zm-26.384,1.095l-15.674,19.488l-0.386,0.13c1.045,3.092 2.536,6.948 3.96,9.875c2.267,4.732 7.965,13.428 4.41,20.385c-0.348,0.596 -0.672,0.886 -1.108,0.884c-0.604,-0.003 -0.593,-0.361 -0.233,-1.059c0.792,-1.537 1.329,-5.18 1.013,-7.108c-0.202,-1.23 -0.879,-3.127 -2.164,-5.994c-5.956,-11.118 -7.817,-17.044 -7.48,-17.044c-0.077,-0.05 -0.211,-0.118 -0.428,-0.17l-0.585,-0.197c2.064,7.028 5.419,12.937 8.073,18.408c2.177,5.085 2.411,7.058 1.272,10.759c-0.44,1.433 -1.237,2.351 -2.021,2.347c-0.587,-0.003 -0.554,-0.122 -0.153,-0.85c2.086,-3.786 1.604,-7.918 -0.99,-12.725c-3.767,-7.94 -6.027,-12.963 -7.369,-18.057c-0.034,-0.001 -0.687,-0.223 -0.923,-0.28c1.118,5.302 4.24,11.416 7.145,17.673c2.403,4.819 3.095,8.33 2.229,11.104c-0.284,1.202 -1.19,2.993 -2.336,3.046c-0.448,-0.003 -0.518,-0.239 -0.095,-0.858c1.78,-3.086 2.096,-5.932 -1.09,-12.411c-2.929,-5.957 -5.868,-12.624 -6.872,-18.448c-0.063,-0.478 -1.337,-1.044 -1.062,-0.252c1.572,6.879 4.704,13.923 8.03,20.791c1.872,4.264 2.066,6.992 0.661,9.378c-0.785,1.333 -0.985,1.637 -1.575,1.65c-0.696,0.015 -0.683,0.041 -0.299,-0.77c1.699,-3.586 1.42,-6.744 -0.851,-11.926c-3.114,-7.106 -5.737,-12.986 -6.857,-19.24c-0.201,-0.058 -1.255,-0.472 -1.104,-0.159c1.557,5.958 3.55,11.487 6.119,17.079c0.894,1.94 2.345,5.713 2.813,7.604c0.888,3.6 -1.114,8.542 -3.734,8.792c-0.977,0.093 -0.856,-0.4 0.233,-1.424c1.874,-1.764 2.237,-4.577 1.601,-7.841c-0.477,-2.513 -1.3,-5.21 -2.431,-7.95c-2.286,-5.541 -4.774,-11.339 -5.561,-16.454c0.026,-0.458 -1.021,-0.459 -0.726,0.02c0.565,3.596 1.916,7.692 3.394,11.495c1.618,4.162 4.025,8.825 4.813,13.933c0.645,4.179 -1.932,8.124 -5.059,8.36c-3.767,0.284 -4.509,-3.488 -3.603,-5.257c1.478,-2.64 5.771,-1.132 4.495,1.568c-0.735,1.554 -2.977,1.145 -2.882,-0.559c-0.025,-0.155 0.215,-0.623 0.172,-0.648c-0.077,-0.046 -0.407,0.259 -0.512,0.45c-0.762,1.38 1.527,3.232 3.119,2.122c5.333,-2.923 1.731,-11.838 -0.593,-17.284c-2.25,-5.074 -3.901,-9.659 -4.617,-14.355c-0.194,-0.137 -1.075,-0.363 -0.951,-0.202c0.645,2.507 0.943,4.621 1.586,6.728c1.007,3.303 2.814,7 4.288,10.704c1.339,3.645 2.684,6.741 2.072,10.541c-0.057,0.351 -0.199,0.772 -0.436,1.028c-0.24,0.255 -0.437,0.215 -0.508,-0.752c-0.024,-0.132 -0.193,-0.306 -0.218,-0.474c0.131,-1.427 0.035,-2.843 -0.329,-4.186c-0.312,-1.125 -0.906,-2.273 -2.159,-4.458c-0.495,-0.813 -1.788,-3.301 -1.335,-1.582c0.261,0.972 1.149,3.133 2.072,4.698c0.574,0.971 1.177,3.623 0.998,4.136c-0.188,0.5 -0.626,0.529 -0.829,0.356c-0.184,-0.155 -0.183,-0.865 -0.23,-1.303c-0.193,-1.802 -2.015,-4.946 -3.279,-6.181c-0.908,-1.025 2.139,4.361 2.362,5.797c0.095,0.608 0.281,1.102 0.076,1.4c-0.135,0.197 -0.409,0.198 -0.676,0.128c-0.258,-0.067 -0.247,-0.247 -0.52,-1.171c-0.468,-1.583 -1.045,-2.38 -2.244,-3.806c-0.411,-0.489 -0.685,0.122 -0.03,0.915c0.905,1.447 1.585,2.372 1.815,4.233c-0.586,0.843 -0.875,0.679 -2.102,-1.455c-0.81,-1.41 -1.297,-1.772 -1.51,-1.761c-0.537,0.026 -0.03,0.699 1.48,3.107c0.781,1.286 0.8,2.084 -0.088,2.08c-0.302,-0.002 -1.989,-1.881 -2.412,-2.696c-0.351,-0.677 -0.786,-1.195 -0.787,-0.369c0,0.328 1.045,2.058 1.762,2.898c1.129,1.324 1.453,1.59 1.597,2.177c0.069,0.279 0.205,0.768 0.302,1.086c0.29,0.953 0.143,1.225 -0.443,0.722c-0.265,-0.706 -0.48,-0.78 -1.208,-1.323c-0.613,-0.459 -1.464,-1.646 -2.022,-2.483c-0.21,-0.316 -0.392,-0.718 -0.607,-1.04c-0.547,-1.036 -1.275,-1.125 -0.748,-0.08c0.249,0.484 0.652,1.279 1.076,1.868c0.71,1.023 0.563,1.556 -0.279,1.552c-0.36,-0.001 -1.369,-1.339 -1.999,-2.386c-0.411,-0.682 -1.053,-1.165 -0.974,-0.489c0.019,0.168 0.516,1.368 1.261,2.305c0.809,1.018 0.915,1.56 0.13,1.556c-0.536,-0.003 -0.998,-0.52 -1.682,-1.575c-0.65,-1.003 -1.055,-1.356 -1.238,-1.242c-0.233,0.145 0.931,2.132 1.888,3.216c0.904,1.027 0.241,1.611 -0.799,0.699c-0.564,-0.495 -1.694,-1.972 -2.01,-2.673c-0.567,-1.255 -0.932,-0.913 -0.566,0.081c0.403,1.096 1.032,2.294 1.792,3.073c0.399,0.408 1.22,0.728 1.621,1.078c1.135,0.995 1.855,1.912 1.762,2.076c-3.238,0.185 -5.896,-3.311 -6.624,-5.428c-0.516,-1.391 -1.106,-1.596 -0.546,0.369c1.579,4.882 6.5,7.418 9.903,5.23c2.053,-1.321 0.239,-4.759 -1.441,-3.651c-0.457,0.301 -0.477,1.155 0.103,0.698c1.091,-0.858 2.189,1.259 0.998,1.886c-1.675,0.88 -3.532,-0.843 -2.393,-2.933c1.126,-2.146 5.637,-0.918 4.755,2.549c-0.535,1.556 -2.878,3.5 -4.885,3.538c-3.731,0.071 -6.307,-2.823 -7.743,-5.68c-0.184,-0.368 -0.514,-1.09 -0.787,-1.68c-0.236,-0.509 -0.423,-0.887 -0.442,-0.883c0.415,3.469 3.692,7.759 6.625,8.468c4.875,1.159 6.209,-1.78 9.399,-4.819c0,0 2.33,0.307 2.411,0.257c0.215,-0.134 4.535,-0.329 4.663,-0.206c-17.451,32.011 -16.123,70.014 -1.116,98.86c0.993,2.111 1.166,1.71 -0.477,1.28c-1.698,-0.448 -3.238,0.241 -4.617,-0.081c-2.853,-0.59 -3.461,1.38 -5.653,2.432c-2.735,1.045 -2.116,2.968 -2.768,4.827c-0.205,0.288 -0.354,0.523 -0.242,0.485c0.181,-0.061 0.764,-0.607 0.808,-1.087c0.112,-1.23 0.546,-2.202 1.04,-2.692c0.47,-0.467 0.799,-0.702 0.913,-0.501c0.089,0.158 0.023,0.708 -0.21,1.153c-0.663,1.268 0.216,5.508 0.271,2.49c0.044,-2.395 1.479,-5.066 3.486,-6.159c1.607,-0.796 2.105,-0.714 0.797,0.511c-1.486,1.602 -2.497,3.47 -2.556,5.795c-0.025,0.964 0.353,1.768 0.489,0.904c-0.057,-4.427 4.314,-9.357 9.002,-6.906c0.234,0.17 0.431,0.491 0.362,0.672c-4.54,-0.77 -8.49,1.739 -7.908,7.681c0,0 0.407,-1.165 0.636,-2.327c0.715,-3.638 4.783,-5.23 7.636,-4.233c0.537,0.229 0.958,0.995 0.883,1.098c-3.489,-1.108 -7.319,2.229 -7.541,5.843c-0.072,1.176 -0.045,2.183 0.551,0.062c2.253,-8.031 9.204,-4.391 8.35,-3.732c-5.38,-0.65 -7.328,3.013 -7.204,7.247c0.077,0.387 0.274,0.517 0.436,0.877c0.717,1.596 1.043,2.963 1.101,5.859c-0.055,0.745 0.554,5.493 -0.06,5.293c-1.954,-0.731 -3.439,-1.594 -6.825,-0.053c-0.305,0.016 -0.404,-0.154 -0.3,-0.421c0.141,-0.36 0.67,-1.07 1.593,-2.12c2.08,-2.243 0.885,-1.642 -0.825,-0.086c-1.104,1.005 -0.864,0.318 0.176,-3.113c0.422,-1.391 0.159,-1.559 -1.655,-2.492c-1.868,-0.959 -3.16,-1.106 -1.575,-0.101c0.622,0.385 1.285,0.788 1.99,1.073c0.827,0.457 0.732,0.649 0.122,2.654c-1.185,3.894 -1.597,5.317 -1.535,7.936c0.151,6.371 6.152,5.738 9.569,4.306l0.142,4.194l12.866,18.332c0,0 -44.975,-0.047 -69.038,0.353c1.375,-3.338 15.921,-17.475 16.787,-20.004c0.083,0.012 -1.613,-5.168 -2.504,-7.422c-4.207,-10.642 -9.737,-15.115 -6.534,-22.107c0.689,-1.386 0.808,-1.853 1.332,-1.85c0.711,0.003 0.938,0.481 0.139,1.836c-3.438,5.833 3.898,15.897 6.376,22.316c0.398,1.029 2.058,5.845 2.35,7.468c0.028,0.495 1.192,0.664 0.866,0.085c-0.914,-3.28 -2.061,-6.862 -2.594,-8.151c-1.959,-4.74 -4.019,-7.974 -5.929,-12.606c-1.067,-2.927 -1.635,-6.308 0.02,-9.342c0.603,-1.105 0.775,-1.719 1.172,-1.777c0.343,0.002 0.544,0.119 0.566,0.404c0.024,0.31 -0.165,0.819 -0.615,1.594c-2.891,4.978 2.247,13.02 4.793,18.755c1.659,3.738 3.135,7.67 3.657,11.216c0.008,0.245 0.328,0.894 0.965,0.452c-1.102,-6.624 -4.338,-13.047 -7.173,-19.236c-2.422,-4.835 -3.331,-9.049 -0.094,-13.03c0.281,-0.275 0.885,-0.229 0.929,0.179c0.023,0.276 -0.186,0.801 -0.692,1.862c-2.852,6.032 1.563,10.931 3.635,16.683c2.02,4.808 3.9,8.848 4.655,13.971c0.571,0.219 0.854,0.494 0.915,-0.231c-1.477,-7.24 -4.664,-13.748 -7.428,-20.017c-1.277,-2.724 -1.729,-4.031 -1.815,-5.855c-0.12,-2.509 1.129,-5.683 2.248,-6.521c0.29,-0.217 0.472,-0.255 0.737,-0.11c0.363,0.2 0.29,0.333 -0.428,1.708c-1.373,2.625 -1.491,5.575 -0.218,8.694c2.197,4.791 4.048,8.723 5.36,12.245c1.435,3.853 2.242,7.198 2.567,10.217c0,0 0.978,0.44 0.833,-0.217c-0.61,-4.225 -1.989,-8.609 -3.478,-12.318c-1.406,-3.501 -3.167,-6.871 -4.594,-10.342c-1.731,-4.163 -0.298,-8.713 3.252,-10.986l1.633,0.036c-0.095,-0.043 -3.724,1.415 -3.915,6.663c-0.181,5.001 2.16,8.074 3.853,12.31c2.064,5.11 3.911,9.59 4.35,15.05c0.161,0.19 1.055,0.231 1.04,0.15c-0.439,-3.673 -1.499,-7.164 -3.013,-11.456c-1.608,-4.56 -3.208,-6.583 -4.701,-11.371c-1.01,-3.24 -0.874,-7.628 1.376,-9.634c3.367,-3.442 8.065,-0.991 6.888,2.949c-0.909,2.773 -4.662,2.221 -4.642,-0.377c-0.008,-1.677 2.036,-2.131 2.711,-0.865c0.158,0.247 0.263,1.326 0.333,1.366c0.07,0.04 0.282,-0.849 0.283,-1.047c0.008,-1.379 -1.842,-2.539 -3.218,-1.839c-1.885,0.958 -3.109,3.161 -2.985,6.11c0.131,3.137 0.693,5.166 3.23,10.086c2.956,5.731 3.937,11.938 4.568,16.12c0.272,-0.116 0.6,0.033 0.706,0c-0.431,-5.702 -2.282,-11.558 -4.592,-16.426c-2.797,-5.896 -3.581,-9.504 -2.647,-12.146c0.137,-0.389 0.267,-0.681 0.435,-0.706c0.313,-0.048 0.41,0.458 0.7,1.517c0.089,0.324 -0.023,0.835 -0.088,1.229c-0.244,2.419 1.431,7.449 2.989,9.684c0.456,0.638 1.038,0.616 0.535,-0.516c-1.605,-2.922 -2.582,-5.572 -2.71,-9.125c-0.038,-1.044 1.164,-0.575 1.191,-0.051c0.087,1.697 0.255,3.696 1.056,5.118c1.627,2.815 2.533,2.938 0.868,-0.205c-0.37,-0.73 -1.427,-3.813 -1.001,-4.873c0.237,-0.216 0.526,-0.255 0.668,-0.039c0.471,1.743 1.123,3.468 2.275,4.811c0.604,0.698 0.703,0.383 0.386,-0.489c-0.531,-1.009 -2.19,-4.384 -1.426,-5.145c0.247,-0.206 0.102,-0.094 0.772,1.013c0.933,1.541 1.442,2.145 1.896,2.595c0.603,0.6 0.75,0.197 0.126,-0.857c-1.245,-2.104 -1.954,-3.852 -1.516,-4.292c0.432,-0.435 0.536,-0.233 1.52,1.46c0.437,0.753 1.071,1.864 1.288,2.126c0.215,0.26 0.412,0.328 0.416,0.112c-0.229,-2.043 -1.965,-4.374 -2.664,-4.779c-0.1,-0.19 -0.064,-1.805 -0.064,-1.805c2.607,1.359 2.713,2.89 4.441,5.25c0.177,0.175 0.431,-0.039 0.355,-0.365c-0.061,-0.442 -1.083,-2.405 -1.724,-3.267c-0.504,-0.677 -0.527,-1.065 -0.099,-1.261c0.691,-0.315 1.656,0.723 2.683,2.577c0.477,0.86 1.114,1.359 1.116,0.907c0,-0.248 -0.886,-2.466 -1.498,-3.107c-1.02,-1.068 -0.516,-1.814 0.665,-0.827c0.536,0.449 1.262,0.786 2.01,2.417c0.437,0.953 0.813,1.075 0.815,0.315c0,-0.854 -1.419,-2.942 -2.374,-3.519c-0.74,-0.448 -1.16,-0.947 -0.952,-1.281c0.648,-0.963 3.271,1.494 4.166,3.779c0.265,0.675 0.728,1.019 0.841,0.722c0.201,-0.151 -0.33,-1.798 -0.875,-2.561c-0.9,-1.743 -3.028,-3.427 -4.288,-3.224c-0.244,0.04 -0.914,-1.389 -0.914,-1.389c3.216,-0.525 6.339,3.367 6.895,4.823c1.055,2.763 1.591,2.439 0.669,0.015c-1.802,-4.736 -7.4,-7.389 -10.507,-5.098c-1.769,1.305 -0.711,4.426 1.109,3.896c0.723,-0.274 1.424,-1.019 0.152,-0.773c-1.416,0.143 -1.867,-2.034 -0.424,-2.471c2.322,-0.702 2.854,3.036 0.979,3.868c-1.946,0.843 -3.882,-0.414 -3.7,-2.572c0.344,-4.08 5.304,-5.259 10.201,-1.959c1.377,0.928 3.072,3.953 3.654,5.87c0.192,0.633 0.841,0.855 0.92,0.775c0.186,-0.187 -1.359,-3.555 -1.868,-4.411c-2.132,-4.932 -9.841,-5.176 -9.841,-4.921c0,0 -3.019,1.919 -5.701,5.083l-6.889,-0.641c17.553,-28.481 18.933,-70.357 0.928,-100.002c0.23,0.15 3.461,0.994 4.575,0.108c0.822,-0.397 1.057,-0.535 1.965,-0.205c1.021,0.371 2.098,0.043 3.21,-0.986c0.838,-0.774 0.855,-1.013 1.395,-0.942c1.599,0.209 2.66,-0.736 2.989,-3.065c0.129,-0.915 0.218,-1.866 0.088,-1.727c-0.075,0.081 -0.261,0.872 -0.378,1.37c-0.324,1.368 -0.623,1.87 -1.151,2.316c-0.869,0.735 -1.372,0.324 -1.009,-0.792c0.343,-0.72 0.629,-2.571 0.157,-3.414c-0.083,-0.151 -0.103,0.422 -0.222,0.881c-0.949,3.649 -1.943,5.502 -3.663,5.93c-0.807,0.201 -1.181,0.076 -0.919,-0.393c3.034,-3.267 2.831,-6.886 2.602,-6.577c-0.644,2.094 -1.843,5.216 -3.81,6.499c-1.699,1.108 -4.188,1.213 -5.573,0.283c-0.786,-0.528 0.402,-0.685 2.181,-0.709c2.997,-0.041 5.799,-4.084 5.333,-7.493c-0.109,-0.63 -0.28,0.046 -0.523,1.083c-1.106,3.691 -3.003,6.282 -7.335,5.509c-0.338,-0.061 -0.564,-0.286 -0.749,-0.415c-0.705,-0.494 -0.445,-0.833 0.956,-0.648c3.133,0.413 5.86,-2.555 5.844,-6.142c-0.008,-1.721 -0.253,-1.701 -0.524,-0.419c-0.381,1.807 -1.773,7.351 -6.842,5.54c-0.912,-0.5 -1.41,-1.139 -1.085,-1.233c2.956,0.602 5.665,-0.054 6.717,-3.977c0.455,-1.694 0.345,-3.348 -0.116,-4.733c-0.147,-0.942 -0.461,-1.659 -0.566,-2.615c-0.283,-2.562 -0.687,-5.391 -0.566,-8.194c0.243,-0.244 0.285,-0.191 1.135,0.38c1.671,1.121 2.934,0.862 4.633,0.198c2.185,-0.798 1.987,-0.654 -0.298,1.955c-0.477,0.544 -0.959,1.208 -1.013,1.311c-0.582,1.101 0.509,0.293 1.326,-0.744c1.136,-1.442 1.374,-1.775 1.598,-1.773c0.076,1.558 -0.481,3.452 -0.769,4.729c-0.377,1.416 -0.372,1.743 0.52,2.107c0.387,0.157 1.133,0.467 1.548,0.667c1.869,0.902 1.697,0.168 0.207,-0.683c-2.013,-1.149 -2.029,-1.091 -1.453,-2.999c0.675,-2.238 1.007,-4.175 1.372,-6.39c0.904,-5.476 -3.184,-8.488 -8.615,-6.576c-0.31,0.158 -0.669,-2.879 -0.619,-3.682c0.048,-0.29 -0.821,-0.226 -1.532,-1.11c0.217,-0.196 -8.007,-10.608 -11.837,-16.923c23.838,0.06 47.326,-0.438 68.892,-0.38l0,0Zm-17.662,19.557c0.053,0.034 0.085,0.062 0.085,0.062c-0.036,-0.042 -0.065,-0.062 -0.085,-0.062Zm18.614,-19.069l23.662,0l0,50.36l-2.339,0.05c0,0 -3.845,-6.685 -4.858,-9.843c-0.253,-0.789 -0.695,-1.874 -0.867,-2.301c-0.391,-0.966 -0.665,-1.085 -0.145,-1.676c1.04,-1.182 0.835,-3.573 -0.176,-4.725c-0.313,-0.374 -0.475,-0.248 -0.459,-1.156c0.014,-0.782 0.086,-1.281 -0.118,-1.684c-0.342,-0.673 -0.574,-0.721 -0.085,-1.463c0.512,-0.776 1.193,-2.037 1.48,-3.026c0.463,-1.598 0.137,-1.897 1.169,-1.521c2.592,0.834 4.762,-1.035 4.694,-3.677c-0.057,-2.223 -2.114,-4.205 -4.507,-3.597c-0.551,0.14 -0.66,0.092 -1.509,-0.447c-0.244,-0.154 -0.614,-0.48 -0.929,-0.601c-0.394,-0.152 -0.719,-0.139 -0.883,-0.423c-0.321,-0.558 -1.322,-1.446 -2.542,-1.389c-0.744,0.035 -1.712,-0.237 -1.968,-0.372c-0.425,-0.225 -1.618,-0.042 -3.134,-0.272c-0.674,-0.102 -1.218,0.163 -1.544,0.167c-0.934,0.011 -0.553,-0.105 -0.73,-0.823c-1.17,-3.738 -4.588,-3.293 -6.154,-0.481c-0.574,1.104 -0.991,2.741 -1.207,4.431l-9.204,-0.14l12.353,-15.391Zm-71.228,0.109c3.438,4.421 6.727,9.376 10.193,13.89c4.265,5.466 4.406,6.094 3.261,11.596c-0.641,3.11 -0.916,3.828 -2.213,3.593c-1.219,-0.221 -2.25,0.748 -2.416,1.975c-0.312,2.302 1.884,3.72 4.09,2.568c1.163,-0.607 1.201,-0.673 0.814,1.335c-0.556,2.876 -1.669,5.353 -2.385,5.272c-1.849,-3.968 -6.348,-1.145 -4.855,2.981c-0.467,0.72 0.147,1.632 0.382,2.387c0,0 0.01,0.089 -2.56,0.948c-12.618,3.776 -28.023,13.634 -36.556,22.887l0,-69.242l32.245,-0.19Zm72.405,9.447c0.529,-0.013 1.039,0.157 1.46,0.539c1.1,1 0.842,2.396 -0.68,5.025c-1.597,3.662 -1.161,6.548 -0.795,10.394c-0.011,2.233 -0.757,4.355 -1.946,5.272c-1.926,1.487 -4.301,-0.504 -3.302,-2.522c0.512,-1.002 1.598,-0.418 1.854,-1.365c0.353,-3.497 -0.507,-7.063 -0.566,-10.495c0.02,-1.538 0.519,-3.469 1.208,-4.916c0.673,-1.206 1.757,-1.906 2.767,-1.932Zm3.034,5.976c-0.437,0.368 -1.165,0.376 -1.25,-0.084c0,-0.481 0.374,-2.017 0.632,-2.187c1.578,-0.373 1.075,1.874 0.618,2.271Zm2.359,-2.395c1.304,-0.051 2.163,3.322 1.032,5.296c-0.215,0.041 -1.796,0.031 -1.804,0.062c-0.027,-0.353 0.077,-1.056 0.195,-1.73c0.101,-0.577 0.16,-1.014 -0.011,-1.634c-0.428,-1.545 -0.707,-1.835 0.588,-1.994l0,0Zm2.484,0.047c0.048,-0.002 0.099,-0.001 0.153,0c1.324,0.006 2.078,2.593 1.663,5.42c-0.059,0.406 -0.094,0.832 -0.241,0.927c-0.553,-0.152 -2.09,0.403 -2.117,0.398c-0.145,-0.149 -0.086,-0.953 0.11,-1.678c0.364,-1.341 0.465,-2.234 0.039,-3.62c-0.306,-1.199 -0.317,-1.427 0.394,-1.447l-0.001,0Zm3.299,0.745c1.455,0.247 1.549,4.324 0.951,5.649c-0.142,0.195 -0.691,0.148 -0.886,0.221c-1.237,0.358 -0.962,0.545 -0.818,-1.447c0.098,-1.367 0.122,-2.429 -0.08,-3.558c-0.099,-0.495 -0.138,-0.84 0.217,-0.873c0.207,-0.042 0.427,-0.035 0.616,0.008l0,0Zm-7.258,1.594c0.579,0.804 0.113,2.663 -0.329,3.354c-0.505,0.761 -0.707,0.825 -0.432,1.158c0.117,0.142 0.36,0.862 0.21,1.164c-0.277,0.56 0.435,0.661 1.082,1.001c1.049,0.556 1.558,1.581 2.342,3.446c0.273,0.649 0.833,0.444 0.561,-0.255c-0.232,-0.599 -0.323,-1.481 -0.484,-2.069c-0.167,-0.605 0.016,-0.907 0.705,-0.73c1.036,0.267 0.893,0.017 1.271,-0.124c0.831,-0.466 1.389,0.194 0.887,0.559c-0.288,0.209 -0.903,0.336 -1.583,0.526c-0.577,0.161 -0.443,0.724 0.138,0.722c0.536,-0.003 2.074,-0.44 3.077,-0.748c2.875,-0.881 2.972,-1.35 2.702,0.307c-0.354,2.191 -1.535,3.835 -3.485,4.392c-1.699,0.484 -5.619,0.391 -7.366,-0.175c-1.658,-0.762 -1.768,-1.294 -2.27,-2.774c-0.686,-2.026 -1.091,-5.456 -0.302,-7.449c0.695,-1.683 0.625,-1.507 1.292,-1.422c0.593,0.21 1.39,-0.023 1.567,-0.392c0.089,-0.175 0.315,-0.496 0.417,-0.491Zm11.011,1.215c0.164,0.901 0.179,1.828 -0.13,2.525c-0.179,0.328 -1.186,0.31 -1.575,0.315c-0.23,0.054 -0.212,-3.046 0.035,-3.384c0.585,-0.89 1.342,-0.174 1.67,0.544Zm-29.174,-0.536l2.848,0.035l0,0.702l-3.36,-0.023l0.512,-0.714Zm9.964,0.12l0,0.912l-4.288,0.008l0,5.711l4.797,0.016l0.026,1.187l-6.421,-0.023l0.019,-7.806l5.863,-0.004l0.004,-0.001Zm21.798,-0.182c4.396,0.98 2.435,5.909 0.787,6.208c-2.054,0.372 -3.795,0.137 -3.226,-1.696c0.571,-1.242 0.175,-2.789 0.336,-3.918c0.397,-0.373 1.431,-0.743 2.103,-0.594Zm-33.145,1.73l4.231,0.043l0,0.943l-4.835,-0.012l0.604,-0.974Zm9.398,0.87c0.676,0 1.223,0.555 1.223,1.241c0,0.686 -0.547,1.242 -1.223,1.242c-0.675,0 -1.223,-0.556 -1.223,-1.242c0,-0.686 0.548,-1.241 1.223,-1.241Zm11.936,0.492c0.787,0.088 0.855,1.309 0.535,1.667c-0.413,0.414 -1.183,0.237 -1.418,-0.398c-0.211,-0.574 0.263,-1.294 0.883,-1.269Zm-22.515,0.532l5.412,0.015l0,0.765l-5.466,0.046l-0.145,-0.493l0.199,-0.333Zm30.465,0.33c0.751,-0.018 1.211,0.622 0.742,1.167c-0.707,0.796 -2.148,-0.422 -0.742,-1.167Zm-57.67,1.669c-1.211,1.037 -0.24,2.057 1.368,1.075c3.461,-2.113 8.566,-0.439 11.894,1.322c0.652,0.338 0.741,-0.452 0.099,-0.998c-3.073,-2.746 -9.626,-4.321 -13.361,-1.399Zm52.443,-1.444c0.845,0.004 0.833,1.073 0.29,1.455c-0.542,0.239 -0.637,0.172 -0.997,0.03c-0.494,-0.195 -0.125,-1.48 0.707,-1.485l0,0Zm2.994,0.016c1.002,0.051 0.89,2.096 -0.623,1.358c-0.549,-0.598 -0.193,-1.362 0.623,-1.358Zm-27.972,1.054l5.259,0.047l0,0.869l-4.919,-0.05l-0.34,-0.866Zm-33.99,2.045c1.437,1.157 0.992,1.228 -1.391,0.376c-1.557,-0.352 -3.107,-0.127 -4.082,0.264c-1.154,0.463 -1.421,0.329 -0.921,-0.454c1.341,-1.527 5.038,-1.219 6.394,-0.186Zm6.91,1.917c-0.144,0.361 -0.636,-0.289 -1.303,-0.163c-0.951,0.18 -0.676,0.225 0.329,1.385c1.005,1.16 1.334,1.435 1.272,1.881c-0.09,0.658 0.092,1.02 0.738,0.947c0.31,-0.035 0.679,0.33 1.154,0.768c1.646,1.518 2.477,2.272 3.012,2.507c2.179,0.954 1.198,-0.123 -0.195,-1.098c-2.321,-1.627 -3.128,-2.71 -1.479,-2.13c1.752,0.616 4.54,0.266 5.913,-0.573c0.676,-0.414 1.103,-1.048 2.056,-0.739c1.338,0.435 1.85,-0.366 1.479,-0.814c-0.607,-0.396 -1.994,-0.867 -3.31,-1.766c-2.817,-1.45 -5.778,-1.407 -7.751,-0.24c-1.163,0.688 -1.568,0.204 -0.428,-0.477c4.573,-2.502 8.191,-0.106 11.118,1.691c0.508,0.313 0.863,0.287 0.864,0.066c-0.078,-0.726 -1.38,-1.172 -1.907,-1.497c-4.079,-2.52 -8.365,-3.323 -11.562,0.252l0,0Zm27.768,-2.216l4.571,0.004l0,0.916l-4.235,-0.019l-0.336,-0.901Zm-37.193,1.168c1.266,-0.006 4.021,1.147 3.975,2.103c-0.053,0.363 -0.743,0.038 -1.342,-0.334c-1.158,-0.718 -2.936,-0.91 -4.609,-0.593c-1.285,0.243 -1.694,0.458 -1.877,0.302c-0.444,-1.012 2.678,-1.472 3.853,-1.478Zm49.427,0.683l0.008,1.641c-2.482,0.184 -2.992,2.982 -1.4,4.541c1.305,1.278 3.462,0.774 4.546,-1.037c0.189,-0.323 0.212,-0.517 0.328,-0.357c0.073,0.1 0.136,0.405 0.195,0.702c0.172,0.861 -0.072,1.082 -0.634,1.819c-0.909,1.193 -1.033,2.696 -0.463,3.814c0.157,0.308 0.485,0.748 0.428,0.951c0.318,-0.01 -2.817,8.896 -7.397,13.383c-0.767,0.518 -1.323,-0.09 -0.927,-0.925c3.731,-8.654 -3.407,-16.693 -6.177,-24.427l11.493,-0.105l0,0Zm-33.164,1.494l0.653,0.058c-0.525,3.987 -4.336,3.345 -4.487,0.097l0.551,-0.02c0.743,3.022 3.291,1.785 3.283,-0.135l0,0Zm-21.53,0.081c0,0 0.275,0.445 0.275,0.695c0,0.927 -0.015,2.27 -0.038,2.677c-0.221,3.836 -5.016,4.547 -4.651,1.264c0.285,-1.393 2.019,-1.547 2.446,-0.287c0.622,1.586 0.733,-0.382 0.741,-0.997c0.508,-0.966 0.88,-2.14 1.227,-3.352l0,0Zm23.108,0.272c0.197,0.005 0.549,0.179 0.826,0.481c0.316,0.344 0.198,0.515 -0.539,0.9c-0.797,0.416 -1.158,0.38 -0.871,-0.462c0.178,-0.523 0.332,-0.926 0.584,-0.919Zm35.874,0.201c0.109,0.005 0.386,0.15 0.321,0.567c-0.108,0.696 -0.701,1.091 -0.856,0.927c0.099,-0.367 0.218,-1.348 0.535,-1.494Zm-41.599,1.347c-0.094,0.281 -0.258,0.159 -0.677,-0.202c-0.461,-0.398 -0.437,-0.652 0.039,-0.939c0.683,-0.418 0.725,0.881 0.638,1.141l0,0Zm-14.52,-1.04c0.8,2.567 2.431,2.241 3.161,0.124l0.699,-0.012c-0.154,3.306 -4.275,3.247 -4.311,0.051l0.451,-0.163Zm-1.445,0.318c0.244,-0.039 0.069,0.819 0.069,0.819c0,0 -0.677,-0.355 -0.279,-0.73c0.05,-0.047 0.175,-0.083 0.21,-0.089l0,0Zm6.054,0.217c0.084,-0.005 0.242,0.06 0.413,0.175c0.401,0.269 0.332,0.427 -0.126,0.815c-0.705,0.596 -1.023,0.265 -0.642,-0.536c0.142,-0.298 0.248,-0.447 0.355,-0.454Zm52.642,0.559c0.297,-0.019 0.716,0.118 1.601,0.357c2.439,0.658 5.704,0.634 8.481,-0.144c0.877,-0.245 1.529,1.317 1.055,2.452c-0.209,0.502 -0.172,0.564 0.466,1.238c0.906,0.956 1.051,2.496 0.364,3.899c-0.501,1.021 -0.468,0.93 0.126,2.673c1.274,3.792 3.149,7.318 5.119,10.78l-2.628,-0.994c0,0 -11.865,10.353 -20.233,10.746l3.031,4.795c4.767,1.934 9.326,1.45 13.686,-1.334c-0.107,0.4 5.305,3.087 9.75,3.379l0.027,3.228c-3.298,-0.375 -6.64,-0.453 -9.704,-2.409c0,0 -2.817,1.195 -5.638,2.091l15.801,16.591l0.008,2.773c0,0 -6.745,-6.391 -13.687,-13.595l0.15,35.426l13.671,0.272c-0.43,9.22 -0.256,15.081 -0.164,25.641c-6.461,6.728 -15.35,13.459 -23.563,17.501c-3.876,-3.794 -7.079,-7.904 -9.88,-12.298c-0.06,-0.093 0.282,-0.271 0.223,-0.364c-0.085,-0.135 -0.571,-0.186 -0.659,-0.319c-1.708,-2.582 -5.678,-9.741 -5.049,-9.909c1.215,0.085 6.844,-0.622 7.965,-4.047c0.01,-0.217 -0.122,-0.828 0.031,-1.544c0.395,-1.857 0.598,-4.675 -0.073,-6.467c-1.21,-3.23 2.43,-2.195 2.553,-1.979l0,-12.202c-4.736,3.854 -9.515,7.648 -15.847,9.234c-3.937,-20.15 2.308,-45.209 20.112,-62.204l-0.976,-0.085c-18.293,19.213 -23.09,40.34 -19.969,62.592c0,0 0.116,0.695 0.134,0.93c0.043,0.554 -0.088,0.765 -0.573,1.165c-0.463,0.308 -0.883,0.64 -0.841,1.02c0.078,0.714 -0.598,0.738 -1.483,0.733c-0.408,-0.362 -0.956,0.095 -1.284,0.26c-0.459,0.069 -0.687,-1.832 -1.273,-0.438c-0.223,0.88 -0.646,0.946 -1.624,0.508c-0.615,-0.182 -0.629,0.127 -0.039,0.85c0.816,0.891 1.506,2.223 1.372,2.622c-0.299,0.896 -0.169,1.799 1.078,2.313c-0.071,0.005 -0.753,2.732 1.181,2.654c0.615,0.006 2.175,0.325 2.175,0.325c0.101,0.521 -0.063,0.817 -0.306,1.048l-1.345,-0.683l-0.352,1.626l-1.792,-0.128l4.361,5.466l0.508,-4.264l5.099,0.656c0.818,2.156 5.969,14.107 15.815,23.029c-0.108,0.293 -6.773,3.083 -6.773,3.083l-1.054,-3.318l-0.845,1.233l-1.506,-0.391l-0.176,1.396l-1.341,0.439l2.417,1.592l-6.13,1.776c-17.175,-28.12 -24.908,-66.901 -3.519,-108.207l5.405,0.07l-1.055,1.831l1.536,-0.248l0.434,1.334l1.128,-0.54l1.135,1.443l1.291,-3.855c0,0 3.829,0.088 4.306,0.039c0.375,-0.043 8.093,-6.616 7.927,-6.867c-0.119,-0.181 -8.405,5.966 -8.684,5.73c0,0 -0.831,0.201 -0.183,-0.586c1.163,-1.412 1.984,-2.486 3.165,-4.516c1.95,-2.695 2.827,-5.983 3.287,-8.209c0.008,-0.157 0.049,-0.515 -0.081,-0.776c-0.744,-1.498 -0.579,-2.477 0.757,-4.245c0.468,-0.619 0.497,-0.772 0.363,-1.152c-0.301,-0.858 -0.012,-1.593 0.604,-2.169c0.245,-0.229 0.403,-0.338 0.635,-0.353l-0.004,0Zm-45.539,5.983c3.392,1.414 0.668,4.545 -1.851,1.815c-1.32,-1.43 -2.363,-1.339 -3.081,-0.295c-0.323,0.471 0.148,1.299 0.566,1.036c0.388,-0.243 0.787,-0.532 1.353,-0.004c4.289,4.009 7.37,-1.603 3.673,-2.999c-0.457,-0.213 -1.107,0.26 -0.66,0.447l0,0Zm-13.971,-0.136c0.032,-0.002 0.07,0.015 0.119,0.046c0.16,0.102 0.172,1.519 0.011,2.115c-0.536,3.018 -2.656,10.033 -7.006,6.599c-1.727,-1.363 -0.156,-4.786 1.911,-3.623c1.614,0.908 0.525,3.075 -1.223,1.831c-0.848,-0.604 -0.579,0.641 0.137,0.997c1.215,0.645 3.414,-0.46 4.446,-2.429c0.411,-0.785 0.796,-2.172 1.23,-4.171c0.218,-1.004 0.236,-1.358 0.375,-1.365l0,0Zm0.367,5.226c0.358,2.182 -1.278,6.004 -3.608,6.568c-1.783,0.432 -3.988,-0.747 -3.83,-1.839c0.046,-0.317 0.174,0.102 1.789,0.373c2.256,0.378 3.692,-0.858 4.992,-3.705c0.41,-0.899 0.585,-1.377 0.657,-1.397Zm5.615,1.044c0,0.246 -0.117,0.896 -0.218,1.326c-0.241,1.023 -0.392,1.411 0.711,0.904c0.728,-0.341 1.794,-0.679 2.897,-0.058c1.216,0.685 2.377,0.558 3.81,-0.058c1.245,-0.42 1.851,-0.425 2.546,-0.019c1.268,0.74 0.833,0.267 0.669,-1.599c-0.113,-1.314 -0.466,-1.141 -0.921,-0.644c-0.299,0.326 -0.903,0.398 -1.575,0.031c-0.801,-0.437 -1.917,-0.23 -2.293,0.082c-0.376,0.31 -0.919,0.352 -1.655,-0.152c-0.488,-0.334 -0.76,-0.159 -1.357,0.113c-0.984,0.447 -1.362,0.206 -1.896,-0.214c-0.485,-0.359 -0.713,-0.246 -0.718,0.288l0,0Zm-4.885,1.567c0.128,-0.002 0.143,0.503 0.054,1.517c-0.41,3.742 -3.298,5.827 -6.697,4.015c-1.488,-0.862 -1.286,-1.47 0.18,-0.931c2.337,0.86 4.697,-0.342 5.852,-3.418c0.296,-0.788 0.498,-1.182 0.611,-1.183l0,0Zm8.294,2.669c1.68,0.706 3.544,0.482 4.018,-0.144c0.532,-0.702 -0.285,-0.586 -0.712,-0.48c-1.471,0.357 -2.481,0.226 -3.077,-0.043c-1.742,-0.683 -1.632,0.057 -0.229,0.667l0,0Zm-17.532,2.099c2.179,2.707 2.465,3.235 4.342,6.313c13.719,23.637 18.112,53.512 9.093,80.632c-2.475,7.484 -5.966,15.111 -9.88,21.238l-4.698,0.051l1.613,-1.867l-2.186,0.163l-0.134,-1.233l-1.659,0.543l-0.798,-1.863l-1.502,4.264l-8.707,0.024c20.392,-20.116 24.408,-44.493 20.605,-64.063c0,0 1.704,-1.082 1.941,-1.715c0.058,-0.153 0.185,-0.807 0.302,-0.904c0.758,-0.503 1.262,-0.992 1.636,-0.896c0.215,0.055 0.326,0.156 0.482,0.388c0.718,1.069 0.873,1.236 1.265,0.159c0.281,-0.772 0.16,-1.052 1.085,-0.904c0.542,0.292 1.262,0.284 1.196,0.175c-0.048,-0.081 -0.816,-0.997 -1.181,-1.517c-0.86,-1.23 -1.107,-1.452 -1.028,-1.991c0.121,-0.82 -0.523,-1.705 -0.925,-1.928c0.116,-2.21 -0.72,-2.431 -3.088,-2.925c-0.012,-0.382 0.052,-0.691 0.218,-1.032l1.391,1.125l0.505,-2.087l1.888,0.104l-5.473,-5.377c0.027,1.517 0.098,3.051 -0.039,4.512c-2.566,-0.142 -5.097,-0.982 -5.135,-0.822c-3.768,-9.005 -9.508,-16.619 -15.569,-22.561l6.054,-2.952l1.716,3.321l0.421,-1.882l1.502,0.268l0.252,-1.207l1.659,-0.237l-1.831,-1.765l4.667,-1.552Zm36.054,3.884c0.231,0.296 0.417,0.316 0.726,0.586l-0.619,0.446c0.029,-0.422 -0.008,-0.639 -0.107,-1.032Zm-40.281,1.109c-0.514,0 -0.933,0.426 -0.933,0.947c0,0.521 0.419,0.943 0.933,0.943c0.513,0 0.929,-0.422 0.929,-0.943c0,-0.521 -0.416,-0.947 -0.929,-0.947Zm5.051,0.15c-0.515,0 -0.932,0.424 -0.932,0.947c0,0.523 0.417,0.947 0.932,0.947c0.515,0 0.933,-0.424 0.933,-0.947c0,-0.523 -0.418,-0.947 -0.933,-0.947Zm-16.273,0.692c2.998,2.529 5.754,5.825 9.097,10.98l-0.069,0.694l1.02,0.385c0,0 5.561,7.429 5.267,10.731c-1.909,0.405 -3.653,-0.121 -7.066,3.119c-1.611,-0.879 -2.567,-0.598 -4.236,-0.104c0,0 0.03,0.734 0.604,0.981c1.111,-1.324 2.321,-0.71 2.978,-0.38c-0.236,0.102 -0.839,7.483 0.332,9.055c0.882,2.506 -1.435,2.031 -3.042,1.412l0.462,11.721c5.289,-6.124 16.46,-10.209 15.667,-9.765c5.607,30.061 -7.723,50.115 -21.675,64.815l7.312,0.043c0,0 -6.304,10.263 -6.773,13.102c0.358,0.942 1.35,2.896 -0.325,4.267c-0.567,0.631 -0.627,3.492 -0.627,3.492c-3.845,0.135 -7.178,-1.221 -11.611,0.357c-0.459,0.157 -0.559,-2.45 -0.581,-2.921c-2.478,-2.23 -0.209,-6.06 0.127,-5.778c-1.999,-5.961 -6.02,-13.079 -6.02,-13.079c0,0 -2.424,-0.131 -3.899,-0.216c-0.308,-0.262 -0.507,-7.212 -0.195,-7.38c10.958,0.883 28.107,-0.128 28.107,-0.128l-4.602,-6.525c-5.667,-2.243 -13.457,1.587 -13.081,1.789c0.018,0.022 -6.226,-3.457 -10.557,-2.962l0.142,-3.408c3.848,-0.016 7.397,0.711 10.496,2.567l5.265,-1.99l-16.137,-17.184l0.187,-2.832c5.259,4.94 13.886,14.495 13.886,14.495l0.011,-36.074l-13.874,-0.035l-0.371,-7.282l-0.359,-0.637l-0.165,-5.226l0.386,-0.531l-0.133,-2.235l-0.13,-0.318l-0.176,-5.339l0.298,-0.45l0.046,-3.359c6.704,-6.662 24.014,-17.867 24.014,-17.867l0,0Zm11.853,1.013l1.616,7.193l1.086,-1.366l1.666,0.532l0.115,-1.657l1.517,-0.535l-6,-4.167Zm55.134,1.196c-0.515,0 -0.933,0.424 -0.933,0.947c0,0.523 0.418,0.946 0.933,0.946c0.515,0 0.933,-0.423 0.933,-0.946c0,-0.523 -0.418,-0.947 -0.933,-0.947Zm-4.365,0.592c-0.515,0 -0.932,0.424 -0.932,0.947c0,0.523 0.417,0.947 0.932,0.947c0.515,0 0.933,-0.424 0.933,-0.947c0,-0.523 -0.418,-0.947 -0.933,-0.947Zm-53.46,0.838c-0.515,0 -0.933,0.424 -0.933,0.947c0,0.523 0.418,0.947 0.933,0.947c0.515,0 0.932,-0.424 0.932,-0.947c0,-0.523 -0.417,-0.947 -0.932,-0.947Zm56.807,0.571l-6.49,6.196l1.82,-0.078l0.325,1.808l1.629,-0.757l1.317,1.234l1.399,-8.403Zm2.762,2.082c-0.515,0 -0.932,0.424 -0.932,0.947c0,0.522 0.417,0.946 0.932,0.946c0.515,0 0.933,-0.424 0.933,-0.946c0,-0.523 -0.418,-0.947 -0.933,-0.947Zm-51.612,1.219c-0.515,0 -0.932,0.424 -0.932,0.947c0,0.523 0.417,0.947 0.932,0.947c0.515,0 0.933,-0.424 0.933,-0.947c0,-0.523 -0.418,-0.947 -0.933,-0.947Zm4.036,0.792c-0.515,0 -0.932,0.424 -0.932,0.947c0,0.522 0.417,0.946 0.932,0.946c0.516,0 0.933,-0.424 0.933,-0.946c0,-0.523 -0.417,-0.947 -0.933,-0.947Zm-3.661,1.408c0.178,2.532 0.47,5.534 0.535,8.07l1.231,-1.23l1.421,0.586l0.505,-1.556l1.548,-0.077l-5.24,-5.793Zm39.959,2.112c-0.515,0 -0.932,0.424 -0.932,0.947c0,0.522 0.417,0.946 0.932,0.946c0.516,0 0.933,-0.424 0.933,-0.946c0,-0.523 -0.417,-0.947 -0.933,-0.947Zm-42.634,0.166c-0.516,0 -0.933,0.424 -0.933,0.946c0,0.523 0.417,0.947 0.933,0.947c0.515,0 0.932,-0.424 0.932,-0.947c0,-0.522 -0.417,-0.946 -0.932,-0.946Zm46.332,0.23c-0.516,0 -0.933,0.424 -0.933,0.946c0,0.523 0.493,0.947 0.933,0.947c0.439,0 0.932,-0.424 0.932,-0.947c0,-0.522 -0.417,-0.946 -0.932,-0.946Zm-0.553,2.044l-5.38,5.617l1.762,0.167l0.554,1.594l1.127,-0.969l1.369,1.016l0.568,-7.425Zm2.954,1.204c-0.515,0 -0.932,0.424 -0.932,0.947c0,0.523 0.417,0.947 0.932,0.947c0.515,0 0.933,-0.424 0.933,-0.947c0,-0.523 -0.418,-0.947 -0.933,-0.947Zm-42.419,1.752c-0.516,0 -0.933,0.423 -0.933,0.946c0,0.523 0.417,0.947 0.933,0.947c0.515,0 0.932,-0.5 0.932,-0.947c0,-0.446 -0.417,-0.946 -0.932,-0.946Zm-22.986,0.767l-1.359,1.055c1.12,0.443 1.75,1.395 1.75,1.395c0,0.001 -0.152,-0.559 -0.391,-2.45Zm27.396,0.637c-0.515,0 -0.932,0.424 -0.932,0.947c0,0.523 0.417,0.946 0.932,0.946c0.515,0 0.933,-0.423 0.933,-0.946c0,-0.523 -0.418,-0.947 -0.933,-0.947Zm-6.681,1.35c-0.515,0 -0.932,0.424 -0.932,0.947c0,0.523 0.417,0.947 0.932,0.947c0.515,0 0.933,-0.424 0.933,-0.947c0,-0.523 -0.418,-0.947 -0.933,-0.947Zm38.526,1.908c-0.515,0 -0.932,0.423 -0.932,0.946c0,0.523 0.417,0.947 0.932,0.947c0.516,0 0.933,-0.424 0.933,-0.947c0,-0.523 -0.417,-0.946 -0.933,-0.946Zm-3.68,1.389c-0.515,0 -0.933,0.424 -0.933,0.946c0,0.523 0.418,0.947 0.933,0.947c0.515,0 0.932,-0.424 0.932,-0.947c0,-0.522 -0.417,-0.946 -0.932,-0.946Zm37.571,0.234l1.938,2.138l0,31.278l-1.892,0.039l-0.046,-33.455Zm-75.436,0.221c1.579,0.002 3.338,0.233 3.898,1.207c0.872,1.092 -0.982,0.669 -2.541,0.907c-1.441,0.179 -0.606,0.477 1.429,0.598c2.805,0.168 3.906,0.242 4.324,0.899c0.237,0.611 0.063,1.023 0.113,1.681l-3.183,-0.151c-1.652,0.002 -2.622,-0.03 -3.112,0.097c-0.39,0.101 -0.278,0.418 -0.145,0.554c0.07,0.072 1.337,0.089 2.817,0.128c3.984,0.107 4.866,0.243 5.148,1.545c0.214,1.193 -0.744,1.011 -4.838,0.558c-1.822,-0.151 -2.802,0.284 -3.066,0.415c-0.448,0.224 1.302,0.444 1.873,0.35c0.358,-0.058 2.985,0.231 3.952,0.415c0.814,0.125 0.097,0.102 -0.313,0.605c-0.272,0.416 -0.186,0.894 -0.612,1.129c-0.522,0.28 -1.556,0.275 -3.413,0.275c-2.122,0.001 -3.112,0.524 -0.198,0.652c1.881,0.083 1.987,0.05 2.148,0.602c0.425,1.359 -0.481,1.599 -2.401,1.908c-0.917,0.16 -2.278,0.071 -3.306,-0.004c-4.06,-0.293 -5.467,-1.275 -6.016,-3.092c-2.047,-6.776 0.48,-10.914 6.395,-11.247c0.328,-0.018 0.682,-0.032 1.047,-0.031l0,0Zm41.038,0.302l-4.585,6.77l1.767,-0.698l0.841,1.836l1.414,-1.025l1.413,0.885l-0.85,-7.768Zm-34.304,0.823c0.238,0.295 0.133,0.516 -0.26,0.733c-0.331,0.184 -0.899,0.048 -1.272,-0.116c-0.493,-0.216 -0.543,-1.11 -0.138,-1.207c0.582,-0.118 1.306,0.157 1.67,0.59Zm-33.21,-0.345l-2.104,2.328c0,0 1.937,-0.703 2.976,-1.118l-0.872,-1.21Zm70.373,1.04c-0.515,0 -0.932,0.423 -0.932,0.946c0,0.523 0.417,0.947 0.932,0.947c0.515,0 0.933,-0.424 0.933,-0.947c0,-0.523 -0.418,-0.946 -0.933,-0.946Zm34.138,0.818c0,0 2.336,2.342 3.294,3.325l-0.867,-0.004l0.023,1.847l2.763,0.031l1.518,1.509l-4.22,-0.019l0,1.885l5.225,0.004l-0.026,-0.807l2.063,1.898l0.245,20.974l-9.956,-0.032c-0.037,-10.327 -0.009,-20.283 -0.061,-30.611l-0.001,0Zm-68.304,2.274c-0.143,0.453 -0.463,0.454 -1.009,0.229c-0.808,-0.334 -0.693,-1.239 -0.081,-1.335c1.156,-0.134 1.37,0.407 1.09,1.106Zm3.134,0.395c-0.515,0 -0.933,0.424 -0.933,0.947c0,0.523 0.418,0.947 0.933,0.947c0.515,0 0.932,-0.424 0.932,-0.947c0,-0.523 -0.417,-0.947 -0.932,-0.947Zm-3.283,0.726c0.364,0.023 0.726,0.213 0.932,0.419c0.51,0.523 0.33,1.01 -0.24,1.311c-0.64,0.338 -1.091,-0.122 -1.277,-0.892c-0.126,-0.519 0.173,-0.821 0.585,-0.838Zm29.275,2.483c-0.517,0 -0.936,0.425 -0.936,0.95c0,0.525 0.419,0.951 0.936,0.951c0.518,0 0.937,-0.426 0.937,-0.951c0,-0.525 -0.419,-0.95 -0.937,-0.95Zm-30.819,1.152c0.803,0.028 1.046,0.861 0.626,1.308c-0.602,0.605 -1.537,0.346 -1.67,-0.233c-0.042,-0.651 0.481,-1.075 1.044,-1.075Zm27.478,0.384c-0.515,0 -0.933,0.424 -0.933,0.947c0,0.523 0.418,0.947 0.933,0.947c0.515,0 0.932,-0.424 0.932,-0.947c0,-0.523 -0.417,-0.947 -0.932,-0.947Zm3.312,0.629l-4.174,7.108l1.69,-0.679l1.024,1.369l1.055,-0.935l1.594,0.792l-1.189,-7.655Zm-32.751,1.187c0.746,0.003 0.955,0.599 0.413,1.145c-0.369,0.37 -0.786,0.382 -1.212,0.038c-0.645,-0.52 -0.15,-1.187 0.799,-1.183l0,0Zm35.675,0.088c-0.515,0 -0.933,0.424 -0.933,0.947c0,0.522 0.418,0.946 0.933,0.946c0.515,0 0.932,-0.424 0.932,-0.946c0,-0.523 -0.417,-0.947 -0.932,-0.947Zm-30.385,0.746c-0.515,0 -0.895,0.424 -0.895,0.947c0,0.523 0.418,0.947 0.933,0.947c0.515,0 0.932,-0.424 0.932,-0.947c0,-0.523 -0.455,-0.947 -0.97,-0.947Zm69.145,0.21l0,2.009l5.259,0.004l0,-2.009l-5.259,-0.004Zm-69.077,1.784l-2.014,7.469l1.686,-0.974l1.051,1.09l0.978,-1.222l1.758,0.466l-3.459,-6.829Zm3.582,0.811c-0.515,0 -0.933,0.424 -0.933,0.947c0,0.523 0.418,0.947 0.933,0.947c0.515,0 0.932,-0.424 0.932,-0.947c0,-0.523 -0.417,-0.947 -0.932,-0.947Zm-6.567,0.381c-0.515,0 -0.932,0.423 -0.932,0.946c0,0.523 0.417,0.947 0.932,0.947c0.515,0 0.933,-0.424 0.933,-0.947c0,-0.523 -0.418,-0.946 -0.933,-0.946Zm72.058,0.589l0,1.804l5.259,0l0,-1.792l-5.259,-0.012Zm-43.279,2.359c-0.515,0 -0.932,0.424 -0.932,0.947c0,0.522 0.417,0.946 0.932,0.946c0.515,0 0.933,-0.424 0.933,-0.946c0,-0.523 -0.418,-0.947 -0.933,-0.947Zm43.283,1.009l0,1.944l5.259,0l0,-1.944l-5.259,0Zm-108.44,0.237l1.85,0.034l0.03,33.882l-1.804,-1.936l-0.076,-31.98Zm-0.772,0.065l-0.092,30.969l-3.505,-3.74l0.933,-0.012l0,-2.111l-3.035,-0.023l-1.295,-1.28l4.326,0.004l0,-2.072l-5.133,-0.019l0,1.253l-2.523,-2.732l0.043,-20.221l10.281,-0.016Zm66.067,0.947l-2.808,7.368l1.766,-1.021l0.913,0.912l0.944,-0.865l1.605,0.795l-2.42,-7.189Zm-73.856,0.353l-0.027,1.983l5.183,0l0,-1.983l-5.156,0Zm77.036,0.4c-0.515,0 -0.933,0.423 -0.933,0.946c0,0.523 0.418,0.947 0.933,0.947c0.515,0 0.932,-0.424 0.932,-0.947c0,-0.523 -0.417,-0.946 -0.932,-0.946Zm-6.348,0.106c-0.515,0 -0.932,0.423 -0.932,0.946c0,0.523 0.417,0.947 0.932,0.947c0.516,0 0.933,-0.424 0.933,-0.947c0,-0.523 -0.417,-0.946 -0.933,-0.946Zm-21.946,0.352c-0.515,0 -0.932,0.423 -0.932,0.946c0,0.523 0.417,0.947 0.932,0.947c0.515,0 0.933,-0.424 0.933,-0.947c0,-0.523 -0.418,-0.946 -0.933,-0.946Zm68.259,0.764l0,2.083l5.259,0l0,-2.083l-5.259,0Zm-68.373,1.175l-0.78,1.223l-1.785,-0.617l2.435,7.476l3.054,-7.798l-1.755,1.016l-1.169,-1.3Zm-48.628,0.544l0,1.978l5.155,0l0,-1.978l-5.155,0Zm117.001,1.773l0,2.064l5.255,0l0,-2.064l-5.259,0l0.004,0Zm-117.001,1.726l0,1.983l5.155,0l0,-1.983l-5.155,0Zm73.788,0.373c-0.517,0 -0.936,0.425 -0.936,0.95c0,0.525 0.419,0.951 0.936,0.951c0.517,0 0.937,-0.426 0.937,-0.951c0,-0.525 -0.42,-0.95 -0.937,-0.95Zm-28.077,0.989c-0.517,0 -0.936,0.426 -0.936,0.951c0,0.525 0.419,0.95 0.936,0.95c0.518,0 0.937,-0.425 0.937,-0.95c0,-0.525 -0.419,-0.951 -0.937,-0.951Zm5.986,0.178c-0.517,0 -0.937,0.426 -0.937,0.951c0,0.525 0.42,0.951 0.937,0.951c0.517,0 0.936,-0.426 0.936,-0.951c0,-0.525 -0.419,-0.951 -0.936,-0.951Zm65.304,0.132l0,1.863l5.255,0l0,-1.863l-5.259,0l0.004,0Zm-43.22,0.869l-1.116,1.192l-1.602,-0.462l3.631,6.875l1.835,-7.395l-1.602,1.036l-1.146,-1.246Zm-73.781,0.699l0,2.25l5.155,0l0,-2.25l-5.155,0Zm48.662,1.02c-0.517,0 -0.936,0.426 -0.936,0.951c0,0.525 0.419,0.95 0.936,0.95c0.517,0 0.936,-0.425 0.936,-0.95c0,-0.525 -0.419,-0.951 -0.936,-0.951Zm-0.061,1.959c-0.399,0.288 -0.573,0.792 -0.99,1.052l-1.704,-0.737l1.024,9.362l4.732,-8.846l-2.164,0.368l-0.898,-1.199Zm-48.601,0.307l0,2.339l5.156,0l0,-2.339l-5.156,0Zm77.44,1.085c-0.517,0 -0.937,0.426 -0.937,0.95c0,0.525 0.42,0.951 0.937,0.951c0.517,0 0.936,-0.426 0.936,-0.951c0,-0.524 -0.419,-0.95 -0.936,-0.95Zm-6.054,0.109c-0.517,0 -0.937,0.425 -0.937,0.95c0,0.525 0.42,0.951 0.937,0.951c0.517,0 0.936,-0.426 0.936,-0.951c0,-0.525 -0.419,-0.95 -0.936,-0.95Zm-71.386,2.201l0,2.343l5.156,0l0,-2.343l-5.156,0Zm74.763,0.522c-0.517,0 -0.936,0.426 -0.936,0.951c0,0.525 0.419,0.95 0.936,0.95c0.517,0 0.936,-0.425 0.936,-0.95c0,-0.525 -0.419,-0.951 -0.936,-0.951Zm13.219,0.075c5.014,0.163 5.749,1.8 5.778,7.453c0.024,4.512 -1.3,6.275 -4.536,7.145c-1.179,0.317 -5.588,0.024 -6.837,-0.383c-0.021,-0.387 -0.644,-1.283 -0.785,-1.972c0.318,-0.092 1.325,0.05 3.232,0.234c1.547,0.15 1.945,-0.102 1.457,-0.411c-2.91,-0.697 -4.891,-0.507 -7.687,-1.051c-0.039,-0.848 -0.714,-1.837 -0.714,-1.837c0.151,-0.061 4.309,0.393 6.502,0.323c0.966,-0.041 0.384,-0.501 -0.008,-0.586c-2.558,-0.372 -4.219,-0.312 -6.925,-0.659c0.074,-0.702 -0.278,-1.341 -0.714,-1.877c0,0 1.368,-0.013 4.188,0.031c1.485,0.023 2.777,0.085 3.426,0.063c1.09,-0.002 0.991,-0.518 0.046,-0.588c-1.153,-0.131 -5.688,-0.158 -5.688,-0.158c0.337,-0.159 0.778,-2.221 0.603,-2.243c0,0 1.176,0.025 1.923,-0.004c3.635,-0.138 4.262,-0.079 4.33,-0.217c0.478,-0.443 -0.812,-0.617 -2.155,-0.613c-0.579,0.002 -1.424,0.13 -1.418,-0.19c0.008,-0.294 -0.008,-0.898 -0.303,-1.519c2.229,-0.871 4.28,-1.006 6.283,-0.941l0.002,0Zm-43.233,1.16c-0.518,0 -0.937,0.426 -0.937,0.951c0,0.525 0.419,0.95 0.937,0.95c0.517,0 0.936,-0.425 0.936,-0.95c0,-0.525 -0.419,-0.951 -0.936,-0.951Zm35.77,0.198c0.618,0.003 0.813,1.132 0.233,1.308c-0.89,0.269 -1.376,0.057 -1.345,-0.478c0.018,-0.303 0.712,-0.832 1.112,-0.83Zm-29.655,0.982c-0.517,0 -0.936,0.425 -0.936,0.95c0,0.525 0.419,0.951 0.936,0.951c0.517,0 0.936,-0.426 0.936,-0.951c0,-0.525 -0.419,-0.95 -0.936,-0.95Zm26.666,1.067c2.12,-0.02 1.023,2.905 -0.607,1.85c-0.808,-0.523 -0.24,-1.844 0.607,-1.85Zm-33.511,2.339c-0.044,-0.004 -0.067,0.04 -0.061,0.148l0.489,8.892l5.099,-8.307l-2.026,0.765l-0.872,-1.343l-1.093,0.873c-0.45,0.36 -1.302,-1.006 -1.536,-1.028l0,0Zm31.547,0.91c0.951,0.135 1.585,1.101 0.925,1.565c-1.487,0.661 -2.282,-1.5 -0.925,-1.565Zm-2.283,1.952c-0.518,0 -0.937,0.426 -0.937,0.951c0,0.525 0.419,0.95 0.937,0.95c0.517,0 0.936,-0.425 0.936,-0.95c0,-0.525 -0.419,-0.951 -0.936,-0.951Zm3.602,0.804c0.809,-0.012 1.19,1.181 0.389,1.556c-0.171,0.08 -0.677,0.137 -0.902,-0.031c-0.945,-0.708 -0.455,-1.45 0.513,-1.525l0,0Zm-35.062,1.467c-0.517,0 -0.936,0.425 -0.936,0.95c0,0.525 0.419,0.951 0.936,0.951c0.517,0 0.937,-0.426 0.937,-0.951c0,-0.525 -0.42,-0.95 -0.937,-0.95Zm71.528,1.191l-3.471,1.183l0,1.666c1.515,-0.489 2.381,-1.738 3.471,-2.849l0,0Zm-32.522,0.804c0.601,0.257 0.765,1.084 0.247,1.362c-0.407,0.219 -1.512,0.185 -1.783,-0.176c-0.7,-1.141 0.807,-1.465 1.536,-1.186Zm-32.717,0.329c-0.517,0 -0.936,0.426 -0.936,0.951c0,0.524 0.419,0.95 0.936,0.95c0.517,0 0.936,-0.426 0.936,-0.95c0,-0.525 -0.419,-0.951 -0.936,-0.951Zm-3.836,1.642c-0.456,0 -0.826,0.376 -0.826,0.838c0,0.463 0.37,0.838 0.826,0.838c0.456,0 0.825,-0.375 0.825,-0.838c0,-0.462 -0.369,-0.838 -0.825,-0.838Zm38.925,1.414c-0.517,0 -0.936,0.425 -0.936,0.95c0,0.525 0.419,0.951 0.936,0.951c0.517,0 0.936,-0.426 0.936,-0.951c0,-0.525 -0.419,-0.95 -0.936,-0.95Zm-41.942,0.052l-0.046,8.399l5.519,-6.875l-1.914,0.423l-0.818,-1.703l-1.181,0.78l-1.56,-1.024Zm35.032,1.934c-0.517,0 -0.937,0.426 -0.937,0.951c0,0.525 0.42,0.95 0.937,0.95c0.517,0 0.936,-0.425 0.936,-0.95c0,-0.525 -0.419,-0.951 -0.936,-0.951Zm27.619,0.033l-0.905,1.567l2.568,-1.447l-1.663,-0.12Zm-23.881,1.116c-0.518,0 -0.937,0.425 -0.937,0.95c0,0.525 0.419,0.951 0.937,0.951c0.517,0 0.936,-0.426 0.936,-0.951c0,-0.525 -0.419,-0.95 -0.936,-0.95Zm3.154,1.025l-1.12,1.622l-1.475,-0.481l-0.436,1.544l-1.769,-0.066l5.752,5.083l-0.952,-7.702Zm-44.834,0.649c-0.517,0 -0.936,0.426 -0.936,0.951c0,0.525 0.419,0.951 0.936,0.951c0.517,0 0.937,-0.426 0.937,-0.951c0,-0.525 -0.42,-0.951 -0.937,-0.951Zm86.09,2.283l0,69.069l-32.075,0l-13.465,-18.932c-0.278,-3.041 -0.116,-6.162 1.144,-10.242c1.317,0.926 4.201,0.42 4.103,-3.168c-0.064,-2.35 -3.632,-3.552 -5.41,-1.785c0.092,-2.271 1,-5.684 2.308,-6.691c0.899,0.828 1.098,2.055 3.129,1.712c1.444,-0.243 2.586,-1.881 1.961,-3.789c-0.16,-0.484 -0.247,-1.073 -0.245,-1.466c0,-0.394 0.038,-1.094 -0.038,-1.486c-0.1,-0.518 -0.138,-1.079 -0.138,-1.079c14.992,-3.463 28.061,-12.675 38.725,-22.143l0.001,0Zm-79.534,0.278c-0.517,0 -0.936,0.426 -0.936,0.951c0,0.525 0.419,0.95 0.936,0.95c0.517,0 0.937,-0.425 0.937,-0.95c0,-0.525 -0.42,-0.951 -0.937,-0.951Zm-4.415,0.929c-0.518,0 -0.937,0.425 -0.937,0.95c0,0.525 0.419,0.951 0.937,0.951c0.517,0 0.936,-0.426 0.936,-0.951c0,-0.525 -0.419,-0.95 -0.936,-0.95Zm46.336,0.457c-0.518,0 -0.937,0.426 -0.937,0.951c0,0.525 0.419,0.95 0.937,0.95c0.517,0 0.936,-0.425 0.936,-0.95c0,-0.525 -0.419,-0.951 -0.936,-0.951Zm-49.695,1.014l-1.46,8.85l6.375,-6.615l-1.731,-0.039l-0.344,-1.509l-1.621,0.532l-1.219,-1.219Zm43.346,1.888c-0.517,0 -0.936,0.426 -0.936,0.951c0,0.525 0.419,0.95 0.936,0.95c0.517,0 0.936,-0.425 0.936,-0.95c0,-0.525 -0.419,-0.951 -0.936,-0.951Zm4.132,1.032c-0.517,0 -0.937,0.426 -0.937,0.951c0,0.525 0.42,0.95 0.937,0.95c0.517,0 0.936,-0.425 0.936,-0.95c0,-0.525 -0.419,-0.951 -0.936,-0.951Zm-51.449,1.154c-0.517,0 -0.936,0.426 -0.936,0.951c0,0.525 0.419,0.95 0.936,0.95c0.517,0 0.936,-0.425 0.936,-0.95c0,-0.525 -0.419,-0.951 -0.936,-0.951Zm55.175,0.718l-1.525,1.175l-1.402,-0.87l-0.329,1.879l-1.196,0.636l5.018,3.57l-0.566,-6.39Zm3.709,2.531c-0.517,0 -0.937,0.425 -0.937,0.95c0,0.525 0.42,0.951 0.937,0.951c0.517,0 0.936,-0.426 0.936,-0.951c0,-0.525 -0.419,-0.95 -0.936,-0.95Zm-52.952,0.321c-0.517,0 -0.936,0.425 -0.936,0.95c0,0.525 0.419,0.951 0.936,0.951c0.517,0 0.936,-0.426 0.936,-0.951c0,-0.525 -0.419,-0.95 -0.936,-0.95Zm-4.158,1.241c-0.518,0 -0.937,0.426 -0.937,0.951c0,0.525 0.419,0.95 0.937,0.95c0.517,0 0.936,-0.425 0.936,-0.95c0,-0.525 -0.419,-0.951 -0.936,-0.951Zm54.711,2.513c-0.517,0 -0.936,0.425 -0.936,0.95c0,0.525 0.419,0.951 0.936,0.951c0.517,0 0.936,-0.426 0.936,-0.951c0,-0.525 -0.419,-0.95 -0.936,-0.95Zm-3.925,0.851c-0.517,0 -0.937,0.425 -0.937,0.95c0,0.525 0.42,0.951 0.937,0.951c0.517,0 0.936,-0.426 0.936,-0.951c0,-0.525 -0.419,-0.95 -0.936,-0.95Zm-36.253,1.353c0.008,0 0.012,0.004 0.016,0.008c0.105,0.115 0.43,0.979 0.141,1.42c-0.149,-0.072 -0.822,-0.708 -0.65,-0.924c0.08,-0.099 0.406,-0.505 0.493,-0.504l0,0Zm-21.249,1.491c0,0 0.906,0.047 1.105,0.135c0,0.235 -0.218,0.748 -0.463,1.323c-1.222,2.873 -1.41,6.093 -0.168,9.195c1.948,4.212 7.449,14.177 7.04,15.089l-12.154,0.05l0.053,-1.876c3.415,-0.136 3.952,-2.256 3.1,-4.008c-0.59,-1.214 -2.245,-1.908 -3.757,-1.271c-2.185,0.92 -2.319,2.015 -3.099,3.714l-0.348,-0.448c0.657,-0.885 0.876,-1.735 0.822,-2.705c-0.053,-0.951 -0.081,-0.688 0.246,-1.21c1.902,-2.075 0.657,-4.775 0.657,-4.775c-0.227,-1.659 5.692,-12.242 6.966,-13.213l0,0Zm-27.794,0.271c3.457,2.792 6.449,12.197 6.268,12.342c-0.16,-0.132 -2.785,3.021 0.042,5.959c0,0 -0.173,1.766 0.371,2.673c-1.249,2.63 -1.469,2.829 -1.575,4.99c-0.024,-0.009 -0.217,-0.026 -1.376,-0.031c-5.728,-0.028 -5.995,7.365 -0.271,7.771c0.783,0.055 1.053,-0.125 1.525,0.349c0.479,0.603 0.909,1.21 1.727,0.896c0.195,0.002 0.509,0.187 0.837,0.497c0.551,0.755 1.349,1.293 2.488,1.086c0.405,0.04 0.818,0.158 1.254,0.318c0.501,0.401 1.372,0.705 2.053,0.404c0.202,-0.09 0.592,-0.12 0.909,0.027c0.827,0.382 1.67,0.143 1.98,-0.097c0.768,-0.405 0.938,0.244 0.902,0.842c-0.392,1.368 0.469,2.651 1.773,3.154c2.75,0.863 4.137,-0.854 4.728,-4.26c0.147,-0.746 0.276,-1.633 0.276,-1.633l9.207,0.244l-13.221,15.496l-23.018,0l0,-51.05c0.989,-0.059 2.131,0.023 3.121,0.023l0,0Zm82.79,2.774c1.679,0.657 1.813,1.861 0.141,1.339c-2.716,-0.849 -5.639,0.836 -6.249,3.243c-0.112,0.444 -0.233,0.78 -0.302,0.865c-0.38,0.467 -0.361,0.041 -0.248,-1.295c0.219,-2.595 2.027,-4.474 4.384,-4.551c0.772,0.001 1.604,0.164 2.274,0.399Zm-0.833,1.835c0.702,0 1.445,0.209 2.001,0.699c0.63,0.702 0.442,1.167 -0.042,1.143c-2.275,-0.964 -5.168,0.203 -6.301,3.119c-0.695,1.789 -0.821,0.83 -0.513,-0.555c0.57,-2.508 2.45,-4.36 4.854,-4.406l0.001,0Zm-15.824,0.691c-0.992,0.004 -1.935,0.203 -2.415,0.663c-0.912,0.875 -0.153,0.889 1.498,0.307c0.803,-0.283 2.349,-0.153 3.337,0.194c0.828,0.291 1.12,0.413 1.074,0.151c-0.044,-0.786 -1.839,-1.322 -3.494,-1.315Zm18.549,2.927c0.418,0.972 0.147,2.686 -1.315,2.86c-1.724,0.204 -2.616,-2.73 0.533,-2.217c-0.407,-1.173 -1.82,-0.849 -2.517,-0.552c-1.421,0.63 -2.389,2.048 -3.26,4.652c-0.258,0.772 -0.447,1.176 -0.547,1.098c-0.164,-0.129 -0.242,-1.329 0.138,-2.774c0.685,-2.605 2.355,-4.178 4.124,-4.229c1.146,-0.178 2.481,0.319 2.844,1.162Zm-24.671,-1.131c-0.153,0.035 0.116,0.582 0.535,1.432c0.232,0.47 0.39,1.079 0.39,1.199c0,0.461 0.348,0.575 0.86,0.279c0.592,-0.342 0.687,-0.6 1.525,-0.221c0.79,0.421 1.569,0.687 2.29,0.26c0.391,-0.232 0.65,-0.222 1.406,-0.019c0.903,0.241 1.023,0.278 1.697,-0.008c0.861,-0.366 1.885,-0.116 2.102,0.13c0.207,0.234 0.087,-0.09 0.555,-1.192c0.217,-0.51 0.528,-1.131 0.443,-1.305c-0.116,-0.236 -0.9,0.024 -1.754,0.252c-0.462,0.123 -0.903,0.087 -1.789,-0.167c-1.869,-0.535 -3.046,-0.381 -4.216,0.183c-0.654,0.314 -2.293,-0.12 -3.948,-0.804c-0.04,-0.016 -0.074,-0.024 -0.096,-0.019l0,0Zm3.676,5.079c-0.843,-0.013 -1.607,0.525 -1.957,1.265c-0.406,1.026 0.285,2.878 1.338,3.038c0.936,0.141 0.901,-0.44 0.43,-0.597c-0.714,-0.238 -1.554,-1.275 -1.011,-2.177c0.373,-0.619 1.501,-0.616 2.286,0.148c1.581,1.539 3.392,1.641 3.735,0.305c0.104,-0.534 -0.297,-1.245 -0.915,-1.051c-0.477,0.15 -1.582,0.195 -2.507,-0.442c-0.479,-0.331 -0.957,-0.482 -1.399,-0.489Zm16.691,4.888c4.035,-0.245 2.3,5.349 -0.03,3.913c-0.831,-0.513 -0.462,-2.398 1.748,-2.363c-2.168,-1.715 -3.646,0.373 -3.116,2.716c-0.487,0.764 -0.622,2.221 -0.941,3.046c-0.491,0.941 -0.876,-1.524 -0.381,-3.907c0.48,-2.306 1.291,-3.318 2.72,-3.405l0,0Zm-22.821,0.194c-0.833,0.01 0.023,0.92 0.152,1.028c2.514,2.002 3.742,3.24 1.72,2.581c-3.284,-0.794 -4.13,0.149 -6.631,1.268c-0.459,0.224 -0.589,0.085 -1.143,-0.081c-2.197,-0.66 -2.036,0.739 0.26,2.002c3.467,1.906 6.33,2.336 9.024,0.908c1.732,-0.919 1.82,-0.317 0.21,0.698c-2.756,1.631 -5.658,1.384 -10.113,-1.432c-1.439,-0.909 -1.64,-0.301 -0.168,0.656c3.364,2.062 7.893,3.932 11.592,0.888c0.728,-0.656 0.874,-0.997 1.434,-0.713c1.478,0.749 0.992,-0.556 -0.016,-1.785c-0.356,-0.434 -0.619,-0.786 -0.596,-1.083c0.084,-1.066 -0.497,-1.062 -1.028,-1.035c-0.634,0.031 -0.564,-0.185 -1.342,-1.052c-1.135,-1.266 -2.521,-2.621 -3.355,-2.848l0,0Zm-33.577,5.673c-1.397,0.112 -1.717,0.175 -1.376,3.08c0.064,0.547 0.304,2.182 0.371,2.797c0.828,7.607 0.157,10.972 -1.931,11.903c-0.751,0.336 -1.49,0.213 -2.041,-0.011c-1.321,-0.537 -1.865,-2.166 -0.905,-4.105c0.258,-0.522 0.57,-1.33 0.695,-1.796c0.125,-0.466 0.407,-1.489 0.623,-2.274c0.526,-1.907 0.811,-4.809 0.501,-7.581c-0.21,-1.882 -0.164,-2.04 0.298,-3.309c1.014,-1.876 1.67,-2.837 3.805,-2.86c2.389,0.254 3.058,3.923 -0.04,4.156l0,0Zm51.342,-0.167l-0.654,0.031c-0.787,-2.659 -2.431,-1.799 -2.704,0.068l-0.555,-0.006c0.095,-3.55 4.471,-2.588 3.913,-0.093l0,0Zm-61.371,-1.986c4.459,0.448 5.272,1.573 5.624,7.041c0.032,2.646 -0.14,4.244 -0.54,4.846c-0.668,0.326 -1.308,-0.283 -2.26,0.33c-0.523,0.324 -0.423,0.358 -0.649,0.005c-0.211,-0.331 0.037,-1.728 0.379,-2.842c0.326,-1.063 -0.233,-1.682 -1.71,-3.045c-0.4,-0.37 -0.75,-0.882 -1.108,-1.614c-0.768,-2.092 -1.158,-1.172 -0.518,0.632c0.316,0.778 0.39,1.162 -0.571,0.827c-0.566,-0.199 -1.06,0.036 -1.496,0.271c-1.224,0.316 -2.279,-0.363 -1.217,-0.771c0.646,-0.248 1.805,-0.608 2.163,-0.606c0.26,0.001 0.386,-0.059 0.386,-0.183c0,-0.523 -2.359,-0.466 -4.159,0.163c-2.212,1.034 -2.338,0.85 -2.134,-0.758c0.517,-4.076 4.255,-4.574 7.81,-4.296l0,0Zm43.617,0.356c1.14,-0.052 2.187,1.275 1.98,2.402l-0.543,-0.035c-0.255,-2.12 -2.23,-2.211 -2.756,0.163l-0.783,0.019c0.498,-1.832 1.322,-2.513 2.102,-2.549l0,0Zm13.26,0.043c0.45,0.271 0.138,1.004 -0.342,1.152c-0.182,0.046 -0.756,-0.36 -0.618,-0.608c0.259,-0.298 0.652,-0.454 0.96,-0.544Zm5.111,0.359c0.315,0 0.721,0.163 0.776,0.591c0.018,0.627 -0.452,0.498 -0.608,0.442c-0.311,-0.294 -0.429,-1.009 -0.168,-1.033Zm-15.634,0.502c0.835,0.1 1.139,1.166 0.191,1.234c-0.424,0.089 -0.443,-0.978 -0.191,-1.234Zm-5.088,0.117c0.1,0.001 -0.054,0.876 -0.263,1.004c-0.413,0.255 -0.941,-0.023 -0.921,-0.287c0.046,-0.631 0.799,-0.721 1.184,-0.717Zm14.589,2.126c1.593,0.612 3.663,1.206 5.611,0.516c0.711,-0.273 1.279,-0.597 1.278,-0.29c0,0.321 -0.565,0.807 -1.583,1.097c-2.097,0.596 -3.615,0.365 -5.056,-0.732c-0.407,-0.311 -0.549,-0.596 -0.25,-0.591Zm-0.657,0.913c2.583,1.53 4.915,1.682 7.014,0.566c0.85,-0.299 0.877,-0.025 0.875,0.529c-3.782,3.373 -8.509,-0.129 -7.889,-1.095Zm-63.408,2.33c-0.641,1.311 -0.985,4.542 -2.03,5.499c-7.138,-0.416 -2.547,-9.972 2.03,-5.499Zm44.229,-1.071c-0.404,0.216 -0.047,1.244 0.588,1.521c5.459,2.385 8.259,2.668 11.363,1.572c1.287,-0.455 1.989,-1.523 2.053,-2.041c0.075,-0.617 -0.755,-0.677 -2.209,-0.024c-4.427,1.762 -7.204,0.388 -10.778,-0.976c-0.331,-0.127 -0.668,-0.171 -1.017,-0.052l0,0Zm-20.903,0.074l-0.019,8.078l-5.198,-0.093l0.061,-1.195l3.89,0.116l-0.06,-5.769l-4.514,-0.043l-0.008,-1.071l5.847,-0.023l0.001,0Zm1.208,0.019l5.186,0.008l0.26,0.823l-5.446,0l0,-0.831Zm-20.926,2.565c-0.341,0.31 -0.936,0.379 -1.181,0.129c-0.549,-0.563 0.008,-1.598 0.883,-1.591c0.877,0.007 0.952,0.867 0.298,1.462Zm2.389,-1.313c0.785,0.004 1.044,0.746 0.447,1.346c-0.404,0.374 -0.61,0.398 -0.974,0.125c-0.459,-0.409 -0.219,-1.444 0.527,-1.471Zm-5.118,0.2c0.206,-0.008 0.387,0.013 0.52,0.221c0.477,0.991 -1.088,1.676 -1.414,0.939c-0.241,-0.598 0.367,-1.14 0.894,-1.16Zm29.33,0.108l0.302,1.04l-5.977,0.027l0,-1.04l5.675,-0.027Zm-21.397,0.299c0.891,0.109 0.754,1.019 0.34,1.424c-0.71,0.667 -1.4,0.451 -1.219,-0.446c0.113,-0.561 0.471,-0.967 0.879,-0.978Zm-4.807,2.979c-0.314,1.138 0.357,3.439 0.156,3.68c-0.435,0.524 -1.137,0.255 -1.447,0.076c-1.08,-0.704 -1.148,-4.832 -0.104,-5.079c0.672,0.342 1.123,-0.269 1.43,-0.358c0.307,-0.09 0.101,0.473 -0.034,1.681l-0.001,0Zm15.801,-1.695c0.589,0 1.066,0.485 1.066,1.082c0,0.598 -0.477,1.083 -1.066,1.083c-0.589,0 -1.067,-0.485 -1.067,-1.083c0,-0.597 0.478,-1.082 1.067,-1.082Zm4.728,0.14l6.115,0c0.366,0.517 0.329,0.867 0.225,1.226l-6.34,0.008l0,-1.234Zm-17.959,0.14c0.279,-0.003 0.419,0.604 0.232,1.297c-0.337,1.251 -0.319,2.954 -0.088,3.692c0.155,0.51 0.309,0.859 0.218,1.005c-0.317,0.507 -1.285,0.16 -1.697,-0.509c-1.004,-1.89 -0.844,-5.418 0.355,-5.144c0.451,0.229 0.709,-0.13 0.98,-0.341Zm-5.39,0.477c-0.296,0.478 -0.085,3.165 -0.115,3.387c-0.038,0.279 -0.794,0.135 -1.215,-0.059c-1.038,-0.494 -0.756,-1.749 -0.555,-2.762c0.227,-0.796 0.726,-0.855 1.342,-0.928c0.34,-0.039 0.789,-0.009 0.543,0.362l0,0Zm8.318,0.147c0.33,-0.011 0.376,0.236 0.3,1.23c-0.059,0.779 -0.087,1.442 0.038,2.176c0.266,1.561 0.299,1.984 -0.087,2.29c-0.459,0.362 -1.077,0.252 -1.556,-0.175c-0.981,-0.79 -1.046,-4.662 -0.275,-4.997c0.717,0.181 1.168,-0.394 1.58,-0.524l0,0Zm21.119,1.172l-0.879,1.226l-5.213,0l0,-1.222l6.088,-0.004l0.004,0Zm-18.59,1.64c0.814,0.009 0.679,1.47 0.242,2.386c-0.372,0.554 -0.643,0.61 -1.201,0.091c-0.632,-0.59 0.119,-2.481 0.959,-2.477Zm17.069,0.408l-0.734,0.683l-3.822,0.004l0,-0.679l4.556,-0.008l0,0Z" style="fill:#131f67;fill-rule:nonzero;"/><path id="path3872-3-7-5" d="M37.854,182.005l-6.337,-5.044c7.537,-0.168 15.072,0.009 22.608,0.14l-7.527,5.443c-1.54,-1.709 -2.451,-4.005 -4.638,-5.112c-1.628,0.682 -2.741,3.035 -4.106,4.573Zm55.276,-1.837c-0.173,-0.11 -0.285,-0.357 -0.412,-1.167c-1.881,-8.905 -11.127,-8.275 -11.066,-8.013c-0.069,-0.351 11.492,-10.947 18.288,-19.261c2.054,6.353 8.28,20.868 8.021,20.816c0,0 -1.802,0.015 -6.472,-0.103c-4.252,1.948 -7.209,3.845 -7.07,6.593c-0.024,0.967 -0.254,1.369 -0.571,1.286c-0.255,-0.029 -0.486,-0.1 -0.718,-0.151Zm21.07,-28.584c6.014,-0.095 7.148,-3.077 7.833,-3.437c3.951,-0.659 6.392,1.951 8.123,4.744c2.211,1.351 1.935,0.103 2.393,-2.002l5.504,-1.637l-0.008,1.78c-1.699,0.929 -4.221,3.309 -4.221,3.309l-1.676,-0.1l-0.96,1.299c-3.825,2.1 -7.574,4.602 -11.607,6.225c0,0 -4.831,-6.342 -5.383,-10.181l0.002,0Zm-74.938,0.559l-0.062,-35.208c2.488,-0.178 7.068,-0.155 7.068,-0.155c1.915,-3.431 4.527,-5.044 7.218,-7.037c0.378,4.34 0.523,8.485 0.436,12.827c-7.128,8.831 -11.087,19.7 -6.691,35.945l-2.638,-0.297l-5.331,-6.075Zm39.386,1.973c2.03,-7.344 3.606,-14.795 4.259,-22.488l13.57,-0.204l0.271,4.717l-18.1,17.975Zm46.205,-16.032l-0.252,-13.173c9.902,-12.009 10.488,-22.482 6.816,-35.724c3.271,0.765 4.955,3.353 8.072,6.921l0,34.35c-2.167,0.328 -7.536,0.648 -7.536,0.648c-0.163,1.609 -4.7,5.458 -7.102,6.978l0.002,0Zm-41.932,-20.761l-0.604,-5.808l17.632,-17.095c-1.455,7.407 -3.216,15.014 -3.73,22.899l-13.298,0.004Zm-29.255,-18.143c-1.258,0.838 -5.897,-4.055 -6.656,-7.345c1.163,-1.595 11.372,-6.672 11.372,-6.672c0,0 5.966,7.773 5.722,11.015c-2.65,0.715 -4.948,0.919 -6.96,3.112c-1.151,0.104 -1.555,-1.21 -3.478,-0.11Zm-8.052,-6.573c1.42,0.232 0.509,2.177 0.292,3.601l-7.503,2.258c2.579,-2.234 4.408,-4.135 7.211,-5.859Zm24.43,-17.186c1.542,-0.048 3.15,0.598 4.339,0.111c0.445,-0.175 1.333,-0.448 2.307,-0.261c2.243,0.704 3.029,-1.803 4.459,-1.814c1.85,0.004 2.876,-1.31 2.888,-3.94c0.008,-1.138 0.099,-1.266 0.31,-1.38c0.631,-0.338 1.305,0.137 1.389,0.761c1.327,4.846 4.677,9.204 9.961,8.857c-4.207,4.352 -17.004,17.732 -17.004,17.732c-2.306,-7.128 -5.368,-13.763 -8.649,-20.066Zm54.441,-4.176l7.708,-5.679l4.614,5.7l3.989,-5.426c2.345,1.704 7.676,5.505 7.676,5.505c0,0 -15.987,0.239 -23.987,-0.1Z" style="fill:#d40000;fill-rule:nonzero;"/><path id="path3870-4-7-1" d="M128.858,19.766l-70.861,0.462l13.771,18.669c14.63,-3.023 27.365,-1.059 40.583,1.284l16.507,-20.415Zm-1.811,0.947l-4.717,5.947c-1.304,-1.197 -4.217,-0.765 -3.805,1.856c-3.615,-1.908 -4.381,3.329 -1.313,3.114c-0.384,1.029 -3.483,1.3 -4.357,-0.566c-3.181,1.81 -4.153,0.054 -4.995,-1.086c4.043,2.786 6.01,-2.941 1.559,-3.263c1.749,-3.59 -4.487,-5.219 -4.12,-0.547c-4.113,-0.947 -3.17,4.928 -0.149,3.724c-1.962,2.995 -5.181,0.983 -5.832,0.4c-1.655,1.26 -4.785,1.3 -5.661,-0.714c4.578,0.934 4.076,-5.184 0.011,-3.775c2.167,-4.699 -5.042,-4.067 -3.291,-0.217c-4.1,-0.159 -3.193,4.974 0.409,4.101c-3.2,3.061 -5.597,0.208 -6.103,0.147c-1.895,2.122 -5.223,0.959 -5.68,-0.295c3.265,1.309 4.335,-4.258 0.219,-3.923c1.055,-3.587 -4.867,-4.022 -3.56,0.052c-3.263,-0.75 -3.441,4.553 0.215,3.728c0.226,1.452 -2.65,2.843 -4.419,1.439c-1.297,0.721 -2.718,1.843 -4.407,0.182c2.573,-0.42 2.996,-4.833 -1.158,-3.879c0.198,-2.709 -1.334,-2.857 -3.227,-2.169l-3.033,-4.171l67.414,-0.085Zm-48.885,6.654c-0.225,0.504 -0.605,0.848 -0.516,1.233c0.073,0.315 0.392,0.753 0.838,1.347c3.545,4.69 10.733,4.533 12.895,-0.303c0.441,-0.898 0.351,-1.102 -0.179,-1.866c-0.641,-0.923 0.082,-1.907 0.867,-1.824c1.172,0.124 1.374,1.16 0.81,1.898c-1.223,1.563 2.137,5.1 5.493,5.656c4.301,0.713 8.379,-2.358 7.811,-5.109c-0.033,-0.158 -0.111,-0.305 -0.144,-0.47c-0.458,-2.304 3.141,-1.2 1.846,0.268c-0.487,0.531 -0.75,0.689 -0.684,1.272c1.045,4.876 6.885,5.387 9.666,3.884c-3.589,5.941 -9.274,1.362 -10.274,-2.79c-5.039,7.385 -11.093,5.85 -14.467,-0.64c0.399,0.405 -6.646,11.634 -14.642,0.121c-3.385,9.266 -9.557,3.002 -9.135,2.622c2.836,1.604 7.985,1.023 8.482,-3.934c0.068,-0.612 -0.39,-0.649 -0.654,-1.133c-1.341,-2.449 2.985,-2.467 1.987,-0.232Zm-13.323,0.609c0.641,0.06 0.748,0.331 0.642,0.993l-0.642,-0.993Zm54.988,1.742l-0.929,1.183c-0.221,-0.579 -0.227,-1.11 0.929,-1.183Zm10.102,0.392c-2.205,0.094 -3.907,3.186 -3.796,7.309c0.054,1.999 0.401,7.017 0.535,7.763c0.189,1.044 -0.017,2.458 -0.378,2.608c-0.954,0.393 -1.313,0.647 -1.571,1.109c-0.67,1.202 -0.116,2.558 1.296,3.166c1.008,0.434 2.285,-0.165 3.149,-1.474c0.48,-0.727 0.593,-1.051 1.017,-2.879c0.195,-0.842 0.177,-2.238 -0.046,-3.519c-0.508,-2.913 -0.13,-6.541 0.856,-8.244c1.769,-3.056 1.736,-5.057 -0.092,-5.688c-0.331,-0.115 -0.655,-0.165 -0.97,-0.151l0,0Zm-0.115,0.465c2.565,0.01 2.496,2.607 1.074,3.407c-0.552,0.25 -1.226,0.308 -1.9,-0.14c-0.757,-0.444 -0.654,0.062 0.13,0.64c0.921,0.678 1.313,0.636 0.818,2.227c-0.461,1.481 -0.703,4.683 -0.451,6.502c0.69,4.978 0.107,7.459 -1.957,8.323c-1.017,0.425 -2.115,-0.175 -2.397,-1.004c-0.442,-1.298 0.345,-2.412 2.287,-2.1c0,0 0.137,-0.414 -0.368,-4.734c-0.701,-6.009 -0.425,-10.204 0.662,-11.67c0.58,-0.783 1.33,-1.454 2.102,-1.451Zm17.402,6.196c-0.6,0.005 -1.245,0.17 -1.904,0.547c0,0 -0.071,2.702 -0.149,3.112c-0.436,2.286 -0.308,2.558 0.742,2.882c2.546,0.787 4.637,-0.927 4.544,-3.616c-0.052,-1.511 -1.435,-2.94 -3.233,-2.925Zm0.344,0.361c1.392,-0.043 2.655,1.609 2.518,3.166c-0.072,1.863 -1.828,2.878 -3.401,2.553c-0.466,-0.072 -0.947,-0.161 -1.097,-0.516c-0.315,-0.494 0.192,-0.673 1.25,-0.668c1.158,0.006 1.373,-0.155 1.758,-0.814c0.762,-1.306 -0.213,-2.961 -1.456,-2.65c-0.424,0.106 -0.486,0.3 0.011,0.442c1.523,0.697 0.956,1.67 0.428,2.064c-0.628,0.469 -1.668,-0.174 -1.846,-0.563l0.107,-2.521c0,0 0.503,-0.479 1.727,-0.493l0.001,0Zm-15.694,11.686c0,0 -0.58,0.281 -0.86,0.543c-0.615,0.576 -0.744,1.45 -0.443,2.308c0.133,0.38 0.112,0.445 -0.356,1.063c-1.332,1.763 -1.504,2.644 -0.821,4.233c0.31,0.722 0.312,0.722 0.019,1.676c-1.257,4.094 -3.736,8.733 -6.383,11.946c-0.409,0.497 -0.573,1.005 -0.573,1.005c0,0 0.619,-0.032 0.963,-0.206c2.735,-1.381 5.624,-4.057 8.309,-5.812c-4.247,3.498 -8.771,6.627 -8.771,6.627l5.779,0.314c-1.452,1.511 -26.792,23.306 -20.062,62.398c7.91,-1.997 11.591,-5.309 15.808,-9.14c0.039,3.15 0.107,11.627 0.133,11.627c0.081,-0.139 -3.66,-1.43 -2.771,1.696c0.529,1.714 0.797,6.054 -0.141,8.504c-0.04,0.104 0.403,0.268 0.359,0.365c-0.05,0.111 -0.6,0.112 -0.6,0.112c-1.436,2.719 -5.135,3.315 -6.959,3.233c-0.672,-0.064 -0.4,0.871 -0.312,1.21c0.339,1.4 1.929,4.398 4.898,9.214l0.779,0.105l-0.451,0.423c0.35,0.648 1.287,1.867 1.287,1.867l0.041,0.414c0,0 1.629,2.301 2.503,3.381c0.059,0.074 0.195,-0.101 0.256,-0.028c0.484,0.592 1.066,1.255 1.559,1.845c0.039,0.045 -0.076,0.214 -0.038,0.257c0.929,1.027 2.754,3.103 2.754,3.103l0.363,-0.089l1.434,1.642c11.905,-5.496 24.347,-17.653 24.217,-17.626l0.102,-26.164l-14.096,-0.042l-0.06,-34.66l14.081,14.13l-0.092,-4.054c-3.194,-3.082 -16.03,-16.229 -16.03,-16.229c1.868,-0.264 3.678,-0.88 5.431,-1.847c3.062,1.71 6.336,2.737 10.087,2.231l-0.016,-3.845c-4.258,-0.008 -6.899,-1.44 -8.809,-3.169l-2.63,-0.09c-4.857,3.75 -8.292,2.01 -11.986,1.273l-2.553,-3.732l26.154,-0.136l-0.187,-9.059l-3.971,0.089l-2.58,-1.936l2.993,1.284c0,0 -0.048,-0.499 -0.646,-1.447c-1.612,-2.674 -3.658,-6.609 -4.885,-10.041c-0.593,-1.743 -0.592,-1.671 -0.092,-2.693c0.688,-1.403 0.539,-3.102 -0.367,-4.058c-0.638,-0.673 -0.618,-0.817 -0.409,-1.319c0.849,-1.988 -1.199,-2.719 -1.207,-2.592c-4.381,1.714 -10.257,-0.051 -10.152,-0.104l0,0Zm10.19,0.721c0.874,-0.008 0.97,0.383 0.967,1.044c-0.075,1.212 -1.629,1.651 -2.332,1.82c-3.36,0.781 -9.219,0.318 -9.601,-1.273c-0.28,-1.169 0.439,-1.818 2.825,-1.238c3.835,0.837 6.209,-0.063 8.141,-0.353Zm-10.847,3.376c0.349,-0.003 0.767,0.358 0.887,0.946c0.102,0.503 -0.414,1.983 -0.845,2.324c-1.068,0.845 -2.032,-0.468 -1.319,-1.897c0.412,-0.823 0.829,-1.37 1.277,-1.373Zm11.466,0.167c0.16,0.004 0.445,0.037 0.631,0.17c0.846,0.608 0.925,2.711 0.133,3.015c-0.806,0.309 -1.554,-0.544 -1.547,-1.882c0,-0.82 0.304,-1.316 0.783,-1.303Zm-2.687,0.434c0.172,-0.009 0.355,0.029 0.543,0.116c0.705,0.331 1.047,2.536 0.348,3.24c-0.543,0.546 -1.709,0.516 -2.049,-0.617c-0.407,-1.354 0.228,-2.692 1.158,-2.739Zm-5.958,0.062c1.032,0.007 1.267,2.338 0.256,3.298c-0.846,0.803 -2.136,0.012 -1.732,-1.579c0.203,-0.796 0.667,-1.663 1.476,-1.719Zm2.935,0.373c1.511,0.261 1.383,4.018 -0.596,3.643c-1.128,-0.798 -1.097,-3.587 0.596,-3.643Zm-6.608,4.023l2.136,0.202c-0.055,-0.034 -3.399,7.175 -6.39,9.082c1.643,-2.777 3.084,-6.089 4.254,-9.284Zm12.807,0.039c1.248,3.377 2.529,6.805 4.231,10.258c-2.587,-2.532 -4.88,-6.425 -6.994,-10.08l2.763,-0.178Zm-10.044,0.326l1.414,0.015c0.471,2.187 1.286,3.582 2.244,4.78c0.828,-1.421 1.352,-2.983 1.861,-4.648l1.124,-0.016c0.43,0.261 -1.323,6.854 -3.039,7.655c-1.818,-1.498 -3.35,-5.548 -3.604,-7.786Zm-0.596,1.559c-0.119,0.158 2.196,5.805 4.154,7.616c1.846,-1.818 3.024,-4.213 3.815,-7.069l6.073,8.652l-5.92,-4.112c-1.183,1.993 -2.438,3.895 -3.945,5.478c-1.625,-1.784 -3.031,-3.901 -4.506,-5.913c-2.285,1.718 -3.887,3.553 -6.853,5.156c0.014,0.067 5.811,-6.348 7.182,-9.808Zm-0.57,6.15l4.132,5.125l-11,-0.159l6.868,-4.966Zm8.948,0.081l6.941,4.85l-10.343,0.108l3.402,-4.958Zm-55.302,2.386c0,0 0.059,0.308 0.126,0.493c1.232,5.101 4.63,9.342 9.743,8.838l-16.806,17.051c0,0 -2.775,-9.558 -8.397,-19.356c0,0 1.026,0.215 1.827,0.373c0.751,0.116 1.321,0.08 1.884,-0.07c0.43,-0.064 0.759,-0.35 1.143,-0.435c0.648,-0.137 1.462,0.099 1.892,0.253c1.155,0.221 1.941,-0.435 3.386,-1.731c0.385,-0.345 0.533,-0.261 1.017,-0.26c1.811,0.005 2.967,-1.572 2.763,-4.019l-0.091,-1.086l-0.23,1.222c-0.432,2.303 -0.734,3.297 -2.981,3.394c-0.544,0.024 -0.749,0.395 -1.609,1.145c-1.205,1.05 -2.055,1.14 -2.909,0.729c-0.87,-0.418 -0.951,-0.172 -1.773,0.225c-0.941,0.456 -2.311,0.402 -3.547,0.043c-1.724,-0.501 -1.513,-0.334 -1.513,-0.334c9.986,18.043 13.495,35.349 13.274,50.72c-0.315,21.904 -7.864,39.582 -14.486,50.239c0,0 1.136,-0.117 2.148,-0.267c0.488,-0.138 0.863,-0.005 1.345,0.166c0.45,0.161 0.79,0.153 1.231,0.101c0.345,-0.04 1.186,0.007 1.728,0.086c1.229,0.179 1.31,0.015 2.648,-1.304c3.798,-3.744 3.551,-3.606 6.303,-3.515c4.128,0.136 7.43,2.9 8.806,7.383c0.174,0.567 0.402,1.362 0.433,1.362l-0.269,-1.187c-1.208,-6.01 -6.272,-8.209 -10.499,-8.128l17.842,-18.158c-0.092,0.018 4.135,13.816 7.816,19.966c0.008,0.042 -1.117,-0.491 -3.169,-0.221c-1.116,0.147 -2.365,-0.002 -3.066,-0.124c-0.902,-0.023 -1.452,0.247 -2.575,1.187c-0.467,0.405 -0.888,0.85 -1.8,1.241c-2.17,0.93 -3.035,1.892 -3.047,4.307c0,0.439 -0.068,1 -0.06,1.218c0,0.058 0,0.161 0.011,0.161c0.037,0 0.087,-0.09 0.13,-0.153c0.108,-0.161 0.327,-0.598 0.495,-1.61c0.301,-1.806 0.675,-2.437 2.36,-3.238c0.505,-0.24 1.57,-0.894 2.043,-1.277c1.552,-1.257 2.07,-1.544 3.331,-1.246c0.717,0.169 1.327,0.257 2.289,0.139c1.144,-0.141 1.211,-0.201 2.436,0.12c0.831,0.217 1.859,0.428 1.859,0.428c-17.292,-35.247 -16.722,-67.924 0.345,-101.076c0,0 -5.052,0.06 -5.267,0.194c-0.081,0.05 -0.695,-0.006 -1.364,-0.128c-1.375,-0.252 -1.074,-0.083 -4.319,3.227c-4.012,4.093 -10.428,0.829 -12.361,-6.04c-0.101,-0.36 -0.188,-0.576 -0.34,-0.831c-0.049,-0.081 -0.176,-0.217 -0.176,-0.217l0,0Zm16.348,4.031c0.743,0.08 1.296,0.279 1.204,0.985l-23.816,23.671l-0.371,-1.525l22.983,-23.131Zm5.021,0.144c-0.293,0.587 -1.088,1.323 -1.437,1.878l1.296,1.637l-0.719,1.319l-1.991,-1.699l-3.791,3.798l3.16,3.6l-2.992,3.065l-0.998,-1.144l1.583,-1.68l-2.458,-2.336l-4.33,4.272l3.527,3.639l-2.587,2.518l-1.032,-0.993l1.357,-1.521l-2.301,-2.413l-4.032,4.174l3.191,3.605l-2.465,2.483l-1.093,-1.125l1.184,-1.254l-2.281,-2.424l-4.109,4.112l3.333,3.67l-2.45,2.223l-0.864,-0.927l1.185,-1.292l-2.24,-2.432l-2.549,2.347l-0.424,-1.61l25.218,-25.428l2.109,-0.062Zm1.453,0.376l-1.063,2.165l-0.822,-0.916l1.071,-1.117l0.814,-0.132Zm-59.479,0.14c-0.654,0.162 -15.669,8.652 -24.217,17.971l-0.026,3.472l-0.317,0.415l0.152,5.374l0.214,0.287l0.073,2.192l-0.34,0.578l0,6.017l0.455,0.078l0.073,7.364l14.042,0.039l-0.015,35.181c0,0 -8.246,-9.2 -14.184,-14.63l0.023,4.112l15.709,16.474c-1.08,0.154 -2.486,0.419 -4.605,1.606c-5.097,-3.231 -10.989,-2.243 -10.989,-2.243l0.023,4.19c3.747,-0.367 7.128,0.153 11.065,2.844c3.242,-2.23 7.148,-3.587 12.972,-1.815c1.282,2.06 2.564,4.185 3.845,5.567l-27.813,0.21l0.035,8.485c1.234,0.025 4.319,0 4.319,0c1.564,3.111 4.639,7.358 5.915,12.701c-1.752,2.137 -1.612,3.856 0.093,6.008c-0.016,0.971 -0.303,2.043 0.771,3.124c3.539,-1.756 7.534,-0.977 10.508,-0.08c1.007,0.304 1.388,-0.861 1.353,-2.327c-0.09,-0.84 -0.085,-1.199 0.55,-1.758c1.513,-1.332 0.574,-4.067 0.336,-4.128c-0.087,-2.398 7.486,-14.415 7.491,-14.195l-1.509,0.555l-6.475,0.03c17.03,-16.668 24.148,-35.68 22.658,-57.149c-0.333,-5.409 -1.162,-7.888 -1.162,-7.888c-5.998,2.706 -10.928,4.673 -15.717,9.878l-0.317,-11.189c0.267,0.53 2.044,1.019 2.84,0.342c0.545,-0.362 0.599,-0.749 0.095,-2.107c-0.731,-1.971 -0.904,-6.199 -0.359,-7.636c0.064,-0.167 0.118,-0.613 0.165,-1.051c0.062,-0.589 -0.065,-0.623 -0.119,-0.613c0.14,-0.034 0.725,0.086 0.795,0.023c2.046,-1.827 4.241,-2.969 6.933,-3.088l0.069,-1.335c-1.997,-5.118 -3.688,-7.125 -5.496,-9.986c0,0 -0.513,-0.173 -0.837,-0.105l0.417,-0.446c-2.538,-4.087 -6.148,-7.806 -9.468,-11.337c0.01,-0.012 0,-0.016 -0.019,-0.011l-0.005,0Zm-0.111,0.694l1.8,1.688c-8.591,4.191 -17.067,10.332 -25.413,18.662l0.115,-3.062c9.434,-9.005 16.551,-13.331 23.498,-17.288Zm55.171,3.061l1.082,1.094l-1.498,1.766l0.974,1.008l-0.542,1.347l-2.492,-2.627l2.476,-2.588Zm-53.631,0.14c0.566,0 1.025,0.466 1.025,1.04c0,0.574 -0.459,1.04 -1.025,1.04c-0.565,0 -1.024,-0.466 -1.024,-1.04c0,-0.574 0.459,-1.04 1.024,-1.04Zm73.514,1.436c17.512,19.784 8.52,48.538 -14.857,55.445l-0.259,-1.626c23.584,-8.063 29.116,-35.04 13.812,-52l1.304,-1.819Zm-70.479,0.131l1.116,1.312c-9.984,4.837 -19.722,12.09 -29.136,22.553l-0.091,-2.642c8.841,-9.433 18.292,-16.258 28.111,-21.223Zm-6.44,0.404c0.565,0 1.024,0.465 1.024,1.04c0,0.574 -0.459,1.04 -1.024,1.04c-0.566,0 -1.025,-0.466 -1.025,-1.04c0,-0.575 0.459,-1.04 1.025,-1.04Zm-3.119,1.955c0.566,0 1.024,0.466 1.024,1.04c0,0.574 -0.458,1.04 -1.024,1.04c-0.566,0 -1.024,-0.466 -1.024,-1.04c0,-0.574 0.458,-1.04 1.024,-1.04Zm10.385,0.683c0.565,0 1.024,0.466 1.024,1.04c0,0.574 -0.459,1.04 -1.024,1.04c-0.566,0 -1.025,-0.466 -1.025,-1.04c0,-0.574 0.459,-1.04 1.025,-1.04Zm44.485,0.718l1.024,1.098l-1.624,1.653l2.312,2.452l2.224,-2.173l-1.116,3.236l-19.611,19.895l-0.409,-2.087l1.544,-1.575l-2.366,-2.398l-0.416,-1.599l2.328,-2.211l0.974,1.017l-1.36,1.594l2.19,2.188l3.978,-3.717l-3.283,-3.658l2.71,-2.662l0.936,0.928l-1.295,1.354l2.282,2.51l4.081,-3.969l-3.351,-3.597l2.694,-2.696l1.021,0.989l-1.357,1.653l2.32,2.277l3.998,-4.007l-3.287,-3.508l2.859,-2.987Zm-57.928,0.698c0.566,0 1.025,0.466 1.025,1.04c0,0.574 -0.459,1.04 -1.025,1.04c-0.565,0 -1.024,-0.466 -1.024,-1.04c0,-0.574 0.459,-1.04 1.024,-1.04Zm16.152,0.202l0.78,1.315c-11.885,6.095 -20.106,12.2 -32.27,26.227l0,-1.765c9.391,-11.703 19.154,-19.248 31.49,-25.777Zm-5.97,0.155c0.566,0 1.025,0.466 1.025,1.04c0,0.574 -0.459,1.04 -1.025,1.04c-0.565,0 -1.024,-0.466 -1.024,-1.04c0,-0.574 0.459,-1.04 1.024,-1.04Zm91.963,0.4c2.097,1.894 6.5,3.781 9.337,3.581l0.076,2.277c-4.949,0.477 -9.272,-2.739 -9.272,-2.739c-3.812,2.359 -7.692,2.657 -11.737,1.634l-1.556,-3.384c5.999,2.823 11.625,0.13 13.152,-1.369l0,0Zm-23.685,0.617c0.22,0.412 0.959,0.888 0.959,0.888c4.617,-1.22 6.056,3.611 3.902,6.371l0.616,2.025c0.824,0.152 1.546,0.445 2.132,0.857c1.124,0.791 1.742,2.16 1.602,3.597c0.157,1.557 -2.138,3.006 -2.263,2.898l-0.03,2.227c0.645,0.546 1.423,1.074 1.918,1.847c1.104,1.88 0.666,3.775 -1.035,4.966c-1.013,0.695 -2.112,0.786 -2.156,0.714l-1.066,2.529c0.939,0.538 1.202,1.453 1.349,2.107c0.319,1.418 -0.662,3.264 -1.892,3.946c-1.554,0.86 -3.671,0.096 -3.669,0.097l-1.514,1.536c0.39,1.331 0.497,2.125 0.291,2.906c-0.51,1.933 -2.506,2.69 -4.109,2.545c-1.259,-0.114 -2.205,-1.047 -2.205,-1.047l-1.678,0.651c0.047,0 0.025,2.157 -0.822,2.817c-0.266,0.28 -1.212,0.9 -1.212,0.9l-0.221,-1.486c0.665,-0.486 1.078,-1.663 0.944,-2.525l3.623,-1.801c0,0.134 0.992,1.109 1.67,1.25c1.391,0.287 2.845,-0.814 2.848,-2.111c0,-0.756 -0.428,-1.271 -0.551,-1.882l3.077,-3.231c1.273,0.444 2.167,0.519 2.737,0.186c1.075,-0.63 1.365,-1.93 1.158,-2.712c-0.245,-0.925 -1.057,-1.523 -1.112,-1.61l1.716,-4.404c0.8,-0.004 1.295,-0.131 1.918,-0.543c1.273,-0.848 1.108,-2.496 0.566,-3.278c-0.66,-0.952 -1.618,-1.129 -1.693,-1.106l0.126,-4.574c0,0.037 1.736,-0.847 1.923,-1.866c0.275,-1.502 -0.349,-2.458 -2.168,-2.883c-1.008,-0.236 -0.955,-0.039 -0.955,-0.039l-1.437,-4.14c2.277,-1.409 1.555,-3.651 0.401,-4.403c-1.217,-0.793 -2.935,-0.058 -2.935,-0.058c0,0 -0.783,-0.789 -1.376,-1.424l0.623,-0.737Zm-60.947,0.838c1.496,2.042 4.03,6.134 5.447,9.796c0.061,0.16 0.03,0.97 0.03,0.97c-4.041,0.357 -5.429,1.965 -6.864,3.096c-1.114,-0.58 -1.583,-1.26 -3.597,0.019c-0.008,0.061 -5.134,-3.148 -6.115,-7.503c3.665,-2.293 7.158,-4.476 11.099,-6.378l0,0Zm-20.513,0.027c0.566,0 1.024,0.465 1.024,1.04c0,0.574 -0.458,1.039 -1.024,1.039c-0.566,0 -1.024,-0.465 -1.024,-1.039c0,-0.575 0.458,-1.04 1.024,-1.04Zm9.712,0.206c0.566,0 1.024,0.465 1.024,1.039c0,0.575 -0.458,1.04 -1.024,1.04c-0.566,0 -1.024,-0.465 -1.024,-1.04c0,-0.574 0.458,-1.039 1.024,-1.039Zm70.097,1.276c1.766,2.359 4.427,6.819 5.06,10.77c0.89,5.556 0.297,11.385 -2.213,15.461c-4.554,8.706 -12.451,10.56 -12.456,10.863l-0.08,-1.784c0.074,0.401 6.035,-2.149 10.094,-7.903c2.505,-3.901 3.928,-9.475 3.443,-13.824c-0.301,-6.268 -4.683,-12.049 -4.72,-12.07l0.872,-1.513Zm-83.004,0.85c0.565,0 1.024,0.465 1.024,1.039c0,0.575 -0.459,1.04 -1.024,1.04c-0.566,0 -1.025,-0.465 -1.025,-1.04c0,-0.574 0.459,-1.039 1.025,-1.039Zm9.7,0.015c0.566,0 1.024,0.466 1.024,1.04c0,0.574 -0.458,1.04 -1.024,1.04c-0.565,0 -1.024,-0.466 -1.024,-1.04c0,-0.574 0.459,-1.04 1.024,-1.04Zm87.457,1.754c2.273,0.25 5.052,4.433 7.583,6.82l0.026,34.103l-7.556,0.156c-0.984,2.399 -3.267,4.77 -6.903,7.111l0,-12.78c12.4,-13.484 9.026,-28.242 6.853,-35.41l-0.003,0Zm-99.94,0.388c0.566,0 1.025,0.465 1.025,1.04c0,0.574 -0.459,1.039 -1.025,1.039c-0.565,0 -1.024,-0.465 -1.024,-1.039c0,-0.575 0.459,-1.04 1.024,-1.04Zm9.338,0.186c0.565,0 1.024,0.466 1.024,1.04c0,0.574 -0.459,1.04 -1.024,1.04c-0.566,0 -1.025,-0.466 -1.025,-1.04c0,-0.574 0.459,-1.04 1.025,-1.04Zm95.93,0.082l15.448,15.809l-0.053,2.321l-17.41,-17.956l2.015,-0.174Zm-90.266,1.485l0.409,1.987c-0.499,-0.796 -0.518,-1.091 -1.384,-1.23l0.975,-0.757Zm-8.363,0.579c0.566,0 1.025,0.465 1.025,1.039c0,0.575 -0.459,1.04 -1.025,1.04c-0.565,0 -1.024,-0.465 -1.024,-1.04c0,-0.574 0.459,-1.039 1.024,-1.039Zm-9.253,0.291c0.566,0 1.024,0.465 1.024,1.039c0,0.575 -0.458,1.04 -1.024,1.04c-0.566,0 -1.024,-0.465 -1.024,-1.04c0,-0.574 0.458,-1.039 1.024,-1.039Zm86.918,0l3.05,2.192l-0.994,3.953l-3.123,-2.848l1.067,-3.297Zm-70.483,0.322l0.543,0.325l-0.631,2.705l-7.021,2.572c2.257,-1.957 4.578,-4.09 7.109,-5.602Zm1.15,1.257c0.5,2.004 1.582,4.968 2.91,7.478c-0.901,0.472 -4.141,2.333 -4.133,3.199c0.457,1.568 3.88,3.006 3.88,3.006c-1.298,2.135 -2.53,4.651 -3.54,7.547c-0.584,-1.011 -0.652,-4.997 0.608,-6.654c-1.243,-0.497 -2.943,-1.634 -4.235,-2.809c0.834,-2.993 4.385,-4.781 4.541,-4.803c-0.063,0.15 -1.049,-6.252 -0.031,-6.964l0,0Zm-11.397,0.504c0.566,0 1.024,0.465 1.024,1.04c0,0.574 -0.458,1.039 -1.024,1.039c-0.566,0 -1.024,-0.465 -1.024,-1.039c0,-0.575 0.458,-1.04 1.024,-1.04Zm78.199,0.085c4.558,8.619 1.847,16.106 -5.423,21.471l0.168,-2.033c5.016,-3.694 8.265,-10.967 4.602,-17.901l0.653,-1.537Zm-86.852,0.249c0.566,0 1.024,0.465 1.024,1.039c0,0.575 -0.458,1.04 -1.024,1.04c-0.566,0 -1.025,-0.465 -1.025,-1.04c0,-0.574 0.459,-1.039 1.025,-1.039Zm72.906,0.054c-3.345,12.655 -3.262,18.455 -3.65,21.886l-12.984,0.112l-0.505,-4.563l17.139,-17.435Zm-51.87,0.349c0,0 2.817,2.653 5.344,4.97l-0.302,0.605l-2.458,0.334c-1.88,-3.759 -2.584,-5.909 -2.584,-5.909Zm-2.331,1.389l0.019,0.004l0.157,1.886c-0.844,-0.032 -9.975,3.839 -16.989,10.021c1.045,-1.869 2.809,-3.662 4.514,-5.191c3.627,-3.614 12.299,-6.72 12.299,-6.72l0,0Zm-12.98,0.431c0.566,0 1.025,0.465 1.025,1.039c0,0.575 -0.459,1.04 -1.025,1.04c-0.565,0 -1.024,-0.465 -1.024,-1.04c0,-0.574 0.459,-1.039 1.024,-1.039Zm5.749,1.183l0.519,0.543l-2.423,1.273l1.904,-1.816Zm16.893,0.555c0.033,-0.002 0.069,-0.001 0.103,0.004c0.375,0.048 0.531,0.228 0.746,0.411c-0.475,-0.1 -0.94,-0.156 -1.384,-0.132c0.112,-0.135 0.304,-0.274 0.535,-0.283l0,0Zm-9.272,0.392l0.221,1.408c-5.253,3.032 -11.503,5.897 -20.597,14.624l0,-2.903c5.708,-5.367 12.364,-9.868 20.376,-13.129Zm7.067,0.132c0.328,0.081 0.619,0.086 0.917,0.011c0,0 -0.191,0.383 -0.416,0.392c-0.239,0.009 -0.501,-0.403 -0.501,-0.403l0,0Zm2.228,0.081c0.66,-0.041 1.112,0.572 0.979,1.362c-0.508,2.677 -0.488,5.388 0.057,7.282c0.425,1.477 0.532,1.996 0.18,2.243c-3.097,2.168 -4.795,-7.606 -2.209,-10.379c0.35,-0.334 0.693,-0.489 0.993,-0.508l0,0Zm-25.291,0.341c0.566,0 1.025,0.466 1.025,1.04c0,0.574 -0.459,1.04 -1.025,1.04c-0.565,0 -1.024,-0.466 -1.024,-1.04c0,-0.574 0.459,-1.04 1.024,-1.04Zm89.005,0.241l1.926,3.278l-2.683,3.05l-1.632,-3.542l2.389,-2.786Zm-66.29,1.781l-0.1,1.132c-1.383,0.426 -2.589,1.031 -3.626,1.925c-0.201,0.175 3.204,1.734 3.562,1.373l-0.008,1.207c-0.048,0.397 -5.631,-1.403 -6.009,-2.747c0.633,-0.893 4.166,-2.971 6.181,-2.89l0,0Zm-25.409,0.601c0.566,0 1.024,0.466 1.024,1.04c0,0.574 -0.458,1.04 -1.024,1.04c-0.566,0 -1.024,-0.466 -1.024,-1.04c0,-0.574 0.458,-1.04 1.024,-1.04Zm15.228,1.194c-0.396,0.764 -0.983,1.779 -1.096,2.889c-3.83,2.358 -7.758,4.56 -12.538,9.97l-2.576,-0.016l-0.058,-0.687c5.224,-5.055 10.881,-9.416 16.268,-12.156l0,0Zm9.868,0.327l0.026,1.424c-0.891,0.011 -1.377,-0.284 -2.041,-0.625c0.56,-0.358 0.993,-0.714 2.014,-0.799l0.001,0Zm28.822,0.151l0.718,0.765l-0.447,0.426l-0.271,-1.191Zm-38.809,2.961l1.418,0.896c-3.651,1.934 -7.495,4.791 -10.821,8.524l-2.809,0c3.548,-3.904 7.37,-7.406 12.212,-9.42Zm75.646,1.028l0.283,3.872l-3.562,1.982l0.068,-4.085l3.211,-1.769Zm-67.742,0.015l2.45,0.272l0.252,1.051c-2.056,1.327 -3.842,2.883 -5.554,4.501c0.656,-2.078 1.68,-4.14 2.852,-5.824Zm-5.875,0.415l1.051,0.493l-0.416,1.82c-3.002,1.354 -5.393,3.183 -7.954,5.649l-2.882,0c2.524,-2.746 6.72,-6.201 10.201,-7.962Zm9.116,1.711c0.009,0 0.012,0 0.011,0.004l0.382,11.934c-10.582,12.575 -10.007,24.736 -6.922,35.764l-2.018,-0.093c-2.345,-2.958 -5.465,-5.971 -5.465,-5.971l-0.008,-34.716l7.296,0.027c1.721,-4.04 6.453,-6.916 6.723,-6.949l0.001,0Zm-8.615,1.676l0.088,1.591c-1.509,0.909 -2.79,1.909 -3.891,2.984l-2.741,0c1.895,-1.79 3.775,-3.592 6.544,-4.575Zm24.878,0.78l0.401,1.878c-24.562,9.019 -29,35.237 -14.505,53.234l-0.986,1.117c-16.645,-18.143 -9.339,-47.782 15.09,-56.229Zm-24.683,1.878c0,0 0.134,1.439 0.176,1.917l-2.752,0c0.619,-0.737 1.168,-1.501 2.576,-1.917Zm69.118,0.601l-1.582,3.744l-4.224,0.066l1.919,-3.744l3.887,-0.066Zm-26.735,2.565l3.848,0l0,3.732l-3.848,0l0,-3.732Zm-16.657,0.369l0.065,1.641c-1.71,0.883 -1.279,2.288 -1.709,2.265c-1.051,0.27 -3.822,1.762 -3.822,1.762c-0.983,-0.905 -2.308,-0.677 -2.924,-0.237c-0.854,0.568 -1.042,1.889 -0.798,3.007l-2.94,3.488c-1.419,-0.616 -2.803,-0.577 -3.493,0.384c-0.778,1.084 -0.483,2.43 0.803,3.938l-1.602,4.171c-0.184,-0.25 -2.864,0.549 -2.901,2.165c-0.038,1.71 2.216,2.825 2.213,2.956l-0.107,4.601c-0.101,-0.221 -2.3,0.69 -2.002,2.895c0.274,2.03 2.997,1.782 3.053,1.951l1.479,4.404c-0.099,-0.135 -2.004,1.759 -0.837,3.55c0.974,1.492 3.8,0.527 3.777,0.43l0.783,1.121l-0.867,0.955c0,0 -0.375,-0.456 -0.585,-0.415c-1.646,0.319 -3.483,-0.064 -4.365,-1.397c-1.2,-1.881 0.139,-4.82 0.566,-4.795l-1.017,-2.538c-1.852,-0.037 -3.421,-1.716 -3.505,-3.123c-0.175,-2.946 2.208,-4.178 2.213,-4.159l0.069,-2.747c-0.146,0.164 -2.354,-1.426 -2.301,-3.251c0.039,-1.334 1.145,-2.903 2.507,-3.535c0.395,-0.188 1.009,-0.484 1.009,-0.484l0.922,-2.251c0,0 -1.305,-1.912 -0.967,-3.841c0.627,-2.919 4.376,-2.719 4.968,-2.436l1.739,-2.212c-0.856,-2.017 0.623,-4.359 2.557,-4.741c0.86,-0.14 3.268,0.439 3.268,0.439l2.228,-1.168c-0.038,-1.236 1.291,-2.041 2.523,-2.793Zm12.67,4.085l3.299,0l0,3.732l-3.299,0l0,-3.732Zm8.787,0l3.719,0l0,3.732l-3.719,0l0,-3.732Zm-21.189,0.935l-0.043,1.428c-21.294,10.48 -12.585,32.179 -9.547,34.704l-0.685,1.533c-3.736,-2.307 -13.369,-27.346 10.274,-37.665l0.001,0Zm16.389,3.779l4.001,0l0.035,3.837l-4.002,0l-0.034,-3.837Zm-17.314,1.866l-1.269,3.496l-3.91,0.333l1.444,-3.488l3.735,-0.341Zm79.896,2.557l2.675,0.015c-5.001,5.939 -10.399,9.986 -15.727,12.202c0,0 -0.019,-0.529 0.145,-0.947c0.13,-0.331 -0.08,-1.167 -0.08,-1.167c5.922,-2.961 9.99,-6.4 12.987,-10.103l0,0Zm-13.71,0.05c-0.688,0.84 -1.474,1.58 -2.45,2.128l-0.386,-2.163c0.818,-0.009 2.836,0.035 2.836,0.035l0,0Zm4.709,-0.046c0.271,0.691 -7.022,4.688 -7.048,4.347l0.02,-1.329l3.935,-2.964l3.093,-0.054Zm1.575,0l0.015,0l2.052,0.011c-1.854,2.968 -11.658,8.358 -11.251,7.599l0.396,-2.171c3.16,-1.411 6.029,-3.329 8.788,-5.439l0,0Zm3.459,0l2.701,0.011c-4.064,5.238 -8.185,7.15 -12.139,9.403c-0.238,-0.035 -0.13,-0.126 -0.871,-0.103l-1.352,-1.071c0.253,0.235 9.087,-5.022 11.661,-8.24l0,0Zm-75.566,0.186l-0.092,1.583c-5.684,4.962 -7.964,11.302 -5.007,18.661l-0.703,1.572c-3.181,-7.853 -2.242,-15.483 5.802,-21.816Zm25.883,0.248l0.302,4.272l-17.647,17.435c2.686,-9.741 3.43,-15.62 4.151,-21.684l13.194,-0.023Zm56.509,1.005l0.008,2.371c-6.957,7.779 -13.969,11.265 -20.028,12.675l-0.137,-0.912l2.805,-1.754c9.039,-3.997 12.998,-8.021 17.352,-12.38l0,0Zm-21.115,0.064c0.123,1.713 -1.38,4.947 -3.098,6.772l-2.943,-0.008l-0.325,-1.296c2.44,-1.335 4.7,-3.143 6.366,-5.469l0,0.001Zm0.889,0.51c1.08,1.766 -0.541,6.334 -0.608,6.153c-0.13,0.315 9.245,2.327 -0.386,7.034c0.21,1.383 1.112,4.337 0.416,6.161c-0.217,-0.698 -1.892,-5.437 -3.187,-6.649c3.007,-0.87 5.172,-2.737 4.938,-3.352c-0.489,-0.876 -1.836,-1.951 -4.101,-2.74c1.928,-2.716 2.502,-4.756 2.928,-6.607Zm-68.855,0.865l0.302,3.601l-3.425,2.091l-0.263,-3.954l3.386,-1.738Zm59.578,3.345c0.268,0.003 0.519,0.073 0.643,0.209c1.691,0.695 1.814,9.072 0.279,9.925c-1.116,0.711 -1.901,-0.433 -1.862,-0.637c0.74,-3.854 0.278,-6.236 -0.03,-8.931c0.033,-0.392 0.525,-0.572 0.97,-0.566l0,0Zm29.503,0.124l0,2.98c-9.945,10.464 -20.661,18.712 -31.601,23.344l-0.997,-1.719c13.286,-6.236 24.396,-15.133 32.598,-24.605Zm-1.747,0.271c-4.606,6.509 -10.218,10.758 -17.906,12.687l-0.145,-1.847c9.574,-2.207 18.3,-10.84 18.051,-10.84Zm-125.363,1.056c5.999,6.225 12.146,12.396 18.254,18.785l-2.427,0.129l-15.9,-16.745l0.073,-2.169Zm71.419,0.31c0,0 0.214,1.536 0.214,1.536l-1.747,1.944l2.76,3.011l0.141,0.71l-2.37,2.514l-1.07,-1.075l1.311,-1.493l-2.224,-2.375l-4.124,4.027l3.397,3.744l-2.564,2.476l-1.009,-1.06l1.311,-1.536l-2.278,-2.44l-4.204,4.244l3.179,3.566l-2.121,2.382l-1.005,-1.075l1.089,-1.269l-2.304,-2.409l-4.04,3.95l3.325,3.732l-2.702,2.731l-1.048,-1.032l1.518,-1.676l-2.492,-2.409l-1.999,1.917c0,0 0.754,-1.902 0.864,-2.224c0.161,-0.472 0.823,-0.846 5.026,-5.055c5.016,-5.068 10.161,-9.818 15.166,-15.356Zm28.772,1.024c1.466,0.025 3.961,0.384 5.171,1.032c2.247,1.203 1.541,2.15 0.081,2.856c-1.745,0.844 -3.177,1.257 -5.149,1.315l0.058,-0.981c1.145,-0.281 2.332,-0.565 3.344,-1.133c0.696,-0.391 0.876,-0.706 0.876,-0.706c0,0 -0.679,-0.701 -1.759,-1.098c-0.79,-0.292 -1.919,-0.289 -2.534,-0.392l-0.088,-0.893Zm-65.617,1.296l1.846,2.809l-2.186,3.721l-2.099,-3.209l2.439,-3.321Zm37.238,0.303c0.065,0.529 0.725,2.587 0.379,2.188l-1.227,-1.401l0.848,-0.787Zm28.494,0.275c1.02,0.088 2.094,0.119 2.84,0.485c-0.865,0.681 -1.845,0.833 -2.821,1.001l-0.019,-1.486Zm25.611,1.405c0.617,0 1.116,0.507 1.116,1.133c0,0.625 -0.499,1.133 -1.116,1.133c-0.616,0 -1.116,-0.508 -1.116,-1.133c0,-0.626 0.5,-1.133 1.116,-1.133Zm-57.598,1.963l0.952,0.935l-1.231,1.455l2.232,2.386l2.763,-2.627l0.367,1.669l-25.89,25.858l-1.437,-0.105l1.647,-1.974l-1.873,-1.944l0.768,-1.397l2.209,1.994l4.048,-3.93l-3.279,-3.503l2.805,-2.922l1.059,0.928l-1.609,1.769l2.343,2.428l4.234,-4.229l-3.313,-3.658l2.645,-2.561l0.97,0.935l-1.23,1.323l2.415,2.553l3.57,-3.771l-3.249,-3.631l2.886,-2.852l0.887,0.9l-1.33,1.505l2.427,2.549l3.894,-4.062l-3.206,-3.53l2.526,-2.491Zm55.007,0.675c0.616,0 1.116,0.507 1.116,1.133c0,0.626 -0.5,1.133 -1.116,1.133c-0.616,0 -1.116,-0.507 -1.116,-1.133c0,-0.626 0.5,-1.133 1.116,-1.133Zm-21.044,0.05c1.758,2.096 2.816,4.428 3.027,6.937c-1.405,-2.163 -3.192,-4.082 -5.534,-5.749l0.401,-1.052l2.106,-0.136Zm24.828,0.171l0,2.53c-7.844,9.02 -17.365,15.819 -27.141,20.551l-1.662,-2.053c11.562,-5.239 19.928,-11.746 28.803,-21.028Zm-11.539,1.765l-3.18,2.507l0,-1.087l3.184,-1.42l-0.004,0Zm-16.389,0.187c2.707,1.341 4.977,3.608 6.329,6.968c-3.697,2.355 -7.753,4.262 -11.619,6.161c-1.856,-3.035 -3.724,-5.877 -5.189,-9.784c5.962,-0.045 7.597,-3.351 7.639,-3.376c1.437,0.551 1.738,0.617 2.84,0.031l0,0Zm21.423,0.492c0.555,0.011 1.112,0.443 1.131,1.091c0,0.625 -0.5,1.133 -1.116,1.133c-0.616,0 -1.116,-0.508 -1.116,-1.133c0.121,-0.782 0.61,-1.1 1.101,-1.091Zm-8.252,0.745l0.008,1.094c-1.522,1.354 -4.48,3.547 -4.48,3.547l-1.223,-0.066l0.398,-3.104c1.852,-0.379 3.647,-0.928 5.297,-1.471l0,0Zm-77.882,0.128l2.92,2.437l-0.895,3.779l-2.874,-2.216l0.849,-4Zm39.214,0.714l0.271,1.094l-23.991,24.074l-1.364,-0.225l25.084,-24.943Zm44.26,0.931c0.616,0 1.116,0.508 1.116,1.133c0,0.626 -0.5,1.133 -1.116,1.133c-0.617,0 -1.116,-0.507 -1.116,-1.133c0,-0.625 0.499,-1.133 1.116,-1.133Zm8.859,-0.008c0.131,0 0.287,-0.009 0.287,0.117l0,2.083c-0.117,0.042 -0.244,0.066 -0.375,0.066c-0.616,0 -1.028,-0.507 -1.028,-1.133c0,-0.625 0.5,-1.133 1.116,-1.133l0,0Zm-2.707,2.526c0.616,0 1.116,0.507 1.116,1.133c0,0.626 -0.5,1.133 -1.116,1.133c-0.617,0 -1.116,-0.507 -1.116,-1.133c0,-0.626 0.499,-1.133 1.116,-1.133Zm-9.378,0.012c0.616,0 1.116,0.507 1.116,1.133c0,0.625 -0.5,1.133 -1.116,1.133c-0.617,0 -1.116,-0.508 -1.116,-1.133c0,-0.626 0.499,-1.133 1.116,-1.133Zm-8.069,0.349l1.147,0.039l-2.133,1.288c0.392,-0.498 0.758,-0.879 0.986,-1.327l0,0Zm20.456,0.53l0.015,2.329c-5.487,5.568 -12.417,11.345 -23.012,16.912l-1.351,-1.388c8.64,-4.182 16.746,-10.042 24.348,-17.853l0,0Zm-15.582,1.27c0.616,0 1.116,0.507 1.116,1.133c0,0.626 -0.5,1.133 -1.116,1.133c-0.617,0 -1.116,-0.507 -1.116,-1.133c0,-0.626 0.499,-1.133 1.116,-1.133Zm9.922,0.085c0.616,0 1.116,0.508 1.116,1.133c0,0.626 -0.5,1.133 -1.116,1.133c-0.617,0 -1.116,-0.507 -1.116,-1.133c0,-0.625 0.499,-1.133 1.116,-1.133Zm-111.146,4.548c3.786,-2.231 6.83,-2.493 11.168,-1.82l1.296,2.595c-4.224,-0.759 -8.674,-0.692 -12.479,2.289c-3.943,-2.529 -6.939,-3.259 -10.177,-2.847l-0.059,-2.737c4.22,-0.598 8.008,0.87 10.251,2.52l0,0Zm98.147,-2.468c0.616,0 1.116,0.507 1.116,1.133c0,0.626 -0.5,1.133 -1.116,1.133c-0.617,0 -1.116,-0.507 -1.116,-1.133c0,-0.626 0.499,-1.133 1.116,-1.133Zm10.205,0.466c0.616,0 1.116,0.507 1.116,1.132c0,0.626 -0.5,1.133 -1.116,1.133c-0.617,0 -1.116,-0.507 -1.116,-1.133c0,-0.625 0.499,-1.132 1.116,-1.132Zm-13.561,1.691c0.616,0 1.116,0.507 1.116,1.133c0,0.626 -0.5,1.133 -1.116,1.133c-0.616,0 -1.116,-0.507 -1.116,-1.133c0,-0.626 0.5,-1.133 1.116,-1.133Zm10.405,0.657c0.616,0 1.116,0.507 1.116,1.133c0,0.626 -0.5,1.133 -1.116,1.133c-0.617,0 -1.116,-0.507 -1.116,-1.133c0,-0.626 0.499,-1.133 1.116,-1.133Zm-13.845,1.345c0.625,0 1.132,0.514 1.132,1.149c0,0.634 -0.507,1.148 -1.132,1.148c-0.625,0 -1.131,-0.514 -1.131,-1.148c0,-0.635 0.506,-1.149 1.131,-1.149Zm10.862,0.951c0.617,0 1.116,0.507 1.116,1.132c0,0.626 -0.499,1.133 -1.116,1.133c-0.616,0 -1.116,-0.507 -1.116,-1.133c0,-0.625 0.5,-1.132 1.116,-1.132Zm-14.168,0.783c0.616,0 1.116,0.508 1.116,1.133c0,0.626 -0.5,1.133 -1.116,1.133c-0.616,0 -1.116,-0.507 -1.116,-1.133c0,-0.625 0.5,-1.133 1.116,-1.133Zm-49.339,1.025l2.775,2.58l-2.871,2.925l-1.051,-1.024l1.598,-1.696l-1.082,-1.478l0.631,-1.307Zm60.428,0.25c0.616,0 1.116,0.508 1.116,1.133c0,0.626 -0.5,1.133 -1.116,1.133c-0.616,0 -1.116,-0.507 -1.116,-1.133c0,-0.625 0.5,-1.133 1.116,-1.133Zm-3.213,1.918c0.616,0 1.116,0.507 1.116,1.133c0,0.626 -0.5,1.133 -1.116,1.133c-0.616,0 -1.116,-0.507 -1.116,-1.133c0,-0.626 0.5,-1.133 1.116,-1.133Zm-3.492,1.925c0.616,0 1.116,0.507 1.116,1.133c0,0.625 -0.5,1.132 -1.116,1.132c-0.616,0 -1.116,-0.507 -1.116,-1.132c0,-0.626 0.5,-1.133 1.116,-1.133Zm-57.396,3.204l0.906,0.749l-1.422,1.738l-1.085,-0.015l1.601,-2.472Zm-17.532,4.687c-3.163,1.589 -4.666,2.595 -6.872,4.543l-3.161,-4.45l10.033,-0.093Zm-21.522,0.031l8.424,0.121l-2.802,4.023c-1.847,-1.977 -3.72,-3.319 -5.622,-4.144Zm10.033,0.439c0.913,0.295 3.302,3.75 4.426,5.637c2.396,-1.934 4.742,-4.095 7.3,-5.257c-3.042,3.261 -5.713,6.635 -7.613,9.897c-0.54,-1.471 -2.039,-5.681 -3.937,-7.511c-2.995,2.837 -4.178,6.262 -4.178,6.262c-1.61,-2.785 -3.55,-5.576 -5.794,-8.186c-0.371,-0.509 2.731,1.448 5.802,4.481c0.865,-2.212 3.179,-5.236 3.994,-5.323Zm-10.117,2.172c1.446,1.167 5.38,6.289 5.833,9.37l-1.885,0.12c-1.002,-3.164 -2.685,-6.326 -3.948,-9.49Zm20.949,0.524c-1.425,2.965 -3.192,5.995 -4.461,9.277l-1.861,-0.082c2.039,-4.523 2.782,-5.35 6.322,-9.195Zm-10.675,1.319c0.017,-0.001 0.034,0.003 0.045,0.012c1.769,2.451 2.604,4.833 3.131,7.732l-1.369,-0.054c0,0 -0.954,-2.91 -1.609,-3.938c-0.424,-0.628 -0.763,-0.548 -1.062,-0.027c-0.675,1.23 -0.928,2.463 -1.307,3.802l-1.575,-0.116c-0.291,-2.197 3.193,-7.354 3.746,-7.411l0,0Zm-0.249,8.446c0.64,0.009 1.309,0.713 1.304,1.949c0.049,0.58 -0.395,1.865 -0.876,1.931c-0.892,0.48 -1.947,-1.013 -1.681,-2.258c0.226,-1.061 0.689,-1.628 1.253,-1.622Zm-3.098,0.234c1.264,0.114 1.536,2.993 1.024,3.581c-0.589,0.593 -2.144,0.172 -2.292,-0.853c-0.508,-1.306 0.418,-2.714 1.268,-2.728Zm6.232,-0.016c1.377,0.196 1.031,3.356 0.319,3.82c-1.108,0.594 -1.951,-0.399 -1.577,-1.885c0.301,-1.196 0.749,-1.907 1.258,-1.935Zm3.184,0.523c1.578,0.179 0.666,2.962 -0.023,3.528c-1,0.791 -1.967,-0.392 -1.487,-1.805c0.373,-1.095 0.991,-1.73 1.51,-1.723l0,0Zm-12.73,0.086c1.147,0.186 1.812,2.821 1.129,3.574c-0.356,0.432 -1.394,-0.198 -1.868,-0.92c-0.568,-0.868 -0.036,-2.658 0.739,-2.654Zm12.213,5.739c0.136,1.384 -0.892,1.384 -3.855,0.709c-1.497,-0.341 -4.148,-0.126 -5.504,0.124c-2.281,0.42 -2.603,0.26 -2.599,-0.683c0.008,-1.093 1.283,-1.714 4.242,-1.806c2.117,-0.067 7.387,-0.088 7.716,1.656Zm4.607,-0.812c-3.529,0.337 -4.467,4.825 -4.078,6.483c0.31,2.772 0.178,5.674 -0.348,7.581c-0.377,1.37 -0.712,2.829 -1.319,4.07c-0.928,1.876 -0.689,3.268 0.688,4.016c1.131,0.614 2.522,0.404 3.394,-0.547c1.577,-1.72 1.765,-5.369 0.799,-13.649c-0.341,-2.922 -0.158,-3.505 1.238,-3.341c2.931,-0.023 2.814,-4.608 -0.374,-4.613Zm-0.424,3.771c-0.79,-0.309 -1.324,0.418 -1.22,2.231c0.028,0.804 0.168,1.709 0.268,2.429c1.141,7.944 0.714,13.266 -1.689,13.528c-2.093,0.341 -3.51,-1.222 -2.489,-2.839c0.579,-0.916 1.077,-1.04 2.202,-0.559c1.546,0.973 1.159,-0.444 -0.233,-1.49c-0.893,-0.641 -0.961,-0.641 -0.482,-2.646c0.646,-2.704 0.864,-4.633 0.627,-8.054c-0.334,-2.42 0.463,-5.63 3.497,-5.819c3.069,-0.094 2.143,4.329 -0.481,3.219Zm-21.66,10.464c0.999,0.489 1.97,0.406 2.92,0.008c0.371,-1.689 0.393,-3.094 1.513,-5.391c-1.865,-1.895 -5.005,-1.15 -5.889,0.836c-0.883,1.986 -0.06,3.804 1.456,4.547l0,0Zm2.993,-5.864c1.13,0.244 0.961,1.45 -0.104,1.057c-2.536,-1.213 -4.604,2.436 -2.556,3.81c1.044,0.593 1.506,0.253 0.47,-0.563c-0.425,-0.495 -0.318,-0.697 -0.061,-1.195c0.532,-1.002 2.464,-0.84 2.327,-0.112c-0.44,2.311 -0.73,2.978 -1.414,2.983c-3.939,0.206 -4.681,-7.278 1.338,-5.98l0,0Zm33.462,4.157c0,0 -11.735,13.467 -17.387,20.365l70.842,-0.334l-13.48,-18.879c-11.565,2.71 -25.152,1.927 -39.975,-1.152Zm-0.352,4.302c1.77,0.02 3.783,1.325 5.523,5.673c0.094,0.041 7.791,-11.865 14.455,0.461c1.088,-2.766 7.365,-9.984 14.62,-0.721c2.577,-6.199 8.52,-4.102 9.077,-1.94c-0.125,-0.466 -5.663,-1.8 -8.061,2.308c-0.443,0.871 -0.466,1.695 0.043,2.185c1.197,1.152 -0.107,2.805 -1.471,1.865c-0.532,-0.366 -0.599,-1.135 -0.192,-1.69c1.205,-0.911 -1.262,-3.745 -3.291,-4.765c-2.784,-1.4 -6.667,-0.782 -8.533,1.226c-1.004,1.081 -1.618,2.051 -1.765,2.826c-0.078,0.36 -0.03,0.548 0.181,0.789c0.81,0.992 0.276,2.349 -0.82,2.184c-1.436,-0.216 -1.244,-1.578 -0.284,-2.322c0.295,-0.147 0.183,-0.322 0.094,-0.577c-2.62,-7.49 -12.387,-6.063 -13.443,-0.876c-0.038,0.188 -0.122,0.386 -0.08,0.579c0.11,0.496 0.396,0.915 0.286,1.305c-0.448,1.593 -2.411,1.136 -2.5,-0.184c-0.04,-0.6 0.598,-0.781 0.91,-1.329c0.187,-0.343 0.273,-0.763 0.094,-1.145c-2.647,-5.628 -7.19,-4.45 -9.444,-3.178c-0.048,0.026 2.015,-2.702 4.601,-2.674l0,0Zm-2.935,3.263c0.968,-0.035 1.849,0.448 2.672,1.416c2.773,-1.488 4.745,1.09 4.418,1.339c-3.928,-2.588 -5.203,3.442 -1.333,3.214c-1.701,3.57 4.374,5.101 3.692,0.537c3.748,1.328 4.367,-3.897 0.569,-3.818c1.227,-2.156 4.412,-1.563 5.759,-0.212c1.584,-1.964 5.473,-0.092 5.86,1.586c-4.362,-2.268 -4.802,4.665 -0.578,3.19c-1.25,4.412 5.465,3.784 3.608,-0.02c4.183,1.396 3.614,-4.949 -0.496,-3.662c-0.25,-0.329 3.249,-3.998 5.794,-0.551c0.344,-0.607 4.316,-2.595 6.49,0.527c-4.71,-1.616 -3.818,4.818 -0.444,3.539c-0.902,4.263 5.187,3.571 3.631,-0.062c4.719,1.211 2.629,-6.085 -0.687,-3.391c0.541,-2.933 4.507,-1.717 4.463,-1.265c0,-0.002 2.107,-2.312 4.465,-0.621c-3.685,0.315 -2.431,5.359 1.05,3.923c-0.037,1.712 1.365,2.846 3.261,2.265l2.977,4.225l-67.91,0.435l5.425,-6.564c1.814,1.523 3.695,0.803 3.927,-1.585c3.949,2.459 4.975,-3.381 1.269,-3.634c0.753,-0.52 1.456,-0.787 2.118,-0.811l0,0Zm-3.795,1.898c0.234,0.168 -0.085,0.98 -0.604,0.744l0.604,-0.744Zm52.95,1.695c0.202,0.293 0.346,0.482 0.547,0.776c0.097,0.262 -1.059,-0.139 -0.547,-0.776Z" style="fill-rule:nonzero;"/><path id="path163-0-2-5-8-7-5-6-5-5" d="M47.722,64.451c0,0 -3.721,-6.112 -8.74,-13.298c-3.358,-4.809 -6.042,-10.016 -6.292,-14.502c-0.286,-5.123 2.423,-10.263 7.329,-10.513c4.903,-0.249 6.893,3.951 7.703,7.413c0.81,-3.462 2.8,-7.662 7.703,-7.413c4.906,0.25 7.615,5.39 7.329,10.513c-0.25,4.486 -2.934,9.693 -6.292,14.502c-5.019,7.186 -8.74,13.298 -8.74,13.298Z" style="fill:#d40000;fill-rule:nonzero;"/><path id="path163-0-2-5-8-7-7-8-9-1-8" d="M130.278,184.549c0,0 -3.721,6.112 -8.74,13.298c-3.358,4.809 -6.042,10.016 -6.292,14.502c-0.286,5.123 2.423,10.263 7.329,10.512c4.903,0.249 6.893,-3.95 7.703,-7.412c0.81,3.462 2.8,7.661 7.703,7.412c4.906,-0.249 7.615,-5.389 7.329,-10.512c-0.25,-4.486 -2.934,-9.693 -6.292,-14.502c-5.019,-7.186 -8.74,-13.298 -8.74,-13.298Z" style="fill:#d40000;fill-rule:nonzero;"/></g></g></svg>