<?xml version="1.0" encoding="UTF-8" standalone="no"?><!DOCTYPE svg PUBLIC "-//W3C//DTD SVG 1.1//EN" "http://www.w3.org/Graphics/SVG/1.1/DTD/svg11.dtd"><svg width="100%" height="100%" viewBox="0 0 178 249" version="1.1" xmlns="http://www.w3.org/2000/svg" xmlns:xlink="http://www.w3.org/1999/xlink" xml:space="preserve" xmlns:serif="http://www.serif.com/" style="fill-rule:evenodd;clip-rule:evenodd;stroke-linejoin:round;stroke-miterlimit:2;"><rect id="king-clubs" x="0" y="0" width="178" height="249" style="fill:none;"/><clipPath id="_clip1"><rect x="0" y="0" width="178" height="249"/></clipPath><g clip-path="url(#_clip1)"><rect x="-2134.21" y="0" width="2312.21" height="1245" style="fill:#fff;"/><g id="king_clubs"><path id="path147-6-9-8-7-0-5-6-9-6-3" d="M164.273,209.077c3.131,-0.071 4.536,-3.744 2.216,-6.596c-0.336,-0.416 -0.371,-0.655 0.245,-0.255c1.562,1.088 4.556,0.373 4.709,-2.953c0.19,-4.097 -5.306,-5.277 -6.338,-0.921c-0.054,0.46 -0.413,0.45 -0.327,-0.203c0.094,-1.771 0.625,-3.426 1.355,-5.04l-3.723,0c0.73,1.614 1.261,3.269 1.355,5.04c0.087,0.653 -0.272,0.663 -0.326,0.203c-1.032,-4.356 -6.528,-3.176 -6.339,0.921c0.153,3.326 3.148,4.041 4.709,2.953c0.616,-0.4 0.581,-0.161 0.245,0.255c-2.319,2.852 -0.915,6.525 2.217,6.596c0,0 0,0 0,0l0.002,0Z" style="fill-rule:nonzero;"/><path id="path147-6-9-8-7-4-5-62-08-0-2" d="M13.728,39.923c-3.132,0.071 -4.536,3.744 -2.217,6.596c0.337,0.416 0.371,0.655 -0.245,0.255c-1.561,-1.088 -4.555,-0.373 -4.709,2.953c-0.189,4.097 5.307,5.277 6.339,0.921c0.054,-0.46 0.413,-0.45 0.326,0.203c-0.094,1.771 -0.625,3.426 -1.354,5.04l3.722,0c-0.729,-1.614 -1.26,-3.269 -1.354,-5.04c-0.087,-0.653 0.272,-0.663 0.326,-0.203c1.032,4.356 6.528,3.176 6.339,-0.921c-0.154,-3.326 -3.148,-4.041 -4.709,-2.953c-0.616,0.4 -0.582,0.161 -0.245,-0.255c2.319,-2.852 0.915,-6.525 -2.217,-6.596l-0.002,0Z" style="fill-rule:nonzero;"/><path id="path39-7-2-1" d="M14.364,34.518l2.647,0l-3.889,-9.729l-2.971,4.11l0.021,5.619l2.086,0l0,2.897l-7.352,0l0,-2.897l2.422,0l0,-20.922l-2.422,0.009l0,-2.533l7.46,0l0,2.619l-2.059,0l-0.044,10.197l6.512,-10.283l-2.298,0l0,-2.533l7.937,0l0,2.533l-2.094,0l-5.362,8.403l5.25,12.514l2.33,0l0.012,2.898l-8.162,0l-0.024,-2.902l0,0Z" style="fill-rule:nonzero;"/><path id="path39-3-8-1-1" d="M163.635,214.483l-2.647,0l3.888,9.728l2.971,-4.109l-0.021,-5.619l-2.086,0l0,-2.898l7.353,0l0,2.898l-2.423,0l0,20.921l2.423,-0.009l0,2.533l-7.461,0l0,-2.619l2.059,0l0.044,-10.197l-6.512,10.283l2.299,0l0,2.533l-7.938,0l0,-2.533l2.095,0l5.362,-8.403l-5.25,-12.514l-2.331,0l-0.012,-2.898l8.162,0l0.025,2.902l0,0.001Z" style="fill-rule:nonzero;"/><g id="g5429-3-1-8"><g id="KC"><g id="KC-7-1-9"><g id="g3440-6-4-8"><g id="g3454-7-1-1"><path id="path3450-5-0-3" d="M128.35,20.739l-65.443,0.321l8.311,15.891c17.009,-1.544 31.914,-0.171 47.442,0.341l9.69,-16.553Zm-44.695,55.873c-0.068,0.093 -2.723,0.785 -2.452,1.393c6.93,14.974 10.025,27.159 12.92,42.549c1.463,-1.198 3.829,-1.15 3.829,-1.15c-1.167,-5.715 5.972,-6.428 6.018,-0.448c1.371,0.32 2.78,0.325 4.017,1.722c0.556,-16.818 6.536,-34.219 14.259,-46.277c-8.801,3.515 -21.713,12.276 -21.713,12.276c0,0 -10.745,-4.478 -16.878,-10.065Zm53.492,1.791c-11.712,11.22 -16.296,42.368 -15.456,42.797c-15.098,-0.508 -19.673,16.287 -6.587,25.344c-0.517,1.756 -1.795,3.185 -2.785,4.737c1.35,0.78 2.823,0.947 4.295,1.11c1.118,1.336 2.216,2.878 3.429,3.005c1.317,-0.837 2.253,-2.062 3.349,-3.121c1.368,-0.351 2.725,-0.74 4.023,-1.338c-1.15,-1.619 -2.513,-3.256 -2.548,-4.772c11.379,-8.095 9.817,-19.102 -0.44,-24.737c3.055,-18.536 7.513,-30.377 12.686,-38.798l0.034,-4.227Zm-80.665,14.321c-1.488,0.733 -2.3,2.279 -3.38,3.492c-1.482,0.068 -2.91,0.58 -4.322,1.215c0,0 3.394,4.73 3.184,4.985c-11.005,7.273 -10.915,17.904 -0.349,24.906c1.791,15.13 -10.95,39.073 -11.594,38.377l-0.023,4.951c9.068,-10 14.247,-28.062 14.763,-42.647c18.109,-1.216 18.75,-18.87 6.284,-25.51c-0.958,-0.886 3.134,-4.989 3.134,-4.989c-1.039,-1.032 -2.777,-1.149 -4.299,-1.276c-0.96,-1.158 -1.797,-2.312 -3.398,-3.504Zm76.589,12.217c2.56,5.747 11.914,-1.255 13.536,1.803c1.318,1.734 4.187,1.911 4.031,-1.01c-0.539,-2.893 -2.426,-3.534 -9.916,-2.274c-2.841,0.478 -4.006,0.761 -3.988,-0.545c-1.966,-2.394 -3.651,0.862 -3.663,2.026Zm8.687,8.386c-2.1,-0.002 -2.457,8.283 -2.427,10.77c-6.079,9.687 12.471,8.586 4.449,-1.967c0.28,-1.379 -1.023,-3.627 -0.987,-4.622c-0.657,-0.084 -0.946,-3.825 -1.035,-4.181Zm-108.58,12.495c-0.192,2.506 1.628,10.11 2.303,9.852c2.377,-3.863 2.095,-7.167 1.849,-10.939c5.662,-10.993 -13.676,-6.482 -4.152,1.087Zm35.296,1.767c-0.845,16.181 -4.773,32.057 -13.676,45.824c7.663,-3.604 15.1,-8.254 22.297,-12.235l16.818,10.504c0.974,-0.426 1.649,-0.636 2.294,-1.28c-7.75,-11.438 -10.149,-27.901 -13.525,-42.793c-1.285,0.919 -3.702,1.38 -3.702,1.38c-0.172,5.166 -5.542,6.84 -6.638,0.103l-3.868,-1.503Zm-40.591,12.624c-1.794,0.114 -3.143,4.596 1.939,5.259c3.586,0.512 8.178,-1.269 10.456,-0.444c2.648,4.263 5.026,-2.013 1.487,-3.036c-3.803,-1.1 -11.547,1.769 -12.403,-0.669c-0.44,-0.833 -0.977,-1.142 -1.479,-1.11Zm30.503,70.086l-10.146,18.084l64.868,-0.394l-8.479,-17.249c0.145,-0.192 -28.331,3.416 -46.243,-0.441Z" style="fill:#e2cf00;fill-rule:nonzero;"/><path id="path3446-6-3-4" d="M72.231,38.682l1.286,2.353c15.194,-2.527 27.159,-2.921 42.878,0.144l1.435,-2.451c-14.348,-2.61 -28.981,-3.687 -45.599,-0.046Zm14.332,35.447l13.259,8.656c0,0 6.35,-4.528 9.057,-6.444l-1.643,-2.435c-5.608,12.476 -15.465,2.609 -19.161,-3.261c0,0 -1.004,2.273 -1.512,3.484Zm35.613,4.188c0.919,-0.02 1.428,0.337 1.89,1.281c0.521,1.066 0.721,0.803 0.385,-0.526c-0.528,-2.096 1.677,-3.459 3.755,-2.06c1.5,1.01 1.434,3.455 -0.205,3.908c-1.324,0.366 -1.359,0.716 -0.195,0.659c2.086,-0.102 2.641,2.707 1.156,4.081c-1.707,1.58 -3.883,0.46 -4.082,-1.521c-0.091,-0.56 -0.208,-0.552 -0.392,-0.235c-0.527,0.914 -0.575,2.103 -0.473,3.179l-3.083,-1.931c1.098,-0.548 1.767,-0.879 2.56,-1.711c0.104,-0.109 0.182,-0.188 0.181,-0.235c-0.001,-0.085 -0.343,0.028 -0.972,0.094c-1.862,0.196 -3.296,-1.022 -2.914,-2.792c0.325,-1.506 1.098,-2.162 2.389,-2.191Zm-13.596,48.831c3.354,-3.872 7.519,-6.358 13.307,-6.01c0.736,-16.225 6.311,-30.652 15.239,-43.65l-9.822,-5.959l-3.941,2.399c-9.076,13.623 -15.277,30.782 -14.783,53.22Zm-73.617,-37.912c0,0 -6.649,5.025 -9.738,7.453l0.149,44.737l0.859,0.297c0.061,0.096 -0.075,-0.663 0.319,-1.01c0.322,-0.284 0.833,-0.606 1.135,-0.717c0.855,-0.314 0.893,-0.889 0.095,-1.386c-0.618,-0.386 -0.854,-0.982 -0.783,-1.973c0.05,-0.699 0.021,-0.852 -0.268,-1.326c-0.359,-0.59 -0.389,-1.337 -0.084,-2.111c0.142,-0.36 0.128,-0.456 -0.125,-0.942c-0.322,-0.618 -0.36,-1.284 -0.12,-2.002c0.091,-0.274 0.157,-0.874 0.149,-1.336c-0.033,-1.782 1.425,-2.964 4.117,-3.337c1.053,-0.145 1.085,-0.189 0.602,-1.08c-2.727,-5.025 3.398,-7.644 3.857,-6.84l-0.164,-28.427Zm83.882,2.495c2.488,-0.037 4.535,1.966 4.571,4.478c0.036,2.511 -1.952,4.577 -4.44,4.613c-2.488,0.037 -4.535,-1.97 -4.571,-4.481c-0.036,-2.511 1.952,-4.574 4.44,-4.61Zm0.042,0.812c-1.992,0.029 -3.581,1.681 -3.552,3.691c0.029,2.011 1.665,3.619 3.657,3.59c1.992,-0.029 3.586,-1.685 3.557,-3.695c-0.029,-2.011 -1.67,-3.616 -3.662,-3.586Zm0.094,1.155c1.351,-0.02 2.464,1.068 2.483,2.431c0.02,1.363 -1.061,2.487 -2.412,2.507c-1.351,0.02 -2.46,-1.072 -2.48,-2.435c-0.02,-1.364 1.058,-2.484 2.409,-2.503Zm-89.431,1.868c0.184,-0.004 0.379,0.024 0.577,0.088c1.122,0.36 1.514,1.358 0.906,2.303c-0.477,0.743 -0.422,0.807 0.414,0.493c0.657,-0.246 0.992,-0.168 1.511,0.35c1.554,1.553 -0.76,4.164 -2.282,2.582c-0.753,-0.784 -0.825,-0.553 -0.302,0.793c0.169,0.436 0.448,1.113 0.448,1.113l-2.231,-0.032c0,0 0.347,-0.898 0.507,-1.321c0.386,-1.02 0.399,-1.17 -0.406,-0.528c-1.815,1.447 -3.873,-1.029 -2.203,-2.648c0.339,-0.329 0.885,-0.344 1.643,-0.043c0.552,0.219 0.619,0.066 0.204,-0.46c-0.903,-1.144 -0.068,-2.667 1.214,-2.69Zm46.237,4.009c-0.907,5.995 -0.115,14.409 -0.134,18.905c2.419,0.465 2.446,2.128 2.817,4.195c1.176,-0.414 3.747,1.339 4.099,1.185c0.267,-6.083 -2.866,-23.74 -6.782,-24.285Zm40.136,6.008c3.434,0.278 2.776,2.955 1.753,4.055c-0.485,0.564 -0.395,0.817 0.137,0.493c1.451,-0.885 2.601,-0.246 3.069,1.278c0.798,2.602 -2.591,4.844 -4.103,2.508c-0.512,-0.791 -0.825,-0.612 -0.7,0.216c0.077,0.798 0.85,2.452 0.85,2.452l-3.369,-0.305c0,0 1.029,-1.729 1.21,-2.194c0.375,-0.966 0.177,-1.223 -0.543,-0.445c-2.107,1.946 -5.026,-0.545 -3.666,-3.125c0.671,-1.272 1.908,-1.684 3.244,-0.671c0.9,0.594 1.094,0.337 0.289,-0.383c-1.504,-1.344 -0.193,-4.042 1.829,-3.879Zm-86.209,2.125c0.038,-0.002 0.076,-0.002 0.115,-0.001c0.288,0.005 0.591,0.086 0.892,0.257c0.837,0.476 1.067,1.413 0.542,2.228c-0.302,0.469 -0.214,0.765 0.137,0.458c0.47,-0.41 1.507,-0.137 1.912,0.502c1.039,1.643 -0.991,3.792 -2.288,2.424c-0.572,-0.604 -0.791,-0.628 -0.724,-0.232c0.186,0.744 0.671,2.014 0.671,2.014l-2.333,0.041c0,0 0.503,-1.335 0.615,-2.013c0.086,-0.535 -0.126,-0.458 -0.681,0.176c-0.541,0.616 -1.032,0.679 -1.722,0.218c-1.7,-1.137 -0.338,-4.058 1.435,-3.076c0.611,0.338 0.697,0.142 0.219,-0.495c-0.852,-1.137 0.018,-2.442 1.21,-2.501Zm121.144,-1.043c-3.777,3.939 -2.593,1.611 -0.842,4.613c0.007,1.98 1.152,3.53 0.244,6.655c-0.291,0.61 -0.316,0.901 -0.157,1.515c-0.277,3.452 -3.016,3.408 -5.68,3.943c0.442,-0.029 4.22,7.018 -2.83,7.569l0.081,28.647l11.054,-8.226l-0.048,-44.716l-1.822,0Zm-82.954,15.125c-3.135,2.038 -7.537,7.133 -13.075,6.026c-0.67,17.873 -6.481,31.71 -14.77,43.601c2.862,1.708 6.012,3.758 8.939,5.072c2.475,-1.289 3.864,-1.826 6.293,-3.843c9.965,-15.538 13.125,-32.523 12.613,-50.856Zm26.022,3.268c0.559,9.18 2.039,17.872 6.77,24.846l0.32,-19.508c-1.686,-0.407 -3.067,-1.507 -3.559,-4.626l-3.531,-0.712Zm-34.189,5.416l3.161,0.075c0,0 -0.717,1.442 -1.028,2.249c-0.377,0.985 -0.198,1.186 0.523,0.501c0.938,-0.892 2.433,-0.974 3.22,-0.179c2.089,2.112 -0.096,5.555 -2.567,4.045c-1.057,-0.647 -1.234,-0.43 -0.395,0.485c1.633,1.53 -0.072,3.732 -1.98,3.741c-1.38,-0.005 -2.274,-1.119 -2.383,-2.345c-0.053,-0.772 0.331,-1.546 0.995,-1.923c0.692,-0.392 0.196,-0.647 -0.555,-0.239c-2.454,1.332 -4.096,-2.09 -2.245,-4.037c1.068,-1.123 2.198,-1.019 3.283,0.053c0.758,0.749 1.029,0.682 0.816,-0.203c-0.216,-0.996 -0.845,-2.223 -0.845,-2.223Zm85.329,2.686l2.264,0.002c-0.222,0.566 -0.51,1.143 -0.691,1.702c-0.195,0.609 -0.052,0.687 0.548,0.098c1.561,-1.058 3.226,0 2.888,1.676c-0.234,1.156 -1.193,1.723 -2.301,1.221c-0.977,-0.443 -0.664,-0.253 -0.108,0.422c0.661,0.802 0.493,1.739 -0.381,2.359c-1.546,1.096 -3.586,-0.726 -2.564,-2.316c0.603,-0.946 0.327,-0.843 -0.222,-0.386c-0.824,0.609 -2.07,-0.253 -2.094,-1.447c-0.095,-1.717 1.622,-2.684 2.833,-1.468c0.577,0.49 0.721,0.43 0.46,-0.283c-0.238,-0.518 -0.315,-1.073 -0.632,-1.58Zm0.121,12.491l2.374,-0.027c0,0 -0.034,0.183 -0.399,0.877c-0.43,0.815 -0.364,1.657 0.084,1.085c0.757,-0.965 2.366,-0.696 2.893,0.484c0.614,1.375 -0.583,2.894 -1.825,2.316c-0.808,-0.375 -0.863,-0.294 -0.327,0.489c0.522,0.761 0.291,1.697 -0.558,2.244c-1.666,1.073 -3.665,-1.07 -2.276,-2.443c0.371,-0.367 0.255,-0.546 -0.196,-0.298c-1.841,1.009 -3.198,-1.501 -1.606,-2.971c0.677,-0.625 1.195,-0.582 2.309,0.195c0.347,0.242 0.414,-0.008 0.164,-0.621c-0.426,-1.047 -0.637,-1.33 -0.637,-1.33Zm-88.117,1.503c2.642,-0.039 4.813,2.09 4.851,4.756c0.039,2.667 -2.07,4.861 -4.712,4.9c-2.641,0.039 -4.816,-2.093 -4.854,-4.76c-0.039,-2.666 2.074,-4.857 4.715,-4.896Zm0.055,0.862c-2.17,0.032 -3.905,1.831 -3.874,4.021c0.032,2.191 1.818,3.942 3.988,3.91c2.17,-0.032 3.905,-1.834 3.874,-4.025c-0.032,-2.191 -1.818,-3.938 -3.988,-3.906Zm0.045,1.523c1.336,-0.019 2.433,1.056 2.453,2.405c0.019,1.348 -1.047,2.46 -2.383,2.479c-1.336,0.02 -2.437,-1.06 -2.456,-2.408c-0.02,-1.349 1.05,-2.456 2.386,-2.476Zm-6.013,11.699l2.761,1.362c0,0 -1.305,1.073 -1.825,1.626c-0.664,0.711 -0.618,1.045 0.279,0.704c1.71,-0.649 3.423,0.323 3.455,2.115c0.043,2.391 -2.76,3.542 -4.105,1.732c-0.4,-0.539 -0.878,-0.763 -0.691,-0.323c0.456,1.07 0.177,2.418 -0.616,2.972c-0.635,0.443 -1.797,0.574 -2.384,0.267c-2.015,-1.055 -2.12,-3.399 -0.192,-4.325c0.969,-0.466 1.001,-0.902 0.048,-0.662c-1.985,0.499 -3.143,-1.926 -1.711,-3.592c1.52,-1.768 3.997,-1.402 4.271,1.214c0.049,0.465 0.363,0.129 0.503,-0.584c0.169,-0.53 0.207,-2.506 0.207,-2.506Zm25.741,3.933c0,0 -10.112,5.808 -9.804,6.053c0.059,0.036 2.241,3.134 2.241,3.134c5.017,-11.474 17.032,-1.972 18.956,3.887c0.418,0.259 0.489,0.185 0.943,0.391c0.043,-0.414 0.876,-4.483 0.876,-4.483l-13.212,-8.982Zm-16.576,42.368l-1.629,2.342c-0.562,0.242 25.21,4.646 45.538,0.171l-1.406,-2.695c-16.556,4.263 -42.759,0.482 -42.503,0.182Z" style="fill:#d40000;fill-rule:nonzero;"/><path id="path3444-9-5-7" d="M23.614,19.11l0,210.78l130.772,0l0,-210.78l-130.772,0Zm39.209,1.63l65.656,-0.255l-12.135,20.97c0.116,-1.106 -23.593,-4.493 -42.972,-0.359l-10.549,-20.356Zm-37.361,0.49l35.705,0l12.039,21.758c0,0 0.707,1.359 0.285,2.781c-0.461,1.552 -0.857,2.241 -1.272,3.033c0.042,-0.452 -3.469,-0.9 -3.175,2.134c0.199,2.053 2.774,3.215 4.691,1.617c0.306,-0.026 0.304,0.261 0.237,0.762c-0.177,1.177 -1.415,4.911 -2.264,5.158c-4.322,-3.577 -5.864,2.956 -2.95,4.258c1.687,0.754 4.282,0.131 5.494,-1.916c0.928,-1.566 0.825,-1.307 1.117,0.593c0.109,0.707 0.263,1.526 0.342,1.894c0.247,1.152 0,1.376 -1.921,1.898c-1.545,0.608 -3.112,0.943 -4.706,1.291c-2.913,0.483 -4.402,2.701 -4.475,5.4c-0.015,0.583 0.005,0.853 -0.119,1.027c-12.325,4.721 -25.29,11.328 -39.028,22.609l0,-74.297Zm81.962,51.743c-0.467,-0.762 -1.959,-4.763 -2.369,-6.432c-1.069,-8.094 -1.272,-17.701 -2.415,-25.235l1.505,0.17c0,0 0.567,2.182 1.176,8.075c0.302,2.921 0.617,8.994 0.868,11.786c0.381,4.149 2.238,10.782 3.388,12.457c1.876,2.731 5.648,0.964 4.387,-2.278c-0.655,-1.683 -3.189,-1.41 -2.838,0.335c0.007,0.312 0.241,-0.222 0.612,-0.55c1.095,-0.419 2.327,0.731 1.684,2.117c-0.798,1.768 -3.161,0.961 -3.944,-1.268c-0.936,-2.663 2.218,-4.659 4.577,-3.035c2.629,1.809 2.634,6.395 0.517,7.843c-3.562,1.311 -5.985,-1.309 -7.148,-3.985Zm8.808,3.374c-0.143,-0.086 0.005,-0.365 0.181,-1.027c0.659,-2.475 0.244,-4.406 -1.342,-6.227c-0.884,-1.014 -1.217,-1.192 -0.754,-1.376c0.981,-0.39 3.15,1.2 3.746,2.762c0.588,1.534 0.735,3.121 -0.093,4.855c-0.576,0.372 -1.472,1.119 -1.738,1.013Zm2.685,-1.649c-0.002,-0.289 0.191,-1.203 0.235,-1.649c0.172,-1.727 -0.628,-3.481 -2.044,-4.852c-1.188,-1.15 -1.297,-1.269 -0.173,-1.288c2.9,-0.049 4.75,4.683 3.411,7.015c-0.344,0.369 -1.395,1.125 -1.429,0.774Zm2.455,-1.601c0.854,-4.035 -3.012,-6.724 -3.089,-6.598c0.192,-0.904 1.728,-0.384 2.251,-0.032c1.954,1.324 3.078,4.786 1.878,6.753c-0.13,0.242 -0.291,0.381 -0.501,0.511c-0.404,0.255 -0.641,0.461 -0.724,0.282c-0.062,-0.136 0.162,-0.723 0.185,-0.916l0,0Zm-34.011,-13.089c0.404,-0.4 0.525,-0.412 1.301,-0.116c2.433,0.927 4.375,-0.834 3.801,-2.686c-0.207,-0.67 -1.119,-1.398 -1.68,-1.456c-0.916,-0.096 -0.935,0.392 0.053,0.765c1.214,0.457 1.337,1.757 0.268,2.343c-1.255,0.856 -3.31,-1.315 -4.818,-1.132c-0.721,0.218 -1.182,0.898 -0.77,1.729c0.321,0.583 1.406,0.936 1.845,0.553Zm-2.698,-0.265c-0.843,-0.395 -1.165,-0.388 -1.003,-1.317c0.106,-0.611 0.97,-4.726 1.38,-6.317c1.23,-4.763 0.075,-7.404 -3.408,-8.469c-2.361,-0.721 -4.393,-0.356 -6.798,0.935l-0.432,-1.346c10.082,-2.663 27.288,-2.072 27.226,-1.969c0.34,1.37 0.469,2.739 0.602,4.109c0,0 -3.224,-1.596 -4.905,-2.127c-2.591,-0.802 -6.686,0.077 -7.412,1.578c-0.411,0.851 -0.197,1.419 1.544,0.473c2.849,-1.549 8.667,-0.369 10.718,1.273c0.473,0.378 0.449,0.461 0.458,0.904c0.014,0.677 0.053,0.716 -0.88,0.213c-4.89,-2.524 -9.068,-2.231 -10.51,1.082c-0.332,-0.101 -1.6,-0.322 -1.6,-0.322l1.362,2.032l0.258,2.127c0,0 2.225,1.246 3.451,1.773c1.207,0.517 0.513,-0.033 -0.969,-1.073c-1.088,-0.764 -0.222,-1.009 0.495,-0.717c1.476,0.342 3.634,0.776 6.131,-0.825c0.776,-0.497 2.552,-0.066 2.58,0.16c0,0 0.236,1.86 0.471,5.741c0.111,1.836 0.335,4.234 0.462,5.218c0.384,2.975 0.495,3.144 -1.056,1.718c-0.52,-0.479 -1.387,-1.273 -1.397,-1.225c-0.197,0.922 2.091,2.542 2.623,3.098c0.809,0.844 1.457,3.004 1.134,3.132c-0.205,0.081 -2.378,-1.779 -4.089,-3.452c-0.641,-0.627 -1.595,-1.467 -1.622,-1.438c-0.354,0.237 1.082,1.874 2.428,3.097c1.569,1.428 1.751,1.555 1.223,1.771c-0.974,0.397 -1.851,-0.097 -4.217,-2.071c-0.23,-0.193 -1.126,-0.834 -1.168,-0.788c-0.216,0.291 1.967,2.376 2.462,2.556c0.921,0.333 1.186,1.23 0.46,1.583c-0.485,0.235 -2.291,-0.764 -3.739,-2.03c-0.259,-0.227 -0.979,-0.614 -1.027,-0.562c-0.287,0.187 1.332,1.599 2.876,2.538c1.512,0.919 1.754,1.146 1.369,1.91c-0.359,0.787 -3.678,-1.035 -5.338,-2.912c-0.353,-0.399 -0.632,-0.571 -0.562,-0.436c0.723,2.022 3.102,3.472 4.872,4.049c0.316,0.104 0.774,0.233 0.98,0.398c0.504,0.405 0.393,0.825 -0.154,1.062c-1.887,0.534 -4.863,-1.773 -6.992,-4.19c-0.247,-0.103 -0.1,0.214 -0.035,0.318c1.776,2.861 5.176,5.037 7.224,4.631c1.198,-0.238 2.16,0.126 2.169,0.532c0.008,0.332 -0.652,0.862 -1.94,0.954c-2.913,0.21 -7.464,-3.007 -10.127,-7.104c-0.083,-0.127 -0.181,-0.174 -0.187,-0.097c-0.073,0.868 1.583,2.998 2.852,4.216c3.773,3.619 7.339,4.843 10.12,2.804c1.569,-1.227 3.085,-3.909 0.748,-4.806c-1.237,-0.474 -2.02,1.245 -0.961,0.754c1.39,-0.169 1.706,0.576 1.525,1.275c-0.354,1.202 -1.534,1.393 -2.493,0.888c-1.669,-0.913 -1.314,-4.04 0.846,-4.586c1.947,-0.475 3.646,1.191 3.869,2.771c0.347,2.455 -2.397,5.112 -4.597,5.772c-7.505,2.254 -13.367,-8.272 -13.401,-8.51c-0.376,-0.731 -0.829,-1.118 -1.115,-0.266c-0.307,1.235 -2.001,4.855 -2.907,4.833c0.282,-1.277 1.47,-3.424 1.181,-5.304c-0.501,1.544 -1.557,4.839 -3.577,6.595c-0.524,0.481 -2.061,1.048 -1.003,-0.191c1.277,-1.812 2.948,-4.29 2.602,-6.617c-0.339,0.523 -0.523,1.847 -0.911,2.721c-0.97,2.188 -3.09,4.785 -4.489,5.206c-1.033,0.31 -0.937,-0.042 0.121,-1.166c1.134,-1.206 3.143,-4.745 3.01,-6.271c-0.057,-0.674 -2.083,5.829 -5.891,7.609c-1.029,0.379 -1.613,-0.098 -1.613,-0.098c1.497,-0.87 5.632,-4.984 5.241,-9.659c0,0 -0.22,0.692 -0.546,1.73c-1.401,4.462 -4.414,7.395 -6.761,7.638c-1.874,0.194 -3.183,-0.569 -2.718,-0.906c2.43,0.018 4.427,-0.83 5.987,-3.221c1.585,-2.429 2.176,-6.333 1.216,-10.465c-0.867,-3.726 -1.057,-7.077 -1.36,-10.659c2.662,0.918 5.341,1.529 7.933,0.507c-0.26,1.067 -0.693,1.199 -1.376,2.005c-0.497,0.589 -0.327,0.729 1.61,-0.651c0.563,-0.402 0.767,-0.724 0.868,-0.616c0.166,0.174 -0.091,1.273 -0.655,3.463c-0.842,3.276 -0.624,3.51 2.494,4.744c0.582,0.231 0.799,0.456 1.003,0.701c0.095,0.115 0.607,1.045 0.655,1.078c0.114,0.076 0.084,-0.948 0.021,-1.208c-0.167,-0.688 -0.536,-1.204 -0.858,-1.408c-0.612,-0.569 -1.495,-0.619 -2.061,-0.88Zm58.855,42.722l0.032,-3.401l3.273,2.344l-0.04,1.122l-3.265,-0.065Zm-5.594,0.739l-0.12,-62.903c0,0 2.512,-1.684 3.768,-2.519c0.785,2.494 0.779,7.841 0.485,10.223c-0.491,1.551 -0.711,8.453 -0.153,11.965c0.444,2.799 0.363,7.429 -0.057,9.646c-0.164,0.865 -0.037,4.923 0.271,8.677c0.235,2.87 0.168,5.478 -0.176,6.971c-0.27,1.176 -0.176,5.392 0.132,7.009c0.454,2.38 0.532,10.023 0.328,10.438c-0.539,0.617 -4.761,0.703 -4.478,0.493Zm4.977,-65.827c0,0 2.531,1.686 3.751,2.53l0.017,2.71l-3.657,-2.41l-0.111,-2.83Zm-37.769,4.379l1.565,0.098c0.623,3.275 0.893,6.999 1.142,10.732c0.079,5.755 0.783,11.826 2.122,15.805l-1.15,1.218c-1.959,-4.56 -2.113,-11.753 -2.55,-16.621c-0.192,-5.475 -1.084,-11.197 -1.129,-11.232Zm38.073,-0.574l3.403,2.324l0.036,2.948l-3.429,-2.296l-0.01,-2.976Zm-35.815,0.79l1.375,0.151c0.418,3.889 1.059,6.527 1.303,10.812c0.315,5.541 1.267,10.09 1.858,14.418l-1.029,0.346c-0.689,0.32 -1.831,-4.795 -2.34,-15.162c-0.154,-3.138 -0.68,-6.668 -1.167,-10.565Zm2.079,0.146l1.641,0.297c0.726,9.844 1.873,19.089 3.074,24.387l-1.427,0.095c-1.77,-7.571 -1.885,-16.332 -3.288,-24.779Zm2.371,0.349l1.508,0.264c1.815,22.512 2.934,22.222 3.284,23.107l-1.632,0.668c-1.765,-6.469 -2.121,-15.589 -3.16,-24.039Zm6.848,22.112c-0.258,0.759 -0.87,0.688 -1.537,0.766c-0.747,-2.069 -1.184,-4.535 -1.497,-6.95c-0.688,-5.304 -0.936,-10.277 -1.653,-15.511l1.799,0.186c-0.059,0.04 1.276,18.46 2.888,21.509Zm-38.711,-19.787c2.371,0.115 4.338,1.19 4.528,2.762c0.043,0.354 -0.235,0.182 -0.556,-0.067c-2.04,-1.577 -4.361,-2.069 -7.164,-1.051c-0.611,0.222 -1.11,0.571 -1.383,0.523c-0.245,-0.158 -0.321,-0.542 -0.134,-0.858c0.654,-1.103 3.535,-1.367 4.709,-1.309Zm-5.5,3.157c0.051,2.48 -0.547,3.847 -1.836,4.42c-1.555,0.691 -3.55,-0.79 -2.581,-2.446c0.733,-1.253 1.993,-0.875 2.233,0.441l1.976,-4.443c0,0 0.203,1.407 0.208,2.028Zm72.196,-0.397l-0.022,2.555l-3.647,-2.46l0.243,-2.457l3.426,2.362Zm-64.703,-0.333c1.797,0.718 2.456,1.595 2.523,1.985c-0.104,0.291 -0.284,0.093 -1.596,-0.622c-2.02,-1.251 -4.654,-1.455 -6.968,0.133c-0.577,0.115 -0.636,-0.215 -0.058,-0.842c1.763,-1.394 4.199,-1.414 6.099,-0.654Zm13.646,-0.479c1.581,-0.05 3.471,0.355 5.067,1.163c0.706,0.358 1.34,0.581 1.8,0.992c0.368,0.193 0.397,1.036 0.127,1.1c-0.24,0.034 -0.634,-0.155 -1.223,-0.57c-3.793,-2.486 -6.522,-2.18 -8.715,-0.65c-0.122,0.085 -0.499,0.172 -0.648,0.16c-0.418,-0.031 -0.44,-0.204 -0.265,-0.433c1.015,-1.158 2.532,-1.716 3.857,-1.762Zm47.399,1.79l3.655,2.578l-0.002,2.535l-3.886,-2.728l0.233,-2.385Zm-65.979,1.03l0.533,0.015c1.244,3.043 2.805,1.474 3.453,0.256l0.65,0.107c-1.017,4.075 -5.158,1.943 -4.636,-0.378Zm-0.909,0.405c0.604,0.074 0.583,0.763 0.772,1.266c0.423,1.122 -1.18,0.172 -1.455,-0.101c-0.465,-0.494 0.196,-1.114 0.683,-1.165Zm18.092,-0.118c1.575,2.42 2.484,0.987 3.383,-0.067l0.428,0.138c-0.113,1.738 -3.011,3.59 -4.386,-0.029l0.575,-0.042Zm4.846,0.273c0.169,0.003 0.507,0.125 0.818,0.252c0.862,0.352 0.817,0.609 -0.138,1.038c-1.526,0.685 -2.057,0.774 -1.6,-0.194c0.263,-0.443 0.437,-1.029 0.92,-1.096Zm-5.988,0.369c0.384,0.285 0.636,0.6 0.681,1.113c0.031,0.362 -1.161,-0.055 -1.159,-0.631c0.038,-0.366 0.234,-0.662 0.478,-0.482Zm-10.561,0.138c0.783,0.293 0.689,0.669 0.144,1.011c-0.98,0.551 -1.399,0.443 -0.766,-0.424c0.292,-0.4 0.355,-0.579 0.622,-0.587Zm60.254,1.276l3.958,2.808l-0.035,2.578l-3.955,-2.72c-0.184,-1.105 -0.01,-1.848 0.032,-2.666Zm-68.408,3.991c0.187,0.004 0.261,0.631 0.305,1.546c0.073,1.522 -1.462,3.642 -3.014,4.372c-1.869,0.88 -3.87,-0.353 -3.535,-2.181c0.309,-1.684 2.679,-1.754 2.769,-0.198c-0.23,0.41 0.093,0.752 0.225,0.716c0.61,-0.165 2.048,-1.47 2.633,-2.931c0.227,-0.57 0.366,-1.156 0.529,-1.288c0.032,-0.026 0.061,-0.037 0.088,-0.036Zm68.301,-0.476l3.956,2.913l0.018,2.562l-3.923,-2.723c-0.155,-1.142 -0.087,-1.957 -0.051,-2.752l0,0Zm-47.996,4.057c-0.299,0.507 -0.054,1.416 0.559,0.642c1.576,-1.852 3.859,0.465 2.637,1.938c-1.108,1.336 -2.472,0.906 -5.352,-0.204c-2.098,-0.809 -2.429,-0.533 -2.946,0.051c-0.426,0.481 -0.209,1.449 0.343,1.437c1.7,0.39 3.172,0.769 4.932,1.139c3.721,0.77 5.989,-4.067 2.591,-5.844c-0.813,-0.425 -2.495,0.127 -2.764,0.841Zm-16.419,0.557c-1.45,1.313 -0.26,4.763 1.875,5.072c0.447,0.064 1.115,0.045 1.873,-0.175c1.494,-0.436 3.141,-1.328 3.208,-1.848c0.307,-2.361 -3.177,-0.243 -3.638,0.037c-1.098,0.673 -2.261,0.585 -2.846,-0.214c-1.32,-1.802 1.045,-3.869 2.482,-1.665c0.362,0.556 0.235,-0.386 -0.16,-1.026c-0.559,-0.904 -2,-0.846 -2.794,-0.181Zm64.677,-0.743l3.719,2.652l-0.022,2.466l-3.605,-2.623l-0.092,-2.495Zm0.279,3.611l3.521,2.556l0.06,2.564l-3.695,-2.455c0.072,-0.923 0.09,-1.791 0.114,-2.665Zm-19.741,1.472c3.096,0.052 4.842,4.668 3.21,6.589c-0.486,0.572 -0.873,0.725 -1.093,0.512c-0.048,-0.046 0.03,-0.562 0.062,-1.146c0.1,-1.861 -0.292,-3.135 -1.641,-4.548c-1.011,-1.061 -1.394,-1.389 -0.538,-1.407Zm-38.121,0.736c-0.584,0.211 -1.203,0.637 -1.682,0.532c-0.473,-0.104 -0.699,0.132 -0.884,0.507c-0.709,1.432 -0.49,1.895 0.915,1.082c0.666,-0.386 0.899,-0.248 2.683,0.092c1.275,0.243 2.142,0.219 3.264,-0.075c1.395,-0.365 2.226,-0.393 2.932,-0.004c0.705,0.389 1.188,0.926 1.206,0.489c-0.079,-0.511 -0.521,-1.819 -0.623,-2.254c-0.049,-0.209 -0.396,-0.025 -0.724,-0.001c-1.156,0.085 -2.535,-0.965 -3.428,-0.41c-0.714,0.444 -0.809,0.561 -1.789,-0.02c-0.731,-0.432 -1.237,-0.165 -1.87,0.062Zm37.289,0.321c2.096,1.767 2.633,3.335 2.43,4.621c-0.104,0.936 -0.173,1.969 -1.082,2.533c-0.167,0.08 -0.417,0.13 -0.649,0.165c0.705,-2.658 -0.126,-5.038 -3.089,-7.578c0.862,-0.43 1.741,-0.286 2.39,0.259Zm-47.282,-0.004c0.093,0 0.196,0.015 0.3,0.05c0.364,0.121 0.421,1.081 0.135,1.382c-0.286,0.302 -0.518,0.053 -0.85,-0.71c-0.246,-0.416 0.012,-0.721 0.415,-0.722Zm-1.935,0.748c0.765,-0.016 1.055,0.691 1.186,1.255c0.112,0.48 -0.029,1.914 -0.435,1.414c-0.098,-0.304 -0.514,-1.284 -0.846,-1.538c-0.741,-0.568 -0.668,-1.115 0.095,-1.131Zm-2.155,0.712c0.112,-0.003 0.255,0.011 0.429,0.04c1.195,0.202 2.11,2.122 1.832,3.211c-0.632,1.171 -0.866,0.381 -1.075,-0.681c-0.163,-0.44 -0.652,-1.13 -0.952,-1.486c-0.623,-0.74 -0.719,-1.07 -0.234,-1.084Zm71.843,-0.558l3.638,2.632l0.006,2.817l-3.808,-2.583c0.085,-0.986 0.128,-1.93 0.164,-2.866Zm-74.207,1.142c1.782,-0.031 3.303,2.094 2.742,4.11c-0.697,2.102 -4.166,1.654 -3.59,-0.442c0.166,-0.603 0.804,-1.045 1.412,-0.667c0.88,0.545 0.783,-0.342 0.225,-0.657c-0.862,-0.486 -2.047,-0.192 -2.311,0.792c-0.92,3.429 3.447,4.599 5.824,1.056c0.869,-1.295 1.815,-2.681 2.337,-3.272c0.469,-0.531 0.569,-0.475 0.493,0.209c-0.303,3.187 -2.504,7.169 -6.632,6.951c-4.013,-0.384 -5.267,-4.68 -2.237,-7.362c0.566,-0.432 1.12,-0.707 1.737,-0.718Zm21.261,0.174c-1.469,0.717 -2.799,0.989 -4.244,0.354c-1.069,-0.47 -1.052,0.04 -0.588,0.458c1.343,1.154 3.784,0.632 4.829,-0.017c0.34,-0.211 0.452,-0.821 0.003,-0.795Zm56.596,5.093l0.011,2.562l-4.062,-2.746c-0.064,-0.613 0.004,-1.545 0.138,-2.507l3.913,2.691Zm-3.916,0.856l3.868,2.57l0.102,2.54l-3.758,-2.352l-0.212,-2.758Zm0.27,3.561l3.694,2.579l0.054,2.772l-3.66,-2.431l-0.088,-2.92Zm-90.093,2.914l-2.261,6.895l1.48,0.091l0.999,1.818l1.027,-1.864l1.558,-0.119l-2.803,-6.821Zm90.247,0.92l3.561,2.47l0.054,2.56l-3.7,-2.581l0.085,-2.449Zm-0.145,3.135l3.651,2.661l0.072,2.719l-4.137,-2.782l0.414,-2.598Zm-81.672,1.539l-2.239,7.381l1.262,-0.173l1.182,1.975l1.193,-1.774l1.131,0.065l-2.529,-7.474Zm-16.853,0.548l-2.132,7.338l1.429,-0.006l1.207,1.851l1.059,-1.787l1.62,-0.043l-3.183,-7.353Zm98.05,1.351l4.284,3.033l0.035,2.888l-4.152,-2.807l-0.167,-3.114Zm4.235,6.859l0.048,2.529l-3.605,-2.589l-0.391,-2.808l3.948,2.868Zm-76.475,0.436l-2.617,7.457l1.755,0.016l1.065,1.791l0.851,-1.799l1.411,0.014l-2.465,-7.479Zm73.155,0.743l3.344,2.313l-0.025,2.597l-3.293,-2.226l-0.026,-2.684Zm-63.38,30.175l-1.905,-1.848c-0.024,-0.151 1.557,-0.925 2.531,-0.433c1.286,0.65 1.947,2.986 0.507,4.216c-1.146,0.979 -2.894,0.165 -2.929,0.049l1.796,-1.984Zm-1.696,-3.048c0.034,-2.855 -1.456,-3.588 -2.688,-4.166c0,0 -0.206,-18.092 -0.179,-18.633c0.001,0.079 -0.316,-1.959 -0.352,-2.079l0,0c0,0.001 -0.295,-0.08 -0.295,-0.077c0.051,1.835 0.17,20.633 0.141,20.755c-2.305,0.269 -2.949,1.844 -3.158,3.959c-1.799,-0.136 -2.969,0.957 -3.005,1.138c-0.664,-0.921 -0.169,-2.277 -0.693,-3.238c-1.594,5.626 1.505,8.992 4.211,8.678c0.434,5.401 6.328,6.378 6.127,-0.174c7.131,-0.422 4.715,-7.039 -0.109,-6.163Zm-33.502,-22.713l-2.581,7.305l1.809,-0.208l0.66,1.348c2.898,-2.578 4.361,1.403 2.887,-2.011l-2.775,-6.434Zm98.134,12.999c0.333,-0.025 0.771,0.278 0.859,0.691c0.063,1.233 -1.58,0.956 -1.632,0.178c-0.036,-0.553 0.46,-0.846 0.773,-0.869Zm1.073,8.021c0.708,-0.587 1.836,-0.255 1.854,0.628c0.016,0.784 -0.874,1.042 -1.57,0.602c-0.54,-0.332 -0.574,-0.952 -0.284,-1.23Zm0.1,2.174c3.882,0.298 6.77,-2.363 5.533,-4.274c1.043,-1.323 0.192,-2.083 0.477,-2.841c0.824,-0.853 0.135,-2.687 -0.071,-2.694c-0.169,-2.46 -0.877,-2.776 -1.932,-4.087c-0.316,-0.38 0.739,-0.752 1.144,-1.405c-1.241,0.331 -1.905,-0.3 -2.577,-1.142c-7.189,0.338 -13.644,0.844 -13.401,10.682c-1.034,4.176 0.718,7.896 5.736,6.747c1.098,-0.991 0.375,-2.426 0.24,-3.116c-0.429,-1.898 0.066,-3.131 0.204,-4.02c0.427,-2.75 2.424,-5.303 2.641,-0.992c0.35,-0.542 0.185,-0.621 0.762,-0.846c1.378,-0.501 1.376,0.904 1.094,1.471c-0.181,0.291 -0.455,0.267 -0.735,0.234c-0.401,-0.048 -0.924,-0.198 -0.933,-0.346c-0.108,0.447 0.729,1.28 0.641,1.699c-0.11,0.399 -0.181,0.367 0.185,0.103c1.729,-1.249 2.812,1.541 0.31,1.222c1.232,0.664 -0.592,2.609 0.682,3.605Zm-2.56,-15.015c1.364,-0.07 1.69,-0.083 1.627,0.639c0.258,1.333 0.589,1.951 2.311,1.811c1.734,-0.228 2.284,-0.337 0.538,0.721c-0.881,0.392 -1.167,0.468 -2.212,0.373c-1.054,-0.096 -0.973,-0.203 -1.575,0.16c-0.336,0.203 -0.703,0.45 -0.976,0.5c-0.405,0.074 -1.119,0.231 -1.119,0.231c-0.405,2.069 -1.022,3.111 -1.872,4.094c-1.201,1.378 -1.811,1.619 -0.337,1.516c0.544,0.034 0.262,-0.241 0.5,1.989c0.084,0.781 0.228,1.687 0.343,1.991c0.383,1.016 0.434,1.522 -1.022,1.594c-3.635,0.277 -4.484,-3.293 -4,-5.118c0.042,-0.287 0.208,-1.237 0.244,-1.99c0.019,-0.412 -0.063,-0.761 -0.053,-1.182c0.083,-3.402 0.882,-4.299 3.875,-6.511c0.902,-0.667 2.523,-0.804 3.728,-0.818Zm3.193,0.183c1.679,-0.035 3.3,0.779 2.491,1.307c-0.523,0.341 -2.41,0.199 -2.935,-0.177c-0.676,-0.486 -0.422,-1.112 0.444,-1.13Zm-74.828,2.889l-0.665,1.189c0.315,2.594 0.351,3.955 -0.571,6.661l1.373,1.817l1.086,-1.884l1.709,0.03l-2.932,-7.813Zm78.459,-0.552c1.087,0.219 1.13,1.221 0.854,1.837c-0.608,1.355 -4.674,2.011 -4.673,2.012c-0.033,-0.582 0.047,-1.143 -0.376,-1.798c0,0 2.708,-0.715 3.281,-1.242c0.382,-0.352 0.614,-0.798 0.914,-0.809Zm0.804,3.083c0.394,0.006 0.604,0.293 0.71,0.879c0.051,0.314 -0.066,0.582 -0.32,0.926c-1.032,1.132 -3.933,1.915 -4.981,1.628c-0.074,-0.098 0.105,-1.291 0.181,-1.821c1.395,0.043 3.744,-1.206 4.41,-1.612Zm-41.355,6.971c-1.387,-2.019 -4.462,-1.723 -4.132,-1.581c0.022,-1.729 -0.271,-4.103 -2.87,-4.355c-2.622,-0.201 -3.969,3.29 -2.974,4.767c-1.618,-0.678 -4.044,1.021 -4.044,1.181c-0.207,0.007 -2.061,4.952 3.549,5.207c0.511,2.335 1.386,3.464 3.179,4.425l0.045,19.056l0.633,0.865l0.056,-19.97c2.872,-0.129 3.226,-3.445 3.013,-4.21c1.275,0.056 2.434,-0.203 3.409,-0.954l0.336,3.256c0,0 0.674,-1.149 0.525,-1.758c-1.249,-18.715 5.458,-38.961 14.264,-52.085c0.471,-0.551 0.615,-1.209 0.848,-1.213c2.147,-1.168 3.504,-1.954 3.504,-1.954c3.541,1.718 9.864,5.863 9.864,5.863l0.103,26.669c-0.098,-0.262 11.782,-1.338 11.604,-1.014c0,0 -1.041,-0.411 -1.057,-1.112l-0.309,-62.407l-5.198,-3.427c0,0 -4.273,2.819 -5.469,3.782l0.131,36.741l-9.206,-5.443c0,0 0.147,-1.3 0.161,-1.722c-0.148,-5.013 -2.587,-6.695 -7.23,-5.208c-0.622,0.199 -1.054,0.374 -1.359,0.117c-1.955,-5.768 -2.834,-20.925 -2.832,-20.925l13.103,-22.404l22.227,-0.124l0.384,85.601l0.804,44.868l-11.344,8.339l-0.166,-28.742c0,0 -1.625,-0.784 -2.051,-0.837c-0.16,-0.013 -0.366,0.348 -0.077,0.534c0.417,0.268 1.443,0.644 1.443,0.644l0.24,28.488c0,0 -4.41,2.996 -6.382,4.244c-3.687,2.037 -7.315,3.976 -11.121,5.68c-3.752,1.627 -12.021,5.098 -12.021,5.098c-0.718,-2.392 -7.811,-7.981 -15.786,-4.031c-0.73,0.273 -1.634,0.511 -2.243,0.938c-3.039,0.56 -4.04,3.839 -4.5,7.028c-0.016,0.125 0.241,0.097 0.249,0.109c0.033,0.046 0.724,-3.059 0.999,-3.647c0.585,-1.255 1.323,-2.006 1.714,-2.124c0.178,-0.03 0.334,0.249 0.092,0.691c-0.481,0.878 -0.872,2.746 -0.988,3.588c-0.105,0.778 -0.126,1.401 0.018,1.428c0.026,0.025 0.706,-2.352 1.012,-3.192c0.799,-2.188 1.302,-3.094 2.071,-3.561c0.789,-0.479 0.976,-0.411 0.821,0.097c-1.174,2.31 -1.658,4.057 -1.888,6.517c-0.035,0.49 0.211,0.504 0.406,-0.308c0.642,-2.583 1.524,-6.076 3.609,-7.119c0.889,-0.405 1.284,-0.386 1.189,-0.096c-2.482,3.164 -3.103,6.678 -3.073,7.813c0.009,0.378 0.161,0.303 0.48,-0.516c0.84,-3.119 2.086,-5.772 3.566,-7.073c0.572,-0.504 1.265,-0.642 1.845,-0.715c1.753,-0.22 1.813,0.436 0.287,1.333c-1.738,1.021 -3.748,4.738 -3.971,7.528c-0.077,0.966 0.261,1.07 0.501,-0.217c1.03,-5.546 5.741,-9.213 9.517,-7.515c1.699,0.764 2.007,1.826 0.528,1.354c-2.993,-0.956 -6.317,1.185 -7.688,4.173c-1.239,2.701 -1.213,4.12 -0.341,7.737c0.594,3.341 1.752,7.61 1.37,10.882c-0.412,0.637 -1.712,-0.261 -3.247,-0.452c-0.926,-0.175 -2.057,-0.219 -3.024,0.154c-0.843,0.326 -1.321,0.407 -1.477,-0.05c-0.051,-0.148 0.65,-0.868 0.962,-1.266c0.499,-0.637 0.213,-0.739 -0.49,-0.047c-0.344,0.338 -1.084,1.13 -1.286,1.171c-0.444,0.091 -0.462,-0.414 -0.104,-1.7c1.257,-4.991 0.921,-5.076 -1.235,-6.087c-2.137,-0.821 -1.461,-1.235 -2.407,-2.052c-0.667,0.526 0.87,2.938 2.61,3.465c1.423,0.432 1.25,1.166 0.627,3.142c-0.632,2.765 -1.711,6.425 -1.087,8.881c1.311,5.16 6.501,5.055 10.477,2.969l0.485,1.316c-3.361,1.373 -21.077,2.547 -27.047,1.854c-0.462,-1.628 -0.508,-2.047 -0.694,-3.964c0,0 3.688,1.681 5.529,1.973c2.298,0.364 5.838,0.381 6.744,-1.756c0.278,-0.626 -0.007,-1.155 -0.8,-0.792c-1.458,0.667 -3.95,1.16 -5.963,1.035c-1.69,-0.106 -4.099,-0.79 -5.14,-1.423c-0.495,-0.301 -0.913,-0.889 -0.525,-1.628c0.343,-0.077 0.795,0.306 1.063,0.444c3.049,1.553 4.721,1.855 6.71,1.259c1.508,-0.451 3.541,-2.094 3.039,-2.56c-0.51,0.179 -2.2,1.612 -3.365,1.924c-2.399,0.643 -4.957,-0.342 -7.449,-1.971c-0.77,-0.673 -0.418,-1.164 0.524,-0.626c3.733,1.897 5.289,3.155 8.861,0.493c0.798,-0.597 1.243,-0.521 1.712,-0.159c1.854,1.677 1.849,0.735 0.49,-1.007c-0.309,-0.395 -0.588,-0.949 -0.773,-1.539c-0.137,-0.436 -0.167,-0.873 -0.415,-1.16c-0.421,-0.488 -1.18,-0.726 -2.047,-1.111c-1.252,-0.556 -1.668,-0.288 -0.744,0.167c1.618,0.796 2.406,1.649 0.396,1.189c-1.824,-0.823 -4.869,-0.362 -6.592,0.845c-1.353,0.665 -1.949,1.378 -2.268,-0.128c-0.669,-3.143 -0.017,-7.408 -0.914,-12.893c-0.171,-1.045 -0.38,-1.709 -0.163,-1.852c0.278,-0.183 0.973,0.494 1.834,1.714c0.392,0.556 1.172,1.626 1.167,1.403c0.03,-1.161 -1.76,-3.341 -3.237,-4.2c-0.812,-0.472 -1.363,-2.652 -0.435,-2.172c0.717,0.352 4.447,3.661 5.157,4.84c0.33,0.548 0.608,0.199 0.259,-0.445c-0.209,-0.387 -1.086,-1.523 -1.938,-2.362c-1.51,-1.489 -1.686,-1.419 -1.396,-1.724c0.574,-0.604 1.803,0.174 3.994,2.174c0.561,0.716 1.304,1.362 1.213,1.007c0.224,-0.557 -1.969,-2.937 -3.27,-3.574c-0.243,-0.154 -0.276,-0.316 -0.253,-0.612c0.123,-1.123 2.641,0.527 4.73,2.454c0.782,0.721 0.133,-0.636 -0.773,-1.559c-0.712,-0.725 -1.861,-1.627 -2.639,-1.936c-0.774,-0.322 -0.822,-1.003 -0.215,-1.289c2.094,-0.089 4.255,2.071 5.544,3.769c0.356,0.466 0.682,0.826 0.312,-0.057c-1.194,-2.659 -3.676,-4.157 -5.395,-4.46c-1.397,-0.247 -1.366,-1.519 -0.054,-1.375c1.444,0.158 3.809,1.474 5.814,3.51c0.583,0.592 1.564,1.936 1.362,1.147c-0.005,-0.215 -0.621,-1.056 -1.331,-1.868c-1.64,-1.643 -3.546,-3.096 -5.567,-3.529c-0.945,-0.269 -3.75,0.276 -3.767,-0.214c-0.007,-0.363 0.293,-0.58 1.187,-0.88c3.466,-1.164 8.54,1.842 11.316,6.463c0.199,0.331 0.574,0.471 0.597,0.397c-1.339,-3.777 -5.502,-7.2 -8.814,-7.787c-2.252,-0.364 -4.523,0.216 -5.603,1.748c-1.215,1.723 -0.739,4.029 1.085,3.844c0.957,-0.089 0.881,-0.637 0.863,-0.655c-0.065,-0.065 -0.621,0.199 -0.965,0.131c-1.248,-0.247 -1.117,-2.524 0.709,-2.3c2.1,0.259 2.396,3.601 0.05,4.304c-2.166,0.649 -2.96,-0.35 -3.552,-1.534c-0.868,-1.735 0.063,-4.532 1.593,-5.604c4.283,-3.002 9.699,-0.486 12.76,2.491c1.514,1.472 2.62,3.223 3.315,5.111c0.179,0.439 0.561,0.393 0.386,-0.058c-4.309,-11.104 -17.176,-12.399 -19.058,-3.778c-3.114,-4.928 -5.84,-5.272 -10.013,-3.121c-4.256,1.777 -6.351,3.225 -10.288,5.088l-8.926,-4.837c-0.526,-8.951 -0.226,-17.93 -0.191,-26.892c0.026,-0.209 -1.934,0.142 -5.198,0.658c-8.679,1.749 -7.934,-2.946 -9.068,-3.182c-0.607,-0.123 -0.562,0.14 -0.727,-16.382c-0.048,-4.799 -0.142,-13.235 -0.212,-18.748c-0.07,-5.514 -0.088,-10.106 -0.04,-10.203c0.049,-0.097 0.537,-0.52 1.098,-0.921c2.115,-1.513 3.303,-2.428 7.93,-5.992c1.049,-0.807 1.313,-0.944 1.313,-0.944c0.531,9.927 0.054,20.351 0.316,28.885l0.391,0.002l-0.152,-28.655c-0.798,-0.211 18.248,-11.46 28.685,-15.11c0.196,-0.068 0.684,0.151 0.684,0.151c5.991,7.41 21.753,5.167 23.024,-3.855c2.611,5.5 14.085,16.186 19.328,3.305c0,0 1.9,3.7 3.53,3.944c3.664,0.491 4.07,-0.092 12.134,-4.04c-9.22,14.119 -14.305,29.069 -14.955,47.174Zm-4.901,-3.521c0.201,0.624 0.27,1.43 0.097,2.066c-0.236,0.497 -0.587,0.491 -0.587,0.491l-1.785,-1.541l-1.747,1.635c0,0 -1.069,-1.087 -0.482,-2.594c1.117,-2.105 3.675,-1.725 4.504,-0.057l0,0Zm46.139,-0.248c1.143,-0.073 0.552,1.254 -1.139,2.154c-1.061,0.564 -1.941,0.724 -2.322,0.519c-0.209,-0.623 -0.032,-1.191 0.098,-1.444c0.722,-0.374 2.704,-1.03 3.363,-1.229Zm-73.801,2.501c1.269,-0.032 2.369,0.881 2.41,2.498c0.016,0.658 -0.318,1.311 -0.318,1.311l-2.121,-1.578l-1.62,1.744c-0.277,0.097 -1.269,-1.152 -0.587,-2.511c0.496,-0.988 1.367,-1.443 2.236,-1.464Zm30.664,0.742c1.784,0.816 2.094,3.334 0.359,4.304c-0.825,0.461 -2.122,0.717 -2.73,-0.215l1.754,-1.93l-2.013,-1.709c-0.079,-0.08 1.542,-0.949 2.63,-0.45Zm42.824,-0.662c0.307,-0.001 0.385,0.118 0.474,0.408c0.25,0.822 -0.386,1.65 -1.484,1.911c-1.015,0.242 -0.919,0.362 -1.399,-0.553c-0.377,-0.717 -0.478,-0.687 0.112,-0.914c0.712,-0.234 1.474,-0.506 2.297,-0.852Zm-50.742,1.235c0,0 -1.266,1.298 -1.819,1.841l1.905,2.006c0.092,0.244 -2.198,1.29 -3.402,-0.288c-0.782,-1.024 -0.342,-2.972 0.768,-3.641c1.134,-0.683 2.759,-0.115 2.548,0.082Zm2.729,-0.227c1.124,-0.016 2.048,0.889 2.064,2.024c0.016,1.135 -0.88,2.07 -2.005,2.087c-1.124,0.016 -2.051,-0.893 -2.068,-2.028c-0.016,-1.135 0.885,-2.066 2.009,-2.083Zm-27.836,3.459l-1.827,1.93l1.976,2.17c0,0 -1.563,0.257 -2.118,0.152c-2.689,-0.507 -2.426,-3.69 -0.346,-4.532c0.877,-0.311 1.53,-0.207 2.315,0.28Zm-35.853,0.655c0,0 0.359,4.089 0.688,5.485c-0.216,1.594 -1.237,2.679 -1.697,4.315c-0.245,0.728 -1.165,1.706 -1.343,0.681c-0.664,-1.267 -0.029,-2.834 -0.578,-3.736c-0.421,-0.851 -0.195,-1.328 -0.381,-2.211c-0.517,-0.729 -0.762,-1.059 -0.676,-1.707c-0.109,-2.89 -0.824,-2.317 -2.095,-2.081c-4.931,0.429 -4.929,3.295 -4.625,6.933c-0.7,3.411 0.59,2.604 0.548,3.218c-0.066,0.973 0.09,2.335 0.381,2.485c1.758,2.035 1.845,3.445 4.133,3.096c3.871,0.305 10.023,-0.276 11.353,-5.04c0.829,-6.718 1.085,-13.1 -5.708,-11.438Zm38.49,-0.658c1.086,-0.016 1.978,0.859 1.994,1.955c0.016,1.096 -0.851,1.997 -1.937,2.013c-1.086,0.016 -1.978,-0.859 -1.994,-1.955c-0.016,-1.096 0.851,-1.997 1.937,-2.013Zm-36.795,1.042c0.732,-0.009 1.594,0.147 2.304,0.833c1.519,1.47 1.585,2.803 0.911,8.461c-0.19,1.594 -0.746,2.926 -1.483,3.507c-1.479,1.166 -3.29,1.997 -4.782,2.367c-0.788,0.196 -1.473,0.2 -2.005,0.196c-0.576,-0.004 -0.911,-0.273 -0.954,-0.759c0.127,-1.318 -1.206,-1.446 -1.978,-1.372c-1.376,0.055 -1.516,0.202 -0.658,-0.47c0.98,-0.766 3.237,-0.777 3.666,-0.328c0.881,-0.89 1.799,-0.994 2.923,-1.126c-0.166,-0.247 -0.569,-1.234 -0.303,-1.867c0.582,-1.033 1.562,-2.855 2.59,-3.539c1.017,-1.342 0.153,-0.735 -0.478,-0.712c-0.361,0.013 -0.33,-0.107 -0.388,-0.35c-0.251,-1.046 -0.613,-3.001 -0.616,-4.165c-0.001,-0.561 0.519,-0.667 1.251,-0.676Zm-6.478,1.449c0.397,0.357 0.392,0.854 -0.025,1.225c-0.478,0.424 -1.426,0.19 -1.449,-0.608c0.063,-0.804 0.993,-1.032 1.474,-0.617Zm68.607,2.833c-1.65,0.083 -3.009,-1.699 -2.387,-3.474c0.341,-0.481 0.488,-0.412 0.488,-0.412l1.878,1.694l1.802,-1.903c1.484,1.808 0.21,3.96 -1.781,4.095Zm-70.617,-2.758c-0.135,0.519 0.043,1.037 0.065,1.29c-0.327,0.235 -1.72,0.646 -2.466,1.016c-0.519,0.18 -0.895,-0.312 -0.823,-0.761c0.196,-0.837 1.416,-1.383 2.302,-1.643c0.274,-0.067 0.724,-0.093 0.922,0.098Zm0.306,2.395c0.502,-0.062 0.354,1.042 0.166,1.607c-0.187,0.404 -0.741,0.387 -1.238,0.416c-0.879,0.052 -1.986,1.075 -2.461,0.91c-0.158,-0.074 -0.27,-0.494 -0.287,-0.762c0.103,-1.474 2.529,-2.014 3.82,-2.171Zm2.654,1.535c-0.167,0.247 -0.706,0.366 -1.157,0.241c-0.738,-0.204 -0.851,-1.273 -0.204,-1.641c1.144,-0.382 1.831,0.701 1.361,1.4Zm72.911,-2.434l-1.001,1.538l-1.522,-0.028l2.458,7.615l1.138,-2.976c0.153,-1.368 0.333,-2.733 0.474,-4.103l-1.547,-2.046Zm-32.366,0.642l1.946,1.601l1.668,-1.721c1.242,2.793 -0.189,4.071 -1.71,4.038c-1.679,-0.038 -3.469,-1.643 -1.904,-3.918Zm-42.709,2.887c0.616,-0.118 0.352,1.564 0.267,1.612c-0.394,0.146 -2.091,0.37 -2.805,0.978c-1.522,1.204 -2.171,0.469 -1.466,-0.972c0.667,-0.839 3.12,-1.602 4.004,-1.618Zm1.936,0.08c0.679,-0.064 1.154,0.693 0.74,1.415c-0.562,0.527 -1.548,0.14 -1.544,-0.606c-0.004,-0.47 0.38,-0.784 0.804,-0.809Zm-1,4.266c0.093,0.392 -0.043,0.271 -0.756,0.483c-0.392,0.116 -1.01,0.381 -1.652,0.708c-0.943,0.481 -1.208,0.739 -1.543,0.684c-0.265,-0.058 -0.572,-0.174 -0.654,-0.446c-0.329,-1.087 0.548,-2.194 2.59,-2.955c0.425,-0.158 1.185,-0.286 1.445,-0.315c0.693,0.002 -0.048,1.076 0.57,1.841Zm1.207,-1.635c0.987,-0.014 1.172,1.308 0.433,1.541c-1.729,0.451 -1.583,-1.542 -0.433,-1.541Zm-1.218,4.872c0.278,0.269 0.317,0.71 0.006,0.94c-0.57,0.284 -2.76,0.042 -2.775,-0.578c-0.008,-0.41 0.724,-0.548 1.404,-0.561c0.681,-0.014 1.143,-0.016 1.365,0.199Zm98.871,0.678l-1.805,2.436l2.422,6.119l2.212,-7.409l-1.738,0.695l-1.091,-1.841Zm-102.093,6.286c0.418,18.843 0.347,62.022 0.347,62.022l5.313,3.645l5.594,-4.057c-0.058,-13.591 -0.112,-22.966 -0.165,-35.549l8.197,4.544c0,0 0.252,0.366 0.214,2.066c-0.567,4.696 3.932,7.744 6.917,5.89c1.151,-0.488 1.245,-0.575 1.489,-0.208c0.671,1.011 1.428,5.336 1.554,8.096c0.191,4.158 1.275,12.635 1.536,12.692l-13.342,22.703l-21.118,0l0,-84.64c1.081,1.285 1.657,2.128 3.464,2.796Zm77.414,-1.816l-1.001,1.542l-1.207,-0.002l2.118,7.887l2.563,-7.712l-1.412,-0.176l-1.061,-1.539Zm-66.802,62.888c0,0 -2.596,1.881 -3.425,2.421c-0.436,0.165 -0.648,0.196 -0.751,-0.225c-0.127,-0.517 0.077,-1.495 0.258,-3.113c0.167,-1.496 0.166,-1.58 -0.08,-3.712c-0.258,-2.227 -0.288,-2.32 -0.08,-5.259c0.233,-3.279 0.278,-6.462 0.021,-8.433c-0.245,-1.873 -0.241,-6.146 -0.054,-8.531c0.229,-2.921 0.154,-5.483 -0.224,-7.601c-0.676,-3.778 -0.787,-5.079 -0.084,-7.92c0.264,-1.064 0.395,-1.63 0.34,-3.41c-0.061,-1.98 -0.098,-2.627 -0.8,-7.012c-0.404,-2.524 -0.435,-2.87 -0.057,-6.864c0.077,-0.806 0.103,-1.345 0.407,-1.601c0.355,-0.299 4.058,-0.516 4.058,-0.516l0.471,61.776Zm-9.737,-61.001l4.033,-0.044c-0.311,1.275 -0.381,2.245 -0.413,3.167l-3.583,-2.377l-0.037,-0.746Zm0.059,1.629l3.546,2.337c0.004,0.986 -0.069,1.927 0.073,2.912l-3.595,-2.408l-0.024,-2.841Zm0.006,3.708l3.796,2.619c0.148,1.02 0.457,2.052 0.576,2.969l-4.303,-2.939l-0.069,-2.649Zm122.74,1.032l0.198,75.404l-37.781,0l-11.976,-23.217c0,0 0.122,-2.136 0.418,-3.226c0.358,-1.318 0.454,-1.605 0.956,-1.668c1.344,0.703 2.843,-0.231 3.301,-1.26c0.565,-1.266 -0.579,-3.183 -2.334,-3.598c-0.774,-0.186 -1.619,0.165 -2.474,0.824c-0.496,0.418 -0.607,0.465 -0.706,0.101c-0.223,-0.819 0.498,-3.047 1.787,-4.96c0.717,-1.064 0.911,-1.369 1.143,-0.965c0.939,1.637 2.951,1.298 3.715,0.373c0.924,-1.119 0.731,-3.67 -1.362,-4.346c-4.095,-1.322 -5.975,2.825 -5.924,2.815l-0.877,-4.972c4.93,-1.219 7.776,-1.65 9.341,-3.159c1.232,-1.187 1.82,-3.24 1.668,-5.066c0,0 13.694,-5.614 20.102,-9.1c11.035,-6.003 20.805,-13.98 20.805,-13.98Zm-20.852,0.546l-1.013,1.798l-1.437,0.001l2.907,7.593l2.219,-7.927l-1.385,0.125l-1.291,-1.59Zm-101.709,2.179l4.348,3.027c0.095,0.982 0.22,1.858 0.09,2.971l-4.578,-3.056l0.14,-2.942Zm84.847,-0.93l-1.083,1.45l-1.247,-0.132l2.446,7.518c0.743,-2.173 1.42,-5.123 2.155,-7.299l-1.156,0.055l-1.115,-1.592Zm-84.924,4.795l4.5,3.009c0.017,0.929 0.061,1.804 -0.26,2.46l-4.247,-2.75l0.007,-2.719Zm93.357,0.434l-1.093,2.12l-1.455,-0.199l2.602,7.206l2.844,-7.139l-1.761,0.096l-1.137,-2.084Zm-93.349,3.07l3.902,2.892c0.056,0.042 -0.218,1.319 -0.156,2.043l-3.712,-2.309l-0.034,-2.626Zm0.105,3.577l3.639,2.522c0.008,0.957 0.073,1.856 0.222,2.67l-3.95,-2.588l0.089,-2.604Zm-0.062,3.644l4.206,3.022l0.222,2.429l-4.456,-2.828l0.028,-2.623Zm34.625,1.013c4.036,1.518 7.821,9.266 7.705,19.296c-0.081,6.964 2.003,16.903 1.965,16.788c0,0 -1.171,0.159 -1.502,-0.104c-1.521,-5.113 -2.027,-10.515 -2.267,-14.972c-0.197,-3.715 -0.409,-7.362 -0.642,-8.214c-0.664,-2.997 -1.382,-6.493 -3.28,-8.771c-1.478,-1.717 -3.164,-2.016 -4.171,-0.087c-0.826,1.579 0.912,4.194 2.354,3.325c0.349,-0.198 0.557,-0.533 0.1,-0.524c-1.497,0.224 -2.503,-1.866 -1.555,-2.862c1.668,-1.755 4.588,2.154 3.233,4.306c-0.596,0.93 -2.156,1.095 -3.405,0.752c-2.776,-1.355 -3.473,-4.673 -2.544,-6.859c0.709,-1.667 2.265,-2.662 4.009,-2.074Zm-4.883,0.996c0.328,0.015 0.104,0.625 -0.199,1.578c-0.714,2.282 0.626,5.827 2.481,6.534c0.556,0.382 0.526,0.527 0.155,0.738c-1.211,0.687 -3.409,-1.373 -3.989,-3.668c-0.42,-1.66 -0.317,-3.619 0.474,-4.451c0.432,-0.455 0.776,-0.694 1.009,-0.727c0.024,-0.003 0.047,-0.005 0.069,-0.004l0,0Zm-29.786,1.345l4.492,2.963c0.209,0.925 0.117,1.91 -0.024,2.905l-4.495,-3.162l0.027,-2.706Zm27.103,-0.037c0.333,-0.011 0.209,0.552 0.116,1.58c-0.214,2.382 0.517,4.113 2.183,5.55c0.703,0.607 0.896,0.797 0.593,1.115c-0.429,0.452 -1.661,-0.154 -2.626,-1.17c-1.768,-1.86 -2.354,-5.371 -0.976,-6.643c0.302,-0.28 0.536,-0.427 0.71,-0.432Zm49.957,0.413c1.919,-0.076 3.539,0.676 3.717,3.043c0.261,3.465 -2.938,5.361 -5.17,3.371c-2.001,-1.998 0.027,-5.125 2.346,-3.66c1.165,0.743 -0.226,2.435 -1.169,1.56c-0.425,-0.395 -0.612,-0.149 -0.31,0.306c0.913,1.376 2.71,0.232 2.582,-0.98c-0.253,-2.381 -3.153,-2.35 -4.245,-1.418c-1.494,1.276 -2.81,3.156 -3.791,4.525c-0.804,1.188 -0.977,1.157 -0.858,-0.311c0.314,-3.879 3.904,-6.319 6.898,-6.436Zm-52.266,0.758c0.306,-0.012 0.184,0.431 0.208,1.571c0.123,2.928 1.346,4.751 2.897,5.771c0.52,0.58 -0.146,0.99 -1.124,0.71c-2.228,-0.693 -4.503,-5.524 -2.615,-7.602c0.266,-0.292 0.474,-0.445 0.634,-0.45Zm-2.167,0.96c0.309,-0.02 0.135,0.627 0.164,1.848c0.061,2.571 0.849,3.806 2.743,5.375c0.617,0.511 0.694,0.453 0.45,0.737c-0.648,0.754 -2.846,-0.314 -3.783,-1.853c-1.115,-1.833 -1.279,-4.597 -0.241,-5.641c0.29,-0.292 0.506,-0.456 0.667,-0.466Zm-2.155,1.238c0.256,0.001 0.114,0.466 0.153,1.576c0.095,2.692 0.704,4.024 2.397,5.269c1.063,0.783 1.321,0.548 0.996,0.858c-0.569,0.542 -2.127,0.076 -3.296,-0.92c-1.752,-1.492 -2.243,-5.174 -0.819,-6.434c0.254,-0.225 0.436,-0.35 0.569,-0.349Zm-20.395,0.38l4.316,3.02l-0.122,2.549l-4.294,-2.933l0.1,-2.636Zm75.462,4.781c-1.757,-0.363 -2.422,-1.643 -2.208,-3.093c0.071,-0.485 0.352,-0.762 0.653,-0.129c0.258,1.005 0.923,2.399 1.831,2.669c0.366,0.109 0.06,0.622 -0.276,0.553Zm-37.785,-3.01c1.981,5.034 1.946,10.536 2.275,15.733c0.436,6.909 1.647,11.562 2.043,12.347c0,0 -1.935,0.022 -2.033,-0.261c0,0 -1.826,-9.162 -1.551,-13.693c0.02,-5.07 -0.958,-9.527 -1.556,-11.53c-0.631,-1.775 -0.659,-0.602 0.822,-2.596Zm-37.701,1.966l4.152,2.739c-0.059,0.938 -0.067,1.876 -0.056,2.813l-4.07,-2.907l-0.026,-2.645Zm55.833,-0.235c0.003,0.153 0.6,0.281 1.537,0.053c1.039,-0.254 2.075,-0.209 2.873,0.013c0.849,0.235 0.943,-0.041 0.175,-0.38c-0.375,-0.165 -0.971,-0.54 -1.863,-0.524c-0.892,0.016 -2.729,0.506 -2.722,0.838Zm16.819,-0.105c0.101,0.188 0.417,0.611 0.7,0.941c0.534,0.626 0.684,0.63 0.441,0.885c-0.56,0.589 -1.736,-0.264 -1.862,-1.352c-0.109,-0.795 0.283,-1.297 0.721,-0.474Zm-37.178,0.214c1.938,2.789 2.225,9.331 2.264,13.981c0.036,4.188 1.44,11.861 1.553,11.828c-0.399,0.237 -0.937,0.154 -1.441,-0.042c-0.499,-0.656 -0.804,-2.494 -1.383,-7.471c-0.15,-1.284 -0.443,-5.368 -0.509,-8.657c-0.058,-2.901 -1.664,-9.18 -1.664,-9.18c0,0 0.624,-0.448 1.18,-0.459Zm-2.159,0.697c1.768,3.981 2.055,7.933 2.134,12.729c0.076,4.537 1.074,9.851 1.452,12.197c-0.597,0.062 -1.227,0.112 -1.477,-0.159c-0.159,-0.22 -0.285,-0.564 -0.363,-1.009c-0.804,-3.923 -0.996,-8.19 -1.227,-11.798c-0.346,-5.592 -0.435,-6.976 -1.22,-9.764c-0.446,-1.582 -0.602,-1.549 -0.266,-1.853c0.256,-0.231 0.744,-0.347 0.967,-0.343Zm19.87,0.916c0.049,1.852 0.285,1.097 0.933,0.802c0.488,-0.042 0.887,0.228 1.794,0.564c1.155,0.428 1.051,0.571 1.863,0.169c0.501,-0.248 0.9,-0.333 1.14,-0.137c0.949,0.779 2.174,0.34 2.864,-0.29c0.538,-0.284 1.125,-0.129 1.581,-0.087c0.657,0.061 0.485,-0.362 0.566,-1.2c0.072,-0.743 -0.209,-0.809 -0.971,-0.558c-0.78,0.257 -1.555,0.294 -2.232,0.085c-1.731,-0.533 -2.998,-0.187 -3.857,-0.051c-2.027,0.322 -2.135,0.116 -2.594,-0.177c-0.343,-0.219 -0.909,-0.622 -1.104,-0.61c-0.196,0.012 -0.131,0.683 0.017,1.49l0,0Zm17.983,-0.851c0.193,-0.1 0.282,0.165 0.551,0.518c0.448,0.59 0.579,0.868 0.203,0.923c-0.995,0.145 -1.243,0.04 -1.208,-0.584c0.028,-0.498 0.137,-0.693 0.454,-0.857Zm-39.936,0.879c1.461,1.486 1.832,9.822 1.998,11.616c0.527,9.725 1.441,11.122 0.972,11.851c-0.554,-0.009 -0.747,0.198 -1.108,-0.29c-1.25,-3.562 -1.178,-7.223 -1.38,-10.939c-0.286,-4.922 -0.77,-7.588 -1.456,-10.027c-0.456,-1.622 -0.451,-1.649 0.372,-2.094c0.146,-0.079 0.47,-0.122 0.602,-0.117Zm-1.969,1.172c0.515,1.181 1.549,6.549 1.689,11.184c0.112,3.68 0.983,10.876 1.144,10.915c-0.532,0.049 -1.17,-0.06 -1.428,-0.467c-1.594,-7.093 -1.086,-13.97 -2.929,-21.104c0.11,-0.345 0.693,-0.916 1.524,-0.528Zm-29.203,0.874l4.306,3.117l0.092,2.659l-4.395,-3.147l-0.003,-2.629Zm64.001,-0.335c-2.431,0.952 -3.06,1.734 -2.678,2.42c0.323,0.579 1.29,0.376 3.88,-0.715c1.935,-0.815 2.542,-0.459 2.935,0.771c-0.019,1.817 -1.765,2.029 -2.751,1.779c-0.423,-0.016 -0.36,0.023 0.091,0.593c2.004,1.587 4.463,-1.517 3.237,-3.485c-0.959,-1.797 -2.618,-2.309 -4.714,-1.363Zm-15.26,0.737c-2.006,1.589 -1.289,4.452 0.38,4.881c0.464,0.238 1.157,0.126 1.428,-0.056c0.251,-0.167 0.249,-0.44 -0.264,-0.526c-1.55,-0.26 -2.43,-1.407 -1.681,-2.57c0.727,-1.129 2.074,-0.912 4.663,0.214c2.239,0.973 3.22,0.673 3.484,-0.496c0.116,-0.516 -0.026,-1 -1.1,-1.04c-2.987,-0.112 -4.967,-1.946 -6.91,-0.407Zm26.847,4.382c-0.133,-0.824 -1.46,0.022 -2.34,1.482c-0.865,1.436 -0.954,1.641 -1.13,0.15c-0.263,-2.224 2.024,-3.963 3.45,-4.019c1.718,-0.2 2.846,0.77 2.89,1.888c0.087,2.2 -2.515,2.222 -2.87,0.499Zm-75.684,-1.313l4.56,3.161c0,0 0.154,1.694 0.056,2.604l-4.579,-2.957l-0.037,-2.808Zm54.755,1.062c-1.983,1.357 -0.818,3.835 0.569,4.114c1.463,0.294 1.566,-0.737 0.112,-1.04c-0.777,-0.309 -0.976,-1.055 -0.673,-1.632c0.693,-1.145 1.975,-0.404 2.721,-0.047c1.655,0.795 2.512,1.085 3.035,0.536c0.929,-0.977 0.1,-2.718 -1.126,-2.104c-0.331,0.166 -0.58,0.323 -1.284,0.147c-1.069,-0.225 -2.351,-0.466 -3.354,0.026Zm-54.716,2.696l4.486,3.099l-0.137,2.741l-4.212,-3.119l-0.137,-2.721Zm0.092,3.767l4.219,3.035c-0.062,1.158 -0.033,1.619 0.013,2.357l-4.267,-2.781l0.035,-2.611Zm74.61,0.584c3.383,0.334 2.262,4.256 -0.1,3.197c-0.631,-0.478 -0.82,-0.439 -1.52,1.281c-0.895,2.201 -1.114,2.022 -0.991,-0.52c0.09,-2.49 1.223,-3.939 2.611,-3.958Zm-26.656,0.597c0.08,0.002 0.144,0.016 0.184,0.048c0.229,0.259 -0.457,1.282 -1.039,1.883c-0.429,0.284 -1.471,-0.483 -1.218,-0.856c0.296,-0.364 1.527,-1.019 2.073,-1.075Zm4.514,2.02l-0.605,0.088c-0.913,-2.053 -2.81,-1.583 -3.396,0.323l-0.834,-0.095c0.843,-2.338 3.847,-3.771 4.835,-0.316Zm17.035,0.469l-1.023,0.062c-0.918,-2.228 -2.219,-2.56 -3.32,-0.36l-0.793,-0.231c1.364,-2.813 3.645,-3.038 5.136,0.529Zm-5.116,-2.541c0.523,-0.032 0.456,0.212 -0.089,0.964c-0.474,0.654 -0.589,0.756 -1.065,0.399c-0.781,-0.585 0.516,-1.319 1.154,-1.363Zm4.849,0.066c0.1,0.006 0.216,0.016 0.349,0.049c1.055,0.263 1.539,0.767 1.021,1.414c-0.322,0.404 -0.636,0.562 -0.848,0.292c-0.712,-1.184 -1.106,-1.79 -0.522,-1.755Zm-15.935,0.701c0.111,0.441 -0.235,0.754 -0.621,0.388c-0.157,-0.15 -0.293,-0.405 -0.274,-0.592c0.242,-0.23 0.819,-0.039 0.895,0.204Zm-53.344,1.515l4.338,3.144c0.143,1.108 0.172,1.949 0.165,2.706l-4.465,-2.987l-0.038,-2.863Zm63.232,0.952c2.498,1.728 5.428,1.705 7.261,0.188c0.409,-0.34 0.767,-0.354 0.774,-0.028c-0.261,1.211 -3.448,2.765 -5.937,1.884c-1.367,-0.483 -2.49,-0.963 -3.387,-2.252c-0.533,-0.839 0.564,-0.298 1.289,0.208Zm-1.058,0.843c3.652,3.179 6.556,2.296 8.756,0.693c0.325,-0.082 0.33,0.213 0.402,0.762c0.093,0.703 -0.485,1.051 -2.068,1.529c-3.059,0.924 -6.647,-0.088 -7.294,-2.159c-0.075,-0.407 -0.231,-0.935 0.204,-0.825Zm-62.189,1.904l4.398,3.045l-0.14,2.327l-4.285,-2.923l0.027,-2.449Zm0.07,3.565l4.152,2.841l-0.014,1.926l-4.038,-2.904l-0.1,-1.863Zm30.155,0.904c17.712,4.045 30.265,2.124 42.584,-0.067l10.914,21.605l-65.769,0.088c4.295,-7.021 7.869,-14.698 12.271,-21.626Z" style="fill:#131f67;fill-rule:nonzero;"/><path id="path3442-2-7-0" d="M61.945,20.024c1.896,3.287 3.391,6.683 5.096,10.045l0.274,0.177l0.408,0.778l0.046,0.378l1.011,1.633l-0.006,0.351l4.291,8.056c3.539,-1.334 32.609,-3.735 43.373,0.193l1.567,-2.682l0.376,-0.003l2.764,-4.895l-0.044,-0.412l0.931,-1.07l0.135,-0.488l3.05,-4.818l0.011,-0.777l3.816,-6.42l-67.099,-0.046Zm65.823,0.924c0,0 -1.99,3.861 -3.016,5.422c-0.83,-0.661 -3.235,-0.212 -3.092,2.348c-3.922,-1.5 -4.867,3.222 -1.835,4.285c-1.556,1.371 -3.043,-0.18 -4.223,-1.232c-1.154,0.289 -3.55,1.145 -4.907,-1.374c0,0 0.568,0.309 1.133,0.645c3.208,0.984 3.467,-3.384 1.081,-4.1c-0.301,-0.079 -0.866,-0.112 -0.866,-0.112c0.802,-3.359 -4.347,-4.532 -4.445,-0.495c0,0 -0.612,-0.101 -1.076,-0.015c-2.73,0.502 -2.105,4.564 0.686,4.37c0.384,-0.027 0.728,0.043 0.728,0.043c-0.046,0.65 -3.423,1.893 -5.855,-0.345c-1.154,0.887 -2.98,1.999 -5.36,-0.212c1.565,-0.065 3.067,-0.514 3.049,-2.305c-0.011,-1.167 -1.05,-2.207 -2.547,-2.263c-0.085,-1.303 -1.047,-2.546 -2.296,-2.641c-1.524,0.089 -2.303,1.33 -2.314,2.641c-1.296,0.135 -2.509,1.288 -2.23,2.611c0.38,1.804 1.758,2.026 3.33,1.682c-1.912,3.102 -5.026,1.484 -5.985,0.495c-1.143,1.076 -3.136,2.534 -5.59,0.541c1.308,-0.225 2.762,-1 2.517,-2.842c-0.193,-1.452 -1.808,-1.883 -2.51,-1.806c-0.001,-0.959 -0.719,-2.542 -2.414,-2.379c-1.848,0.179 -1.738,2.538 -1.716,2.557c-1.527,-0.127 -2.635,1.685 -2.199,2.842c0.53,1.408 1.639,1.846 3.678,1.466c-2.379,2.253 -3.89,1.379 -5.188,0.905c-1.149,1.216 -2.684,1.608 -4.257,0.53c3.519,0.169 2.959,-6.109 -1.214,-3.833c-2.969,-3.525 -2.915,-1.958 -5.575,-7.143l64.508,-0.286Zm-32.795,6.188c0.171,-0.007 0.352,0.028 0.529,0.12c0.55,0.282 0.654,0.776 0.318,1.504c-0.118,0.256 -0.288,0.55 -0.26,0.82c3.875,7.213 12.418,3.989 13.222,0.638c0.051,-0.212 -0.046,-0.445 -0.157,-0.673c-0.328,-0.551 -0.285,-1.003 0.142,-1.38c0.909,-0.805 2.214,0.145 1.686,1.229c-0.139,0.287 -0.286,0.6 -0.18,0.983c2.193,5.026 6.561,5.404 10.226,3.415c-1.688,3.051 -8.233,4.921 -10.981,-2.425c-4.386,5.985 -11.347,5.872 -14.506,-0.886c-2.842,6.912 -11.413,7.076 -14.533,1.334c-2.84,6.569 -9.427,5.078 -11.292,0.967c6.118,4.469 10.15,-0.196 10.874,-2.185c0,0 -0.142,-0.232 -0.337,-0.425c-0.783,-0.776 -0.762,-1.688 0.05,-2.05c1.039,-0.464 2.012,0.543 1.479,1.531c-0.15,0.277 -0.282,0.338 -0.184,0.577c1.904,4.479 11.281,5.78 13.18,-0.503c0.065,-0.359 0.028,-0.691 -0.134,-0.963c-0.446,-0.75 0.121,-1.597 0.858,-1.628Zm-27.372,2.537c1.479,0.085 1.066,1.368 0.77,1.466l-0.77,-1.466Zm54.921,0.8c0.01,0.025 -0.912,1.663 -0.912,1.663c-0.488,-0.786 -0.361,-1.766 0.912,-1.663Zm-5,8.281c0,0 -0.944,2.108 -1.257,2.285c-17.519,-4.529 -41.963,-0.591 -42.564,-0.154l-1.077,-2.046c15.361,-3.098 30.677,-2.436 44.898,-0.085Zm-29.595,31.334c-1.691,6.585 -5.786,7.255 -10.732,8.056c-6.126,0.992 -10.118,-1.261 -11.985,-4.703c0,0 -8.761,3.341 -11.958,5.283c6.647,3.074 15.429,9.88 20.422,17.608c1.778,2.357 1.689,1.824 1.686,6.993c-0.007,11.209 0.019,15.377 0.019,15.377c2.742,0.415 2.893,2.318 2.743,4.456c2.202,-0.981 4.32,0.22 4.31,2.317c-0.017,3.853 -3.769,2.806 -4.548,2.382c1.221,3.397 -0.212,4.803 -1.674,4.97c-1.802,0.206 -3.87,-0.669 -3.267,-4.557c-1.965,0.771 -4.453,-0.629 -4.798,-2.97l-0.096,-3.964c4.86,-9.23 -1.241,-16.735 -6.97,-19.202c0,0 1.621,-3.382 3.717,-4.332c0.213,-0.065 -1.271,-2.262 -3.766,-1.783c-1.149,0.024 -0.882,0.016 -1.962,-1.4c-2.136,-2.799 -3.142,-2.991 -5.223,0.004c-0.916,1.318 -1.135,1.354 -2.218,1.377c-1.194,0.025 -3.025,0.89 -3.418,1.663c-0.09,0.177 0.378,0.357 1,1.09c0.895,1.055 2.276,2.505 2.058,3.98c-4.718,1.937 -12.543,10.438 -4.315,21.321l-5.95,0.078l-0.283,-38.744l-4.139,2.324l0.184,30.348l-1.18,-0.395c0.091,-9.68 -0.054,-19.353 -0.356,-29.029l-10.912,8.025l0.486,45.505l1.161,0.247c0.861,6.2 13.03,1.864 13.74,2.402l0.146,25.285l-0.533,1.254l9.683,5.34l8.881,-4.648c0,0 1.199,-0.218 1.648,-0.457c3.682,-1.958 6.427,-1.519 8.429,1.354c1.235,1.772 1.445,2.034 1.445,2.034c0.748,-5.113 5.241,-6.998 9.598,-5.662c3.204,0.983 7.583,4.206 8.923,8.141c0,0 0.241,0.593 0.479,0.859l0.184,0.081c-0.011,-0.102 -0.211,-0.593 -0.287,-0.831c-4.494,-10.418 -17.158,-12.015 -19.112,-3.504l-1.793,-2.537l9.429,-5.836l12.886,8.558c0,0 -0.606,3.009 -0.675,4.309l0.223,0.104c0.089,-1.574 0.556,-3.373 1.295,-4.707c0.305,-0.549 0.658,-0.997 1.053,-1.33c0.77,-0.451 1.484,-0.405 2.265,-1.145l-1.881,-1.419l-0.043,-4.556l3.782,5.345c1.189,-0.278 5.821,-1.673 8.568,-0.128c0.31,0.097 4.338,-1.062 6.847,4.61l12.077,-5.062c0,0 0.77,-0.438 0.777,-0.553c-12.042,-4.486 -24.201,-20.366 -23.031,-20.622c0,0 -0.036,-1.629 0.057,-5.627c0.098,-4.456 0.045,-9.005 0.119,-13.476c-4.098,-1.321 -3.079,-4.654 -3.079,-4.654c-2.464,0.545 -2.857,0.062 -3.48,-0.376l-0.426,-4.219c1.478,-1.269 2.364,-1.387 4.192,-0.982c0,0 -0.886,-1.834 -0.08,-3.342c0.678,-1.193 2.485,-1.946 3.927,-1.106c1.864,1.282 1.27,3.968 1.004,4.343c1.937,-0.876 4.306,0.101 4.889,2.035c0.29,-5.719 0.782,-12.122 1.919,-17.11c2.097,-9.003 5.529,-18.432 9.828,-25.846c0.704,-1.239 1.601,-2.48 2.326,-3.64c0.673,-1.033 0.992,-1.701 0.992,-1.701c0,0 -0.919,0.511 -1.892,0.785c-1.4,0.383 -2.454,0.747 -2.613,0.909c-1.024,0.869 -2.367,1.514 -3.464,1.995c-3.868,1.52 -6.468,-0.746 -8.074,-4.207c-0.894,4.395 -4.884,8.114 -10.769,5.803c-3.325,-1.781 -4.371,-2.92 -7.48,-7.567c-0.261,-0.475 -0.935,-1.021 -0.935,-1.021Zm0.128,0.718c2.201,4.391 5.495,7.502 8.697,8.746c5.716,1.891 9.488,-1.803 10.551,-5.197l1.103,1.885l-8.656,6.203l-13.061,-8.381c0.218,-0.202 1.386,-3.155 1.366,-3.256Zm39.307,0.303l-3.878,2.305c0,0 -2.576,4.194 -3.441,5.774c-4.523,8.064 -7.919,16.837 -9.69,25.541c-0.715,3.187 -1.475,9.008 -1.728,11.807c-0.403,4.465 -0.384,6.298 -0.268,10.392l0.303,0.333c0,0 -0.476,0.841 -0.816,1.55c-0.926,1.928 -1.153,3.018 -1.096,5.252c0.129,5.143 3.226,10.065 7.602,12.071c0.246,0.113 0.574,0.259 0.574,0.259c0,0 -0.75,2.047 -2.111,3.488c-0.908,0.962 -1.103,1.009 -0.782,1.482c0.447,0.658 1.888,1.229 3.679,1.202c0.633,-0.009 0.63,-0.011 1.801,1.277c2.286,2.513 2.973,2.461 5.053,-0.387c0.619,-0.847 0.971,-1.05 1.874,-1.071c1.329,-0.032 3.754,-1.115 3.744,-1.621c-1.637,-0.731 -3.532,-4.5 -3.231,-4.54c8.947,-4.778 10.842,-14.681 4.308,-21.964l6.241,-0.1l0.23,39.506c1.222,-0.819 3.984,-2.58 3.984,-2.58l-0.091,-30.742c0.429,0.082 0.866,0.393 1.701,0.53l0.245,29.273c0,0 8.018,-5.705 11.832,-8.683l-0.234,-44.797l-0.912,0l0.146,44.774l-10.594,7.808l-0.069,-27.826c0,0 0.836,-0.126 1.149,-0.17c3.101,-0.438 4.537,-4.429 2.479,-7.035c-0.731,-0.925 -0.212,-0.86 1.341,-1.16c2.755,-0.245 4.28,-2.347 3.479,-3.845c-0.344,-0.642 0.104,-0.573 0.395,-1.183c0.191,-0.48 0.155,-1.075 0.073,-1.547c-0.108,-0.619 0.143,-0.893 0.298,-1.288c0.244,-0.619 0.008,-1.318 -0.398,-1.899c-0.428,-0.613 -0.31,-1.271 -0.314,-1.678c-0.019,-0.91 -0.345,-1.04 -1.299,-1.919c-0.722,-0.664 -0.143,-0.809 0.919,-1.361c1.671,-0.868 1.786,-3.94 -0.436,-5.248c-1.189,-0.699 -3.35,-0.642 -8.035,0.104c-1.776,0.283 -3.862,0.472 -3.862,0.472c0,0 -0.016,-17.514 -0.138,-26.542l-10.027,-6.014Zm0,0.619c0,0 9.512,5.616 9.437,5.774c-3.195,4.416 -15.11,22.013 -15.196,43.292c-8.738,-1.107 -12.316,5.789 -12.74,5.763c-1.149,-26.046 9.324,-44.681 14.69,-52.59l3.809,-2.239Zm-6.001,3.426l-0.03,0.638l-1.885,2.843l-0.05,-2.843l1.965,-0.638Zm-2.912,0.99l0.069,4.579l-3.862,2.978l-0.226,-4.776l4.019,-2.781Zm-35.798,1.048l1.985,1.385l-0.069,4.544l-2.989,-5.488l1.073,-0.441Zm54.332,1.532l0.015,3.287c-7.615,10.842 -11.611,23.225 -12.832,38.907l-1.854,-0.062c0.49,-15.594 5.691,-29.822 14.671,-42.132Zm-51.573,0.336l4.697,3.098l-0.203,5.183l-4.264,-2.762l-0.399,-1.059l0.169,-4.46Zm28.438,0.221l-0.02,4.819l-3.628,2.718l-0.169,-4.784l3.817,-2.753Zm-43.979,1.261c0.538,0.006 0.968,0.402 1.069,1.152c0.398,3.203 2.813,2.278 3.387,3.241c0.217,0.328 -0.298,0.614 -1.95,0.48c-3.03,-0.229 -5.239,-2.703 -3.69,-4.332c0.398,-0.369 0.816,-0.546 1.184,-0.541Zm20.939,2.065l4.012,2.579l-0.011,5.322l-3.932,-2.421l-0.069,-5.48Zm18.304,0.015l0.31,4.707l-4.391,2.947l-0.157,-4.676l4.238,-2.978Zm8.356,0.02l-2.521,5.418l-14.709,10.682l-12.207,-7.979l-2.265,-5.229l14.242,9.379l17.46,-12.271Zm-39.668,2.15c3.909,-0.048 6.909,4.139 7.935,7.808c0.747,2.426 0.86,3.3 0.939,7.151c0.081,3.924 0.203,4.601 0.931,5.156c0.449,0.341 0.58,0.249 0.636,-0.445c0.127,-1.542 1.953,-0.592 1.985,1.032c0.035,1.805 -1.932,2.384 -3.387,0.998c-0.775,-0.738 -0.785,-0.731 -1.027,0.72c-0.161,0.971 -1.283,7.053 1.583,8.566c0.539,0.052 0.668,-0.385 0.268,-0.893c-0.804,-1.02 0.802,-2.196 2.111,-1.547c1.582,0.784 1.422,3.358 -0.268,4.273c-1.934,1.047 -4.434,-0.143 -5.602,-2.664c-0.857,-1.852 -0.853,-4.418 0.015,-8.23c0.401,-1.757 0.577,-2.876 0.667,-4.224c0.03,-0.442 0.082,-0.924 0.115,-1.071c0.093,-0.411 -0.108,-0.43 -0.801,-0.077c-1.892,0.962 -3.955,0.278 -4.464,-1.482c-0.607,-2.104 1.716,-4.277 3.15,-2.947c0.544,0.505 0.478,1.007 -0.172,1.331c-1.128,0.561 -0.743,2.036 0.455,1.744c3.952,-1.194 0.339,-12.386 -4.111,-13.161c-2.942,-0.512 -5.252,2.87 -3.122,4.68c0.834,0.709 1.68,0.328 1.498,-0.673c-0.254,-1.397 1.584,-1.246 2.264,0.185c1.106,2.33 -1.75,4.226 -4.418,2.936c-4.788,-2.87 -1.515,-9.078 2.82,-9.166Zm17.721,0.889l3.943,2.673l0.034,5.194l-3.915,-2.344l-0.062,-5.523Zm8.686,0.449l0.02,4.769l-3.805,2.792l0,-5.074l3.785,-2.487Zm10.25,3.125l-1.947,5.472l-12.28,8.478l-10.13,-6.412l-1.744,-5.063l11.936,7.805l14.165,-10.28Zm-79.7,0.398l-0.004,27.703c-3.979,0.171 -6.264,4.144 -3.284,7.897c0,0 -0.519,0.071 -1.126,0.155c-2.692,0.373 -4.495,1.813 -4.138,3.558c0.109,0.535 -0.002,1.075 -0.154,1.342c-0.239,0.717 -0.176,1.265 0.146,1.884c0.253,0.485 0.211,0.68 0.069,1.04c-0.305,0.774 -0.232,1.371 0.126,1.961c0.444,0.438 0.321,0.791 0.261,1.493c-0.071,0.99 0.105,1.389 0.724,1.775c0.798,0.497 1.095,1.312 0.188,1.245c-0.45,-0.033 -2.035,1.508 -2.035,1.508l-0.149,-44.456l9.376,-7.105Zm21.575,3.555c0.712,-0.002 1.446,0.901 2.498,2.424c0.637,1.092 0.648,0.944 2.104,0.886c1.487,0.109 2.393,0.506 2.782,0.959c0.146,0.172 -0.244,0.217 -1.184,1.18c-0.976,0.999 -1.111,1.396 -1.759,2.514c-0.233,0.403 -0.743,0.441 -0.981,0.073c-0.193,-0.297 0.301,-1.265 1.226,-2.405c1.306,-1.272 1.031,-1.4 -0.866,-1.199c-1.332,0.141 -1.475,0.074 -1.981,-0.743c-1.508,-3.028 -2.31,-2.925 -3.755,0.093c-0.394,0.845 -0.237,0.79 -1.946,0.657c-1.346,-0.104 -1.679,0.238 -0.92,0.952c1.186,0.982 1.648,3.3 1.583,3.272l-0.916,0.085c0,0 -0.28,-0.522 -0.402,-0.851c-0.248,-0.666 -0.916,-1.666 -1.64,-2.456c-1.026,-1.119 -0.463,-1.731 1.827,-1.98c1.277,-0.139 1.306,-0.157 1.893,-1.025c1.035,-1.529 1.725,-2.435 2.437,-2.436Zm55.703,2.757l-1.322,4.726l-10.475,7.414l-8.521,-5.739l-1.131,-4.444l9.79,6.258l11.659,-8.215Zm-36.116,3.744c0,0 3.028,5.954 4.127,9.811c0.955,3.357 2.284,13.074 1.935,13.672c-0.745,-1.031 -3.205,-0.798 -3.238,-0.789c0.208,-1.138 -0.703,-3.433 -2.801,-3.887l-0.023,-18.807Zm34.465,2.177l-1.046,4.653l-8.92,6.509l-7.36,-5.074l-0.966,-4.498l8.146,5.491l10.146,-7.081Zm-51.856,0.259l1.157,0.406l0.218,8.404l8.924,1.497l0.203,1.439l-10.334,-1.683c-0.108,-3.584 -0.168,-10.063 -0.168,-10.063Zm-4.529,0.252l0.249,9.773c-0.097,-0.033 -7.439,1.024 -10.25,1.767l0.165,-1.338c0,0 5.104,-1.12 8.801,-1.551c0,-2.733 -0.021,-5.607 -0.027,-8.392l1.062,-0.259Zm83.022,1.798c0,0 1.214,0.114 3.812,-0.348c6.698,-1.183 8.512,-0.704 9.368,1.381c0.936,3.231 -2.574,3.31 -3.2,1.258c-0.398,-1.33 -1.836,-1.038 -6.639,0.111c-4.107,0.982 -6.71,0.196 -6.66,-2.153c0.051,-2.415 2.777,-2.628 3.319,-0.249Zm-55.044,-1.767c0.828,-0.013 1.513,0.656 1.525,1.492c0.012,0.836 -0.651,1.524 -1.479,1.536c-0.828,0.012 -1.509,-0.653 -1.521,-1.489c-0.013,-0.836 0.647,-1.527 1.475,-1.539Zm-21.76,0.266l1.058,0.321c0,0 0.156,6.375 0.188,6.386c2.275,0.506 7.053,1.411 7.053,1.411l0.253,1.261c-2,-0.474 -8.375,-1.528 -8.375,-1.528c-0.199,-2.764 -0.177,-7.851 -0.177,-7.851Zm-7.72,0.12c0,0 0.004,5.087 -0.081,7.82c0.036,-0.024 -5.41,0.876 -8.176,1.454l0.214,-1.021c2.188,-0.498 4.569,-0.998 6.978,-1.508c-0.048,-2.001 -0.046,-6.389 -0.046,-6.389l1.111,-0.356Zm3.889,1.095c0.665,-0.01 1.216,0.531 1.226,1.203c0.01,0.671 -0.527,1.22 -1.192,1.229c-0.665,0.01 -1.209,-0.523 -1.218,-1.195c-0.01,-0.671 0.519,-1.227 1.184,-1.237Zm90.624,3.175c0.741,1.108 1.362,1.075 2.092,0.967c-0.184,0.054 -1.046,0.569 -0.996,0.739c0.024,0.084 -0.364,1.485 0.226,1.543c2.222,0.216 1.098,2.546 1.364,2.904c0.601,0.691 1.04,1.13 0.628,1.992c-0.365,0.765 -0.89,0.741 -0.483,1.396c0.886,1.344 -0.338,1.622 -0.23,2.537c0.075,0.552 0.267,1.307 0.066,1.737c-0.609,1.295 -2.758,2.033 -5.146,2.134c-0.341,0.016 -0.082,-0.546 -0.242,-0.901c-0.59,-0.377 -0.267,-1.011 -0.069,-1.427c0.196,-0.551 0.198,-0.552 -0.168,-0.831c-1.02,-0.64 -0.967,-0.934 -0.885,-1.396c0.223,-1.366 0.013,-1.5 -0.395,-1.702c-0.523,-0.259 -0.451,-0.835 -0.218,-1.574c0.16,-0.511 0.047,-0.639 -0.2,-1.102c-0.144,-0.273 -0.188,-0.421 -0.191,-0.596c0.073,-0.705 -0.553,-0.703 -1.429,-0.012c-0.744,1.293 -0.999,2.989 -1.464,4.061c-0.36,0.823 -0.417,1.684 0.012,3.581c0.822,2.901 0.211,3.385 -3.024,2.766c-2.432,-0.604 -3.151,-3.224 -2.475,-6.432c0.11,-0.519 0.08,-1.02 0.031,-1.427c-0.265,-2.208 0.301,-4.329 1.828,-5.778c2.548,-2.419 3.808,-2.787 9.077,-2.448c2.061,0.147 2.218,0.278 2.218,0.278c0,0 0.009,-1.001 0.073,-1.009l0,0Zm-37.944,0.665l-0.613,4.498l-4.947,3.523c-2.329,-1.856 -4.127,-1.237 -5.766,0.751c-1.299,-0.665 -3.893,-2.476 -3.893,-2.476l-0.663,-5.101l7.192,5.036l8.69,-6.231Zm-52.573,1.068c0.665,-0.01 1.209,0.527 1.219,1.199c0.009,0.671 -0.52,1.224 -1.184,1.233c-0.665,0.01 -1.217,-0.524 -1.227,-1.195c-0.009,-0.671 0.527,-1.228 1.192,-1.237Zm51.745,4.606l-0.272,4.331l-1.758,1.335l-1.771,-0.182l-0.417,-2.684l4.218,-2.8Zm-51.776,0.035c0.665,-0.01 1.217,0.531 1.227,1.202c0.009,0.672 -0.527,1.22 -1.192,1.23c-0.665,0.01 -1.209,-0.524 -1.219,-1.195c-0.009,-0.671 0.519,-1.228 1.184,-1.237Zm4.851,0.135c0.665,-0.01 1.209,0.524 1.219,1.195c0.009,0.671 -0.52,1.224 -1.184,1.234c-0.665,0.009 -1.213,-0.528 -1.223,-1.199c-0.009,-0.671 0.523,-1.22 1.188,-1.23Zm-9.644,0.232c0.665,-0.01 1.213,0.528 1.222,1.199c0.01,0.671 -0.519,1.224 -1.184,1.234c-0.665,0.009 -1.216,-0.528 -1.226,-1.199c-0.009,-0.672 0.523,-1.224 1.188,-1.234Zm89.578,0.197c0.339,-0.027 0.842,0.481 0.598,1.242c-0.327,0.868 -0.097,1.164 0.448,1.868c0.462,0.595 0.38,0.678 0.31,1.059c-0.106,2.501 1.49,1.42 0.797,3.237c-0.15,0.396 0.049,0.96 0.119,1.428c-0.156,-0.428 -3.092,-0.389 -3.341,0.046c-0.418,-0.063 -0.947,-2.847 -0.525,-3.214c0.054,-0.001 0.36,0.477 0.517,0.746c0.395,0.676 0.48,0.651 0.357,-0.131c-0.488,-3.103 -0.196,-6.262 0.72,-6.281Zm-75.072,0.217c0.665,-0.01 1.213,0.527 1.223,1.199c0.009,0.671 -0.523,1.22 -1.188,1.23c-0.665,0.009 -1.209,-0.524 -1.219,-1.195c-0.009,-0.672 0.519,-1.224 1.184,-1.234Zm-19.51,0.224c0.665,-0.01 1.209,0.528 1.219,1.199c0.009,0.671 -0.519,1.22 -1.184,1.23c-0.665,0.01 -1.217,-0.524 -1.227,-1.195c-0.009,-0.671 0.527,-1.224 1.192,-1.234Zm47.236,0.352l3.609,2.363c0.06,0.745 -0.036,1.812 0.207,2.174c-2.356,-0.222 -3.548,1.133 -3.548,1.133l-0.268,-5.67Zm-25.71,3.779l-0.28,1.284c-7.112,-1.848 -15.06,-1.945 -22.656,0.085l-0.59,-1.35c7.672,-2.348 15.823,-2.435 23.526,-0.019Zm-33.672,-0.082c1.036,-0.018 2.094,0.372 2.839,1.215c1.4,1.583 0.727,4.52 -1.253,5.453c-2.961,1.397 -6.047,-1.59 -4.789,-4.668c0.522,-1.278 1.872,-1.976 3.203,-2Zm73.302,0.375l-0.046,1.288l-0.901,-0.758l0.947,-0.53Zm-18.848,0.059c1.306,-0.02 2.38,1.037 2.399,2.355c0.019,1.318 -1.024,2.402 -2.33,2.421c-1.306,0.019 -2.379,-1.034 -2.398,-2.352c-0.019,-1.318 1.023,-2.405 2.329,-2.424Zm-54.389,0.077c-0.318,0.004 -0.848,0.136 -1.088,0.36c-0.63,0.587 0.003,0.603 0.835,0.758c1.479,0.274 1.886,1.559 1.751,2.947c-0.122,1.261 0.298,1.241 0.636,0.773c1.378,-1.906 0.202,-4.684 -2.134,-4.838Zm68.612,0.634c-0.03,0.016 -0.065,0.039 -0.065,0.039c0.016,0.014 0.039,-0.004 0.065,-0.039Zm-46.722,0.75c1.769,-0.036 1.955,2.9 0.391,6.181c-0.47,0.986 -0.71,0.863 -1.226,-0.627c-1.272,-3.673 -0.996,-5.515 0.835,-5.554Zm4.092,0.085c0.341,-0.017 0.672,0.115 0.943,0.426c0.951,1.094 0.219,2.866 -2.315,5.592c-0.616,0.663 -0.935,0.916 -1.161,0.921c-0.634,0.013 -0.631,-0.093 0.088,-2.46c0.318,-1.044 0.632,-2.189 0.698,-2.545c0.211,-1.137 0.996,-1.895 1.747,-1.934Zm-6.403,2.627c0.173,0.813 0.476,1.943 0.671,2.513c0.194,0.57 0.323,1.113 0.291,1.203c-0.156,0.438 -1.285,-0.157 -2.092,-1.102c-1.624,-1.903 -2.271,-3.558 -1.935,-4.447c0.492,-0.712 1.752,-1.027 2.332,-0.405c0.599,0.642 0.689,2.019 0.733,2.238Zm11.192,-1.896c1.712,1.019 -0.26,3.346 -4.095,5.276c-1.642,0.825 -1.524,0.454 -0.28,-1.176c0.476,-0.624 1.114,-1.639 1.425,-2.259c0.689,-1.37 1.378,-2.742 2.95,-1.841Zm-17.088,0.008c0.543,-0.004 1.099,0.582 2.13,2.089c0.459,0.671 1.205,1.625 1.659,2.123c0.454,0.497 0.811,0.992 0.793,1.098c-0.177,1.056 -5.516,-2.289 -5.9,-3.697c-0.132,-0.859 0.537,-1.627 1.318,-1.613Zm76.424,3.063c0.963,1.999 1.046,3.242 0.249,3.694c-1.132,0.642 -2.588,-0.337 -2.617,-1.76c-0.01,-0.478 -0.497,-2.146 -0.943,-3.229c-0.367,-0.892 -0.417,-1.442 -0.115,-1.487c1.181,0.191 2.927,1.843 3.426,2.782Zm-6.391,-1.516c-0.373,1.143 -0.767,2.927 -0.763,3.446c0.002,0.204 -0.121,0.622 -0.268,0.928c-0.978,2.032 -3.291,0.375 -2.44,-1.748c0.767,-1.914 2.72,-3.906 3.489,-3.972c0.526,-0.045 0.035,1.179 -0.018,1.346Zm1.558,-1.097c0.386,-0.038 0.71,0.813 1.208,2.246c0.674,1.935 0.646,3.445 -0.08,4.088c-1.556,1.377 -3.188,-0.623 -2.56,-3.137c0.503,-2.009 0.995,-3.153 1.432,-3.197Zm-52.196,0.355c1.937,28.768 -12.674,50.902 -13.715,51.505l-4.972,2.744l-8.721,-4.795c9.037,-12.507 14.439,-26.843 14.848,-43.491c8.36,0.82 12.661,-5.933 12.56,-5.963Zm47.911,0.091c0.609,-0.169 0.184,0.369 -0.421,1.249c-0.646,0.94 -1.484,3.494 -2.148,3.903c-1.491,0.724 -3.178,-0.655 -2.274,-1.853c0.833,-1.103 3.281,-2.867 4.843,-3.299Zm8.869,0.195c0.234,-0.001 0.671,0.155 1.306,0.468c3.105,1.53 4.636,3.548 3.307,4.513c-0.933,0.678 -1.93,0.153 -2.862,-1.632c-0.316,-0.606 -0.895,-1.506 -1.28,-2.003c-0.698,-0.902 -0.861,-1.345 -0.471,-1.346Zm17.453,1.025c1.995,-0.03 3.634,1.575 3.663,3.589c0.029,2.013 -1.565,3.672 -3.56,3.701c-1.995,0.029 -3.634,-1.583 -3.663,-3.597c-0.029,-2.014 1.565,-3.664 3.56,-3.693Zm-1.099,0.946c-2.348,1.05 -1.641,4.77 0.382,5.307c0.855,0.242 1.894,-0.117 1.466,-0.532c-2.673,-0.847 -2.69,-2.835 -1.614,-4.291c0.173,-0.233 -0.059,-0.562 -0.234,-0.484Zm-97.783,5.117c-0.091,2.103 0.36,4.541 -0.635,6.823c-1.508,3.508 -6.352,5.111 -8.939,4.8c-0.539,-0.224 -1.167,-0.436 -1.699,-0.208c-0.321,0.138 -0.718,0.12 -1.061,-0.041c-0.33,-0.155 -0.648,0.048 -0.969,-0.069c-0.375,-0.255 -0.987,-0.836 -0.915,-1.268c0.117,-0.609 0.07,-1.061 -0.636,-1.261c-0.979,-0.277 -1.177,-0.811 -0.889,-2.374c0.062,-0.338 0.137,-0.491 -0.081,-0.639c-0.721,-0.487 -0.994,-1.389 -0.521,-2.339c0.309,-0.548 0.548,-0.934 -0.007,-1.37c-0.22,-0.5 -0.181,-0.691 0.291,-1.33c0.503,-0.607 0.591,-0.676 0.268,-1.195c-0.725,-1.166 0.097,-2.026 1.073,-2.506c1.308,-0.542 2.451,-0.821 3.831,-0.982c0.514,0.029 0.492,0.485 0.801,0.924c0.455,0.713 -0.186,1.746 0.184,2.112c0.535,0.249 0.778,0.746 0.736,1.171c-0.019,0.991 0.04,1.33 0.306,1.745c0.295,0.459 0.406,1.302 0.131,1.876c-0.245,0.51 -0.219,0.476 0.103,0.777c0.318,0.298 0.475,1.791 0.362,1.763l1.343,-0.125c-0.141,0.151 0.504,-2.792 2.035,-5.068c-0.085,-1.782 -0.758,-3.422 -0.698,-5.776c3.317,-1.199 5.712,1.647 5.586,4.56Zm51.516,-4.006c0.479,0.38 2.856,1.047 2.943,0.971c-0.075,1.149 0.618,3.381 3.095,4.126c0.03,3.203 0.004,17.988 0.004,17.988c-3.451,-5.837 -5.59,-13.371 -6.042,-23.085l0,0Zm-57.726,0.522c0,0 0.131,0.426 0.253,1.249c0.211,1.682 -0.017,1.912 -0.46,0.762c-0.519,-1.346 -0.546,-0.297 0.038,2.785c0.141,0.746 0.136,0.92 -0.046,1.423c-0.114,0.316 -0.317,1.049 -0.475,1.624c-0.467,1.692 -0.739,2.179 -1.218,0.832c-0.245,-0.687 -0.449,-0.794 -0.275,-1.331c0.218,-0.673 0.166,-1.178 -0.273,-1.833c-0.072,-0.107 -0.23,-0.352 -0.257,-1.048c0.135,-1.562 -0.554,-1.577 -0.69,-1.981c0.023,-0.611 -0.259,-2.092 0.157,-2.052c0.344,0.032 1.585,0.067 2.173,-0.151c0.26,-0.097 1.073,-0.279 1.073,-0.279Zm51.442,0.194c1.282,-0.019 2.334,1.015 2.353,2.309c0.018,1.293 -1.006,2.355 -2.288,2.374c-1.281,0.019 -2.337,-1.011 -2.356,-2.305c-0.019,-1.293 1.01,-2.36 2.291,-2.378Zm-35.833,1.427l1.759,0.336c0.392,0.132 0.106,24.607 -13.97,42.272l-0.122,-4.092c6.698,-9.785 11.521,-21.784 12.333,-38.516Zm29.821,0.514l0.322,5.848c-0.99,-0.85 -3.505,-2.441 -3.486,-2.475l0.011,-2.162c0.002,0.004 2.162,0.167 3.153,-1.211l0,0Zm-13.556,0.081c0.425,0.181 0.794,0.595 1.158,0.894l-1.15,0.781l-0.008,-1.675Zm40.293,0.294c7.593,2.274 15.071,2.208 22.464,0.546l0.506,1.431c-8.022,2.195 -15.994,2.068 -23.916,-0.484l0.946,-1.493Zm-36.775,1.095l0.406,2.521l-4.285,2.8l0.208,-3.828l2.234,-1.462l1.437,-0.031Zm37.936,2.1c0.692,-0.01 1.262,0.55 1.272,1.249c0.01,0.699 -0.545,1.274 -1.237,1.284c-0.693,0.01 -1.259,-0.55 -1.269,-1.249c-0.01,-0.699 0.542,-1.274 1.234,-1.284Zm19.51,0.104c0.693,-0.01 1.262,0.55 1.272,1.249c0.011,0.699 -0.545,1.274 -1.237,1.284c-0.693,0.011 -1.258,-0.55 -1.268,-1.249c-0.011,-0.699 0.541,-1.274 1.233,-1.284Zm-36.541,3.934c0.561,1.998 0.439,6.513 -0.284,9.575c-0.217,0.92 -0.348,4.184 -0.348,4.184c-0.135,0.171 4.301,-3.705 5.727,1.378c0.49,1.747 -1.503,3.404 -2.836,2.919c-0.26,-0.095 -0.182,-0.96 0.067,-1.469c0.739,-1.52 -1.37,-2.31 -2.571,-0.963c-2.777,3.112 0.08,10.992 4.433,11.757c3.613,0.635 6.511,-2.995 4.099,-5.159c-1.054,-0.946 -2.741,0.358 -1.969,1.562c0.825,1.287 -0.694,1.8 -1.843,0.608c-2.003,-2.08 0.246,-5.211 3.272,-4.487c4.838,1.111 3.842,8.744 -1.23,9.174c-3.879,0.329 -6.49,-1.377 -8.13,-4.401c-1.541,-2.906 -1.656,-5.223 -0.951,-10.319c0.419,-3.025 0.075,-5.575 -0.758,-5.557c-0.457,0.009 -0.813,0.232 -0.885,0.773c-0.148,1.109 -0.274,1.316 -0.962,0.913c-0.874,-0.511 -1.359,-2.158 0.069,-3.272c1.464,-1.142 3.361,0.64 3.284,0.948c0.035,-0.057 0.182,-0.347 0.379,-1.644c0.64,-4.222 -0.781,-8.682 -2.537,-7.967c-0.385,0.157 -0.339,0.333 0.165,0.619c1.17,0.664 0.139,2.365 -1.329,2.193c-2.08,-0.244 -2.553,-3.172 -0.721,-4.467c2.886,-1.57 5.236,0.888 5.859,3.102Zm-14.196,-3.516c0,0 3.689,2.271 3.885,2.854c0.126,0.374 0.276,3.632 0.276,3.632l-6.403,-4.046l-9.179,5.728c0.151,-1.257 0.811,-4.494 0.811,-4.494l4.882,-3.117c0.024,0.188 3.376,2.421 5.728,-0.557Zm45.837,0.216c0.692,-0.01 1.262,0.551 1.272,1.25c0.01,0.699 -0.541,1.274 -1.234,1.284c-0.692,0.01 -1.262,-0.547 -1.272,-1.246c-0.01,-0.699 0.541,-1.277 1.234,-1.288Zm-9.771,0.02c0.693,-0.01 1.266,0.546 1.276,1.245c0.01,0.699 -0.549,1.278 -1.241,1.288c-0.693,0.01 -1.258,-0.55 -1.268,-1.249c-0.011,-0.699 0.541,-1.274 1.233,-1.284Zm4.912,0.286c0.693,-0.01 1.266,0.55 1.276,1.249c0.01,0.699 -0.545,1.274 -1.237,1.284c-0.693,0.01 -1.262,-0.55 -1.272,-1.249c-0.01,-0.699 0.541,-1.274 1.233,-1.284Zm-12.299,1.795c3.324,0.698 6.657,1.415 9.843,1.767l0.131,9.874l-0.931,-0.055l-0.135,-8.821c-3.078,-0.223 -5.982,-0.89 -8.709,-1.601l-0.199,-1.164Zm24.717,0.321l-0.172,1.16c0,0 -5.751,1.005 -8.755,1.396c-0.048,1.987 -0.042,8.628 -0.042,8.628l-1.15,0.213l-0.004,-10.052c3.411,-0.374 6.817,-0.761 10.123,-1.345l0,0Zm-55.649,0.556l6.77,4.518l0.797,4.788l-7.893,-5.295c0,0 -7.155,4.861 -9.832,6.664l0.817,-4.514l9.341,-6.161Zm31.254,0.894c2.725,0.582 5.451,1.187 8.176,1.423l0.115,7.944l-1.253,-0.337l-0.099,-6.447c-2.129,-0.186 -4.315,-0.602 -6.514,-1.071l-0.425,-1.512Zm24.112,0.236l-0.23,1.079c0,0 -4.362,0.664 -6.613,1.071c-0.2,0.046 -0.127,6.992 -0.127,6.992l-1.076,0.167l-0.127,-8.11l8.173,-1.199Zm-12.219,0.889c0.693,-0.01 1.258,0.55 1.268,1.249c0.01,0.699 -0.541,1.274 -1.233,1.284c-0.693,0.011 -1.262,-0.546 -1.273,-1.245c-0.01,-0.699 0.546,-1.278 1.238,-1.288Zm-43.251,2.866l8.005,5.453c0,0 0.927,2.84 1.126,4.413l-9.211,-6.002l-11.525,7.711l1.333,-4.764l10.272,-6.811Zm-48.515,0.166c0.475,0.007 0.949,0.327 1.196,1.064c0.347,1.037 0.995,1.343 2.701,1.311c3.349,-0.18 6.859,-1.769 10.019,-0.576c1.537,0.571 2.084,2.858 0.797,3.453c-1.396,0.647 -1.991,0.241 -2.475,-0.866c-0.447,-0.47 -1.003,-0.397 -4.004,0.124c-1.324,0.217 -2.879,0.411 -4.188,0.518c-3.345,0.273 -5.193,-0.791 -5.609,-2.8c-0.266,-1.285 0.772,-2.238 1.563,-2.228Zm91.697,1.845c0.693,-0.01 1.262,0.546 1.272,1.245c0.01,0.699 -0.545,1.278 -1.237,1.288c-0.693,0.01 -1.262,-0.55 -1.273,-1.249c-0.01,-0.699 0.546,-1.274 1.238,-1.284Zm-24.522,1.543c0.901,-0.013 1.642,0.715 1.655,1.625c0.013,0.909 -0.708,1.657 -1.609,1.67c-0.901,0.014 -1.638,-0.715 -1.651,-1.624c-0.013,-0.909 0.704,-1.658 1.605,-1.671Zm-18.648,1.153c0,0 6.587,4.442 9.636,6.493l1.686,4.889l-11.219,-7.364l-13.727,9.015l1.646,-5.028l11.978,-8.005Zm47.557,1.527c0.598,1.625 1.682,2.862 2.828,4.119c0,0 -0.638,1.221 -2.916,1.149c-1.244,-0.04 -1.311,0.158 -1.736,1.009c-0.697,1.079 -1.265,1.785 -1.716,2.135c-0.798,0.62 -2.293,-0.306 -3.525,-2.189c-0.449,-0.686 -0.635,-0.848 -1.989,-0.82c-2.078,0.044 -2.83,-0.538 -1.751,-1.481c0.942,-1.158 1.618,-2.43 2.46,-3.647l0.935,0.108c0.04,0.14 -0.727,2.477 -1.805,3.427c-0.547,0.623 0.219,0.849 1.556,0.564c0.848,-0.257 1.065,-0.156 1.693,1.153c1.309,2.497 1.989,2.377 3.541,-0.155c0.542,-1.13 0.521,-1.242 2.011,-0.916c1.6,0.162 2.083,-0.04 1.426,-0.604c-1.329,-1.138 -2.062,-3.821 -2.062,-3.821l1.05,-0.031Zm-47.5,3.346c0,0 11.913,7.875 11.882,7.704l2.387,5.677l-13.981,-9.386l-17.081,11.212l2.555,-5.62l14.238,-9.587Zm0.46,5.171l4.154,2.757l-0.012,4.962l-4.241,-2.877l0.099,-4.842Zm-1.065,0.143l0.077,4.896l-3.725,2.239l-0.207,-4.594l3.855,-2.541Zm-4.724,3.155l-0.035,0.19l0.088,0.046l0.031,0.004l0.134,4.413l-4.284,2.997l0.016,-4.985l4.05,-2.665Zm10.969,0.055l3.905,2.63l0.161,5.252l-4.238,-2.801l0.172,-5.081Zm4.821,3.206l3.915,2.746l0.138,5.244l-4,-2.719l-0.053,-5.271Zm-20.725,0.019l-0.02,4.846l-3.896,2.746l-0.184,-4.95l4.1,-2.642Zm41.212,6.254c-0.773,0.813 -1.059,0.713 -1.72,-0.631c-0.687,-1.393 -1.718,-2.045 -3.211,-2.018c-1.884,0.033 -0.653,-1.214 1.345,-1.362c3.453,-0.153 5.205,2.185 3.586,4.011Zm-46.19,-2.843l0.104,4.862l-3.878,2.034l-0.118,-2.305l1.996,-3.523l1.896,-1.068Zm-5,6.498l0.134,0.885l-0.716,0.279l0.582,-1.164Zm46.665,35.039c-16.318,3.524 -31.963,2.279 -43.189,0.182l-5.131,8.848l-0.352,-0.015l-1.322,2.289l0.141,0.263c0,0 -4.262,8.257 -6.057,10.86c20.971,-0.204 67.002,-0.305 67.002,-0.305l-2.805,-5.693l0.154,-0.155l-2.77,-5.944l-0.901,-1.029c0,0 -0.55,-1.074 -0.962,-2.228c-0.378,-1.061 -2.004,-3.968 -2.004,-3.968l-0.229,0.02l-1.575,-3.125Zm-42.599,1.245c0.216,0.173 20.901,4.108 42.342,0.066l1.173,1.98c-18.765,4.359 -45.916,0.195 -44.845,-0.209l1.33,-1.837Zm0.356,3.895c1.891,-0.069 3.808,0.957 5.1,2.668c0.411,0.545 1.084,2.15 1.084,2.15c0,0 0.905,-1.512 1.793,-2.27c1.343,-1.145 3.085,-2.101 5.606,-2.011c2.32,0.084 4.875,1.352 7.18,5.016c0.582,-2.114 8.207,-9.299 14.487,-0.34c0.719,-2.381 4.08,-7.136 9.522,-3.813c0.371,0.803 0.754,1.686 0.754,1.686c-3.211,-2.27 -8.507,-0.748 -9.759,2.796c-0.112,0.432 0.03,0.656 0.196,1.075c1.655,2.388 -2.651,2.331 -1.376,0.399c0.239,-0.44 0.259,-0.801 -0.122,-1.377c-1.01,-1.528 -4.05,-3.429 -6.28,-3.38c-2.576,0.056 -5.43,1.781 -6.384,3.349c-0.351,0.578 -0.431,1.157 -0.122,1.663c0.224,0.51 0.148,0.936 -0.23,1.249c-0.887,0.735 -2.001,-0.113 -1.575,-1.199c0.281,-0.479 0.238,-1.065 -0.337,-1.88c-1.154,-1.635 -3.848,-3.359 -6.192,-3.31c-3.355,0.078 -6.743,2.517 -6.529,4.525c0.095,0.882 -0.145,1.211 -0.858,1.11c-0.868,-0.124 -0.966,-0.951 -0.353,-1.625c0.091,-0.215 0.238,-0.739 -0.042,-1.121c-3.542,-4.836 -8.846,-3.426 -10.061,-2.344c1.18,-2.043 2.829,-2.956 4.498,-3.016Zm-3.153,3.357c1.329,0.011 2.761,1.025 3.214,1.817c0.329,-0.343 3.336,-1.791 4.797,0.279c-3.828,-0.291 -3.874,3.809 -1.046,4.204c-1.29,3.955 4.493,4.194 4.127,0.479c4.321,0.645 3.788,-4.884 -0.28,-4.3c2.131,-1.567 3.581,-1.061 6.142,0.734c0.861,-1.131 4.372,-2.188 5.234,-0.212c-4.024,-0.251 -3.339,4.453 -0.333,4.494c-0.893,3.259 5.019,4.458 4.107,-0.41c3.753,0.265 3.209,-4.852 -0.387,-4.428c0.267,-0.931 3.916,-1.334 5.529,0.444c1.482,-1.365 3.118,-2.3 6.073,-0.348c-4.029,-0.678 -4.079,4.602 -0.337,4.285c-0.349,3.497 4.941,3.556 4.058,-0.483c4.028,-1.097 1.813,-5.449 -1.146,-4.25c1.317,-1.581 3.553,-0.835 4.441,-0.515c2.741,-3.167 5.13,-0.518 5.13,-0.518c-4.771,-0.503 -3.734,6.361 0.916,3.871c-0.005,1.413 0.596,2.635 2.494,2.835l2.257,4.715l-63.952,0.425l3.529,-6.264c0.357,0.113 2.396,0.3 2.835,-2.113c4.202,1.346 4.484,-3.593 1.345,-4.374c0.38,-0.265 0.809,-0.371 1.253,-0.367Zm-2.495,1.786c0.418,0.678 0.068,1.119 -0.651,1.137c0,0 0.468,-0.686 0.651,-1.137Zm52.611,0.874l0.414,0.878c-0.448,-0.183 -0.503,-0.377 -0.414,-0.878l0,0Z" style="fill-rule:nonzero;"/></g></g></g></g></g><path id="path147-0-8-1-3-6-2-4-7" d="M130.281,222.872c7.829,-0.17 11.34,-8.985 5.542,-15.83c-0.841,-0.998 -0.928,-1.571 0.612,-0.612c3.904,2.611 11.389,0.894 11.772,-7.086c0.474,-9.834 -13.266,-12.667 -15.846,-2.211c-0.136,1.103 -1.032,1.078 -0.816,-0.488c0.235,-4.25 1.562,-8.223 3.387,-12.096l-9.308,0c1.825,3.873 3.152,7.846 3.387,12.096c0.217,1.566 -0.68,1.591 -0.816,0.488c-2.58,-10.456 -16.32,-7.623 -15.846,2.211c0.383,7.98 7.868,9.697 11.772,7.086c1.54,-0.959 1.453,-0.386 0.612,0.612c-5.798,6.845 -2.287,15.66 5.542,15.83c0,0 0,0 0.008,0l-0.002,0Z" style="fill-rule:nonzero;"/><path id="path147-0-8-1-0-3-83-7-5-7" d="M47.725,26.128c7.829,0.17 11.34,8.985 5.542,15.83c-0.841,0.998 -0.928,1.571 0.612,0.612c3.904,-2.61 11.389,-0.894 11.772,7.086c0.474,9.834 -13.266,12.667 -15.846,2.211c-0.136,-1.103 -1.032,-1.078 -0.816,0.488c0.235,4.25 1.562,8.223 3.387,12.096l-9.308,0c1.825,-3.873 3.152,-7.846 3.387,-12.096c0.217,-1.566 -0.68,-1.591 -0.816,-0.488c-2.58,10.456 -16.32,7.623 -15.846,-2.211c0.383,-7.98 7.868,-9.696 11.772,-7.086c1.54,0.959 1.453,0.386 0.612,-0.612c-5.798,-6.845 -2.287,-15.66 5.542,-15.83c0,0 0,0 0.008,0l-0.002,0Z" style="fill-rule:nonzero;"/></g></g></svg>