<?xml version="1.0" encoding="UTF-8" standalone="no"?>
<!DOCTYPE svg PUBLIC "-//W3C//DTD SVG 1.1//EN" "http://www.w3.org/Graphics/SVG/1.1/DTD/svg11.dtd">
<svg width="100%" height="100%" viewBox="0 0 183 253" version="1.1" xmlns="http://www.w3.org/2000/svg" xmlns:xlink="http://www.w3.org/1999/xlink" xml:space="preserve" xmlns:serif="http://www.serif.com/" style="fill-rule:evenodd;clip-rule:evenodd;">
    <g transform="matrix(1,0,0,1,-2572,-878)">
        <g transform="matrix(1,0,0,1,-328,1179.11)">
            <g id="king_diamonds" transform="matrix(0.995535,0,0,0.996803,8.59507,-274.482)">
                <path id="rect7234-2" d="M3085.57,-15.786C3085.57,-20.516 3081.73,-24.356 3076.99,-24.356L2915.57,-24.356C2910.83,-24.356 2906.99,-20.516 2906.99,-15.786L2906.99,216.523C2906.99,221.253 2910.83,225.093 2915.57,225.093L3076.99,225.093C3081.73,225.093 3085.57,221.253 3085.57,216.523L3085.57,-15.786Z" style="fill:white;stroke:black;stroke-width:0.8px;"/>
                <path id="path6351-0" d="M2930.98,-4.894C2931.05,58.605 2930.94,136.472 2930.98,205.631L3061.59,205.631L3061.59,-4.894L2930.98,-4.894ZM2969.21,-3.699C2991.75,-3.084 3014.43,-3.749 3037.14,-3.571C3037.14,-3.571 3028.89,10.88 3026.39,15.429C3025.84,16.429 3025.78,17.137 3026.08,17.551C3026.53,18.193 3026.5,19.279 3025.99,19.907C3025.77,20.176 3025.67,20.35 3025.65,20.511C3025.63,20.672 3025.78,20.848 3025.89,21.138C3026.3,22.524 3025.26,23.483 3024.16,23.927C3023.43,24.226 3021.8,24.422 3020.6,24.365C3013.07,24.005 2998.29,17.601 2992.2,17.102C2987.97,15.916 2982.51,16.331 2978.01,16.587C2977.16,16.638 2977.31,14.646 2977.31,14.646C2976.6,8.067 2971.97,2.339 2969.21,-3.699ZM3038.36,-2.974L3059.92,-2.974L3059.92,0.384L3050.8,9.622C3049.95,10.486 3049.28,11.203 3049.28,11.203L3049.23,19.539C3043.12,16.237 3041.9,12.292 3040.79,7.953C3030.58,15.53 3030.1,32.113 3041.25,40.649C3041.34,36.941 3044.15,29.655 3049.13,29.114L3049.2,57.999L3043.07,51.983L3029.76,52.158C3031.95,48.576 3032,45.731 3030.58,42.373C3028.19,36.887 3024.49,24.366 3024.78,24.408C3024.78,24.408 3024.88,24.138 3025.18,24.071C3026.29,23.823 3026.99,22.752 3026.68,21.464C3026.62,21.049 3026.62,21.146 3026.9,20.608C3027.98,18.749 3026.69,16.73 3026.69,16.73L3038.36,-2.974ZM2967.72,-2.974L2975.71,11.606C2975.71,11.606 2975.6,12.272 2975.65,12.663C2975.71,13.226 2975.9,13.727 2976.22,14.251C2976.43,14.598 2976.58,15.072 2976.63,15.51C2976.71,16.231 2976.71,16.232 2977.76,17.183C2977.98,17.383 2978.02,17.506 2977.94,17.714C2977.59,18.597 2977.8,20.401 2978.49,22.556C2979.35,25.277 2979.58,25.242 2977.96,28.882C2977.62,29.642 2977.22,30.656 2976.78,31.589C2974.78,35.709 2974.48,36.826 2977.9,39.022C2978.86,39.641 2979.15,40.177 2978.91,41.409C2978.72,42.377 2978.68,42.997 2979.14,43.543C2979.44,43.897 2979.71,43.955 2979.64,44.228C2979.59,44.414 2979.36,45.22 2979.44,45.898C2979.64,47.724 2977.54,50.413 2975.63,51.356C2975.24,51.629 2975.14,51.296 2974.92,50.914C2972.94,47.423 2968,48.837 2967.67,53.002C2967.59,54.103 2967.62,54.581 2967.34,54.815C2967.24,54.894 2966.95,55.059 2966.95,55.059C2966.95,55.059 2959.57,59.889 2954.87,62.372C2954.56,62.534 2954.29,62.801 2954.07,62.845C2953.82,62.895 2953.64,62.85 2953.48,62.694C2951.75,59.377 2952.71,55.46 2952.86,54.071C2952.82,53.579 2952.4,53.49 2951.77,53.482C2950.7,53.47 2949.17,54.559 2948.83,55.574C2948.55,56.437 2948.37,56.996 2948.11,56.992C2947.85,56.988 2947.72,56.64 2947.08,55.396C2945.74,52.807 2945.54,52.48 2944.28,50.976C2943.29,49.777 2942.44,49.618 2941.46,50.511C2940.78,51.132 2940.8,50.593 2940.22,50.279C2939.22,49.595 2937.72,50.207 2937.68,51.17C2937.65,51.977 2937.64,52.585 2936.83,52.638C2935.93,52.697 2935.53,53.874 2935.79,55.551C2935.92,56.434 2935.95,56.575 2935.68,56.899C2934.8,57.954 2934.69,58.683 2935.17,60.156C2936.55,64.356 2938.54,67.183 2940.41,71.002C2940.41,71.002 2935.79,73.714 2932.97,75.29L2932.97,-2.974L2967.72,-2.974ZM3060.06,1.228L3060.17,69.108L3049.97,59.025C3049.97,59.025 3049.78,46.018 3049.79,40.7C3049.8,35.382 3049.87,30.064 3049.85,29.075C3049.83,28.086 3049.9,23.878 3049.94,19.558C3050,10.507 3049.18,11.626 3050.85,9.89L3060.06,1.228ZM3040.13,9.367L3040.69,11.005C3036.42,13.469 3031.19,27.192 3040.79,37.268L3040.6,39.344C3030.53,30.166 3032.4,17.004 3040.13,9.367ZM3040.86,11.303C3042.33,14.348 3044,17.044 3046.27,18.694C3045.05,21.636 3044.52,24.881 3046.6,29.257C3045.14,30.061 3043.12,32.193 3041.02,36.563C3033.45,28.867 3035.13,17.71 3040.86,11.303ZM2984.51,17.056C2988.71,17.063 2993.09,17.752 2997.11,18.969C2999.64,31.848 3004.09,40.506 3004.07,45.549C3004.07,45.549 3003.72,45.49 3002.97,44.949C3001.14,43.62 2998.74,44.362 2997.45,46.053C2996.23,47.656 2997.46,49.886 2996.84,50.821C2995.65,52.565 2992.61,55.789 2992.1,55.682C2991.73,55.605 2991.79,55.442 2993.09,53.428C2994.45,51.331 2995.49,49.43 2995.04,48.966C2994.85,48.769 2994.75,49.185 2993.74,50.957C2991.36,55.115 2989.26,57.686 2988.43,57.352C2988.05,57.196 2988.25,56.851 2990.01,54.509C2992,51.864 2992.55,50.209 2992.36,49.477C2992.2,48.915 2991.89,49.824 2991.07,51.449C2990.19,53.169 2988.6,55.085 2987.31,56.926C2986.9,57.592 2986.38,57.978 2985.71,58.282C2985.21,58.498 2984.42,58.852 2983.96,58.793C2983.72,58.763 2983.89,58.623 2984.21,58.305C2986.75,55.675 2988.93,52.742 2990.17,49.926C2990.36,49.557 2990.09,49.032 2989.78,49.419C2987.87,52.782 2985.23,56.977 2982.36,58.828C2981.74,59.224 2980.81,59.561 2979.98,59.49C2978.56,59.449 2979.06,59.133 2980.35,58.301C2983.11,56.52 2986.97,51.4 2987.6,49.589C2987.75,49.161 2987.58,48.917 2987.31,48.946C2985.04,52.595 2982.05,56.61 2978.56,58.289C2976.68,59.195 2974.32,59.373 2973.15,58.801C2972.3,58.381 2972.51,58.237 2974.03,58.138C2977.67,57.777 2981.94,54.339 2984.05,50.701C2985.29,48.687 2984.42,49.149 2983.01,51.092C2980.6,54.409 2975.81,57.588 2972.84,57.336C2969.84,57.158 2968.11,54.818 2968.49,52.812C2968.73,51.599 2969.58,50.362 2971.26,50.008C2974.14,49.401 2976.02,53.982 2973.39,54.846C2972.49,55.14 2972.15,54.917 2972.48,54.555C2974.43,53.696 2973.56,51.337 2971.91,51.096C2970.88,50.945 2969.68,51.646 2969.63,53.262C2969.66,54.466 2970.64,55.643 2972.62,55.671C2974.96,55.704 2978.56,54.007 2980.74,50.883C2982.29,48.495 2980.86,49.302 2979.71,50.895C2978.69,52.301 2975.4,54.267 2975.15,54.195L2975.26,52.576C2975.31,52.856 2980.33,49.402 2980.03,46.831C2979.85,44.966 2980.12,44.395 2982.05,44.418C2983.49,44.436 2985.33,44.945 2985.86,45.611C2986.41,46.27 2987.03,46.478 2986.76,45.367C2986.31,43.564 2986.84,43.267 2985.8,43.609C2985.09,43.845 2984.45,43.266 2983.73,42.753C2982.94,42.188 2981.94,41.946 2980.75,41.99C2979.85,42.022 2979.45,41.968 2979.59,41.122C2979.7,40.525 2979.81,39.983 2979.64,39.592C2979.36,38.956 2978.24,38.299 2976.98,37.365C2975.49,36.261 2975.76,36.196 2978.94,28.839C2980.27,25.75 2980.28,25.116 2979.48,22.835C2978.22,19.231 2978.02,17.787 2980.38,17.284C2981.72,17.13 2983.11,17.053 2984.51,17.056L2984.51,17.056ZM2997.94,19.143L2999.17,19.496C2999.18,19.497 3003.01,32.669 3005.2,39.1C3005.87,41.062 3006.38,43.713 3006.51,46.204C3006.45,49.633 3004.53,52.094 3002.18,52.363C3000.53,52.553 2998.73,51.689 2997.91,49.833C2997.21,48.069 2997.74,45.988 2999.74,45.27C3003.2,44.028 3005.74,48.473 3002.34,49.841C3000.58,50.549 2998.91,49.273 2999.7,47.788C3000.26,46.747 3001.82,46.86 3002.19,47.935C3002.49,49.08 3002.99,48.54 3002.77,47.765C3002.13,45.296 2998.98,45.877 2998.72,48.152C2998.72,50.971 3001.79,51.633 3003.62,50.05C3005.04,48.785 3005.19,46.499 3004.84,44.515C3004.35,40.395 3002.03,35.05 3000.38,28.951C2999.56,25.906 2998.37,22.275 2997.94,19.143ZM3046.84,19.291L3049.14,20.209L3049.09,27.855L3047.13,28.533C3044.57,24.599 3046.7,19.294 3046.84,19.291L3046.84,19.291ZM3000.07,19.786L3001.76,20.441C3002.69,25.839 3007.05,36.156 3008.59,43.857C3009.02,48.485 3009.09,49.843 3005.97,52.309L3005.97,52.274L3004.29,52.274C3004.29,52.274 3004.28,52.17 3005.02,51.615C3009.1,48.545 3006.67,41.779 3005.12,36.578C3002.44,28.273 3000.04,19.776 3000.07,19.786L3000.07,19.786ZM2984.27,20.325C2984.05,20.327 2983.84,20.336 2983.62,20.348C2981.07,20.486 2980.65,20.65 2980.64,21.208C2980.62,22.259 2981.05,22.725 2983.42,22.467C2985.48,22.244 2988.45,22.564 2990.5,23.451C2992.84,24.462 2993.39,24.701 2994.23,25.136C2996.34,26.228 2995.97,25.141 2994.07,23.881C2990.17,21.306 2987.48,20.286 2984.27,20.325ZM3002.67,20.697L3004.25,21.305C3004.25,21.305 3004.67,22.549 3004.82,23.261C3006.37,30.151 3010.57,37.9 3011.06,45.96C3011.17,48.601 3010.72,51.064 3008.8,52.254L3007.34,52.254C3008.89,50.702 3009.93,50.253 3009.5,44.856C3008.81,37.924 3004.26,29.263 3002.67,20.697ZM3005.48,21.816L3006.95,22.359C3008.63,31.663 3016.99,45.566 3011.67,52.274L3010.34,52.274C3011.53,50.412 3012.02,48.778 3011.84,46.266C3011.32,37.811 3007.03,29.606 3005.48,21.816ZM3007.94,22.672L3009.51,23.156C3011.65,32.584 3019.87,48.032 3014.01,52.305L3012.86,52.274C3017.27,43.975 3010.58,35.388 3007.94,22.672L3007.94,22.672ZM3010.68,23.552C3011.17,23.822 3011.86,23.952 3012.39,24.105C3014.04,31.234 3017.07,38.244 3018.45,44.883C3018.91,48.518 3018.12,51.24 3015.85,52.274L3015.37,52.274C3017.4,49.18 3017.02,45.277 3015.93,41.06C3014.47,35.388 3011.63,29.149 3010.68,23.552ZM2985.86,23.676C2985.13,23.669 2984.36,23.78 2983.55,24.04C2982.72,24.355 2982.83,25.012 2983.6,24.876C2983.86,24.83 2984.32,24.748 2984.62,24.694C2986.51,24.363 2988.84,25.048 2991.67,26.767C2992.35,27.182 2993.09,27.582 2993.27,27.719C2993.79,28.109 2994.34,28.107 2994.15,27.611C2994.08,27.412 2992.99,26.565 2992.03,26.023C2989.97,24.772 2988.06,23.696 2985.86,23.676L2985.86,23.676ZM3013.36,24.295L3014.95,24.539C3017.93,38.335 3024.48,46.907 3018.88,52.026L3017.48,52.026C3019.01,50.451 3019.7,47.984 3019.2,45.069C3018.68,42.093 3017.15,37.37 3015.88,33.216C3014.41,28.401 3013.22,24.329 3013.36,24.295ZM3015.64,24.683C3015.64,24.683 3016.98,24.934 3016.98,24.934C3018.55,30.542 3021.23,37.493 3022.84,43.283C3023.83,46.844 3023.43,51.23 3021.22,52.038L3020.08,52.057C3021.96,49.536 3022.23,46.911 3021.37,43.516C3019.61,36.547 3016.95,30.465 3015.64,24.683ZM3023.93,24.69C3025.29,30.504 3028.55,39.373 3029.72,42.435C3031.28,45.562 3030.81,50.193 3028.47,52.026L3027.36,52.049C3028.7,50.789 3029.16,48.667 3028.95,46.467C3028.34,40.251 3023.97,31.63 3022.38,25.008L3023.93,24.69ZM3018.03,24.965L3019.42,25.093C3020.81,31.174 3023.51,37.085 3025.26,43.167C3025.59,44.54 3025.88,46.217 3025.76,47.451C3025.52,50.039 3024.46,52.08 3023.52,52.08L3022.57,52.08C3024.52,49.742 3024.42,46.555 3023.59,43.128C3022.21,37.466 3018.87,30.638 3018.03,24.965ZM2981.93,24.996C2981.35,24.999 2981.34,25.531 2982.27,26.344C2982.83,26.842 2982.79,26.676 2982.76,26.991C2982.62,28.338 2982.83,29.571 2983.38,28.184C2983.53,27.814 2983.74,27.396 2983.96,27.448C2984.37,27.575 2984.16,28.327 2984.36,28.707C2984.69,29.378 2984.33,29.542 2983.53,29.335C2982.95,29.185 2982.91,29.502 2982.55,29.904C2981.92,30.609 2982.02,31.03 2982.99,30.811C2983.16,30.774 2983.29,30.821 2983.41,30.849C2983.72,30.919 2983.99,31.113 2984.72,31.667C2985.64,32.378 2986.96,33.327 2987.81,33.472C2989.18,33.704 2988.87,33.046 2987.75,32.616C2986.8,32.247 2985.61,31.222 2985.61,30.938C2985.61,30.721 2985.91,30.85 2987.64,30.373C2988.39,30.166 2989.44,29.703 2989.89,29.497C2990.62,29.158 2990.65,29.161 2991.8,29.195C2993.75,29.254 2994.05,29.187 2992.68,28.165C2989.91,26.1 2986.22,24.755 2984.26,25.612C2983.67,25.872 2983.68,25.713 2983.25,25.465C2982.69,25.141 2982.24,24.995 2981.93,24.996L2981.93,24.996ZM3021.55,25.182C3023.47,32.615 3027.18,39.274 3028.09,46.324C3028.29,48.341 3027.95,50.311 3026.29,52.014L3025.16,52.034C3025,52.036 3026.73,49.338 3026.58,47.029C3026.63,45.797 3026.49,44.476 3026.14,43.171C3023.96,36.903 3021.82,31.222 3020.15,25.248L3021.55,25.182ZM2987.03,27.639C2987.46,27.72 2987.47,27.931 2987.33,28.188C2987.1,28.594 2986.7,29.373 2986.7,29.373C2986.7,29.373 2986.17,29.478 2986.06,29.343C2985.88,29.079 2986.49,27.819 2986.85,27.642C2986.9,27.609 2986.97,27.629 2987.03,27.639L2987.03,27.639ZM2988.23,27.863C2988.29,27.862 2988.36,27.892 2988.48,27.936C2988.98,28.136 2989.85,28.546 2989.47,28.862C2989.03,29.237 2987.3,29.406 2987.38,29.25L2987.96,28.177C2988.08,27.949 2988.14,27.864 2988.23,27.863L2988.23,27.863ZM2982.94,34.359C2982.89,34.361 2982.86,34.372 2982.83,34.39C2982.73,34.45 2982.95,34.854 2983.28,35.312C2984.81,37.388 2982.7,38.003 2981.2,36.892C2979.77,35.779 2977.58,35.884 2977.89,37.051C2978,37.462 2977.89,37.663 2978.69,37.674C2979.39,37.685 2979.58,37.725 2980.21,38.163C2982.65,39.837 2985.8,37.595 2984.26,35.192C2983.97,34.738 2983.25,34.341 2982.94,34.359L2982.94,34.359ZM2988.95,37.601C2988.06,37.601 2987.5,38.264 2988.61,38.463C2992.57,39.177 2989.91,43.301 2987.12,41.176C2984.61,38.894 2981.25,38.91 2981.21,40.529C2981.2,40.937 2981.22,40.951 2981.82,41.064C2983.22,41.33 2985.31,41.971 2986.11,42.377C2986.58,42.616 2987.08,42.839 2987.21,42.873C2988.89,43.485 2991.04,42.689 2991.46,41.27C2991.85,39.972 2991.54,37.601 2988.95,37.601ZM2939.33,50.872C2939.86,50.878 2940.42,51.344 2940.83,52.026C2941.75,53.602 2942.88,56.252 2943.6,57.712C2943.78,58.08 2943.79,58.409 2943.78,58.584C2943.84,59.44 2944.12,59.763 2944.63,59.378C2945.12,58.999 2945.81,58.364 2945.01,58.262C2944.19,57.646 2943.74,56.741 2944.24,56.19C2944.61,55.784 2944.47,55.521 2944.17,55.504C2943.03,55.487 2941.33,52.078 2942.13,51.344C2943.21,50.353 2944.41,51.581 2946.95,56.655C2948.07,58.896 2948.12,61.348 2947.16,60.133C2946.84,59.827 2946.9,59.986 2946.52,60.951C2946.23,61.676 2945.99,62.02 2944.9,63.081C2943.56,64.373 2942.75,65.394 2942.72,65.618C2942.66,66.046 2943.44,65.647 2944.01,64.902C2945.28,63.654 2945.33,63.322 2945.32,64.975C2945.31,66.471 2945.23,66.744 2945.5,66.734C2945.92,66.718 2946.14,65.535 2946.33,64.107C2946.57,62.822 2947.23,62.173 2948.34,61.458C2948.64,61.262 2948.65,61.126 2948.59,60.559C2948.38,58.743 2949.41,55.356 2949.88,56.194C2949.94,56.382 2950.15,56.823 2950.26,57.131C2950.34,57.609 2950.64,58.149 2951.1,58.185C2951.67,58.612 2951.66,58.843 2951.86,60.408C2951.93,60.919 2952.15,61.686 2952.31,62.093C2952.6,62.852 2952.87,63.296 2952.7,63.523C2952.6,63.634 2952.38,63.844 2952.38,63.844L2943.12,69.364C2943.12,69.364 2942.39,69.768 2942.13,69.879C2941.39,70.212 2940.95,69.966 2940.59,69.414C2938.62,66.476 2937.28,63.174 2935.9,60.129C2935.07,58.322 2935.88,57.127 2936.95,58.584C2937.37,59.15 2937.15,59.511 2936.95,60.606C2936.91,60.804 2937.1,60.728 2937.44,60.784C2937.98,60.726 2938.24,61.211 2938.22,62.035C2937.88,63.216 2938.35,62.578 2938.58,62.519C2939.01,62.526 2939.1,62.784 2939.34,63.275C2939.49,63.966 2939.79,63.766 2940.23,63.309C2940.6,62.932 2940.6,62.942 2939.86,62.058C2938.59,60.674 2936.83,57.547 2936.37,55.644C2936.25,55.119 2936.29,54.699 2936.39,54.42C2936.96,53.119 2937.76,53.115 2938.63,54.931C2938.78,55.24 2939.08,55.738 2939.28,56.039C2939.62,56.526 2939.82,56.945 2939.81,57.72C2939.55,58.37 2939.51,58.383 2939.74,58.471C2940.29,58.691 2941.27,59.695 2941.32,60.594C2941.36,61.507 2941.51,61.992 2942.23,61.45C2943.04,60.833 2942.7,60.584 2941.89,59.792C2941.05,58.785 2941,57.912 2941.5,57.185C2941.58,56.942 2941.55,56.873 2941.24,56.903C2940.26,56.998 2939.31,55.753 2939.99,54.807C2940.3,54.253 2940.27,54.11 2939.83,54.094C2939.6,54.086 2939.22,54.131 2939.03,54.025C2938.74,53.48 2938.14,52.719 2938.14,52.096C2938.43,51.219 2938.87,50.866 2939.34,50.872L2939.33,50.872ZM2997.37,50.918C2998.97,51.908 3000.56,52.939 3002.37,53.409C2998.19,60.98 2991.46,65.037 2985.84,66.621C2986.03,67.59 2986.16,68.556 2987.1,69.151C2987.07,69.004 2986.65,67.285 2986.74,66.931C2994.49,64.941 3001.32,57.307 3003.06,53.37L3037.12,52.998C3011.87,77.354 3010.86,111.634 3031.46,140.366L3029.09,141.756C3013.22,117.846 3013.38,94.808 3018.14,79.381C3021.52,68.442 3027.58,60.086 3032.18,55.311C3032.18,55.311 3013.71,55.055 3004.52,55.396C3003.19,57.45 3001.95,59.128 3000.15,61.067C3000.15,61.067 3004.82,56.532 3004.7,55.744C3013.22,55.74 3022,55.245 3030.51,55.841C3020.55,67.821 3015.65,80.188 3014.8,91.823C3014.76,93.336 3014.67,92.49 3014.18,93.047L3012.6,95.499L3011.35,92.95C3010.49,92.672 3008.8,93.12 3008.09,92.861C3004.59,108.572 3008.13,127.534 3012.74,139.909C3012.74,139.909 3011.58,140.56 3010.15,140.451C3008.6,140.103 3008.22,140.535 3006.87,140.811C3005.31,141.108 3004.77,141.106 3004.43,141.501C3004.24,141.72 3003.89,142.026 3003.5,142.24C2999.72,143.622 2995.28,148.802 2995.28,148.729L2991.12,146.85C2994.95,139.273 2999.45,136.547 3007.37,133.184L3006.63,129.799C2998.2,132.957 2992.84,136.738 2988.61,144.084C2983.47,144.011 2962.68,143.864 2962.66,143.929C2971.14,134.229 2977.83,119.599 2978.56,108.192C2978.74,105.97 2978.43,107.038 2979.41,106.375L2980.94,104.535L2982.15,106.348C2982.15,106.348 2983.02,107.466 2983.57,106.534C2985.12,90.627 2983.48,72.49 2975.86,59.847C2977.21,59.757 2978.56,59.719 2979.86,60.49C2982.84,67.279 2984.59,75.666 2985.36,81.953C2986.32,89.91 2986.18,98.886 2985.2,106.507L2985.71,106.577C2987.2,96.672 2986.69,86.137 2985.33,76.929C2984.63,72.125 2982.38,64.612 2980.83,61.144C2980.4,60.186 2980.07,59.938 2980.47,59.796C2989.76,59.01 2994.03,55.894 2997.37,50.918L2997.37,50.918ZM2971.61,51.755C2972.32,51.755 2972.9,52.334 2972.9,53.049C2972.9,53.763 2972.32,54.342 2971.61,54.342C2970.9,54.342 2970.33,53.763 2970.33,53.049C2970.33,52.334 2970.9,51.755 2971.61,51.755ZM3041.42,52.413C3038.7,54.888 3036.52,57.454 3034.22,60.187C3041.02,69.581 3048.57,79.763 3054.91,87.899C3054.91,87.899 3057.11,86.59 3057.1,86.427C3057.09,86.341 3056.93,85.908 3056.89,86.005C3056.79,86.23 3055.11,87.178 3055.11,87.178L3035.02,60.668C3035.02,60.668 3036.11,59.357 3036.44,58.944C3038,58.428 3042.35,53.019 3042.56,53.13C3045.96,55.751 3056.22,66.864 3060.18,70.27L3060.23,101.115C3059.82,102.349 3048.88,107.105 3041.15,124.848C3037.26,127.038 3032.96,128.216 3028.95,130.12C3028.95,130.12 3029.97,131.732 3030.47,132.173C3029.86,130.844 3029.75,130.59 3031.14,130.023L3060.06,118.17L3060,120.564C3057.1,122.82 3037.93,136.769 3032.03,140.064C3004.36,101.273 3022,68.102 3038.12,52.591L3041.42,52.413ZM2951.33,54.509C2952.08,54.521 2951.89,56.282 2951.61,56.891C2951.05,57.332 2950.5,56.94 2950.51,56.116C2950.51,55.848 2950.46,55.594 2950.39,55.551C2949.97,55.282 2950.68,54.499 2951.33,54.509ZM2968.22,55.609C2968.86,56.094 2969.1,56.74 2969.33,57.387C2968.47,57.251 2966.18,56.59 2967.25,56.074L2968.22,55.609ZM2964.04,57.898C2984,88.247 2983.11,120.48 2960.84,144.913L2989.01,144.871C2992.6,137.754 2998.57,133.416 3006.22,130.744L3006.88,132.979C2998.1,135.815 2993.65,140.517 2990.12,147.032L2956.51,147.032C2969.43,133.062 2975.34,121.262 2976.27,105.299C2977.16,90.096 2973.31,76.211 2961.63,59.506L2964.04,57.898ZM2969.67,58.247L2974.38,60.482L2973.68,65.339L2968.75,63.054L2969.67,58.247ZM2961.18,59.61C2986.35,97.895 2975.56,124.825 2955.46,147.237L2951.76,147.299L2943.13,139.238L2943.29,188.219C2943.29,188.219 2934.88,196.507 2933.91,197.5C2932.96,198.425 2932.24,197.004 2932.24,197.004L2932.26,132.072L2932.64,129.528L2932.75,115.536L2938.11,112.693L2958.22,139.196C2958.22,139.196 2957.41,140.393 2957.04,140.606C2957.47,141.571 2958.89,139.165 2959.01,138.778C2951.72,129.691 2938.16,111.899 2938.16,111.899L2932.51,114.862C2932.51,114.862 2932.68,103.246 2932.58,98.787C2932.79,97.735 2933.58,98.017 2934.1,97.548C2941.45,92.749 2947.5,85.859 2952.65,74.101C2956.56,72.82 2960.67,71.001 2964.6,69.368L2958.94,60.827L2961.18,59.61ZM2945.76,60.098C2945.55,60.095 2945.01,60.342 2944.28,61.009C2942.93,62.239 2941.15,64.261 2941.15,64.646C2941.51,64.777 2941.83,64.568 2942.12,64.274C2943.24,62.599 2944.99,61.945 2946.01,60.478C2946.17,60.207 2946,60.095 2945.76,60.098ZM2958.44,61.876C2958.44,61.876 2962.34,67.596 2963.34,69.116C2953.05,73.213 2942.28,78.624 2932.75,82.123L2932.75,79.83C2932.75,79.83 2950.66,66.327 2958.44,61.876ZM2973.74,65.657L2977.59,67.656L2976.51,72.021L2972.62,69.836L2973.74,65.657ZM2976.92,72.92L2980.08,75.236L2978.64,78.939L2975.45,76.735L2976.92,72.92ZM2951.11,75.635C2951.11,75.635 2950.63,77.352 2949.81,78.889C2945.89,85.726 2942.07,91.803 2934.15,97.079C2933.85,96.81 2932.99,95.293 2932.99,95.293L2932.91,93.267C2937.11,89.879 2940.73,87.392 2946.28,77.448L2947.89,76.789L2949.26,77.386L2950.19,75.72L2951.11,75.635ZM2967.57,75.651C2963.93,83.429 2960.34,91.452 2954.53,97.513L2970.43,119.828C2975.66,104.072 2973.72,89.306 2967.57,75.651ZM2947.57,77.347L2946.81,78.676L2948.13,79.443L2948.89,78.114L2947.57,77.347ZM2945.41,77.49C2942.53,83.966 2938.21,88.948 2932.54,92.531L2932.32,83.03L2945.41,77.49ZM2946.43,79.423L2945.66,80.752L2946.99,81.519L2947.75,80.19L2946.43,79.423ZM2978.92,79.702L2981.78,82.437L2980.08,85.454L2977.14,83.01L2978.92,79.702ZM3022.82,81.046C3022.82,81.048 3022.81,81.051 3022.81,81.054C3017.78,96.797 3019.29,111.833 3026.2,124.922C3029.59,116.438 3032.37,110.76 3038.99,101.727C3034.91,96.361 3023.23,80.877 3022.82,81.047L3022.82,81.046ZM2945.3,81.298L2944.5,82.604L2945.8,83.409L2946.6,82.104L2945.3,81.298ZM2967.28,83.134C2971.82,94.049 2971.42,103.89 2969,112.418L2957.66,98.012C2961.82,92.827 2964.58,87.916 2967.28,83.134ZM2944.13,83.173L2943.27,84.44L2944.53,85.307L2945.39,84.037L2944.13,83.173ZM2942.86,84.986L2941.92,86.198L2943.12,87.143L2944.07,85.931L2942.86,84.986ZM2980.22,86.276L2982.79,88.728L2981.17,91.908L2978.56,89.51L2980.22,86.276ZM2941.38,86.872L2940.39,88.038L2941.55,89.03L2942.54,87.864L2941.38,86.872ZM3024.21,87.217L3035.65,102.06C3031.82,106.64 3028.64,112.036 3025.8,117.853C3022.61,107.809 3021.18,97.94 3024.21,87.217ZM2939.77,88.72L2938.72,89.828L2939.82,90.889L2940.88,89.781L2939.77,88.72ZM2966.5,90.203L2961.26,97.815L2967.26,105.519C2967.91,101.349 2968.05,96.507 2966.5,90.203ZM2938.07,90.451L2936.94,91.489L2937.98,92.62L2939.1,91.582L2938.07,90.451ZM2936.42,91.935L2935.23,92.903L2936.19,94.096L2937.38,93.128L2936.42,91.935ZM2981.12,92.721L2983.27,95.247L2981.09,97.846L2979.05,95.537L2981.12,92.721ZM3008.45,93.174L3009.91,93.229C3007.51,116.977 3012.22,128.994 3016.38,139.444C3016.38,139.444 3016.37,139.863 3016.23,139.986C3015.55,140.221 3014.18,140.475 3013.08,139.502C3007.48,125.024 3006.26,107.19 3008.45,93.174L3008.45,93.174ZM2934.49,93.48L2933.26,94.379L2934.15,95.622L2935.39,94.724L2934.49,93.48ZM3025.99,94.325C3025.62,94.325 3025.3,104.096 3026.69,108.866L3031.96,101.692L3025.99,94.325ZM3012.38,95.936L3014.14,98.315L3012.27,100.875L3010.36,98.45L3012.38,95.936ZM2933.06,96.583C2933.15,96.569 2933.3,96.817 2933.58,97.013C2933.84,97.29 2933.81,97.269 2933.51,97.505C2933.05,97.874 2932.91,97.815 2932.92,97.238C2932.96,96.763 2932.99,96.594 2933.06,96.583L2933.06,96.583ZM2981.23,98.369L2983.17,101.169L2981.02,103.954L2979.18,101.022L2981.23,98.369ZM3012.22,101.917L3014.27,104.427L3012.51,107.181L3010.27,104.551L3012.22,101.917ZM3059.67,102.448L3059.85,105.341L3059.14,104.284L3057.84,105.287L3058.75,106.499L3059.89,105.608L3059.95,106.774C3052.74,112.019 3049.62,118.044 3046.7,122.563L3045.39,123.117L3043.91,122.644L3043.19,123.934L3041.93,124.232C3041.89,124.224 3044.46,118.694 3048.85,113.065C3052.76,108.052 3059.65,102.401 3059.67,102.448L3059.67,102.448ZM3060.51,106.976L3060.57,117.264L3047.65,122.281C3051,116.538 3054.96,111.207 3060.51,106.976ZM3057.3,105.725L3056.12,106.697L3057.14,107.871L3058.31,106.898L3057.3,105.725ZM3055.48,107.274L3054.35,108.293L3055.41,109.428L3056.54,108.401L3055.48,107.274ZM3012.35,107.843L3014.79,110.45L3013.01,113.53L3010.47,111.086L3012.35,107.843ZM3053.65,108.94L3052.58,110.036L3053.75,111.163L3054.82,110.067L3053.65,108.94ZM3051.97,110.671L3050.95,111.81L3052.18,112.891L3053.21,111.752L3051.97,110.671ZM3050.28,112.612L3049.33,113.813L3050.62,114.816L3051.57,113.611L3050.28,112.612ZM3013.19,114.456L3016.23,116.443L3014.75,120.084L3011.71,117.756L3013.19,114.456ZM3048.81,114.471L3047.92,115.718L3049.29,116.663L3050.2,115.374L3048.81,114.471ZM3047.44,116.439L3046.61,117.729L3048,118.627L3048.82,117.295L3047.44,116.439ZM3046.21,118.387L3045.45,119.716L3046.89,120.541L3047.65,119.197L3046.21,118.387ZM3045.1,120.401L3044.34,121.73L3045.93,122.423L3046.56,121.157L3045.1,120.401ZM3014.84,121.223L3017.95,123.345L3016.58,127.161L3013.29,124.821L3014.84,121.223ZM3059.92,124.976L3059.92,203.615L3025.87,203.615C3025.87,203.615 3024.27,200.766 3020.91,194.208C3019.49,191.431 3018.29,190.252 3018.16,188.053C3018.29,186.761 3017.7,185.296 3016.64,184.706C3016.29,184.508 3015.7,184.747 3015.9,184.195C3016.12,183.586 3015.45,182.65 3015.27,182.452C3015.06,182.1 3015.19,182.014 3015.17,180.705C3015.14,179.439 3015.08,178.91 3014.81,177.954C3014.13,175.54 3013.97,174.334 3014.36,173.081C3015.38,169.906 3016.43,167.47 3017.8,164.509C3018.6,162.776 3018.47,162.099 3016.04,160.841C3014.21,159.899 3013.97,159.909 3014.2,158.532C3014.31,157.888 3014.41,157.481 3014.27,157.169C3014.19,156.979 3013.89,156.713 3013.71,156.561C3013.47,156.356 3013.54,155.934 3013.79,155.62C3014.03,155.311 3014.03,154.871 3013.79,154.136C3013.29,152.59 3014.42,150.542 3016.55,149.128C3017.49,148.502 3017.46,148.632 3018.45,149.67C3021.32,152.704 3025.59,150.798 3025.6,146.521C3025.6,145.188 3025.15,145.267 3026.4,144.638C3030.65,141.919 3039.37,136.973 3039.32,137.108C3039.88,138.272 3040.07,139.266 3040.43,140.521C3040.74,141.596 3040.7,141.678 3040.59,143.77C3040.48,145.662 3040.43,146.101 3040.87,146.222C3043.39,146.501 3043.96,145.606 3044.44,143.972C3044.65,143.25 3045.05,143.397 3045.3,143.701C3046.26,145.454 3047.47,147.277 3048.27,148.523C3049.26,150.114 3050.94,150.906 3051.82,150.154C3052,149.536 3052.15,149.516 3053.26,149.771C3054.61,150.079 3055.38,149.319 3055.51,148.322C3055.56,147.924 3055.27,147.94 3055.99,147.547C3057.78,146.214 3057.1,144.394 3056.83,143.298C3056.86,143.356 3057.6,142.844 3057.62,141.818C3057.7,136.491 3053.11,128.818 3053.21,129.016L3059.92,124.976ZM3016.71,128.044L3020.35,129.814L3019.49,134.191L3015.75,132.498L3016.71,128.044ZM3052.16,129.671C3054.26,132.118 3055.78,136.197 3056.56,138.855C3056.95,140.179 3056.99,141.69 3056.65,141.9C3056.31,142.107 3056.15,141.885 3056.21,141.094C3056.27,140.435 3056.29,139.924 3056.01,139.932C3055.19,140.143 3055.16,138.902 3055.24,138.611C3055.3,138.416 3055.4,138.279 3055.44,138.173C3055.64,137.692 3055.12,137.758 3054.58,137.751C3054.1,137.763 3053.97,137.469 3054,137.011C3053.98,136.503 3053.31,136.602 3052.93,136.988C3052.59,137.34 3052.66,137.755 3053.13,138.045C3053.81,138.462 3054.45,139.487 3056.02,143.019C3056.94,145.07 3056.67,146.525 3055.58,146.509C3054.82,146.486 3053.94,144.403 3053.22,142.868C3053.04,142.471 3053.5,142.028 3053.66,141.814C3054.08,141.262 3054.02,141.087 3053.4,141.078C3052.82,141.07 3052.57,141.122 3052.22,140.4C3052.09,140.129 3051.99,139.715 3052.04,139.451C3052.34,138.656 3051.72,138.464 3051.13,138.77C3050.37,139.085 3050.38,139.76 3051.53,140.865C3052.27,142.085 3052.07,142 3051.37,142.821C3051.23,143.111 3051.31,143.289 3051.62,143.294C3052.51,143.021 3053.48,144.63 3053.21,145.18C3052.94,145.417 3052.2,146.275 3052.92,146.11C3054.38,145.71 3055.27,147.863 3054.41,148.593C3053.12,149.241 3052.82,149.038 3050.84,145.064C3050.23,143.83 3049.49,142.504 3049.4,142.368C3049.31,142.232 3049.27,141.868 3049.27,141.574C3049.36,140.855 3049.05,140.692 3048.43,140.978C3047.96,141.09 3047.54,141.475 3048.13,141.841C3048.82,143.038 3049.07,143.231 3048.69,143.534C3047.83,144.225 3048.2,144.197 3049.17,144.39C3049.64,144.533 3049.88,144.778 3050.01,145.072C3050.51,146.199 3051.39,147.789 3051.48,148.113C3051.77,148.939 3051.24,149.31 3050.52,149.275C3049.76,149.293 3049.42,148.692 3049.05,148.178C3047.67,146.256 3046.68,144.351 3045.28,142.167L3045.47,140.125C3045.47,140.125 3045.84,140.206 3046.04,140.106C3046.45,139.911 3046.69,139.273 3046.92,138.425C3047.28,137.688 3049.46,136.01 3050.3,135.109C3050.45,135.007 3050.58,134.839 3050.58,134.737C3050.58,134.407 3049.64,134.628 3049.02,135.342C3048.11,136.153 3047.72,135.875 3047.75,134.838C3047.66,133.558 3046.89,134.2 3046.85,135.45C3046.75,136.438 3046.41,137.039 3045.72,137.592C3044.42,138.635 3044.64,138.371 3044.7,139.819C3044.8,142.345 3043.83,144.423 3043.2,143.046C3042.97,142.557 3042.71,142.002 3042.14,141.977C3041.74,141.959 3041.54,141.564 3041.32,140.586C3040.99,139.005 3040.54,137.987 3040.12,136.531L3052.16,129.671ZM3019.87,135.113L3024.06,136.794L3023.28,141.21L3019.12,139.61L3019.87,135.113ZM3051.88,135.52C3051.85,135.521 3051.82,135.528 3051.78,135.543C3050.6,136.442 3049.51,137.45 3048.22,138.224C3047.74,138.511 3047.17,139.253 3047.17,139.451C3047.17,139.645 3047.74,139.64 3048.3,139.393C3048.84,139.159 3051.88,136.284 3051.89,136.02C3052.1,135.787 3052.07,135.507 3051.88,135.52L3051.88,135.52ZM3013.32,140.881C3014.32,140.878 3013.74,141.175 3011.57,142.686C3009.46,144.161 3005.97,148.826 3005.57,150.557C3005.38,151.343 3005.88,151.404 3006.44,150.324C3009.01,145.361 3013.86,140.826 3018.31,141.028C3020.49,141.127 3021.66,141.718 3019.86,141.977C3014.92,142.587 3011.22,145.422 3007.99,151.072C3007.99,151.199 3008.28,151.192 3008.62,150.975C3011.58,147.336 3014.92,142.517 3020.77,142.907C3025,143.163 3026.2,148.216 3022.69,149.941C3019.63,151.445 3016.81,147.783 3019.35,145.61C3020.17,144.905 3020.69,145.215 3019.9,145.936C3018.2,147.483 3020.28,150.24 3022.35,149.193C3023.6,148.663 3024.11,146.853 3023,145.486C3020.54,142.446 3015.23,144.758 3011.53,149.67C3011.14,150.187 3010.8,151.309 3011.13,151.188C3011.7,150.95 3012.05,150.497 3012.39,149.987C3013.71,148.145 3014.72,147.221 3016.51,146.23C3017.9,145.465 3017.98,145.608 3017.47,146.935C3017.25,147.494 3017.07,147.68 3016.54,148.027C3014.28,149.575 3012.88,151.649 3012.83,152.97C3012.79,153.935 3013.49,155.195 3012.73,155.453C3011.44,156.066 3007.92,155.566 3006.97,154.345C3006.28,153.467 3006.02,153.976 3006.53,155.403C3006.87,156.345 3006.85,156.878 3007.37,156.782C3008.01,156.437 3008.46,156.518 3009.71,157.208C3010.32,157.54 3011.39,157.85 3012.04,158.002C3013.23,158.278 3013.48,158.161 3013.45,158.68C3013.45,158.839 3013.5,159.285 3013.47,159.567C3013.27,161.128 3014.57,161.659 3016.34,162.685C3017.37,163.284 3016.96,163.902 3015.77,166.872C3015.14,168.216 3014.62,170.024 3013.85,171.389C3013.13,172.922 3013.07,174.6 3013.53,176.513C3014.39,180.064 3015.01,181.868 3013.48,182.188C3009.55,182.786 3000.86,182.762 2996.12,180.929C2994.91,171.778 2988.48,158.201 2989.31,154.69C2990.95,157.183 2997.85,156.524 2995.77,149.554C2995.77,149.554 2996.34,148.704 2997.46,147.559C3000.35,144.606 3001.07,144.118 2999.69,146.718C2998.64,148.717 2997.29,151.326 2997.26,151.831C2997.23,152.234 2997.55,152.328 2997.79,152.006C2997.97,151.767 2998.18,151.187 2998.37,150.747C3000.1,146.686 3003.05,143.025 3005.08,142.144C3005.6,141.917 3005.57,142.158 3005.21,142.605C3002.82,145.596 3000.99,148.363 2999.7,151.975C2999.64,152.347 3000.16,152.503 3000.33,152.149C3002.58,147.422 3003.25,146.349 3006,143.019C3007.09,141.71 3008.09,141.049 3008.9,141.121C3009.6,141.183 3009.39,141.298 3008.74,141.989C3008.25,142.516 3007.53,143.25 3006.35,144.739C3004.27,147.364 3002.19,151.636 3002.95,151.413C3003.09,151.769 3003.74,150.633 3004.3,149.55C3005.81,146.99 3007.42,143.606 3011.02,141.382C3011.78,141.069 3012.6,140.889 3013.32,140.881L3013.32,140.881ZM2943.68,141.706L2950.09,148.151L2962.99,147.985C2960.86,151.309 2962,156.462 2963.17,159.474C2965.47,165.377 2968.84,175.124 2968.59,175.266C2968.59,175.266 2966.71,175.751 2966.54,176.947C2966.29,178.72 2967.06,178.589 2965.95,180.189C2965.71,180.549 2965.87,181.229 2966.13,181.77C2966.31,182.166 2966.47,182.762 2966.15,183.226L2954.77,203.615L2932.97,203.615L2932.97,199.662L2943.99,188.653L2943.86,180.554C2949.75,182.316 2951.78,188.435 2952.28,192.968C2962.94,183.192 2962.67,168.475 2952.61,159.241C2950.65,169 2943.62,171.028 2943.77,170.835L2943.68,141.706ZM3023.9,142.864C3024.59,142.914 3025.52,143.026 3026.15,143.368C3025.72,143.625 3025.42,143.932 3025.13,144.247C3024.79,143.63 3024.32,143.294 3023.9,142.864ZM3041.78,142.934C3042.35,142.932 3043.06,144.622 3042.65,145.018C3042.42,145.241 3041.68,145.325 3041.42,145.157C3041.08,144.905 3041.25,142.936 3041.78,142.934ZM3021.43,145.866C3022.17,145.866 3022.77,146.47 3022.77,147.214C3022.77,147.959 3022.17,148.562 3021.43,148.562C3020.69,148.562 3020.09,147.959 3020.09,147.214C3020.09,146.47 3020.69,145.866 3021.43,145.866ZM2964.7,147.787L2965.67,147.811C2963.91,150.173 2963.67,152.207 2964.3,155.155C2965,158.472 2970.34,170.938 2970.68,174.371C2970.7,174.527 2970.72,174.964 2970.72,174.964L2969.4,175.053C2969.4,175.053 2969.3,174.698 2969.26,174.561C2967.43,168.345 2965.6,163.605 2964.32,159.981C2963.05,156.074 2961.1,150.28 2964.7,147.787L2964.7,147.787ZM2971.76,147.811C2971.77,147.809 2971.78,147.812 2971.79,147.815L2972.72,147.823C2972.68,147.843 2971.33,150.757 2971.23,152.525C2971.12,154.529 2971.6,156.712 2972.26,158.866C2973.82,163.527 2976.11,168.718 2977.38,174.6C2977.39,174.669 2977.53,175.239 2977.53,175.239L2976.16,175.054C2976.16,175.054 2976.02,174.451 2976,174.368C2975.05,169.194 2972.41,163.82 2970.83,158.727C2970.02,156.411 2969.46,153.566 2969.74,151.39C2969.95,149.855 2971.48,147.841 2971.76,147.811L2971.76,147.811ZM2982.99,147.822C2982.01,149.353 2981.11,151.272 2981.05,152.777C2980.99,155.576 2981.8,157.938 2982.61,160.411C2985.11,168.025 2986.32,172.042 2987.56,178.148L2986.24,177.579C2986.24,177.579 2986.19,177.236 2986.16,177.137C2985.45,173.313 2985.41,173.647 2981.25,160.787C2980.27,157.7 2979.34,154.994 2979.53,152.424C2979.57,150.96 2980.84,148.061 2982.18,147.83L2982.99,147.822ZM2984.58,147.822L2985.82,147.822C2985.82,147.822 2985.14,148.547 2984.94,148.818C2982.78,151.83 2983.41,155.063 2984.48,158.916C2985.95,164.218 2988.68,170.148 2990.11,178.23C2990.14,178.379 2990.11,179.159 2990.11,179.159L2988.64,178.563C2987.3,171.153 2984,163.47 2982.41,156.805C2981.48,152.892 2981.74,150.418 2983.9,148.287C2984.45,147.867 2984.58,147.822 2984.58,147.822ZM2969.49,147.865L2970.42,147.865C2970.42,147.865 2968.87,150.418 2968.88,151.92C2968.62,154.611 2969.59,157.583 2970.7,160.698C2972.41,165.485 2974.66,171.274 2975.36,174.321C2975.38,174.441 2975.48,174.987 2975.48,174.987L2973.86,174.902C2973.86,174.902 2973.78,174.164 2973.68,173.825C2971.82,167.273 2970.01,163.035 2967.87,157.053C2967.54,156.147 2967.03,152.567 2967.63,150.247C2968.11,148.426 2969.49,147.865 2969.49,147.865ZM2967.02,147.869L2968.02,147.896C2968.02,147.896 2967.87,148.168 2967.48,148.826C2965.66,152.14 2966.48,155.165 2967.61,158.537C2969.11,163.035 2971.47,168.527 2972.95,173.725C2973.03,174.018 2973.15,174.902 2973.15,174.902L2971.71,174.883C2971.71,174.883 2971.41,173.824 2971.39,173.709C2970.58,168.891 2966.2,160.86 2965.07,154.748C2964.44,151.47 2964.98,149.439 2967.02,147.869ZM2980.38,147.869C2980.38,147.869 2978.81,150.613 2978.66,152.141C2978.38,155.138 2979.33,157.62 2980.41,161C2982.27,166.832 2984.91,173.676 2985.14,176.804C2985.15,176.907 2985.19,177.288 2985.19,177.288L2983.57,176.707C2983.57,176.707 2983.49,176.381 2983.46,176.266C2982.05,170.605 2980.38,164.968 2978.13,158.614C2977.58,156.47 2976.85,154.313 2976.91,152.471C2977.24,150.01 2977.66,149.346 2979.12,147.888L2980.38,147.869ZM2987.51,147.873L2988.82,147.9C2988.82,147.9 2988.43,148.11 2987.5,149.109C2982.35,153.842 2990.7,167.207 2992.63,179.376C2992.65,179.507 2992.71,179.965 2992.71,179.965L2991.28,179.446C2991.14,178.84 2991.04,178.102 2990.87,177.44C2989.31,171.219 2987.23,164.823 2985.31,159.021C2984.24,154.793 2983.85,151.07 2985.78,148.988C2986.38,148.269 2987.51,147.873 2987.51,147.873L2987.51,147.873ZM2974.08,147.881L2975.47,147.92C2974.47,149.187 2973.88,151.161 2973.82,152.916C2973.77,154.993 2974.32,157.012 2975,159.149C2976.4,163.531 2978.39,168.293 2979.76,174.205C2979.83,174.597 2979.9,174.848 2979.93,175.019C2979.99,175.29 2980.14,175.72 2980.14,175.72L2978.68,175.426C2978.68,175.426 2978.53,175.042 2978.43,174.841C2978.28,174.538 2978.14,174.152 2978.02,173.69C2977.31,170.606 2974.7,163.608 2973.1,158.7C2971.84,155.607 2971.5,150.201 2974.08,147.881L2974.08,147.881ZM2991.44,147.935C2993.22,147.869 2994.83,149.387 2995.21,150.813C2995.58,152.327 2995.11,154.036 2993.45,154.88C2990.76,156.249 2987.87,152.608 2989.99,150.604C2991.6,149.085 2993.97,150.209 2993.46,152.153C2993.12,153.419 2991.21,153.501 2990.9,152.223C2990.81,151.798 2990.6,151.373 2990.45,151.607C2989.46,153.941 2992.78,155.033 2994.16,152.862C2994.98,151.122 2993.42,148.88 2991.13,149.306C2987.99,149.89 2987.63,153.901 2988.93,158.58C2990.75,165.974 2995.09,175.919 2995.09,180.484C2995.09,180.545 2995.1,180.732 2995.1,180.732L2993.72,180.318C2993.72,180.318 2993.71,180.241 2993.7,180.174C2992.88,173.799 2988.17,163.243 2986.82,155.128C2986.23,151.428 2987.66,148.743 2990.89,148.009C2991.07,147.966 2991.26,147.942 2991.44,147.935L2991.44,147.935ZM2977.81,147.993C2976.84,149.293 2976.21,151.247 2976.18,152.641C2976.15,154.684 2976.88,156.673 2977.48,158.8C2979,164.053 2982.56,173.752 2982.43,175.569C2982.47,175.764 2982.57,176.367 2982.57,176.367L2981.19,175.956C2981.19,175.956 2981.14,175.869 2981.03,175.619C2980.58,173.816 2978.4,166.091 2975.95,159.412C2975.01,156.727 2974.56,154.635 2974.62,152.854C2974.82,150.398 2975.52,149.372 2976.59,148.005L2977.81,147.993ZM3003.99,156.701C3000.43,156.905 3000.77,161.275 3002.98,162.015C3003.77,162.234 3004.23,162.045 3004.36,161.872C3004.5,161.675 3004.34,161.374 3003.82,161.299C3002.32,160.804 3001.79,159.03 3003.14,158.286C3003.88,157.897 3005.06,158.147 3006.48,159.207C3009.03,161.101 3012.14,161.22 3011.74,159.304C3011.64,158.839 3011.44,158.776 3009.58,158.521C3008.06,158.314 3007.38,157.833 3006.72,157.476C3005.68,156.912 3004.77,156.678 3003.99,156.701ZM2952.96,160.764C2962.17,169.808 2960.81,183.982 2952.94,191.078C2952.78,190.506 2952.43,189.102 2952.4,189.142C2958.31,182.951 2961.1,172.804 2952.53,162.403C2952.58,162.442 2952.73,161.652 2952.96,160.764L2952.96,160.764ZM3010.67,161.004C3010.59,161.006 3010.51,161.016 3010.44,161.039C3008.06,161.695 3007.56,164.065 3009.11,165.041C3010.06,165.639 3010.79,165.272 3009.61,164.549C3008.6,163.929 3009.1,162.299 3010.32,162.318C3010.86,162.326 3011.22,162.56 3012.58,163.569C3013.7,164.4 3014.76,164.466 3015,163.34C3015.14,162.669 3014.92,162.37 3014.2,162.546C3013.89,162.624 3013.7,162.438 3013.27,162.139C3012.32,161.475 3011.28,160.991 3010.67,161.005L3010.67,161.004ZM2952.01,162.779C2960.31,172.467 2957.65,182.571 2952.05,188.491C2950.51,183.93 2946.75,181.085 2946.75,181.085C2948.16,177.918 2949.01,174.61 2946.36,170.433C2948.83,168.188 2950.87,165.722 2952.01,162.779L2952.01,162.779ZM3005.94,166.315C3005.55,166.308 3005.68,166.686 3006.6,167.33C3008.78,168.826 3008.97,169.097 3006.85,169.061C3006.31,169.03 3005.47,169.413 3004.99,169.573C3002.22,170.501 3002.09,170.427 3000.77,170.115C3000.33,170.012 2999.88,169.825 2999.68,170.003C2999.39,170.277 2999.05,170.458 2999.43,170.866C2999.7,171.164 3000.21,171.392 3000.83,171.75C3004.05,173.601 3004.34,174.044 3008.12,174.144C3008.55,174.155 3008.77,173.93 3009.03,173.927C3009.64,173.919 3009.97,174.071 3010.59,174.643C3011.73,175.691 3011.78,174.929 3011.11,173.555C3010.75,172.834 3010.44,172.662 3010.61,172.114C3011.01,170.864 3010.44,170.615 3009.7,171.723C3009.14,172.59 3009.08,172.57 3008.55,171.455C3007.85,170.064 3008.18,169.421 3009.24,170.328C3010.05,171.015 3010.25,170.504 3010.56,169.96C3010.97,169.245 3010.91,168.603 3010.18,168.659C3009.76,168.691 3009.36,168.495 3009.03,168.132C3008.38,167.419 3007.13,166.525 3005.94,166.315ZM3006.85,170.08C3006.94,170.085 3007,170.121 3007.03,170.212C3007.03,170.67 3006.72,171.607 3006.46,172.098C3006.38,172.317 3006.24,172.345 3006.05,172.385C3005.38,172.508 3005.34,172.302 3005.45,171.889C3005.7,171.252 3005.9,170.346 3006.75,170.084C3006.79,170.08 3006.82,170.078 3006.85,170.08L3006.85,170.08ZM3005.17,170.398C3005.43,170.378 3005.44,170.49 3005.34,170.735C3005.14,171.148 3004.81,171.538 3004.56,171.862C3004.03,172.207 3003.16,171.152 3003.55,170.878C3004.08,170.666 3004.48,170.448 3005.03,170.413C3005.09,170.405 3005.13,170.401 3005.17,170.398L3005.17,170.398ZM2945.71,171.087C2945.85,171.087 2945.99,171.116 2946.14,171.18C2948.15,173.907 2948.02,178.057 2946.46,180.353C2946.34,180.524 2946.22,180.555 2946.03,180.488C2945.35,180.089 2944.5,179.941 2943.87,179.71L2943.87,171.726C2944.52,171.587 2945.09,171.086 2945.71,171.087ZM2998.64,171.738C2998.48,171.745 2998.42,171.85 2998.61,172.052C3001.54,174.183 3005.57,176.654 3009.29,175.697C3009.63,175.622 3009.91,175.435 3009.84,175.081C3009.8,174.86 3009.42,174.67 3009.01,174.779C3008.16,175.005 3006.53,175.034 3005.86,174.926C3003.3,174.504 3001.04,172.86 2999.08,171.897C2998.93,171.785 2998.76,171.733 2998.64,171.738L2998.64,171.738ZM2997.78,173.772C2997.65,173.765 2997.66,173.897 2997.74,174.144C2998.16,175.378 3002.3,178.255 3005.58,179.206C3008.39,180.023 3012.42,179.22 3012.19,177.878C3012.07,177.177 3011.55,177.01 3009.76,177.238C3005.81,178.01 3002.01,176.386 2999.13,174.581C2998.35,174.089 2997.95,173.779 2997.78,173.772L2997.78,173.772ZM2971.92,175.461C2973.65,175.44 2975.36,175.581 2977.21,175.89C2980.8,176.508 2984.97,177.629 2988.5,179.272C2994.5,181.535 3002.04,183.281 3008.44,183.045C3010,183.088 3012.82,182.955 3013.37,182.774C3014.79,182.452 3015.19,182.757 3015.53,184.536C3015.59,184.923 3015.71,185.036 3016.2,185.373C3016.96,185.889 3016.83,186.399 3016.74,187.538C3016.66,188.497 3017.24,189.035 3019.55,193.321C3022.18,198.2 3024.74,203.869 3024.74,203.869C3001.7,203.853 2979.72,202.993 2956.14,203.73C2958.26,198.674 2964.05,189.558 2967.67,182.24C2966.79,179.989 2967.87,179.606 2967.42,179.072C2966.69,177.821 2967.22,176.065 2968.77,175.67C2969.85,175.545 2970.89,175.473 2971.92,175.461Z" style="fill:rgb(19,31,103);fill-rule:nonzero;"/>
                <path id="path6353-8" d="M2956.41,203.886C2956.41,203.886 2963.96,188.536 2967.14,183.937C2971.72,178.103 2992.38,186.474 3002.66,188.565C3006.83,189.374 3016.51,188.995 3016.51,188.995L3024.6,203.661L2956.41,203.886ZM2940.74,186.445L2940.41,138.659L2942.78,140.142L2943.32,188.142L2933.1,197.981L2933.05,195.099L2940.74,186.445ZM2946.92,180.992C2949.35,176.067 2946.64,170.051 2946.64,170.054C2948.05,170.404 2951.98,162.897 2952.33,163.114C2958.35,170.538 2959.39,181.601 2952.04,188.457C2950.18,183.692 2946.94,180.992 2946.92,180.992ZM2951.41,147.195C2955.99,142.494 2959.62,138.833 2963.24,133.572C2963.54,133.144 2943.94,108.113 2944.25,107.674C2947.27,104.315 2951.32,101.846 2954.47,97.789C2954.47,97.789 2970.55,118.945 2970.91,118.759C2972.54,112.138 2973.74,106.144 2973.42,99.224C2972.43,81.518 2964.91,70.679 2964.85,70.892C2962.31,87.16 2937.3,111.799 2932.38,110.044L2932.35,98.676C2932.65,99.245 2948.19,88.619 2952.29,74.576C2952.59,73.567 2964.64,69.686 2964.56,69.538C2964.05,68.22 2958.77,60.714 2958.77,60.714C2958.77,60.714 2960.91,59.715 2961.14,59.719C2967.98,68.271 2973.14,79.537 2974.9,90.265C2977.03,101.819 2978.41,123.541 2955.37,147.265L2951.41,147.195ZM3020.48,117.303C3016.88,106.049 3016.98,94.399 3018.64,86.264C3021.16,71.524 3030.43,60.97 3037.86,52.922L3041.08,52.923C3041.08,52.923 3037.23,56.934 3035.83,58.393C3033.42,61.169 3029.93,66.96 3029.93,66.96L3049.16,92.234L3060.12,89.852C3060.12,89.852 3059.79,101.159 3060.13,101.159C3051.61,108.249 3045.49,114.666 3041.1,124.996C3038.4,125.997 3029.47,129.869 3029.47,129.869C3025.23,128.825 3042.11,102.219 3038.9,101.768C3037.57,100.672 3022.94,80.815 3022.65,80.856C3015.9,101.631 3022.49,123.447 3034.36,138.685C3033.01,139.563 3031.79,140.246 3031.9,140.04C3026.82,132.946 3022.36,124.476 3020.49,117.303L3020.48,117.303ZM2985.36,106.887C2986.12,108.071 2989.54,81.533 2980.55,60.291C2981.4,59.639 2988.82,58.212 2988.82,58.212L2990.82,64.572L2985.76,66.727L2986.69,69.708C2990.62,67.792 2999.13,64.964 3004.36,56.223C3004.36,56.223 3029.78,56.004 3030.32,56.049C3030.85,56.094 3025.14,61.599 3019.72,72.744C3017.25,77.835 3015.28,84.422 3014.87,92.15C3014.79,93.678 3009.05,84.971 3009.05,84.971C3010.48,77.614 3014.3,70.372 3018.11,63.13C3018.11,63.13 3012.27,62.796 3008.18,62.916C3001.83,69.896 2997.85,73.575 2988.27,76.909C2991.76,88.16 3013.13,93.567 3008.38,92.539C3007.41,92.309 3006.18,102.882 3007.2,114.795C3007.4,124.321 3012.5,140.201 3012.68,140.073C3012.68,140.073 3009.28,140.842 3009.01,140.295C3009.58,140.156 3003.95,141.589 3003.95,141.589L3001.94,135.67L3007.39,133.151L3006.51,129.81C3006.49,129.812 2994.49,133.461 2988.61,143.984L2962.34,144.014C2972.47,132.956 2976.6,122.02 2978.8,107.56C2980.95,107.948 2985.36,106.887 2985.36,106.887L2985.36,106.887ZM3049.98,11.42C3053.28,8.64 3059.92,1.4 3059.92,1.4L3060,5.109L3052.48,12.98L3052.55,61.573L3050.01,59.119L3049.98,11.42ZM3046.5,29.205C3045.15,29.855 3042.45,33.049 3041.16,36.637C3032.44,28.804 3036.03,14.408 3040.8,11.411C3042.19,14.555 3046.2,18.722 3046.11,18.634C3045.18,21.926 3044.48,25.265 3046.5,29.205ZM2969.31,-3.416L3036.55,-3.297C3032.72,4.297 3029.2,10.437 3025.12,17.913C3023,20.487 2977.08,9.604 2976.86,10.688L2969.31,-3.416Z" style="fill:rgb(226,207,0);fill-rule:nonzero;"/>
                <path id="path6355-9" d="M2932.96,194.213L2932.51,130.409L2940.16,137.875L2940.61,186.874L2932.96,194.213ZM2968.03,181.849C2966.45,182.092 2967.35,180.619 2967.64,179.219C2967.8,178.439 2967.05,177.705 2967.05,177.467C2967.07,176.082 2968.1,175.498 2972.78,175.552C2983.8,176.321 2989.5,179.87 2995.82,181.52C3001.88,183.099 3007.88,183.068 3014.56,182.913C3015.05,183.196 3016.84,187.836 3016.51,188.3C3001.39,191.295 2982.11,180.136 2968.03,181.849ZM2995.28,148.81C2993.68,147.65 2992.19,147.435 2990.71,147.183C2993.3,142.598 2996.44,138.419 3001.68,135.804L3004.12,141.874C3001.04,143.468 2998.01,145.366 2995.28,148.81ZM2963.43,133.047C2963.43,133.047 2961.17,136.766 2959.03,138.575C2952.69,130.015 2938.49,111.792 2938.49,111.792L2932.47,114.858C2932.47,114.858 2932.45,111.33 2932.58,111.084C2948.85,102.653 2960.01,86.72 2964.93,71.8C2964.93,71.8 2967.55,74.487 2967.2,75.624C2962.8,87.394 2955.28,99.196 2944.22,108.048L2963.43,133.047ZM2983.72,115.683L3004.26,115.713L3005.17,122.892C2997.3,125.542 2990.81,130.956 2984.75,137.218L2975,137.047C2978.2,130.01 2982.64,122.872 2983.72,115.683L2983.72,115.683ZM3059.76,85.435C3060.42,87.459 3059.75,89.642 3060.01,89.551C3035.41,101.786 3028.38,128.639 3028.38,128.639C3028.38,128.639 3026.04,124.921 3026.15,124.346C3038.88,95.885 3047.4,95.038 3049.04,91.947L3029.67,66.743L3034.05,60.752L3054.83,87.934C3056.89,86.978 3058.07,86.177 3059.76,85.435ZM3047.63,122.254C3051.8,114.709 3056.11,110.323 3060.39,107.306L3060.18,117.263L3047.63,122.254ZM2932.62,92.642L2932.72,82.982L2945.4,77.498C2941.89,85.178 2937.14,89.294 2932.62,92.642ZM2989.07,83.957L2988.32,77.162C2996.01,73.788 3002.81,69.275 3008.3,63.099C3014.19,62.814 3018.22,63.216 3018.18,63.135C3018.2,63.123 3012.58,71.408 3008.86,84.451L2989.07,83.957ZM3052.8,12.587L3059.81,5.473L3060.03,69.09L3052.99,62.236L3052.8,12.587ZM2991.27,64.288L2989.05,57.993C2992.54,56.676 2995.19,53.807 2997.65,50.966C2999.32,52.47 3001.48,53 3002.23,53.289C3003.25,53.53 2995.14,63.321 2991.27,64.288ZM2978.14,16.614C2978.14,16.614 2977.27,16.105 2977.36,15.389C2977.65,14.461 2976.43,12.359 2976.43,12.359C2991.34,7.81 3013.05,20.612 3025.94,17.919C3025.83,18.824 3025.98,19.903 3025.62,20.757C3026.02,22.57 3026.31,22.628 3024.55,23.736C3015.49,26.312 3005.95,20.819 2997.11,18.193C2989.89,15.907 2984.03,16.49 2978.14,16.614Z" style="fill:rgb(212,0,0);fill-rule:nonzero;"/>
                <path id="path6357-5" d="M2968.54,-4.311L2971.26,0.847L2970.79,1.168C2971.53,2.411 2972.16,3.809 2972.92,5.041L2973.47,4.978C2974.36,6.701 2974.73,7.339 2975.9,9.381L2975.37,9.379C2975.64,10.287 2976.34,10.89 2976.35,11.542C2976.36,12.352 2976.15,13.175 2976.65,13.724C2977.23,14.374 2977.3,14.554 2977.18,14.935C2976.86,15.947 2977.78,17.066 2978.7,16.966C2985.22,16.09 2991.86,16.833 2998.5,18.851C3003.28,20.366 3007.52,22.062 3011.53,23.254C3012.8,23.634 3015.35,24.233 3017.55,24.396C3023.66,24.845 3027.09,23.594 3026.06,21.04C3025.98,20.836 3025.79,20.686 3025.78,20.581C3025.75,20.387 3025.78,20.176 3026.12,19.891C3027.13,18.862 3026.57,18.113 3025.96,16.974C3025.96,16.974 3033.8,2.886 3037.71,-4.133L2968.54,-4.311ZM3036.43,-3.045L3030.71,6.891C3027.65,6.334 3026.93,8.921 3026.89,9.285C3022.91,8.261 3023.52,13.442 3025.52,13.792C3025.65,14.543 3022.25,15.477 3020.46,13.716C3023.21,14.087 3024.18,10.429 3020.83,9.616C3025.25,6.306 3016.95,1.351 3016.85,8.197C3012.94,7.506 3013.45,12.696 3015.93,13.099C3014.66,14.504 3010.93,14.544 3008.99,11.582C3012.3,13.312 3014.09,8.846 3010.65,7.596C3014.9,3.85 3006.58,0.397 3006.78,6.449C3003.64,4.581 3001.49,9.344 3005.67,10.075C3005.43,10.932 2999.95,10.939 2998.56,8.723C3002.45,9.615 3002.62,4.857 2999.2,4.47C3002.64,0.077 2993.9,-2.145 2995.37,3.85C2991.99,2.508 2990.72,6.74 2994,8.1C2994.19,8.773 2988.68,9.346 2986.75,6.916C2990.99,6.278 2989.5,2.153 2986.76,2.483C2986.76,2.483 2986.8,2.364 2986.96,1.963C2988.25,-2.177 2981.29,-2.523 2982.26,1.867C2982.41,2.271 2982.58,2.81 2982.58,2.81C2980.66,2.417 2979.49,3.202 2979.63,5.012C2980.11,7.416 2981.37,7.238 2982.98,6.759C2983.66,7.471 2979.09,9.851 2976.22,7.726C2979.73,6.71 2977.95,2.566 2975.01,3.125C2974.89,1.802 2973.46,-0.053 2971.59,0.852L2969.62,-3.048L3036.43,-3.045ZM3042.19,52.157L3038.05,52.218C3035.15,55.197 3014.14,74.661 3017.68,104.062C3019.19,116.637 3022.68,127.517 3032.02,140.369L3034.52,138.897L3034.9,139.154L3060.77,124.187L3060.78,119.642L3030.75,132.312C3030.16,131.674 3029.81,130.963 3029.3,130.178L3041.34,125.034C3041.34,125.034 3041.63,124.299 3041.72,123.961C3045.68,113.894 3053.71,106.606 3060.71,100.976C3060.68,91.065 3060.63,70.315 3060.63,70.315L3042.53,52.193C3040.21,54.327 3038.16,56.521 3036.1,58.902L3056.87,86.401L3055.03,87.607L3034.47,60.25C3036.91,57.306 3039.55,54.739 3042.19,52.157L3042.19,52.157ZM3060.64,70.036C3060.64,70.036 3060.54,22.823 3060.41,0.025L3060.41,0.025L3049.62,11.148L3049.67,59.004L3060.64,70.036ZM3059.73,4.519L3052.11,12.424L3052.19,61.068L3050.24,59.127L3050.24,11.792L3059.75,1.765L3059.73,4.519ZM2985.59,3.349C2985.82,3.752 2985.72,4.312 2985.36,4.768C2983.8,6.712 2988.69,10.089 2992.21,9.502C2994.89,9.055 2997.18,7.437 2996.19,6.205C2995.39,5.203 2995.91,4.188 2996.88,4.195C2997.87,4.202 2998.66,4.995 2997.81,6.081C2995.89,8.498 2998.81,11.333 3003.27,11.392C3006.42,11.434 3007.47,10.653 3007.3,8.394C3007.22,7.336 3007.43,7.044 3008.16,6.883C3009.33,6.627 3009.92,7.974 3008.95,9.002C3006.86,11.222 3009.23,14.486 3013.19,14.696C3014.64,14.773 3014.93,14.696 3016.55,13.778C3017.81,13.061 3018.25,11.978 3017.64,11.136C3016.84,10.053 3017.91,8.76 3019.15,9.293C3020.04,9.674 3020.47,10.357 3019.49,11.516C3018.21,13.039 3018.82,14.294 3021.3,15.142C3023.23,15.802 3024.57,15.72 3025.47,14.89C3025.76,14.632 3026.38,14.092 3026.37,14.257C3025.76,15.313 3025.22,16.293 3025.22,16.293C3021.18,18.109 3018.02,14.711 3018.12,14.584C3013.95,17.004 3010.25,16.493 3007.13,12.428C3006.32,12.881 3000.5,13.947 2996.3,9.313C2992.07,11.45 2988.13,10.554 2984.63,8.163C2982.04,10.619 2979.31,11.007 2976.48,9.828L2975.64,8.131C2975.85,8.051 2976.77,9.833 2981.2,9.002C2982.69,8.723 2985.25,6.208 2983.82,4.981C2983.16,4.047 2983.14,3.626 2983.72,3.06C2984.29,2.502 2985.26,2.79 2985.59,3.349ZM2974.73,5.574C2974.98,6.056 2975.01,6.857 2974.74,6.376C2974.6,6.122 2973.85,4.989 2973.88,4.954C2974.23,4.925 2974.58,5.287 2974.73,5.574L2974.73,5.574ZM3059.73,5.961L3059.78,68.735L3053.29,62.263L3052.98,13.086L3059.73,5.961ZM2984.61,9.001L2986.65,10.292L2982.99,10.27L2984.61,9.001ZM2996.09,10.081L2997.8,11.756L2994.2,10.996L2996.09,10.081ZM3028.22,10.951L3027.45,12.531C3027.01,12.034 3026.88,10.979 3028.22,10.951ZM3041.18,37.047C3042.48,34.108 3044.23,30.365 3047.05,29.174C3044.95,24.98 3045.22,20.787 3046.71,18.489C3044.58,16.495 3042.39,14.107 3041.04,10.673C3034.31,16.647 3033.23,28.919 3041.18,37.047ZM3040.98,11.821L3041.44,12.968C3035.45,20.343 3037.3,30.024 3041.64,35.191L3041.02,36.492C3035.71,30.866 3033.39,18.974 3040.98,11.821ZM3005.16,15.993C3012.1,18.041 3017.66,21.235 3025.69,18.39L3025.73,19.961C3020.62,23.26 3010.44,19.775 3003.56,17.223C2992.51,13.12 2983.91,13.359 2977.76,13.828C2977.22,13.721 2976.79,12.301 2977.66,12.291C2989.15,12.164 2987.29,10.721 3005.16,15.993L3005.16,15.993ZM3006.73,13.213L3009.01,15.645C3007.29,15.105 3005.63,14.505 3004.08,13.759L3006.73,13.213ZM3041.53,13.813L3041.98,14.433C3042.17,14.701 3040.72,14.84 3040.96,14.526L3041.53,13.813ZM3002.35,18.265C3010.64,21.395 3019.77,24.518 3025.76,21.717C3025.76,21.717 3025.79,22.91 3025.11,23.247C3025.11,23.247 3024.48,23.761 3022.36,24.053C3012.67,24.853 3006.38,20.819 2998.56,18.434C2995.59,17.53 2990.83,16.434 2985.93,16.23C2983.02,16.097 2978.58,16.517 2978.58,16.517C2977.61,16.436 2977.62,15.861 2977.61,15.297C2986.04,14.167 2993.79,15.01 3002.35,18.265ZM3042.43,15.264C3042.54,15.259 3042.65,15.267 3042.76,15.284L3043.6,16.372L3042.6,17.98C3042.6,17.98 3041.71,17.159 3041.26,16.353C3041.01,15.831 3041.68,15.299 3042.43,15.264ZM3018.01,15.57L3020.64,17.563C3018.66,17.66 3016.44,17.734 3014.24,16.856L3018.01,15.57ZM3040.24,16.585C3040.45,16.58 3040.67,16.8 3040.92,17.236C3041.41,18.074 3041.34,18.235 3040.4,18.541C3039.15,18.943 3039.05,18.855 3039.46,17.732C3039.73,16.966 3039.98,16.591 3040.24,16.585ZM3044.23,17.099L3046,18.597C3045.02,21.16 3044.38,24.415 3046.35,29.086C3046.13,29.101 3044.86,30.367 3044.46,30.583C3043.33,30.109 3040.86,20.852 3044.23,17.099ZM3042.21,19.06L3041.76,21.896C3041.72,22.128 3039.8,20.553 3039.98,19.765C3040.32,18.829 3041.49,19.029 3042.21,19.06ZM3039.03,20.056C3039.26,20.057 3039.62,20.624 3040.07,21.365C3040.42,21.943 3040.35,22.161 3039.58,22.864C3038.43,24.025 3038.21,23.646 3038.46,21.671C3038.59,20.695 3038.76,20.054 3039.03,20.056ZM3041.39,22.625C3041.54,22.628 3041.68,22.666 3041.78,22.745L3041.91,25.507C3041.92,25.756 3039.76,25.409 3039.48,24.356C3039.12,23.683 3040.55,22.608 3041.39,22.625ZM3038.54,24.959C3038.7,24.937 3039.18,25.26 3039.64,25.533C3040.43,26.006 3040.45,26.214 3039.76,27.098C3038.96,28.135 3038.56,27.969 3038.44,26.164C3038.39,25.502 3038.34,24.988 3038.54,24.959ZM3041.71,26.016C3041.78,26.016 3041.84,26.036 3041.89,26.082C3042.27,26.41 3042.86,29.178 3042.61,29.467C3042.26,29.878 3040.42,29.331 3040.01,28.681C3039.62,28.062 3041.03,26.016 3041.71,26.016L3041.71,26.016ZM3039.45,29.275C3039.66,29.26 3040.05,29.406 3040.62,29.685C3040.97,29.853 3041.54,30.168 3041.67,30.437C3041.9,30.911 3041.52,31.613 3041.04,32.195C3040.72,32.581 3040.42,32.294 3039.8,31.002C3039.31,29.963 3039.1,29.299 3039.45,29.275ZM3043.17,30.513C3043.21,30.512 3043.25,30.52 3043.28,30.54C3043.91,30.889 3043.8,31.926 3043.06,32.694C3042.17,33.614 3041.4,32.921 3042.02,31.752C3042.41,31.012 3042.87,30.52 3043.17,30.513L3043.17,30.513ZM2991.48,56.267C2990.93,56.292 2990.09,56.785 2989.72,57.262C2989.25,57.866 2988.85,57.787 2988.33,57.743C2987.72,57.734 2986.78,57.87 2985.51,58.452C2984.79,58.781 2984.46,58.855 2983.41,58.909C2982.72,58.944 2982.03,59.037 2981.88,59.118C2981.73,59.199 2981.23,59.373 2980.78,59.505C2979.86,59.776 2980.19,60.039 2980.72,61.231C2983.41,68.154 2985.33,76.22 2986.03,82.79C2986.82,90.327 2986.58,99.468 2985.53,106.448C2982.96,106.465 2981.35,106.333 2978.64,106.378C2976.79,121.473 2971.78,133.46 2961.77,144.239L2988.84,144.309C2991.94,135.991 3006.09,129.647 3006.55,130.115L3007.3,133.151C3007.3,133.151 2997.12,134.614 2990.26,147.604C2990.97,147.178 2993.52,147.474 2995.2,149.233C2998.57,144.94 3004.09,142.135 3004.13,142.201L3004.32,141.684C3004.32,141.684 3005.33,141.337 3006.22,141.167C3006.5,141.112 3007.09,141.002 3007.48,140.865C3008.08,140.653 3008.38,140.429 3009.3,140.509C3011.23,140.694 3013.17,140.131 3013.13,140.121C3007.38,124.186 3006.03,109.801 3008.27,93.092C3010.39,93.108 3015.03,93.188 3015.03,93.188C3015.49,88.493 3016.09,83.796 3017.52,79.363C3019.36,73.672 3021.58,68.381 3025.16,63.544C3027.18,60.506 3028.94,58.344 3031.03,55.496L3004.53,55.558C3001.02,61.484 2994.27,66.434 2988.84,68.496C2986.99,69.194 2986.73,69.091 2986.42,68.217C2985.88,66.656 2985.9,66.722 2987.35,66.307C2987.83,66.169 2989.38,65.351 2991.78,64.215C2996.9,61.605 3000.42,56.825 3002.49,53.598C3003.31,52.324 3002.76,52.612 3001.35,52.599C3000.06,52.497 2999.47,52.097 2998.31,51.011C2997.89,50.61 2997.7,50.325 2997.51,50.348C2996,52.532 2993.46,55.413 2991.48,56.267L2991.48,56.267ZM2997.7,51.222C2998.89,52.504 3000.3,53.254 3002.16,53.498C2999.19,58.189 2995.56,61.856 2991.38,64.086L2989.26,58.085C2994.46,55.65 2995.85,53.211 2997.7,51.222ZM3040.88,53.131C3012.86,79.183 3014.51,112.026 3034.13,138.704L3032.08,139.947C3013.64,115.112 3010.31,78.373 3038.47,53.02L3040.88,53.131ZM3023.22,56.308L3030.09,56.294L3025.41,62.389L3019.13,62.366L3023.22,56.308ZM3022.14,56.359L3018.32,62.416L3008.01,62.549C3001.85,70.194 2995.22,73.923 2988.48,76.468L2987.17,69.94C2987.17,69.94 2997.84,67.351 3004.76,56.276L3022.14,56.359ZM3011.67,56.86L3009.28,59.517L3011.76,62.054L3014.03,59.478L3011.67,56.86ZM3017.08,56.798L3014.66,59.327L3016.55,61.872L3019.05,59.401L3017.08,56.798ZM3005.15,57.259L3004.74,61.237L3007.85,62.263L3008.3,58.862L3005.15,57.259ZM3024.08,57.407L3021.82,60.958L3025.22,61.012L3027.6,57.477L3024.08,57.407ZM2988.52,58.314L2990.73,64.459L2988.79,65.397L2986.83,58.981L2988.52,58.314ZM2985.91,59.3L2988.19,65.656L2986.28,66.288L2984.2,59.672L2985.91,59.3ZM2988.64,84.397C2988.89,93.237 2989.02,98.566 2987.55,106.336C2987.47,106.742 2985.89,106.383 2985.89,106.383C2986.09,106.449 2986.78,97.601 2986.73,92.044C2986.62,81.46 2984.84,70.99 2980.71,60.501C2981.5,60.016 2983.44,59.769 2983.44,59.769C2986.04,67.723 2988.36,76.28 2988.64,84.396L2988.64,84.397ZM2961.13,59.886C2970.17,71.955 2976.64,88.33 2975.56,104.486C2974.52,123.272 2967.44,134.099 2955,147.109L2951.79,147.184C2966.51,132.986 2973.03,120.835 2973.54,104.805C2974.13,86.368 2968.53,74.106 2959.1,61.038L2961.13,59.886ZM2932.19,76.477L2932.22,80.874L2963.04,67.582L2958.6,60.997L2932.19,76.477ZM3004.42,62.077L3001.07,62.248L3001.18,65.653L3004.68,65.567L3004.42,62.077ZM3034.33,61.43L3054.3,87.766L3049.36,91.458L3030.32,66.71L3034.33,61.43ZM3018.68,63.229L3024.65,63.322L3022.34,67.179L3016.56,67.132L3018.68,63.229ZM3017.57,63.324C3014.82,68.465 3011.03,74.326 3008.9,83.799L2989.22,83.816C2989.19,81.653 2988.91,79.49 2988.59,77.327C2997.07,74.206 3003.64,69.541 3008.47,63.375L3017.57,63.324ZM3021.21,63.596L3018.64,65.083L3020.21,66.896L3023.04,65.807L3021.21,63.596ZM2997.79,65.49L2996.94,68.844L3000.13,70.08L3000.72,66.094L2997.79,65.49ZM3016.14,67.996L3021.87,68.031L3019.46,72.881L3013.78,72.795L3016.14,67.996ZM3029.79,67.361L3048.69,91.997L3046.92,93.407L3028.45,69.326L3029.79,67.361ZM3018.31,68.387L3015.73,70.553L3017.67,72.811L3020.06,70.897C3020.11,70.857 3018.31,68.387 3018.31,68.387ZM2993.23,68.565L2992.44,71.827L2995.75,72.714L2996.35,69.216L2993.23,68.565ZM2988.64,70.735L2987.97,73.946L2991.09,74.794L2991.75,71.699L2988.64,70.735ZM2962.85,70.412C2963.01,70.38 2962.33,74.234 2961.32,74.929C2960.84,75.261 2960.6,75.188 2960.18,74.736C2959.89,74.424 2958.59,72.293 2958.59,72.293L2959.7,71.732C2961.05,73.898 2961.05,72.85 2961.56,71.004L2962.85,70.412ZM2957.67,72.632C2958.11,72.629 2958.64,73.179 2959.25,74.244C2960.12,75.784 2960.09,75.884 2958.66,76.328C2956.08,77.013 2955.12,77.178 2955.91,75.468C2956.77,73.627 2957.11,72.637 2957.67,72.632ZM2965.34,72.327L2967.11,75.362C2960.03,93.468 2948.63,106.457 2932.93,114.316L2932.89,111.308C2951.4,100.713 2958.99,88.197 2965.34,72.327L2965.34,72.327ZM3013.42,73.636L3018.99,73.737L3017.5,78.017L3011.58,77.974L3013.42,73.636ZM2956,73.449C2951.47,84.306 2945.28,93.778 2932.9,101.775L2932.85,98.891C2946.75,90.467 2952.76,74.689 2952.76,74.684L2956,73.449ZM3026.35,73.431C3029.64,73.521 3033.11,77.134 3032.76,80.112C3032.51,82.211 3032.91,83.768 3033.48,82.909C3034.73,81.01 3038.43,82.273 3038.4,84.552C3038.38,85.766 3037.57,85.965 3037.11,84.87C3036.43,83.252 3034.51,83.212 3034.22,84.908C3033.96,86.498 3035.3,87.666 3038.88,88.967C3043.08,89.957 3045.61,93.741 3044.11,95.916C3043.59,96.491 3043.28,96.633 3043.18,96.335C3043.16,96.249 3043.05,95.8 3042.96,95.339C3042.48,93.06 3041.39,92.102 3040.08,92.885C3039.41,93.277 3039.5,93.796 3039.88,94.482C3040.4,95.394 3040.08,95.748 3039.16,95.283C3037.7,94.549 3037.22,92.81 3038.63,92.008C3040.3,91.335 3039.74,91.19 3037.6,90.462C3033.04,88.898 3031.09,86.027 3030.85,80.558C3030.94,78.065 3030.6,77.176 3029.43,76.835C3028.37,76.524 3027.16,77.887 3027.92,78.606C3028.34,78.996 3028.68,79.351 3028.46,79.566C3027.75,80.257 3025.98,79.135 3026,77.932C3026.01,77.145 3026.3,76.982 3027.48,76.057C3027.8,75.8 3027.52,75.316 3027.05,75.309C3025.26,75.889 3025.38,73.508 3026.35,73.431L3026.35,73.431ZM3016.03,74.062L3013.25,75.67L3014.7,77.706L3017.78,76.251L3016.03,74.062ZM2961.89,75.642C2962.21,75.642 2962.47,75.902 2962.47,76.223C2962.47,76.545 2962.21,76.808 2961.89,76.808C2961.57,76.808 2961.32,76.545 2961.32,76.223C2961.32,75.902 2961.57,75.642 2961.89,75.642ZM2967.6,75.894C2973.47,88.783 2974.87,103.521 2970.78,118.25L2954.92,97.501C2961,90.612 2965.09,82.725 2967.6,75.894ZM2946.15,76.841L2932,82.82L2931.92,93.49C2939.83,88.064 2943.18,82.509 2946.15,76.841L2946.15,76.841ZM2959.75,76.752C2961.14,76.708 2960.46,80.493 2958.65,81.785C2957.98,82.298 2957.53,82.235 2957.32,81.209C2957.2,80.678 2956.64,79.552 2955.94,78.646C2955.13,77.593 2955.14,77.567 2956.33,77.492C2957.64,77.512 2958.72,76.877 2959.75,76.752ZM2958.37,78.36C2957.34,78.345 2957.03,78.829 2957.65,79.491C2958.16,80.049 2958.57,79.929 2958.92,79.123C2959.13,78.632 2958.94,78.369 2958.37,78.36ZM2932.85,92.202L2932.88,83.145L2944.99,78.021C2942.56,83.313 2938.06,88.559 2932.85,92.202L2932.85,92.202ZM3040.35,99.518L3038.74,101.148L3023.12,80.667L3024.1,78.082L3040.35,99.518ZM2954.74,78.802C2955.26,78.81 2956.45,80.636 2956.78,81.947C2957.03,82.92 2956.77,83.125 2954.93,83.4C2954.17,83.609 2952.12,83.407 2952.29,82.857C2952.58,82.064 2954.55,78.799 2954.74,78.802ZM3011.33,79.011L3017.03,79.073L3015.73,83.775L3009.76,83.686L3011.33,79.011ZM3013.85,79.298L3011.2,81.145L3013.3,83.225L3016.11,81.478L3013.85,79.298ZM3022.8,81.321L3038.6,101.947C3033.88,107.978 3029.18,114.907 3026.09,124.065C3020.46,110.829 3018.4,97.947 3022.8,81.321ZM2958.61,83.076C2958.93,83.076 2959.19,83.335 2959.19,83.657C2959.19,83.978 2958.93,84.241 2958.61,84.241C2958.29,84.241 2958.03,83.978 2958.03,83.657C2958.03,83.335 2958.29,83.076 2958.61,83.076ZM2956.79,83.862C2957.78,83.932 2956.85,87.092 2955.36,88.244C2954.19,89.153 2953.69,88.732 2953.42,87.069C2953.32,86.468 2952.69,85.448 2952.14,84.642C2951.52,83.742 2951.77,83.598 2953.34,83.96C2954.43,84.173 2955.78,83.912 2956.79,83.862ZM3009.61,84.634L3015.59,84.67L3014.66,91.811L3009.61,84.634ZM2951.37,84.965C2952.31,85.848 2953.5,88.946 2952.89,89.169C2952.18,89.428 2948.97,89.053 2948.61,88.681C2948.36,88.424 2948.36,88.423 2948.89,87.716C2949.18,87.327 2949.73,86.552 2950.11,85.992C2950.46,85.583 2950.84,84.475 2951.37,84.965ZM2954.7,85.07C2953.79,85.101 2953.73,85.227 2954.16,86.213C2954.51,87.018 2954.76,87.09 2955.36,86.562C2956.2,85.827 2955.85,85.032 2954.7,85.07ZM3059.61,85.69L3059.83,89.211C3036.85,100.672 3028.25,127.73 3028.12,127.73L3026.45,124.608C3037,98.481 3051.02,90.916 3059.61,85.69ZM2951.35,89.854C2952.71,89.826 2953.11,89.732 2953.11,90.242C2953.12,91.613 2951.85,93.559 2950.29,94.293C2949.24,94.788 2949.22,94.799 2949.1,93.557C2949.01,92.602 2948.7,91.372 2948.21,90.393C2948.05,90.03 2947.46,89.197 2948.21,89.434C2948.95,89.671 2950.49,89.872 2951.35,89.854L2951.35,89.854ZM2954.41,89.536C2954.73,89.536 2954.99,89.795 2954.99,90.117C2954.99,90.438 2954.73,90.698 2954.41,90.698C2954.09,90.698 2953.84,90.438 2953.84,90.117C2953.84,89.795 2954.09,89.536 2954.41,89.536ZM2947.09,90.339C2947.34,90.331 2947.58,90.844 2947.86,91.597C2948.47,93.236 2948.66,94.125 2948.48,94.51C2948.2,95.104 2944.43,94.721 2943.79,94.057C2943.67,94.149 2946.56,90.668 2947.09,90.339ZM2949.81,90.745C2949.27,90.782 2949.55,91.11 2949.95,92.058C2950.23,92.715 2950.61,92.821 2951.04,92.36C2951.61,91.745 2951.69,91.256 2951.33,90.993C2950.79,90.778 2950.4,90.748 2949.81,90.745ZM3059.77,94.307L3059.79,95.486C3058.9,95.218 3058.34,94.837 3057.32,94.496C3056.7,94.284 3056.33,94.134 3056.88,93.472C3057.75,92.434 3058.67,91.786 3059.73,91.143L3059.74,92.479C3058.05,93.23 3058.21,93.924 3059.77,94.307L3059.77,94.307ZM2993.36,93.108L2999.7,93.108L2999.7,97.322L3004.67,97.322L3004.28,102.126L2999.7,102.126L2999.7,106.34L2993.36,106.34L2993.36,102.126L2988.82,102.126L2989.19,97.322L2993.36,97.322L2993.36,93.108ZM3007.69,93.123C3004.48,109.14 3007.43,126.144 3012.39,139.999L3009.88,140.276C3006.02,129.196 3002.95,113.423 3006.07,93.132C3006.07,93.132 3007.19,93.111 3007.69,93.123L3007.69,93.123ZM3054.81,93.434C3055.13,93.434 3055.39,93.693 3055.39,94.015C3055.39,94.336 3055.13,94.596 3054.81,94.596C3054.49,94.596 3054.23,94.336 3054.23,94.015C3054.23,93.693 3054.49,93.434 3054.81,93.434ZM2943.14,94.778C2943.35,94.771 2944,95.051 2944.57,95.211C2945.43,95.452 2946.11,95.556 2946.9,95.572C2948.47,95.602 2948.68,95.588 2948,96.893C2947.51,97.832 2946.41,99.074 2945.64,99.453C2944.55,100.039 2944.13,99.959 2944.2,98.88C2944.2,98.148 2943.89,96.875 2943.48,95.967C2943.16,95.261 2942.79,94.788 2943.14,94.778ZM2949.82,95.292C2950.14,95.292 2950.4,95.552 2950.4,95.873C2950.4,96.195 2950.14,96.458 2949.82,96.458C2949.5,96.458 2949.24,96.195 2949.24,95.873C2949.24,95.552 2949.5,95.292 2949.82,95.292ZM3056.62,95.215C3057.07,95.206 3057.84,95.481 3058.54,95.823C3060.39,96.73 3060.34,96.938 3057.83,98.732C3056,100.126 3055.57,100.282 3055.51,98.086C3055.44,96.235 3055.64,95.236 3056.62,95.215ZM2942.19,95.746C2942.93,95.757 2943.74,99.613 2943.08,99.957C2942.05,100.492 2938.86,99.449 2938.87,98.57C2938.87,98.284 2941.86,95.741 2942.19,95.746ZM3054.4,95.587C3054.84,95.568 3054.9,95.915 3054.86,97.144C3054.84,97.795 3054.95,98.857 3055,99.352C3055.09,100.38 3055.01,100.451 3054.2,99.991C3053.68,99.697 3052.63,99.215 3051.49,99.116C3050.56,99.035 3050.49,98.65 3050.78,98.032C3051.6,96.664 3053.09,95.703 3054.4,95.587ZM2944.92,96.168C2944.28,96.163 2944.44,96.507 2944.84,97.474C2945.12,98.158 2945.61,98.224 2946.11,97.64C2946.82,96.823 2946.68,96.391 2945.66,96.234C2945.44,96.201 2945.07,96.169 2944.92,96.168L2944.92,96.168ZM3053.55,97.086C3053.28,97.111 3052.92,97.324 3052.74,97.439C3052.14,97.819 3051.89,98.094 3052.77,98.395C3053.55,98.664 3053.97,98.781 3053.9,98.105C3053.87,97.698 3053.89,97.107 3053.55,97.086L3053.55,97.086ZM2993.97,97.586L2993.97,101.785L2999.03,101.785L2999.03,97.586L2993.97,97.586ZM3049.04,97.95C3049.36,97.95 3049.62,98.21 3049.62,98.531C3049.62,98.853 3049.36,99.112 3049.04,99.112C3048.72,99.112 3048.46,98.853 3048.46,98.531C3048.46,98.21 3048.72,97.95 3049.04,97.95ZM2954.44,98.605L2970.38,119.182L2969.32,121.865L2952.9,100.142L2954.44,98.605ZM3059.87,98.508L3059.91,101.197C3058.11,102.522 3046.67,110.857 3040.75,124.887L3037.66,126.213C3042.02,114.139 3051.34,103.797 3059.87,98.508L3059.87,98.508ZM2938.6,99.647C2939.63,99.964 2940.62,100.69 2941.6,100.82C2942.73,100.958 2943.12,100.886 2942.81,101.471C2942.13,102.781 2940.84,104.153 2939.48,104.601C2938.51,104.921 2938.05,104.802 2938.2,104.194C2938.49,103.057 2938.54,102.124 2938.5,101.088C2938.65,100.523 2938.17,99.732 2938.6,99.647ZM2937.38,99.887C2938.04,100.456 2937.91,104.052 2937.17,104.826C2936.78,105.23 2935.66,104.861 2933.99,103.904C2932.89,103.278 2932.68,102.896 2933.23,102.513C2934.16,101.946 2936.88,99.752 2937.38,99.887ZM3051.28,99.964C3051.62,99.957 3052.05,100.017 3052.56,100.135C3054.55,100.584 3054.99,101.04 3053.3,102.393C3052.67,102.893 3052.01,103.515 3051.81,103.753C3050.9,104.876 3050.27,104.061 3050.07,102.021C3049.93,100.593 3050.14,99.78 3051.28,99.964ZM3048.79,100.158C3049.11,100.158 3049.32,100.327 3049.31,100.731C3049.3,101.247 3049.67,103.479 3049.88,104.093C3050.24,105.139 3049.98,105.375 3049.12,104.918C3048.49,104.578 3046.83,104.321 3045.93,104.392C3044.91,104.472 3044.94,104.197 3045.24,103.334C3045.77,101.805 3047.82,100.159 3048.79,100.158ZM2939.57,100.902C2939.18,100.9 2939.16,101.427 2939.43,102.633C2939.51,103.017 2939.84,102.993 2940.46,102.556C2941.19,102.038 2941.16,101.713 2940.34,101.215C2940,101.01 2939.74,100.902 2939.57,100.902L2939.57,100.902ZM2944.08,101.033C2944.4,101.033 2944.66,101.293 2944.66,101.614C2944.66,101.936 2944.4,102.195 2944.08,102.195C2943.76,102.195 2943.51,101.936 2943.51,101.614C2943.51,101.293 2943.76,101.033 2944.08,101.033ZM3046.9,103.292C3047.18,103.563 3048.2,103.552 3048.38,103.388C3048.65,103.137 3048.53,101.971 3048.3,101.831C3047.72,101.634 3046.55,102.861 3046.9,103.292ZM2951.21,105.511C2951.56,107.174 2953.89,107.082 2953.62,105.348C2953.47,104.336 2953.44,104.357 2953.94,104.38C2956.34,104.498 2955.93,108.304 2953.16,108.01C2952.58,108.079 2952.51,108.317 2952.99,108.521C2953.48,108.724 2955.34,109.204 2955.62,109.203C2958.63,109.192 2962.98,113.846 2962.87,117.976C2962.8,120.677 2963.71,122.621 2964.64,122.841C2965.38,123.016 2966.46,122.34 2966.36,121.513C2966.24,120.372 2967.16,120.728 2967.69,121.547C2968.5,122.68 2967.45,124.313 2965.52,124.185C2964.7,124.346 2966.13,124.871 2967.18,125.177C2968.14,125.232 2967.33,126.418 2967.15,126.63C2966.61,127.262 2964.84,126.779 2963.45,125.65C2961.74,124.263 2961.01,122.405 2960.8,118.755C2960.68,116.408 2960.5,115.931 2959.82,116.899C2958.6,119.058 2955.68,118.001 2955.32,115.722C2955.11,114.515 2956.17,113.644 2956.51,114.738C2957.42,117.012 2959.63,116.465 2959.27,114.207C2959.03,112.717 2957.55,111.895 2954.62,111.066C2951.1,110.069 2950.05,108.857 2949.37,105.953C2949.07,104.667 2949.11,103.995 2949.79,103.323C2950.12,102.99 2950.55,102.652 2950.55,102.652C2950.55,102.652 2951.02,104.606 2951.21,105.511ZM3043.31,103.668C3043.63,103.668 3043.89,103.928 3043.89,104.249C3043.89,104.571 3043.63,104.83 3043.31,104.83C3042.99,104.83 3042.74,104.571 3042.74,104.249C3042.74,103.928 3042.99,103.668 3043.31,103.668ZM2932.8,104.22C2933.85,104.602 2934.75,105.168 2935.83,105.537C2936.53,105.777 2936.34,106.342 2935.62,107.143C2934.81,108.105 2934.01,108.578 2932.89,109.114L2932.9,107.488C2934.26,107.009 2935.13,105.866 2932.84,105.5L2932.8,104.22ZM3046.04,105.128C3046.44,105.132 3047,105.146 3047.66,105.283C3049.33,105.63 3049.53,105.779 3048.52,106.96C3048.15,107.397 3047.6,108.058 3047.29,108.428C3046.31,109.812 3045.77,109.337 3045.31,107.549C3044.74,105.681 3044.61,104.965 3046.04,105.128ZM2938.04,105.794C2938.36,105.794 2938.62,106.053 2938.62,106.375C2938.62,106.696 2938.36,106.956 2938.04,106.956C2937.72,106.956 2937.46,106.696 2937.46,106.375C2937.46,106.053 2937.72,105.794 2938.04,105.794ZM3044.36,107.059C3044.52,107.649 3044.76,108.4 3044.94,108.932C3045.85,110.943 3045.28,110.166 3043.65,109.988C3042.56,109.869 3040.82,110.052 3040.39,109.749C3040.2,109.504 3040.38,108.858 3040.73,108.13C3041.22,107.104 3042.12,106.23 3042.78,105.834C3044.48,105.047 3044.08,106.047 3044.36,107.059ZM2946.75,106.344L2964.96,130.556L2963.53,132.603L2944.8,107.708L2946.75,106.344ZM3060.87,106.434C3051.41,113.313 3047.77,121.662 3047.03,122.753L3060.91,117.369L3060.87,106.434ZM3042.8,107.223C3042.28,107.367 3041.53,108.335 3041.86,108.714C3042.05,108.913 3042.81,108.939 3043.18,108.804C3043.74,108.596 3043.36,107.22 3042.8,107.223ZM2963,133.408L2959.12,138.324L2938.91,112.034L2944.01,108.331L2963,133.408ZM3059.86,107.857L3060.01,116.893L3048.14,121.869C3052.11,115.117 3056,110.942 3059.86,107.857ZM2978.7,108.623L2983.45,114.847L2977.64,114.715L2978.7,108.623ZM3038.81,109.132C3039.13,109.132 3039.39,109.392 3039.39,109.713C3039.39,110.035 3039.13,110.294 3038.81,110.294C3038.49,110.294 3038.24,110.035 3038.24,109.713C3038.24,109.392 3038.49,109.132 3038.81,109.132ZM3042.3,110.605C3044.47,110.635 3045.2,110.753 3044.57,111.828C3043.72,112.877 3043.22,113.873 3042.3,114.843C3041.77,115.387 3041.11,114.266 3040.55,112.472C3040.11,111.023 3040.33,110.658 3041.18,110.646C3042.03,110.634 3042.18,110.603 3042.3,110.605L3042.3,110.605ZM3039.79,112.565C3039.96,113.137 3040.38,114.078 3040.71,114.653C3041.04,115.227 3041.41,115.865 3041.39,115.977C3041.33,116.246 3041.08,116.267 3040.51,116.05C3039.27,115.488 3036.36,116.082 3036.28,115.805C3035.85,115.186 3036.49,113.495 3037.72,112.325C3038.32,111.753 3038.86,111.381 3039.18,111.375C3039.49,111.37 3039.55,111.81 3039.79,112.565L3039.79,112.565ZM2938.21,112.12L2958.78,138.977L2957.35,140.719L2936.56,113.343C2936.56,113.343 2933.27,114.961 2932.31,115.501L2932.44,129.391L2931.87,129.364L2931.96,199.722L2943.43,188.215L2943.28,140.475C2945.72,142.779 2947.8,145.236 2950.59,147.493L2955.36,147.456C2967.82,134.713 2974.64,123.807 2976.14,104.278C2977.14,91.214 2972.83,74.785 2961.38,58.863L2958.58,60.57L2964.11,68.941L2952.41,74.156C2947.75,84.035 2942.22,93.153 2932.12,98.375L2932.06,111.162L2931.88,111.426L2932.02,115.441L2938.21,112.12ZM3038.76,113.037C3038.21,113.078 3037.36,114.263 3037.75,114.668C3038.21,114.888 3038.92,114.872 3039.22,114.475C3039.42,114.087 3039.37,113.264 3038.76,113.037ZM2977.41,115.803L2983.45,115.838L2981.87,121.048L2975.99,120.936L2977.41,115.803ZM3034.78,115.78C3035.1,115.78 3035.36,116.04 3035.36,116.361C3035.36,116.682 3035.1,116.942 3034.78,116.942C3034.46,116.942 3034.2,116.682 3034.2,116.361C3034.2,116.04 3034.46,115.78 3034.78,115.78ZM3004.01,115.939L3004.79,122.705C2998.2,125.113 2991.1,129.2 2984.89,136.713C2983.83,136.643 2975.36,136.787 2975.36,136.787C2975.57,136.817 2983.21,122.325 2984.09,116.036L3004.01,115.939ZM2980.09,116.569L2977.32,118.482L2979.49,120.803L2982.35,118.85L2980.09,116.569ZM3037.73,116.597C3038.32,116.594 3039.11,116.667 3039.74,116.779C3040.76,116.978 3040.91,116.997 3040.57,117.845C3040.11,118.969 3039.07,120.996 3038.81,121.157C3037.88,121.74 3035.8,117.559 3036.51,116.836C3036.69,116.688 3037.09,116.6 3037.73,116.597ZM3035.08,117.883C3035.35,117.86 3035.71,118.382 3035.81,118.833C3035.94,119.381 3036.88,120.761 3037.48,121.423C3038.22,122.254 3038.18,122.371 3037.11,122.457C3035.84,122.559 3034.6,122.811 3033.88,123.073C3032.76,123.48 3032.61,123.39 3032.76,122.082C3032.97,120.114 3034.28,117.953 3035.08,117.883ZM3034.11,121.954C3034.24,122.335 3035.97,121.636 3036.07,121.178C3036.05,120.973 3035.37,119.786 3034.96,119.732C3034.27,119.841 3033.99,121.415 3034.11,121.954ZM2975.83,121.687L2981.54,121.741L2979.66,126.471L2974.02,126.455L2975.83,121.687ZM2978.38,122.321L2975.65,124.06L2977.78,126.132L2980.4,124.316L2978.38,122.321ZM3036.43,123.178C3036.92,123.174 3037.43,123.22 3037.54,123.399C3037.84,123.901 3036.61,126.708 3036.61,126.708L3034.59,127.51C3034.16,126.615 3033.42,125.684 3033.24,124.714C3033.17,124.29 3033.38,124.135 3033.85,123.872C3034.54,123.48 3035.62,123.186 3036.43,123.178ZM3031.04,123.408C3031.36,123.408 3031.62,123.667 3031.62,123.989C3031.62,124.31 3031.36,124.57 3031.04,124.57C3030.72,124.57 3030.46,124.31 3030.46,123.989C3030.46,123.667 3030.72,123.408 3031.04,123.408ZM3005.01,123.488C3005.01,123.488 3006.24,130.497 3006.31,129.725C2996.79,133.33 2991.22,138.651 2988.59,143.841L2970.72,143.828L2974.71,137.607L2985.28,137.554C2990.39,131.317 2996.7,126.342 3005.01,123.488L3005.01,123.488ZM3002.72,125.138L3001.84,127.97L3004.51,129.682L3005.52,126.641L3002.72,125.138ZM3031.98,125.193C3032.21,125.172 3032.43,125.555 3032.89,126.375C3033.23,126.98 3033.68,127.86 3033.68,127.86L3032.88,128.159C3032.23,125.945 3031.64,126.768 3031.57,128.722L3030.48,129.16C3030.48,129.16 3030.6,127.277 3031.22,126.177C3031.58,125.545 3031.78,125.212 3031.98,125.193ZM2973.76,127.129L2979.3,127.199L2976.98,132.022L2971.36,131.867L2973.76,127.129ZM2997.91,127.517L2997.47,131.096L3000.45,131.731L3000.86,128.33L2997.91,127.517ZM2976.12,127.559L2973.38,129.337L2975.18,131.712L2977.81,129.934L2976.12,127.559ZM2993.63,130.693L2993.06,133.989L2995.86,134.629L2996.5,131.313L2993.63,130.693ZM2932.86,130.887L2939.86,137.863L2940.24,186.534L2933.28,193.553L2932.86,130.887ZM2970.93,132.669C2970.91,132.707 2976.52,132.83 2976.52,132.83L2974.27,136.904L2972.36,136.817L2974.88,135.086L2973.26,133.006L2970.67,134.706L2972.11,136.809L2968.33,136.728L2970.93,132.669ZM3007.04,133.874L3008.94,140.189L3006.65,140.588L3004.93,134.646C3005.64,134.282 3006.34,134.102 3007.04,133.874ZM2989.08,134.268L2989.12,138.057L2992.17,138.316L2992.29,134.764L2989.08,134.268ZM3004.25,134.873L3005.98,140.873L3004.53,141.288L3002.46,135.592C3003.03,135.254 3003.62,135.007 3004.25,134.873ZM3001.6,136.111L3003.83,141.986C3000.75,143.244 2997.55,145.938 2995.14,148.627C2993.35,147.307 2992.3,147.169 2991.2,146.87C2994.24,141.178 2997.83,138.189 3001.6,136.111ZM2967.88,137.584L2973.75,137.762L2969.66,143.894L2963.03,143.886L2967.88,137.584ZM2985.35,137.813L2984.97,141.399L2988.11,143.266L2988.59,139.583L2985.35,137.813ZM2981.57,138.316L2979.33,140.691L2981.7,143.414L2983.88,140.571L2981.57,138.316ZM2976.57,138.44L2973.92,140.888L2976.03,143.658L2978.45,140.873L2976.57,138.44ZM2942.76,140.724L2943.02,188.272L2933.27,197.775L2933.19,195.217L2940.95,187.077C2940.95,170.994 2940.9,154.911 2940.85,138.828L2942.76,140.724ZM2968.7,139.188L2966.01,142.879L2969.2,142.887L2971.52,139.312L2968.7,139.188ZM2952.1,162.196C2951.03,166.038 2946.14,170.205 2946.05,170.135C2948.48,173.627 2948.39,178.607 2946.26,181.061C2946.27,181.005 2950.15,184.249 2950.7,185.933C2951.01,186.604 2951.13,187.421 2951.52,188.087C2951.62,188.263 2951.95,188.702 2951.95,188.702C2961.44,179.023 2956.92,167.68 2952.1,162.196ZM2952.24,163.201C2961.45,174.699 2955.38,185.223 2952.16,188.159L2951.55,187.139C2958.4,179.135 2955.49,169.303 2951.51,164.648L2952.24,163.201ZM2951.24,165.439C2951.3,165.625 2951.66,166.167 2951.39,166.132L2950.93,166.039L2951.24,165.439ZM2951.17,166.721C2951.37,166.721 2951.54,166.783 2951.63,166.922C2951.82,167.236 2950.87,169.88 2950.28,169.264C2950.1,168.915 2949.89,168.612 2949.73,168.25C2949.53,167.819 2949.66,167.611 2950.1,167.182C2950.4,166.886 2950.84,166.721 2951.17,166.721ZM2952.5,167.437C2952.96,167.474 2953.62,168.948 2953.69,170.002C2953.72,170.111 2952.11,169.754 2951.69,169.262C2951.74,168.83 2952.14,167.733 2952.5,167.437ZM2948.89,168.641C2951.67,174.251 2951.49,178.633 2949.05,182.662L2947.14,181.016C2948.42,177.952 2949.06,174.682 2946.89,170.518L2948.89,168.641ZM2950.76,170.044C2950.95,170.027 2951.55,170.116 2952.07,170.284C2953.93,170.881 2954,172.103 2952.21,173C2951.47,173.371 2951.24,173.207 2950.81,171.338C2950.6,170.414 2950.44,170.072 2950.76,170.044L2950.76,170.044ZM2954.35,172.194C2954.71,172.192 2954.87,172.873 2954.91,174.046C2954.96,175.16 2954.72,175.247 2953.83,174.452C2952.87,173.593 2952.7,173.389 2953.58,172.682C2953.84,172.475 2954.19,172.195 2954.35,172.194ZM2951.82,174.034C2951.99,174.019 2952.51,174.347 2953.01,174.731C2954.28,175.704 2954,176.372 2952.55,176.842C2951.55,177.168 2951.6,177.209 2951.63,175.471C2951.64,174.611 2951.59,174.054 2951.82,174.034ZM2968.63,175.617C2967.08,176.012 2966.43,177.402 2966.94,178.654C2967.18,179.222 2967.53,179.227 2967.11,179.575C2966.65,180.115 2966.4,181.365 2966.91,181.82C2967.52,182.168 2967.67,181.568 2967.04,182.743L2955.36,204.308L3025.44,204.178L3017.02,188.314C3017.03,188.292 3017.69,185.697 3016.34,185.384C3015.91,185.284 3015.66,184.88 3015.57,184.492C3015.68,183.389 3015.18,182.919 3014.76,182.349C3008.1,183.295 3002.32,182.824 2997.54,181.743C2990.65,180.185 2985.73,177.489 2982.53,176.642C2978.12,175.474 2972.79,174.966 2968.63,175.617ZM2972.4,175.765C2977.83,175.733 2983.91,177.404 2988.16,179.255C2992.58,181.089 2997.25,182.455 3001.98,183.156C3005.88,183.649 3009.76,183.401 3013.49,183.104C3013.9,183.042 3014.32,183.098 3014.63,183.423C3015.4,184.287 3014.87,184.828 3012.94,185.008C3009.84,185.265 3005.99,185.155 3002.57,184.64C2997.16,184.015 2991.43,182.371 2986.49,180.309C2980.3,177.977 2974.63,177.196 2970.14,177.884C2967.68,178.262 2967.32,178.321 2967.33,177.656C2967.35,176.357 2968.41,175.764 2972.4,175.765L2972.4,175.765ZM2954.61,179.53C2954.37,180.08 2952.68,178.28 2952.7,177.772C2952.74,177.548 2954.1,176.651 2954.65,176.286C2954.91,176.084 2954.89,176.189 2954.89,176.427C2954.9,177.105 2954.85,178.857 2954.61,179.53ZM2952.01,178.202C2952.79,178.307 2954.07,180.423 2952.94,180.751C2951.94,181.041 2951.03,181.228 2950.91,180.554C2951.43,178.899 2951.62,178.244 2951.92,178.206C2951.95,178.202 2951.98,178.202 2952.01,178.202L2952.01,178.202ZM2997.33,185.427C3002.3,186.292 3008.83,186.81 3013.1,186.474C3015.54,186.227 3016.06,186.306 3016.04,187.332C3016.03,187.974 3016.1,187.959 3012.95,187.955C3010.32,188.131 3007.96,187.848 3005.42,187.716C3000.16,187.454 2995.39,186.548 2990.98,185.008C2986.08,183.731 2981.84,181.277 2977.05,180.77C2972.65,180.337 2968.7,181.119 2967.87,181.582C2967.6,181.578 2967.45,181.166 2967.47,180.786C2967.48,180.414 2967.62,180.115 2967.93,179.878C2980.52,176.683 2987.27,183.526 2997.33,185.427ZM2953.66,181.196C2954.08,181.201 2953.94,181.825 2953.26,183.148C2952.67,184.273 2952.44,184.267 2952.11,183.113C2951.76,181.881 2951.79,181.745 2952.49,181.564C2952.91,181.465 2953.25,181.248 2953.66,181.196L2953.66,181.196ZM2950.72,181.824C2951.21,181.831 2951.91,184.071 2951.55,184.492C2951.27,184.826 2950.24,184.6 2949.94,184.206C2949.46,183.573 2950.08,181.814 2950.72,181.824ZM2972.73,182.429C2974.69,182.409 2976.63,182.619 2978.42,182.929C2977.39,183.312 2976.37,183.665 2975.3,184.287C2974.56,183.648 2973.72,183.026 2972.73,182.429ZM2975.27,185.148C2982.18,181.277 2985.09,186.621 2986.09,187.483C2992.12,186.139 2993.3,186.801 2996.67,190.459C3002.71,187.488 3005.64,190.014 3008.17,191.612C3011.13,188.831 3014.88,188.754 3016.83,190.15C3017.2,190.765 3017.71,191.546 3017.75,191.779C3017.78,191.96 3017.51,191.749 3016.83,191.26C3013.28,188.706 3007.39,191.886 3008.96,195.253C3009.38,196.16 3009.32,196.551 3008.68,196.915C3007.78,197.527 3006.68,196.511 3007.3,195.474C3008.35,193.742 3007.56,192.293 3005.02,190.954C3001.43,189.066 2995.56,191.18 2996.77,193.963C2997.54,194.852 2996.83,195.479 2995.81,195.447C2994.65,195.411 2994.26,194.634 2995,193.804C2995.92,192.745 2995.68,191.67 2994.61,190.447C2991.38,185.83 2984.86,187.66 2985.73,191.706C2986.1,192.711 2985.03,193.116 2983.91,192.67C2983.2,192.385 2983.3,191.278 2984.08,190.888C2984.98,190.796 2985.11,189.491 2985,188.653C2984.84,187.433 2983.05,186.231 2981.28,185.594C2980,185.133 2978.82,185.034 2977.88,185.12C2975.89,185.302 2974.79,186.656 2975.11,188.684C2975.31,189.88 2974.97,191.121 2973.58,190.463C2972.81,190.103 2973.01,189.233 2973.78,188.432C2976.53,185.737 2971,182.458 2967.67,184.717C2967.1,185.185 2966.69,185.266 2966.69,185.266C2968.78,180.029 2975.33,184.934 2975.27,185.148ZM2984.36,184.442L2988.53,186.021C2987.57,186.212 2986.89,186.484 2986.21,186.756L2984.36,184.442ZM2973.48,186.145C2969.63,185.412 2969.42,189.735 2971.93,190.44C2968.48,195.205 2977.51,197.055 2975.85,191.175C2980.43,192.004 2979.6,186.767 2976.2,186.815C2976.99,184.864 2983.28,186.343 2983.01,187.792C2978.76,188.245 2980.45,192.136 2982.29,192.14C2977.85,196.368 2986.74,200.266 2986.5,193.893C2990.07,194.646 2990.49,189.887 2987.06,189.574C2988.32,187.798 2992.8,188.917 2994.04,190.948C2990.5,191.42 2990.72,194.546 2993.49,195.05C2989.98,199.544 2998.62,201.204 2997.72,195.981C3000.82,197.051 3002.52,192.899 2998.51,191.712C3002.61,189.251 3007.07,192.919 3006.59,192.994C3001.9,192.715 3002.84,197.438 3006.23,197.181C3004.07,202.086 3012.62,202.359 3010.45,197.272C3014.3,197.343 3013.96,192.861 3010.28,192.562C3012.6,190.861 3015.21,190.712 3016.9,192.303C3013.39,193.231 3014.85,197.33 3018.38,196.195C3018.7,199.625 3021.47,198.897 3021.54,198.794L3024.02,203.45L2956.78,203.558L2962.52,192.907C2965.91,193.082 2965.79,189.798 2965.64,189.718C2967.9,191.337 2970.32,187.312 2967.02,186.158C2969.72,183.321 2973.72,185.941 2973.48,186.145L2973.48,186.145ZM2951.59,185.848C2951.45,185.993 2951.41,186.079 2951.18,185.864C2950.59,185.189 2952.19,185.133 2951.59,185.848ZM2965.49,187.632C2965.79,187.876 2965.58,188.544 2965.34,188.772C2964.74,189.425 2964.53,189.373 2965.07,188.246C2965.22,187.905 2965.37,187.629 2965.49,187.632ZM2994.95,187.934L2998.44,188.784L2996.78,189.726C2996.17,189.056 2995.58,188.477 2994.95,187.934ZM3005.88,189.35L3009.68,189.594C3009.17,189.938 3008.68,190.257 3008.07,190.884C3007.59,190.373 3006.68,189.861 3005.88,189.35ZM3018.54,193.249C3018.75,193.692 3019.59,195.234 3019.51,195.275C3018.28,195.49 3017.95,193.65 3018.54,193.249Z" style="fill:rgb(16,15,8);fill-rule:nonzero;"/>
                <path id="path12536" d="M2955.05,40.2C2950.9,33.348 2946.54,26.689 2941.08,21C2946.54,15.311 2950.9,8.652 2955.05,1.8C2959.2,8.652 2963.57,15.311 2969.02,21C2963.57,26.689 2959.2,33.348 2955.05,40.2Z" style="fill:rgb(212,0,0);fill-rule:nonzero;"/>
                <path id="path12538" d="M2921.1,31.623C2919.37,28.768 2917.55,25.993 2915.28,23.623C2917.55,21.252 2919.37,18.478 2921.1,15.623C2922.83,18.478 2924.65,21.252 2926.92,23.623C2924.65,25.993 2922.83,28.768 2921.1,31.623Z" style="fill:rgb(212,0,0);fill-rule:nonzero;"/>
                <path id="path12540" d="M3037.51,160.547C3033.36,167.399 3028.99,174.058 3023.54,179.747C3028.99,185.435 3033.36,192.095 3037.51,198.947C3041.66,192.095 3046.02,185.435 3051.48,179.747C3046.02,174.058 3041.66,167.399 3037.51,160.547Z" style="fill:rgb(212,0,0);fill-rule:nonzero;"/>
                <path id="path12542" d="M3071.46,169.114C3069.73,171.969 3067.91,174.744 3065.64,177.114C3067.91,179.485 3069.73,182.26 3071.46,185.114C3073.19,182.26 3075.01,179.485 3077.28,177.114C3075.01,174.744 3073.19,171.969 3071.46,169.114Z" style="fill:rgb(212,0,0);fill-rule:nonzero;"/>
                <path id="path12544" d="M2921.74,10.206L2924.39,10.206L2920.49,0.458L2917.51,4.576L2917.53,10.206L2919.62,10.206L2919.62,13.11L2912.25,13.11L2912.25,10.206L2914.68,10.206L2914.68,-10.757L2912.25,-10.748L2912.25,-13.286L2919.73,-13.286L2919.73,-10.662L2917.67,-10.662L2917.62,-0.445L2924.16,-10.748L2921.85,-10.748L2921.85,-13.286L2929.82,-13.286L2929.82,-10.748L2927.71,-10.748L2922.33,-2.328L2927.6,10.211L2929.94,10.211L2929.95,13.114L2921.76,13.114L2921.74,10.206L2921.74,10.206Z" style="fill:rgb(212,0,0);fill-rule:nonzero;"/>
                <path id="path12546" d="M3070.82,190.531L3068.17,190.531L3072.07,200.279L3075.05,196.161L3075.03,190.531L3072.94,190.531L3072.94,187.627L3080.31,187.627L3080.31,190.531L3077.88,190.531L3077.88,211.494L3080.31,211.485L3080.31,214.023L3072.83,214.023L3072.83,211.399L3074.89,211.399L3074.94,201.182L3068.4,211.485L3070.71,211.485L3070.71,214.023L3062.75,214.023L3062.75,211.485L3064.85,211.485L3070.23,203.065L3064.96,190.526L3062.62,190.526L3062.61,187.623L3070.8,187.623L3070.82,190.531L3070.82,190.531Z" style="fill:rgb(212,0,0);fill-rule:nonzero;"/>
            </g>
        </g>
    </g>
</svg>
