<?xml version="1.0" encoding="UTF-8" standalone="no"?>
<!DOCTYPE svg PUBLIC "-//W3C//DTD SVG 1.1//EN" "http://www.w3.org/Graphics/SVG/1.1/DTD/svg11.dtd">
<svg width="100%" height="100%" viewBox="0 0 183 253" version="1.1" xmlns="http://www.w3.org/2000/svg" xmlns:xlink="http://www.w3.org/1999/xlink" xml:space="preserve" xmlns:serif="http://www.serif.com/" style="fill-rule:evenodd;clip-rule:evenodd;">
    <g transform="matrix(1,0,0,1,-2572,-34)">
        <g transform="matrix(1,0,0,1,-328,1179.11)">
            <g id="king_clubs" transform="matrix(0.999997,0,0,1,-4.77514,-272.411)">
                <path id="rect6355-6-85-3-64-3-5" d="M3085.17,-862.192C3085.17,-866.885 3081.36,-870.696 3076.67,-870.696L2915.89,-870.696C2911.2,-870.696 2907.39,-866.885 2907.39,-862.192L2907.39,-630.549C2907.39,-625.855 2911.2,-622.045 2915.89,-622.045L3076.67,-622.045C3081.36,-622.045 3085.17,-625.855 3085.17,-630.549L3085.17,-862.192Z" style="fill:white;stroke:black;stroke-width:0.8px;"/>
                <path id="path147-6-9-8-7-0-5-6-9-6-3" d="M3071.46,-661.895C3074.59,-661.966 3075.99,-665.634 3073.68,-668.483C3073.34,-668.899 3073.31,-669.137 3073.92,-668.738C3075.48,-667.652 3078.47,-668.366 3078.62,-671.687C3078.81,-675.779 3073.32,-676.958 3072.29,-672.607C3072.24,-672.148 3071.88,-672.158 3071.97,-672.81C3072.06,-674.579 3072.59,-676.232 3073.32,-677.844L3069.6,-677.844C3070.33,-676.232 3070.86,-674.579 3070.96,-672.81C3071.04,-672.158 3070.68,-672.148 3070.63,-672.607C3069.6,-676.958 3064.11,-675.779 3064.3,-671.687C3064.45,-668.366 3067.44,-667.652 3069,-668.738C3069.62,-669.137 3069.58,-668.899 3069.25,-668.483C3066.93,-665.634 3068.33,-661.966 3071.46,-661.895C3071.46,-661.895 3071.46,-661.895 3071.46,-661.895L3071.46,-661.895Z" style="fill-rule:nonzero;"/>
                <path id="path147-6-9-8-7-4-5-62-08-0-2" d="M2921.1,-830.845C2917.97,-830.774 2916.57,-827.106 2918.89,-824.257C2919.22,-823.842 2919.26,-823.603 2918.64,-824.002C2917.08,-825.089 2914.09,-824.374 2913.94,-821.053C2913.75,-816.961 2919.24,-815.782 2920.27,-820.133C2920.32,-820.592 2920.68,-820.582 2920.59,-819.93C2920.5,-818.161 2919.97,-816.508 2919.24,-814.896L2922.96,-814.896C2922.23,-816.508 2921.7,-818.161 2921.61,-819.93C2921.52,-820.582 2921.88,-820.592 2921.93,-820.133C2922.96,-815.782 2928.45,-816.961 2928.26,-821.053C2928.11,-824.374 2925.12,-825.089 2923.56,-824.002C2922.94,-823.603 2922.98,-823.842 2923.32,-824.257C2925.63,-827.106 2924.23,-830.774 2921.1,-830.845L2921.1,-830.845Z" style="fill-rule:nonzero;"/>
                <path id="path39-7-2-1" d="M2921.73,-836.244L2924.38,-836.244L2920.49,-845.961L2917.53,-841.856L2917.55,-836.244L2919.63,-836.244L2919.63,-833.349L2912.29,-833.349L2912.29,-836.244L2914.71,-836.244L2914.71,-857.14L2912.29,-857.131L2912.29,-859.661L2919.74,-859.661L2919.74,-857.045L2917.68,-857.045L2917.64,-846.861L2924.14,-857.131L2921.85,-857.131L2921.85,-859.661L2929.78,-859.661L2929.78,-857.131L2927.68,-857.131L2922.33,-848.738L2927.57,-836.24L2929.9,-836.24L2929.91,-833.345L2921.76,-833.345L2921.73,-836.244L2921.73,-836.244Z" style="fill-rule:nonzero;"/>
                <path id="path39-3-8-1-1" d="M3070.83,-656.496L3068.18,-656.496L3072.07,-646.779L3075.03,-650.884L3075.01,-656.496L3072.93,-656.496L3072.93,-659.391L3080.27,-659.391L3080.27,-656.496L3077.85,-656.496L3077.85,-635.6L3080.27,-635.609L3080.27,-633.079L3072.82,-633.079L3072.82,-635.695L3074.88,-635.695L3074.92,-645.88L3068.42,-635.609L3070.71,-635.609L3070.71,-633.079L3062.78,-633.079L3062.78,-635.609L3064.88,-635.609L3070.23,-644.002L3064.99,-656.501L3062.66,-656.501L3062.65,-659.395L3070.8,-659.395L3070.83,-656.496L3070.83,-656.496Z" style="fill-rule:nonzero;"/>
                <g transform="matrix(0.153078,-0.00319028,0.00316097,0.154479,2923.24,-770.885)">
                    <g id="g5429-3-1-8">
                        <g id="KC">
                            <g id="KC-7-1-9">
                                <g id="g3440-6-4-8">
                                    <g id="g3454-7-1-1">
                                        <g id="path3450-5-0-3" transform="matrix(0.999573,0.0206431,-0.020645,0.999787,-3096.07,-386.227)">
                                            <path d="M3837.97,-189.85L3410.97,-187.775L3465.2,-85.05C3576.18,-95.031 3673.43,-86.155 3774.75,-82.85L3837.97,-189.85ZM3546.35,171.325C3545.91,171.923 3528.59,176.396 3530.35,180.325C3575.57,277.125 3595.76,355.89 3614.65,455.375C3624.2,447.628 3639.64,447.94 3639.64,447.94C3632.02,410.996 3678.6,406.389 3678.9,445.04C3687.84,447.114 3697.04,447.145 3705.11,456.175C3708.74,347.458 3747.76,234.973 3798.15,157.032C3740.72,179.754 3656.47,236.388 3656.47,236.388C3656.47,236.388 3586.36,207.436 3546.35,171.325ZM3895.38,182.9C3818.95,255.432 3789.04,456.775 3794.53,459.55C3696.02,456.264 3666.16,564.833 3751.55,623.375C3748.18,634.73 3739.84,643.968 3733.38,654C3742.18,659.042 3751.8,660.119 3761.4,661.175C3768.69,669.812 3775.86,679.779 3783.78,680.6C3792.37,675.189 3798.47,667.271 3805.62,660.425C3814.55,658.155 3823.41,655.642 3831.88,651.775C3824.37,641.31 3815.48,630.729 3815.25,620.925C3889.49,568.602 3879.3,497.448 3812.38,461.025C3832.31,341.201 3861.4,264.657 3895.15,210.225L3895.38,182.9ZM3369.05,275.475C3359.34,280.211 3354.05,290.207 3347,298.05C3337.33,298.49 3328.01,301.794 3318.8,305.9C3318.8,305.9 3340.95,336.48 3339.58,338.125C3267.77,385.139 3268.35,453.859 3337.3,499.125C3348.98,596.926 3265.85,751.698 3261.65,747.2L3261.5,779.2C3320.66,714.56 3354.45,597.804 3357.83,503.525C3475.98,495.662 3480.16,381.548 3398.83,338.625C3392.57,332.893 3419.28,306.375 3419.28,306.375C3412.5,299.702 3401.16,298.945 3391.22,298.125C3384.96,290.641 3379.5,283.179 3369.05,275.475ZM3868.78,354.45C3885.48,391.597 3946.51,346.335 3957.1,366.1C3965.7,377.31 3984.42,378.458 3983.4,359.575C3979.88,340.873 3967.57,336.728 3918.7,344.875C3900.16,347.966 3892.56,349.796 3892.68,341.35C3879.85,325.875 3868.85,346.925 3868.78,354.45ZM3925.46,408.658C3911.76,408.645 3909.43,462.197 3909.62,478.275C3869.96,540.896 3991,533.777 3938.65,465.559C3940.47,456.645 3931.98,442.111 3932.21,435.684C3927.92,435.139 3926.04,410.959 3925.46,408.658ZM3217,489.425C3215.74,505.622 3227.62,554.778 3232.03,553.111C3247.54,528.141 3245.69,506.783 3244.09,482.397C3281.03,411.336 3154.86,440.502 3217,489.425ZM3447.3,500.85C3441.79,605.445 3416.15,708.068 3358.07,797.062C3408.07,773.765 3456.59,743.706 3503.55,717.975L3613.28,785.876C3619.64,783.119 3624.04,781.762 3628.25,777.6C3577.68,703.663 3562.03,597.245 3540,500.975C3531.62,506.916 3515.85,509.9 3515.85,509.9C3514.72,543.291 3479.69,554.113 3472.53,510.564L3447.3,500.85ZM3182.45,582.45C3170.74,583.191 3161.94,612.16 3195.1,616.45C3218.5,619.758 3248.46,608.242 3263.33,613.575C3280.61,641.131 3296.12,600.568 3273.03,593.95C3248.22,586.841 3197.69,605.386 3192.1,589.625C3189.23,584.243 3185.73,582.243 3182.45,582.45ZM3381.47,1035.5L3315.28,1152.4L3738.53,1149.85L3683.2,1038.35C3684.15,1037.11 3498.34,1060.43 3381.47,1035.5Z" style="fill:rgb(226,207,0);fill-rule:nonzero;"/>
                                        </g>
                                        <g id="path3446-6-3-4" transform="matrix(0.999768,0.00612235,-0.00612732,0.999981,-3103.61,-334.787)">
                                            <path d="M3479.74,-74.927L3487.91,-59.592C3587.27,-74.484 3665.37,-75.899 3767.63,-54.599L3777.23,-70.308C3683.87,-88.532 3588.5,-96.884 3479.74,-74.927ZM3569.92,155.545L3655.61,212.75C3655.61,212.75 3697.46,184.085 3715.3,171.958L3704.81,156.061C3667.05,236.169 3603.67,171.461 3580.11,133.168C3580.11,133.168 3573.35,147.77 3569.92,155.545ZM3801.87,185.988C3807.86,185.948 3811.15,188.305 3814.08,194.45C3817.38,201.388 3818.7,199.709 3816.64,191.086C3813.39,177.49 3827.9,168.884 3841.33,178.125C3851.02,184.798 3850.36,200.593 3839.62,203.366C3830.95,205.604 3830.69,207.867 3838.29,207.608C3851.91,207.143 3855.27,225.356 3845.45,234.097C3834.16,244.146 3820.07,236.702 3818.96,223.878C3818.42,220.248 3817.65,220.288 3816.43,222.321C3812.9,228.18 3812.47,235.857 3813.04,242.822L3793.11,230.053C3800.32,226.613 3804.72,224.535 3809.97,219.233C3810.66,218.542 3811.17,218.036 3811.17,217.729C3811.17,217.183 3808.93,217.882 3804.83,218.25C3792.65,219.34 3783.42,211.328 3786.08,199.925C3788.34,190.223 3793.44,186.053 3801.87,185.988ZM3708.58,500.318C3730.83,475.609 3758.23,459.94 3795.96,462.735C3802.28,357.937 3840.01,265.214 3899.48,182.05L3835.96,142.599L3810.02,157.734C3749.53,244.928 3707.46,355.243 3708.58,500.318ZM3231.85,248.298C3231.85,248.298 3188.01,280.153 3167.62,295.55L3164.4,584.725L3169.97,586.725C3170.37,587.348 3169.55,582.43 3172.15,580.225C3174.28,578.422 3177.64,576.39 3179.62,575.7C3185.23,573.752 3185.53,570.039 3180.38,566.75C3176.37,564.199 3174.89,560.323 3175.45,553.925C3175.84,549.41 3175.66,548.421 3173.83,545.325C3171.54,541.477 3171.41,536.65 3173.47,531.675C3174.43,529.364 3174.35,528.738 3172.75,525.575C3170.71,521.548 3170.52,517.239 3172.15,512.625C3172.77,510.861 3173.26,506.992 3173.25,504C3173.2,492.48 3182.83,484.978 3200.43,482.825C3207.3,481.983 3207.52,481.703 3204.45,475.9C3187.14,443.159 3227.34,426.814 3230.26,432.057L3231.85,248.298ZM3778.88,272.375C3795.11,272.375 3808.28,285.515 3808.28,301.75C3808.28,317.985 3795.11,331.15 3778.88,331.15C3762.64,331.15 3749.47,317.985 3749.47,301.75C3749.47,285.515 3762.64,272.375 3778.88,272.375ZM3779.08,277.625C3766.08,277.625 3755.55,288.151 3755.55,301.15C3755.55,314.149 3766.08,324.7 3779.08,324.7C3792.07,324.7 3802.62,314.149 3802.62,301.15C3802.62,288.151 3792.07,277.625 3779.08,277.625ZM3779.58,285.1C3788.39,285.1 3795.55,292.235 3795.55,301.05C3795.55,309.865 3788.39,317.025 3779.58,317.025C3770.76,317.025 3763.62,309.865 3763.62,301.05C3763.62,292.235 3770.76,285.1 3779.58,285.1ZM3195.95,288.7C3197.15,288.696 3198.42,288.896 3199.7,289.325C3206.99,291.759 3209.46,298.245 3205.4,304.3C3202.21,309.056 3202.57,309.473 3208.05,307.525C3212.36,305.993 3214.54,306.528 3217.88,309.925C3227.87,320.111 3212.53,336.769 3202.75,326.4C3197.91,321.265 3197.42,322.75 3200.7,331.5C3201.76,334.332 3203.52,338.736 3203.52,338.736L3188.97,338.313C3188.97,338.313 3191.32,332.544 3192.4,329.825C3195.01,323.267 3195.11,322.303 3189.8,326.375C3177.82,335.557 3164.63,319.357 3175.68,309.05C3177.92,306.954 3181.48,306.909 3186.4,308.925C3189.98,310.394 3190.43,309.415 3187.78,305.975C3181.99,298.492 3187.58,288.727 3195.95,288.7ZM3497.23,318.994C3490.75,357.66 3495.12,412.115 3494.57,441.173C3510.31,444.409 3510.33,455.161 3512.56,468.557C3520.27,465.994 3536.88,477.568 3539.19,476.605C3541.51,437.313 3522.72,322.887 3497.23,318.994ZM3758.51,361.634C3780.89,363.755 3776.34,380.994 3769.57,388.005C3766.35,391.605 3766.91,393.252 3770.42,391.205C3779.96,385.627 3787.41,389.864 3790.32,399.755C3795.28,416.652 3772.96,430.822 3763.32,415.58C3760.05,410.416 3757.99,411.543 3758.73,416.908C3759.16,422.074 3764.04,432.835 3764.04,432.835L3742.09,430.546C3742.09,430.546 3748.97,419.472 3750.19,416.481C3752.73,410.275 3751.46,408.592 3746.69,413.555C3732.76,425.934 3713.95,409.553 3723.07,393.005C3727.56,384.847 3735.67,382.305 3744.29,388.98C3750.11,392.9 3751.4,391.257 3746.22,386.53C3736.53,377.697 3745.33,360.385 3758.51,361.634ZM3195.88,367.2C3196.13,367.192 3196.37,367.191 3196.62,367.2C3198.51,367.264 3200.47,367.815 3202.43,368.95C3207.84,372.101 3209.25,378.181 3205.75,383.4C3203.74,386.404 3204.28,388.323 3206.6,386.375C3209.7,383.767 3216.45,385.629 3219.03,389.8C3225.65,400.514 3212.2,414.211 3203.88,405.25C3200.2,401.294 3198.77,401.116 3199.17,403.684C3200.31,408.511 3203.36,416.762 3203.36,416.762L3188.13,416.805C3188.13,416.805 3191.55,408.225 3192.34,403.857C3192.95,400.401 3191.56,400.884 3187.88,404.925C3184.29,408.854 3181.08,409.22 3176.62,406.175C3165.64,398.661 3174.8,379.914 3186.28,386.425C3190.23,388.668 3190.81,387.413 3187.75,383.25C3182.29,375.816 3188.09,367.464 3195.88,367.2ZM3986.33,371.936C3961.31,397.04 3969.26,382.1 3980.4,401.674C3980.26,414.472 3987.58,424.596 3981.37,444.707C3979.42,448.625 3979.22,450.501 3980.2,454.486C3978.07,476.771 3960.2,476.226 3942.78,479.436C3945.66,479.288 3969.65,525.192 3923.6,528.088L3921.44,713.253L3994.33,661.131L3998.21,372.109L3986.33,371.936ZM3443.71,461.832C3423.07,474.713 3393.87,507.224 3357.84,499.545C3351.8,615.003 3312.58,703.886 3257.39,779.96C3275.9,791.271 3296.26,804.818 3315.23,813.588C3331.5,805.495 3340.61,802.156 3356.65,789.349C3423.12,689.864 3445.33,580.376 3443.71,461.832ZM3613.17,485.426C3615.96,544.808 3624.8,601.133 3655.01,646.656L3658.93,520.599C3647.97,517.806 3639.06,510.567 3636.14,490.361L3613.17,485.426ZM3389.61,517.187L3410.23,517.974C3410.23,517.974 3405.41,527.228 3403.31,532.411C3400.76,538.744 3401.91,540.058 3406.68,535.7C3412.88,530.027 3422.64,529.634 3427.7,534.85C3441.13,548.701 3426.55,570.745 3410.58,560.75C3403.73,556.471 3402.56,557.856 3407.95,563.85C3418.46,573.889 3407.13,587.961 3394.68,587.843C3385.68,587.675 3379.95,580.394 3379.36,572.455C3379.08,567.463 3381.66,562.495 3386.03,560.125C3390.58,557.654 3387.37,555.958 3382.43,558.525C3366.29,566.905 3355.9,544.63 3368.16,532.218C3375.23,525.061 3382.6,525.845 3389.58,532.875C3394.45,537.784 3396.23,537.379 3394.91,531.638C3393.6,525.178 3389.61,517.187 3389.61,517.187ZM3946.05,542.635L3960.83,542.867C3959.32,546.502 3957.39,550.202 3956.16,553.799C3954.83,557.717 3955.75,558.233 3959.72,554.483C3970,547.793 3980.77,554.792 3978.4,565.591C3976.77,573.042 3970.46,576.617 3963.28,573.266C3956.95,570.312 3958.97,571.568 3962.53,575.981C3966.77,581.23 3965.59,587.267 3959.83,591.191C3949.64,598.133 3936.5,586.162 3943.32,575.98C3947.34,569.925 3945.53,570.562 3941.9,573.466C3936.47,577.321 3928.43,571.636 3928.38,563.916C3927.92,552.806 3939.22,546.72 3947,554.691C3950.72,557.914 3951.66,557.54 3950.03,552.908C3948.52,549.538 3948.07,545.946 3946.05,542.635ZM3945.67,623.386L3961.16,623.434C3961.16,623.434 3960.92,624.615 3958.47,629.062C3955.59,634.289 3955.94,639.743 3958.92,636.087C3963.95,629.918 3974.42,631.809 3977.75,639.487C3981.63,648.432 3973.68,658.137 3965.62,654.287C3960.39,651.785 3960.02,652.302 3963.45,657.412C3966.78,662.384 3965.18,668.409 3959.6,671.862C3948.62,678.646 3935.79,664.599 3944.97,655.862C3947.43,653.523 3946.69,652.356 3943.72,653.912C3931.62,660.263 3923,643.911 3933.52,634.562C3938,630.581 3941.38,630.909 3948.57,636.037C3950.81,637.633 3951.27,636.029 3949.7,632.037C3947.02,625.236 3945.67,623.386 3945.67,623.386ZM3370.65,624.75C3387.89,624.75 3401.85,638.711 3401.85,655.95C3401.85,673.189 3387.89,687.175 3370.65,687.175C3353.41,687.175 3339.43,673.189 3339.43,655.95C3339.43,638.711 3353.41,624.75 3370.65,624.75ZM3370.93,630.325C3356.76,630.325 3345.28,641.788 3345.28,655.95C3345.28,670.112 3356.76,681.6 3370.93,681.6C3385.09,681.6 3396.58,670.112 3396.58,655.95C3396.58,641.788 3385.09,630.325 3370.93,630.325ZM3371.08,640.175C3379.79,640.175 3386.85,647.232 3386.85,655.95C3386.85,664.668 3379.79,671.75 3371.08,671.75C3362.36,671.75 3355.28,664.668 3355.28,655.95C3355.28,647.232 3362.36,640.175 3371.08,640.175ZM3330.75,715.22C3330.75,715.22 3348.64,724.289 3348.64,724.289C3348.64,724.289 3340.01,731.097 3336.57,734.619C3332.17,739.157 3332.44,741.316 3338.33,739.2C3349.54,735.165 3360.63,741.612 3360.67,753.196C3360.72,768.656 3342.33,775.831 3333.72,764C3331.17,760.483 3328.07,758.99 3329.25,761.85C3332.12,768.811 3330.18,777.495 3324.95,781C3320.76,783.806 3313.17,784.538 3309.38,782.5C3296.32,775.492 3295.86,760.328 3308.53,754.525C3314.89,751.608 3315.14,748.79 3308.9,750.25C3295.9,753.289 3288.58,737.506 3298.08,726.875C3308.16,715.591 3324.28,718.19 3325.83,735.125C3326.1,738.138 3328.18,735.991 3329.16,731.397C3330.31,727.989 3330.75,715.22 3330.75,715.22ZM3498.31,743.081C3498.31,743.081 3431.8,779.663 3433.78,781.276C3434.17,781.512 3448.11,801.746 3448.11,801.746C3481.92,728.058 3559.41,790.615 3571.42,828.663C3574.12,830.38 3574.59,829.907 3577.53,831.277C3577.85,828.609 3583.67,802.387 3583.67,802.387L3498.31,743.081ZM3386.2,1015.36L3375.35,1030.34C3371.66,1031.85 3539.38,1062.76 3672.43,1035.76L3663.5,1018.21C3555.09,1044.19 3384.49,1017.27 3386.2,1015.36Z" style="fill:rgb(212,0,0);fill-rule:nonzero;"/>
                                        </g>
                                        <g id="path3444-9-5-7" transform="matrix(0.999768,0.00612235,-0.00612732,0.999981,-3103.61,-334.787)">
                                            <path d="M3164.4,-206.031L3144.61,1156.34L3997.78,1168.73L4017.56,-193.64L3164.4,-206.031ZM3420.04,-191.783L3848.42,-187.212L3767.28,-52.823C3768.14,-59.957 3613.77,-84.099 3486.96,-59.214L3420.04,-191.783ZM3176.26,-192.154L3409.2,-188.771L3485.7,-47C3485.7,-47 3490.18,-38.148 3487.3,-28.996C3484.14,-19.008 3481.49,-14.593 3478.71,-9.512C3479.03,-12.429 3456.16,-15.659 3457.8,3.978C3458.9,17.269 3475.59,25.02 3488.25,14.875C3490.25,14.737 3490.21,16.592 3489.72,19.825C3488.46,27.413 3480.03,51.428 3474.47,52.948C3446.61,29.418 3435.94,71.495 3454.83,80.19C3465.76,85.223 3482.75,81.441 3490.85,68.325C3497.05,58.292 3496.35,59.954 3498.08,72.265C3498.73,76.843 3499.65,82.152 3500.13,84.54C3501.64,92.008 3500.01,93.429 3487.43,96.625C3477.28,100.406 3467.03,102.427 3456.6,104.525C3437.55,107.366 3427.63,121.561 3426.9,139C3426.74,142.77 3426.85,144.516 3426.03,145.625C3345.18,174.974 3259.97,216.447 3169.28,288.062L3176.26,-192.154ZM3706.12,150.05C3703.15,145.081 3693.79,119.078 3691.28,108.25C3685.06,55.837 3684.63,-6.28 3677.88,-55.083L3687.69,-53.839C3687.69,-53.839 3691.18,-39.686 3694.6,-1.538C3696.3,17.373 3697.78,56.656 3699.16,74.726C3701.25,101.576 3712.75,144.627 3720.1,155.56C3732.08,173.389 3756.85,162.329 3748.93,141.25C3744.81,130.314 3728.25,131.835 3730.38,143.153C3730.39,145.166 3731.97,141.736 3734.43,139.65C3741.61,137.048 3749.54,144.6 3745.22,153.493C3739.84,164.848 3724.5,159.407 3719.6,144.925C3713.74,127.626 3734.51,115.021 3749.75,125.742C3766.73,137.684 3766.33,167.328 3752.39,176.483C3729.02,184.622 3713.46,167.458 3706.12,150.05ZM3763.27,172.691C3762.34,172.125 3763.34,170.337 3764.55,166.075C3769.08,150.14 3766.56,137.616 3756.38,125.7C3750.7,119.061 3748.55,117.878 3751.59,116.733C3758.03,114.307 3772.02,124.784 3775.76,134.939C3779.46,144.911 3780.27,155.18 3774.7,166.312C3770.91,168.662 3765,173.402 3763.27,172.691ZM3780.94,162.291C3780.95,160.419 3782.3,154.534 3782.63,151.65C3783.91,140.504 3778.86,129.095 3769.75,120.1C3762.11,112.552 3761.41,111.775 3768.74,111.758C3787.67,111.715 3799.29,142.477 3790.34,157.419C3788.06,159.774 3781.13,164.562 3780.94,162.291ZM3797.11,152.172C3803.06,126.176 3778.09,108.431 3777.57,109.236C3778.92,103.411 3788.88,106.916 3792.26,109.239C3804.89,117.985 3811.89,140.466 3803.88,153.07C3803.01,154.618 3801.95,155.5 3800.56,156.321C3797.91,157.935 3796.34,159.241 3795.82,158.075C3795.43,157.192 3796.95,153.418 3797.11,152.172L3797.11,152.172ZM3576.45,64.35C3579.12,61.802 3579.91,61.74 3584.95,63.725C3600.73,69.947 3613.57,58.746 3610,46.725C3608.71,42.372 3602.83,37.583 3599.18,37.15C3593.2,36.444 3593.04,39.598 3599.45,42.1C3607.33,45.173 3608,53.587 3600.97,57.275C3592.71,62.685 3579.5,48.458 3569.65,49.5C3564.93,50.837 3561.85,55.19 3564.46,60.6C3566.51,64.397 3573.55,66.781 3576.45,64.35ZM3558.87,62.381C3553.41,59.746 3551.31,59.764 3552.45,53.775C3553.2,49.833 3559.22,23.317 3562.05,13.075C3570.52,-17.596 3563.23,-34.772 3540.61,-41.984C3525.28,-46.872 3511.98,-44.701 3496.17,-36.585L3493.47,-45.331C3559.5,-61.582 3671.7,-56.135 3671.29,-55.475C3673.38,-46.59 3674.09,-37.725 3674.83,-28.859C3674.83,-28.859 3653.95,-39.482 3643.03,-43.075C3626.2,-48.501 3599.4,-43.207 3594.53,-33.575C3591.76,-28.113 3593.1,-24.424 3604.55,-30.375C3623.28,-40.113 3661.13,-31.935 3674.36,-21.129C3677.41,-18.64 3677.24,-18.108 3677.26,-15.24C3677.29,-10.867 3677.54,-10.607 3671.5,-13.95C3639.84,-30.722 3612.55,-29.227 3602.83,-7.952C3600.67,-8.637 3592.42,-10.181 3592.42,-10.181L3601.11,3.081L3602.6,16.854C3602.6,16.854 3617,25.115 3624.95,28.641C3632.78,32.092 3628.3,28.475 3618.73,21.608C3611.7,16.567 3617.37,15.067 3622.03,17.025C3631.62,19.374 3645.66,22.383 3662.1,12.275C3667.21,9.135 3678.75,12.091 3678.91,13.548C3678.91,13.548 3680.28,25.593 3681.45,50.7C3682,62.577 3683.24,78.1 3683.97,84.475C3686.2,103.736 3686.91,104.84 3676.93,95.475C3673.58,92.333 3667.99,87.12 3667.93,87.425C3666.56,93.368 3681.33,104.057 3684.75,107.7C3689.94,113.23 3693.97,127.253 3691.85,128.05C3690.51,128.555 3676.5,116.326 3665.5,105.35C3661.38,101.239 3655.23,95.717 3655.05,95.9C3652.72,97.404 3661.94,108.116 3670.6,116.15C3680.71,125.526 3681.88,126.37 3678.42,127.71C3672.02,130.186 3666.35,126.909 3651.1,113.925C3649.62,112.661 3643.83,108.431 3643.55,108.725C3642.12,110.583 3656.16,124.269 3659.38,125.475C3665.35,127.716 3666.99,133.542 3662.22,135.75C3659.04,137.224 3647.35,130.596 3638.03,122.275C3636.35,120.784 3631.69,118.22 3631.38,118.55C3629.48,119.727 3639.91,129.012 3649.9,135.225C3659.68,141.308 3661.24,142.798 3658.65,147.7C3656.23,152.752 3634.75,140.661 3624.1,128.375C3621.83,125.761 3620.03,124.623 3620.47,125.5C3625,138.642 3640.39,148.234 3651.88,152.132C3653.93,152.837 3656.91,153.712 3658.24,154.801C3661.49,157.461 3660.72,160.169 3657.13,161.648C3644.77,164.924 3625.57,149.73 3611.91,133.905C3610.31,133.217 3611.24,135.275 3611.65,135.958C3622.97,154.615 3644.95,169.004 3658.35,166.573C3666.18,165.151 3672.42,167.594 3672.45,170.215C3672.47,172.363 3668.11,175.724 3659.7,176.2C3640.68,177.278 3611.28,156.055 3594.3,129.325C3593.77,128.492 3593.13,128.179 3593.08,128.679C3592.53,134.285 3603.13,148.206 3611.3,156.2C3635.57,179.951 3658.72,188.194 3677.06,175.279C3687.41,167.498 3697.55,150.305 3682.39,144.29C3674.36,141.105 3669.1,152.143 3676.05,149.072C3685.13,148.112 3687.12,152.952 3685.88,157.458C3683.45,165.19 3675.74,166.312 3669.53,162.957C3658.73,156.902 3661.34,136.724 3675.48,133.397C3688.23,130.514 3699.16,141.443 3700.46,151.679C3702.49,167.578 3684.35,184.488 3669.93,188.55C3620.75,202.407 3583.5,133.818 3583.3,132.275C3580.91,127.513 3577.99,124.967 3576.05,130.45C3573.93,138.401 3562.54,161.641 3556.63,161.414C3558.59,153.185 3566.54,139.422 3564.84,127.239C3561.42,137.173 3554.22,158.373 3540.88,169.525C3537.41,172.587 3527.33,176.108 3534.35,168.2C3542.85,156.607 3553.99,140.749 3551.95,125.675C3549.69,129.023 3548.36,137.562 3545.75,143.175C3539.22,157.229 3525.14,173.815 3515.97,176.4C3509.2,178.31 3509.87,176.043 3516.88,168.875C3524.39,161.191 3537.82,138.502 3537.1,128.625C3536.79,124.264 3522.96,166.104 3497.95,177.25C3491.2,179.606 3487.44,176.463 3487.44,176.463C3497.28,170.982 3524.65,144.781 3522.54,114.532C3522.54,114.532 3521.04,118.984 3518.82,125.662C3509.25,154.365 3489.32,173.039 3473.98,174.386C3461.74,175.462 3453.27,170.406 3456.34,168.272C3472.19,168.618 3485.3,163.328 3495.7,148.025C3506.27,132.472 3510.49,107.295 3504.61,80.498C3499.31,56.332 3498.38,34.657 3496.75,11.477C3514.03,17.661 3531.45,21.862 3548.45,15.5C3546.66,22.374 3543.82,23.189 3539.28,28.333C3535.99,32.093 3537.09,33.015 3549.85,24.275C3553.56,21.732 3554.92,19.67 3555.58,20.375C3556.64,21.518 3554.86,28.596 3550.97,42.7C3545.17,63.79 3546.58,65.328 3566.8,73.6C3570.57,75.144 3571.97,76.621 3573.28,78.225C3573.89,78.976 3577.14,85.034 3577.45,85.25C3578.18,85.757 3578.09,79.131 3577.7,77.45C3576.67,72.987 3574.32,69.614 3572.23,68.267C3568.3,64.533 3562.54,64.125 3558.87,62.381ZM3938.84,344.09L3939.36,322.112L3960.5,337.572L3960.13,344.823L3938.84,344.09ZM3902.27,348.338L3907.39,-58.243C3907.39,-58.243 3923.94,-68.896 3932.21,-74.171C3937.1,-57.977 3936.56,-23.414 3934.42,-8.05C3931.06,1.927 3928.99,46.519 3932.29,69.271C3934.93,87.408 3933.96,117.327 3931.02,131.612C3929.87,137.193 3930.31,163.433 3931.97,187.727C3933.24,206.294 3932.55,223.146 3930.17,232.763C3928.3,240.342 3928.51,267.601 3930.37,278.083C3933.11,293.504 3932.9,342.912 3931.53,345.576C3927.96,349.51 3900.41,349.67 3902.27,348.338ZM3940.92,-76.665C3940.92,-76.665 3957.27,-65.522 3965.15,-59.955L3965.01,-42.437L3941.38,-58.358L3940.92,-76.665ZM3694.1,-51.94L3704.3,-51.157C3708.06,-29.927 3709.47,-5.836 3710.74,18.316C3710.72,55.527 3714.74,94.831 3723.11,120.676L3715.49,128.437C3703.13,98.78 3702.8,52.275 3700.41,20.768C3699.68,-14.639 3694.39,-51.709 3694.1,-51.94ZM3942.55,-52.042L3964.53,-36.694L3964.48,-17.64L3942.33,-32.802L3942.55,-52.042ZM3708.81,-50.328L3717.77,-49.223C3720.13,-24.048 3724.06,-6.931 3725.25,20.783C3726.79,56.627 3732.57,86.125 3736.02,114.155L3729.28,116.289C3724.75,118.295 3717.78,85.127 3715.43,18.067C3714.73,-2.228 3711.62,-25.09 3708.81,-50.328ZM3722.36,-49.186L3733.04,-47.112C3736.85,16.583 3743.47,76.449 3750.81,110.804L3741.49,111.284C3730.65,62.179 3730.72,5.544 3722.36,-49.186ZM3737.8,-46.706L3747.61,-44.857C3757.34,100.824 3764.67,99.053 3766.87,104.806L3756.16,108.972C3745.25,66.991 3743.78,8.008 3737.8,-46.706ZM3780.4,96.866C3778.64,101.743 3774.66,101.229 3770.3,101.669C3765.62,88.225 3763,72.244 3761.19,56.608C3757.19,22.261 3756.04,-9.907 3751.85,-43.806L3763.57,-42.433C3763.19,-42.18 3770.17,77.004 3780.4,96.866ZM3529.7,-34.7C3545.16,-33.728 3557.9,-26.598 3558.98,-16.416C3559.23,-14.126 3557.43,-15.263 3555.36,-16.899C3542.2,-27.29 3527.11,-30.688 3508.72,-24.375C3504.72,-22.999 3501.43,-20.787 3499.65,-21.125C3498.07,-22.17 3497.61,-24.656 3498.86,-26.683C3503.23,-33.749 3522.05,-35.181 3529.7,-34.7ZM3493.53,-14.812C3493.62,1.219 3489.6,9.998 3481.13,13.579C3470.92,17.901 3458.05,8.141 3464.52,-2.475C3469.42,-10.5 3477.61,-7.941 3479.05,0.587L3492.36,-27.939C3492.36,-27.939 3493.55,-18.827 3493.53,-14.812ZM3964.57,-10.542L3964.19,5.974L3940.63,-10.275L3942.45,-26.133L3964.57,-10.542ZM3542.47,-18.825C3554.13,-14.012 3558.35,-8.278 3558.75,-5.75C3558.05,-3.881 3556.89,-5.181 3548.4,-9.925C3535.33,-18.201 3518.17,-19.769 3502.93,-9.725C3499.15,-9.036 3498.8,-11.176 3502.62,-15.175C3514.26,-24.017 3530.15,-23.914 3542.47,-18.825ZM3631.55,-20.625C3641.87,-20.801 3654.16,-18.001 3664.5,-12.625C3669.07,-10.248 3673.18,-8.747 3676.15,-6.048C3678.53,-4.761 3678.64,0.689 3676.88,1.075C3675.3,1.273 3672.75,0.012 3668.95,-2.725C3644.44,-19.152 3626.6,-17.433 3612.15,-7.75C3611.35,-7.215 3608.88,-6.688 3607.91,-6.775C3605.18,-7.02 3605.06,-8.139 3606.22,-9.601C3612.95,-16.988 3622.9,-20.454 3631.55,-20.625ZM3940.62,-4.567L3964.22,12.442L3963.97,28.828L3938.87,10.832L3940.62,-4.567ZM3510.07,-4.161L3513.55,-4.01C3521.38,15.774 3531.7,5.785 3536.05,-2.028L3540.28,-1.277C3533.26,24.969 3506.45,10.794 3510.07,-4.161ZM3504.1,-1.625C3508.03,-1.094 3507.83,3.363 3509.02,6.626C3511.67,13.919 3501.3,7.63 3499.53,5.837C3496.55,2.599 3500.92,-1.343 3504.1,-1.625ZM3622.14,-0.678C3632.19,15.113 3638.26,5.939 3644.22,-0.787L3647,0.146C3646.1,11.365 3627.02,23.061 3618.39,-0.457L3622.14,-0.678ZM3653.73,1.55C3654.83,1.583 3657.03,2.404 3659.05,3.254C3664.64,5.609 3664.32,7.271 3658.05,9.95C3648.03,14.234 3644.56,14.758 3647.63,8.545C3649.39,5.708 3650.58,1.934 3653.73,1.55ZM3614.63,3.368C3617.11,5.246 3618.73,7.308 3618.97,10.626C3619.14,12.965 3611.4,10.161 3611.47,6.439C3611.75,4.077 3613.06,2.177 3614.63,3.368ZM3545.72,3.258C3550.8,5.224 3550.15,7.65 3546.56,9.805C3540.12,13.274 3537.39,12.533 3541.61,6.993C3543.55,4.437 3543.98,3.286 3545.72,3.258ZM3938.7,17.212L3964.26,35.738L3963.79,52.401L3938.24,34.44C3937.15,27.281 3938.35,22.496 3938.7,17.212ZM3492.03,36.525C3493.25,36.574 3493.67,40.628 3493.88,46.55C3494.21,56.396 3483.99,69.952 3473.8,74.525C3461.52,80.032 3448.58,71.872 3450.94,60.091C3453.11,49.234 3468.59,49.008 3469.03,59.075C3467.48,61.699 3469.56,63.944 3470.43,63.725C3474.42,62.715 3483.92,54.412 3487.88,45.025C3489.41,41.367 3490.37,37.593 3491.45,36.75C3491.66,36.586 3491.85,36.518 3492.03,36.525ZM3937.68,39.925L3963.21,59.128L3963.09,75.688L3937.75,57.713C3936.85,50.319 3937.36,45.061 3937.68,39.925L3937.68,39.925ZM3624.16,61.6C3622.16,64.848 3623.68,70.743 3627.75,65.8C3638.21,53.981 3652.88,69.175 3644.78,78.575C3637.42,87.107 3628.56,84.197 3609.88,76.75C3596.26,71.325 3594.08,73.074 3590.65,76.8C3587.83,79.867 3589.15,86.147 3592.75,86.125C3603.81,88.803 3613.38,91.395 3624.83,93.95C3649.02,99.281 3664.28,68.235 3642.28,56.425C3637.01,53.6 3625.98,57.012 3624.16,61.6ZM3516.99,63.645C3507.41,71.992 3514.85,94.406 3528.75,96.6C3531.66,97.059 3536.02,97.002 3540.99,95.647C3550.78,92.976 3561.6,87.365 3562.09,84.012C3564.31,68.776 3541.39,82.134 3538.35,83.9C3531.12,88.146 3523.54,87.472 3519.8,82.25C3511.36,70.48 3526.99,57.343 3536.15,71.725C3538.46,75.354 3537.72,69.252 3535.2,65.075C3531.64,59.178 3522.23,59.421 3516.99,63.645ZM3939.02,64.965L3963.03,82.458L3962.66,98.401L3939.39,81.104L3939.02,64.965ZM3940.5,88.333L3963.23,105.188L3963.38,121.765L3939.51,105.547C3940.06,99.588 3940.26,93.983 3940.5,88.333ZM3811.57,95.981C3831.76,96.606 3842.72,126.611 3831.89,138.872C3828.67,142.52 3826.13,143.472 3824.71,142.075C3824.41,141.774 3824.96,138.444 3825.22,134.675C3826.06,122.657 3823.62,114.386 3814.95,105.122C3808.45,98.173 3805.99,96.015 3811.57,95.981ZM3562.8,97.125C3558.97,98.429 3554.89,101.125 3551.78,100.4C3548.7,99.684 3547.2,101.19 3545.96,103.592C3541.2,112.784 3542.59,115.799 3551.83,110.675C3556.21,108.243 3557.72,109.16 3569.33,111.525C3577.62,113.215 3583.28,113.142 3590.62,111.35C3599.76,109.122 3605.18,109.017 3609.75,111.6C3614.32,114.183 3617.42,117.697 3617.58,114.875C3617.11,111.563 3614.35,103.068 3613.72,100.25C3613.43,98.894 3611.14,100.051 3609,100.175C3601.45,100.612 3592.55,93.699 3586.68,97.2C3581.97,100.002 3581.34,100.746 3575,96.9C3570.28,94.036 3566.95,95.714 3562.8,97.125ZM3806.04,102.733C3819.55,114.352 3822.91,124.535 3821.46,132.83C3820.69,138.868 3820.15,145.541 3814.17,149.096C3813.07,149.601 3811.43,149.9 3809.92,150.101C3814.76,132.989 3809.57,117.527 3790.47,100.833C3796.14,98.131 3801.86,99.144 3806.04,102.733ZM3497.58,98.225C3498.18,98.232 3498.85,98.342 3499.53,98.575C3501.89,99.391 3502.17,105.606 3500.28,107.525C3498.38,109.444 3496.89,107.817 3494.8,102.85C3493.23,100.139 3494.94,98.195 3497.58,98.225ZM3484.88,102.875C3489.87,102.844 3491.7,107.445 3492.5,111.1C3493.18,114.216 3492.13,123.47 3489.53,120.2C3488.92,118.228 3486.3,111.852 3484.15,110.175C3479.37,106.44 3479.9,102.905 3484.88,102.875ZM3470.75,107.275C3471.48,107.265 3472.42,107.368 3473.55,107.575C3481.33,108.993 3487.12,121.487 3485.2,128.5C3480.97,136.012 3479.51,130.885 3478.25,124C3477.23,121.139 3474.1,116.632 3472.18,114.3C3468.18,109.461 3467.59,107.318 3470.75,107.275ZM3939.51,110.477L3963,127.832L3962.77,146.04L3938.17,128.984C3938.82,122.62 3939.19,116.522 3939.51,110.477ZM3455.28,110.825C3466.9,110.795 3476.63,124.674 3472.78,137.65C3468.03,151.172 3445.45,147.945 3449.4,134.45C3450.54,130.569 3454.74,127.778 3458.68,130.275C3464.36,133.882 3463.81,128.138 3460.2,126.05C3454.62,122.827 3446.87,124.616 3445.05,130.95C3438.72,153.03 3467.11,161 3482.95,138.325C3488.74,130.038 3495.04,121.171 3498.5,117.4C3501.61,114.012 3502.26,114.382 3501.7,118.8C3499.42,139.367 3484.69,164.899 3457.78,163.1C3431.63,160.234 3423.85,132.347 3443.88,115.3C3447.61,112.562 3451.25,110.835 3455.28,110.825ZM3593.96,113.962C3584.32,118.462 3575.61,120.09 3566.24,115.849C3559.32,112.713 3559.38,116.009 3562.37,118.758C3571.02,126.34 3586.99,123.197 3593.88,119.1C3596.11,117.77 3596.89,113.837 3593.96,113.962ZM3962.72,152.247L3962.56,168.808L3936.32,150.672C3935.95,146.704 3936.49,140.688 3937.45,134.483L3962.72,152.247ZM3937.1,157.407L3962.09,174.387L3962.52,190.809L3938.22,175.252L3937.1,157.407ZM3938.52,180.45L3962.38,197.469L3962.47,215.39L3938.82,199.333L3938.52,180.45ZM3350.47,190.75L3335.08,235.1L3344.72,235.825L3351.08,247.675L3357.95,235.725L3368.12,235.1L3350.47,190.75ZM3939.17,205.247L3962.17,221.546L3962.28,238.097L3938.39,221.065L3939.17,205.247ZM3937.93,225.492L3961.5,243.038L3961.71,260.622L3934.98,242.249L3937.93,225.492ZM3404.95,227.7L3389.65,275.2L3397.9,274.2L3405.43,287.075L3413.38,275.725L3420.75,276.25L3404.95,227.7ZM3294.95,229.65L3280.35,276.875L3289.68,276.975L3297.38,289.05L3304.45,277.6L3315.03,277.475L3294.95,229.65ZM3934.51,247.672L3962.17,267.684L3962.13,286.352L3935.3,267.814L3934.51,247.672ZM3961.49,292.406L3961.57,308.758L3938.29,291.681L3936,273.492L3961.49,292.406ZM3462.53,287.975L3444.75,335.925L3456.2,336.2L3462.97,347.875L3468.7,336.325L3477.9,336.55L3462.53,287.975ZM3939.72,299.712L3961.32,314.98L3960.91,331.763L3939.64,317.063L3939.72,299.712ZM3523.39,488.74L3511.14,476.614C3511,475.637 3521.39,470.789 3527.69,474.061C3536.02,478.381 3540.11,493.543 3530.6,501.356C3523.04,507.573 3511.7,502.146 3511.49,501.398L3523.39,488.74ZM3512.62,468.879C3513.1,450.429 3503.45,445.552 3495.47,441.697C3495.47,441.697 3495.82,324.742 3496.05,321.25C3496.05,321.76 3494.17,308.556 3493.95,307.775L3493.95,307.775C3493.95,307.784 3492.03,307.233 3492.03,307.253C3492.19,319.114 3491.2,440.631 3491,441.417C3475.94,442.934 3471.59,453.054 3470.03,466.705C3458.31,465.655 3450.57,472.608 3450.32,473.776C3446.07,467.762 3449.43,459.043 3446.1,452.783C3435.17,488.992 3455.08,511.042 3472.76,509.27C3475.08,544.222 3513.44,551.093 3512.75,508.727C3559.31,506.673 3544.17,463.677 3512.62,468.879ZM3296.18,318.9L3278.65,365.875L3290.47,364.7L3294.65,373.475C3313.8,357.087 3322.97,382.953 3313.68,360.75L3296.18,318.9ZM3935.19,412.217C3937.36,412.088 3940.2,414.088 3940.73,416.766C3941.03,424.744 3930.33,422.798 3930.07,417.759C3929.88,414.181 3933.15,412.339 3935.19,412.217ZM3941.44,464.162C3946.11,460.439 3953.44,462.687 3953.47,468.401C3953.5,473.466 3947.67,475.049 3943.17,472.139C3939.68,469.943 3939.52,465.936 3941.44,464.162ZM3941.89,478.221C3967.18,480.517 3986.28,463.59 3978.39,451.125C3985.31,442.674 3979.83,437.681 3981.77,432.805C3987.22,427.371 3982.9,415.453 3981.55,415.39C3980.68,399.468 3976.09,397.363 3969.33,388.788C3967.3,386.302 3974.22,384 3976.93,379.816C3968.8,381.84 3964.53,377.695 3960.22,372.187C3913.29,373.691 3871.13,376.352 3871.79,439.965C3864.65,466.857 3875.74,491.063 3908.58,484.112C3915.84,477.815 3911.25,468.468 3910.44,463.998C3907.82,451.69 3911.16,443.766 3912.15,438.032C3915.19,420.297 3928.46,403.988 3929.47,431.869C3931.8,428.405 3930.73,427.873 3934.52,426.477C3943.56,423.367 3943.41,432.45 3941.52,436.088C3940.31,437.954 3938.53,437.769 3936.7,437.532C3934.09,437.18 3930.69,436.163 3930.65,435.203C3929.9,438.085 3935.28,443.545 3934.67,446.25C3933.91,448.816 3933.45,448.6 3935.87,446.929C3947.26,439.025 3954.07,457.156 3937.77,454.859C3945.75,459.269 3933.67,471.665 3941.89,478.221ZM3926.6,380.93C3935.5,380.607 3937.63,380.558 3937.15,385.219C3938.71,393.855 3940.81,397.88 3952.05,397.14C3963.39,395.832 3966.99,395.177 3955.5,401.85C3949.71,404.3 3947.84,404.766 3941.03,404.054C3934.16,403.336 3934.7,402.652 3930.74,404.939C3928.53,406.218 3926.11,407.778 3924.33,408.075C3921.68,408.515 3917.01,409.465 3917.01,409.465C3914.17,422.799 3910.04,429.475 3904.41,435.749C3896.44,444.543 3892.44,446.044 3902.06,445.516C3905.61,445.788 3903.8,443.981 3905.14,458.42C3905.61,463.477 3906.47,469.345 3907.19,471.321C3909.6,477.925 3909.88,481.197 3900.38,481.525C3876.63,482.975 3871.43,459.815 3874.76,448.068C3875.06,446.217 3876.23,440.093 3876.54,435.225C3876.7,432.565 3876.2,430.303 3876.3,427.582C3877.16,405.599 3882.46,399.88 3902.19,385.868C3908.14,381.641 3918.73,380.909 3926.6,380.93ZM3947.41,382.418C3958.36,382.351 3968.86,387.764 3963.54,391.099C3960.09,393.255 3947.79,392.161 3944.41,389.679C3940.04,386.475 3941.76,382.452 3947.41,382.418ZM3458.95,394L3454.5,401.625C3456.32,418.42 3456.42,427.217 3450.15,444.625L3458.94,456.495L3466.2,444.425L3477.35,444.781L3458.95,394ZM3970.88,397.866C3977.95,399.389 3978.13,405.864 3976.28,409.821C3972.18,418.524 3945.6,422.376 3945.6,422.38C3945.44,418.615 3946.02,414.998 3943.32,410.725C3943.32,410.725 3961.05,406.361 3964.84,403.009C3967.36,400.77 3968.92,397.912 3970.88,397.866ZM3975.84,417.871C3978.41,417.944 3979.74,419.823 3980.39,423.621C3980.69,425.656 3979.89,427.378 3978.21,429.571C3971.37,436.79 3952.37,441.582 3945.56,439.623C3945.09,438.981 3946.36,431.292 3946.91,427.872C3956.01,428.279 3971.45,420.429 3975.84,417.871ZM3705.37,459.006C3696.52,445.831 3676.43,447.452 3678.57,448.396C3678.87,437.226 3677.18,421.854 3660.25,419.975C3643.17,418.432 3634.05,440.864 3640.4,450.508C3629.91,445.974 3613.92,456.726 3613.9,457.758C3612.56,457.782 3599.99,489.572 3636.58,491.75C3639.69,506.889 3645.29,514.271 3656.9,520.65L3655.4,643.825L3659.45,649.475L3661.69,520.403C3680.44,519.845 3683.06,498.443 3681.74,493.48C3690.06,493.964 3697.64,492.4 3704.07,487.639L3705.96,508.711C3705.96,508.711 3710.46,501.352 3709.55,497.4C3703.16,376.314 3748.82,246.09 3807.5,162.1C3810.62,158.584 3811.62,154.346 3813.14,154.337C3827.26,146.993 3836.19,142.042 3836.19,142.042C3859.13,153.479 3899.99,180.875 3899.99,180.875L3898.16,353.258C3897.54,351.553 3975.15,345.728 3973.96,347.806C3973.96,347.806 3967.21,345.049 3967.17,340.513L3971.01,-62.884L3937.42,-85.524C3937.42,-85.524 3909.28,-67.712 3901.39,-61.6L3898.79,175.89L3839.24,139.834C3839.24,139.834 3840.32,131.449 3840.45,128.725C3839.96,96.306 3824.2,85.202 3793.78,94.375C3789.7,95.604 3786.86,96.692 3784.9,95.003C3772.68,57.537 3768.37,-40.517 3768.39,-40.516L3855.97,-184.082L4001,-182.774L3995.47,370.539L3996.5,660.62L3921.7,713.444L3923.32,527.656C3923.32,527.656 3912.79,522.434 3910.02,522.051C3908.98,521.956 3907.6,524.269 3909.47,525.499C3912.16,527.271 3918.82,529.798 3918.82,529.798L3917.71,713.948C3917.71,713.948 3888.66,732.895 3875.68,740.775C3851.43,753.595 3827.58,765.784 3802.59,776.438C3777.96,786.598 3723.68,808.251 3723.68,808.251C3719.22,792.722 3673.48,755.925 3621.08,780.7C3616.29,782.396 3610.37,783.846 3606.35,786.55C3586.47,789.883 3579.63,810.981 3576.33,831.545C3576.22,832.355 3577.89,832.198 3577.95,832.279C3578.16,832.578 3582.96,812.572 3584.81,808.8C3588.74,800.744 3593.63,795.96 3596.19,795.232C3597.36,795.052 3598.34,796.873 3596.72,799.706C3593.5,805.338 3590.78,817.374 3589.94,822.807C3589.19,827.82 3588.99,831.851 3589.93,832.038C3590.09,832.199 3594.75,816.898 3596.83,811.502C3602.24,797.435 3605.62,791.624 3610.68,788.68C3615.87,785.661 3617.08,786.114 3616.02,789.387C3608.15,804.205 3604.83,815.449 3603.09,831.328C3602.82,834.494 3604.42,834.609 3605.77,829.376C3610.2,812.744 3616.28,790.25 3629.98,783.707C3635.82,781.168 3638.4,781.332 3637.75,783.196C3621.26,803.413 3616.88,826.068 3616.97,833.403C3616.99,835.851 3617.99,835.379 3620.14,830.113C3625.92,810.034 3634.3,793.006 3644.07,784.736C3647.85,781.535 3652.39,780.704 3656.18,780.289C3667.64,779.037 3667.97,783.281 3657.93,788.932C3646.49,795.369 3633.03,819.2 3631.31,837.214C3630.72,843.448 3632.92,844.157 3634.6,835.857C3641.85,800.108 3672.93,776.854 3697.4,788.189C3708.41,793.289 3710.32,800.181 3700.72,796.989C3681.28,790.527 3659.39,804.051 3650.17,823.232C3641.83,840.573 3641.87,849.746 3647.21,873.208C3650.78,894.86 3657.93,922.563 3655.13,943.677C3652.38,947.749 3643.99,941.825 3633.99,940.447C3627.97,939.228 3620.59,938.835 3614.25,941.157C3608.72,943.181 3605.59,943.661 3604.62,940.689C3604.3,939.73 3608.94,935.142 3611.01,932.596C3614.32,928.528 3612.47,927.844 3607.82,932.246C3605.54,934.402 3600.64,939.449 3599.32,939.698C3596.41,940.241 3596.34,936.975 3598.8,928.7C3607.47,896.557 3605.28,895.978 3591.31,889.239C3577.45,883.728 3581.9,881.116 3575.8,875.746C3571.4,879.082 3581.21,894.82 3592.51,898.393C3601.75,901.315 3600.55,906.046 3596.3,918.757C3591.92,936.57 3584.53,960.126 3588.38,976.058C3596.45,1009.53 3630.32,1009.34 3656.45,996.242L3659.49,1004.79C3637.43,1013.35 3521.74,1019.26 3482.86,1014.22C3480,1003.65 3479.74,1000.94 3478.7,988.527C3478.7,988.527 3502.61,999.741 3514.59,1001.8C3529.55,1004.37 3552.64,1004.82 3558.76,991.094C3560.62,987.073 3558.82,983.623 3553.61,985.893C3544.03,990.066 3527.73,993.02 3514.61,992.018C3503.59,991.177 3487.94,986.523 3481.21,982.334C3478.01,980.342 3475.34,976.501 3477.93,971.762C3480.18,971.297 3483.1,973.816 3484.83,974.737C3504.57,985.063 3515.46,987.171 3528.49,983.51C3538.37,980.732 3551.78,970.309 3548.55,967.25C3545.21,968.358 3534.05,977.457 3526.42,979.366C3510.71,983.297 3494.11,976.687 3478.01,965.921C3473.05,961.495 3475.39,958.355 3481.48,961.924C3505.66,974.536 3515.7,982.816 3539.25,965.95C3544.51,962.166 3547.41,962.703 3550.43,965.084C3562.37,976.096 3562.43,970.011 3553.72,958.625C3551.75,956.038 3549.98,952.431 3548.83,948.6C3547.97,945.769 3547.82,942.944 3546.23,941.066C3543.53,937.868 3538.6,936.264 3532.98,933.693C3524.86,929.98 3522.12,931.673 3528.11,934.698C3538.59,939.996 3543.65,945.587 3530.58,942.423C3518.76,936.928 3498.85,939.619 3487.49,947.257C3478.6,951.432 3474.65,955.982 3472.71,946.218C3468.64,925.837 3473.29,898.336 3467.96,862.797C3466.94,856.022 3465.64,851.717 3467.07,850.812C3468.9,849.652 3473.37,854.093 3478.87,862.061C3481.38,865.692 3486.36,872.682 3486.35,871.243C3486.66,863.738 3475.18,849.48 3465.63,843.789C3460.38,840.663 3456.98,826.515 3463,829.705C3467.64,832.05 3491.66,853.792 3496.18,861.482C3498.28,865.055 3500.13,862.822 3497.92,858.625C3496.59,856.107 3490.97,848.683 3485.5,843.179C3475.78,833.411 3474.63,833.845 3476.55,831.9C3480.35,828.052 3488.3,833.197 3502.4,846.334C3506,851.014 3510.78,855.262 3510.22,852.955C3511.73,849.375 3497.65,833.789 3489.22,829.545C3487.65,828.529 3487.45,827.477 3487.63,825.568C3488.54,818.316 3504.81,829.221 3518.26,841.873C3523.29,846.612 3519.19,837.774 3513.36,831.725C3508.78,826.97 3501.38,821.033 3496.32,818.959C3491.31,816.805 3491.06,812.402 3495.04,810.612C3508.71,810.234 3522.61,824.399 3530.86,835.495C3533.14,838.544 3535.23,840.897 3532.9,835.156C3525.36,817.86 3509.31,807.944 3498.12,805.818C3489.03,804.092 3489.35,795.87 3497.9,796.925C3507.31,798.086 3522.61,806.812 3535.5,820.161C3539.25,824.045 3545.52,832.828 3544.28,827.709C3544.27,826.32 3540.33,820.821 3535.77,815.51C3525.22,804.731 3512.93,795.16 3499.78,792.172C3493.64,790.339 3475.29,793.602 3475.23,790.427C3475.21,788.084 3477.19,786.709 3483.05,784.854C3505.78,777.658 3538.6,797.568 3556.27,827.7C3557.54,829.857 3559.98,830.801 3560.13,830.322C3551.75,805.785 3524.91,783.265 3503.36,779.159C3488.7,776.589 3473.83,780.122 3466.64,789.922C3458.55,800.948 3461.44,815.897 3473.36,814.875C3479.61,814.389 3479.17,810.838 3479.05,810.722C3478.63,810.296 3474.98,811.948 3472.74,811.475C3464.62,809.759 3465.69,795.054 3477.58,796.679C3491.26,798.548 3492.88,820.181 3477.5,824.501C3463.31,828.488 3458.23,821.96 3454.47,814.249C3448.97,802.954 3455.31,784.965 3465.4,778.179C3493.62,759.184 3528.72,775.956 3548.41,795.485C3558.15,805.147 3565.2,816.568 3569.56,828.836C3570.68,831.689 3573.18,831.433 3572.08,828.5C3545.01,756.318 3461.19,746.73 3448.1,802.275C3428.24,770.128 3410.49,767.645 3383.07,781.151C3355.13,792.234 3341.33,801.396 3315.47,813.067L3257.68,780.957C3255.09,723.05 3257.89,665.045 3258.97,607.119C3259.16,605.77 3246.33,607.853 3224.99,610.883C3168.21,621.362 3173.51,591.088 3166.13,589.454C3162.18,588.605 3162.45,590.306 3162.93,483.5C3163.06,452.479 3163.24,397.941 3163.3,362.3C3163.36,326.659 3163.67,296.973 3164,296.35C3164.33,295.727 3167.55,293.044 3171.25,290.5C3185.19,280.924 3193.02,275.121 3223.55,252.525C3230.46,247.408 3232.2,246.55 3232.2,246.55C3234.73,310.761 3230.65,378.094 3231.55,433.275L3234.1,433.325L3235.8,248.1C3230.61,246.659 3355.93,175.754 3424.36,153.154C3425.65,152.731 3428.81,154.195 3428.81,154.195C3467.2,202.659 3570.25,189.652 3579.38,131.462C3595.9,167.255 3669.75,237.412 3705.17,154.653C3705.17,154.653 3717.22,178.75 3727.83,180.482C3751.68,184.002 3754.39,180.269 3807.37,155.517C3745.89,245.904 3711.32,342.048 3705.37,459.006ZM3673.73,435.788C3674.99,439.837 3675.36,445.054 3674.17,449.15C3672.59,452.342 3670.3,452.264 3670.3,452.264L3658.79,442.138L3647.24,452.539C3647.24,452.539 3640.37,445.413 3644.34,435.729C3651.83,422.23 3668.48,424.928 3673.73,435.788L3673.73,435.788ZM3974.77,438.554C3982.23,438.191 3978.25,446.715 3967.14,452.368C3960.16,455.915 3954.4,456.863 3951.94,455.507C3950.63,451.458 3951.84,447.801 3952.71,446.179C3957.46,443.832 3970.45,439.778 3974.77,438.554ZM3493.05,447.725C3501.33,447.644 3508.43,453.647 3508.54,464.099C3508.59,468.358 3506.34,472.546 3506.34,472.546L3492.65,462.148L3481.92,473.263C3480.11,473.867 3473.75,465.698 3478.33,456.977C3481.66,450.637 3487.38,447.781 3493.05,447.725ZM3693.04,455.427C3704.6,460.873 3706.38,477.175 3694.97,483.279C3689.55,486.181 3681.06,487.718 3677.19,481.632L3688.81,469.326L3675.83,458.087C3675.33,457.567 3685.98,452.104 3693.04,455.427ZM3972.48,455.207C3974.49,455.233 3974.99,456.008 3975.54,457.889C3977.09,463.228 3972.87,468.516 3965.68,470.104C3959.03,471.571 3959.65,472.354 3956.6,466.393C3954.21,461.722 3953.55,461.907 3957.42,460.496C3962.09,459.055 3967.09,457.368 3972.48,455.207ZM3641.33,458.382C3641.33,458.382 3632.95,466.654 3629.28,470.11L3641.52,483.257C3642.1,484.842 3627.07,491.385 3619.36,481.073C3614.35,474.378 3617.41,461.828 3624.71,457.612C3632.17,453.305 3642.72,457.126 3641.33,458.382ZM3659.15,457.175C3666.49,457.175 3672.43,463.113 3672.43,470.45C3672.43,477.787 3666.49,483.75 3659.15,483.75C3651.81,483.75 3645.85,477.787 3645.85,470.45C3645.85,463.113 3651.81,457.175 3659.15,457.175ZM3477.22,476.893L3465.12,489.195L3477.81,503.406C3477.81,503.406 3467.59,504.923 3463.97,504.193C3446.48,500.655 3448.49,480.108 3462.14,474.864C3467.9,472.939 3472.14,473.673 3477.22,476.893ZM3243.25,477.733C3243.25,477.733 3245.21,504.194 3247.22,513.25C3245.66,523.53 3238.9,530.444 3235.75,540.975C3234.09,545.657 3227.99,551.895 3226.93,545.25C3222.71,536.998 3227,526.934 3223.5,521.05C3220.84,515.512 3222.35,512.447 3221.22,506.725C3217.92,501.96 3216.36,499.805 3216.97,495.625C3216.54,476.932 3211.82,480.568 3203.5,481.975C3171.29,484.279 3171.04,502.805 3172.68,526.35C3167.79,548.331 3176.28,543.237 3175.95,547.2C3175.43,553.483 3176.32,562.304 3178.2,563.3C3189.48,576.619 3189.92,585.741 3204.88,583.7C3230.11,586.04 3270.3,582.869 3279.42,552.202C3285.46,508.858 3287.73,467.634 3243.25,477.733ZM3494.43,477.125C3501.51,477.125 3507.25,482.865 3507.25,489.95C3507.25,497.035 3501.51,502.775 3494.43,502.775C3487.34,502.775 3481.6,497.035 3481.6,489.95C3481.6,482.865 3487.34,477.125 3494.43,477.125ZM3254.28,480.375C3259.05,480.387 3264.66,481.472 3269.22,485.975C3279,495.622 3279.31,504.244 3274.38,540.75C3272.99,551.034 3269.23,559.594 3264.38,563.275C3254.62,570.67 3242.72,575.871 3232.95,578.125C3227.8,579.314 3223.33,579.277 3219.85,579.2C3216.1,579.116 3213.93,577.35 3213.7,574.2C3214.65,565.697 3205.97,564.741 3200.93,565.15C3191.94,565.376 3191.01,566.307 3196.68,562.05C3203.14,557.192 3217.87,557.335 3220.62,560.275C3226.45,554.607 3232.46,554.023 3239.8,553.275C3238.74,551.664 3236.2,545.246 3238,541.175C3241.89,534.555 3248.45,522.87 3255.22,518.55C3261.99,509.972 3256.29,513.812 3252.18,513.9C3249.82,513.951 3250.03,513.179 3249.68,511.6C3248.14,504.817 3245.96,492.149 3246.05,484.625C3246.09,480.999 3249.5,480.363 3254.28,480.375ZM3211.88,489.125C3214.43,491.467 3214.36,494.683 3211.6,497.039C3208.44,499.732 3202.28,498.131 3202.2,492.975C3202.69,487.78 3208.77,486.399 3211.88,489.125ZM3659.2,513.933C3648.43,514.313 3639.74,502.67 3643.96,491.254C3646.23,488.18 3647.18,488.64 3647.18,488.64L3659.28,499.764L3671.21,487.639C3680.72,499.463 3672.21,513.25 3659.2,513.933ZM3198.76,489.418C3197.83,492.763 3198.94,496.127 3199.06,497.761C3196.9,499.249 3187.78,501.772 3182.87,504.099C3179.47,505.214 3177.06,501.997 3177.58,499.1C3178.94,493.71 3186.95,490.292 3192.75,488.7C3194.54,488.289 3197.48,488.168 3198.76,489.418ZM3200.53,504.925C3203.81,504.577 3202.74,511.7 3201.46,515.331C3200.2,517.922 3196.59,517.76 3193.34,517.903C3187.61,518.154 3180.29,524.66 3177.2,523.55C3176.18,523.059 3175.48,520.33 3175.4,518.6C3176.21,509.083 3192.09,505.818 3200.53,504.925ZM3217.7,515.1C3216.58,516.68 3213.06,517.401 3210.12,516.55C3205.33,515.159 3204.69,508.237 3208.95,505.925C3216.45,503.565 3220.83,510.63 3217.7,515.1ZM3693.6,506.275L3686.93,516.125L3677,515.8L3692.33,565.25L3700.03,546.125C3701.15,537.296 3702.45,528.489 3703.5,519.65L3693.6,506.275ZM3482.39,507.358L3494.93,517.895L3505.98,506.924C3513.81,525.095 3504.36,533.224 3494.44,532.861C3483.49,532.461 3471.96,521.914 3482.39,507.358ZM3203.47,521.975C3207.51,521.269 3205.63,532.113 3205.06,532.417C3202.48,533.327 3191.39,534.613 3186.68,538.475C3176.63,546.108 3172.47,541.301 3177.2,532.05C3181.63,526.695 3197.71,521.995 3203.47,521.975ZM3216.1,522.675C3220.53,522.325 3223.56,527.265 3220.79,531.889C3217.08,535.243 3210.68,532.651 3210.78,527.825C3210.8,524.792 3213.33,522.794 3216.1,522.675ZM3209.18,550.15C3209.74,552.695 3208.87,551.898 3204.2,553.2C3201.63,553.917 3197.57,555.569 3193.35,557.625C3187.16,560.64 3185.4,562.286 3183.22,561.9C3181.5,561.496 3179.51,560.717 3179,558.952C3176.96,551.899 3182.78,544.823 3196.18,540.1C3198.96,539.118 3203.93,538.363 3205.63,538.2C3210.15,538.279 3205.22,545.152 3209.18,550.15ZM3217.2,539.7C3223.64,539.7 3224.72,548.266 3219.88,549.699C3208.56,552.452 3209.7,539.583 3217.2,539.7ZM3208.8,571.075C3210.59,572.84 3210.8,575.695 3208.75,577.15C3205,578.932 3190.74,577.161 3190.7,573.15C3190.68,570.503 3195.47,569.678 3199.91,569.656C3204.36,569.633 3207.37,569.664 3208.8,571.075ZM3853.78,584.825L3841.78,600.4L3857,640.175L3872.12,592.5L3860.72,596.825L3853.78,584.825ZM3187.12,615.782C3188.08,737.612 3183.57,1016.69 3183.57,1016.69L3217.89,1040.76L3254.76,1015.06C3255.66,927.21 3256.19,866.61 3257.03,785.275L3310.08,815.425C3310.08,815.425 3311.68,817.815 3311.28,828.8C3307.14,859.096 3336.2,879.225 3355.85,867.525C3363.41,864.477 3364.03,863.925 3365.59,866.321C3369.87,872.914 3374.4,900.944 3374.96,918.793C3375.82,945.686 3382.09,1000.58 3383.79,1000.98L3294.62,1146.45L3156.84,1144.45L3164.79,597.378C3171.72,605.787 3175.4,611.288 3187.12,615.782ZM3692.35,611.375L3685.68,621.25L3677.8,621.125L3690.88,672.3L3708.33,622.7L3699.12,621.425L3692.35,611.375ZM3250.62,1011.53C3250.62,1011.53 3233.51,1023.44 3228.05,1026.85C3225.19,1027.88 3223.81,1028.05 3223.18,1025.33C3222.39,1021.97 3223.82,1015.66 3225.15,1005.23C3226.38,995.573 3226.38,995.028 3224.97,981.225C3223.51,966.808 3223.31,966.202 3224.95,947.225C3226.78,926.058 3227.37,905.487 3225.88,892.725C3224.46,880.592 3224.88,852.974 3226.33,837.575C3228.1,818.722 3227.85,802.155 3225.58,788.425C3221.52,763.946 3220.92,755.527 3225.78,737.225C3227.59,730.376 3228.5,726.732 3228.31,715.217C3228.1,702.413 3227.92,698.232 3223.75,669.825C3221.35,653.472 3221.18,651.229 3224.03,625.45C3224.6,620.248 3224.82,616.766 3226.83,615.142C3229.18,613.246 3253.35,612.191 3253.35,612.191L3250.62,1011.53ZM3192.83,616.325L3219.14,616.421C3216.99,624.631 3216.45,630.893 3216.15,636.85L3193,621.15L3192.83,616.325ZM3193.06,626.859L3215.97,642.3C3215.91,648.674 3215.34,654.745 3216.18,661.128L3192.95,645.225L3193.06,626.859ZM3192.75,650.827L3217.27,668.114C3218.14,674.721 3220.06,681.416 3220.75,687.354L3192.95,667.95L3192.75,650.827ZM3993.41,669.127L3987.63,1156.52L3741.14,1152.94L3665.2,1001.74C3665.2,1001.74 3666.19,987.942 3668.22,980.925C3670.68,972.442 3671.34,970.595 3674.62,970.24C3683.32,974.909 3693.18,969.011 3696.27,962.408C3700.08,954.277 3692.79,941.781 3681.38,938.93C3676.35,937.656 3670.8,939.845 3665.16,944.018C3661.89,946.675 3661.16,946.968 3660.55,944.607C3659.17,939.289 3664.08,924.956 3672.67,912.717C3677.45,905.909 3678.75,903.952 3680.22,906.589C3686.19,917.255 3699.35,915.256 3704.42,909.352C3710.55,902.208 3709.53,885.702 3695.94,881.134C3669.35,872.197 3656.7,898.827 3657.03,898.765L3651.78,866.543C3684.05,859.131 3702.66,856.615 3713.01,847.013C3721.16,839.457 3725.19,826.242 3724.37,814.428C3724.37,814.428 3814.24,779.436 3856.37,757.51C3928.93,719.757 3993.41,669.127 3993.41,669.127ZM3857.33,670.675L3850.55,682.2L3841.18,682.075L3859.43,731.425L3874.65,680.4L3865.6,681.075L3857.33,670.675ZM3193.56,675.125L3221.65,695.1C3222.18,701.46 3222.91,707.129 3221.95,714.313L3192.38,694.125L3193.56,675.125ZM3747.2,677.15L3740,686.425L3731.88,685.45L3747.12,734.275C3752.18,720.301 3756.88,701.295 3761.88,687.3L3754.33,687.55L3747.2,677.15ZM3192.7,700.1L3221.78,719.971C3221.8,725.977 3222,731.638 3219.85,735.85L3192.4,717.675L3192.7,700.1ZM3801.72,711.75L3794.4,725.35L3784.93,723.925L3801.22,770.75L3820.45,724.875L3808.95,725.325L3801.72,711.75ZM3192.43,722.75L3217.61,741.811C3217.97,742.085 3216.06,750.317 3216.4,755L3192.4,739.725L3192.43,722.75ZM3192.78,745.875L3216.28,762.525C3216.24,768.707 3216.58,774.527 3217.47,779.8L3191.95,762.7L3192.78,745.875ZM3192.03,769.425L3219.18,789.356L3220.41,805.076L3191.6,786.375L3192.03,769.425ZM3417.83,779.25C3444.02,789.45 3467.98,839.884 3466.28,904.704C3465.1,949.705 3477.77,1014.15 3477.53,1013.4C3477.53,1013.4 3469.87,1014.31 3467.74,1012.59C3458.3,979.394 3455.5,944.425 3454.35,915.6C3453.42,891.564 3452.38,867.972 3450.93,862.446C3446.89,843.013 3442.53,820.347 3430.36,805.445C3420.88,794.204 3409.91,792.111 3403.15,804.482C3397.62,814.615 3408.71,831.677 3418.2,826.196C3420.5,824.951 3421.89,822.807 3418.9,822.825C3409.12,824.131 3402.75,810.525 3409.03,804.175C3420.08,792.993 3438.76,818.536 3429.72,832.314C3425.74,838.272 3415.55,839.186 3407.43,836.85C3389.45,827.829 3385.21,806.321 3391.48,792.281C3396.26,781.573 3406.5,775.286 3417.83,779.25ZM3385.88,785.225C3388.01,785.356 3386.5,789.28 3384.43,795.406C3379.56,810.09 3387.96,833.133 3400,837.875C3403.6,840.399 3403.39,841.334 3400.94,842.661C3392.98,846.986 3378.83,833.463 3375.26,818.576C3372.68,807.805 3373.54,795.15 3378.78,789.85C3381.64,786.952 3383.9,785.439 3385.43,785.25C3385.58,785.23 3385.73,785.216 3385.88,785.225L3385.88,785.225ZM3191.43,791.1L3220.45,810.675C3221.73,816.671 3221.03,823.031 3220.03,829.45L3190.99,808.587L3191.43,791.1ZM3368.25,793.425C3370.42,793.388 3369.56,797.017 3368.86,803.654C3367.24,819.024 3371.84,830.283 3382.58,839.732C3387.11,843.718 3388.35,844.965 3386.34,846.993C3383.5,849.871 3375.52,845.843 3369.32,839.185C3357.96,826.995 3354.47,804.244 3363.58,796.15C3365.57,794.374 3367.11,793.444 3368.25,793.425ZM3694.13,800.829C3706.66,800.524 3717.16,805.533 3718.1,820.85C3719.48,843.275 3698.43,855.222 3684.05,842.15C3671.19,829.049 3684.71,809.029 3699.7,818.718C3707.24,823.626 3698,834.431 3691.93,828.688C3689.19,826.098 3687.95,827.665 3689.88,830.638C3695.7,839.614 3707.54,832.391 3706.81,824.55C3705.38,809.133 3686.47,809.056 3679.26,814.981C3669.39,823.088 3660.62,835.111 3654.09,843.869C3648.74,851.472 3647.61,851.251 3648.53,841.775C3650.94,816.732 3674.59,801.304 3694.13,800.829ZM3353.08,800.775C3355.07,800.732 3354.24,803.58 3354.28,810.953C3354.81,829.89 3362.62,841.788 3372.64,848.528C3375.98,852.323 3371.6,854.914 3365.24,853.01C3350.77,848.322 3336.38,816.875 3348.9,803.625C3350.66,801.765 3352.03,800.798 3353.08,800.775ZM3338.85,806.775C3340.87,806.676 3339.67,810.842 3339.74,818.739C3339.9,835.361 3344.93,843.415 3357.14,853.736C3361.11,857.098 3361.62,856.735 3360,858.543C3355.7,863.355 3341.47,856.247 3335.5,846.207C3328.39,834.258 3327.58,816.377 3334.45,809.725C3336.37,807.865 3337.79,806.827 3338.85,806.775ZM3324.68,814.575C3326.34,814.608 3325.37,817.596 3325.52,824.775C3325.89,842.183 3329.74,850.852 3340.66,859.061C3347.53,864.218 3349.24,862.727 3347.09,864.696C3343.32,868.147 3333.2,864.989 3325.67,858.443C3314.38,848.63 3311.52,824.788 3320.93,816.775C3322.6,815.346 3323.8,814.558 3324.68,814.575ZM3191.58,815.1L3219.45,835.025L3218.41,851.491L3190.68,832.125L3191.58,815.1ZM3683.45,853.15C3672.02,850.636 3667.8,842.301 3669.33,832.948C3669.84,829.823 3671.7,828.059 3673.61,832.179C3675.2,838.7 3679.4,847.769 3685.3,849.604C3687.68,850.343 3685.64,853.631 3683.45,853.15ZM3437.22,830.115C3449.67,862.841 3448.93,898.396 3450.58,932.023C3452.78,976.721 3460.25,1006.91 3462.75,1012.02C3462.75,1012.02 3450.13,1011.98 3449.51,1010.14C3449.51,1010.14 3438.46,950.749 3440.68,921.49C3441.29,888.72 3435.33,859.82 3431.62,846.818C3427.66,835.287 3427.37,842.862 3437.22,830.115ZM3191.07,839.25L3217.9,857.35C3217.43,863.404 3217.29,869.464 3217.28,875.525L3190.99,856.35L3191.07,839.25ZM3555.35,843.025C3555.36,844.011 3559.24,844.898 3565.37,843.51C3572.18,841.97 3578.93,842.358 3584.12,843.865C3589.64,845.466 3590.27,843.689 3585.29,841.429C3582.86,840.328 3579.01,837.844 3573.19,837.864C3567.37,837.883 3555.34,840.877 3555.35,843.025ZM3665.09,843.935C3665.73,845.16 3667.76,847.923 3669.57,850.085C3672.99,854.18 3673.97,854.221 3672.36,855.85C3668.66,859.602 3661.06,853.975 3660.34,846.929C3659.7,841.782 3662.31,838.574 3665.09,843.935ZM3422.51,841.796C3434.9,860.008 3436.16,902.32 3435.98,932.38C3435.82,959.451 3444.26,1009.18 3445,1008.97C3442.37,1010.47 3438.87,1009.88 3435.6,1008.57C3432.41,1004.28 3430.59,992.371 3427.28,960.15C3426.42,951.837 3424.89,925.409 3424.77,904.146C3424.66,885.388 3414.78,844.651 3414.78,844.651C3414.78,844.651 3418.89,841.818 3422.51,841.796ZM3408.37,846.1C3419.52,871.995 3421.03,897.568 3421.1,928.575C3421.16,957.904 3427.18,992.35 3429.42,1007.55C3425.52,1007.89 3421.41,1008.16 3419.8,1006.38C3418.78,1004.94 3417.99,1002.7 3417.53,999.825C3412.65,974.388 3411.8,946.795 3410.63,923.45C3408.9,887.271 3408.45,878.317 3403.59,860.223C3400.83,849.96 3399.8,850.159 3402.03,848.225C3403.72,846.754 3406.91,846.05 3408.37,846.1ZM3537.91,853.9C3538.06,865.878 3539.67,861.021 3543.93,859.175C3547.11,858.95 3549.69,860.729 3555.58,862.987C3563.07,865.863 3562.38,866.782 3567.72,864.26C3571.01,862.705 3573.62,862.189 3575.16,863.481C3581.28,868.602 3589.32,865.885 3593.88,861.875C3597.41,860.094 3601.23,861.148 3604.2,861.464C3608.48,861.92 3607.4,859.172 3608.01,853.765C3608.55,848.964 3606.72,848.516 3601.72,850.065C3596.61,851.65 3591.55,851.814 3587.15,850.402C3575.91,846.79 3567.61,848.91 3562,849.709C3548.74,851.595 3548.06,850.251 3545.09,848.313C3542.87,846.868 3539.22,844.21 3537.94,844.269C3536.66,844.328 3537.02,848.67 3537.91,853.9L3537.91,853.9ZM3655.32,850.103C3656.59,849.479 3657.14,851.197 3658.86,853.504C3661.73,857.36 3662.56,859.17 3660.1,859.489C3653.59,860.335 3651.99,859.633 3652.28,855.6C3652.5,852.384 3653.23,851.133 3655.32,850.103ZM3394.69,852C3404.08,861.743 3405.72,915.658 3406.63,927.273C3409.16,990.176 3414.99,999.292 3411.86,1003.97C3408.25,1003.85 3406.97,1005.17 3404.66,1001.98C3396.84,978.839 3397.65,955.184 3396.68,931.146C3395.28,899.307 3392.37,882.03 3388.12,866.2C3385.3,855.675 3385.34,855.501 3390.75,852.7C3391.71,852.203 3393.83,851.958 3394.69,852ZM3381.74,859.388C3384.98,867.073 3391.22,901.869 3391.7,931.84C3392.09,955.637 3397.09,1002.23 3398.14,1002.5C3394.67,1002.76 3390.51,1002 3388.87,999.344C3379.13,953.343 3383.09,908.943 3371.74,862.662C3372.49,860.437 3376.35,856.806 3381.74,859.388ZM3191.12,862.275L3218.93,882.825L3219.28,900.025L3190.9,879.266L3191.12,862.275ZM3608.71,866.171C3592.76,872.096 3588.58,877.087 3591.01,881.562C3593.06,885.331 3599.39,884.11 3616.39,877.306C3629.09,872.221 3633.02,874.578 3635.47,882.568C3635.17,894.312 3623.76,895.513 3617.35,893.805C3614.59,893.66 3615,893.921 3617.89,897.644C3630.81,908.093 3647.14,888.267 3639.34,875.431C3633.25,863.721 3622.47,860.256 3608.71,866.171ZM3509.08,869.491C3495.84,879.571 3500.25,898.14 3511.1,901.075C3514.11,902.658 3518.64,901.998 3520.43,900.85C3522.08,899.791 3522.09,898.029 3518.75,897.425C3508.66,895.597 3503.03,888.098 3508.03,880.65C3512.87,873.421 3521.64,874.95 3538.43,882.475C3552.94,888.98 3559.37,887.129 3561.2,879.6C3562.01,876.275 3561.13,873.134 3554.12,872.773C3534.65,871.768 3521.9,859.727 3509.08,869.491ZM3683.82,900.359C3683.03,895.021 3674.29,900.358 3668.42,909.71C3662.64,918.911 3662.03,920.23 3661.03,910.575C3659.52,896.178 3674.6,885.153 3683.91,884.928C3695.14,883.798 3702.41,890.174 3702.59,897.402C3702.95,911.629 3685.98,911.525 3683.82,900.359ZM3190.18,884.7L3219.63,905.56C3219.63,905.56 3220.48,916.525 3219.75,922.4L3190.15,902.85L3190.18,884.7ZM3547.3,896.75C3534.23,905.336 3541.61,921.46 3550.63,923.394C3560.14,925.432 3560.91,918.783 3551.45,916.681C3546.41,914.616 3545.18,909.77 3547.22,906.07C3551.85,898.735 3560.14,903.647 3564.97,906.025C3575.7,911.318 3581.26,913.278 3584.72,909.775C3590.88,903.55 3585.64,892.222 3577.58,896.075C3575.4,897.115 3573.76,898.108 3569.18,896.903C3562.24,895.342 3553.89,893.664 3547.3,896.75ZM3190.08,908.992L3219.05,929.45L3217.9,947.15L3190.72,926.594L3190.08,908.992ZM3190.33,933.35L3217.57,953.364C3217.05,960.844 3217.2,963.826 3217.43,968.6L3189.85,950.225L3190.33,933.35ZM3677.03,944.193C3699.07,946.671 3691.39,971.918 3676.08,964.85C3672.01,961.699 3670.77,961.93 3666.04,972.986C3659.99,987.126 3658.58,985.949 3659.62,969.525C3660.45,953.441 3667.98,944.187 3677.03,944.193ZM3503.07,945.527C3503.59,945.548 3504.01,945.64 3504.27,945.852C3505.73,947.546 3501.16,954.099 3497.31,957.928C3494.48,959.723 3487.76,954.667 3489.44,952.275C3491.41,949.95 3499.5,945.836 3503.07,945.527ZM3532.33,959.012L3528.38,959.52C3522.61,946.163 3510.19,949.024 3506.19,961.29L3500.76,960.592C3506.47,945.564 3526.2,936.582 3532.33,959.012ZM3643.42,963.656L3636.74,963.959C3630.96,949.474 3622.51,947.199 3615.11,961.319L3609.96,959.75C3619.12,941.7 3634.03,940.457 3643.42,963.656ZM3610.28,946.749C3613.7,946.592 3613.24,948.159 3609.61,952.968C3606.46,957.148 3605.7,957.801 3602.62,955.45C3597.59,951.594 3606.12,946.969 3610.28,946.749ZM3641.91,947.633C3642.56,947.681 3643.32,947.756 3644.18,947.983C3651.04,949.784 3654.15,953.088 3650.72,957.222C3648.57,959.798 3646.51,960.791 3645.15,959.025C3640.62,951.302 3638.1,947.348 3641.91,947.633ZM3537.89,950.655C3538.57,953.514 3536.28,955.506 3533.8,953.1C3532.79,952.12 3531.92,950.458 3532.07,949.249C3533.66,947.79 3537.41,949.075 3537.89,950.655ZM3189.72,955.39L3217.73,976.125C3218.56,983.298 3218.67,988.738 3218.55,993.627L3189.7,973.9L3189.72,955.39ZM3602.16,967.539C3618.3,978.945 3637.42,979.073 3649.52,969.437C3652.22,967.284 3654.55,967.223 3654.57,969.331C3652.75,977.136 3631.82,986.875 3615.66,980.948C3606.79,977.693 3599.51,974.488 3593.77,966.071C3590.37,960.595 3597.48,964.199 3602.16,967.539ZM3595.18,972.882C3618.71,993.78 3637.74,988.348 3652.24,978.192C3654.37,977.694 3654.38,979.602 3654.8,983.157C3655.34,987.712 3651.53,989.902 3641.16,992.843C3621.12,998.528 3597.8,991.644 3593.78,978.2C3593.32,975.561 3592.36,972.13 3595.18,972.882ZM3189.28,979.3L3217.68,999.398L3216.55,1014.43L3188.88,995.125L3189.28,979.3ZM3189.4,1002.35L3216.22,1021.1L3215.95,1033.55L3189.88,1014.4L3189.4,1002.35ZM3386.05,1011.05C3501.22,1038.87 3583.3,1027.64 3663.88,1014.65L3733.05,1155.33L3303.96,1149.67C3332.64,1104.69 3356.68,1055.41 3386.05,1011.05Z" style="fill:rgb(19,31,103);fill-rule:nonzero;"/>
                                        </g>
                                        <g id="path3442-2-7-0" transform="matrix(0.999573,0.0206431,-0.020645,0.999787,-3096.07,-386.227)">
                                            <path d="M3404.7,-194.475C3417.07,-173.226 3426.82,-151.275 3437.95,-129.538L3439.73,-128.394L3442.4,-123.366L3442.7,-120.92L3449.3,-110.365L3449.25,-108.098L3477.25,-56.025C3500.34,-64.645 3690.02,-80.165 3760.25,-54.775L3770.48,-72.111L3772.93,-72.128L3790.97,-103.771L3790.68,-106.433L3796.75,-113.354L3797.63,-116.506L3817.53,-147.654L3817.6,-152.675L3842.5,-194.175L3404.7,-194.475ZM3834.18,-188.5C3834.18,-188.5 3821.19,-163.539 3814.5,-153.45C3809.09,-157.721 3793.39,-154.821 3794.33,-138.275C3768.74,-147.968 3762.57,-117.446 3782.35,-110.575C3772.2,-101.711 3762.49,-111.736 3754.8,-118.535C3747.27,-116.67 3731.64,-111.137 3722.78,-127.417C3722.78,-127.417 3726.48,-125.42 3730.18,-123.25C3751.11,-116.887 3752.79,-145.126 3737.22,-149.75C3735.26,-150.265 3731.58,-150.475 3731.58,-150.475C3736.81,-172.191 3703.21,-179.773 3702.58,-153.675C3702.58,-153.675 3698.58,-154.327 3695.55,-153.775C3677.74,-150.529 3681.82,-124.268 3700.03,-125.525C3702.53,-125.698 3704.78,-125.25 3704.78,-125.25C3704.48,-121.044 3682.45,-113.008 3666.58,-127.475C3659.05,-121.742 3647.13,-114.557 3631.6,-128.85C3641.82,-129.266 3651.61,-132.172 3651.5,-143.75C3651.43,-151.288 3644.65,-158.017 3634.88,-158.375C3634.32,-166.797 3628.05,-174.833 3619.9,-175.45C3609.95,-174.87 3604.87,-166.847 3604.8,-158.375C3596.34,-157.502 3588.43,-150.049 3590.25,-141.5C3592.73,-129.838 3601.72,-128.403 3611.97,-130.625C3599.5,-110.571 3579.18,-121.031 3572.93,-127.425C3565.47,-120.468 3552.46,-111.048 3536.45,-123.925C3544.99,-125.385 3554.48,-130.391 3552.88,-142.3C3551.61,-151.685 3541.08,-154.471 3536.5,-153.975C3536.49,-160.176 3531.81,-170.407 3520.75,-169.35C3508.69,-168.197 3509.41,-152.945 3509.55,-152.825C3499.59,-153.646 3492.36,-141.93 3495.2,-134.45C3498.66,-125.348 3505.9,-122.518 3519.2,-124.975C3503.68,-110.411 3493.82,-116.064 3485.35,-119.125C3477.85,-111.267 3467.84,-108.733 3457.58,-115.7C3480.53,-114.606 3476.88,-155.192 3449.65,-140.475C3430.28,-163.26 3430.63,-153.135 3413.28,-186.65L3834.18,-188.5ZM3620.2,-148.5C3621.31,-148.546 3622.49,-148.316 3623.65,-147.725C3627.24,-145.898 3627.91,-142.71 3625.72,-138C3624.95,-136.346 3623.84,-134.448 3624.03,-132.7C3649.31,-86.077 3705.05,-106.913 3710.3,-128.575C3710.63,-129.949 3709.99,-131.453 3709.28,-132.925C3707.13,-136.489 3707.41,-139.407 3710.2,-141.85C3716.13,-147.054 3724.64,-140.912 3721.2,-133.9C3720.29,-132.05 3719.33,-130.024 3720.03,-127.55C3734.34,-95.057 3762.84,-92.615 3786.75,-105.475C3775.73,-85.753 3733.03,-73.66 3715.1,-121.15C3686.48,-82.461 3641.06,-83.192 3620.45,-126.875C3601.91,-82.193 3545.98,-81.136 3525.62,-118.25C3507.1,-75.792 3464.12,-85.425 3451.95,-112C3491.87,-83.113 3518.17,-113.268 3522.9,-126.125C3522.9,-126.125 3521.97,-127.626 3520.7,-128.875C3515.59,-133.888 3515.73,-139.785 3521.03,-142.125C3527.81,-145.123 3534.16,-138.614 3530.68,-132.225C3529.7,-130.435 3528.84,-130.043 3529.47,-128.5C3541.9,-99.548 3603.08,-91.136 3615.47,-131.75C3615.89,-134.07 3615.66,-136.215 3614.6,-137.975C3611.69,-142.826 3615.39,-148.3 3620.2,-148.5ZM3441.6,-132.1C3451.25,-131.552 3448.56,-123.255 3446.62,-122.625L3441.6,-132.1ZM3799.95,-126.925C3800.02,-126.769 3794,-116.175 3794,-116.175C3790.81,-121.261 3791.64,-127.594 3799.95,-126.925ZM3767.33,-73.4C3767.33,-73.4 3761.16,-59.77 3759.12,-58.625C3644.82,-87.905 3485.32,-62.446 3481.4,-59.625L3474.38,-72.85C3574.6,-92.873 3674.53,-88.596 3767.33,-73.4ZM3574.22,129.15C3563.19,171.716 3536.47,176.048 3504.2,181.225C3464.23,187.638 3438.18,173.076 3426,150.825C3426,150.825 3368.84,172.425 3347.97,184.975C3391.35,204.845 3448.65,248.843 3481.22,298.8C3492.83,314.033 3492.24,310.587 3492.22,344C3492.18,416.46 3492.35,443.4 3492.35,443.4C3510.24,446.081 3511.22,458.386 3510.25,472.208C3524.61,465.865 3538.43,473.627 3538.37,487.18C3538.26,512.092 3513.78,505.324 3508.7,502.578C3516.66,524.536 3507.32,533.628 3497.78,534.707C3486.01,536.036 3472.52,530.382 3476.46,505.251C3463.64,510.232 3447.4,501.181 3445.15,486.05L3444.53,460.425C3476.24,400.763 3436.43,352.253 3399.05,336.3C3399.05,336.3 3409.62,314.437 3423.3,308.3C3424.69,307.88 3415.01,293.68 3398.72,296.775C3391.23,296.93 3392.97,296.878 3385.93,287.725C3371.99,269.631 3365.43,268.391 3351.85,287.75C3345.87,296.272 3344.44,296.504 3337.38,296.65C3329.59,296.811 3317.64,302.404 3315.08,307.4C3314.49,308.543 3317.54,309.71 3321.6,314.45C3327.44,321.27 3336.45,330.637 3335.03,340.175C3304.24,352.697 3253.18,407.646 3306.88,478L3268.05,478.5L3266.2,228.05L3239.2,243.075L3240.4,439.25L3232.7,436.7C3233.29,374.126 3232.35,311.593 3230.38,249.05L3159.18,300.925L3162.35,595.075L3169.93,596.675C3175.54,636.754 3254.94,608.723 3259.58,612.2L3260.53,775.65L3257.05,783.75L3320.22,818.275L3378.18,788.225C3378.18,788.225 3386,786.818 3388.93,785.275C3412.95,772.614 3430.86,775.454 3443.93,794.025C3451.98,805.482 3453.35,807.175 3453.35,807.175C3458.24,774.12 3487.55,761.938 3515.97,770.575C3536.89,776.928 3565.46,797.763 3574.2,823.2C3574.2,823.2 3575.77,827.028 3577.33,828.75L3578.53,829.275C3578.45,828.612 3577.14,825.442 3576.65,823.9C3547.33,756.561 3464.7,746.233 3451.95,801.25L3440.25,784.85L3501.78,747.125L3585.85,802.45C3585.85,802.45 3581.9,821.898 3581.45,830.3L3582.9,830.975C3583.48,820.8 3586.53,809.17 3591.35,800.55C3593.34,796.996 3595.64,794.104 3598.22,791.95C3603.25,789.034 3607.9,789.333 3613,784.55L3600.72,775.375L3600.45,745.925L3625.12,780.475C3632.88,778.68 3663.1,769.664 3681.03,779.65C3683.05,780.276 3709.34,772.783 3725.7,809.45L3804.5,776.725C3804.5,776.725 3809.52,773.896 3809.58,773.15C3731,744.156 3651.66,641.501 3659.3,639.85C3659.3,639.85 3659.07,629.316 3659.68,603.475C3660.31,574.67 3659.97,545.265 3660.45,516.363C3633.71,507.826 3640.36,486.275 3640.36,486.275C3624.28,489.801 3621.72,486.679 3617.65,483.85L3614.88,456.575C3624.51,448.374 3630.3,447.61 3642.22,450.225C3642.22,450.225 3636.44,438.375 3641.7,428.625C3646.13,420.913 3657.91,416.046 3667.33,421.475C3679.49,429.762 3675.61,447.124 3673.88,449.55C3686.52,443.887 3701.97,450.198 3705.78,462.7C3707.67,425.731 3710.88,384.345 3718.3,352.1C3731.98,293.902 3754.37,232.955 3782.43,185.025C3787.01,177.018 3792.87,168.997 3797.6,161.5C3801.99,154.823 3804.08,150.5 3804.08,150.5C3804.08,150.5 3798.08,153.804 3791.72,155.575C3782.59,158.051 3775.72,160.408 3774.68,161.45C3767.99,167.072 3759.23,171.239 3752.08,174.35C3726.84,184.171 3709.87,169.524 3699.39,147.155C3693.56,175.565 3667.53,199.603 3629.13,184.665C3607.43,173.151 3600.61,165.79 3580.33,135.75C3578.62,132.679 3574.22,129.15 3574.22,129.15ZM3575.06,133.793C3589.42,162.176 3610.91,182.287 3631.8,190.326C3669.1,202.553 3693.71,178.672 3700.65,156.733L3707.85,168.921L3651.37,209.018L3566.15,154.842C3567.57,153.536 3575.19,134.448 3575.06,133.793ZM3831.53,135.75L3806.22,150.65C3806.22,150.65 3789.42,177.765 3783.78,187.975C3754.26,240.102 3732.1,296.813 3720.55,353.075C3715.88,373.677 3710.93,411.308 3709.28,429.4C3706.64,458.26 3706.77,470.109 3707.53,496.575L3709.5,498.725C3709.5,498.725 3706.4,504.166 3704.18,508.75C3698.13,521.209 3696.66,528.255 3697.03,542.7C3697.87,575.94 3718.08,607.758 3746.62,620.725C3748.23,621.456 3750.38,622.4 3750.38,622.4C3750.38,622.4 3745.48,635.632 3736.6,644.95C3730.68,651.165 3729.41,651.469 3731.5,654.525C3734.41,658.778 3743.82,662.472 3755.5,662.3C3759.64,662.239 3759.61,662.229 3767.25,670.55C3782.17,686.795 3786.65,686.462 3800.22,668.05C3804.26,662.577 3806.56,661.266 3812.45,661.125C3821.12,660.918 3836.94,653.921 3836.88,650.65C3826.2,645.923 3813.83,621.557 3815.8,621.3C3874.17,590.415 3886.54,526.398 3843.91,479.325L3884.62,478.675L3886.12,734.05C3894.1,728.758 3912.12,717.375 3912.12,717.375L3911.53,518.653C3914.33,519.184 3917.18,521.189 3922.62,522.075L3924.22,711.301C3924.22,711.301 3976.54,674.425 4001.43,655.175L3999.9,365.6L3993.95,365.6L3994.9,655.025L3925.78,705.5L3925.33,525.625C3925.33,525.625 3930.79,524.81 3932.83,524.525C3953.06,521.694 3962.43,495.896 3949,479.05C3944.23,473.07 3947.62,473.494 3957.75,471.55C3975.72,469.966 3985.68,456.381 3980.45,446.7C3978.21,442.547 3981.13,442.996 3983.03,439.05C3984.27,435.947 3984.04,432.098 3983.5,429.05C3982.8,425.05 3984.44,423.278 3985.45,420.725C3987.04,416.725 3985.5,412.206 3982.85,408.45C3980.06,404.486 3980.83,400.23 3980.8,397.6C3980.68,391.719 3978.55,390.879 3972.33,385.2C3967.62,380.903 3971.39,379.966 3978.33,376.4C3989.23,370.789 3989.98,350.932 3975.47,342.475C3967.72,337.954 3953.62,338.323 3923.05,343.15C3911.46,344.98 3897.85,346.2 3897.85,346.2C3897.85,346.2 3897.75,232.983 3896.95,174.625L3831.53,135.75ZM3831.53,139.75C3831.53,139.75 3893.59,176.058 3893.1,177.075C3872.26,205.623 3794.51,319.375 3793.95,456.925C3736.94,449.771 3713.6,494.344 3710.83,494.175C3703.33,325.809 3771.66,205.35 3806.68,154.225L3831.53,139.75ZM3792.38,161.9L3792.18,166.025L3779.88,184.4L3779.55,166.025L3792.38,161.9ZM3773.38,168.3L3773.83,197.9L3748.62,217.15L3747.15,186.275L3773.38,168.3ZM3539.8,175.075L3552.75,184.025L3552.3,213.4L3532.8,177.925L3539.8,175.075ZM3894.3,184.975L3894.4,206.225C3844.72,276.306 3818.64,356.352 3810.68,457.725L3798.58,457.325C3801.78,356.522 3835.71,264.548 3894.3,184.975ZM3557.8,187.15L3588.45,207.175L3587.12,240.675L3559.3,222.825L3556.7,215.975L3557.8,187.15ZM3743.35,188.575L3743.22,219.725L3719.55,237.3L3718.45,206.375L3743.35,188.575ZM3456.4,196.725C3459.91,196.767 3462.72,199.325 3463.38,204.175C3465.97,224.879 3481.73,218.903 3485.47,225.125C3486.89,227.248 3483.53,229.092 3472.75,228.225C3452.98,226.746 3438.57,210.757 3448.68,200.225C3451.27,197.839 3454,196.696 3456.4,196.725ZM3593.03,210.075L3619.2,226.75L3619.12,261.15L3593.47,245.5L3593.03,210.075ZM3712.45,210.175L3714.47,240.6L3685.83,259.65L3684.8,229.425L3712.45,210.175ZM3766.97,210.3L3750.53,245.325L3654.55,314.375L3574.9,262.8L3560.12,229L3653.05,289.625L3766.97,210.3ZM3508.15,224.2C3533.65,223.887 3553.23,250.957 3559.93,274.675C3564.8,290.358 3565.54,296.002 3566.05,320.9C3566.58,346.263 3567.37,350.642 3572.12,354.225C3575.05,356.432 3575.91,355.836 3576.28,351.35C3577.1,341.384 3589.01,347.525 3589.22,358.025C3589.46,369.687 3576.62,373.434 3567.12,364.475C3562.07,359.705 3562.01,359.751 3560.43,369.125C3559.37,375.404 3552.05,414.717 3570.75,424.5C3574.27,424.833 3575.11,422.01 3572.5,418.725C3567.25,412.135 3577.73,404.53 3586.28,408.725C3596.6,413.796 3595.55,430.435 3584.53,436.35C3571.91,443.117 3555.6,435.426 3547.97,419.125C3542.38,407.159 3542.41,390.567 3548.08,365.925C3550.69,354.568 3551.84,347.335 3552.43,338.625C3552.62,335.766 3552.96,332.652 3553.18,331.7C3553.78,329.045 3552.47,328.92 3547.95,331.2C3535.61,337.423 3522.14,333 3518.83,321.625C3514.86,308.025 3530.02,293.973 3539.38,302.575C3542.93,305.84 3542.5,309.082 3538.25,311.175C3530.89,314.8 3533.41,324.337 3541.22,322.45C3567.01,314.734 3543.43,242.384 3514.4,237.375C3495.2,234.063 3480.13,255.929 3494.03,267.625C3499.47,272.207 3504.99,269.748 3503.8,263.275C3502.14,254.245 3514.14,255.221 3518.58,264.475C3525.79,279.534 3507.16,291.79 3489.75,283.45C3458.51,264.899 3479.87,224.769 3508.15,224.2ZM3623.78,229.95L3649.5,247.225L3649.72,280.8L3624.18,265.65L3623.78,229.95ZM3680.45,232.85L3680.58,263.675L3655.75,281.725L3655.75,248.925L3680.45,232.85ZM3747.33,253.05L3734.62,288.425L3654.5,343.225L3588.4,301.775L3577.03,269.05L3654.9,319.5L3747.33,253.05ZM3227.3,255.625L3227.28,434.7C3201.31,435.805 3186.41,461.485 3205.85,485.75C3205.85,485.75 3202.46,486.207 3198.5,486.75C3180.94,489.159 3169.17,498.468 3171.5,509.75C3172.21,513.207 3171.49,516.698 3170.5,518.425C3168.94,523.062 3169.35,526.603 3171.45,530.6C3173.1,533.739 3172.83,535.001 3171.9,537.325C3169.91,542.329 3170.38,546.186 3172.72,550C3175.62,552.83 3174.81,555.115 3174.43,559.65C3173.96,566.055 3175.11,568.632 3179.15,571.125C3184.36,574.338 3186.29,579.608 3180.38,579.175C3177.44,578.96 3167.1,588.925 3167.1,588.925L3166.12,301.55L3227.3,255.625ZM3368.08,278.6C3372.72,278.588 3377.51,284.425 3384.38,294.275C3388.53,301.33 3388.6,300.373 3398.1,300C3407.8,300.707 3413.71,303.269 3416.25,306.2C3417.21,307.31 3414.66,307.599 3408.53,313.825C3402.16,320.282 3401.28,322.849 3397.05,330.075C3395.53,332.68 3392.21,332.926 3390.65,330.55C3389.39,328.627 3392.61,322.373 3398.65,315C3407.17,306.779 3405.38,305.95 3393,307.25C3384.3,308.163 3383.38,307.729 3380.08,302.45C3370.23,282.879 3365,283.54 3355.58,303.05C3353,308.51 3354.03,308.159 3342.88,307.3C3334.09,306.624 3331.92,308.839 3336.88,313.45C3344.61,319.8 3347.62,334.782 3347.2,334.6L3341.22,335.15C3341.22,335.15 3339.4,331.776 3338.6,329.65C3336.98,325.346 3332.63,318.879 3327.9,313.775C3321.21,306.543 3324.88,302.588 3339.83,300.975C3348.15,300.076 3348.34,299.961 3352.18,294.35C3358.93,284.465 3363.43,278.612 3368.08,278.6ZM3731.53,296.425L3722.9,326.975L3654.55,374.9L3598.95,337.8L3591.58,309.075L3655.45,349.525L3731.53,296.425ZM3495.88,320.625C3495.88,320.625 3515.63,359.112 3522.8,384.05C3529.04,405.745 3537.71,468.559 3535.43,472.425C3530.57,465.76 3514.52,467.264 3514.3,467.325C3515.66,459.966 3509.71,445.135 3496.03,442.2L3495.88,320.625ZM3720.75,334.7L3713.93,364.775L3655.72,406.85L3607.7,374.05L3601.4,344.975L3654.55,380.475L3720.75,334.7ZM3382.4,336.375L3389.95,339L3391.38,393.325L3449.6,403L3450.93,412.3L3383.5,401.425C3382.79,378.258 3382.4,336.375 3382.4,336.375ZM3352.85,338L3354.47,401.175C3353.85,400.965 3305.94,407.793 3287.6,412.6L3288.68,403.95C3288.68,403.95 3321.98,396.707 3346.1,393.925C3346.1,376.259 3345.96,357.679 3345.93,339.675L3352.85,338ZM3894.55,349.625C3894.55,349.625 3902.47,350.362 3919.43,347.375C3963.13,339.729 3974.96,342.827 3980.55,356.3C3986.65,377.191 3963.75,377.696 3959.67,364.435C3957.07,355.84 3947.69,357.722 3916.35,365.15C3889.55,371.503 3872.57,366.417 3872.89,351.235C3873.23,335.625 3891.01,334.244 3894.55,349.625ZM3535.4,338.2C3540.8,338.122 3545.27,342.446 3545.35,347.85C3545.43,353.254 3541.1,357.697 3535.7,357.775C3530.3,357.853 3525.85,353.554 3525.78,348.15C3525.7,342.746 3530,338.278 3535.4,338.2ZM3393.43,339.925L3400.33,342C3400.33,342 3401.34,383.209 3401.55,383.275C3416.4,386.548 3447.58,392.4 3447.58,392.4L3449.22,400.55C3436.18,397.487 3394.58,390.675 3394.58,390.675C3393.28,372.804 3393.43,339.925 3393.43,339.925ZM3343.05,340.7C3343.05,340.7 3343.08,373.584 3342.53,391.25C3342.76,391.095 3307.22,396.907 3289.18,400.65L3290.58,394.05C3304.85,390.828 3320.38,387.595 3336.1,384.3C3335.79,371.365 3335.8,343 3335.8,343L3343.05,340.7ZM3368.43,347.775C3372.76,347.712 3376.36,351.211 3376.43,355.55C3376.49,359.889 3372.99,363.437 3368.65,363.5C3364.31,363.563 3360.76,360.114 3360.7,355.775C3360.64,351.436 3364.09,347.838 3368.43,347.775ZM3959.72,368.3C3964.56,375.462 3968.61,375.249 3973.38,374.55C3972.18,374.903 3966.55,378.227 3966.88,379.325C3967.04,379.874 3964.5,388.929 3968.35,389.3C3982.85,390.7 3975.51,405.76 3977.25,408.075C3981.17,412.543 3984.04,415.378 3981.35,420.95C3978.97,425.896 3975.54,425.74 3978.2,429.975C3983.98,438.661 3975.99,440.463 3976.7,446.375C3977.19,449.945 3978.44,454.822 3977.12,457.6C3973.16,465.973 3959.13,470.747 3943.55,471.4C3941.33,471.499 3943.01,467.871 3941.97,465.575C3938.12,463.139 3940.23,459.035 3941.53,456.35C3942.8,452.785 3942.81,452.782 3940.43,450.975C3933.77,446.842 3934.12,444.937 3934.65,441.95C3936.11,433.121 3934.74,432.257 3932.08,430.95C3928.66,429.275 3929.13,425.551 3930.65,420.775C3931.7,417.473 3930.96,416.647 3929.35,413.65C3928.41,411.889 3928.12,410.931 3928.1,409.8C3928.58,405.241 3924.49,405.257 3918.78,409.725C3913.93,418.081 3912.26,429.047 3909.22,435.975C3906.88,441.297 3906.5,446.856 3909.3,459.125C3914.67,477.878 3910.68,481.004 3889.58,477C3873.7,473.096 3869.01,456.158 3873.43,435.425C3874.14,432.071 3873.94,428.828 3873.62,426.2C3871.9,411.927 3875.59,398.218 3885.55,388.85C3902.18,373.214 3910.4,370.832 3944.78,373.025C3958.23,373.976 3959.25,374.825 3959.25,374.825C3959.25,374.825 3959.31,368.352 3959.72,368.3L3959.72,368.3ZM3712.15,372.6L3708.15,401.675L3675.88,424.45C3660.68,412.451 3648.94,416.449 3638.25,429.3C3629.78,425.005 3612.85,413.3 3612.85,413.3L3608.53,380.325L3655.45,412.875L3712.15,372.6ZM3369.12,379.5C3373.46,379.437 3377.01,382.911 3377.08,387.25C3377.14,391.589 3373.69,395.162 3369.35,395.225C3365.01,395.288 3361.41,391.839 3361.35,387.5C3361.29,383.161 3364.79,379.563 3369.12,379.5ZM3706.75,409.275L3704.97,437.275L3693.5,445.9L3681.95,444.725L3679.22,427.375L3706.75,409.275ZM3368.93,409.5C3373.26,409.437 3376.86,412.936 3376.93,417.275C3376.99,421.614 3373.49,425.162 3369.15,425.225C3364.81,425.288 3361.26,421.839 3361.2,417.5C3361.14,413.161 3364.59,409.563 3368.93,409.5ZM3400.58,410.375C3404.91,410.312 3408.46,413.761 3408.53,418.1C3408.59,422.439 3405.14,426.012 3400.8,426.075C3396.46,426.138 3392.89,422.664 3392.83,418.325C3392.76,413.986 3396.24,410.438 3400.58,410.375ZM3337.65,411.875C3341.99,411.812 3345.56,415.286 3345.62,419.625C3345.69,423.964 3342.24,427.537 3337.9,427.6C3333.56,427.663 3329.96,424.189 3329.9,419.85C3329.84,415.511 3333.31,411.938 3337.65,411.875ZM3922.12,413.15C3924.34,412.971 3927.62,416.255 3926.03,421.175C3923.89,426.79 3925.39,428.699 3928.95,433.25C3931.96,437.1 3931.43,437.635 3930.97,440.1C3930.28,456.264 3940.7,449.279 3936.18,461.025C3935.19,463.581 3936.49,467.231 3936.95,470.25C3935.93,467.485 3916.78,467.738 3915.15,470.55C3912.42,470.143 3908.97,452.148 3911.72,449.775C3912.08,449.768 3914.07,452.861 3915.1,454.6C3917.67,458.964 3918.23,458.804 3917.43,453.75C3914.24,433.689 3916.15,413.273 3922.12,413.15ZM3432.3,414.55C3436.64,414.487 3440.21,417.961 3440.28,422.3C3440.34,426.639 3436.86,430.187 3432.53,430.25C3428.19,430.313 3424.64,426.864 3424.58,422.525C3424.51,418.186 3427.96,414.613 3432.3,414.55ZM3305,416C3309.34,415.937 3312.89,419.411 3312.95,423.75C3313.01,428.089 3309.56,431.637 3305.22,431.7C3300.89,431.763 3297.29,428.314 3297.22,423.975C3297.16,419.636 3300.66,416.063 3305,416ZM3613.2,418.275L3636.75,433.55C3637.14,438.365 3636.52,445.259 3638.1,447.6C3622.73,446.167 3614.95,454.925 3614.95,454.925L3613.2,418.275ZM3445.45,442.7L3443.62,451C3397.22,439.057 3345.36,438.428 3295.8,451.55L3291.95,442.825C3342.01,427.645 3395.19,427.088 3445.45,442.7ZM3225.75,442.175C3232.51,442.058 3239.41,444.575 3244.28,450.025C3253.41,460.26 3249.01,479.242 3236.1,485.275C3216.78,494.304 3196.64,474.997 3204.85,455.1C3208.26,446.838 3217.06,442.326 3225.75,442.175ZM3704.03,444.6L3703.72,452.925L3697.85,448.025L3704.03,444.6ZM3581.05,444.975C3589.57,444.851 3596.58,451.68 3596.7,460.2C3596.82,468.72 3590.02,475.726 3581.5,475.85C3572.98,475.974 3565.97,469.17 3565.85,460.65C3565.73,452.13 3572.53,445.099 3581.05,444.975ZM3226.18,445.475C3224.1,445.504 3220.64,446.353 3219.08,447.8C3214.96,451.595 3219.09,451.702 3224.53,452.7C3234.17,454.472 3236.83,462.778 3235.95,471.75C3235.15,479.904 3237.89,479.777 3240.1,476.75C3249.09,464.428 3241.41,446.471 3226.18,445.475ZM3673.85,449.575C3673.65,449.678 3673.43,449.825 3673.43,449.825C3673.53,449.916 3673.68,449.801 3673.85,449.575ZM3369,454.425C3380.54,454.187 3381.75,473.168 3371.55,494.375C3368.48,500.751 3366.92,499.957 3363.55,490.325C3355.25,466.582 3357.05,454.672 3369,454.425ZM3395.7,454.975C3397.93,454.862 3400.08,455.712 3401.85,457.725C3408.06,464.799 3403.28,476.25 3386.75,493.875C3382.73,498.16 3380.65,499.795 3379.18,499.825C3375.04,499.91 3375.05,499.223 3379.75,483.925C3381.82,477.179 3383.87,469.772 3384.3,467.475C3385.68,460.125 3390.8,455.223 3395.7,454.975ZM3353.93,471.95C3355.05,477.208 3357.03,484.515 3358.3,488.2C3359.57,491.885 3360.41,495.391 3360.2,495.975C3359.18,498.805 3351.81,494.958 3346.55,488.85C3335.95,476.549 3331.73,465.85 3333.92,460.105C3337.13,455.505 3345.35,453.463 3349.14,457.486C3353.05,461.638 3353.63,470.538 3353.93,471.95ZM3426.95,459.7C3438.12,466.287 3425.25,481.324 3400.22,493.8C3389.52,499.138 3390.28,496.734 3398.4,486.2C3401.51,482.169 3405.67,475.608 3407.7,471.6C3412.19,462.74 3416.69,453.876 3426.95,459.7ZM3315.45,459.75C3319,459.721 3322.62,463.514 3329.35,473.25C3332.35,477.589 3337.21,483.759 3340.18,486.975C3343.14,490.191 3345.47,493.388 3345.35,494.075C3344.2,500.901 3309.36,479.276 3306.85,470.175C3305.99,464.625 3310.36,459.661 3315.45,459.75ZM3814.1,479.55C3820.38,492.471 3820.92,500.504 3815.72,503.425C3808.34,507.576 3798.84,501.246 3798.65,492.05C3798.59,488.961 3795.41,478.179 3792.5,471.175C3790.11,465.411 3789.78,461.853 3791.75,461.568C3799.45,462.801 3810.85,473.48 3814.1,479.55ZM3772.4,469.75C3769.97,477.136 3767.39,488.666 3767.43,492.025C3767.44,493.345 3766.63,496.047 3765.68,498.025C3759.3,511.16 3744.2,500.448 3749.75,486.725C3754.76,474.353 3767.5,461.474 3772.52,461.047C3775.95,460.756 3772.74,468.668 3772.4,469.75ZM3782.57,462.659C3785.09,462.411 3787.2,467.912 3790.45,477.175C3794.84,489.687 3794.66,499.446 3789.93,503.6C3779.78,512.505 3769.12,499.576 3773.22,483.325C3776.5,470.337 3779.72,462.941 3782.57,462.659ZM3442,464.95C3454.64,650.916 3359.3,793.99 3352.51,797.893L3320.07,815.631L3263.17,784.635C3322.13,703.783 3357.38,611.115 3360.05,503.5C3414.6,508.796 3442.66,465.144 3442,464.95ZM3754.61,465.541C3758.58,464.45 3755.81,467.925 3751.86,473.616C3747.65,479.69 3742.18,496.201 3737.85,498.847C3728.12,503.523 3717.11,494.612 3723.01,486.868C3728.45,479.738 3744.41,468.334 3754.61,465.541ZM3812.47,466.8C3814,466.794 3816.85,467.8 3821,469.825C3841.25,479.716 3851.24,492.762 3842.58,499.003C3836.49,503.384 3829.98,499.985 3823.9,488.45C3821.84,484.532 3818.06,478.716 3815.55,475.5C3810.99,469.672 3809.93,466.81 3812.47,466.8ZM3926.35,473.425C3939.37,473.236 3950.06,483.608 3950.25,496.625C3950.44,509.642 3940.04,520.361 3927.03,520.55C3914.01,520.739 3903.31,510.317 3903.12,497.3C3902.94,484.283 3913.33,473.614 3926.35,473.425ZM3919.18,479.543C3903.86,486.328 3908.47,510.376 3921.68,513.85C3927.25,515.41 3934.03,513.09 3931.24,510.409C3913.8,504.936 3913.69,492.081 3920.71,482.673C3921.84,481.162 3920.33,479.035 3919.18,479.543ZM3281.17,512.62C3280.57,526.211 3283.52,541.971 3277.03,556.725C3267.19,579.4 3235.58,589.762 3218.7,587.75C3215.18,586.306 3211.09,584.937 3207.62,586.408C3205.52,587.298 3202.93,587.184 3200.7,586.143C3198.54,585.139 3196.47,586.455 3194.38,585.7C3191.93,584.047 3187.93,580.293 3188.4,577.5C3189.16,573.561 3188.86,570.643 3184.25,569.35C3177.86,567.559 3176.57,564.11 3178.45,554C3178.86,551.816 3179.35,550.827 3177.93,549.875C3173.22,546.722 3171.43,540.891 3174.53,534.75C3176.54,531.212 3178.1,528.712 3174.47,525.9C3173.04,522.664 3173.3,521.433 3176.38,517.3C3179.66,513.377 3180.23,512.928 3178.12,509.575C3173.39,502.039 3178.76,496.479 3185.12,493.375C3193.66,489.874 3201.12,488.068 3210.12,487.025C3213.48,487.214 3213.33,490.16 3215.35,493C3218.32,497.613 3214.13,504.285 3216.55,506.65C3220.04,508.26 3221.63,511.476 3221.35,514.225C3221.23,520.628 3221.62,522.819 3223.35,525.5C3225.27,528.469 3225.99,533.922 3224.2,537.628C3222.6,540.928 3222.78,540.704 3224.88,542.65C3226.95,544.576 3227.97,554.23 3227.24,554.045L3236,553.243C3235.08,554.218 3239.29,535.191 3249.28,520.482C3248.73,508.958 3244.34,498.361 3244.72,483.142C3266.37,475.394 3281.99,493.792 3281.17,512.62ZM3617.3,486.725C3620.43,489.178 3635.93,493.495 3636.5,493C3636.01,500.427 3640.53,514.854 3656.7,519.675C3656.89,540.375 3656.72,635.95 3656.72,635.95C3634.21,598.221 3620.25,549.515 3617.3,486.725L3617.3,486.725ZM3240.65,490.1C3240.65,490.1 3241.51,492.854 3242.3,498.175C3243.68,509.047 3242.19,510.531 3239.3,503.1C3235.91,494.398 3235.74,501.178 3239.55,521.1C3240.47,525.925 3240.44,527.045 3239.25,530.3C3238.51,532.34 3237.18,537.082 3236.15,540.8C3233.11,551.737 3231.33,554.88 3228.2,546.175C3226.61,541.737 3225.27,541.045 3226.41,537.57C3227.83,533.219 3227.49,529.959 3224.62,525.725C3224.16,525.033 3223.13,523.448 3222.95,518.95C3223.83,508.851 3219.34,508.755 3218.45,506.145C3218.6,502.194 3216.76,492.617 3219.47,492.875C3221.71,493.087 3229.82,493.311 3233.65,491.9C3235.35,491.275 3240.65,490.1 3240.65,490.1ZM3576.3,491.35C3584.66,491.229 3591.53,497.913 3591.65,506.275C3591.77,514.637 3585.09,521.504 3576.72,521.625C3568.36,521.746 3561.47,515.087 3561.35,506.725C3561.23,498.363 3567.94,491.471 3576.3,491.35ZM3342.5,500.575L3353.97,502.75C3356.53,503.602 3354.67,661.814 3262.83,776L3262.03,749.55C3305.73,686.301 3337.2,608.732 3342.5,500.575ZM3537.08,503.9L3539.18,541.7C3532.71,536.206 3516.3,525.92 3516.43,525.7L3516.5,511.725C3516.51,511.754 3530.6,512.806 3537.08,503.9L3537.08,503.9ZM3448.62,504.425C3451.39,505.59 3453.81,508.267 3456.18,510.2L3448.68,515.25L3448.62,504.425ZM3711.53,506.325C3761.07,521.02 3809.86,520.595 3858.1,509.85L3861.4,519.1C3809.06,533.289 3757.04,532.47 3705.35,515.975L3711.53,506.325ZM3471.58,513.4L3474.22,529.7L3446.27,547.797L3447.62,523.05L3462.2,513.6L3471.58,513.4ZM3719.1,526.975C3723.62,526.909 3727.33,530.532 3727.4,535.05C3727.47,539.568 3723.84,543.284 3719.33,543.35C3714.81,543.416 3711.12,539.793 3711.05,535.275C3710.98,530.757 3714.58,527.041 3719.1,526.975ZM3846.4,527.65C3850.92,527.584 3854.63,531.207 3854.7,535.725C3854.77,540.243 3851.14,543.959 3846.62,544.025C3842.11,544.091 3838.42,540.468 3838.35,535.95C3838.28,531.432 3841.88,527.716 3846.4,527.65ZM3607.97,553.081C3611.64,565.996 3610.84,595.18 3606.12,614.975C3604.71,620.919 3603.85,642.019 3603.85,642.019C3602.97,643.123 3631.91,618.071 3641.22,650.924C3644.42,662.22 3631.42,672.929 3622.71,669.795C3621.02,669.184 3621.53,663.591 3623.15,660.3C3627.98,650.476 3614.22,645.368 3606.38,654.075C3588.26,674.192 3606.9,725.127 3635.3,730.075C3658.88,734.182 3677.78,710.712 3662.05,696.725C3655.17,690.609 3644.16,699.04 3649.2,706.825C3654.58,715.143 3644.67,718.461 3637.18,710.75C3624.1,697.305 3638.78,677.067 3658.53,681.75C3690.09,688.927 3683.6,738.272 3650.5,741.05C3625.19,743.175 3608.15,732.15 3597.45,712.6C3587.4,693.815 3586.65,678.843 3591.25,645.9C3593.98,626.342 3591.73,609.863 3586.3,609.975C3583.32,610.037 3581,611.473 3580.53,614.975C3579.56,622.139 3578.74,623.477 3574.25,620.875C3568.55,617.571 3565.38,606.927 3574.7,599.725C3584.25,592.342 3596.63,603.864 3596.12,605.85C3596.36,605.485 3597.32,603.612 3598.6,595.225C3602.77,567.937 3593.5,539.105 3582.05,543.725C3579.54,544.739 3579.84,545.876 3583.12,547.725C3590.76,552.016 3584.03,563.012 3574.45,561.9C3560.88,560.325 3557.8,541.397 3569.75,533.025C3588.58,522.876 3603.91,538.767 3607.97,553.081ZM3515.35,530.35C3515.35,530.35 3539.42,545.03 3540.7,548.8C3541.52,551.217 3542.5,572.275 3542.5,572.275L3500.72,546.125L3440.83,583.15C3441.81,575.023 3446.12,554.1 3446.12,554.1L3477.97,533.95C3478.13,535.163 3500.01,549.601 3515.35,530.35ZM3814.43,531.75C3818.94,531.684 3822.66,535.307 3822.72,539.825C3822.79,544.343 3819.19,548.059 3814.68,548.125C3810.16,548.191 3806.44,544.593 3806.38,540.075C3806.31,535.557 3809.91,531.816 3814.43,531.75ZM3750.68,531.875C3755.19,531.809 3758.93,535.407 3759,539.925C3759.07,544.443 3755.42,548.184 3750.9,548.25C3746.38,548.316 3742.69,544.693 3742.62,540.175C3742.56,535.657 3746.16,531.941 3750.68,531.875ZM3782.72,533.725C3787.24,533.659 3790.98,537.282 3791.05,541.8C3791.12,546.318 3787.49,550.034 3782.97,550.1C3778.46,550.166 3774.74,546.543 3774.68,542.025C3774.61,537.507 3778.21,533.791 3782.72,533.725ZM3702.47,545.325C3724.16,549.838 3745.91,554.477 3766.7,556.75L3767.55,620.575L3761.47,620.225L3760.6,563.2C3740.51,561.763 3721.57,557.451 3703.78,552.85L3702.47,545.325ZM3863.75,547.4L3862.62,554.9C3862.62,554.9 3825.1,561.395 3805.5,563.925C3805.19,576.773 3805.22,619.7 3805.22,619.7L3797.72,621.075L3797.7,556.1C3819.95,553.681 3842.18,551.18 3863.75,547.4L3863.75,547.4ZM3500.65,551L3544.83,580.2L3550.03,611.15L3498.53,576.925C3498.53,576.925 3451.84,608.348 3434.38,620L3439.7,590.825L3500.65,551ZM3704.58,556.775C3722.36,560.538 3740.14,564.449 3757.93,565.975L3758.68,617.325L3750.5,615.15L3749.85,573.475C3735.96,572.272 3721.7,569.581 3707.35,566.55L3704.58,556.775ZM3861.9,558.3L3860.4,565.275C3860.4,565.275 3831.94,569.566 3817.25,572.2C3815.95,572.498 3816.43,617.4 3816.43,617.4L3809.4,618.475L3808.58,566.05L3861.9,558.3ZM3782.18,564.05C3786.69,563.984 3790.38,567.607 3790.45,572.125C3790.52,576.643 3786.92,580.359 3782.4,580.425C3777.88,580.491 3774.17,576.893 3774.1,572.375C3774.03,567.857 3777.66,564.116 3782.18,564.05ZM3499.97,582.575L3552.2,617.825C3552.2,617.825 3558.25,636.183 3559.55,646.35L3499.45,607.55L3424.25,657.4L3432.95,626.6L3499.97,582.575ZM3183.43,583.65C3186.52,583.692 3189.62,585.764 3191.22,590.525C3193.49,597.226 3197.72,599.206 3208.85,599C3230.7,597.834 3253.6,587.568 3274.22,595.275C3284.25,598.967 3287.82,613.751 3279.43,617.6C3270.32,621.778 3266.43,619.153 3263.28,612C3260.36,608.959 3256.73,609.435 3237.15,612.8C3228.51,614.201 3218.36,615.46 3209.83,616.15C3188,617.914 3175.94,611.037 3173.22,598.05C3171.49,589.746 3178.26,583.58 3183.43,583.65ZM3781.72,595.575C3786.24,595.509 3789.96,599.107 3790.03,603.625C3790.09,608.143 3786.47,611.884 3781.95,611.95C3777.43,612.016 3773.72,608.393 3773.65,603.875C3773.58,599.357 3777.21,595.641 3781.72,595.575ZM3621.72,605.55C3627.6,605.465 3632.44,610.173 3632.53,616.05C3632.61,621.927 3627.9,626.765 3622.03,626.85C3616.15,626.935 3611.34,622.227 3611.25,616.35C3611.16,610.473 3615.85,605.635 3621.72,605.55ZM3500.05,613C3500.05,613 3543.03,641.713 3562.93,654.975L3573.93,686.575L3500.72,638.975L3411.16,697.248L3421.9,664.75L3500.05,613ZM3810.35,622.875C3814.25,633.375 3821.32,641.375 3828.8,649.5C3828.8,649.5 3824.64,657.392 3809.78,656.925C3801.66,656.67 3801.22,657.944 3798.45,663.45C3793.9,670.426 3790.19,674.984 3787.25,677.25C3782.05,681.257 3772.29,675.271 3764.25,663.1C3761.32,658.665 3760.11,657.618 3751.28,657.8C3737.71,658.08 3732.81,654.319 3739.85,648.225C3745.99,640.742 3750.41,632.515 3755.9,624.65L3762,625.35C3762.26,626.255 3757.26,641.362 3750.22,647.5C3746.66,651.53 3751.65,652.991 3760.38,651.15C3765.91,649.484 3767.33,650.138 3771.43,658.6C3779.96,674.742 3784.4,673.963 3794.53,657.6C3798.06,650.296 3797.93,649.571 3807.65,651.675C3818.09,652.726 3821.24,651.415 3816.95,647.775C3808.28,640.419 3803.5,623.075 3803.5,623.075L3810.35,622.875ZM3500.43,644.5C3500.43,644.5 3578.15,695.408 3577.95,694.3L3593.53,731L3502.3,670.325L3390.85,742.8L3407.53,706.475L3500.43,644.5ZM3503.43,677.925L3530.53,695.75L3530.45,727.825L3502.78,709.225L3503.43,677.925ZM3496.47,678.85L3496.97,710.5L3472.68,724.975L3471.33,695.275L3496.47,678.85ZM3465.65,699.25L3465.43,700.475L3466,700.775L3466.2,700.8L3467.08,729.325L3439.12,748.7L3439.22,716.475L3465.65,699.25ZM3537.22,699.6L3562.7,716.6L3563.75,750.55L3536.1,732.45L3537.22,699.6ZM3568.68,720.325L3594.22,738.075L3595.12,771.975L3569.03,754.4L3568.68,720.325ZM3433.45,720.45L3433.33,751.775L3407.9,769.525L3406.7,737.525L3433.45,720.45ZM3702.35,760.875C3697.3,766.134 3695.44,765.482 3691.12,756.8C3686.64,747.791 3679.92,743.58 3670.18,743.75C3657.88,743.964 3665.92,735.904 3678.95,734.95C3701.48,733.958 3712.91,749.074 3702.35,760.875ZM3400.97,742.5L3401.65,773.925L3376.35,787.075L3375.58,772.175L3388.6,749.4L3400.97,742.5ZM3368.35,784.5L3369.22,790.225L3364.55,792.025L3368.35,784.5ZM3672.83,1011C3566.36,1033.78 3464.28,1025.73 3391.03,1012.18L3357.55,1069.38L3355.25,1069.28L3346.62,1084.08L3347.55,1085.78C3347.55,1085.78 3319.74,1139.14 3308.03,1155.98C3444.86,1154.66 3745.2,1154 3745.2,1154L3726.9,1117.2L3727.9,1116.2L3709.83,1077.78L3703.95,1071.12C3703.95,1071.12 3700.36,1064.18 3697.68,1056.72C3695.2,1049.86 3684.6,1031.08 3684.6,1031.08L3683.1,1031.2L3672.83,1011ZM3394.88,1019.05C3396.29,1020.17 3531.25,1045.6 3671.15,1019.48L3678.8,1032.28C3556.36,1060.45 3379.21,1033.54 3386.2,1030.92L3394.88,1019.05ZM3397.2,1044.22C3409.54,1043.78 3422.05,1050.41 3430.47,1061.47C3433.16,1065 3437.55,1075.38 3437.55,1075.38C3437.55,1075.38 3443.46,1065.6 3449.25,1060.7C3458.01,1053.3 3469.38,1047.11 3485.83,1047.7C3500.97,1048.24 3517.63,1056.44 3532.68,1080.12C3536.47,1066.46 3586.22,1020.01 3627.2,1077.92C3631.89,1062.54 3653.82,1031.8 3689.33,1053.28C3691.75,1058.47 3694.25,1064.17 3694.25,1064.17C3673.29,1049.5 3638.74,1059.34 3630.58,1082.25C3629.84,1085.04 3630.77,1086.49 3631.85,1089.2C3642.65,1104.63 3614.55,1104.27 3622.88,1091.78C3624.43,1088.94 3624.56,1086.6 3622.08,1082.88C3615.49,1073 3595.65,1060.71 3581.1,1061.03C3564.29,1061.39 3545.67,1072.54 3539.45,1082.67C3537.16,1086.41 3536.63,1090.16 3538.65,1093.42C3540.12,1096.72 3539.61,1099.48 3537.15,1101.5C3531.36,1106.25 3524.09,1100.77 3526.88,1093.75C3528.71,1090.66 3528.43,1086.86 3524.68,1081.6C3517.14,1071.03 3499.57,1059.88 3484.28,1060.2C3462.39,1060.71 3440.27,1076.47 3441.68,1089.45C3442.29,1095.15 3440.73,1097.28 3436.08,1096.62C3430.41,1095.83 3429.77,1090.48 3433.78,1086.12C3434.37,1084.73 3435.33,1081.35 3433.5,1078.88C3410.39,1047.62 3375.78,1056.73 3367.85,1063.72C3375.55,1050.52 3386.31,1044.61 3397.2,1044.22ZM3376.62,1065.92C3385.3,1066 3394.64,1072.55 3397.6,1077.67C3399.74,1075.46 3419.36,1066.1 3428.9,1079.47C3403.92,1077.59 3403.62,1104.1 3422.08,1106.65C3413.66,1132.22 3451.39,1133.77 3449,1109.75C3477.19,1113.92 3473.71,1078.18 3447.18,1081.95C3461.08,1071.83 3470.54,1075.09 3487.25,1086.7C3492.87,1079.39 3515.77,1072.55 3521.4,1085.33C3495.14,1083.7 3499.62,1114.11 3519.22,1114.38C3513.4,1135.45 3551.97,1143.2 3546.03,1111.73C3570.51,1113.44 3566.96,1080.37 3543.5,1083.1C3545.24,1077.08 3569.05,1074.48 3579.58,1085.97C3589.24,1077.15 3599.92,1071.1 3619.2,1083.72C3592.91,1079.34 3592.58,1113.47 3617,1111.42C3614.72,1134.03 3649.24,1134.41 3643.47,1108.3C3669.76,1101.21 3655.31,1073.08 3636,1080.83C3644.59,1070.61 3659.19,1075.43 3664.97,1077.5C3682.86,1057.03 3698.45,1074.15 3698.45,1074.15C3667.32,1070.9 3674.09,1115.27 3704.43,1099.17C3704.39,1108.3 3708.31,1116.21 3720.7,1117.5L3735.43,1147.98L3318.16,1150.73L3341.18,1110.23C3343.51,1110.96 3356.81,1112.17 3359.68,1096.58C3387.1,1105.27 3388.93,1073.35 3368.45,1068.3C3370.93,1066.59 3373.73,1065.9 3376.62,1065.92ZM3360.35,1077.47C3363.08,1081.86 3360.79,1084.71 3356.1,1084.83C3356.1,1084.83 3359.15,1080.39 3360.35,1077.47ZM3703.62,1083.12L3706.33,1088.8C3703.4,1087.62 3703.04,1086.36 3703.62,1083.12L3703.62,1083.12Z" style="fill-rule:nonzero;"/>
                                        </g>
                                    </g>
                                </g>
                            </g>
                        </g>
                    </g>
                </g>
                <path id="path147-0-8-1-3-6-2-4-7" d="M3037.51,-648.117C3045.33,-648.287 3048.84,-657.091 3043.05,-663.928C3042.21,-664.925 3042.12,-665.497 3043.66,-664.539C3047.56,-661.932 3055.03,-663.646 3055.42,-671.617C3055.89,-681.439 3042.17,-684.268 3039.59,-673.825C3039.45,-672.723 3038.56,-672.748 3038.77,-674.312C3039.01,-678.557 3040.34,-682.525 3042.16,-686.394L3032.86,-686.394C3034.68,-682.525 3036.01,-678.557 3036.24,-674.312C3036.46,-672.748 3035.56,-672.723 3035.43,-673.825C3032.85,-684.268 3019.13,-681.439 3019.6,-671.617C3019.98,-663.646 3027.46,-661.932 3031.36,-664.539C3032.9,-665.497 3032.81,-664.925 3031.97,-663.928C3026.18,-657.091 3029.69,-648.287 3037.51,-648.117C3037.51,-648.117 3037.51,-648.117 3037.51,-648.117L3037.51,-648.117Z" style="fill-rule:nonzero;"/>
                <path id="path147-0-8-1-0-3-83-7-5-7" d="M2955.05,-844.623C2962.88,-844.454 2966.38,-835.65 2960.59,-828.813C2959.75,-827.816 2959.66,-827.243 2961.2,-828.201C2965.1,-830.808 2972.58,-829.094 2972.96,-821.123C2973.43,-811.302 2959.71,-808.472 2957.13,-818.916C2957,-820.017 2956.1,-819.992 2956.32,-818.428C2956.55,-814.183 2957.88,-810.215 2959.7,-806.346L2950.4,-806.346C2952.23,-810.215 2953.55,-814.183 2953.79,-818.428C2954,-819.992 2953.11,-820.017 2952.97,-818.916C2950.39,-808.472 2936.67,-811.302 2937.14,-821.123C2937.53,-829.094 2945,-830.808 2948.9,-828.201C2950.44,-827.243 2950.35,-827.816 2949.51,-828.813C2943.72,-835.65 2947.23,-844.454 2955.05,-844.623C2955.05,-844.623 2955.05,-844.623 2955.06,-844.623L2955.05,-844.623Z" style="fill-rule:nonzero;"/>
            </g>
        </g>
    </g>
</svg>
