<?xml version="1.0" encoding="UTF-8" standalone="no"?><!DOCTYPE svg PUBLIC "-//W3C//DTD SVG 1.1//EN" "http://www.w3.org/Graphics/SVG/1.1/DTD/svg11.dtd"><svg width="100%" height="100%" viewBox="0 0 178 249" version="1.1" xmlns="http://www.w3.org/2000/svg" xmlns:xlink="http://www.w3.org/1999/xlink" xml:space="preserve" xmlns:serif="http://www.serif.com/" style="fill-rule:evenodd;clip-rule:evenodd;stroke-linejoin:round;stroke-miterlimit:2;"><rect id="king-spades" x="0" y="0" width="178" height="249" style="fill:none;"/><clipPath id="_clip1"><rect x="0" y="0" width="178" height="249"/></clipPath><g clip-path="url(#_clip1)"><rect x="-2134.21" y="-498" width="2312.21" height="1245" style="fill:#fff;"/><g id="king_spades"><path id="path7499-2-5" d="M13.729,39.923c-3.437,4.377 -7.115,6.896 -7.176,10.311c-0.021,1.105 0.649,2.985 2.746,3.345c1.361,0.232 3.234,-0.751 3.273,-2.749c-0.008,-0.398 0.472,-0.388 0.467,0.157c-0.064,1.576 -0.623,3.411 -1.561,4.904l4.502,0c-0.939,-1.493 -1.497,-3.328 -1.561,-4.904c-0.008,-0.545 0.473,-0.555 0.467,-0.157c0.039,1.998 1.912,2.981 3.273,2.749c2.097,-0.36 2.766,-2.24 2.746,-3.345c-0.062,-3.415 -3.739,-5.934 -7.176,-10.311Z" style="fill-rule:nonzero;"/><path id="path7503-7-0" d="M164.272,209.077c-3.437,-4.377 -7.115,-6.896 -7.176,-10.311c-0.021,-1.105 0.649,-2.985 2.746,-3.344c1.36,-0.233 3.234,0.751 3.273,2.748c-0.008,0.398 0.471,0.388 0.467,-0.157c-0.064,-1.576 -0.623,-3.411 -1.562,-4.904l4.503,0c-0.939,1.493 -1.497,3.328 -1.561,4.904c-0.008,0.545 0.473,0.555 0.467,0.157c0.039,-1.997 1.912,-2.981 3.273,-2.748c2.097,0.359 2.766,2.239 2.746,3.344c-0.062,3.415 -3.739,5.934 -7.176,10.311Z" style="fill-rule:nonzero;"/><path id="path39-5-1-0" d="M14.364,34.517l2.647,0l-3.889,-9.728l-2.971,4.109l0.021,5.619l2.086,0l0,2.898l-7.353,0l0,-2.898l2.423,0l0,-20.921l-2.423,0.009l0,-2.533l7.461,0l0,2.619l-2.059,0l-0.044,10.197l6.512,-10.283l-2.298,0l0,-2.533l7.937,0l0,2.533l-2.094,0l-5.362,8.403l5.25,12.514l2.33,0l0.012,2.898l-8.162,0l-0.024,-2.902l0,-0.001Z" style="fill-rule:nonzero;"/><path id="path39-5-7-0-0" d="M163.635,214.483l-2.648,0l3.889,9.728l2.971,-4.109l-0.021,-5.619l-2.086,0l0,-2.898l7.353,0l0,2.898l-2.423,0l0,20.921l2.423,-0.009l0,2.533l-7.461,0l0,-2.619l2.059,0l0.044,-10.197l-6.512,10.283l2.298,0l0,2.533l-7.937,0l0,-2.533l2.095,0l5.362,-8.403l-5.251,-12.514l-2.33,0l-0.012,-2.898l8.162,0l0.025,2.902l0,0.001Z" style="fill-rule:nonzero;"/><path id="path4096-2-4-0" d="M23.614,19.11l130.772,0l0,210.78l-130.772,0l0,-210.78Zm92.818,209.437c-4.862,-8.867 -12.549,-23.312 -12.777,-23.427c-2.842,1.522 -31.822,5.424 -45.761,1.646c-4.767,7.202 -9.448,14.336 -13.599,21.475l72.137,0.306Zm-44.507,-26.523c-0.729,0.017 -1.542,0.463 -1.392,0.074c0.086,-0.224 0.292,-2.498 0.382,-3.312c0.218,-0.361 0.525,0.587 0.49,1.468c-0.02,0.505 0.222,0.144 1.872,0.232c1.785,0.094 3.248,0.43 3.854,0.562c2.111,0.459 6.195,0.129 7.945,-1.151c0.948,-0.693 1.306,0.056 0.329,0.799c-4.41,3.359 -7.907,2.078 -11.739,1.515c-0.572,-0.083 -1.149,-0.2 -1.741,-0.187l0,0Zm1.875,-3.186c-0.274,-0.18 -0.454,-0.198 -0.805,-0.034c-1.354,0.635 -1,-0.276 -0.025,-1.193c0.445,-0.419 0.433,-0.632 0.094,-1.072c-0.171,-0.223 -0.457,-0.251 -0.389,-0.585c0.293,-1.439 2.305,-3.616 4.552,-4.589c0.936,-0.404 1.083,0.038 -0.099,0.736c-1.818,1.074 -2.407,1.99 -1.378,1.617c1.994,-0.723 3.813,-0.212 6.365,1.066c0.729,0.366 1.063,0.437 1.683,0.371c0.458,-0.382 0.869,0.077 1.153,0.317c0.178,0.144 0.216,0.213 0.42,0.165c1.452,-0.342 0.582,0.587 -1.403,2.042c-3.554,2.524 -7.432,3.714 -10.168,1.159l0,0Zm5.469,0.62c1.453,-0.439 3.225,-1.358 4.311,-2.316c1.321,-1.164 0.574,-0.987 -0.944,-0.253c-2.196,1.062 -3.734,1.369 -6.205,1.312c-2.068,-0.048 -2.004,-0.132 -2.079,0.127c-0.264,0.909 2.582,1.837 4.917,1.13Zm-4.013,-3.548c0.118,-0.391 0.208,-0.912 0.103,-1.082c-0.192,-0.307 -0.603,-0.08 -1.126,0.583c-0.323,0.411 -0.279,0.467 0.038,0.791c0.159,0.108 0.282,0.189 0.377,0.245c0.442,0.189 0.513,-0.222 0.608,-0.537l0,0Zm0.904,0.537c0.636,-2.174 2.06,-2.132 3.076,-0.052l0.717,0.004c-1.473,-4.047 -4.325,-1.997 -4.42,0.016c0.335,0.112 0.627,0.032 0.627,0.032Zm5.32,-0.367c0.673,-0.376 0.574,-0.632 -0.282,-1.075c-0.609,-0.316 -0.931,-0.379 -1.042,-0.176c0.008,0.449 0.027,1.09 0.285,1.446c0.268,0.163 0.638,0.002 1.039,-0.195Zm-9.424,-6.19c-0.123,-0.205 -0.102,-0.578 0.366,-0.796c2.884,-1.34 0.783,-4.168 -1.444,-2.047c-0.706,0.582 -1.756,0.852 -2.567,0.506c-0.763,-0.334 -0.777,-1.27 0.236,-1.47c0.333,-0.065 1.186,-0.247 1.501,-0.466c3.87,-2.079 5.926,2.441 3.18,3.945c-0.565,0.331 -1.164,0.516 -1.272,0.328Zm-10.844,-4.105c-1.571,-0.714 -1.786,-3.194 -0.314,-4.16c0.938,-0.643 1.896,-0.818 4.477,0.463c1.823,0.906 2.867,-0.069 2.82,0.984c-0.029,0.641 -0.067,1.287 -1.127,1.441c-1.723,0.251 -2.899,-2.095 -5.112,-1.874c-1.597,0.16 -1.394,2.076 -0.241,2.466c1.538,0.519 0.606,1.134 -0.503,0.68Zm28.885,0.361c-0.289,0.135 -0.424,-0.498 -0.299,-0.836c0.785,-1.868 1.507,-3.353 2.219,-5.104c0.567,-1.395 0.948,-1.994 1.203,-1.993c0.26,0.002 0.381,0.206 -0.055,1.065c-0.658,1.732 -3.065,7.016 -3.068,6.868l0,0Zm-12.898,-0.484c-0.695,-0.497 -0.578,-1.234 0.213,-0.676c1.016,0.717 2.682,-0.595 2.342,-1.833c-0.41,-1.496 -2.391,-1.859 -4.05,-0.519c-2.616,2.114 -5.487,2.222 -5.487,0.569c0.008,-0.472 -0.061,-0.58 1.028,-0.653c1.266,-0.086 2.694,-0.668 3.403,-1.102c3.183,-1.947 6.569,-0.603 5.868,2.645c-0.316,1.532 -2.187,2.275 -3.317,1.569Zm-11.671,-4.794c-0.258,-0.008 -0.73,0.253 -0.866,0.151c-0.265,-0.198 -0.226,-0.774 -0.444,-1.391c-0.387,-1.096 -0.01,-0.753 0.671,-0.457c0.924,0.358 1.8,0.289 2.579,0.017c0.804,-0.28 1.86,-0.216 3.548,0.005c1.359,0.178 2.122,0.126 3.355,-0.227c1.338,-0.421 0.984,-0.27 0.76,0.559c-0.145,0.543 -0.328,1.272 -0.498,1.447c-0.925,-0.52 -1.627,-0.319 -2.235,0.035c-0.999,0.442 -1.708,0.518 -2.526,0.272c-0.769,-0.44 -1.226,-0.403 -1.844,-0.024c-1.065,0.518 -1.538,-0.338 -2.5,-0.388l0,0.001Zm19.955,-2.277c0.187,-0.33 0.459,-0.786 0.716,-1.296c2.067,-4.122 2.208,-5.268 0.749,-6.657c-1.961,-1.866 -3.633,-1.056 -5.512,2.67c-0.456,0.905 -0.728,1.584 -0.913,1.864c-0.212,0.321 -0.46,0.073 -0.582,-0.052c-0.232,-0.237 1.853,-4.193 2.67,-5.056c2.139,-2.26 6.114,-0.452 5.861,2.621c-0.128,1.549 -0.421,2.397 -1.831,5.235c-0.349,0.703 -0.652,1.298 -0.837,1.585c-0.662,0.444 -0.511,-0.576 -0.321,-0.914l0,0Zm-19.487,-0.164c0.326,-1.468 5.014,-2.147 6.25,-0.222c0.12,0.188 0.049,0.18 -0.481,0.034c-2.383,-0.791 -2.856,-0.747 -5.14,0.159c-0.343,0.132 -0.587,0.187 -0.629,0.029l0,0Zm17.887,-0.279c0,-0.138 0.174,-0.68 0.439,-1.205c1.563,-3.102 1.994,-3.85 1.517,-4.43c-0.929,-1.13 -2.176,-0.148 -3.323,3.091c-0.429,1.21 -0.721,0.952 -0.93,0.761c-0.4,-0.366 1.373,-4.134 2.227,-4.696c1.938,-1.237 3.463,0.195 2.607,2.726c-0.668,1.142 -1.22,2.9 -1.844,3.825c-0.296,0.415 -0.695,0.292 -0.693,-0.072l0,0Zm-7.01,-5.037c-0.094,-0.156 0.089,-0.367 0.76,-1.811c0.923,-1.985 1.209,-2.721 0.834,-3.855c-0.668,-2.02 -3.188,-2.515 -4.718,-1.189c-0.501,0.427 -0.841,1.02 -1.077,1.551c-0.553,1.232 -1.014,2.824 -1.342,3.158c-0.286,0.29 -0.686,0.349 -0.66,-0.157c0.364,-1.072 0.536,-1.903 1.396,-3.474c2.145,-4.679 8.327,-2.513 6.88,2.413c-0.538,1.787 -1.157,3.142 -1.523,3.581c-0.204,0.245 -0.542,0.032 -0.55,-0.217Zm-1.435,-0.859c0,-0.154 0.233,-0.593 0.479,-1.204c1.046,-2.597 1.053,-3.392 -0.471,-3.426c-0.912,0.118 -1.047,0.493 -1.847,2.541c-0.26,0.666 -0.403,1.14 -0.558,1.343c-0.166,0.217 -0.477,0.088 -0.604,-0.042c-0.327,-0.335 1.1,-3.694 1.854,-4.327c1.734,-1.516 3.981,0.636 2.929,2.568c-0.494,1.351 -0.919,2.267 -1.208,2.685c-0.256,0.369 -0.576,0.317 -0.574,-0.138l0,0Zm-36.919,-30.27l-5.267,-0.363c0.933,5.661 0.98,11.892 0.037,16.311c-0.806,3.778 -0.815,6.561 -0.575,9.837c0.28,3.811 1.886,7.043 2.291,11.088c0.292,2.932 -0.353,5.991 -0.93,8.905c-0.963,4.871 -0.765,5.379 -0.623,11.094c0.132,5.299 -0.36,5.109 -0.663,4.8c-0.045,-0.047 -0.088,-0.984 -0.081,-2.099c0.008,-1.114 -0.061,-3.839 -0.125,-5.731c-0.126,-3.78 0.292,-7.12 0.595,-8.495c0.617,-2.797 1.31,-5.663 0.883,-8.759c-0.867,-3.908 -2.089,-7.811 -2.518,-11.578c-0.529,-4.644 0.771,-9.305 1.201,-12.678c0.414,-3.257 -0.025,-8.891 -0.874,-11.236c-0.146,-0.78 -0.84,-1.797 -0.84,-1.797c-0.794,-0.114 -1.592,-0.227 -2.706,-0.22c-0.062,22.367 0,44.742 0.017,67.112l4.913,4.584l5.047,-4.826l0.218,-65.949Zm0.355,25.658c0,0 7.495,4.339 15.76,8.604c-0.787,-4.88 1.708,-5.615 4.052,-6.182c-0.562,-9.426 8.026,-7.492 9.342,0.698l0.846,0.003c1.488,-4.083 2.959,-6.901 6.347,-7.574c2.626,-0.521 5.215,1.151 5.872,5.09c-0.116,-0.277 8.705,-5.207 8.949,5.209c4.006,-2.501 6.864,-0.341 8.02,2.835c1.691,-2.592 5.924,-2.706 7.278,-2.894c0.471,-0.547 1.303,-0.859 2.814,-0.849c1.296,-0.067 3.037,-1.042 3.932,0.146c1.362,0.216 2.4,-0.031 3.564,0.873c0.927,0.708 1.96,2.287 3.502,1.199c2.941,-1.425 6.245,-2.067 8.875,-3.784c0,0 -0.698,-0.903 -0.494,-0.773c0.074,0.047 0.402,0.474 0.895,0.673c0.177,0.071 1.792,-0.903 1.792,-0.903c-10.952,-12.69 -19.961,-37.464 -14.012,-60.386c0.165,-0.39 -0.497,-0.54 -0.822,-0.678c0.1,-0.176 1.708,0.06 1.025,1.517c-0.687,4.392 -1.466,9.151 -1.639,12.792c0,0.444 0.037,0.84 0.037,0.84c24.557,11.393 21.545,36.067 15.237,44.656l0.994,1.333c0.44,0.296 19.319,-10.776 18.696,-11.231l3.572,-1.788l-0.579,-48.385l-14.128,-1.087c0,0 0.151,-0.406 0.33,-0.512c0.129,-2.953 -0.134,-7.322 0.008,-10.979c0.055,-10.451 0.159,-14.004 0.025,-14.293c-4.358,-2.886 -10.856,-7.106 -16.324,-9.152c0.225,0.064 -0.089,4.33 -0.255,4.573c-5.116,1.642 -2.741,3.741 -4.632,5.995c-1.27,1.404 -4.243,1.671 -5.679,-0.013c-1.715,-1.67 -2.519,-5.499 -2.519,-5.499c-2.707,2.911 -2.151,6.427 -5.775,7.751c-5.826,2.907 -7.675,-5.783 -7.336,-5.581c-2.233,2.164 -8.497,3.924 -9.174,-5.215c-2.816,2.608 -5.973,1.313 -7.312,-1.896c-1.719,0.061 -3.647,1.416 -5.387,2.148c-1.615,0.719 -3.681,1.141 -5.214,1.109c-1.918,0.233 -3.497,0.224 -5.226,-0.293c-0.811,0.265 -2.642,-0.528 -3.207,-1.664c-0.864,-1.021 -1.618,-1.081 -2.439,-0.897c-2.799,1.483 -5.8,1.841 -9.103,3.393c-0.207,0.144 0.29,0.416 0.123,0.363c-0.071,-0.023 -1.736,0.822 -1.736,0.822c16.735,22.128 17.645,44.47 14.138,60.305c-0.138,0.549 -0.214,0.947 0.148,1.379c-0.531,-0.092 -0.539,0.064 -0.639,-0.278l1.74,-13.291c0.052,-1.606 0.251,-1.487 -1.151,-2.086c-1.297,-0.554 -2.524,-1.087 -3.594,-1.749c-4.08,-3.041 -8.692,-6.784 -10.94,-11.455c-6.412,-10.039 -4.296,-22.017 0.507,-31.508l-1.195,-1.248c-14.026,7.068 -22.307,14.69 -22.307,14.69l0.06,47.478l14.413,1.672l-0.075,25.977Zm-6.954,-31.705c-0.462,-0.514 -1.639,-0.604 -2.129,-0.213c-0.113,0.096 -0.355,0.599 -0.427,0.581c-0.653,-0.169 -1.105,-0.305 -1.192,-0.86l0.693,-1.053c0.549,-0.834 1.34,-1.13 2.672,-1.443c0.473,-0.111 1.187,-0.213 1.439,-0.321c1.001,-0.435 1.35,-1.377 0.336,-0.955c-0.741,0.205 -1.776,0.137 -1.913,-0.544c-0.113,-0.56 -0.587,-0.779 -1.115,-0.714c-0.977,0.237 -1.869,0.75 -2.733,1.266c-0.384,0.232 -1.111,0.759 -1.111,0.759c-0.114,0.18 -0.537,-1.139 -0.143,-1.524c0.49,0.059 0.911,0.064 1.389,-0.127c1.191,-0.478 2.339,-1.054 3.541,-1.517c0.766,-0.302 0.836,-0.277 0.635,-0.823c-0.1,-0.202 -0.188,-0.872 -0.056,-1.222c0.14,-0.373 0.124,-0.56 -0.114,-0.72c-0.541,-0.363 -1.839,-0.025 -3.664,0.857c-0.556,0.269 -0.922,0.377 -1.274,0.662c0.227,-0.581 0.095,-0.688 0.089,-1.296c0.745,0.094 1.416,-0.204 2.011,-0.519c0.49,-0.258 1.041,-0.513 2.389,-0.686c0.368,-0.048 0.201,-1.404 -0.219,-1.797c-0.396,-0.371 -1.23,-0.379 -2.239,-0.079c-0.901,0.208 -2.021,0.419 -2.641,1.392c-0.781,0.744 0.02,-1.234 1.445,-2.023c0.625,-0.014 2.003,-0.311 2.328,-0.383c0.55,-0.123 0.638,-1.421 -0.162,-1.977c-0.5,-0.44 1.819,-0.451 1.774,-0.317c-0.029,0.076 -0.051,0.631 0.127,0.773c0.998,0.302 0.99,1.124 1.077,1.47c1.147,1.894 1.712,0.705 2.501,0.053c-0.166,4.124 1.268,4.594 1.458,4.855c-1.97,3.695 -0.485,3.786 1.362,4.636c0,0 -0.702,0.287 -1.169,0.258c-0.735,-0.046 -2.141,0.83 -2.756,1.347c-0.34,0.285 -0.35,0.047 -1.707,0.008c-1.278,-0.038 -1.371,0.058 -1.954,0.318c-1.15,0.512 -1.144,0.996 -0.021,0.806c1.196,-0.204 2.369,0.527 2.506,1.522c0.095,0.189 0.011,0.521 -0.008,0.51c-0.25,-0.047 -0.813,0.048 -0.805,-0.072c0.009,-0.12 0,-0.571 -0.22,-0.888l0,0Zm1.747,-4.998c0.324,-0.209 0.38,-0.802 0.097,-1.042c-0.257,-0.218 -1.349,-0.102 -1.657,0.177c-0.698,0.553 0.577,1.477 1.56,0.865Zm0.699,-2.483c0.401,-0.315 0.45,-1.073 0.102,-1.512c-0.589,-0.746 -2.131,-0.3 -2.214,0.641c-0.089,1.002 1.272,1.53 2.112,0.871Zm-0.502,-3.407c0.073,-0.822 -0.737,-1.343 -1.481,-0.953c-0.928,0.486 -0.365,1.51 0.797,1.45c0.643,-0.034 0.643,-0.034 0.684,-0.497Zm-2.714,-3.337c-0.434,0.213 -0.455,0.726 -0.045,1.056c1.627,0.904 1.131,-1.516 0.045,-1.056Zm113.626,4.916c-0.714,-2.648 -2.683,-0.022 -2.686,0.014c-0.069,-2.713 0.441,-3.921 -1.581,-4.848c2.029,-3.093 1.606,-3.52 -0.546,-4.707c0.198,0.018 2.856,-0.582 3.311,-2.11c0.101,0.072 4.172,1.081 4.68,-1.155c-1.228,0.564 -3.644,0.648 -3.672,-1.756c0.229,-0.069 0.802,0.049 0.754,0.126c-0.322,1.541 2.47,1.923 2.926,0.705c0,0 0.938,0.632 1.35,0.73c0.046,0.031 -1.269,1.867 -2.469,2.144c-2.163,0.72 -2.908,0.914 -2.911,1.347c-0.001,0.168 0.353,0.194 0.995,0.327c1.343,0.093 1.315,0.383 1.491,0.831c0.156,0.396 0.308,0.475 0.756,0.435c1.534,-0.513 2.301,-0.782 3.37,-1.858c0.13,-0.026 0.281,1.131 0.364,1.17c0.013,-0.184 -1.085,0.138 -2.772,1.131c-1.376,0.81 -1.915,0.928 -2.09,1.146c-0.13,0.163 0.205,0.674 0.24,1.229c0.03,0.467 -0.282,0.693 -0.053,0.839c0.265,0.168 0.675,0.137 1.215,-0.003c1.19,-0.289 2.065,-0.76 3.135,-1.425c-0.228,0.433 0.153,1.531 0.153,1.531c0,0 -0.528,-0.373 -0.962,-0.179c-0.837,0.369 -2.19,0.873 -2.556,0.959c-0.354,0.084 -0.507,0.13 -0.645,0.249c-0.17,0.145 -0.142,0.494 -0.145,1.007c0,0.36 -0.105,0.692 0.12,0.801c0.5,0.162 1.508,0.111 2.535,-0.25c0.438,-0.192 1.367,-0.701 1.367,-0.701l-0.291,1.519c-0.39,-0.442 -1.508,-0.117 -2.257,0.18c-0.377,0.12 -0.49,0.359 -0.586,0.69c-0.167,0.567 0.19,0.957 0.603,1.143c0.275,0.124 0.698,0.074 0.698,0.074c-1.94,0.742 -1.554,1.016 -2.686,0.453c-0.489,-0.533 -0.968,-1.096 -1.155,-1.787l0,-0.001Zm2.03,0.001c-0.322,-0.374 -0.882,-0.589 -1.208,-0.441c-0.291,0.155 -0.187,0.48 -0.094,0.728c0.246,0.688 1.95,0.466 1.302,-0.287Zm-1.132,-1.893c0.455,-0.6 -0.046,-1.406 -0.885,-1.412c-0.584,-0.004 -0.896,0.362 -0.889,0.822c0.012,0.871 1.394,1.091 1.774,0.59Zm-0.933,-2.285c0.842,-0.231 1.1,-1.053 0.518,-1.648c-0.414,-0.424 -1.713,-0.477 -2.06,-0.094c-0.888,0.979 0.107,2.135 1.542,1.742Zm0.7,-3.007c0.495,-0.254 0.59,-0.678 0.153,-1.161c-0.793,-0.679 -2.177,-0.149 -1.73,0.841c0.219,0.486 0.974,0.63 1.577,0.32Zm-101.376,-22.817c0.744,-0.273 1.281,-0.853 2.064,-1.299c0.528,-0.29 0.369,-0.244 -0.307,-0.642c-0.532,-0.246 -1.597,-1.331 -1.696,-1.072c-0.242,0.463 -0.207,2.992 -0.061,3.013Zm18.807,26.491c0.03,-0.516 0.092,-1.294 0.078,-1.864c0.1,-1.086 -0.094,-0.769 -0.678,-0.414c-0.433,0.281 -1.126,0.707 -1.398,0.844c-1.073,0.538 -0.945,0.566 0.565,1.297c1.267,0.571 1.41,0.516 1.433,0.137l0,0Zm-1.472,-2.543c1.025,-0.65 1.365,-0.985 1.415,-1.715c0.008,-0.839 -0.092,-1.144 -0.823,-0.563c-2.494,1.982 -5.062,-1.907 -2.779,-4.067c0.466,-0.441 1.057,-1.13 1.063,-1.305c0.037,-1.253 -1.365,-0.037 -2.51,1.684c-1.268,1.564 -2.058,3.522 -0.945,5.402c0.89,1.375 2.871,1.647 4.579,0.564Zm-5.667,-2.531c-0.045,-0.614 0.126,-1.299 0.206,-1.503c0.28,-0.717 0.268,-0.807 -1.003,-0.209c-0.507,0.168 -1.112,0.305 -1.345,0.303c-1.038,-0.006 -0.779,0.322 0.709,1.57c1.495,1.255 1.545,1.368 1.433,-0.161Zm3.535,-6.007c0.159,-0.378 -0.171,-0.523 -0.486,-0.452c-0.025,0.006 -0.569,0.414 -1.209,0.921c-1.938,1.535 -3.36,1.715 -4.322,0.545c-0.975,-1.186 -0.567,-2.593 1.612,-4.204c0.962,-0.711 1.192,-0.759 0.73,-1.069c-0.352,-0.237 -0.373,-0.201 -1.755,0.741c-2.786,1.897 -3.62,3.193 -3.341,5.081c0.057,0.776 0.461,1.182 0.852,1.484c2.656,2.367 6.341,-0.897 7.919,-3.047Zm2.812,1.12l-0.168,-2.613c-2.832,-2.456 -5.518,-6.652 -6.447,-10.127c-0.946,-3.091 -0.192,-9.537 -0.049,-9.059l-1.53,-2.916c-1.332,3.095 -1.914,7.814 -0.465,12.622c1.23,4.082 3.692,9.025 8.659,12.093l0,0Zm-11.929,-1.522c0.9,-1.738 0.928,-1.551 -0.81,-1.566c-1.984,-0.017 -1.763,-0.26 -0.645,1.445c0.898,1.369 0.747,1.488 1.455,0.121Zm1.192,-2.382c1.143,-0.369 0.882,-0.285 2.399,-1.277c1.741,-1.139 1.813,-1.762 0.065,-0.884c-2.244,1.127 -4.214,0.839 -4.946,-0.632c-0.651,-1.311 0.709,-2.946 2.95,-3.585c0.765,-0.219 1.168,-0.404 1.171,-0.741c0.008,-1.028 -3.808,0.344 -5.379,1.896c-3.034,2.997 -0.379,6.553 3.74,5.223l0,0Zm-4.904,-4.666c0.102,-0.157 0.375,-0.531 0.626,-0.92c1.074,-1.256 0.171,-0.88 -0.782,-1.224c-0.504,-0.187 -1.021,-0.373 -1.316,-0.328c-0.571,0.087 0.192,1.196 0.375,1.912c0.514,1.593 0.455,1.544 1.097,0.56Zm4.06,-2.872c1.923,-0.189 2.12,-0.376 2.122,-0.777c0,-0.398 -0.235,-0.322 -1.2,-0.187c-2.557,0.357 -4.249,-0.297 -4.615,-1.668c-0.377,-1.415 1.354,-2.755 3.662,-2.676c1.249,0.043 2.081,-0.391 1.32,-0.809c-0.396,-0.218 -3.837,-0.171 -4.616,0.057c-2.287,0.67 -3.219,1.95 -3.01,3.721c0.316,2.188 1.504,2.815 4.398,2.66c0.555,-0.03 1.262,-0.254 1.939,-0.321Zm1.488,-7.126c0,-0.341 -0.547,-0.391 -2.361,-0.662c-2.417,-0.361 -3.497,-2.611 -2.04,-3.964c0.552,-0.513 1.868,-0.734 2.601,-0.599c1.594,0.292 2.568,0.621 2.583,0.078c0,-0.486 -0.459,-0.52 -3.45,-1.156c-4.519,-0.961 -7,3.501 -3.387,5.684c1.373,0.829 6.05,1.3 6.054,0.619l0,0Zm1.121,-6.385c0,-0.171 -0.146,-0.302 -0.488,-0.437c-0.498,-0.195 -0.832,-0.232 -1.953,-0.992c-1.492,-1.011 -1.944,-2.983 -0.949,-4.082c0.966,-1.026 -0.773,-2.238 -2.158,-1.08c-1.439,1.203 -1.318,3.092 0.339,4.587c1.527,1.376 5.204,2.807 5.209,2.004Zm-7.322,-0.266c1.571,-0.742 2.699,-0.315 1.497,-1.338c-0.675,-0.629 -1.251,-2.417 -1.72,-0.9c-0.359,0.903 -0.622,2.498 -0.632,2.655c0.105,0.107 0.081,-0.077 0.855,-0.417Zm55.555,-3.848c-1.789,-0.449 -3.011,-2.538 -2.556,-4.547c0.257,-1.135 1.319,-3.809 1.528,-3.976c0.789,-0.629 0.681,0.209 -0.044,1.664c-0.66,1.486 -1.175,2.681 -0.971,3.565c0.291,1.258 0.797,2.218 2.098,2.538c0.914,0.224 1.776,-0.159 2.359,-0.574c0.772,-0.548 1.502,-1.955 2.374,-3.903c0.279,-0.547 0.653,-2.23 1.118,-1.203c0.224,0.531 -1.637,4.065 -2.333,4.961c-0.875,1.127 -2.354,1.788 -3.573,1.475l0,0Zm10.784,-1.183c0.872,0.84 2.345,1.262 3.306,0.961c2.36,-0.836 3.432,-3.078 2.538,-6.683c-0.452,-2.021 -0.839,-3.278 -1.23,-3.528c-0.19,-0.121 -0.398,0.105 -0.583,0.386c-0.165,0.251 0.088,0.604 0.355,1.555c1.128,4.006 0.833,5.818 -0.543,6.583c-1.997,1.111 -3.707,-0.168 -4.287,-3.026c-0.092,-0.442 -0.366,-1.343 -0.366,-1.343c-0.153,-0.397 -1.389,-0.309 -0.94,1.022c0.136,1.029 1.078,3.484 1.75,4.073Zm10.122,-10.492c-0.031,-1.409 -2.978,-7.525 -3.179,-6.876c0,0 -0.013,1.43 0.103,1.992c0.044,0.212 0.196,0.409 0.323,0.635c2.56,4.593 2.165,7.831 -0.056,8.54c-0.756,0.345 -0.921,0.685 -0.582,1.041c0.684,0.749 2.4,-0.732 2.734,-1.269c0.841,-1.205 0.724,-3.404 0.657,-4.063l0,0Zm-42.884,-1.04c0.965,-1.084 3.082,-4.825 3.734,-6.788c2.008,-5.843 4.118,-12.563 4.701,-18.774c0.065,-0.784 0.106,-1.977 0.144,-2.079c-0.157,-0.171 -1.153,-0.081 -1.487,0.091c-0.16,0.209 -0.053,0.674 -0.11,1.281c-0.899,6.983 -2.557,13.345 -5.017,19.821c-1.075,2.813 -2.074,4.665 -3.37,6.621c-0.226,0.342 -0.514,0.694 -0.627,0.892c-0.328,0.476 -0.087,0.787 0.292,0.586c0.674,-0.384 1.256,-1.121 1.74,-1.651Zm-3.291,1.7c3.079,-4.263 5.268,-9.381 6.969,-15.42c1.075,-3.91 2.021,-7.866 2.588,-11.897c0.116,-0.86 0.21,-1.436 0.043,-1.693c-0.415,-0.113 -1.191,-0.043 -1.46,0.166c-0.165,0.25 -0.056,0.752 -0.207,1.912c-0.394,3 -0.984,6.012 -1.98,9.956c-2.627,8.728 -5.042,13.614 -8.214,17.889c-0.256,0.36 -0.485,0.594 -0.462,0.746c0.034,0.224 0.342,0.206 0.846,-0.111c0.659,-0.521 1.412,-0.976 1.877,-1.548l0,0Zm-4.69,2.265c1.506,-0.86 4.158,-4.603 6.032,-8.634c2.102,-4.759 3.861,-10.135 5.013,-14.79c0.5,-2.04 1.211,-7.135 1.109,-7.471c-0.12,-0.398 -1.592,-0.066 -1.388,0.209c0,0 -1.463,8.19 -3.036,12.704c-2.921,8.381 -5.448,14.067 -8.167,16.8c-0.356,0.359 -1.058,1.06 -1.058,1.06c0,0 0.015,0.312 0.242,0.36c0.542,0.101 0.903,-0.057 1.253,-0.238Zm-2.305,-0.334c3.398,-1.914 7.379,-10.855 10.628,-22.081c0.556,-1.92 1.572,-8.351 1.572,-8.351c0,0 -1.354,0.051 -1.616,0.338c-0.262,0.388 -0.22,1.378 -0.6,3.727c-1.461,7.101 -3.665,13.578 -6.977,19.979c-1.433,2.837 -3.813,5.508 -5.316,6.269c-0.84,0.425 -1.086,0.894 -0.471,0.928c1.036,0.037 1.129,0.256 1.881,-0.152l0.899,-0.657Zm46.57,99.987c-2.548,-0.009 -4.713,2.455 -6.642,5.551c-4.102,6.345 -6.86,16.948 -7.531,22.582l1.547,-0.294c-0.232,0.107 2.894,-14.998 7.656,-21.466c2.574,-4.081 2.466,-4.142 3.911,-4.517c1.827,-0.473 3.293,1.519 2.386,2.72c-0.328,0.406 -0.688,0.107 -0.586,-0.471c0.324,-1.848 -2.351,-2.203 -3.098,-0.388c-0.859,2.088 1.426,3.95 3.659,3.129c1.995,-0.71 2.831,-3.521 1.43,-5.598c-0.72,-0.702 -1.762,-1.326 -2.732,-1.248Zm-13.416,-0.258c-3.052,3.862 -4.564,7.83 -6.438,13.249c-1.872,5.414 -3.217,10.709 -3.8,16.785l1.646,-0.214c-0.06,-3.906 4.188,-22.505 10.157,-29.472c0.333,-0.442 0.601,-0.808 0.576,-0.91c-0.331,-0.941 -1.746,0.192 -2.141,0.562Zm6.742,-1.442c-3.955,3.266 -7.115,10.4 -9.199,16.996c-2.252,7.129 -3.262,13.663 -3.093,13.663l1.571,-0.233c-0.117,-0.414 4.416,-25.535 12.826,-30.109c0.729,-0.367 0.882,-0.736 0.267,-0.896c-0.946,-0.134 -1.708,0.179 -2.372,0.579Zm4.429,0.016c-8.637,1.146 -14.281,27.85 -14.47,30.067c0,0.035 -0.031,0.207 -0.031,0.207l1.72,-0.357c0,0 0.014,-0.086 0.022,-0.128c1.184,-6.823 2.338,-11.607 5.03,-17.774c2.098,-4.57 4.993,-10.413 9.318,-10.98c0.351,-0.046 0.685,0.096 0.561,-0.317c-0.263,-0.654 -1.556,-0.738 -2.15,-0.718l0,0Zm-51.473,-8.409c-3.122,0.809 -3.223,4.58 -1.144,9.4c0.157,0.364 0.128,0.563 0.288,0.703c0.355,0.314 0.634,-0.123 0.673,-0.412c0.06,-0.438 -0.125,-1.027 -0.455,-1.884c-1.287,-3.336 -0.978,-5.258 0.296,-6.108c3.265,-1.696 4.143,1.787 4.637,3.389c0.121,0.39 0.163,0.927 0.376,0.956c0.651,0.09 0.962,-0.143 0.952,-0.143c0,0 -0.865,-2.999 -1.392,-4.126c-0.854,-1.823 -2.883,-2.205 -4.231,-1.775Zm-22.647,3.561l-0.032,39.755l-5.975,5.659c-2.565,-2.216 -5.934,-5.688 -5.934,-5.688l0.106,-67.207l-1.922,-0.155c-0.471,28.874 -0.009,58.333 -0.031,87.265l17.542,0l14.623,-23.058c0,0 0.185,-0.274 0.243,-0.419c0.179,-0.445 0.159,-1.108 0.071,-3.558c-0.036,-0.995 0.075,-1.76 -0.071,-1.993c-0.147,-0.236 -0.459,-0.068 -0.75,0.064c-0.297,0.135 -0.473,0.087 -0.314,-0.266c0.091,-0.2 0.384,-0.639 0.636,-1.057c0.821,-1.359 1.022,-1.795 0.745,-3.302c-0.068,-0.371 -0.406,-0.684 -0.699,-1.121c-2.461,-3.665 -3.463,-9.097 -2.241,-13.076c0.389,-1.759 0.249,-2.115 -0.592,-3.486l-15.405,-8.357Zm77.345,-42.746c-1.607,-0.833 -1.576,-0.814 -1.586,0.761c0.009,1.178 0.032,1.463 0.469,1.304c0.634,-0.325 1.408,-0.623 1.993,-0.873c1.116,-0.387 -0.302,-0.883 -0.876,-1.192Zm6.359,4.094c-1.246,-1.004 -0.786,-0.889 -1.139,1.376c-0.213,1.367 -0.488,1.403 0.914,0.95c0.796,-0.278 2.432,-0.102 1.698,-1.045c0.008,0.016 -1.228,-1.071 -1.473,-1.281Zm-50.094,34.758c-1.913,1.168 -3.866,6.826 -3.866,6.826c-6.683,0.804 -9.481,7.438 -9.78,12.969c-0.236,4.367 -0.529,9.466 -0.093,9.912c4.382,-1.988 6.071,0.307 6.486,-0.312c0.189,-0.27 -0.972,-1.166 -2.431,-1.969c-0.339,-0.187 -0.864,-0.523 -1.062,-0.689c-0.533,-0.445 1.062,-0.062 2.069,0.63c1.286,0.883 1.502,0.699 0.944,-1.881c-0.607,-2.805 -0.706,-3.149 1.43,-4.26c0.855,-0.445 1.34,-0.823 1.952,-1.515c0.49,-0.554 0.615,-0.689 0.435,0.125c-0.313,1.41 -1.555,2.025 -2.674,2.597c-0.557,0.288 -0.787,0.868 -0.79,1.365c0,0.508 0.574,3.249 0.842,4.125c0.248,0.832 0.339,1.666 0.53,2.514c0.502,2.202 0.534,2.634 0.281,4.232c-0.149,0.937 -0.225,1.471 -0.173,2.037c0.047,0.514 0.118,1.214 0.118,1.214c0,-0.024 -1.194,-1.237 -3.811,-0.197c-1.886,0.75 -3.377,-0.032 -4.434,-0.587c-0.243,0.867 -0.188,1.809 -0.159,2.804c10.881,2.009 20.173,1.739 27.997,0.912c0.203,-2.335 1.189,-9.761 3.261,-16.457c0.862,-2.786 1.837,-5.724 2.936,-7.684c0.75,-1.336 1.515,-2.237 1.785,-2.392c0.084,-0.052 0.092,-0.079 0.09,-0.115l0,-0.209c-0.027,-0.434 -0.131,-1.107 -0.501,-1.405c-0.903,-0.727 -2.344,0.21 -2.817,1.831c-0.415,0.972 -2.309,5.174 -2.444,5.104c-0.112,-0.071 -0.375,-0.077 -0.279,-0.401c0.725,-1.704 1.721,-3.504 2.281,-5.034c0.775,-2.201 2.46,-3.363 3.719,-1.975c0.432,0.476 0.605,0.915 0.803,1.066c0.149,0.114 0.35,0.036 0.474,-0.152c0.475,-0.723 -0.626,-2.362 -1.807,-2.691c-1.704,-0.476 -2.974,0.779 -4.907,4.85c-1.116,2.35 -1.315,2.94 -1.492,2.759c-0.039,0.016 -0.335,0.016 -0.228,-0.44c0.23,-0.978 1.711,-3.822 2.784,-5.625c1.587,-2.67 4.535,-2.886 5.775,-0.569c0.189,0.316 0.199,0.729 0.409,1.01c0.381,0.497 1.007,0.398 1.162,-0.417c-0.169,-0.54 -1.205,-2.49 -1.925,-2.83c-1.658,-1.151 -3.67,-0.925 -5.364,0.602c-0.384,0.346 -0.784,1.05 -1.907,3.352c-1.655,3.691 -1.699,3.705 -2.151,3.11c0.665,-1.795 2.416,-4.713 3.122,-6.504c0.135,-0.267 0.162,-0.554 0.151,-0.829c-0.04,-1.302 0.17,-3.602 -2.556,-5.237c-2.325,-1.265 -5.394,0.066 -6.44,2.556c-0.8,1.907 -1.385,3.217 -1.788,3.487c-0.567,0.38 -0.461,-0.149 -0.405,-0.341c0.805,-1.726 1.939,-3.47 2.118,-5.207c0.117,-4.7 -4.6,-6.437 -7.668,-4.065l-0.002,0Zm-24.355,-88.073c3.681,-1.728 6.202,-2.598 9.953,-3.715c0.507,-0.225 0.587,-0.276 0.049,-1.352c-2.376,-4.752 4.145,-8.541 6.362,-3.876c0.295,0.622 0.364,0.966 0.655,0.669c0.545,-0.722 1.193,-1.747 1.866,-2.917c2.494,-3.905 3.623,-8.359 4.953,-12.29c0.552,-2.309 1.322,-4.724 1.54,-7.201c-4.949,-8.702 -13.65,-24.652 -13.65,-24.652l-34.772,0l0,69.762c9.687,-8.165 16.278,-11.118 23.044,-14.428l0,0Zm38.998,-2.57c0.421,-0.449 0.784,-1.192 2.291,-4.315c0.269,-0.558 0.698,-1.422 0.873,-1.824c0.226,-0.735 1.073,-1.194 0.66,0.122c-0.093,0.284 -0.255,0.667 -0.511,1.176c-0.501,0.91 -0.977,2.025 -1.333,2.753c-1.927,3.901 -1.835,6.173 0.317,7.866c1.608,1.552 4.985,1.728 6.782,-0.78c0.269,-0.403 0.509,-0.923 0.587,-1.114c0.781,-1.914 1.357,-2.872 1.505,-3.061c0.799,-1.025 0.927,0.245 -0.267,2.2c-1.369,2.24 -1.393,4.668 -0.21,6.377c1.754,2.532 5.085,2.604 7.175,0.572l0,0c1.087,-1.286 1.951,-2.923 2.646,-5.015c0.154,-0.464 0.313,-0.809 0.426,-1.081c0.174,-0.419 0.425,-0.575 1.074,-0.7c4.45,-0.861 8.184,-5.475 8.714,-10.512c0.07,-0.682 0.262,-1.887 0.332,-2.603c0.14,-1.427 0.142,-8.822 0,-9.263c-0.075,-0.238 -0.208,-0.364 -0.497,-0.361c-0.223,0.003 -0.538,0.082 -0.989,0.245c-1.467,0.529 -2.15,0.663 -3.56,0.154c-0.465,-0.169 -0.788,-0.226 -0.979,-0.209c-0.621,0.054 0.205,0.955 2.018,1.95c0.776,0.427 1.39,1.002 0.761,0.959c-0.183,-0.012 -2.371,-1.154 -2.673,-1.341c-0.997,-0.617 -0.737,0.16 -0.223,2.205c0.689,2.746 0.292,3.517 -1.855,4.592c-0.4,0.201 -0.931,0.62 -1.201,0.889c-1.138,1.698 -0.844,0.447 -0.271,-0.457c0.979,-1.036 0.378,-1.389 -1.629,-0.671c-2.289,0.818 -3.324,0.221 -3.964,-1.065c-0.724,-1.454 0.638,-3.323 1.774,-3.287c0.368,0.012 0.302,0.146 -0.24,0.519c-0.655,0.452 -0.965,0.888 -1.033,1.659c-0.139,1.572 0.974,2.24 2.53,1.185c0.735,-0.498 1.313,-0.842 1.87,-0.969c0.551,-0.127 1.38,0.08 1.377,0.526c0,0.183 -0.027,0.634 0.013,0.734c0.146,0.497 0.934,-0.207 1.277,-0.457c1.172,-0.885 1.134,-1.06 0.813,-2.495c-0.523,-2.009 -0.787,-3.846 -1.286,-5.882c-0.266,-1.067 -0.311,-2.272 -0.149,-3.359c0.081,-0.545 0.291,-1.665 0.334,-2.432c0.042,-0.767 -0.008,-1.863 0.023,-1.863c1.164,0.9 1.637,1.057 2.772,0.622c1.757,-0.728 2.867,-0.652 4.348,0.063c0.548,0.265 1.047,0.451 1.047,0.451l0.067,-2.306c0,0 -1.37,-0.285 -3.903,-0.621c-7.625,-1.012 -23.27,-1.225 -23.853,-0.295c-0.148,0.236 -0.295,1.883 -0.711,4.174c-0.923,4.759 -1.957,9.502 -3.34,14.146c-0.284,0.946 -0.555,1.327 -0.41,1.355c0.059,0.012 0.342,-0.355 0.474,-0.508c0.742,-0.865 0.173,1.188 -0.946,3.661c-0.102,0.224 -0.185,0.468 -0.185,0.544c0,0.149 -0.704,1.873 -1.19,2.915c-0.301,0.648 -0.551,0.843 -0.548,0.429c0.34,-1.425 1.239,-3.268 1.369,-4.538c-0.788,1.15 -1.936,3.048 -2.804,4.18c-0.16,0.305 0.01,0.4 0.149,0.777c0.522,1.407 1.786,1.534 2.517,0.259c0.407,-0.711 1.673,-3.389 2.113,-4.561c0.453,-1.206 0.771,-1.842 0.922,-1.92c0.302,-0.158 0.361,0.527 -0.176,1.668c-1.63,3.46 -2.328,5.4 -3.125,6.115c-0.619,0.555 -1.691,0.52 -2.286,-0.468c-1.009,-1.675 -1.87,-1.121 -0.944,0.597c0.956,1.775 3.141,1.941 4.283,0.342c0.376,-0.527 2.149,-3.946 2.707,-5.336c0.311,-0.776 0.643,-1.38 0.754,-1.423c0.596,-0.231 -0.084,1.54 -1.793,5.088c-0.554,1.369 -1.444,2.807 -2.648,3.252c-2.926,0.647 -3.322,-0.916 -4.34,-2.697c-0.495,-0.443 -0.943,0.265 -0.754,1.048c0.308,1.271 0.882,1.768 1.769,2.406c1.852,1.191 4.427,0.371 5.36,-0.986l0.003,0Zm13.055,7.422c-0.266,-0.593 -0.227,-1.196 -0.092,-1.758c0.307,-1.266 0.815,-2.495 1.408,-3.564c0.961,-0.459 0.227,1.367 0.107,1.639c-1.159,2.44 -1.269,3.385 -0.187,3.666c0.927,0.242 1.425,-0.331 2.301,-2.519c0.45,-1.123 0.629,-1.62 0.788,-1.685c0.338,-0.137 0.5,0 0.48,0.343c-0.579,1.437 -1.032,2.948 -1.984,4.141c-0.931,0.787 -2.334,0.791 -2.821,-0.263Zm-8.693,-1.875c-0.403,-0.08 -1.094,-0.606 -1.575,-1.05c-1.637,-1.514 -1.367,-3.608 0.663,-7.543c0.158,-0.306 0.749,-1.496 0.939,-1.887c0.339,-0.7 0.674,-0.426 0.671,0.037c0,0.131 -0.508,1.217 -1.02,2.226c-2.243,4.427 -2.166,6.232 0.013,7.285c2.127,1.028 3.08,0.437 4.775,-2.942c0.981,-2.537 1.465,-2.579 1.411,-1.615c0,0.36 -1.189,2.792 -1.955,3.923c-1.111,1.639 -2.073,1.93 -3.922,1.566l0,0Zm0.161,-2.136c-0.834,-0.522 -1.175,-1.82 -0.681,-2.882c0.448,-0.876 1.598,-4.234 2.139,-4.424c0.868,-0.03 0.405,0.705 -0.672,2.77c-1.273,2.736 -1.227,3.467 -0.245,3.886c0.91,0.388 1.342,-0.407 2.683,-3.606c0.211,-0.503 0.505,-1.024 0.677,-0.915c0.214,-0.016 0.584,0.146 -0.121,1.596c-0.168,0.346 -0.452,1.073 -0.765,1.751c-0.918,1.979 -1.958,2.484 -3.015,1.824Zm15.071,-5.807c-0.367,-0.191 -2.089,-0.874 -1.834,-1.44c0.031,-0.053 0.132,-0.011 0.182,0.023c1.577,1.066 3.538,1.337 5.583,-0.143c0.344,-0.306 0.601,-0.099 0.409,0.285c-0.619,1.24 -3.376,1.771 -4.34,1.275l0,0Zm-5.065,-1.799c0.048,-0.119 0.19,-0.473 0.316,-0.95c0.189,-0.716 0.145,-1.243 0.312,-1.152c0.715,0.39 1.992,0.399 2.617,0.014c0.686,-0.423 2.076,-0.552 2.583,-0.219c0.724,0.476 1.093,0.254 1.6,-0.145c0.573,-0.45 0.583,-0.258 1.618,0.105c0.764,0.267 1.064,0.45 1.388,0.391c0.125,-0.023 0.377,-0.309 0.458,-0.295c0.248,0.046 0.276,0.757 0.505,1.57c0.203,0.719 0.087,0.892 -0.551,0.461c-0.474,-0.32 -1.839,-0.471 -3.257,-0.032c-1.051,0.325 -1.293,0.194 -2.064,0.063c-1.922,-0.328 -3.309,-0.581 -4.742,0.256c-0.765,0.447 -1.042,0.679 -0.783,-0.067l0,0Zm-4.78,-3.55c-0.932,-1.886 1.21,-4.382 3.093,-3.501c0.625,0.293 1.18,1.4 0.256,0.892c-4.282,-0.873 -3.212,5.457 1.386,2.114c3.057,-2.048 5.219,-2.365 5.399,-0.383c-0.085,0.727 -0.726,0.611 -1.211,0.678c-1.267,0.178 -1.736,0.386 -3.203,1.021c-2.234,0.71 -4.416,1.29 -5.72,-0.821Zm16.757,0.872c-1.045,-0.271 -1.953,-0.688 -3.043,-0.887c-1.079,-0.19 -1.566,-0.758 -1.371,-1.523c0.203,-0.795 1.284,-0.879 2.908,0.121c1.8,1.11 3.105,1.378 3.764,0.96c1.332,-0.846 0.614,-2.223 -0.658,-2.575c-0.954,-0.268 -0.252,-0.643 0.774,-0.334c1.656,0.633 1.691,3.653 -0.012,4.28c-0.569,0.209 -1.573,0.152 -2.362,-0.042l0,0Zm-14.587,-9.995c1.216,-0.759 2.39,-1.436 2.809,-1.889c0.219,-0.238 0.829,-1.035 0.355,-0.792c-2.479,1.504 -5.358,0.255 -7.443,-0.774c-1.002,-0.473 -0.756,-0.263 -1.525,-0.211c-0.521,0.035 -0.94,0.145 -1.034,-0.231c-0.041,-0.166 -0.333,-0.097 -0.519,-0.115c-0.771,-0.077 -0.284,-1.107 1.335,-2.242c1.909,-1.338 3.575,-2.212 5.228,-2.572c1.718,-0.374 3.469,-0.162 4.753,1.086c0.494,0.479 0.45,0.799 0.901,0.504c1.029,-0.672 1.038,0.22 0.17,1.046c-0.596,0.566 -0.378,0.72 0.351,1.26c0.348,0.257 0.063,0.502 -0.131,0.877c-0.074,0.229 -0.016,0.481 -0.051,0.655c-0.162,0.806 -3.798,3.654 -5.114,4.14c-0.905,0.171 -0.431,-0.518 -0.085,-0.742l0,0Zm2.525,-5.233l-0.604,0.008c-0.687,2.117 -1.956,2.838 -3.011,0.3l-0.481,0.049c-0.022,2.15 3.643,3.5 4.096,-0.357l0,0Zm-3.97,1.985c-0.249,-0.422 -0.529,-1.389 -0.789,-1.403c-0.709,-0.03 -1.689,0.098 -1.456,0.541c0.366,0.702 2.534,1.351 2.245,0.862Zm4.858,-0.378c0.653,-0.397 0.792,-0.67 0.366,-1.107c-0.55,-0.563 -0.838,-0.275 -1.011,0.624c-0.148,0.773 -0.04,0.9 0.645,0.483Zm-8.859,-1.488c4.377,-1.999 6.037,-2.257 7.815,-1.762c0.412,0.114 0.777,0.346 1.007,0.333c0.851,-0.052 0.308,-1.014 -1.22,-1.566c-1.746,-0.629 -2.853,-0.343 -6.208,1.422c-1.964,1.034 -3.56,2.562 -1.394,1.573Zm12.685,-2.426c-0.063,-0.119 -0.327,-0.914 -0.403,-1.205c-0.075,-0.29 -0.143,-0.589 -0.225,-0.591c-2.03,0.328 -3.816,-0.055 -4.295,-0.171c-3.072,-0.739 -6.039,-0.589 -8.254,0.286c-0.541,0.214 -1.212,0.56 -1.277,0.621c-0.175,0.165 -0.433,-0.023 -0.432,-0.229c0,-0.242 1.361,-1.328 2.218,-1.756c2.606,-1.303 5.357,-1.526 8.378,-0.706c1.967,0.761 3.235,0.638 4.493,0.082c0.618,-0.272 0.18,0.402 -0.016,1.298c-0.135,0.62 0.014,1.15 0.039,1.501c0.077,0.847 -0.019,1.271 -0.227,0.87l0.001,0Zm45.736,178.574l0,-69.946c-17.447,12.128 -25.079,14.539 -33.277,17.511c2.742,5.639 -3.299,10.464 -6.765,4.738c-3.566,4.04 -8.478,18.19 -8.652,22.888c0,0 9.485,16.559 14.114,24.809l34.58,0Zm-63.407,-22.929c0.317,-3.519 1.062,-9.486 3.385,-16.43c0.975,-2.913 2.15,-6.255 3.81,-9.247c0.663,-1.046 0.709,-1.45 0,-1.074c-0.444,0.237 -2.474,2.546 -2.75,3.129c-3.114,6.628 -4.554,14.591 -5.693,20.671c-0.259,1.367 -0.335,3.066 -0.335,3.066l1.583,-0.115Zm2.278,-0.289c0.741,-8.55 3.858,-20.093 8.543,-27.617c0.44,-0.717 0.982,-1.339 0.962,-1.587c-0.061,-0.731 -1.865,0.533 -3.264,2.691c-1.562,3.126 -3.127,6.46 -4.325,10.151c-1.69,5.211 -2.924,10.025 -3.405,16.558l1.489,-0.196Zm4.501,-0.714c0.47,-4.927 1.986,-9.447 3.256,-13.975c1.554,-5.536 3.628,-9.611 6.044,-13.281c0.776,-1.177 1.69,-2.278 2.56,-3.4c0.111,-0.135 0.222,-0.378 0.197,-0.479c-0.559,-0.099 -1.003,0.076 -1.434,0.32c-0.603,0.34 -1.451,1.2 -1.946,1.837c-3.443,4.43 -5.295,9.601 -7.014,14.826c-1.65,5.017 -2.839,9.843 -3.072,14.386l1.409,-0.234Zm-30.917,-3.776c0.692,-0.055 1.138,0.077 1.339,-0.109c0.2,-0.184 0.135,-0.68 0.197,-1.314c0.135,-1.356 -0.008,-1.282 -0.844,-0.406c-1.391,1.45 -3.927,2.009 -5.436,1.133c-0.762,-0.443 -1.291,-0.749 -1.363,-0.381c-0.083,0.429 0.032,0.757 0.358,0.986c1.828,0.841 3.563,0.263 5.749,0.091Zm-1.634,-1.039c0.963,-0.322 1.941,-0.841 2.492,-1.633c0.525,-0.755 0.516,-0.863 0.119,-0.719c-1.957,0.97 -3.243,1.464 -4.992,1.195c-2.368,-0.363 -2.466,-0.058 -0.901,0.931c1.024,0.647 1.874,0.666 3.282,0.226Zm-3.477,-3.03c0.367,-0.272 0.461,-1.384 0.165,-1.447c-0.299,-0.064 -0.735,0.488 -0.842,0.937c-0.119,0.596 0.319,0.748 0.677,0.51Zm3.667,-0.047l0.629,-0.058c-0.322,-2.787 -3.321,-2.907 -3.875,0.279l0.475,0.072c0.62,-2.541 2.433,-2.471 2.771,-0.293l0,0Zm1.977,-0.449c0.918,-0.516 0.601,-1.156 -0.637,-1.4c-0.813,-0.193 -0.768,0.477 -0.347,1.386c0.21,0.452 0.356,0.367 0.984,0.014l0,0Zm-7.064,-3.416c-0.008,-0.311 -0.134,-0.812 -0.28,-1.114c-1.057,-2.185 -1.641,-4.766 -1.521,-7.974c0.086,-2.3 0.114,-3.011 -0.36,-3.014c-0.662,0.321 -1.053,4.6 -0.21,8.163c0.594,2.514 2.415,5.634 2.371,3.939Zm-0.025,-3.483c-0.065,-1.201 0.197,-3.894 0.067,-4.482c-0.172,-0.772 -0.625,-1.469 -0.881,-1.655c-0.397,-0.288 -0.497,0.264 -0.359,1.708c0.322,3.387 0.862,5.951 1.173,4.429l0,0Zm0.334,-6.165c0.261,-0.475 0.159,-0.979 -0.416,-2.111c-2.268,-4.462 -2.562,-7.51 -0.193,-8.618c0.265,-0.124 0.432,-0.148 0.609,-0.247c0.747,-0.417 0.462,-1.175 -0.655,-0.862c-3.085,0.864 -3.694,3.777 -1.093,9.167c1.325,2.69 1.53,3.066 1.748,2.671Zm0.562,-2.53c0.041,-0.187 0.12,-0.916 0.151,-1.065c0.031,-0.15 -0.28,-0.579 -0.614,-1.439c-0.872,-2.247 -0.891,-3.179 0.058,-3.83c0.308,-0.181 0.625,-0.19 0.673,-0.4c0.075,-0.326 0.069,-0.862 -0.125,-1.017c-1.361,0.01 -1.99,0.81 -2.228,1.572c-0.36,1.204 0.015,2.968 1.084,5.154c0.517,0.681 0.788,1.928 1.001,1.025l0,0Zm1.04,-2.906c0.728,-1.482 0.038,-3.401 -0.964,-2.747c-0.65,0.425 -0.683,0.874 -0.284,2.108c0.485,1.502 0.773,1.606 1.248,0.639Zm2.552,-3.964c0.292,-0.29 0.033,-0.708 -0.505,-2.345c-0.461,-1.401 -0.25,-2.359 0.628,-2.636c1.26,-0.313 1.706,1.764 1.971,2.641c0.137,0.676 0.578,0.862 0.969,0.392c0.109,-0.132 0.141,-0.241 -0.046,-0.979c-0.813,-3.221 -1.877,-4.246 -3.589,-3.443c-1.588,0.744 -1.38,2.407 -0.229,5.906c0.154,0.468 0.257,0.815 0.368,0.864c0.091,0.04 0.271,-0.238 0.433,-0.4l0,0Zm1.407,-1.094c0.376,-0.375 0.354,-0.205 -0.077,-1.549c-0.491,-1.532 -0.749,-1.852 -1.277,-1.325c-0.324,0.323 -0.16,0.679 0.209,1.933c0.43,1.456 0.545,1.54 1.144,0.941l0.001,0Zm65.819,-5.246c2.506,-1.742 1.473,-4.869 -1.825,-6.029c-0.39,-0.136 -0.818,-0.302 -0.953,-0.367c-1.515,-0.735 -2.694,-0.962 -2.698,-0.387c0,0.337 0.453,0.507 1.906,1.221c2.149,1.055 2.634,2.274 1.574,3.812c-0.765,1.108 0.667,2.377 1.996,1.75Zm2.274,-3.805c0.217,-0.894 0.541,-1.661 0.695,-2.182c0.213,-0.816 -0.061,-0.626 -0.597,-0.499c-1.381,0.722 -2.369,0.33 -1.698,1.323c0.745,1.321 1.36,2.341 1.6,1.358Zm-0.172,-3.126c1.721,-1.039 2.103,-3.745 0.501,-5.035c-0.383,-0.309 -1.045,-0.716 -1.848,-0.962c-1.63,-0.501 -3.983,-0.729 -4.845,-0.466c-0.185,0.221 -0.193,0.567 -0.008,0.667c0.24,0.09 0.674,0.15 1.301,0.214c2.395,0.245 3.576,0.964 3.462,2.677c-0.118,1.765 -1.519,2.444 -4.047,1.886c-1.36,-0.3 -1.993,-0.155 -1.448,0.165c0.648,0.381 2.044,0.882 3.418,1.154c1.176,0.208 2.516,0.288 3.513,-0.3l0.001,0Zm-8.261,-0.445c1.937,-4.382 2.958,-15.876 -8.112,-24.184l0.366,2.299c6.522,5.759 8.089,13.094 6.738,19.822l1.008,2.063Zm9.884,-7.856c-0.693,0.453 -1.273,0.923 -2.163,1.323c-0.532,0.24 -0.546,0.299 0.178,0.697c0.35,0.192 0.927,0.546 1.147,0.786c0.383,0.417 0.835,0.576 1.004,0.425c-0.018,-0.652 0.203,-2.808 -0.166,-3.231Zm-3.277,0.831c2.242,-0.714 3.442,-1.801 3.187,-3.62c-0.375,-2.668 -2.59,-3.232 -6.737,-2.189c-1.995,0.501 -2.173,1.445 -0.28,0.958c2.391,-0.614 4.269,0.315 4.015,2.078c-0.149,1.522 -1.363,2.408 -3.495,2.408c-1.126,0 -1.474,0.102 -1.321,0.511c0.103,0.277 3.707,0.148 4.631,-0.146Zm-3.702,-6.339c3.666,-1.265 5.37,-3.233 4.533,-5.437c-0.986,-2.596 -4.185,-2.622 -7.4,-0.206c-1.501,1.107 -1.271,1.517 0.184,0.954c1.886,-0.873 3.099,-1.008 3.872,-0.314c1.394,1.253 0.453,3.44 -1.662,4.224c-1.024,0.429 -1.353,0.665 -1.355,0.975c0,0.49 0.184,0.372 1.828,-0.196Zm6.183,-0.04c0.095,-0.768 -0.767,-3.432 -1.139,-2.819c-0.099,0.162 -0.441,0.915 -0.873,1.305c-1.261,1.138 -1.023,0.707 0.229,1.055c0.696,0.194 1.68,0.688 1.783,0.459Zm-9.694,-5.693c3.706,-2.164 5.12,-5.252 3.2,-7.305c-1.727,-1.845 -4.588,-0.771 -7.246,2.584c-1.219,1.538 -0.303,1.345 1.34,-0.118c1.913,-1.704 4.347,-0.882 4.334,1.246c-0.008,0.908 -1.281,2.436 -2.488,3.146c-0.375,0.221 -0.429,0.559 -0.297,0.779c0.143,0.237 0.444,0.084 1.157,-0.332Zm6.496,-2.258c-0.194,-0.581 -1.588,-3.077 -1.887,-2.992c-0.317,0.64 -0.34,1.482 -0.719,2.161c-0.517,1.02 -0.451,0.86 1.195,0.855c1.224,-0.004 1.373,0.169 1.411,-0.024l0,0Zm-10.892,-2.822c3.113,-3.255 3.388,-7.066 0.471,-7.943c-1.615,-0.486 -4.198,0.691 -4.206,1.906c-0.008,0.757 0.136,0.894 0.791,0.622c2.751,-1.031 4.931,1.634 2.404,4.697c-0.615,0.887 -0.697,1.11 -0.518,1.293c0.21,0.215 0.38,0.134 1.058,-0.575Zm33.548,-27.833l0,-86.467l-18.235,0l-14.471,22.972l-0.022,5.637c-0.001,0.195 0.329,0.316 0.542,0.071c0.822,-0.641 0.505,0.032 -0.441,1.482c-0.956,1.467 -0.664,2.675 0.382,4.241c2.216,3.319 3.372,9.411 2.429,12.632c-0.356,1.216 -0.436,1.707 -0.203,2.387c0.265,0.778 0.429,1.194 1.198,1.695c0.669,0.47 6.173,2.632 15.039,8.376l-0.043,-40.531l5.586,-5.395l5.901,5.688l0.207,66.916c0,0.707 2.131,1.344 2.131,0.296l0,0Zm-3.211,-67.02l-4.942,-4.637l-4.884,4.568c-0.026,21.796 0.124,66.53 0.124,66.53l4.854,0.352c0,0 0.357,-1.021 -0.098,-3.659c-0.682,-3.959 -0.639,-8.794 0.456,-16.147c0.683,-4.512 0.008,-8.424 -1.031,-12.543c-0.899,-2.745 -0.931,-5.285 -0.767,-7.74c0.345,-3.916 1.415,-6.872 1.546,-12.505c0.074,-3.211 -0.078,-6.355 0.039,-10.316c0.048,-0.531 0.27,-0.466 0.31,0.082c0.148,3.585 0.286,6.99 0.319,10.491c-0.107,4.553 -1.212,9.238 -1.333,13.405c-0.091,2.887 -0.138,3.885 1.072,7.4c1.902,5.524 0.65,14.01 0.628,14.161c-0.806,5.437 -1.393,12.392 1.328,17.595l2.636,0.237l-0.257,-67.274Zm-33.995,41.117c1.458,-0.675 1.746,-1.866 0.961,-4.737c-0.14,-0.512 -0.3,-1.121 -0.355,-1.353c-0.168,-0.708 -0.484,-0.786 -0.906,-0.222c-0.251,0.336 -0.019,0.414 0.368,1.993c0.585,2.385 0.245,3.174 -0.635,3.168c-0.78,-0.005 -1.388,-0.653 -1.611,-2.2c-0.076,-0.529 -0.187,-0.889 -0.313,-1.101c-0.213,-0.354 -0.468,-0.29 -0.674,0.101c-0.267,0.507 0.234,2.594 0.9,3.606c0.721,1.02 1.218,1.23 2.265,0.745Zm-0.397,-2.142c0.31,-0.587 -0.075,-2.033 -0.275,-2.98c-0.185,-0.528 -0.396,-0.657 -0.743,-0.571c-0.517,0.127 -0.491,0.697 -0.304,1.635c0.38,1.909 0.587,2.15 1.322,1.916Zm4.432,-3.445c1.667,-0.958 1.827,-2.61 0.706,-5.616c-0.459,-1.232 -1.032,-2.099 -1.347,-2.109c-0.124,0.784 -0.238,1.202 -0.1,1.509c0.13,0.286 0.349,0.723 0.506,1.089c0.949,2.217 0.693,3.494 -0.223,4.187c-0.856,0.647 -0.315,1.191 0.458,0.94Zm-54.593,-1.155c3.913,-0.843 7.441,-7.178 9.663,-12.827c2.025,-5.692 4.177,-11.945 4.518,-17.16c0,0 -1.48,0.069 -1.662,0.377c-0.167,0.303 -0.241,0.958 -0.398,1.889c-1.02,4.798 -1.83,8.441 -3.61,12.95c-1.235,3.13 -2.583,6.673 -5.928,11.432c-1.099,1.33 -2.356,2.155 -3.936,2.376c-0.402,0.057 -1.079,-0.019 -1.25,0.102c-0.3,0.214 -0.03,0.697 0.744,0.892c0.693,0.175 1.396,0.061 1.859,-0.031l0,0Zm53.906,-0.741c0.596,-0.639 0.655,-1.399 -0.014,-3.005c-0.188,-0.45 -0.274,-0.706 -0.497,-0.643c-0.471,0.133 -1.022,1.382 -0.696,2.44c0.424,1.378 0.672,1.781 1.207,1.208l0,0Zm-55.271,-1.006c1.146,-0.154 2.598,-1.072 3.646,-2.511c2.156,-2.841 3.644,-6.073 4.747,-8.586c0.883,-2.025 2.478,-6.395 2.911,-7.978c0.921,-3.363 1.424,-5.532 1.844,-7.939c0.038,-0.221 0.075,-0.575 0.009,-0.689c-0.454,-0.125 -1.448,-0.05 -1.754,0.258c-0.549,3.86 -1.826,7.733 -2.76,10.952c-1.574,5.475 -6.061,14.235 -8.507,14.648c-1.315,0.222 -2.823,-0.93 -2.58,-2.112c0.148,-0.726 0.247,-1.002 0.6,-1.184c0.853,-0.302 1.349,0.282 0.414,0.664c-1.084,0.949 0.867,2.4 2.065,1.387c2.031,-1.719 -0.953,-5.012 -3.396,-3.499c-2.705,1.677 -2.01,4.58 -0.309,5.96c0.858,0.696 1.852,0.794 3.07,0.629l0,0Zm19.162,-3.931c1.671,-1.728 2.927,-3.966 3.84,-6.764c1.98,-6.282 3.621,-13.484 4.215,-19.126c0,0 -1.428,-0.148 -1.745,0.156c-0.225,0.214 -0.01,0.419 -0.618,4.542c-1.019,6.01 -2.506,11.979 -4.657,17.147c-0.882,2.089 -1.132,2.345 -1.754,3.43c-0.869,1.533 -0.547,1.923 0.719,0.615Zm37.091,-13.097c-0.155,-0.081 -0.142,-0.028 -0.208,0.018c-0.228,0.158 -0.079,0.961 0.438,2.2c1.363,2.216 1.523,6.517 1.434,8.133c-0.028,0.485 -0.077,0.763 0.069,1.195c0.144,0.423 0.398,0.915 0.807,0.091c0.448,-3.184 0.096,-6.518 -1.116,-9.217c-0.427,-0.96 -0.845,-1.898 -1.425,-2.42l0.001,0Zm1.049,9.389c0.239,-0.856 -0.202,-4.254 -0.75,-5.448c-0.22,-0.481 -0.619,-0.518 -0.571,0.029c0.008,1.177 -0.122,3.416 0,4.079c0.595,1.384 1.059,2.265 1.317,1.34l0.004,0Zm-3.086,-13.725l-0.643,0.001c0.022,2.222 -1.934,2.839 -2.656,0.171l-0.579,0.135c0.77,3.766 4.249,2.039 3.878,-0.307Zm-3.91,1.675c-0.335,-0.986 -0.196,-1.346 -1.044,-0.903c-0.648,0.339 -1.037,0.699 -0.124,1.142c0.811,0.346 1.379,0.385 1.168,-0.239Zm4.899,-0.568c0.269,-0.547 0.237,-1.04 -0.168,-1.043c-0.312,-0.001 -0.399,0.249 -0.487,0.78c-0.159,0.948 0.234,1.122 0.655,0.263Zm0.341,-3.692c0.247,-0.079 0.177,-0.431 0.11,-0.878c-1.06,-1.485 -3.682,-1.03 -4.624,-0.735c-1.088,0.355 -1.361,0.223 -2.101,-0.119c-0.612,-0.114 -0.698,0.035 -0.847,0.33c-0.131,0.259 -0.154,0.752 -0.197,1.61c-0.036,0.725 -0.01,1.062 0.241,0.836c0.97,-0.879 2.094,-1.976 3.734,-2.044c1.988,-0.083 3.685,1.033 3.684,1Zm-7.22,2.01c0,0.299 0.251,0.113 0.898,-0.296c2.353,-1.409 3.717,-1.209 5.732,-0.538c0.449,0.15 0.726,-0.323 0.24,-0.726c-2.393,-1.981 -5.341,-0.718 -6.87,1.56Zm8.528,-9.125l12.768,-21.274l-71.134,-0.053l12.078,22.587c9.85,-2.297 26.062,-5.23 46.288,-1.26l0,0Z" style="fill:#131f67;fill-rule:nonzero;"/><path id="path4098-7-2-7" d="M57.068,208.585c1.507,-2.265 8.968,1.77 9.363,3.369c4.416,-3.503 9.778,-3.758 14.093,0.627c4.437,-4.888 9.186,-4.553 14.127,-1.723c-0.552,-1.104 6.318,-5.98 10.493,-2.881l11.292,20.264l-72.338,0.235c4.273,-6.464 8.058,-14.183 12.97,-19.891Zm-31.597,-105.694c-0.393,-1.097 -1.98,-12.354 2.046,-12.635c6.51,2.908 14.818,13.309 18.668,19.665c4.771,7.877 9.591,25.988 6.929,25.197c-0.384,-0.114 8.216,8.563 8.809,9.411c0.974,1.393 -14.498,27.359 -17.054,26.428c-0.772,-0.282 -5.925,-3.382 -5.925,-3.382l0.148,-8.664l0.125,-17.481l-14.18,-1.245l0.498,-3.807c4.756,0.394 9.636,1.292 14.04,0.265c2.899,-5.348 1.792,-13.325 -1.693,-16.54c-1.844,-1.131 -3.585,-0.77 -5.456,-0.53c-7.593,-1.277 -3.659,-14.171 -6.955,-16.682Zm126.973,5.783l0.045,3.196c-4.998,1.098 -13.833,-3.169 -16.507,3.705c0.332,7.424 1.982,10.753 3.134,12.995c0.866,2.013 6.945,-0.284 9.086,1.747c6.142,7.62 4.693,17.765 4.747,26.907l-2.665,1.356c-18.416,-10.946 -32.557,-44.949 -34.516,-54.629c-0.125,-6.215 16.895,-26.188 16.895,-26.188c0.038,-0.043 6.201,3.781 6.201,3.781c0.149,0.06 -0.131,26.212 -0.13,26.091c4.867,0.252 9.584,0.731 13.71,1.039l0,0Zm-36.515,-23.903c-21.476,37.867 -12.693,65.882 3.11,90.057c0,0 -1.366,0.314 -1.517,0.179c-3.461,-3.102 -5.878,-2.559 -7.648,-2.587c-3.383,-0.054 -4.318,0.963 -6.259,1.157c-4.956,0.495 -4.554,0.622 -8.758,-0.975c-5.306,-4.36 -12.411,-7.703 -18.066,-9.461c-4.533,0.411 -11.446,2.57 -14.06,0.822c18.184,-33.824 15.461,-55.476 -3.364,-90.928c1.56,0.464 1.803,1.933 2.972,2.295c3.869,1.506 9.201,0.935 12.397,-0.47c5.077,-2.33 10.503,3.931 26.101,10.82c1.272,0.662 2.879,-0.383 4.283,-0.669c2.877,-0.587 5.342,-1.828 7.488,-1.101c0.689,0.233 3.321,0.861 3.321,0.861Zm-43.349,-44.262c-0.926,-1.736 -10.394,-19.892 -10.394,-19.892l70.43,0.428l-10.567,17.515c-0.997,0.951 -5.961,3.601 -11.023,-2.399c-0.095,0.862 -7.513,6.195 -13.889,-0.227c-3.837,3.514 -7.751,5.55 -14.207,1.594c-0.144,1.103 -5.179,6.052 -10.35,2.981Z" style="fill:#e2cf00;fill-rule:nonzero;"/><path id="path4094-0-9-9" d="M80.286,212.175c-6.824,-6.449 -13.928,-0.628 -13.765,-0.26c-2.701,-2.767 -5.342,-5.034 -8.903,-3.921c0,0 0.001,-0.971 0.028,-0.993c10.614,1.96 26.871,2.468 45.875,-1.544l0.975,2.058c-5.096,-1.827 -7.723,0.638 -9.982,3.515c-8.179,-5.148 -10.175,-0.631 -14.228,1.145l0,0Zm15.915,-75.003l4.828,-0.095c0.91,14.172 12.639,35.857 12.921,35.857c-0.816,-1.144 -8.56,-0.242 -8.503,-0.097c-4.258,-11.467 -8.934,-22.922 -9.246,-35.665Zm-28.156,33.62c0,0 -1.553,-4.063 -2.483,-5.801c5.069,-8.737 9.226,-17.779 11.359,-27.834l3.452,0.031c-1.022,13.882 -12.03,34.965 -12.328,33.604l0,0Zm62.105,-1.859c7.604,-13.849 6.292,-33.81 -15.28,-44.841c0,0 0.562,-14.632 2.166,-14.665c0.362,0.113 9.764,-0.122 9.764,-0.122c2.464,-6.102 6.428,-13.481 11.966,-18.464l0.139,16.355c-4.099,0.408 -6.599,1.728 -7.841,4.964l-5.679,1.277c0.417,16.429 6.542,31.609 24.706,45.243c-4.34,3.766 -19.177,11.411 -19.12,11.277l-0.821,-1.024Zm-91.017,-10.323l0.161,-17.03c2.755,-0.601 4.926,0.205 7.201,-4.779c0,0 3.816,1.829 5.084,2.503c-3.567,6.444 -6.647,13.329 -12.446,19.306Zm36.164,-30.152l0.187,-8.646l8.133,0.236c-0.691,2.932 -0.907,5.864 0.016,8.796l-8.336,-0.386Zm18.554,-0.105c0.555,-2.829 0.952,-5.675 -0.2,-8.676l8.806,0.151l-0.208,8.611l-8.398,-0.086Zm-16.747,-16.907c-1.465,-16.959 -12.977,-36.153 -13.138,-35.745c1.356,0.219 3.744,0.898 5.059,0.269c1.592,0.267 2.97,0.085 3.046,-0.063c0.106,-0.593 10.701,24.622 9.286,35.5c-0.168,0.367 -3.908,0.392 -4.253,0.039l0,0Zm20.354,0.148c1.242,-7.834 4.45,-22.164 12.026,-33.786c0.861,2.064 1.584,4.186 2.765,6.114c-5.712,8.389 -9.232,17.978 -11.367,27.766l-3.424,-0.094Zm-52.657,-4.223c-3.466,-7.138 -17.886,-18.376 -17.148,-17.24c5.969,-5.402 12.626,-8.832 19.272,-12.298c0,0 1.181,1.132 1.002,1.417c-4.086,6.5 -6.066,20.272 -2.111,28.165c3.801,8.43 10.545,13.414 17.419,17.327c-0.532,5.271 -0.792,9.081 -2.076,14.322c0,0 -4.32,-2.294 -7.86,-3.77c-0.563,-9.954 -2.604,-18.857 -8.498,-27.923Zm38.192,-69.948c5.082,3.128 9.634,2.799 14.047,-1.446c5.54,5.075 11.531,2.711 14.063,0.423c2.343,2.665 5.395,4.143 9.858,3.262l-1.105,2.343c0.264,-1.245 -30.784,-3.277 -45.807,0.969c0,0 -0.878,-1.767 -0.78,-1.782c1.307,-0.08 5.658,1.547 9.724,-3.769Z" style="fill:#d40000;fill-rule:nonzero;"/><path id="path4092-7-7-9" d="M61.152,20.054l12.55,23.604c0,0 0.368,-0.068 0.552,-0.104c17.395,-3.433 31.173,-3.903 45.97,-1.275l13.155,-21.975c-23.941,-0.275 -72.227,-0.25 -72.227,-0.25Zm1.399,1.006l69.79,0.077l-3.925,6.501c-2.351,-0.732 -3.662,0.356 -3.991,2.631c0,0 -0.29,-0.127 -0.835,-0.186c-3.44,-0.376 -3.874,4.201 -0.664,4.754c0.82,0.141 0.959,-0.024 0.959,-0.024c-2.864,2.43 -4.491,0.791 -5.838,-0.011c-0.037,0.283 -2.567,2.203 -4.953,-0.093c3.417,0.344 3.949,-3.113 2.315,-4.429c-0.342,-0.339 -0.69,-0.604 -0.69,-0.604c0.804,-0.707 0.979,-1.647 0.464,-2.723c-1.036,-2.165 -4.284,-2.038 -4.78,0.325c-0.193,0.92 -0.2,1.081 -0.2,1.081c-2.622,0.173 -3.155,2.673 -2.254,4.06c0.513,0.789 1.639,0.96 2.68,0.907c-1.402,2.006 -4.612,1.323 -6.041,-0.33c-2.272,2.696 -4.861,2.368 -6.153,0.922c0.878,-0.009 1.483,-0.022 2.289,-0.774c1.377,-1.287 0.7,-3.569 -1.246,-4.208c-0.378,-0.124 -0.65,-0.149 -0.671,-0.151c0.013,-0.02 0.05,-0.146 0.134,-0.833c0.484,-3.98 -5.42,-3.586 -4.849,0.329c0.066,0.454 0.188,0.698 0.188,0.698c0,0 -0.627,-0.036 -0.985,0.131c-3.279,1.527 -1.02,5.731 1.514,4.65c0.24,-0.103 0.894,-0.427 0.989,-0.423c-3.139,3.93 -5.773,1.144 -6.467,0.717c-2.12,3.175 -5.801,1.009 -5.877,0.786c0.23,0.065 0.92,-0.079 1.576,-0.418c2.074,-1.092 1.487,-3.902 -0.131,-4.513c-0.495,-0.175 -1.094,-0.193 -1.767,-0.14c0,0 0.051,-0.707 -0.015,-0.957c-1.02,-3.826 -5.732,-1.916 -4.573,1.317c0.101,0.284 0.375,0.57 0.375,0.57c0,0 -0.638,0.392 -0.923,0.651c-2.25,2.044 0.04,5.416 2.668,4.013c0.339,-0.181 0.668,-0.561 0.762,-0.538c-1.236,2.282 -3.112,3.078 -5.788,1.189c-1.65,2.642 -4.343,1.545 -5.102,0.221c2.516,0.233 4.15,-4.638 -0.686,-4.796c-0.376,-1.323 -0.358,-3.338 -3.424,-2.991l-3.875,-7.388Zm34.082,8.357c0.554,0 1.001,0.455 1.001,1.015c0,0.559 -0.447,1.015 -1.001,1.015c-0.554,0 -1.004,-0.456 -1.004,-1.015c0,-0.56 0.45,-1.015 1.004,-1.015Zm15.594,0.12c0.587,0 1.062,0.484 1.062,1.077c0,0.593 -0.475,1.073 -1.062,1.073c-0.586,0 -1.061,-0.48 -1.061,-1.073c0,-0.593 0.475,-1.077 1.061,-1.077Zm-30.567,1.174c0.566,0 1.024,0.462 1.024,1.034c0,0.572 -0.458,1.038 -1.024,1.038c-0.566,0 -1.027,-0.466 -1.027,-1.038c0,-0.572 0.461,-1.034 1.027,-1.034Zm43.789,1.274l-0.89,1.596c-0.981,-0.869 -0.304,-2.008 0.89,-1.596Zm-55.998,2.201l-0.884,-1.651c1.583,0.108 1.116,1.254 0.884,1.651Zm27.052,-0.899c5.989,6.897 11.361,4.857 14.873,0.271c1.507,3.909 4.864,6.611 10.642,3.983c-0.35,0.625 -1.227,1.728 -1.227,1.728c-5.106,1.39 -7.64,-1.039 -9.61,-3.351c-5.195,4.358 -10.086,3.301 -14.122,-0.543c-3.445,4.383 -9.024,5.325 -14.187,1.747c-2.361,3.521 -5.748,4.943 -10.006,3.181c0,0 -0.903,-1.435 -0.981,-1.526c0.617,0.523 8.459,3.813 10.373,-4.099c2.73,4.682 11.68,4.93 14.245,-1.391Zm0.602,2.836c6.737,6.367 13.807,0.861 13.988,0.472c0.106,0.354 3.951,4.995 9.495,3.251l-0.901,1.561c-10.432,-1.784 -20.028,-2.929 -42.006,0.337c0,0 3.508,-1.05 5.283,-3.878c0.987,0.649 8.611,4.95 14.141,-1.743Zm-23.614,5.277c0,0 2.933,0.347 3.163,0.406c0.257,0.202 -2.469,0.959 -2.48,0.903l-0.683,-1.309Zm5.946,30.377c-0.178,0.006 -0.399,0.208 -0.767,0.574c-0.795,0.791 -0.976,0.895 -1.748,1.007c-0.582,0.084 -1.811,0.799 -2.557,1.488c-0.201,0.186 -0.586,0.341 -1.046,0.422c-0.4,0.07 -0.95,0.166 -1.223,0.213c-0.273,0.047 -0.569,0.134 -0.659,0.19c-0.392,0.241 -1.029,0.278 -1.745,0.105c-0.689,-0.168 -0.8,-0.163 -1.56,0.073c-1.107,0.345 -1.832,0.345 -2.376,0c-0.545,-0.345 -1.41,-0.473 -1.959,-0.294c-0.812,0.265 -2.914,-1.007 -2.91,-1.759c0,-0.171 -1.195,-1.075 -1.495,-1.077c-1.065,-0.16 -10.428,3.576 -10.381,3.793c11.497,14.351 21.175,36.215 13.885,62.971l-1.288,-0.623c1.082,-4.864 1.511,-9.758 1.844,-14.73c-21.58,-9.416 -23.437,-31.312 -15.062,-45.135l-1.422,-1.53c-5.075,2.737 -10.233,4.291 -22.778,14.927l0.035,17.217c0.031,15.565 0.023,30.731 0.023,30.731c4.54,0.508 9.54,0.923 14.471,1.352c0,0 -0.063,15.392 -0.176,21.413c-0.096,5.092 0.092,4.773 0.092,4.773l16.33,8.701c-1.148,-4.583 1.685,-6.404 4.055,-6.213c-1.048,-4.419 1.554,-6.442 4.524,-5.874c2.006,0.383 2.708,1.501 3.856,5.195c0.187,0.6 0.443,1.403 0.443,1.403l1.145,-0.042c1.432,-3.11 2.389,-7.066 5.76,-7.579c4.412,-0.671 6.055,2.392 6.053,5.455c4.274,-3.807 9.395,-0.86 9.062,4.826c2.15,-1.397 5.795,-2.66 8.091,2.728c0.863,-0.184 1.303,-1.156 2.517,-1.46c0.454,-0.096 1.483,-0.655 1.483,-0.655l0.013,-0.187c0,0 0.954,-0.333 2.234,-0.545c1.098,0.414 0.777,0.4 1.369,-0.338c0.659,-0.341 1.728,-0.566 2.552,-0.491c0.865,0.078 1.249,0.141 1.756,-0.082c0.789,-0.348 1.526,-0.437 1.993,0.089c0.336,0.378 0.821,0.196 1.342,0.175c1.042,-0.042 2.43,0.39 2.863,1.336c0.639,0.658 2.036,1.325 2.036,1.325l1.131,-0.263l0.13,-0.422l9.25,-3.569c-18.861,-20.872 -18.37,-48.563 -13.927,-62.58l1.706,0.829c-0.904,4.154 -1.931,8.421 -1.798,14.614c16.985,7.653 25.436,27.437 15.138,44.704l1.089,1.422c4.284,-1.817 15.059,-7.931 18.784,-11.254l0.793,0.066c0,0 2.258,-1.478 3.255,-2.267l0.134,-45.824l-0.79,0.209l-0.142,-2.677l-14.003,-1.124c0.178,-0.134 0.312,-0.189 0.353,-0.457l-0.081,-25.368c-0.52,-0.804 -12.248,-7.748 -16.61,-9.372c-0.174,-0.001 -0.054,0.297 0.008,1.023c0.214,2.488 -1.448,4.703 -3.373,4.707c-0.693,0.002 -0.813,0.299 -0.778,1.728c0.049,2.032 -0.678,3.397 -2.795,4.169c-2.509,0.915 -4.208,-0.412 -5.604,-5.63c-0.367,-1.37 -1.084,-1.027 -1.771,0.845c-0.341,0.929 -1.445,3.185 -2.105,4.374c-0.508,0.914 -1.311,1.319 -2.403,1.805c-0.852,0.426 -2.695,0.352 -3.757,-0.193c-1.925,-0.989 -2.673,-2.176 -3.228,-5.118c-0.073,-0.385 -0.322,-0.352 -0.947,0.124c-3.4,2.589 -8.181,-0.088 -8.153,-4.564c0.008,-1.314 -0.045,-1.367 -0.809,-0.736c-2.306,1.902 -5.439,0.937 -6.693,-2.061c-0.294,-0.702 -0.45,-1.015 -0.678,-1.008l-0.001,0Zm-19.543,1.589c0.241,-0.011 0.989,0.995 0.989,0.995c0.691,0.772 1.619,1.163 2.584,1.736c0.09,-0.136 11.257,15.011 13.156,35.895l5.194,0.027c-0.968,-20.293 -6.506,-30.046 -9.046,-36.305l1.863,-0.597c4.177,8.089 9.269,24.508 9.1,38.882l-8.579,0c-1.211,-14.397 -6.751,-28.435 -14.498,-39.083c-0.539,-0.818 -0.962,-1.389 -0.805,-1.535c0.011,-0.01 0.027,-0.015 0.043,-0.015l-0.001,0Zm-3.285,2.142l0.87,2.759c0,0 0.105,-0.644 0.372,-0.888c1.695,-1.543 3.317,0.489 2.553,3.247c-0.174,0.849 -0.514,2.522 -0.514,2.522c0,0 -1.703,-0.883 -2.56,-1.166c-2.364,-1.015 -3.152,-3.015 -1.346,-3.243c0.303,-0.038 0.924,-0.065 0.924,-0.065c-0.751,-0.597 -2.407,-1.961 -2.407,-1.961l2.108,-1.205Zm7.935,0.31c0.714,0.41 2.557,0.852 3.615,0.45c0.855,-0.325 1.506,-0.147 2.396,-0.07c0.51,0.044 1.526,-0.182 1.526,-0.182c5.079,10.798 8.572,23.611 9.154,35.329l-3.995,0.023c-1.508,-12.448 -6.275,-25.093 -12.324,-34.473c-0.268,-0.409 -0.624,-1.062 -0.372,-1.077l0,0Zm16.687,0.186c1.546,0.019 3.164,1.577 4.044,4.126c0.49,1.42 0.681,1.334 1.338,1.104c1.687,-0.584 3.484,1.288 1.223,1.6c-2.22,0.371 -0.953,4.759 -1.143,5.145c-0.899,0.159 -2.589,-3.57 -2.545,-4.68c0.108,-2.719 -2.42,-4.994 -3.99,-3.851c-0.745,0.542 -0.664,0.924 -0.894,0.729c-0.707,-0.6 -0.85,-2.255 -0.023,-3.193c0.598,-0.677 1.287,-0.988 1.99,-0.98l0,0Zm45.947,0.938c0,0 0.087,3.576 -0.046,4.366c-0.264,2.384 -3.345,2.635 -3.465,0.728c-0.504,0.762 -0.85,1.71 -1.051,2.561l-2.185,-1.519c0.83,-0.602 1.621,-1.13 2.235,-1.875c-1.62,0.124 -2.525,-1.293 -1.441,-2.499c1.203,-1.381 4.533,-1.53 5.953,-1.762l0,0Zm-80.34,1.131l0.966,1.1c-8.61,15.424 -5.574,35.14 15.207,45.499c-0.138,4.732 -0.737,9.518 -1.855,13.959l-7.667,-3.758c0.051,-17.439 -9.719,-34.064 -25.316,-44.991c5.66,-4.596 11.921,-8.633 18.665,-11.809Zm62.775,0.132c0.366,2.036 2.273,5.724 2.411,5.513c-0.02,-0.121 -7.939,10.251 -11.381,27.6l-2.94,0.011c1.927,-11.559 5.774,-22.467 11.91,-33.124Zm24.407,0.484l1.564,0.957c-8.206,6.944 -13.61,15.747 -17.58,25.241l-2.074,-0.992c6.155,-13.771 12.235,-19.887 18.09,-25.206Zm2.189,1.538c0.429,0.028 0.939,0.577 1.729,1.015c0.772,0.428 0.58,0.656 -0.874,1.782c-1.72,1.332 -1.882,1.273 -1.867,-0.627c0.01,-1.261 0.325,-2.102 0.928,-2.166c0.028,-0.003 0.056,-0.006 0.084,-0.004l0,0Zm-1.89,1.96c0.091,-0.004 0.164,0.026 0.211,0.101c0.126,0.503 0.113,1.656 -0.088,2.793c-0.163,0.749 -2.368,2.631 -3.155,3.375c-0.315,0.209 -0.46,0.133 -0.518,-0.24c0.025,-0.591 0.082,-1.377 0.092,-2.178c0,-0.246 -0.048,-0.504 0.173,-0.693c1.081,-1.289 2.654,-3.124 3.285,-3.158Zm4.098,0.613c0.014,0 0.022,0.002 0.03,0.008c0.204,0.123 0.171,2.708 0.028,2.878c-0.64,0.167 -2.361,-0.107 -2.803,-0.345c-0.096,-0.3 2.333,-2.558 2.745,-2.541l0,0Zm-76.87,0.836l0.598,2.534c0,0 0.171,-0.34 0.214,-0.407c1.189,-1.836 2.634,-0.76 2.611,1.79c-0.008,0.806 -0.732,4.026 -0.732,4.026c0,0 -4.461,-2.165 -4.811,-3.115c-0.345,-0.935 0.145,-1.757 0.966,-1.833c0.307,-0.035 0.629,-0.061 0.981,0l-1.917,-1.98l2.09,-1.015Zm51.068,0.337l2.024,0.756c-4.221,6.939 -8.577,13.793 -11.75,29.425l-8.483,0c1.187,-9.553 3.591,-18.944 7.882,-28.085c0,0 1.666,-0.517 2.606,-0.825c0,0 -7.011,16.215 -7.828,26.639l4.098,0.089c2.187,-10.158 6.28,-20.687 11.451,-27.999Zm-16.062,0.252c1.14,-0.043 1.981,0.767 1.917,2.205c-0.015,1.314 -0.134,1.505 -1.055,0.98c-1.208,-0.69 -2.164,-0.705 -3.247,0.077c-0.595,0.431 -1.18,0.787 -1.18,0.787c0,0 0.522,-2.283 1.322,-3.003c0.767,-0.689 1.559,-1.02 2.243,-1.046l0,0Zm-4.351,3.379c-0.082,0.772 -0.308,1.126 -0.51,1.786c0,0 0.664,-0.261 0.981,-0.411c1.508,-0.71 3.079,0.605 3.056,2.146c0.068,1.028 -1.038,2.26 -2.354,2.271c-0.459,0.004 -0.945,-0.143 -1.415,-0.496c0.341,1.883 0.409,2.754 -0.954,3.7c-1.14,0.766 -3.543,-0.11 -3.408,-2.217l0.084,-1.297l-1.153,0.151c-3.223,0.133 -3.28,-3.876 -0.679,-4.506c1.039,-0.248 2.166,0.612 2.166,0.612c-0.494,-0.983 -0.504,-2.674 0.161,-3.456c1.637,-1.923 4.226,-0.174 4.025,1.717Zm28.141,-2.503c0.176,1.5 0.766,3.136 0.598,4.537c-0.251,1.789 -1.757,2.849 -2.941,1.689c-0.146,-0.143 -0.41,-0.442 -0.41,-0.442c-0.533,0.683 -0.866,2.615 -0.866,2.615l-2.089,-1.302c0,0 1.451,-1.029 1.851,-1.615c0.112,-0.163 0.165,-0.473 0.165,-0.473c-1.162,0.368 -2.149,-0.834 -1.832,-1.894c0.629,-1.737 3.756,-2.381 5.524,-3.115Zm14.601,1.085c0.782,-0.025 1.993,0.199 2.948,0.302c0.735,0.129 0.327,0.548 -1.319,2.169c-1.512,1.489 -1.464,1.349 -2.629,1.329c-2.722,-0.046 -3.199,0.016 -1.614,-1.712c0.83,-0.906 1.554,-1.723 2.15,-2.026c0.126,-0.037 0.284,-0.057 0.464,-0.062l0,0Zm-4.907,0.313c0.035,0.002 0.063,0.015 0.088,0.039c0.181,0.17 0.12,0.946 0.1,2.092c-0.021,1.221 -0.008,1.221 -0.514,1.86c-0.644,0.816 -1.179,1.648 -1.851,2.433c-0.582,0.638 -0.564,0.57 -0.912,-0.965c-0.338,-1.488 -0.15,-1.952 1.748,-4.11c0.642,-0.833 1.099,-1.36 1.341,-1.349l0,0Zm8.499,0.849l0.023,3.018c-5.615,5.549 -9.431,11.791 -12.025,18.67l-1.955,-0.787c3.387,-8.789 8.457,-15.643 13.957,-20.901l0,0Zm-48.676,1.825c-0.928,0 -1.679,0.759 -1.679,1.697c0,0.938 0.751,1.7 1.679,1.7c0.928,0 1.683,-0.762 1.683,-1.7c0,-0.938 -0.755,-1.697 -1.683,-1.697Zm-0.011,0.534c0.64,0 1.161,0.527 1.161,1.174c0,0.648 -0.521,1.174 -1.161,1.174c-0.641,0 -1.158,-0.526 -1.158,-1.174c0,-0.647 0.517,-1.174 1.158,-1.174Zm-62.385,0.717c17.516,11.357 25.37,28.964 25.335,44.089l-0.989,-0.45c-1.025,-21.372 -12.52,-34.512 -24.944,-43.015l0.598,-0.624Zm103.7,0.163c0.397,0.001 0.937,0.063 1.718,0.155c1.45,0.078 1.628,0.17 0.629,1.329c-0.274,0.317 -0.799,0.98 -1.17,1.48c-0.37,0.499 -0.821,1.02 -1.027,1.092c-0.305,0.106 -2.85,-0.015 -3.577,-0.116c-0.237,-0.033 0.075,-0.279 1.315,-2.069c0.951,-1.372 1.052,-1.827 1.951,-1.867c0.052,-0.003 0.105,-0.004 0.161,-0.004l0,0Zm7.295,0.581c0,0 0.348,9.741 0.096,15.954c-3.995,-0.149 -6.342,1.383 -7.318,4.285l-4.197,-2.1c3.08,-7.995 7.199,-13.558 11.419,-18.139Zm-12.366,0.225c0.227,0.003 0.357,0.478 0.422,1.414c0.264,1.674 0.235,1.869 -0.457,2.944c-0.344,0.535 -0.816,1.291 -1.046,1.681c-0.401,0.682 -0.686,0.885 -0.786,0.555c-0.547,-1.807 -0.719,-2.925 -0.525,-3.29c0.319,-0.599 1.81,-2.739 2.02,-3.018c0.146,-0.193 0.269,-0.288 0.372,-0.286Zm-99.917,0.182c14.08,8.81 24.38,23.857 24.806,42.035c0,0 -3.001,-1.423 -4.853,-2.464l-0.096,-1.767l0.978,-0.031l0.314,1.992l2.15,-0.07l-0.571,-4.971l-3.365,0.322l-0.679,-2.817l1.02,-0.22l0.563,1.817l2.189,-0.586l-1.165,-4.428l-3.381,0.934l-1.081,-2.991l1.123,-0.407l0.908,1.79l2.059,-0.724l-1.944,-4.44l-3.108,1.484l-1.58,-2.898l1.215,-0.655l0.978,1.724l1.924,-1.007l-2.38,-4.084l-2.952,1.666l-1.483,-2.247l0.916,-0.647l1.012,1.182l1.69,-1.209l-2.591,-3.522l-2.825,2.236l-2.09,-2.445l0.963,-0.825l1.437,1.302l1.606,-1.418l-3.078,-3.394l-2.691,2.479l-2.005,-1.759l0.982,-1.096l1.249,0.965l1.331,-1.593l-3.351,-2.789l-2.511,2.51l-2.407,-1.607l0,-1.197c0.782,0.304 1.609,0.659 2.35,1.057l1.246,-1.906l-3.596,-2.452l0.774,-0.829Zm39.212,0.751l0.533,3.107c0.505,-0.845 0.907,-1.426 2.001,-1.1c1.313,0.541 1.331,2.539 0.218,5.598c-0.206,0.567 -0.46,1.058 -0.46,1.058c0,0 -0.575,-0.241 -0.958,-0.507c-0.804,-0.556 -2.157,-1.184 -2.848,-2.286c-0.725,-1.154 -0.741,-2.769 0.59,-2.631c0.264,0.002 0.786,0.128 0.786,0.128l-1.997,-2.573l2.135,-0.794Zm-39.986,0.926l2.438,1.589l-0.506,0.929l-1.932,-0.879l0,-1.639Zm61.123,0.732c0.706,0.999 -1.779,3.94 1.472,5.114c0,0 0.08,0.677 -0.598,1.089c-1.591,1.169 -3.875,-0.965 -3.166,-3.161c0.453,-1.405 1.763,-3.034 2.292,-3.042Zm6.747,0.093c0,0 0.98,0.724 1.177,0.915c1.81,1.754 1.827,4.269 0.187,5.149c-1.091,0.585 -2.324,0.113 -2.752,-0.737c-0.198,-0.393 0.128,-0.804 0.544,-0.801c0.781,0.004 1.378,-1.508 1.147,-3.1c-0.092,-0.631 -0.303,-1.426 -0.303,-1.426Zm21.359,0.585c0,0 0.216,2.15 0.525,3.104c0.951,2.673 -0.263,4.3 -2.039,3.405c-0.254,-0.128 -0.701,-0.709 -0.701,-0.709l-0.177,3.072l-2.526,-0.743c0.546,-0.888 1.333,-1.52 1.921,-2.519c0,0 -0.379,-0.013 -0.71,-0.015c-1.509,0.052 -2.065,-1.638 -0.483,-3.03c1.179,-1.027 4.19,-2.565 4.19,-2.565l0,0Zm13.206,0.713c0.306,-0.002 0.687,0.023 1.211,0.024c1.603,0.001 2.014,-0.218 1.308,0.79c-0.276,0.393 -0.948,1.487 -1.147,1.859c-0.403,0.757 -0.484,0.994 -1.157,1.143c-0.975,0.195 -2.079,0.061 -3.193,0.113c-0.242,-0.012 0.255,-0.851 0.532,-1.372c0.68,-1.276 1.095,-2.153 1.679,-2.421c0.23,-0.106 0.461,-0.134 0.767,-0.136l0,0Zm-4.953,0.988c0.194,-0.01 0.337,0.341 0.522,1.066c0.43,1.692 0.541,1.734 -0.154,3.122c-0.35,0.701 -0.946,1.888 -1.192,2.379c-0.629,1.26 -0.665,1.248 -1.062,0.12c-0.761,-2.163 -0.827,-1.94 0.43,-4.37c0.784,-1.518 1.173,-2.302 1.456,-2.317Zm-92.391,0.593l2.265,1.836l-0.644,0.632l-1.253,-0.934l-1.852,2.003l3.044,2.805l2.576,-2.565l2.208,2.333l-0.675,0.577l-1.295,-1.263l-1.94,1.674l2.894,3.455l2.917,-2.247l1.829,2.422l-0.748,0.472l-1.192,-1.17l-1.897,1.329l2.361,3.363l2.975,-1.724l1.69,2.809l-0.939,0.457l-0.958,-1.542l-2.136,1.244l2.017,3.932l3.212,-1.356l1.292,3.003l-0.981,0.402l-0.825,-1.805l-2.162,0.864l1.449,4.13l3.259,-0.945l0.789,3.068l-1.004,0.283l-0.494,-1.701l-2.074,0.504l0.866,4.145l3.316,-0.213l0.395,3.351l-1.031,0.047l-0.257,-1.999l-2.112,0.027c0.011,0.704 0.092,2.142 0.092,2.142l-1.277,-0.596c-1.896,-12.743 -8.66,-23.364 -18.737,-30.758l-0.054,-1.522l2.453,1.572c0,0 2.25,-2.025 2.638,-2.541l0,0Zm96.788,2.971c0.703,-0.005 0.392,0.546 -0.464,2.193c-0.955,1.838 -1.124,1.876 -2.913,2.317c-2.175,0.536 -2.112,0.656 -0.935,-1.879c0.453,-0.977 0.784,-1.833 1.2,-2.158c0.545,-0.426 1.601,-0.263 2.748,-0.438c0.143,-0.021 0.264,-0.034 0.364,-0.034l0,-0.001Zm-101.76,0.543c10.465,6.823 17.08,20.937 17.902,29.494c0,0 -0.284,-0.192 -0.855,-0.457c-0.794,-0.368 -0.988,-0.609 -1.219,-1.774c-2.073,-10.464 -7.917,-19.344 -15.782,-25.613l-0.046,-1.65Zm94.373,1.747c0.443,-0.093 1.25,3.119 1.009,3.793c-0.174,0.484 -1.73,-0.659 -2.297,-0.903c-0.283,-0.121 0.989,-2.827 1.288,-2.89Zm-50.466,0.147l-0.049,3.332c0,0 0.397,-0.476 0.601,-0.627c0.779,-0.574 1.968,0.221 2.013,1.204c0.062,1.364 -0.142,1.918 -1.223,3.813c-0.335,0.586 -0.84,1.332 -0.84,1.332c0,0 -1.276,-0.919 -2.671,-2.324c-1.509,-1.518 -1.22,-3.546 0.099,-3.553c0.395,-0.003 0.747,0.133 1.093,0.244c-0.285,-0.981 -1.346,-2.886 -1.346,-2.886l2.323,-0.535Zm40.906,2.495c0,0 0.683,0.91 1.468,3.301c0.75,2.284 -0.404,4.003 -1.97,3.142c-0.281,-0.154 -0.575,-0.488 -0.575,-0.488c-0.11,1.107 0.085,3.099 0.111,3.115l-2.526,-0.446c0,0 1.387,-2.227 1.487,-2.777c0,0 -0.157,0.124 -0.851,0.124c-2.538,-0.002 -2.012,-3.053 0.92,-4.746c0.44,-0.255 1.936,-1.225 1.936,-1.225Zm14.551,0.039c0.55,-0.025 0.29,0.513 -0.318,1.767c-0.672,1.387 -0.504,1.266 -1.924,0.534c-1.987,-0.98 -1.869,-1.134 0.648,-1.82c0.796,-0.298 1.307,-0.468 1.594,-0.481Zm-36.026,0.407c1.99,0.012 3.457,1.996 3.163,4.816c-0.505,4.84 -0.215,4.542 0.307,5.024c0.95,0.881 -0.336,1.409 -1.468,0.57c-0.789,-0.584 -1.045,-1.161 -1.009,-3.832c0.043,-3.07 -0.121,-3.851 -1.207,-3.583c-0.678,0.167 -0.891,0.75 -0.817,2.82c0.106,2.906 -0.085,3.638 -1.177,4.568c-1.177,0.921 -2.447,0.1 -1.372,-0.508c0.492,-0.559 0.584,-1.269 0.395,-3.025c-0.207,-1.496 -1.071,-6.876 3.185,-6.85Zm49.942,2.448c3.828,0.146 13.508,0.942 13.508,0.942l0.085,2.89c-0.433,0.269 -7.658,-0.844 -12.972,-0.744c-1.243,0.024 -2.123,0.578 -3.021,0.113c0.863,0.361 0.783,4.721 -3.017,3.665c-3.223,-1.172 -1.652,-5.576 2.469,-6.687c1.062,-0.148 1.977,-0.193 2.948,-0.179Zm-22.058,1.93l8.273,4.122c1.158,15.696 6.519,32.278 24.779,44.848c-2.958,2.139 -10.379,7.393 -18.86,10.991l-0.694,-0.751c10.07,-17.308 2.462,-36.358 -15.173,-44.98c0.047,-4.804 0.645,-9.543 1.675,-14.23Zm29.099,2.63c1.587,-0.062 2,0.122 2.136,0.849c0.128,0.686 0.632,0.848 1.23,0.627c1.456,-0.536 2.345,2.074 1.139,3.232c-0.749,0.719 -0.618,0.995 0,0.999c1.52,0.01 1.476,2.021 -0.069,3.162c-0.641,0.473 -0.633,0.688 0.038,1.022c1.124,0.561 0.897,1.669 -0.529,2.581c-0.776,0.496 -0.801,0.618 -0.161,0.794c1.614,0.444 -0.033,2.767 -1.798,2.355c-0.724,-0.169 -1.413,-0.011 -2.104,0.446c-1.891,0.796 -2.207,0.954 -4.248,0.697c-1.791,-0.332 -2.592,-0.928 -3.055,-2.518c-1.051,-3.233 -2.184,-6.814 -2.196,-10.344c-0.159,-2.167 3.435,-4.127 5.138,-4.211c1.386,-0.211 2.977,0.295 4.483,0.309l-0.004,0Zm-113.149,0.055c1.901,0 3.442,1.557 3.442,3.479c0,1.921 -1.541,3.479 -3.442,3.479c-1.901,0 -3.442,-1.558 -3.442,-3.479c0,-1.922 1.541,-3.479 3.442,-3.479Zm38.257,1.022l-0.311,3.042c0,0 0.506,-0.4 0.625,-0.5c0.896,-0.756 2.311,0.089 1.99,1.267c-0.105,1.037 -1.877,4.122 -2.584,4.769c0,0 -2.843,-3.13 -3.147,-3.743c-0.676,-1.36 0.247,-2.778 1.476,-2.177c0.175,0.086 0.682,0.465 0.682,0.465l-0.901,-2.886l2.17,-0.237Zm-38.027,0.245c-1.217,0.041 -2.372,0.796 -2.216,1.801c0.104,0.429 0.753,-0.19 1.392,-0.597c0.489,-0.311 1.079,-0.36 1.637,-0.116c0.494,0.178 0.706,0.639 0.993,0.996c0.243,0.301 0.509,0.547 0.659,0.399c0.128,-0.16 0.076,-0.359 0.042,-0.539c-0.262,-1.369 -1.383,-1.979 -2.507,-1.944l0,0Zm92.702,0.472l1.231,0.636c1.656,22.181 12.754,35.221 24.415,42.988l-0.928,0.566c-14.31,-9.266 -24.245,-25.866 -24.718,-44.19Zm1.863,0.911c0,0 3.09,1.598 4.708,2.336l0.061,2.007l-1.081,0.038l-0.368,-1.886l-2.246,0.162l0.701,4.642l3.623,-0.45l0.506,2.805l-1.227,0.26l-0.628,-1.724l-2.078,0.511l1.346,4.51l3.266,-1.066l1.023,2.949l-1.096,0.403l-0.702,-1.728l-2.15,0.759l1.663,4.401l3.401,-1.104l1.372,2.755l-1.031,0.461l-0.985,-1.709l-2.04,1.054l2.392,4.11l3.071,-1.627l1.433,2.197l-1.127,0.763l-1.023,-1.344l-1.652,1.1l2.645,3.65l2.645,-2.003l1.978,2.305l-0.874,0.782l-1.35,-1.383l-1.598,1.441l3.151,3.495l2.737,-2.402l1.944,1.829l-0.576,0.612l-1.307,-0.825l-1.732,1.859l3.308,2.91l2.626,-2.91l2.227,1.658l0,1.225l-1.99,-1.019l-1.334,2.03l3.324,2.541l-0.023,1c-18.973,-11.44 -23.966,-29.183 -24.933,-42.38l0,0Zm-38.843,0.22c0.82,-0.025 1.686,0.755 3.116,2.43c3.998,4.68 2.931,11.922 -2.296,15.698c-0.761,0.55 -1.067,0.501 -1.997,-0.306c-5.361,-4.656 -5.671,-10.881 -0.897,-16.349c0.825,-0.945 1.436,-1.453 2.074,-1.473Zm19.163,0.644c0.986,1.527 2.23,3.099 2.373,4.955c-0.071,1.834 -1.295,2.172 -2.561,1.104c-0.16,0.963 0.383,2.84 0.383,2.84l-2.292,-0.248c0,0 0.899,-1.588 0.935,-2.581c-1.591,1.121 -2.807,-0.34 -2.591,-1.518c0.455,-2.004 2.085,-3.356 3.753,-4.552Zm-19.094,1.197c-0.188,0.015 -0.383,0.145 -0.683,0.387c-1.396,1.132 -2.493,2.54 -3.062,4.002c-1.202,3.086 -0.418,6.565 2.292,9.263c1.377,1.371 1.861,1.278 3.971,-1.557c1.768,-2.374 2.135,-5.441 1.047,-8.105c-0.531,-1.3 -1.494,-2.567 -2.649,-3.487c-0.444,-0.353 -0.675,-0.523 -0.916,-0.503Zm44.099,0.569l1.779,0.884c2.269,15.126 9.624,24.355 17.867,30.718l-0.015,1.403l-2.212,-1.732l-2.649,2.801l-2.147,-1.778l0.805,-0.791l1.223,0.787l1.564,-1.771l-3.078,-2.774l-2.683,2.352l-2.235,-2.324l0.678,-0.574l1.545,1.364l1.729,-1.55l-2.99,-3.39l-2.676,2.05l-1.867,-2.503l0.813,-0.488l0.977,1.356l2.063,-1.298l-2.181,-3.39l-3.109,1.612l-1.591,-2.898l0.905,-0.438l1.031,1.627l1.936,-0.941l-1.948,-3.999l-3.178,1.062l-1.169,-3.146l0.909,-0.337l0.801,1.86l2.15,-0.698l-1.46,-4.304l-3.285,0.938l-0.813,-3.166l1.016,-0.22l0.533,1.708l2.258,-0.457l-0.828,-4.099l-3.362,0.43c-0.112,-0.696 -0.608,-2.572 -0.598,-3.281l1.035,-0.086l0.326,1.806l2.261,-0.078l-0.13,-2.247Zm-43.98,0.33c1.232,0.17 2.738,2.569 3.078,3.44c0.649,1.722 0.704,3.718 0.111,5.265c-0.485,1.265 -1.935,3.509 -2.856,4.141c-0.743,0.407 -1.365,0.106 -2.426,-1.352c-2.097,-2.88 -2.503,-6.344 -0.848,-8.717c1.265,-1.812 2.202,-2.779 2.941,-2.777Zm46.364,0.747l0.893,0.426c1.097,8.766 6.237,20.795 16.354,27.992l0,1.1c-7.868,-5.707 -15.091,-15.55 -17.247,-29.518Zm-46.521,0.597c-3.523,2.684 -2.96,6.885 -0.291,9.716c2.875,-1.923 3.891,-7.116 0.291,-9.716Zm-53.763,0.178c1.987,-0.046 3.247,0.654 3.852,2.046c0.94,2.162 1.068,2.573 1.261,3.707c0.111,0.649 0.281,1.627 0.376,2.174c1.032,5.876 0.272,8.091 -3.258,9.007c-1.054,0.274 -2.523,0.362 -3.55,0.113c-0.27,-0.066 -1.256,-0.072 -2.032,-0.097c-1.539,-0.05 -2.01,-0.215 -2.783,-0.849c-0.279,-0.228 -0.547,-0.411 -0.882,-0.465c-1.761,-0.282 -2.287,-1.912 -0.95,-3.118c0.761,-0.687 0.837,-0.778 0.767,-0.895c-0.041,-0.066 -0.365,-0.122 -0.725,-0.124c-1.776,-0.011 -1.758,-1.858 0.03,-3.177c0.85,-0.627 1.233,-1.218 0.671,-1.073c-1.619,0.386 -2.19,-2.006 -0.498,-2.748c0.901,-0.509 1.548,-0.935 0.678,-0.983c-0.729,0.064 -1.324,-0.481 -1.1,-1.123c0.27,-0.777 1.752,-1.486 2.607,-1.221c0.668,0.207 1.319,0.396 1.736,0.093c1.014,-0.736 1.467,-1.068 2.339,-1.186c0.505,-0.068 1.035,-0.083 1.46,-0.081l0.001,0Zm59.06,0.45l8.165,0.158l-0.241,8.094l-7.69,-0.148c0,0 1.686,-3.615 -0.234,-8.104Zm-18.296,0.185l7.82,0.097c-1.289,3.05 -0.808,6.185 -0.334,7.95l-7.655,-0.12l0.169,-7.927Zm13.06,0.012c2.101,1.237 2.679,5.743 -0.24,8.059c-2.778,-2.885 -2.221,-6.398 0.24,-8.059Zm-19.294,3.518l2.097,0.197l-0.747,3.034c0,0 0.338,-0.36 0.448,-0.395c2.694,-1.279 2.887,1.618 0.146,4.234c-0.606,0.577 -1.579,1.368 -1.579,1.368c0,0 -0.763,-1.166 -1.369,-2.22c-0.688,-1.06 -1.157,-2.195 -1.039,-2.797c0.171,-0.874 1.212,-1.452 1.875,-0.918c0.327,0.263 0.705,0.662 0.705,0.662l-0.537,-3.165Zm37.437,2.224c0,0 0.88,0.911 1.415,1.503c1.851,2.047 2.169,3.962 1.23,4.544c-0.806,0.373 -1.306,0.118 -1.955,-0.414c0.135,1.269 1.132,3.142 1.108,3.146l-2.764,0.449c0,0 0.682,-2.542 0.625,-3.502c0,0 -0.568,0.441 -0.82,0.55c-1.805,0.666 -2.699,-1.406 -1.216,-3.471c1.245,-1.733 2.377,-2.805 2.377,-2.805Zm37.755,3.835c1.855,0 3.358,1.52 3.358,3.394c0,1.874 -1.503,3.394 -3.358,3.394c-1.855,0 -3.358,-1.52 -3.358,-3.394c0,-1.874 1.503,-3.394 3.358,-3.394Zm1.656,1.554c-0.145,0.033 -0.263,0.369 -0.28,1.112c-0.167,1.522 -1.42,2.135 -2.791,1.429c-0.554,-0.285 -1.025,-0.708 -1.027,-0.383c0,0.173 0.444,1.081 0.759,1.391c1.162,1.055 3.99,0.805 3.925,-1.655c-0.03,-1.157 -0.345,-1.949 -0.586,-1.894Zm-60.97,1.274c0.365,-0.025 0.827,0.128 1.124,0.438c0.918,0.634 1.092,1.443 1.149,4.498c0.052,2.695 0,2.761 0.437,3.088c1.078,0.8 1.727,-0.42 1.419,-3.15c-0.297,-2.628 0.64,-4.539 2.212,-4.529c0.773,0.005 0.917,0.464 0.329,1.05c-0.619,0.618 -0.769,1.374 -0.575,2.894c0.499,3.895 0.068,5.807 -1.552,6.598c-1.69,0.825 -3.863,-0.123 -4.244,-2.278c-0.244,-1.438 -0.242,-3.143 -0.073,-4.75c0.031,-1.689 -0.008,-1.882 -0.59,-2.851c-0.412,-0.651 -0.105,-0.975 0.364,-1.008l0,0Zm-42.489,1.263c0.934,-0.002 1.904,0.546 2.484,1.755c1.399,2.92 -1.632,5.321 -4.412,5.51c-4.826,0.072 -10.562,-0.631 -15.406,-1.283l0.077,-2.758c4.445,0.259 9.458,0.624 14.858,0.879c-0.615,-2.565 0.843,-4.099 2.4,-4.103l-0.001,0Zm25.385,0.566l2.687,0.601l-1.71,2.824c0.508,-0.222 0.858,-0.377 1.365,-0.19c1.095,0.399 1.109,1.801 0.307,3.111c-0.635,0.951 -2.42,2.088 -3.638,2.786c-0.684,-1.485 -2.196,-4.085 -1.595,-5.506c0.319,-0.754 1.204,-1.121 2.028,-0.709c0.273,0.165 0.794,0.434 0.794,0.434l-0.238,-3.351Zm6.352,0.077l8.188,0.097c-1.19,8.367 -3.519,19.539 -8.108,28.646l-1.928,0.504c4.047,-9.049 6.739,-17.536 7.996,-27.023l-4.094,0c-2.355,10.183 -5.839,19.619 -11.197,27.817l-2.38,-0.782c5.724,-9.173 10.261,-19.411 11.523,-29.259Zm18.676,0.148l9.127,0c1.679,17.036 7.374,28.663 15.851,40.164c0,0 -0.535,0.121 -0.851,-0.016c-0.879,-1.108 -1.684,-1.786 -3.001,-2.127c-7.125,-10.366 -11.905,-24.858 -13.057,-35.945l-5.428,0c0.618,13.925 4.435,25.342 9.514,36.399l-2.756,0.511c-4.079,-9.895 -8.551,-18.507 -9.399,-38.986l0,0Zm14.202,2.103c0.751,0.588 1.563,1.165 2.327,1.724c2.056,1.458 2.029,4.213 0.031,4.2c-0.212,-0.002 -0.706,-0.031 -0.706,-0.031c0,0 0.816,1.806 1.331,2.72c-0.833,0.224 -2.573,0.554 -2.573,0.554c0,0 0.249,-1.774 0.2,-3.243c0,0 -0.334,0.377 -0.61,0.508c-1.325,0.559 -2.446,-0.61 -2.281,-1.992c0.224,-1.865 2.281,-4.44 2.281,-4.44l0,0Zm-60.977,0.334l4.493,2.254c-3.062,7.044 -6.568,13.638 -11.638,18.651l0.13,-16.276c2.768,-0.081 5.607,-0.106 7.015,-4.629Zm30.721,0.255l2.764,0c-1.227,12.994 -9.722,30.572 -11.316,32.691l-0.526,0.399c0.032,-0.017 -1.088,-3.985 -2.361,-5.412c4.793,-6.534 9.814,-19.088 11.439,-27.678Zm19.435,0l4.174,0c1.301,10.354 4.468,21.539 12.493,35.124c0,0 -0.804,0.082 -1.426,-0.294c-1.367,-0.857 -2.318,0.277 -3.135,0.233c-1.278,-0.07 -1.488,-0.147 -2.806,0.169c-6.623,-14.117 -8.502,-25.229 -9.3,-35.232Zm-45.092,2.325l1.491,0.709c-3.206,7.495 -6.078,13.45 -13.673,20.762l-0.028,-2.178c5.336,-5.222 8.932,-12.106 12.21,-19.293l0,0Zm2.17,1.046c0.706,0.268 1.507,0.71 2.173,1.073c0.223,0.09 0.163,0.292 0.165,0.504c-0.282,0.712 -1.526,1.024 -1.997,1.162c-0.569,0.164 -1.129,0.278 -1.231,0.302c-0.65,0.154 -0.444,-0.504 0.261,-1.945c0.317,-0.649 0.442,-1.082 0.629,-1.096Zm2.978,1.588c0.447,-0.027 2.249,0.979 2.634,1.341c0.136,0.427 -0.251,1.1 -0.821,2.344c-0.875,1.913 -1.049,1.955 -1.311,0.383c-0.045,-0.27 -0.306,-1.165 -0.463,-1.759c-0.366,-1.377 -0.401,-2.169 -0.039,-2.309l0,0Zm3.262,1.546c0,0 1.048,0.514 1.388,0.74c-4.677,14.157 -17.133,25.859 -17.066,25.589l-1.944,-1.154c8.29,-7.569 14.365,-16.508 17.622,-25.175Zm-4.945,0.202c0.453,0.009 0.059,0.571 -0.552,1.933c-0.579,1.333 -0.769,1.806 -1.311,2.018c-0.777,0.285 -1.892,0.293 -2.882,0.469c-0.424,0.074 -0.246,-0.253 0.406,-1.592c0.766,-1.572 0.808,-1.898 2.009,-2.224c0.694,-0.109 1.627,-0.61 2.33,-0.604Zm1.641,2.812c0.482,1.753 0.472,2.099 0.15,2.708c-0.605,1.142 -1.396,2.475 -1.614,2.836c-0.545,0.903 -0.7,0.715 -1.024,-1.48c-0.201,-1.361 -0.376,-1.973 -0.228,-2.566c0.272,-0.67 1.083,-2.251 1.542,-3.176c0.656,-1.972 1.008,1.504 1.174,1.678Zm8.61,-1.53l2.453,0.814l-1.924,2.347c0,0 0.807,-0.147 0.901,-0.108c1.93,0.129 1.61,2.069 0.115,3.243c-0.619,0.573 -3.673,1.975 -3.673,1.975c-0.327,-1.735 -1,-2.844 -0.839,-4.625c0.113,-0.96 0.198,-1.825 1.361,-1.852c0.611,-0.033 0.859,0.599 1.257,1.108l0.349,-2.902Zm44.475,2.104c0,0 1.477,0.77 2.848,1.836c1.787,1.39 2.093,3.024 0.306,3.653c-0.206,0.073 -0.793,0.043 -0.793,0.043c0.492,0.865 1.66,2.154 1.66,2.154c-0.586,0.414 -1.411,0.738 -2.327,1.027c0,0 -0.227,-2.155 -0.445,-2.987c0,0 -0.236,0.47 -0.529,0.654c-1.721,1.083 -3.071,-0.957 -2.147,-3.537c0.562,-1.566 1.427,-2.843 1.427,-2.843l0,0Zm-18.918,0.36c4.297,-0.106 1.78,7.006 -0.368,6.547c-0.037,-0.064 1.773,-4.207 -0.663,-4.866c-1.118,-0.302 -0.155,-1.695 1.031,-1.681Zm-7.046,0.504c1.335,-0.009 2.307,0.943 1.031,1.542c-2.007,0.942 -0.812,3.199 -0.766,4.478c0.028,0.782 -1.788,-0.682 -2.174,-2.27c-0.499,-2.054 -0.268,-3.575 1.909,-3.75Zm-31.782,0.747c0.296,-0.001 0.519,0.023 0.594,0.082c0.125,0.335 -0.474,1.384 -1.35,2.727c-0.465,0.715 -0.665,0.916 -0.95,1.085c-0.677,0.384 -1.627,0.284 -2.419,0.341c-1.181,0.015 -0.973,-0.009 0.334,-2.065c0.583,-0.919 0.952,-1.67 1.299,-1.91c0.07,-0.045 1.603,-0.257 2.492,-0.26Zm1.548,1.484c0,2.572 0.865,3.415 0.23,4.227c-0.776,1.264 -1.767,2.647 -2.127,3.084c-0.607,0.736 -0.539,0.597 -0.698,-1.329c-0.115,-1.397 -0.241,-2.33 -0.062,-2.766c0.52,-1.261 1.137,-1.864 1.779,-3.204c0.504,-1.08 0.878,-0.9 0.878,-0.012l0,0Zm33.918,1.29c1.248,0.017 2.019,1.358 1.963,2.588l-0.054,1.178c1.613,-0.625 3.614,-0.017 3.703,1.581c0.15,2.71 -1.825,2.396 -3.496,2.282c0.169,0.064 0.415,2.45 -0.579,3.362c-1.56,1.765 -4.468,-0.038 -3.737,-2.626c0.151,-0.538 0.184,-0.876 0.184,-0.876c0,0 -1.044,0.38 -1.411,0.364c-3.164,-0.136 -2.922,-4.658 0.257,-4.126c0.649,0.109 1.088,0.268 1.088,0.268c0,0 -0.068,-0.286 -0.176,-0.69c-0.462,-1.74 0.509,-3.329 2.258,-3.305Zm63.293,0.806l1.706,0.992l0,1.922l-2.427,-1.814l0.721,-1.1Zm-102.255,1.286c0.672,-0.006 1.2,0.047 1.096,0.21c0,0.342 -1.472,2.41 -2.342,3.355c-0.742,0.805 -0.847,0.69 -2.661,0.6c-0.711,-0.035 -1.176,-0.041 -1.157,-0.232c0.836,-1.108 1.987,-2.533 2.783,-3.723c0.313,-0.097 1.417,-0.201 2.281,-0.21Zm1.66,0.903c0.125,-0.002 0.163,0.273 0.16,0.872c0,0.452 0.062,1.85 0.127,2.456c0.118,1.103 0.119,1.101 -0.349,1.759c-0.57,0.618 -1.151,1.53 -1.886,2.239c-1.104,1.236 -0.99,1.306 -0.974,-1.336c0.013,-2.065 -0.141,-2.065 0.273,-2.55c0.227,-0.266 0.929,-1.134 1.391,-1.813c0.702,-1.031 1.074,-1.624 1.258,-1.627Zm10.518,0.364l2.27,1.224l-2.274,2.329c0,0 0.569,-0.003 0.759,0.035c1.461,0.286 1.351,1.85 -0.118,3.018c-0.903,0.576 -4.002,1.716 -4.002,1.716c-0.107,-1.315 -0.382,-2.525 -0.33,-3.936c0.022,-0.651 0.081,-1.359 0.575,-1.922c0.342,-0.382 0.913,-0.604 1.713,-0.081c0.421,0.378 0.641,0.806 0.641,0.806l0.766,-3.189Zm26.78,0.794c-0.889,0 -1.61,0.729 -1.61,1.628c0,0.898 0.721,1.627 1.61,1.627c0.889,0 1.61,-0.729 1.61,-1.627c0,-0.899 -0.721,-1.628 -1.61,-1.628Zm25.369,0.384c0,0 2.971,1.128 4.309,2.367c1.25,1.053 0.662,2.789 -0.579,2.824c-0.09,0 -0.617,-0.077 -0.617,-0.077c0.421,0.646 1.829,2.232 1.829,2.232l-2.297,0.941c0,0 -0.367,-1.786 -0.651,-2.789c-0.801,1.867 -2.775,0.652 -2.906,-0.512c-0.318,-1.706 0.399,-3.372 0.912,-4.986l0,0Zm-25.369,0.143c0.618,0 1.119,0.507 1.119,1.132c0,0.624 -0.501,1.131 -1.119,1.131c-0.618,0 -1.119,-0.507 -1.119,-1.131c0,-0.625 0.501,-1.132 1.119,-1.132Zm-43.838,2.313c0.8,-0.007 1.799,0.03 2.246,0.058c0.341,0.265 -0.372,1.086 -1.748,2.546c-1.103,1.171 -1.266,1.008 -2.603,1.019c-2.242,0.018 -2.298,0.033 -1.269,-1.151c1.128,-1.297 1.787,-2.132 2.308,-2.402c0.175,-0.046 0.586,-0.065 1.066,-0.07l0,0Zm2.733,1.139c0.237,-0.048 0.173,0.564 0.134,1.949l-0.065,2.348l-1.744,1.697c-2.019,1.826 -1.778,1.94 -1.763,0.232c0.011,-1.357 0,-2.311 0.287,-2.913c0.882,-1.074 1.8,-2.024 2.802,-3.049c0.159,-0.158 0.27,-0.248 0.349,-0.264l0,0Zm44.34,0.585c0.486,-0.041 1.726,2.102 2.036,3.898c0.709,4.1 3.139,6.044 4.849,4.397c0.696,-0.968 0.774,0.088 0.74,0.593c-0.359,5.194 -6.183,3.032 -6.846,-2.127c-2.045,1.341 -3.952,-1.368 -2.734,-1.325c2.882,-0.926 2.094,-3.6 1.955,-5.436Zm-6.746,0.039c0.285,1.797 -2.92,4.874 -4.723,2.716c-0.917,-1.098 -0.081,-3.363 1.085,-1.968c1.289,0.964 2.539,-0.155 3.638,-0.748Zm-44.038,2.464c0.659,-0.014 1.612,0.112 2.028,0.054c0.588,0.06 0.168,0.347 -1.104,1.519c-1.095,1.01 -1.408,1.459 -1.533,1.019c-0.061,-0.683 -0.035,-1.494 -0.031,-2.456c0.101,-0.095 0.341,-0.129 0.64,-0.136l0,0Zm14.943,1.193l1.955,1.442l-1.94,1.805c1.739,-0.087 1.894,1.561 1.234,2.479c-0.427,0.644 -2.077,1.323 -3.726,1.593c-0.992,0.162 -1.801,0.283 -1.801,0.283c0,0 -0.038,-0.773 -0.065,-2.058c-0.057,-2.626 0.12,-3.66 1.119,-4.172c0.715,-0.367 1.926,0.209 2.223,0.879c0.099,0.222 0.357,0.608 0.357,0.608l0.644,-2.859Zm-12.582,0.144c0.008,-0.002 0.013,0 0.016,0.004c0.11,0.15 -0.288,4.424 -0.288,4.424l-2.833,-1.612c0,0 2.867,-2.765 3.105,-2.816l0,0Zm74.973,0.503c2.018,0.961 3.53,0.774 4.888,1.965c1.182,0.625 0.832,2.347 -0.031,2.731c-0.39,0.12 -1.034,0.054 -1.034,0.054c0.713,0.89 2.277,2.015 2.277,2.015l-2.484,1.05c0,0 -0.34,-1.693 -0.656,-2.615c-0.452,1.372 -1.983,1.338 -2.856,0.693c-0.618,-0.478 -0.873,-2.082 -0.579,-3.471c0.078,-0.367 0.476,-2.422 0.476,-2.422l-0.001,0Zm-13.267,39.785c-24.494,5.866 -44.391,2.239 -46.364,1.546l-1.561,2.351c-0.19,0.4 -0.307,1.594 -1.364,1.918l-1.587,2.394l0.31,0.333l-1.407,1.24l0.342,0.415l-1.024,1.503l-0.403,-0.043l-2.369,3.638l0.361,0.407l-5.44,8.605l73.589,0.023c-4.277,-8.154 -8.853,-16.15 -13.083,-24.33l0,0Zm-0.445,1.057l0.437,1.229c-1.216,-0.152 -2.637,-0.226 -4.082,-0.291c1.27,-0.265 2.541,-0.589 3.645,-0.938Zm-4.274,1.07c-2.341,1.085 -3.743,2.389 -4.818,3.765c-1.339,-1.051 -3.043,-1.795 -5.076,-2.262l9.894,-1.503Zm-41.354,0.596l1.043,0.12c0,0 -0.35,0.274 -0.598,0.217c-0.191,-0.043 -0.445,-0.337 -0.445,-0.337Zm46.878,0.612l0.663,1.325c-1.594,-0.853 -8.412,-2.808 -10.346,4.041c-2.036,-2.781 -10.429,-6.813 -14.686,1.759c-1.21,-2.322 -8.257,-9.004 -14.685,-0.488c-2.533,-5.292 -4.65,-5.736 -9.3,-5.013c3.305,-3.21 7.955,0.131 9.925,2.863c5.545,-4.648 10.182,-3.251 14.233,0.531c5.227,-5.753 10.44,-4.367 14.107,-1.48c2.576,-3.831 5.092,-4.986 10.089,-3.538Zm-42.815,0.035c3.296,0.45 6.591,0.654 9.886,0.818c-1.907,0.707 -3.863,1.316 -5.416,2.739c-1.177,-1.661 -2.812,-2.625 -4.47,-3.557Zm23.775,0.531c-1.799,0.856 -3.737,2.143 -5.29,3.495c-1.677,-1.38 -3.403,-2.573 -5.283,-3.173c3.449,0.171 7.27,0.017 10.573,-0.322Zm21.099,2.72c0,0 -0.665,0.113 -0.878,0.17c-2.91,0.782 -2.276,4.925 0.717,4.924c0.284,0 0.993,-0.112 0.993,-0.112c-0.057,2.805 0.786,3.49 3.622,3.332l4.807,8.686l-71.109,-0.31l4.516,-7.299c2.271,0.269 3.699,-1.008 3.193,-2.956c0,0 1.399,0.431 1.79,0.434c2.571,0.016 3.235,-3.971 0.771,-4.661c-0.274,-0.077 -0.963,-0.153 -1.047,-0.178c1.127,-2.845 4.223,-1.166 5.11,0.015c1.996,-1.658 4.203,-0.916 5.148,1.232c0,0 -0.372,-0.209 -0.487,-0.294c-2.337,-1.728 -4.512,1.851 -2.223,3.502c0.225,0.163 0.702,0.302 0.702,0.302c0,0 -0.279,0.23 -0.533,0.663c-1.189,2.02 0.725,4.48 3.036,3.847c1.774,-0.702 1.799,-2.05 1.798,-3.533c0,0 0.613,0.047 1.161,0.054c2.129,0.026 2.739,-2.73 1.436,-4.011c-0.704,-0.692 -1.624,-0.638 -2.08,-0.727c2.454,-2.435 4.118,-0.755 5.85,0.368c0.262,-0.007 3.005,-3.337 6.267,-0.066c-1.583,-0.419 -3.204,0.618 -3.226,2.284c0.032,1.072 0.79,2.019 2.43,2.095c-0.177,0.538 -0.294,0.94 -0.304,1.463c-0.032,1.749 1.313,2.837 3.021,2.569c1.427,-0.184 2.482,-1.833 1.974,-3.204c-0.229,-0.619 -0.544,-0.845 -0.544,-0.845c3.843,0.486 3.776,-4.434 0.788,-4.732c-0.709,-0.071 -1.254,0.239 -1.969,0.901c1.758,-3.632 4.972,-2.904 6.176,-1.418c1.651,-1.213 3.927,-2.868 6.651,0.081c-0.449,-0.096 -1.081,-0.118 -1.63,0.029c-2.156,0.578 -2.165,3.349 -0.456,4.192c0.481,0.237 1.071,0.375 1.706,0.351c-0.569,2.328 1.989,3.991 3.8,2.876c1.297,-0.799 1.636,-2.685 0.233,-4.407c2.362,-0.106 2.595,-3.082 1.23,-4.126c-1.07,-0.818 -2.329,-0.429 -3.243,0.651c-0.294,-0.854 2.042,-3.825 5.34,-1.685c1.747,-1.48 3.48,-1.936 5.463,-0.457l0,0Zm1.031,2.324l0.924,1.697c-0.616,0.062 -1.496,-0.604 -0.924,-1.697Zm-11.922,1.724c0.578,0 1.047,0.474 1.047,1.058c0,0.584 -0.469,1.058 -1.047,1.058c-0.578,0 -1.046,-0.474 -1.046,-1.058c0,-0.584 0.468,-1.058 1.046,-1.058Zm-43.16,0.062c0.14,0.568 0.201,1.134 -0.82,1.244l0.82,-1.244Zm12.022,1.023c0.529,0 0.958,0.434 0.958,0.969c0,0.535 -0.429,0.968 -0.958,0.968c-0.53,0 -0.959,-0.433 -0.959,-0.968c0,-0.535 0.429,-0.969 0.959,-0.969Zm15.95,0.302c0.561,0 1.016,0.46 1.016,1.027c0,0.567 -0.455,1.027 -1.016,1.027c-0.561,0 -1.016,-0.46 -1.016,-1.027c0,-0.567 0.455,-1.027 1.016,-1.027Z" style="fill-rule:nonzero;"/><path id="path153-6-3-1-9-0-4-7" d="M47.722,26.128c-7.357,10.505 -15.228,16.55 -15.359,24.745c-0.044,2.654 1.389,7.165 5.878,8.028c2.912,0.557 6.921,-1.802 7.005,-6.597c-0.013,-0.954 1.009,-0.93 1,0.378c-0.138,3.782 -1.333,8.185 -3.343,11.769l9.638,0c-2.01,-3.584 -3.205,-7.987 -3.343,-11.769c-0.009,-1.308 1.013,-1.332 1,-0.378c0.084,4.795 4.093,7.154 7.005,6.597c4.489,-0.863 5.922,-5.374 5.878,-8.028c-0.131,-8.195 -8.002,-14.24 -15.359,-24.745Z" style="fill-rule:nonzero;"/><path id="path153-6-3-1-8-6-4-8-4" d="M130.278,222.872c-7.357,-10.505 -15.228,-16.55 -15.359,-24.745c-0.044,-2.654 1.389,-7.165 5.878,-8.028c2.912,-0.558 6.921,1.802 7.005,6.597c-0.013,0.954 1.009,0.93 1,-0.378c-0.138,-3.782 -1.333,-8.185 -3.343,-11.769l9.638,0c-2.01,3.584 -3.205,7.987 -3.343,11.769c-0.009,1.308 1.013,1.332 1,0.378c0.084,-4.795 4.093,-7.155 7.005,-6.597c4.489,0.863 5.922,5.374 5.878,8.028c-0.131,8.195 -8.002,14.24 -15.359,24.745Z" style="fill-rule:nonzero;"/></g></g></svg>