<?xml version="1.0" encoding="UTF-8" standalone="no"?><!DOCTYPE svg PUBLIC "-//W3C//DTD SVG 1.1//EN" "http://www.w3.org/Graphics/SVG/1.1/DTD/svg11.dtd"><svg width="100%" height="100%" viewBox="0 0 178 249" version="1.1" xmlns="http://www.w3.org/2000/svg" xmlns:xlink="http://www.w3.org/1999/xlink" xml:space="preserve" xmlns:serif="http://www.serif.com/" style="fill-rule:evenodd;clip-rule:evenodd;stroke-linejoin:round;stroke-miterlimit:2;"><rect id="queen-hearts" x="0" y="0" width="178" height="249" style="fill:none;"/><clipPath id="_clip1"><rect x="0" y="0" width="178" height="249"/></clipPath><g clip-path="url(#_clip1)"><rect x="-1956.21" y="-249" width="2312.21" height="1245" style="fill:#fff;"/><g id="queen_hearts"><path id="path10446-4-8" d="M13.729,55.891c0,0 -1.774,-2.547 -4.167,-5.541c-1.601,-2.004 -2.881,-4.173 -3,-6.042c-0.136,-2.135 1.156,-4.277 3.494,-4.381c2.338,-0.103 3.287,1.647 3.673,3.089c0.386,-1.442 1.335,-3.192 3.672,-3.089c2.339,0.104 3.631,2.246 3.495,4.381c-0.119,1.869 -1.399,4.038 -3,6.042c-2.393,2.994 -4.167,5.541 -4.167,5.541Z" style="fill:#d40000;fill-rule:nonzero;"/><path id="path10448-8-7" d="M164.272,193.109c0,0 -1.774,2.547 -4.167,5.541c-1.601,2.004 -2.881,4.173 -3,6.042c-0.136,2.135 1.155,4.277 3.494,4.381c2.338,0.103 3.286,-1.646 3.673,-3.089c0.386,1.443 1.335,3.192 3.672,3.089c2.339,-0.104 3.631,-2.246 3.494,-4.381c-0.119,-1.869 -1.398,-4.038 -2.999,-6.042c-2.393,-2.994 -4.167,-5.541 -4.167,-5.541Z" style="fill:#d40000;fill-rule:nonzero;"/><path id="path37-2-5-5-0" d="M7.932,28.701l-2.199,0l0,-3.001l2.199,0c0,0 0.017,-1.618 0.08,-4.471c0.136,-6.082 0.288,-7.026 2.046,-8.7c3.473,-3.308 9.288,-0.612 9.219,4.362c-0.101,7.021 -0.028,13.714 -0.233,14.662c-0.364,1.67 -0.401,1.764 -0.252,2.069c0.304,0.613 2.931,0.879 2.931,0.707l0,2.957c-2.006,0.156 -2.84,-0.033 -4.445,-1.18c-1.002,0.968 -4.053,1.94 -6.479,0.796c-1.846,-0.87 -3.244,-3.116 -2.867,-8.201Zm7.433,5.24c-1.09,-1.576 -2.924,-3.728 -4.65,-4.492c-0.107,1.813 0.049,3.333 0.685,4.15c1.013,1.302 2.65,1.6 3.965,0.342Zm0.904,-17.34c-0.809,-2.294 -2.887,-3.072 -4.405,-1.637c-0.95,0.893 -1.102,1.833 -1.122,6.938c-0.012,3.149 -0.012,4.473 -0.012,4.473c2.956,0.96 5.719,4.41 5.695,4.365l0.072,-9.524c0.058,-1.545 -0.019,-3.092 -0.228,-4.615l0,0Z" style="fill:#d40000;fill-rule:nonzero;"/><path id="path37-3-27-3-0-9" d="M170.066,220.299l2.2,0l0,3.001l-2.2,0c0,0 -0.016,1.618 -0.08,4.471c-0.136,6.082 -0.288,7.026 -2.046,8.7c-3.472,3.308 -9.287,0.612 -9.218,-4.362c0.1,-7.021 0.028,-13.714 0.232,-14.662c0.364,-1.67 0.401,-1.764 0.252,-2.069c-0.304,-0.613 -2.931,-0.879 -2.931,-0.707l0,-2.957c2.007,-0.156 2.84,0.033 4.446,1.181c1.001,-0.969 4.052,-1.941 6.479,-0.797c1.845,0.87 3.244,3.117 2.866,8.201Zm-7.432,-5.24c1.09,1.576 2.924,3.728 4.649,4.492c0.108,-1.813 -0.049,-3.333 -0.685,-4.15c-1.013,-1.302 -2.65,-1.6 -3.964,-0.342Zm-0.904,17.341c0.809,2.293 2.887,3.071 4.405,1.636c0.949,-0.893 1.101,-1.833 1.121,-6.938c0.012,-3.149 0.012,-4.473 0.012,-4.473c-2.955,-0.96 -5.718,-4.41 -5.695,-4.365l-0.072,9.524c-0.057,1.545 0.02,3.092 0.228,4.616l0.001,0Z" style="fill:#d40000;fill-rule:nonzero;"/><path id="path3054-4-0-3" d="M154.386,19.11l-130.772,0l0,210.78l130.772,0l0,-210.78Zm-16.114,1.7l14.059,0l0,81.26c0,0 -1.159,-0.025 -1.08,-0.593c0.107,-0.761 -0.009,-2.184 -0.539,-2.783c-0.223,-0.253 -0.587,-0.65 -0.731,-0.938c-0.361,-0.725 -0.956,-1.476 -1.432,-1.678c-0.236,-0.101 -0.511,-0.157 -0.546,-0.322c-0.033,-0.153 -0.111,-0.659 -0.212,-1.124c-0.253,-1.165 -0.478,-1.128 0.258,-2.287c2.55,-4.015 3.531,-7.709 3.209,-11.371c-0.101,-1.144 -0.386,-2.626 -0.52,-2.829c-2.465,2.486 -4.249,5.56 -5.925,7.83c-0.374,-3.244 -0.32,-5.692 -0.375,-8.293c1.316,-0.378 2.113,-1.083 2.679,-2.887c0,0 1.411,1.112 2.275,0.953l-0.569,-2.096c3.774,-1.166 4.29,-6.124 -0.167,-7.173l0.401,-2.611c0,0 -1.345,0.454 -1.936,0.744c-0.294,0.125 -0.367,0.026 -0.573,-0.403c-2.079,-3.255 -5.306,-2.562 -6.729,0.648l-1.74,-0.745c0.189,0.889 0.414,1.79 0.255,2.679c-3.652,1.637 -2.75,6.118 0.165,6.705l-0.254,2.093l2.194,-0.713c0.32,0.983 0.156,1.552 1.909,2.659c-0.043,4.387 -0.113,7.13 0.023,11.027c-2.285,-2.356 -4.49,-3.993 -8.356,-5.194c0,0 -0.036,0.945 0.189,2.38c0.073,0.474 0.06,0.404 -0.162,0.403c-0.503,-0.011 -2.768,-3.678 -2.768,-3.678c0,0 -0.263,0.003 -0.492,0.232c-0.27,0.27 0.346,0.768 1.212,2.062c1.014,1.516 0.916,1.452 0.12,2.132c-4.527,3.868 -11.064,18.588 -9.966,20.02c-2.861,0.172 -14.014,5.678 -16.039,17.031c-0.12,0.511 -0.358,1.174 -0.358,1.174l-3.226,-0.806c1.946,-9.298 6.336,-28.206 6.336,-28.206c0,0 3.087,-0.883 4.892,-1.077l-0.019,-0.733l-4.249,0.996l0.204,-1.62l4.01,-0.794l-0.011,-0.384l-4.245,0.574l0.692,-2.698c0,0 -9.53,1.41 -12.944,1.306c0.216,10.49 -0.606,19.205 -0.164,30.51l-4.659,-2.843c-0.415,-7.871 -0.539,-27.752 -0.539,-27.752l-12.866,-2.035l0.427,3.123c-10.665,-4.257 -21.365,-8.173 -29.243,-16.495c4.85,-3.748 12.945,-7.465 12.945,-7.465l-0.266,-0.597c-19.903,10.332 -27.123,17.509 -37.123,26.415l0,-73.733l53.878,0l-0.181,13.512c0,0 -0.07,0.348 -0.173,0.469c-0.664,3.252 1.242,9.026 0.858,11.837c0.178,0.868 0.116,2.481 0.116,2.481c-3.243,4.472 -4.961,8.719 -6.405,13.918c-0.559,0.223 -1.382,0.683 -1.963,0.841l-0.166,0.71c1.273,-0.704 4.881,-1.853 4.881,-1.853c16.074,7.891 27.886,5.959 40.527,0.097c-2.015,7.124 2.367,16.184 9.577,18.089c0.824,0.218 2.237,0.403 3.045,0.19c0.807,-0.235 -1.817,-6.282 -2.979,-6.508c-3.483,-1.519 -4.918,-5.089 -4.546,-9.182l-0.578,-0.977c-1.187,4.973 1.67,10.023 5.593,11.256l1.055,2.318c-7.111,-2.148 -10.138,-8.852 -7.772,-15.481c0.042,-4.136 -2.62,-5.965 -3.841,-7.748c-6.183,-2.375 -7.333,-8.142 -6.251,-12.802c2.879,1.233 -1.94,-4.093 -1.94,-4.093c-2.12,4.624 -3.006,10.47 1.844,16.395c-3.138,4.186 -7.183,7.498 -11.705,10.326c-6.61,3.473 -11.569,1.133 -14.762,-6.558c-1.917,-4.618 -2.604,-9.222 -2.594,-14.043c0.011,-2.985 0.044,-3.076 1.155,-2.57c1.043,0.475 3.306,0.543 4.657,-0.159c1.841,-0.956 1.754,-0.374 -0.25,1.702c-0.545,0.564 -1.128,1.074 -1.128,1.182c0,0.613 0.856,0.096 2.079,-1.124c0.446,-0.446 0.776,-0.875 0.916,-0.868c0.16,0.007 0.145,0.581 -0.039,1.201c-0.07,0.238 -0.295,1.244 -0.5,2.233c-0.205,0.988 -0.487,2.149 -0.624,2.581c-0.543,1.714 -0.396,2.509 1.237,3.301c0.861,0.417 2.333,1.839 2.32,1.839c0,0 -0.351,-1.559 -0.221,-2.06c0.156,-0.603 0.868,-0.176 1.593,0.172c1.601,0.771 2.534,0.793 3.393,0.07c1.187,-0.997 0.847,-3.238 -0.62,-3.822c-1.075,-0.428 -1.263,-0.032 -0.19,0.722c1.612,1.131 -0.205,2.88 -1.573,1.796c-1.071,-0.848 -2.929,-0.943 -3.136,-0.237c-0.196,0.668 -0.399,0.547 -1.14,0.111c-1.151,-0.678 -1.161,-0.796 -0.196,-4.535c1.827,-7.08 1.648,-9.679 -0.774,-11.83c-1.792,-1.592 -4.753,-2.331 -7.825,-0.562l0,-2.411c4.509,-1.814 7.79,-4.901 10.435,-9.926l0.516,0c2.633,5.743 6.89,9.952 14.9,12.977c3.129,3.111 -3.967,-8.936 -1.702,-4.004c-4.249,-1.657 -8.038,-4.955 -10.123,-8.973l1.159,0c1.22,1.777 3.694,5.103 8.098,7.341c1.918,0.012 -2.826,-5.853 -3.514,-7.341l36.916,0c-1.171,9.054 -2.821,18.742 3.671,36.375c-3.045,-1.61 -15.253,1.819 -13.104,2.497c1.079,-1.253 8.858,-3.104 14.615,-1.736c-0.476,-0.414 -8.779,-19.855 -3.949,-37.136l-0.001,0Zm3.949,37.136c0.011,0.009 0.021,0.013 0.023,0.004c-0.008,-0.002 -0.015,-0.003 -0.023,-0.004Zm-28.522,34.938l0.035,1.418l0.292,-0.069l-0.169,-1.38l-0.158,0.031Zm-33.329,-72.074l1.62,0c-0.356,0.737 -0.875,1.375 -1.667,1.83l0.047,-1.83Zm2.786,0l1.744,0c-1.358,2.177 -2.803,3.581 -4.546,4.613l0.031,-1.706c1.008,-0.889 1.97,-1.893 2.772,-2.907l-0.001,0Zm2.883,0l1.609,0c-2.183,3.378 -4.424,5.731 -7.294,7.167l0,-1.38c1.773,-1.388 4.286,-3.513 5.685,-5.787Zm2.456,0l1.301,0c-2.237,4.292 -5.357,7.34 -9.442,8.988l0,-1.031c4.475,-2.401 6.433,-5.166 8.141,-7.957Zm3.557,0l1.562,0c2.145,4.291 6.599,8.434 11.49,10.213l0.747,1.741c-6.448,-2.331 -10.718,-5.817 -13.799,-11.954Zm4.522,0l1.117,0c1.173,1.647 2.595,3.07 4.257,4.182l1.012,1.973c-2.243,-1.519 -4.746,-3.449 -6.386,-6.155Zm2.037,0l1.247,0l1.651,2.923c-1.1,-0.623 -1.933,-1.974 -2.898,-2.923Zm-1.432,11.225c-1.71,-0.008 -3.266,0.467 -4.392,1.391c-1.19,0.977 -0.315,2.041 1.397,1.241c2.916,-1.363 6.265,-0.749 9.881,1.244c3.044,1.678 1.978,-0.071 -0.862,-1.938c-1.947,-1.297 -4.086,-1.929 -6.024,-1.938Zm-13.749,2.198c2.452,0.019 5.262,1.113 5.331,2.562c-1.627,-1.371 -4.897,-2.036 -8.033,-0.628c-0.241,-0.052 -0.274,-0.911 -0.131,-1.225c0.675,-0.502 1.718,-0.718 2.833,-0.709Zm14.853,0.934c-1.551,-0.001 -2.97,0.408 -3.625,1.287c-0.335,0.416 -0.424,0.461 -0.793,0.399c-0.722,-0.121 -0.681,0.299 0.142,1.449c0.399,0.558 0.334,1.193 -0.2,1.95c-0.613,0.869 -0.494,0.902 1.332,1.783c1.395,0.684 2.516,1.655 3.783,2.453c0.906,0.515 1.087,0.062 0.251,-0.616c-0.287,-0.233 -1.138,-0.844 -1.902,-1.345c-1.295,-0.849 -2.246,-1.707 -1.216,-1.325c0.472,0.15 0.593,0.212 1.112,0.302c1.334,0.29 2.653,0.452 3.772,0.225c0.803,-0.162 1.85,-0.697 2.71,-1.446c0.22,-0.102 0.437,0.006 0.97,0.027c2.039,0.08 1.589,-0.523 -1.339,-2.132c-2.898,-1.591 -5.171,-1.882 -7.025,-1.007c-0.785,0.37 -1.234,0.462 -1.12,0.228c0.119,-0.244 0.337,-0.527 0.689,-0.732c2.996,-1.806 5.403,-0.309 8.044,1.046c1.134,0.68 1.44,0.857 1.575,0.64c0.172,-0.279 -1.264,-1.306 -3.191,-2.279c-1.13,-0.59 -2.6,-0.907 -3.969,-0.907l0,0Zm-9.578,2.09c0.507,0.2 0.28,0.783 -0.183,0.599c-2.767,-1.25 -3.322,-1.86 -6.62,-0.702c-1.09,0.382 -1.521,0.044 -0.184,-0.533c2.913,-1.228 5.027,-0.399 6.987,0.636Zm-1.896,1.472c-0.749,3.832 -4.538,2.651 -4.111,0.019l0.697,0.004c0.054,2.315 2.358,2.299 2.752,0.023l0.662,-0.046Zm22.036,0.008l1.02,2.197c-2.231,5.534 0.798,12.986 7.387,14.772c0,0 1.063,1.644 0.854,1.852c-12.369,-2.756 -11.417,-14.63 -9.261,-18.821Zm-11.716,0.143l0.346,0.02c1.068,2.671 2.62,1.136 2.922,0.008l0.789,0.019c-0.241,2.767 -4.41,3.236 -4.057,-0.047l0,0Zm-9.535,0.078c0.501,-0.059 0.671,0.697 0.532,0.837c-0.039,0.038 -0.955,0.934 -1.067,0.407c-0.163,-0.771 0.327,-1.207 0.535,-1.244Zm-5.769,0.077c0.042,0 0.085,0.003 0.13,0.008c0.311,0.238 0.429,0.951 0.266,1.318c-0.184,0.192 -0.926,-0.07 -1.07,-0.357c-0.221,-0.418 0.038,-0.973 0.674,-0.969l0,0Zm20.061,0.256c0.244,0.01 0.916,0.302 0.851,0.628c-0.017,0.083 -0.952,0.776 -1.163,0.663c-0.405,-0.218 0.156,-1.214 0.235,-1.275c0.014,-0.011 0.043,-0.017 0.077,-0.016l0,0Zm-5.466,0.12c0.008,-0.001 0.014,-0.001 0.016,0c0.072,0.054 0.669,0.428 0.161,1.12c-0.035,0.048 -0.712,-0.195 -0.723,-0.275c-0.056,-0.402 0.453,-0.816 0.546,-0.845l0,0Zm14.989,4.853c-0.151,3.181 0.673,6.269 4.122,8.252l-0.743,-1.365c-0.884,-0.709 -2.737,-2.733 -2.505,-5.143l-0.874,-1.744Zm-30.978,5.686l0.389,2.093c-1.898,3.176 -3.34,6.297 -4.534,9.946l-1.794,0.659c1.424,-4.602 2.741,-8.247 5.939,-12.698Zm0.755,3.26l0.508,1.798c-0.932,1.73 -1.928,3.684 -2.529,5.957l-1.983,0.737c0.893,-3.013 2.197,-5.94 4.004,-8.492Zm6.285,0.744c-0.029,0 -0.058,0.003 -0.088,0.011c-0.021,0.355 -0.017,1.335 0.057,2.95c0.015,0.306 0.313,0.177 1.155,-0.256c0.734,-0.377 0.659,-0.437 1.37,-0.197c1.971,0.679 2.868,0.384 3.638,0.184c1.174,-0.304 1.653,-0.181 2.336,0.23c0.376,0.226 0.888,0.393 0.989,0.431c0.541,0.198 0.335,-0.042 -0.034,-1.512c-0.415,-1.654 -0.237,-1.835 -0.895,-1.404c-0.145,0.094 -0.563,0.327 -0.791,0.354c-0.573,0.067 -1.531,-0.641 -2.102,-0.416c-1.383,0.545 -1.37,0.402 -2.654,0.085c-0.642,-0.159 -1.257,0.235 -1.814,0.346c-0.319,0.04 -0.723,-0.809 -1.167,-0.806l0,0Zm23.526,0.856c2.337,2.158 4.739,2.897 7.344,3.714c-0.314,1.073 -0.943,2.279 -1.235,3.682c-13.561,7.217 -27.188,6.991 -40.043,0.438l6.671,-2.566c3.644,6.355 8.316,8.052 13.568,5.973c5.869,-2.749 10.214,-6.574 13.695,-11.241Zm-28.976,1.272l0.577,1.558l-0.858,2.349l-1.636,0.666c0.313,-1.6 0.918,-2.915 1.917,-4.573Zm12.255,1.806c-0.405,0.02 -1.019,0.294 -2.417,0.302c-0.757,0.004 -1.35,-0.064 -1.643,-0.004c-0.61,0.124 0.102,0.398 1.466,0.791c1.364,0.391 3.03,-0.199 3.237,-0.795c0.051,-0.145 -0.129,-0.319 -0.643,-0.294l0,0Zm-11.297,0.767l0.358,0.791l-0.612,0.221l0.254,-1.012Zm36.055,0.446l1.012,2.322c-1.754,3.822 -2.918,14.299 8.792,17.558l0.512,1.5c-7.97,0.157 -15.957,-10.044 -10.316,-21.38Zm-26.813,0.791c-1.144,-0.012 -2.343,0.274 -3.114,0.891c-0.697,0.556 0.155,0.906 1.062,0.462c1.175,-0.576 3.137,-0.529 4.288,0.197c0.881,0.605 1.34,0.498 0.751,-0.422c-0.462,-0.723 -1.69,-1.115 -2.987,-1.128Zm51.128,2.608c3.061,-0.05 3.379,4.361 2.783,4.741c0.172,-0.059 0.695,-0.214 1.439,-0.194c2.243,0.059 3.413,1.307 3.542,3.124c0.13,1.83 -1.251,2.849 -3.264,2.748c-0.748,-0.038 -1.262,-0.114 -1.228,0.019c0.374,1.463 -0.078,3.667 -2.002,4.217c-0.221,0.064 -0.536,0.374 -0.543,0.485c-0.144,2.319 0.512,10.287 0.512,10.287c0,0 3.607,-6.105 4.419,-7.031c1.588,-2.183 2.159,-1.977 1.878,1.639c-0.387,5.003 -1.149,6.166 -4.006,10.407c-1.26,1.819 -4.243,0.864 -3.973,2.093c0.06,0.272 0.544,0.759 1.028,1.221c0.31,0.296 0.631,0.482 1.355,0.457c1.272,-0.042 1.768,-0.302 1.008,0.812c-0.602,0.881 -2.716,1.064 -2.954,1.522c-0.554,1.066 -0.175,0.83 -1.122,1.767c-0.725,0.8 -0.473,0.392 -0.142,1.051c0.518,0.849 0.302,2.544 -0.212,3.686c-0.419,0.93 -0.372,1.594 -0.372,1.594c0.008,0.077 1.177,-1.216 1.531,-2.711c0.293,-1.243 0.637,-1.866 0.635,-1.17c0,0.878 0.148,2.072 0.935,2.527c0.622,0.36 0.712,0.72 0.608,1.163c-0.107,0.458 0.379,0.861 0.859,1.244c0.112,0.113 0.49,0.262 0.45,0.504c-0.128,0.764 0.18,1.663 0.733,1.809c0.247,0.123 1.817,-0.012 2.077,-0.902c-0.026,-0.284 0,-1.452 -0.628,-1.52c-0.441,-0.204 -0.395,-0.327 0.274,-0.728c1,-0.601 1.727,-1.032 2.221,-1.124c0.661,-0.091 1.297,-0.814 1.297,-0.814l0.127,48.023c-5.936,6.117 -12.441,12.206 -21.02,18.19c-4.986,-4.184 -10.433,-8.418 -16.217,-11.589l-1.997,-1.19l0.716,-0.923l-3.468,-4.604l3.903,-3.163l0.989,1.26l-1.848,1.806l2.772,3.085l6.227,-6.116l-4.103,-3.954l2.137,-4.027l1.366,0.675l-1.032,2.554l3.122,1.988l3.907,-7.814l-4.954,-2.271l1.255,-5.248l1.528,0.163l-0.508,3.779l3.861,0.771l1.57,-8.911l-5.666,-1.019l0.481,-5.081l1.582,0.019l-0.231,2.81l4.003,0.574l0.755,-7.768l-5.554,-0.926l0.716,-5.996l1.27,0.182l-0.247,3.698l4.077,0.701c0.448,-2.508 0.813,-5.656 1.478,-8.116l-5.251,-1.969l1.86,-5.035l1.181,0.415l-1.031,2.728l3.876,1.659l3.268,-6.492l-4.565,-3.252c1.022,-1.709 2.044,-3.333 3.506,-4.717l0.897,0.787c0,0 -0.329,0.299 -0.835,1.004c-0.615,0.856 -0.808,1.289 -0.724,1.511c0.083,0.22 2.904,2.317 3.118,2.318c0.249,0.001 1.184,-0.857 1.667,-1.434c0.516,-0.617 0.786,-0.676 1.32,-0.291c0.106,0.077 0.26,0.23 0.369,0.361c0.129,0.155 0.18,0.285 0.193,0.384c0.013,0.096 -0.015,0.161 -0.039,0.201c0.046,-0.043 0.144,-0.118 0.354,-0.236c0.384,-0.216 -0.742,-1.212 -1.662,-1.729c-2.753,-1.556 -5.992,-4.487 -6.74,-8.155c-0.275,-1.647 3.954,0.334 6.867,3.256c0.441,0.442 2.082,2.042 2.082,2.042c-0.239,-4.239 -0.582,-8.546 -0.396,-12.837l-0.643,-0.449c-0.9,-0.632 -1.246,-1.668 -1.328,-2.706c-0.056,-0.716 0.554,-1.082 -0.839,-1.035c-2.899,0.026 -4.576,-2.721 -2.818,-5.069c0.629,-0.879 3.302,-1.309 3.299,-1.287c-0.683,-2.809 1.368,-4.316 2.879,-4.458l0,0Zm-1.055,32.663c-0.055,0.052 -0.032,0.053 0,0Zm3.838,-27.922c-0.038,0.013 -0.081,0.027 -0.081,0.027c0.028,-0.001 0.056,-0.012 0.081,-0.027Zm-96.505,9.174c8.094,6.862 13.259,11.479 29.734,16.647l0.408,2.458c-9.473,-2.203 -19.808,-6.661 -32.094,-17.744l1.952,-1.361Zm-2.437,1.585c5.125,4.818 10.38,8.488 15.697,11.566l1.867,1.132l-0.963,0.992l3.13,4.543l-4.026,3.306l-0.959,-0.961l2.102,-2.074l-2.991,-2.961l-6.093,6.209l4.176,3.729l-2.421,3.748l-0.878,-0.399l1.286,-2.613l-3.88,-2.131l-4.338,8.027l5.524,2.531l-1.247,4.926l-1.29,-0.066l0.435,-3.86l-4.153,-0.741l-1.397,9.02l5.342,0.845l-0.127,5.194l-1.424,-0.024l0.1,-2.934l-4.219,-0.197l-0.377,7.569l5.193,0.679l-0.516,6.143l-1.278,-0.329l0.142,-3.989l-3.957,-0.391l-1.362,8.48l5.339,1.535l-1.886,5.287l-1.159,-0.639l0.758,-2.729c-0.973,-0.428 -3.71,-1.574 -3.71,-1.574l-3.488,6.585l4.523,3.101l-2.783,4.923l-1.074,-0.725l1.921,-2.872l-3.757,-2.376l-2.14,2.942c-0.908,-0.795 -2.541,-1.897 -3.164,-2.636c-0.665,-0.61 -1.172,-0.703 -2.028,-0.5c-0.676,0.161 -1.327,0.284 -1.178,0.043c0.074,-0.119 1.357,-0.989 3.318,-2.241c0.548,-0.35 0.98,-0.656 0.974,-0.969c-0.008,-0.233 0.297,-0.604 0.692,-0.845c0.439,-0.266 0.34,-0.514 0.27,-0.79c-0.379,-1.481 -0.14,-3.791 0.6,-5.345c0.496,-1.041 0.651,-1.228 0.328,-1.229c-0.955,0.123 -2.118,3.604 -2.341,4.585c-0.074,-0.078 -0.178,-0.995 -0.246,-1.349c-0.122,-0.637 -0.211,-1.033 -0.72,-1.155c-0.608,-0.145 -0.415,-0.438 -0.477,-0.899c-0.101,-0.747 -0.451,-1.22 -1.086,-1.484c-0.61,-0.255 -0.677,-0.357 -0.65,-0.969c0,-0.481 -0.5,-1.295 -0.87,-1.555l-2.117,0.752c-0.167,0.563 0.055,1.293 0.404,1.559c1.064,1.008 -0.493,1.021 -1.559,1.678c-0.288,0.188 -0.633,0.596 -0.866,0.461c-0.677,-0.223 -0.624,1.813 -1.289,1.558l0.161,-48.849c5.673,-5.914 22.202,-18.248 22.202,-18.248l0,0Zm85.735,8.64l0.817,0.911c-2.531,2.867 -4.367,5.82 -6.39,9.426c-1.726,3.076 -3.218,7.384 -3.999,12.081c-0.604,2.876 -0.697,5.803 -1.07,8.745c-0.381,3.165 -0.453,7.428 -1.055,10.771c-1.111,9.168 -3.668,14.047 -9.226,19.248c-2.443,2.286 -10.043,6.604 -10.251,6.562l-1.801,-0.45c15.584,-8.033 19.48,-13.573 21.166,-32.589c0.33,-23.857 11.106,-33.098 11.809,-34.705Zm1.532,1.597l0.836,0.81l-4.55,6.469l4.484,3.182l-1.778,4.182l-1.359,-0.508l0.966,-2.852l-3.772,-1.601l-3.048,8.31l5.373,1.705l-0.885,5.415l-1.086,-0.294l0,-3.69l-3.987,-0.818l-1.159,9.283l5.874,0.821l-0.431,4.791l-1.39,-0.097l-0.053,-2.852l-4.077,-0.217l-0.931,8.046l5.785,0.988l-1.047,5.717l-1.232,-0.294l0.277,-3.771l-3.879,-0.516l-2.245,7.721l4.873,2.473l-2.398,4.949l-1.027,-0.72l1.328,-2.927l-3.792,-1.884l-3.66,6.388l3.972,3.934l-3.88,4.093l-0.866,-1.116l2.002,-2.171l-2.991,-2.98l-6.22,4.98l3.175,4.214l-0.373,0.531l-3.28,-1.326l-1.57,-2.089l-1.878,0.829l-1.482,-0.569c9.187,-4.851 15.164,-10.476 17.633,-18.958c1.355,-4.69 1.758,-9.807 2.197,-14.965c0.229,-2.679 0.466,-5.369 0.851,-8.015c0.453,-4.323 1.11,-7.951 2.852,-12.121c2.113,-5.057 4.681,-8.621 7.845,-12.48l0.003,0Zm-49.438,3.197l6.309,3.349l-0.092,2.225l-5.832,-2.942l-0.385,-2.632Zm1.775,0.062l4.496,0.621l0.019,1.825l-4.515,-2.446Zm-20.266,0.059l2.625,1.189l2.225,2.586l1.667,-1.101l1.809,0.682c-5.716,2.958 -10.788,6.498 -14.739,12.605c-4.401,6.805 -4.89,15.715 -5.454,24.314c-0.939,11.862 -2.959,20.194 -10.789,29.81l-1.155,-0.733l4.227,-6.759l-4.765,-3.101l2.17,-3.996l1.097,0.38l-0.85,2.383l3.941,2.093l3.022,-8.519l-5.558,-1.744l0.931,-5.33l1.397,0.124l-0.369,3.818l3.972,0.632l1.14,-9.008l-5.355,-0.825l0.12,-4.76l1.312,0.128l-0.008,2.895l4.223,0.229l0.327,-8.217l-5.25,-0.585l0.646,-5.803l1.471,0.151l-0.339,3.481l4.042,0.581l1.916,-7.511l-5.25,-2.388l2.833,-5.074l1.274,0.59l-1.301,2.81l3.642,1.787l3.818,-5.876l-4.057,-3.923l3.984,-4.198l0.977,0.966l-2.163,2.503l2.999,2.791l5.935,-5.015l-2.898,-4.388l0.558,-0.674Zm37.756,0.279l-0.185,2.104l-6.324,3.617l0,-2.062l6.509,-3.659Zm33.942,0.073l1.397,0.872l-1.012,1.21l-1.22,-0.776l0.835,-1.306Zm-36.602,0.299l-3.787,2.201l0,-2.19l3.787,-0.011Zm44.666,2.054c0.197,0.005 0.379,0.047 0.519,0.14c0.381,0.25 0.327,0.867 -0.104,1.17c-0.56,0.395 -2.095,0.368 -2.247,-0.039c-0.22,-0.587 0.975,-1.291 1.832,-1.271l0,0Zm-60.451,0.868l5.435,2.954l-0.019,2.081l-5.231,-2.895l-0.185,-2.14Zm17.706,0.066l-0.319,2.713l-5.597,2.989l-0.046,-2.353l5.962,-3.349Zm-27.09,0.05l2.229,0.57c-8.251,3.707 -16.405,9.083 -19.577,18.461c-0.99,2.807 -1.658,5.931 -2.093,9.931c-0.205,4.218 -0.745,8.369 -0.943,11.886c-0.403,7.163 -2.745,16.863 -10.832,27.168l-0.774,-0.612c4.962,-6.157 7.541,-11.739 9.134,-17.636c2.524,-9.384 1.273,-19.74 3.965,-29.186c1.641,-5.747 5.05,-10.885 10.157,-15.33c3.554,-2.78 8.734,-5.252 8.734,-5.252Zm3.745,0.787c0.025,-0.001 0.035,0 0.039,0.008c2.003,6.79 4.476,19.167 4.476,19.167c-5.298,-2.58 -14.118,-2.109 -14.118,-2.109c0,0 -4.963,-6.446 -5.924,-6.976c3.968,-5.391 14.77,-10.052 15.527,-10.089l0,-0.001Zm68.222,1.07c1.22,-0.039 1.133,1.827 -0.412,3.097c-0.789,0.648 -1.154,0.557 -1.736,0.039c-0.171,-0.232 -0.667,-0.397 -1.031,-0.353c-0.866,-0.003 0.845,-1.806 2.367,-2.55c0.315,-0.154 0.586,-0.226 0.812,-0.233l0,0Zm-61.944,1.519l4.846,2.504l0.047,2.062l-4.485,-2.449l-0.408,-2.117Zm16.428,0.28l-0.262,2.267l-5.046,2.643l0.027,-2.089l5.281,-2.821Zm47.221,0.844c0.168,-0.015 0.298,0.05 0.42,0.187c0.688,0.771 -0.62,3.108 -2.102,3.81c-0.569,0.269 -0.919,0.225 -1.393,-0.186c-0.23,-0.2 -0.571,-0.463 -0.766,-0.442c-0.849,0.088 -0.38,-0.871 0.304,-0.927c0.189,-0.015 1.376,-0.91 2.275,-1.662c0.602,-0.505 0.983,-0.753 1.262,-0.78Zm-5.127,0.911c1.071,-0.026 1.461,0.872 0.193,1.264c-0.904,0.279 -1.408,0.08 -1.405,-0.531c0.19,-0.628 0.736,-0.701 1.212,-0.733Zm-57.856,1.214l4.299,2.17l0.02,2.225l-3.95,-2.074l-0.369,-2.321Zm15.385,0.306l-0.3,2.104l-4.631,2.396l0.012,-1.741l4.919,-2.759Zm48.534,0.883c0.292,0.019 0.379,0.347 0.377,0.931c0,0.966 -0.639,1.858 -1.594,2.294c-0.698,0.32 -1.191,0.295 -1.539,-0.081c-0.159,-0.171 -0.38,-0.31 -0.493,-0.314c-1.496,-0.06 -1.255,-0.448 0.177,-1.05c0.504,-0.213 1.494,-0.904 1.963,-1.241c0.528,-0.379 0.881,-0.553 1.109,-0.539Zm-5.489,0.686c0.733,0.004 1.379,0.525 0.974,0.861c-0.316,0.262 -1.499,0.388 -1.733,0.151c-0.443,-0.45 -0.048,-1.015 0.759,-1.012Zm-57.718,1.497l3.664,1.988l-0.019,2.116l-3.499,-1.992l-0.146,-2.112Zm14.057,0.162l-0.085,2.167l-4.207,2.089l-0.027,-2.066l4.319,-2.19Zm45.266,0.899c0.711,0.052 0.622,0.745 0.046,1.082c-0.429,0.3 -0.986,0.142 -1.212,-0.209c-0.512,-0.979 0.65,-0.861 1.166,-0.873Zm1.427,2.224c0.119,0.239 0.053,0.667 -0.18,0.803c-0.312,0.132 -1.122,-0.006 -1.247,-0.243c-0.103,-0.196 -0.079,-0.298 0.119,-0.497c0.331,-0.265 1.076,-0.462 1.308,-0.063l0,0Zm-60.219,0.04l3.13,1.721l-0.02,2.078l-2.875,-1.683l-0.235,-2.116Zm13.014,0.055l-0.154,2l-3.641,1.817l0.05,-1.949l3.745,-1.868Zm-38.122,1.259c0.781,0.009 1.384,0.533 0.924,1.427c-0.287,0.558 -0.503,0.764 -1.751,1.651c-0.51,0.362 -0.951,0.693 -0.985,0.736c-0.035,0.043 -0.36,0.269 -0.574,0.419c-1.119,0.78 -0.731,-0.849 0.666,-3.248c0.4,-0.688 1.113,-0.992 1.72,-0.985Zm37.845,1.783l-0.289,2.202l-3.256,1.674l0,-2.12l3.545,-1.756Zm-12.244,0.206l2.633,1.314l0.038,2.143l-2.39,-1.264l-0.281,-2.193Zm31.628,0.166c0.085,-0.003 0.159,0.026 0.212,0.101c0.216,0.304 0.25,1.617 0.038,2.36c-0.368,0.875 -1.085,-1.331 -1.004,-1.891c0.153,-0.254 0.5,-0.559 0.754,-0.57l0,0Zm-55.346,0.399c1.064,-0.019 1.834,0.713 1.474,1.799c-0.415,1.048 -2.819,1.708 -3.903,2.43c-0.709,0.354 -0.881,-0.03 -0.662,-0.647c0.101,-0.286 0.179,-0.509 -0.362,-0.589c-1.313,-0.195 -0.513,-0.837 1.894,-2.462c0.527,-0.355 1.075,-0.522 1.559,-0.531Zm52.802,0.687c0.378,-0.004 0.843,0.218 1.324,0.744c0.827,0.904 1.425,2.807 0.974,3.302c-0.346,-0.039 -0.517,0.474 -0.535,0.682c-0.052,0.6 -1.139,-0.495 -2.167,-2.221c-0.828,-1.39 -0.427,-2.498 0.404,-2.507Zm-44.346,0.321c3.246,-0.022 9.443,0.653 18.022,6.058c1.094,0.691 2.188,1.452 3.426,2.066c3.254,1.767 5.94,2.965 10.134,3.752l-0.119,2.186c-0.038,0.69 1.091,4.684 0.573,6.93c-0.769,-0.014 0.743,0.663 0.743,0.663l0.986,2.031c0,0 -5.15,-0.044 -7.491,-0.507c-3.771,-0.618 -10.653,-3.837 -13.98,-6.369c-3.455,-2.552 -8.674,-4.674 -13.148,-5.496l-0.062,-1.88c0,0 -0.444,-6.436 -0.801,-7.317l-0.823,-2.035c0.202,0.081 1.065,-0.072 2.54,-0.082l0,0Zm27.079,1.411l-0.25,2.159l-2.856,1.349l0,-1.849l3.106,-1.659Zm14.234,0.097c0.799,0.002 2.009,0.944 3.391,2.826c0.311,0.424 0.551,0.791 0.597,1.046c0.041,0.235 -0.102,0.37 -0.331,0.341c-0.545,-0.099 -0.745,-0.297 -0.897,0.384c-0.038,0.168 0.059,0.474 -0.127,0.418c-0.97,-0.286 -3.743,-3.103 -3.572,-4.003c0.128,-0.677 0.459,-1.013 0.939,-1.012Zm-25.435,0.143l2.082,1.117l0.093,2.128l-1.852,-0.803l-0.323,-2.442Zm-22.379,0.648c0.639,-0.021 1.036,0.233 1.239,0.732c0.49,1.204 -0.377,1.929 -2.952,2.473c-2.237,0.535 -2.191,0.569 -1.878,-0.267c0.207,-0.555 -0.484,-0.617 -0.87,-0.764c-0.653,-0.248 -0.119,-0.325 1.759,-1.267c1.18,-0.592 2.063,-0.886 2.702,-0.907Zm-7.444,0.569c0.063,-0.005 0.139,0.055 0.25,0.194c3.253,3.968 2.416,9.75 -1.701,12.605c-0.468,0.312 -0.484,0.023 -0.431,-0.597l0.08,-1.178c0.021,-0.234 4.73,-3.145 1.248,-9.62l0.292,-0.915c0.093,-0.292 0.156,-0.479 0.262,-0.489Zm53.137,1.233c1.284,0.005 4.888,3.297 3.353,3.415c-0.181,0.014 -0.119,0.249 -0.12,0.399c0,0.15 -0.009,0.435 -0.049,0.543c-0.111,0.287 -0.531,0.23 -1.178,-0.155c-1.64,-0.978 -2.012,-1.29 -2.579,-1.83c-1.116,-1.063 -0.799,-2.377 0.573,-2.372l0,0Zm-12.691,0.566l-0.023,1.775l-2.567,1.252l0.015,-1.605l2.575,-1.422Zm-32.536,1.275c1.728,-0.06 2.7,1.674 0.974,2.585c-0.69,0.365 -2.962,0.109 -4.019,0.016c-1.193,-0.106 -0.488,-0.462 -0.423,-0.57c0.163,-0.271 0.29,-0.313 -0.331,-0.686c-0.494,-0.523 -0.777,-0.652 0.458,-0.814c0.599,-0.079 2.055,-0.221 2.559,-0.387c0.273,-0.09 0.535,-0.135 0.782,-0.144l0,0Zm52.598,0.423c0.127,-0.006 0.114,0.206 0.062,0.759l-0.085,1.186c-0.787,0.127 -4.696,5.021 -1.52,10.713l-0.266,1.012c-0.122,0.5 -0.162,0.573 -0.573,0.264c-2.381,-1.657 -3.153,-10.09 1.778,-13.578c0.321,-0.214 0.505,-0.352 0.604,-0.356l0,0Zm-9.284,0.988c0.46,0.008 1.022,0.139 1.667,0.434c1.502,0.688 2.5,1.245 2.733,1.612c0.143,0.227 -0.082,0.416 -0.385,0.504c-0.367,0.107 -0.412,0.261 -0.312,0.694c0,0.252 0.063,0.53 -0.25,0.547c-0.58,0.031 -1.874,-0.38 -3.184,-1.09c-2.211,-1.197 -1.91,-2.731 -0.269,-2.701Zm-11.232,0.027l0,2.159l-2.109,-0.981l2.109,-1.178Zm-35.358,1.857c0.224,0.006 0.52,0.046 0.909,0.108c0.475,0.076 1.213,0.15 1.593,0.144c2.404,-0.042 3.4,1.643 1.417,2.5c-0.543,0.234 -0.769,0.208 -2.252,-0.225c-0.711,-0.208 -1.581,-0.426 -1.936,-0.527c-0.715,-0.204 -0.962,-0.431 -0.489,-0.593c0.44,-0.151 0.478,-0.458 0.204,-0.865c-0.067,-0.407 0.062,-0.556 0.554,-0.542Zm55.862,0c-0.34,3.343 -0.618,5.948 -1.12,9.221c-0.366,-0.146 -2.96,-6.311 1.12,-9.221Zm-10.115,1.6c0.782,0.015 2.103,0.318 3.387,0.826c1.123,0.416 1.265,0.527 0.489,0.861c-0.468,0.201 -0.411,0.381 -0.273,0.689c0.213,0.232 0.618,0.695 -0.019,0.601c-0.756,0.057 -2.74,-0.056 -3.345,-0.163c-1.812,-0.32 -2.306,-1.964 -0.82,-2.728c0.119,-0.062 0.32,-0.09 0.581,-0.086Zm-46.547,0.845c0.167,0 0.474,0.091 1.031,0.268c3.253,1.033 4.572,2.286 2.979,3.5c-0.462,0.352 -1.179,0.203 -2.532,-0.558c-1.384,-0.778 -2.079,-1.205 -2.337,-1.481c-0.256,-0.274 -0.116,-0.588 0.277,-0.562c0.54,0.036 0.459,-0.237 0.416,-0.694c-0.03,-0.32 -0.05,-0.472 0.166,-0.473Zm8.776,0.303l2.494,0.57l-6.228,27.426c-2.126,0.617 -3.352,0.884 -4.846,1.694l4.307,-0.748l-0.373,1.961l-3.911,0.74l-0.089,0.585l4.481,-0.814c0,0 -0.16,1.872 -0.316,2.597c4.276,-0.346 8.499,-1.543 12.799,-1.577c0,0 0.104,-21.645 0.088,-24.004c-0.017,-2.549 0,-5.597 0,-5.597l4.311,2.45l0.712,27.279l13.503,2.209c-0.094,-0.46 -0.462,-2.569 -0.462,-2.569c10.011,2.972 20.161,7.367 29.145,16.447c-4.18,2.278 -8.132,4.537 -12.193,6.727l-0.589,0.852c10.3,-4.845 25.905,-14.917 37.211,-26.05l0,72.339l-53.813,0l0,-6.738l0.031,-6.031c-0.22,-3.868 0.449,-8.127 -0.728,-11.372l-0.231,-3.399c3.336,-3.906 5.138,-8.832 6.729,-13.865c0,0 1.605,-0.626 2.386,-0.903l0.269,-0.988c-1.551,0.797 -5.111,2.135 -5.111,2.135c0.383,-0.301 -7.57,-3.673 -12.483,-4.465c-8.106,-1.306 -19.009,0.039 -27.702,4.38c-0.426,0.302 -0.607,0.295 -0.5,-0.097c2.018,-7.391 -2.234,-14.811 -9.696,-16.961c-1.583,-0.456 -2.88,-0.454 -2.88,-0.454l0.135,0.648c12.195,1.383 15.056,14.359 10.361,20.387c-1.231,1.989 -1.418,2.569 1.165,2.503c10.442,-0.086 14.071,11.663 9.313,18.164c0.012,-0.051 0.385,0.756 0.385,0.756c2.968,-3.945 3.758,-11.439 -1.501,-16.706c3.888,-4.364 11.351,-11.35 17.806,-10.941c2.35,0.148 4.668,3.012 6.213,5.298c3.27,4.84 4.11,11.599 4.342,15.453c0.056,1.01 0.19,1.744 0.192,2.276c0.008,1.543 -0.288,1.358 -1.278,1.1c-1.243,-0.323 -2.947,-0.336 -4.207,0.051c-2.024,0.621 -1.698,0.267 0.104,-1.981c1.063,-1.326 1.205,-1.734 0.766,-1.822c-0.134,-0.026 -0.585,0.429 -1.174,1.342c-1.777,2.752 -1.639,1.622 -0.354,-2.671c0.835,-2.791 0.75,-2.986 -1.524,-4.721c-0.753,-0.574 -1.678,-1.131 -1.76,-1.306c-0.428,-0.916 -0.607,0.233 -0.223,0.988c0.375,0.738 -0.419,1.075 -1.817,0.314c-3.288,-1.834 -5.429,1.879 -2.494,3.489c0.692,0.379 1.078,0.068 0.543,-0.431c-1.806,-1.681 -0.55,-3.097 1.894,-1.608c1.412,0.861 1.949,0.585 2.421,-0.492c0.261,-0.44 2.454,1.142 2.452,1.755c0,0.403 -0.256,1.692 -0.505,2.555c-0.702,2.435 -0.893,3.192 -1.197,4.771c-0.551,2.864 -0.536,4.331 0.054,5.589c1.323,2.82 4.655,4.151 7.544,3.016c0.42,-0.165 1.224,-0.303 1.224,-0.303l0.035,2.07c-5.698,2.173 -9.814,8.955 -9.627,9.186l-2.032,0.004c-2.698,-5.392 -7.444,-9.453 -13.476,-11.698c-1.179,-1.031 0.294,2.754 1.647,3.59c2.866,1.466 6.657,4.067 8.749,8.104l-1.439,0.023c-1.755,-2.694 -4.029,-4.513 -6.186,-6.1c-0.507,-0.108 0.37,4.886 2.441,6.426l-37.144,0.651c2.534,-9.986 3.021,-21.067 -2.918,-35.593c4.924,0.305 9.292,-0.76 13.295,-2.519l-0.362,-1.035c-4.56,2.192 -9.564,2.624 -14.573,2.108c3.8,7.084 7.124,21.793 3.888,36.068l-14.075,0l0,-77.614c0,0 0.786,0.49 0.953,0.659c0.428,0.432 0.718,1.079 0.839,1.546c0.156,0.599 0.321,0.635 1.17,1.276c0.408,0.307 0.644,0.577 0.643,0.736c-0.024,0.177 -0.029,0.723 0.247,1.058c0.748,0.912 0.616,1.497 0.053,2.085c-2.614,2.739 -4.251,8.492 -2.929,14.562c3.1,-2.101 6.292,-7.595 6.393,-7.604l0.301,7.504c-0.276,-0.062 -2.168,1.067 -2.191,2.542c-0.856,0.257 -1.902,-0.172 -2.771,-0.43l0.627,2.21c-3.182,1.278 -3.353,5.66 0.334,6.912c0,0 -0.337,1.713 -0.626,2.634l2.394,-0.367c1.391,4.182 6.73,2.843 6.704,-0.075c0,0 1.625,0.614 2.242,0.888l-0.601,-2.851c6.072,-3.051 1.53,-7.044 0.143,-6.987c0.019,-0.796 0.382,-1.048 0.715,-1.976l-2.451,0.155c-0.45,-1.473 -2.098,-2.677 -2.16,-2.516l-0.339,-10.74c1.854,1.628 3.678,3.297 6.136,4.593c2.268,1.196 2.499,0.929 2.163,-1.136c-0.151,-0.931 -0.138,-1.542 -0.138,-1.542c0.85,0.201 2.997,3.01 2.894,4.395c0.784,1.03 1.495,-1.741 -0.527,-4.101c5.384,-5.677 9.486,-15.087 10.362,-21.5l7.159,-2.868l0.081,-0.938c4.877,-3.286 7.421,-7.857 8.76,-13.027l0.002,0Zm5.958,1.678l1.647,0.74l-1.87,0.934l0.223,-1.674Zm-15.874,0.454c0.318,0.147 0.798,0.465 1.459,0.953c1.4,1.034 2.217,1.745 2.244,2.372c0.014,0.31 -0.212,0.711 -0.566,0.899c-0.845,0.452 -1.655,0.082 -3.483,-1.802c-0.591,-0.609 -0.987,-0.935 -1.166,-1.205c-0.21,-0.316 -0.056,-0.613 0.292,-0.485c1.484,0.675 0.199,-1.199 1.22,-0.732Zm50.451,0.387c0.305,0.002 0.546,0.008 0.696,0.039c0.397,0.08 0.511,0.307 0.266,0.527c-0.38,0.342 -0.272,0.688 0.112,0.872c0.263,0.127 0.156,0.394 -0.162,0.578c-0.186,0.107 -0.47,0.222 -0.858,0.345c-2.248,0.707 -3.905,0.496 -4.338,-0.559c-0.499,-1.211 0.455,-1.8 3.202,-1.798c0.408,0 0.777,-0.006 1.082,-0.004l0,0Zm-32.729,0.721l-0.02,1.624l-2.332,1.128l0.254,-1.647l2.098,-1.105Zm-19.827,0.508c0.204,0.012 0.54,0.329 1.027,0.93c2.25,2.775 2.554,3.31 1.817,4.047c-0.873,0.872 -2.098,0.029 -3.418,-2.404c-0.177,-0.327 -0.394,-0.746 -0.523,-0.899c-0.484,-0.57 -0.271,-0.749 0.342,-0.701c0.336,0.026 0.496,-0.094 0.505,-0.442c0.009,-0.368 0.091,-0.541 0.25,-0.531Zm53.918,1.403c0.41,0 0.379,0.141 0.197,0.62c-0.141,0.425 -0.371,0.562 0.223,0.83c0.098,0.048 0.317,0.32 0.119,0.438c-0.469,0.319 -2.566,1.281 -3.326,1.534c-1.474,0.493 -2.382,-0.717 -1.516,-1.918c0.363,-0.504 2.857,-1.415 4.099,-1.496c0.078,-0.005 0.146,-0.008 0.204,-0.008l0,0Zm-55.096,1.608c1.495,2.246 1.682,3.295 0.697,3.95c-0.624,0.478 -1.952,-0.209 -2.256,-1.659c-0.232,-1.11 -0.339,-2.271 0.02,-3.193c0.544,-1.396 1.384,0.67 1.539,0.902l0,0Zm20.993,-0.93l0.012,1.756l-2.837,1.434l0.262,-1.934l2.563,-1.256Zm5.781,0.07l2.668,1.74l0.154,1.496l-2.756,-1.527l-0.066,-1.709Zm29.758,1.729c0.07,0 0.108,0.033 0.108,0.116c0,0.206 -0.053,0.941 0.346,1.008c0.785,0.131 0.606,0.377 -0.081,0.973c-0.744,0.663 -1.423,1.45 -2.321,1.934c-2.312,0.861 -3.039,-1.601 -0.85,-2.88c0.755,-0.442 1.44,-0.747 1.951,-0.892c0.384,-0.109 0.693,-0.262 0.847,-0.259Zm-29.684,0.903l3.09,1.833l0.108,1.845l-3.071,-1.574l-0.127,-2.104Zm-5.963,0.17l0.011,1.605l-3.017,1.74l0.25,-1.794l2.756,-1.551Zm12.491,1.31c0.854,0.402 11.823,3.47 15.454,2.423c0,0 3.108,4.512 5.408,6.128c-3.56,5.261 -15.616,10.418 -15.616,10.418l-5.246,-18.969Zm24.688,0.113c0.2,-0.007 0.248,0.193 0.246,0.57c-0.049,1.091 -1.829,5.109 -3.248,3.05c-0.39,-0.767 0.008,-1.561 1.251,-2.508c0.986,-0.751 1.494,-1.103 1.751,-1.112Zm-59.718,0.634c0.271,0.296 0.148,1.211 -0.435,1.151c-0.169,-0.018 -0.191,-0.946 -0.081,-1.45c0.168,-0.082 0.422,0.2 0.516,0.299Zm22.578,0.509l-0.02,2.039l-3.579,1.961l0.385,-2.267l3.214,-1.733Zm5.92,0.287l3.545,1.903l0.415,2.252l-3.93,-2.05l-0.03,-2.105Zm-5.928,2.771l0,2.055l-4.022,2.077l0.273,-2.027l3.749,-2.105Zm5.997,0.179l3.965,2.271l0.519,2.139l-4.426,-2.302l-0.058,-2.108Zm-56.197,0.066c0.65,-0.009 0.883,0.688 0.392,1.131c-0.324,0.304 -1.243,0.242 -1.324,0c-0.415,-0.403 0.155,-1.121 0.932,-1.131Zm1.212,2.174c0.096,-0.006 0.187,-0.001 0.266,0.019c0.468,0.121 0.76,0.802 0.473,1.19c-0.529,0.717 -1.924,0.22 -1.72,-0.686c0.053,-0.24 0.565,-0.494 0.981,-0.523l0,0Zm48.919,0.686l0,1.837l-4.377,2.326l0.277,-2.054l4.1,-2.109Zm6.189,0.256l4.515,2.442l0.347,2.058l-4.854,-2.543l-0.008,-1.957Zm-57.252,0.054c0.218,-0.012 0.392,0.049 0.485,0.213c0.084,0.147 0.183,0.522 0.497,0.706c0.585,0.342 0.645,0.413 -0.466,0.903c-0.468,0.206 -1.388,0.836 -1.709,1.054c-0.983,0.666 -1.383,0.443 -1.455,-0.345c-0.091,-0.993 1.704,-2.478 2.648,-2.531Zm3.388,1.504c0.227,-0.013 0.449,0.03 0.608,0.136c0.375,0.25 0.395,0.751 0.034,1.004c-0.827,0.532 -2.12,-0.198 -1.432,-0.834c0.194,-0.179 0.497,-0.289 0.789,-0.306l0.001,0Zm47.667,0.996l0.023,2.384l-4.88,2.593l0.323,-2.419l4.534,-2.558Zm-50.081,0.279c0.32,-0.018 0.626,0.058 0.893,0.256c0.289,0.371 0.637,0.481 0.839,0.488c0.838,0.033 0.571,0.341 -0.308,0.745c-1.211,0.556 -2.061,1.262 -2.933,2.077c-0.906,0.847 -0.972,1.03 -1.27,0.682c-1.108,-1.292 1.052,-4.149 2.779,-4.248Zm56.351,0.027l5.116,2.818l0.439,2.38l-5.555,-3.112l0,-2.086Zm-52.991,1.679c0.207,-0.005 0.402,0.045 0.555,0.17c0.363,0.299 0.153,0.876 -0.351,1.136c-0.428,0.221 -1.133,0.127 -1.335,-0.078c-0.484,-0.49 0.392,-1.211 1.131,-1.228l0,0Zm-2.471,1.197c0.312,-0.03 0.594,0.37 0.847,0.803c0.088,0.108 0.438,0.059 0.689,0.062c0.957,0.008 1.091,0.415 0.162,0.934c-0.272,0.151 -1.163,0.838 -1.759,1.349c-1.606,1.544 -2.477,1.182 -2.271,-0.4c0.196,-1.512 1.5,-2.667 2.332,-2.748l0,0Zm55.462,0.148l5.643,3.116l0.551,2.562l-6.194,-3.361l0,-2.317Zm-6.228,0.046l-0.023,2.361l-5.312,2.829l0.412,-2.395l4.923,-2.795Zm6.313,3.004l6.32,3.853l0.231,2.507l-6.551,-3.798l0,-2.562Zm-6.316,0.419l0.011,2.314l-5.874,3l0.296,-2.186l5.567,-3.128Zm-47.683,1.531c0.15,-0.004 0.291,0.019 0.408,0.073c0.687,0.319 0.507,0.871 -0.528,1.438c-1.055,0.579 -1.417,0.479 -1.643,-0.17c-0.191,-0.547 0.952,-1.322 1.763,-1.341l0,0Zm65.993,0.314c10.989,2.532 21.749,8.01 32.194,17.573l-2.183,1.554c0,0 -9.153,-10.512 -29.495,-16.674l-0.516,-2.453Zm-11.929,1.1l3.049,1.81l0.008,0.462l-3.056,-0.252l-0.001,-2.02Zm-51.936,0.02c0.231,0.012 0.435,0.148 1.524,0.67c4.375,3.181 6.127,5.099 7.214,8.586c0.651,2.089 0.638,2.003 -1.501,0.868c-2.013,-1.076 -4.771,-2.862 -6.552,-5.171c-0.295,5.433 0.335,12.186 0.335,12.186c2.733,1.356 1.848,4.887 1.841,4.866c7.032,-1.933 5.491,7.412 0.251,5.397c1.249,7.011 -6.723,6.441 -5.906,0.431c-6.346,-0.247 -5.223,-7.211 0.044,-6.249c-0.548,-2.148 0.207,-3.604 2.15,-4.526l-0.297,-9.178c0,0 -5.171,7.473 -6.035,7.356c-0.508,-0.069 -1.271,-0.927 0.015,-7.48c0.67,-3.413 4.262,-7.568 6.274,-7.702c0.356,-0.024 0.504,-0.062 0.643,-0.054l0,0Zm5.058,0.07l0.928,0.639l-0.874,1.57l-0.966,-0.706l0.912,-1.503Zm40.466,0.449l-0.031,1.376l-2.848,0.171l2.879,-1.547Zm-29.785,16.473c6.703,1.045 10.804,9.301 7.702,15.279c-0.375,0.269 0.204,1.57 0.582,1.081c3.269,-4.666 0.835,-16.135 -8.703,-17.228c-1.938,-0.238 -0.18,0.348 0.419,0.868Zm1.086,2.198c-0.539,1.487 -0.681,1.843 0.7,1.236c2.44,0.91 5.073,4.909 4.23,8.926c-0.27,0.469 0.203,-0.305 0.524,1.016c1.204,-2.941 0,-9.283 -5.454,-11.178Zm30.981,7.484c6.861,-0.02 13.652,1.49 19.053,4.616c-1.835,1.028 -7.694,2.462 -7.694,2.462c-3.292,-3.721 -4.97,-7.441 -10.924,-5.539c-6.235,1.621 -11.849,7.055 -15.009,10.66c-3.168,-1.899 -4.884,-2.363 -7.693,-2.521c-0.162,-0.004 -0.404,0.716 -0.204,-0.445c0.804,-1.247 1.358,-2.659 1.894,-4.086c5.888,-3.371 13.274,-5.125 20.577,-5.147Zm21.328,4.775c-1.366,4.452 -3.13,8.836 -6.124,12.698l-0.369,-1.93c2.814,-4.352 4.148,-8.309 4.75,-10.043l1.743,-0.725Zm-2.656,1.155c0.176,0.283 -2.728,7.252 -4.161,8.52l-0.561,-1.799c1.168,-1.778 2.898,-6.064 2.848,-6.104l1.874,-0.617Zm-17.713,0.008c-0.091,0.009 -0.123,0.089 -0.123,0.264c0,0.64 0.66,1.143 1.866,1.419c1.631,0.372 3.916,-0.196 3.919,-0.973c0,-0.449 -0.317,-0.482 -1.251,-0.047c-1.171,0.546 -2.205,0.439 -3.734,-0.376c-0.35,-0.187 -0.561,-0.297 -0.677,-0.287l0,0Zm14.522,1.113c-0.453,1.688 -1.127,2.931 -1.986,4.221l-0.277,-0.888c0.595,-0.967 0.987,-2.073 1.49,-3.147l0.773,-0.186Zm-1.705,0.546c-0.22,0.588 -0.462,1.267 -0.966,1.791l-0.654,-1.395l1.62,-0.396Zm-10.322,1.294c-1.105,0.021 -2.199,0.379 -2.294,0.97c-0.045,0.284 0.379,0.174 2.434,-0.078c1.084,-0.133 1.602,0.514 2.596,0.446c0.506,-0.06 0.033,-0.531 -0.125,-0.668c-0.552,-0.473 -1.636,-0.689 -2.611,-0.67l0,0Zm-4.716,1.288c-0.111,0.022 0.013,0.306 0.427,1.031c0.224,0.392 0.28,1.191 0.323,1.686c-0.053,1.232 -0.049,1.193 0.555,0.48c0.38,-0.38 1.119,-0.295 2.29,0.024c0.755,0.205 0.936,0.279 1.46,-0.052c0.607,-0.383 0.75,-0.19 1.273,-0.084c0.505,0.102 0.963,-0.102 1.516,-0.256c0.676,-0.188 0.806,-0.144 1.394,0c0.898,0.429 0.768,0.39 0.843,-1.143c0.075,-1.51 -0.008,-1.618 -0.874,-1.109c-0.841,0.493 -1.42,0.716 -2.71,0.264c-1.406,-0.493 -1.605,-0.369 -2.602,-0.066c-1.205,0.365 -1.753,0.49 -2.714,-0.101c-0.632,-0.389 -1.056,-0.7 -1.181,-0.674l0,0Zm-19.642,2.279l0.539,0.884c4.859,1.75 8.151,5.75 6.208,12.492l0.462,0.744c2.432,-6.793 -0.344,-12.409 -7.209,-14.12Zm1.505,2.876l0.662,1.368c3.657,1.779 3.438,6.677 3.233,6.484l0.574,1.276c0.914,-3.17 -0.753,-7.851 -4.469,-9.128l0,0Zm15.273,7.306c-0.144,0.002 -0.238,0.051 -0.277,0.151c-0.094,0.244 0.189,0.39 1.859,1.554c1.435,1 2.544,1.741 2.46,1.884c-0.057,0.096 -0.949,-0.123 -1.586,-0.314c-1.67,-0.5 -4.132,0.102 -5.512,1.082c-0.35,0.237 -0.934,-0.022 -1.44,-0.155c-0.202,-0.058 -0.649,-0.113 -0.87,-0.055c-1.044,0.276 -0.033,1.279 2.522,2.582c3.135,1.598 4.831,1.744 6.735,0.775c1.265,-0.659 1.718,-0.17 0.335,0.581c-2.415,1.313 -4.728,0.907 -8.545,-1.736c-1.767,-1.224 -2.474,-1.02 -0.954,0.147c2.666,2.099 7.799,4.66 10.95,1.531c0.124,-0.045 0.41,-0.024 0.547,-0.023c0.655,0.002 0.683,-0.206 0,-1.295c-0.412,-0.656 -1.244,-1.347 -0.231,-2.151c0.769,-0.609 0.713,-0.899 -0.215,-1.178c-0.245,-0.068 -0.221,0.094 -0.589,-0.206c-2.23,-1.81 -4.412,-3.178 -5.189,-3.174l0,0Zm0.966,3.577c0.937,0.027 1.88,0.753 2.175,2.059c0.026,0.116 0.05,0.235 0.066,0.36l-0.798,0.03c-0.662,-2.661 -2.654,-1.779 -2.852,-0.22l-0.719,-0.097c0.264,-1.484 1.192,-2.158 2.128,-2.132l0,0Zm16.524,2.272l-0.531,0.079c-0.348,-0.98 -1.921,-2.297 -2.671,0.091l-0.67,-0.027c0.467,-3.235 3.383,-2.733 3.872,-0.143l0,0Zm-4.072,-1.345c0.217,0.311 -0.165,0.834 -0.386,1.074c-0.212,0.228 -0.683,0.035 -0.88,-0.19c-0.173,-0.223 -0.045,-0.667 0.242,-0.814c0.298,-0.153 0.805,-0.292 1.024,-0.07l0,0Zm-9.338,0.097c0.223,0.502 -0.401,0.877 -0.479,0.707c-0.134,-0.047 -0.299,-0.875 -0.222,-0.93c0.206,-0.006 0.616,0.062 0.701,0.223Zm14.038,-0.082c0.336,0.028 0.703,0.188 0.77,0.57c0,0.253 -0.287,0.528 -0.62,0.543c-0.146,0.006 -0.707,-0.408 -0.601,-0.999c0.118,-0.209 0.255,-0.13 0.451,-0.114Zm-19.515,0.159c0.118,0.182 -0.103,0.725 -0.154,0.799c-0.027,0.038 -0.743,0.007 -0.728,-0.047c0.016,-0.053 -0.066,-0.462 0.108,-0.76c0.199,-0.127 0.63,-0.194 0.774,0.009l0,-0.001Zm13.018,1.752c0.092,0.003 0.21,0.041 0.35,0.128c2.004,1.314 4.582,1.9 6.439,0.961c0.415,-0.209 0.686,-0.198 0.686,0.004c0,0.222 -0.461,0.676 -1.317,0.934c-1.913,0.579 -5.071,-0.185 -6.162,-1.364c-0.321,-0.347 -0.275,-0.67 0,-0.663l0.004,0Zm-17.579,1.376c-0.192,-0.005 -0.254,0.109 -0.216,0.341c0.127,0.783 5.488,3.881 7.729,4.299c1.84,0.343 3.27,0.189 4.396,-0.469c2.733,-1.599 2.032,-3.762 -0.643,-2.132c-1.797,1.095 -6.352,0.591 -9.061,-0.985c-1.204,-0.7 -1.886,-1.045 -2.205,-1.054Zm24.152,1.133c0.677,-0.286 0.968,-0.386 1.117,-0.261c0.689,0.581 -0.44,1.486 -2.499,1.839c-1.647,0.272 -2.637,0.326 -4.517,-1.075c-1.455,-1.084 -0.77,-1.609 0.066,-1.117c2.223,1.309 3.875,1.35 5.833,0.614l0,0Zm-23.675,3.387c4.742,1.71 10.137,5.835 12.533,10.845l-1.463,-0.012c-1.628,-2.861 -4.85,-6.494 -10.162,-9.047c-0.47,-0.389 -0.715,-1.085 -0.908,-1.786l0,0Zm24.908,2.345l0,1.565c-2.931,1.488 -5.388,3.777 -7.241,6.935l-1.659,-0.024c1.901,-3.388 4.748,-6.56 8.9,-8.476l0,0Zm0,2.387l0,1.923c-1.854,1.094 -3.4,2.536 -4.485,4.19l-1.963,0c1.574,-2.678 3.732,-4.813 6.448,-6.113Zm-21.713,1.477c1.412,0.817 3.75,2.997 4.599,4.674l-0.754,0.035c-0.769,-0.985 -1.998,-2.119 -2.999,-3.011c-0.639,-0.757 -0.846,-1.698 -0.846,-1.698l0,0Zm21.713,1.232c0.023,0 0.024,0.015 0,0.047l0,1.527c0,0.04 -1.408,0.966 -2.006,1.83l-1.593,0c1.094,-1.994 3.37,-3.408 3.599,-3.404l0,0Zm0,2.539l0,0.865l-1.001,0.004c0.066,-0.098 0.623,-0.715 1.004,-0.869l-0.003,0Zm-19.531,0.217c0.3,0.159 0.531,0.726 0.531,0.726l-0.269,0.029l-0.262,-0.755Z" style="fill:#131f67;fill-rule:nonzero;"/><path id="path3052-2-5-5" d="M37.445,193.446c3.299,0.091 10.26,-1.15 10.149,-1.024c0,0 21.597,36.135 20.719,35.777c-0.281,0.448 -27.668,0.432 -27.668,0.432c-0.593,0.007 5.811,-13.389 -3.2,-35.185Zm9.794,-25.456c10.523,-8.781 21.548,-8.847 33.385,-10.054l0.272,-29.842l4.284,2.582l0.091,27.342c15.626,1.18 29.107,6.942 40.689,17.029c0.145,0.219 -16.756,9.319 -24.159,11.727c-5.747,-4.248 -20.909,-6.926 -30.963,-3.66c-2.762,0.897 -6.153,2.332 -9.452,3.393c2.39,-14.406 -8.781,-16.533 -12.711,-17.197c-0.492,-0.084 -1.08,-1.15 -1.436,-1.32Zm-13.509,4.657c0.184,-3.069 -0.014,-6.142 -0.243,-9.28c-0.06,-0.717 -6.154,9.337 -6.494,6.899c-0.853,-6.105 2.158,-13.868 6.888,-14.82c0.471,-0.642 9.842,5.198 9.414,10.245c-0.14,1.644 -8.359,-5.553 -8.393,-5.123c-0.193,0.841 0.242,12.104 0.496,12.082c2.367,1.34 1.852,3.063 2.11,4.49c6.343,-0.941 5.996,6.143 0.01,5.921c0.37,8.37 -7.349,4.588 -5.828,0.13c-7.774,-0.368 -3.946,-7.68 -0.075,-6.073c-0.233,-1.846 0.22,-3.77 2.115,-4.471l0,0Zm8.918,-35.508c-0.447,-0.179 -16.583,-1.011 -16.583,-1.011l0.844,-39.563c8.238,-19.044 39.24,-10.138 34.308,-6.086c-14.815,9.772 -17.07,27.592 -18.569,46.66Zm29.76,-16.253l-0.492,-4.392c-1.266,-2.73 32.989,13.197 33.376,13.538l0.996,4.688c0.198,2.059 -21.788,-8.345 -33.88,-13.834Zm62.357,-7.794c-2.556,19.716 -2.412,39.552 -16.918,46.413c10.911,10.638 20.032,2.442 33.769,-4.454c0.374,-0.001 -0.456,-42.219 -0.687,-42.19c-5.443,0.29 -10.815,0.413 -16.164,0.231Zm7.557,-19.244c-2.698,-0.415 -8.978,-6.97 -7.676,-8.952c0.04,-1.488 7.812,4.207 8.621,5.742c-0.399,-0.457 -0.454,-13.912 -0.58,-13.377c-0.296,0.158 -2.374,-1.34 -1.833,-4.144c-5.959,1.326 -5.632,-6.468 -0.424,-6.149c-0.673,-7.091 7.931,-4.487 5.642,0.262c7.363,-1.366 6.092,6.956 0.528,5.601c0.472,3.156 -0.821,4.028 -2.63,4.659c0.116,1.322 0.609,10.146 0.609,10.146c0,0 5.444,-8.398 5.835,-7.674c1.385,2.026 -0.853,15.939 -8.092,13.886Zm-25.227,-30.969c-2.457,8.524 4.274,18.262 10.633,18.235c1.279,-0.203 3.728,0.493 2.883,1.182c-10.032,8.182 -33.441,9.88 -33.447,9.525c0.245,10.044 -0.202,20.189 -0.441,30.229l-4.289,-2.6c-0.138,-9.16 -0.362,-18.528 -0.571,-27.686c-14.999,-1.97 -28.479,-6.84 -39.132,-17.2c7.073,-5.277 15.524,-8.573 23.641,-11.904c10.22,5.344 24.449,8.432 40.723,0.219Zm-7.402,-40.497c-0.471,-0.209 1.617,-1.769 1.617,-1.769c0,0 17.426,0.23 26.071,0.113c-3.15,13.014 -0.922,24.674 3.145,35.871c-1.078,-0.254 -8.236,0.33 -9.984,1.117c-0.281,0.284 -20.628,-35.014 -20.849,-35.332Z" style="fill:#e2cf00;fill-rule:nonzero;"/><path id="path3050-3-4-7" d="M68.88,228.149l-21.07,-35.813l3.162,-1.383l21.721,37.247l-3.813,-0.051Zm-37.491,-47.881l3.043,-3.153l3.052,3.113l-3.191,2.985l-2.904,-2.945Zm67.599,-20.085l-0.429,-2.56c12.14,2.993 22.076,9.274 29.22,16.116l-1.701,1.253c0.531,-0.146 -17.245,-13.567 -27.09,-14.809Zm-34.87,-2.333l3.461,-0.75l-0.109,2.152l-3.358,0.673l0.006,-2.075Zm70.669,-1.89l-2.097,-1.701l1.509,-1.802l2.038,1.617l-1.45,1.886Zm-71.298,-17.352c5.211,-2.484 9.279,-12.503 8.768,-13.171l2.84,0.678l-6.56,27.45l-4.539,1c-0.022,-5.252 -0.511,-10.707 -0.509,-15.957Zm34.295,15.532c-1.767,-5.779 -5.246,-18.85 -5.246,-18.85c0.128,0.427 11.304,3.626 15.29,2.461c1.702,2.345 3.574,4.407 5.548,6.296c-4.138,4.075 -9.277,7.479 -15.592,10.093Zm46.846,-21.037l-1.968,-1.717l1.766,-2.177l2.162,1.658l-1.96,2.236Zm-25.72,-1.149c-1.605,-2.901 -1.716,-6.181 1.26,-9.416l-1.26,9.416Zm-61.192,-5.054c-0.057,-2.951 0.327,-5.762 1.023,-8.476c1.723,3.135 1.7,6.284 -1.023,8.476Zm45.012,-2.705c0,0 4.328,-20.191 6.203,-28.103l4.781,-1.115l-0.213,16.352c-4.76,3.907 -8.1,13.214 -7.949,13.214l-2.822,-0.348Zm-69.559,-3.357l-2.09,-1.965l1.768,-1.948l1.843,1.899l-1.521,2.014Zm37.433,-7.872c-1.508,-2.213 -3.574,-4.482 -5.741,-6.761c3.557,-4.98 9.46,-7.863 15.715,-10.125l4.236,18.973c-4.788,-1.452 -9.95,-3.026 -14.21,-2.087Zm-29.339,-16.911l1.472,-1.843l1.928,1.528l-1.465,2.039l-1.935,-1.724Zm69.224,-5.549l2.982,-0.67l0.109,2.327l-3.574,0.664l0.483,-2.321Zm-60.285,-14.497l2.275,-1.424c7.985,7.216 16.803,12.195 26.421,15.027l0.321,2.689c-10.844,-3.365 -20.766,-8.039 -29.017,-16.292Zm93.301,-2.879l-2.957,-2.936l2.662,-2.981l3.163,2.751c-1.044,1.586 -2.868,3.166 -2.868,3.166Zm-16.384,-14.286l-22.135,-38.017l3.198,-0.027l21.781,36.62l-2.844,1.424Z" style="fill:#d40000;fill-rule:nonzero;"/><path id="path3048-5-8-9" d="M104.785,20.186l-5.289,0.019l30.019,60.791c0,0 -0.813,0.138 -2.405,-0.283c-7.211,-1.905 -11.654,-9.573 -10.024,-17.097c0.166,-0.584 0.208,-1.085 0.208,-1.085c-18.586,8.47 -30.093,5.351 -40.824,-0.043l-4.576,1.768c0.304,-2.783 3.723,-13.234 8.837,-18.155l-0.008,-5.271l-0.123,-2.489l-0.404,-4.515c-7.609,7.213 -16.487,18.568 -17.598,34.693c0,0 -6.928,3.583 -12.841,7.547c0.328,-0.044 9.211,10.938 30.551,17.105l-0.94,-3.504c3.174,0.897 7.685,1.606 12.171,2.178l0.601,27.523l5.096,3.039l0.173,-30.473c0.157,0.126 8.128,-0.283 12.421,-1.314l-0.604,2.938l4.242,-0.841l0,2.144l-4.65,1.104l-6.62,28.485l3.856,0.864c1.129,-5.737 3.98,-10.378 8.111,-13.225l-0.043,-1.093c2.649,-1.914 8.155,-3.435 8.191,-3.399c1.878,-9.238 6.25,-15.639 10.897,-21.729l-2.213,-3.027l8.487,-3.136l-11.782,-20.182c4.533,-3.15 13.522,-1.976 13.522,-1.976c-3.853,-10.473 -7.239,-21.276 -3.434,-37.128l-32.771,0.027l-0.234,-0.26Zm10.751,0.657c-0.008,2.648 -3.444,2.375 -3.863,-0.014l3.863,0.014Zm21.054,-0.083c-2.085,12.138 -1.394,23.962 3.441,35.197c0,0 -0.704,0.041 -0.793,0.024c-0.066,-0.014 0.082,-0.606 0.046,-0.764c-0.096,-0.422 -0.791,-0.224 -1.374,0.171c-0.253,0.172 -0.546,0.368 -0.731,0.461c-0.599,0.301 -3.636,0.278 -3.636,0.278c0.991,-0.676 2.385,-2.577 1.576,-3.686c-0.183,-0.237 -0.294,-0.132 -0.473,0.187c-0.862,1.544 -1.291,1.786 -2.444,1.771c-1.808,-0.022 -3.103,-1.151 -2.956,-2.852c0.141,-1.654 2.559,-2.527 2.202,-0.923c-0.098,1.429 1.31,1.707 1.57,0.283c0.098,-0.533 0.02,-0.286 0.135,-0.911c2.816,-1.504 1.261,-4.567 -1.367,-3.926c-0.618,0.164 -0.695,0.222 -1.131,-0.004c-0.811,-0.421 -1.484,-0.288 -1.79,0.302c-0.27,0.52 0.141,0.936 0.743,0.938c0.624,0.002 0.744,0.305 0.743,0.682c0,0.877 -1.506,1.299 -2.502,0.787c-2.629,-1.35 -1.655,-4.861 1.397,-4.849c0.928,0.003 1.315,0.062 1.355,-0.139c0.111,-0.567 -1.306,-1.548 -2.106,-1.403c-0.678,0.133 -1.089,0.311 -0.731,-0.597c0.22,-0.937 0.214,-1.362 0.027,-2.066c-0.488,-1.006 -0.476,-0.49 -0.777,0.325c-1.005,1.679 -2.521,2.051 -3.826,1.132c-1.211,-0.852 -1.175,-2.47 -0.023,-3.624c0.8,-0.801 1.658,-0.256 1.177,0.64c-0.199,0.37 -0.041,0.83 0.316,0.922c0.722,0.186 1.17,-0.242 1.174,-1.124c-0.015,-0.485 -0.149,-0.594 0.72,-1.093c2.248,-1.293 0.566,-4.825 -1.971,-3.69c-0.557,0.249 -0.687,0.493 -0.939,0.376c-1.061,-1.009 -2.582,0.267 -1.682,0.942c0.389,0.191 0.864,0.263 0.989,0.275c0.219,0.126 0.146,0.44 -0.173,0.834c-1.051,1.247 -3.436,0.631 -3.999,-1.128c-0.653,-2.038 1.416,-4.18 3.002,-2.993c0.469,0.352 0.875,0.388 0.877,-0.131c0,-0.81 -1.009,-1.739 -2.301,-1.648c-1.312,0.093 -1.169,0.264 -0.455,-0.93c0.527,-1.063 0.456,-2.1 0,-2.725c-0.354,-0.481 -0.718,-0.583 -0.681,-0.073c0.287,1.579 -1.545,3.081 -3.052,2.418c-1.448,-0.652 -2.167,-2.284 -1.455,-3.701c0.656,-1.308 2.247,-1.443 1.982,-0.047c-0.125,0.89 0.548,1.359 1.197,0.834c0.236,-0.191 0.292,-0.36 0.308,-0.935c0.019,-0.639 -0.24,-0.826 0.169,-1.201c1.075,-0.144 1.141,-2.44 0.978,-2.535l17.248,-0.081l-0.004,0Zm-19.227,0.077c0.682,0 1.248,0.233 1.248,0.919c0,0.686 -0.551,1.24 -1.232,1.24c-0.681,0 -1.236,-0.554 -1.236,-1.24c0,-0.686 0.539,-0.919 1.22,-0.919Zm-12.087,0.089l2.742,0l21.653,36.337l-2.564,1.256l-21.831,-37.593Zm4.503,1.27c1.312,0.756 2.524,1.375 4.169,1.537c-0.482,0.985 -0.921,2.06 -1.001,3.9l-3.168,-5.437Zm4.41,7.318c1.336,0.482 2.496,1.212 4.697,0.474c-1.174,1.046 -1.838,2.297 -2.335,3.615l-2.362,-4.089Zm11.265,4.389c0.631,0 1.144,0.516 1.144,1.151c0,0.636 -0.513,1.148 -1.144,1.148c-0.631,0 -1.143,-0.512 -1.143,-1.148c0,-0.635 0.512,-1.151 1.143,-1.151Zm-7.014,2.869c0.965,0.358 1.977,0.595 3.1,0.543c-0.555,0.77 -0.744,1.94 -0.78,3.278l-2.32,-3.821Zm3.315,5.727c0.893,0.439 1.951,1.078 3.828,0.874c-1.243,2.123 -0.977,2.709 -1.104,3.638l-2.724,-4.512Zm10.851,4.218c0.661,0 1.197,0.54 1.197,1.206c0,0.665 -0.536,1.205 -1.197,1.205c-0.661,0 -1.197,-0.54 -1.197,-1.205c0,-0.666 0.536,-1.206 1.197,-1.206Zm-6.725,2.707c0.818,0.466 2.434,0.732 2.452,0.605c-0.104,-0.078 -0.465,1.57 -0.528,2.605l-1.924,-3.21Zm3.768,6.19c1.163,0.69 2.451,0.625 3.207,0.706c-0.809,0.163 -1.571,0.367 -2.44,0.711l-0.767,-1.417Zm13.721,6.795c-2.803,0.182 -3.453,2.346 -3.121,4.539c-2.136,-0.344 -4.529,1.695 -3.86,4.19c0.634,2.365 2.819,2.448 4.326,2.29c-0.115,0.575 -0.433,2.507 1.886,4.142l0.309,12.281c0,0 -1.022,-0.945 -1.69,-1.615c-2.913,-2.921 -7.295,-5.038 -7.02,-3.391c0.04,0.242 0.133,0.856 0.204,1.364c0.463,2.781 4.172,5.786 6.701,7.299c0.903,0.507 1.463,1.05 1.463,1.05c-4.731,5.093 -7.273,10.526 -7.907,15.919c-0.588,5.01 -1.064,9.523 -1.532,14.124c-1.93,23.078 -11.765,28.882 -12.232,30.011l-0.185,3.078l-2.744,-0.205l-3.164,2.755c10.364,5.393 16.408,11.9 16.324,12.024c8.275,-5.457 15.417,-11.518 22.159,-17.791l-0.13,-51.384c0,0 -0.56,0.206 -0.705,0.206c-0.512,-0.002 -0.577,0.23 -0.754,1.213c-0.095,0.526 -0.407,1.011 -0.651,1.356c-0.463,0.657 -0.298,0.325 0.285,0.562c1.328,0.541 -0.396,2.992 -2.282,3.291c-1.359,0.215 -2.118,0.467 -2.348,0.783c-2.86,2.519 -5.709,2.918 -7.864,1.992c-1.06,-0.455 -2.213,-1.121 -2.602,-2.232c-0.885,-2.523 0.958,-6.157 2.04,-8.256c1.983,-3.85 5.277,-6.74 5.277,-6.74l-0.539,-0.59c0,0 0.647,0.01 0.77,-0.034c2.843,-1.041 3.019,-1.056 3.541,-1.814c0.523,-0.759 1.841,-2.923 2.113,-3.636c1.461,-3.827 1.658,-4.075 1.655,-6.585c0,-2.034 -0.137,-3.393 -0.527,-3.5c-2.24,1.729 -4.501,5.767 -5.824,8.147c-0.457,-3.526 -0.592,-9.682 -0.592,-9.682c0.473,-0.527 3.163,-0.232 2.567,-4.648c2.367,1.076 4.862,-0.569 4.757,-2.865c-0.162,-3.574 -2.897,-3.469 -5.123,-3.018c1.061,-2.159 -0.956,-4.762 -2.981,-4.63l0,0Zm-0.043,0.3c2.925,0.091 3.505,3.346 1.712,5.189c0,0 -1.161,-0.9 -1.777,-1.412c-0.586,0.462 -0.754,0.863 -1.398,1.34c-0.762,-0.567 -1.221,-1.571 -1.228,-2.537c0.036,-1.509 1.548,-2.615 2.691,-2.58Zm-66.83,0.101c11.837,6.661 26.68,7.138 40.266,0.349l-0.165,1.128l-1.49,0.845l0.843,1.554l0.466,-0.225l0.012,1.027c-11.2,6.092 -29.96,7.353 -44.646,-2.763l1.277,-0.597c0,0 0.289,0.203 0.566,0.376c0.536,0.334 1.419,0.869 2.002,1.132l0.889,-1.291c0,0 -1.357,-0.833 -1.224,-0.888l1.205,-0.647l-0.001,0Zm1.043,2.043l-0.677,1.55l1.697,0.911l0.647,-1.562l-1.667,-0.899Zm-6.439,0.174c18.228,11.521 35.195,8.092 45.385,3.38l0.131,1.229c-13.152,5.634 -30.445,7.146 -46.906,-3.996l1.39,-0.613Zm42.906,0.74l-1.62,0.652l0.642,1.496l1.667,-0.717l-0.689,-1.431Zm-45.085,0.28c14.813,9.617 30.7,11.5 47.822,4.453l0.654,1.841c-16.675,6.743 -34.273,5.966 -50.35,-5.496l1.874,-0.798Zm11.382,0.054l-0.662,1.612l1.836,0.702l0.535,-1.582l-1.709,-0.732Zm31.151,0.667l-1.605,0.523l0.5,1.542l1.663,-0.569l-0.558,-1.496Zm-28.345,0.441l-0.396,1.621l1.874,0.531l0.327,-1.628l-1.805,-0.524Zm67.838,2.667c0.253,2.756 -3.805,4.086 -5.323,1.514l1.338,-1.636l-1.196,-1.124c1.623,-2.585 4.944,-1.341 5.181,1.246Zm-84.308,-2.577l4.419,3.058l-3.211,5.023l-4.757,-3.217l3.549,-4.864Zm76.586,0.139l2.806,2.45l-2.575,3.035l-2.633,-2.675l2.402,-2.81Zm-1.745,0.831l-1.578,1.847l1.708,1.828c-2.025,2.168 -5.047,0.83 -5.017,-1.823c0.023,-2.025 3.101,-3.997 4.887,-1.852Zm-32.713,-0.711l-1.686,0.508l0.385,1.488l1.744,-0.457l-0.443,-1.539Zm-22.74,0.469l-0.312,1.601l1.936,0.419l0.327,-1.593l-1.951,-0.427Zm19.957,0.272l-1.793,0.391l0.308,1.593l1.797,-0.38l-0.312,-1.604Zm37.429,0.376l-1.478,1.461l1.478,1.542l1.49,-1.542l-1.49,-1.461Zm-54.28,0.046l-0.227,1.612l2.028,0.276l0.158,-1.632l-1.959,-0.256Zm13.661,0.221l-1.825,0.209l0.185,1.582l1.894,-0.241l-0.254,-1.55Zm-10.77,0.186l-0.023,1.655l1.778,0.143l0,-1.639l-1.755,-0.159Zm7.844,0.155l-1.786,0.066l0.012,1.601l1.825,-0.117l-0.05,-1.55l-0.001,0Zm-32.586,0.016c-1.051,0 -1.902,0.856 -1.902,1.914c0,1.058 0.851,1.915 1.902,1.915c1.05,0 1.901,-0.857 1.901,-1.915c0,-1.058 -0.851,-1.914 -1.901,-1.914Zm29.592,0.054l-1.756,0.015l0.008,1.621l1.81,0.008l-0.062,-1.644l0,0Zm46.539,0.008l0.77,0.775l-0.77,0.764l-0.789,-0.764l0.789,-0.775Zm-76.135,0.612c0.689,0 1.247,0.562 1.247,1.256c0,0.694 -0.558,1.26 -1.247,1.26c-0.69,0 -1.251,-0.566 -1.251,-1.26c0,-0.694 0.561,-1.256 1.251,-1.256Zm-6.763,0.093l2.529,2.074c-0.805,1.551 -3.353,4.825 -3.353,4.825l-4.673,-3.771l2.444,-1.391c-0.133,0.258 -0.207,0.549 -0.207,0.86c0,1.04 0.838,1.88 1.87,1.88c1.033,0 1.871,-0.84 1.871,-1.88c0,-0.997 -0.773,-1.811 -1.748,-1.876l1.267,-0.721Zm-1.413,1.334c0.693,0 1.255,0.566 1.255,1.263c0,0.697 -0.562,1.26 -1.255,1.26c-0.692,0 -1.255,-0.563 -1.255,-1.26c0,-0.697 0.563,-1.263 1.255,-1.263Zm85.952,0.596c0,0 0.689,0.263 0.857,0.524c1.357,2.096 -0.056,4.589 -2.329,4.54c-2.656,-0.057 -3.355,-3.409 -1.529,-4.777l1.485,1.412l1.516,-1.699Zm-69.043,0.853l5.235,2.023l-1.986,5.729l-5.724,-2.364l2.475,-5.388Zm-21.516,0.597c21.356,19.376 51.697,20.769 73.749,7.907l1.343,-0.027l0.712,0.736c-25.122,14.961 -56.353,11.705 -77.436,-7.55l1.632,-1.066Zm58.807,1.155l1.686,5.663l-5.79,1.535l-1.293,-5.737l5.397,-1.461Zm-60.997,0.206c6.481,6.289 15.646,11.8 26.408,14.926l0.266,2.322c-11.425,-3.455 -20.055,-8.069 -28.46,-16.078l1.786,-1.17Zm25.092,0.089c-1.033,0 -1.871,0.844 -1.871,1.883c0,1.04 0.838,1.88 1.871,1.88c1.033,0 1.871,-0.84 1.871,-1.88c0,-1.039 -0.838,-1.883 -1.871,-1.883Zm-9.311,0.422l5.4,2.876l-2.69,5.423l-5.735,-3.097l3.025,-5.202Zm9.288,0.198c0.692,0 1.255,0.566 1.255,1.263c0,0.698 -0.563,1.26 -1.255,1.26c-0.693,0 -1.255,-0.562 -1.255,-1.26c0,-0.697 0.562,-1.263 1.255,-1.263Zm8.941,0.771l5.189,0.76l-0.239,5.791l-6.054,-0.733c0.232,-2.038 1.104,-5.818 1.104,-5.818Zm25.062,0.144c-1.032,0 -1.871,0.844 -1.871,1.883c0,1.04 0.839,1.88 1.871,1.88c1.033,0 1.871,-0.84 1.871,-1.88c0,-1.039 -0.838,-1.883 -1.871,-1.883Zm-0.023,0.62c0.692,0 1.255,0.566 1.255,1.263c0,0.698 -0.563,1.26 -1.255,1.26c-0.693,0 -1.255,-0.562 -1.255,-1.26c0,-0.697 0.562,-1.263 1.255,-1.263Zm-42.187,0.081c-1.032,0 -1.87,0.844 -1.87,1.884c0,1.04 0.838,1.88 1.87,1.88c1.033,0 1.871,-0.84 1.871,-1.88c0,-1.04 -0.838,-1.884 -1.871,-1.884Zm33.172,0.008l0.743,5.818l-5.666,0.283l-0.335,-5.802l5.258,-0.299Zm40.609,0.52l0.804,0c0.074,5.006 0.468,10.802 1.043,15.089c0.087,0.638 0.126,0.827 0.062,0.942c-0.557,0.992 -1.203,-0.257 -1.455,-3.105c-0.07,-0.785 -0.158,-1.928 -0.254,-2.678c-0.291,-2.271 -0.2,-10.248 -0.2,-10.248l0,0Zm-95.763,0.089c-8.519,5.352 -22.69,18.136 -22.606,18.434l0.058,49.124l1.108,0.054l0.916,-1.806c-1.417,-0.357 -1.02,-3.04 1.694,-3.578c0.463,-0.091 1.878,-0.571 2.225,-0.837c2.06,-1.581 5.407,-2.515 7.756,-1.891c3.424,0.882 4.127,3.417 2.479,7.825c-1.299,3.475 -3.873,7.919 -6.29,9.186c-0.197,0.104 -0.623,0.314 -0.623,0.314c0,0 0.562,0.515 0.766,0.648c6.657,-3.874 10.018,-17.77 9.838,-26.415c0.268,-8.856 1.785,-17.742 5.335,-24.206c5.867,-10.681 13.627,-14.976 13.587,-15.015c0,0 -10.461,-6.395 -16.243,-11.837l0,0Zm21.959,0.004c0.693,0 1.255,0.566 1.255,1.263c0,0.697 -0.562,1.26 -1.255,1.26c-0.692,0 -1.254,-0.563 -1.254,-1.26c0,-0.697 0.562,-1.263 1.254,-1.263Zm51.752,0.201l2.021,5.407l-5.616,2.314l-2.025,-5.682l5.62,-2.039Zm-32.302,0.027c-1.033,0 -1.871,0.844 -1.871,1.884c0,1.04 0.838,1.88 1.871,1.88c1.033,0 1.871,-0.84 1.871,-1.88c0,-1.04 -0.838,-1.884 -1.871,-1.884Zm11.416,0.469c-1.032,0 -1.87,0.844 -1.87,1.884c0,1.04 0.838,1.88 1.87,1.88c1.033,0 1.871,-0.84 1.871,-1.88c0,-1.04 -0.838,-1.884 -1.871,-1.884Zm-11.439,0.152c0.692,0 1.255,0.566 1.255,1.263c0,0.697 -0.563,1.26 -1.255,1.26c-0.692,0 -1.255,-0.563 -1.255,-1.26c0,-0.697 0.563,-1.263 1.255,-1.263Zm11.416,0.469c0.693,0 1.255,0.566 1.255,1.263c0,0.697 -0.562,1.26 -1.255,1.26c-0.692,0 -1.254,-0.563 -1.254,-1.26c0,-0.697 0.562,-1.263 1.254,-1.263Zm19.1,0.643c-1.033,0 -1.871,0.844 -1.871,1.884c0,1.039 0.838,1.88 1.871,1.88c1.033,0 1.87,-0.841 1.87,-1.88c0.001,-1.04 -0.837,-1.884 -1.87,-1.884Zm-0.023,0.62c0.692,0 1.255,0.566 1.254,1.264c0,0.697 -0.562,1.259 -1.254,1.259c-0.693,0 -1.256,-0.562 -1.255,-1.259c0,-0.698 0.562,-1.264 1.255,-1.264Zm-39.666,0.097l5.612,1.446l-1.305,5.926l-6.331,-1.694l2.024,-5.678Zm70.994,-0.153c0.918,2.895 -0.766,6.608 -0.851,6.851c-1.02,2.912 -2.248,5.292 -2.694,5.43c-0.38,0.145 -0.548,0.052 -0.547,-0.306c0,-0.55 1.254,-4.279 2.24,-6.679c0.241,-0.587 0.8,-2.363 0.802,-2.662c0,-0.449 -0.431,0.283 -0.898,1.403c-0.903,2.24 -2.22,4.638 -2.506,6.81c-0.205,1.775 -0.54,1.524 -0.785,-0.589c-0.341,-2.934 0.297,-4.442 3.572,-8.527c0.783,-0.978 1.588,-1.982 1.667,-1.731Zm-41.228,1.506l1.624,5.802l-6.624,1.14l-1.032,-5.884l6.032,-1.058Zm-27.737,0.585c-1.033,0 -1.871,0.844 -1.871,1.884c0,1.039 0.838,1.88 1.871,1.88c1.032,0 1.87,-0.841 1.87,-1.88c0.001,-1.04 -0.838,-1.884 -1.87,-1.884Zm9.904,0.376l6,0.345l0.054,6.031l-6.513,-0.283l0.459,-6.093Zm-9.927,0.244c0.692,0 1.255,0.566 1.255,1.264c-0.001,0.697 -0.563,1.259 -1.255,1.259c-0.693,0 -1.255,-0.562 -1.255,-1.259c0,-0.698 0.562,-1.264 1.255,-1.264Zm25.185,0.535c-1.033,0 -1.871,0.844 -1.871,1.884c0,1.039 0.838,1.88 1.871,1.88c1.032,0 1.87,-0.841 1.87,-1.88c0,-1.04 -0.838,-1.884 -1.87,-1.884Zm-12.441,0.485c-1.032,0 -1.87,0.843 -1.871,1.883c0,1.04 0.839,1.88 1.871,1.88c1.033,0 1.871,-0.84 1.871,-1.88c0,-1.04 -0.838,-1.883 -1.871,-1.883Zm12.417,0.135c0.693,0 1.255,0.567 1.255,1.264c0,0.697 -0.562,1.259 -1.255,1.259c-0.692,0 -1.254,-0.562 -1.254,-1.259c0,-0.697 0.562,-1.264 1.254,-1.264Zm-12.44,0.485c0.693,0 1.255,0.566 1.255,1.263c0,0.697 -0.562,1.26 -1.255,1.26c-0.692,0 -1.255,-0.563 -1.255,-1.26c0,-0.697 0.563,-1.263 1.255,-1.263Zm40.92,0.36c0.099,-0.002 0.229,0.017 0.316,0.016c1.34,-0.016 5.859,3.253 7.017,5.232c0.96,1.748 0.463,2.442 -0.643,0.88c-1.526,-1.711 -4.345,-4.25 -4.704,-4.252c-0.385,-0.001 0.146,0.552 1.94,2.314c1.78,1.747 3.658,4.024 3.657,4.43c0,0.268 -0.354,0.234 -0.862,-0.081c-1.111,-0.689 -2.075,-1.386 -2.568,-1.853c-0.297,-0.281 -0.864,-0.8 -1.266,-1.155c-1.66,-1.465 -3.552,-4.843 -3.018,-5.492c0.024,-0.029 0.072,-0.037 0.131,-0.039l0,0Zm-83.726,0.481c1.156,-0.034 2.461,0.706 2.514,2.062c0.037,0.957 0.102,1.031 0.962,1.046c0.82,0.015 3.191,0.299 3.191,0.299l0.015,2.682c0,0 -1.144,-0.007 -2.464,-0.07c-2.245,-0.107 -2.235,-0.11 -2.521,0.884c-0.115,0.402 -0.276,0.599 -0.723,0.895c-2.017,1.334 -3.962,-1.086 -2.71,-3.372c0.43,-0.785 0.455,-1.053 0.158,-1.523c-0.604,-1.365 0.199,-2.835 1.578,-2.903l0,0Zm0.493,1.372c-0.249,0 -0.521,0.107 -0.77,0.356c-0.333,0.332 -0.335,1.279 0,1.83c0.316,0.527 0.308,0.668 -0.062,1.015c-0.651,0.612 -0.67,1.825 -0.034,2.281c0.579,0.417 1.194,-0.133 1.197,-0.974c0,-0.922 0.644,-0.905 0.644,-0.905l4.22,0.073l0.013,-0.692l-3.061,-0.155c-0.426,-0.001 -0.871,-0.042 -1.2,-0.266c-0.348,-0.243 -0.745,-0.664 -0.366,-1.176c0.531,-0.717 0.057,-1.392 -0.578,-1.387l-0.003,0Zm-9.146,1.585l2.002,3.426l2.332,0.086l0.204,2.085l2.836,1.839l-2.905,1.711l-0.143,2.098l-2.201,0.278l-2.044,2.578l-1.959,-2.574l-2.16,0.012l-0.031,-2.151l-2.971,-1.927l3.252,-1.841l-0.034,-2.457l2.305,-0.155l1.517,-3.008l0,0Zm70.701,1.558l0.096,2.07l-3.275,0.585l0.427,-2.108l2.752,-0.547Zm-20.993,2.086l4.415,0.135l-0.254,29.051c0,0 -0.87,-0.007 -1.036,-0.008l-0.019,-1.132l-1.413,0.046l-1.435,-0.876l-0.258,-27.216Zm-49.708,0.736l-2.59,3.302l3.137,2.76l2.763,-3.229l-3.31,-2.833Zm51.032,0.442l0,1.337l1.851,0l0,-1.337l-1.851,0Zm-50.974,1.143l1.824,1.345l-1.389,1.849l-1.759,-1.535l1.324,-1.659Zm70.735,0.76l-0.057,15.899c-6.067,4.794 -7.957,13.233 -7.957,13.233l-2.467,-0.148l6.27,-28.007l4.211,-0.977Zm-32.883,0.353c-5.459,2.615 -10.96,4.595 -16.374,10.833c2.096,1.9 4.312,3.837 6.282,7.074c4.507,-0.676 9.522,0.136 14.992,2.302l-4.9,-20.209Zm13.122,0.356l0,1.384l1.851,0l0,-1.384l-1.851,0Zm-61.359,1.996c0.135,0.423 0.177,0.876 0.177,0.876c4.003,-0.338 2.982,4.34 0.431,4.5c-0.299,0.039 0.247,0.83 0.843,1.082c1.516,0.641 2.605,0.229 3.599,-1.105c0.762,-1.023 0.808,-1.17 0.808,-1.17l2.472,1.317c0,0 0.07,-0.036 -0.366,1.105c-0.794,2.076 0.364,4.624 1.258,2.767c0.477,-0.989 1.878,-1.552 2.849,-1.143c1.134,0.478 1.527,2.517 0.731,3.802c-0.241,0.389 -0.248,0.47 -0.1,0.83c0.223,0.541 0.36,1.934 0.127,2.384c-0.302,0.583 -0.651,0.715 -1.332,0.24c-0.932,-0.651 -1.454,-0.922 -3.075,-1.376c-2.848,-0.54 -3.406,-1.549 -4.538,-3.907c-3.374,1.017 -8.421,-1.113 -7.749,-6.155c0.306,-1.113 0.391,-3.249 -0.173,-3.686c-1.104,-0.857 0.108,-2.092 1.767,-2.291c1.363,-0.136 2.02,1.164 2.271,1.93Zm47.721,-1.461l4.388,18.504c-4.816,-1.776 -9.543,-3.162 -13.726,-2.132c-1.915,-3.078 -3.548,-4.593 -5.673,-6.593c4.14,-5.026 9.403,-7.838 15.011,-9.779Zm-49.646,0.907c-0.283,-0.003 -0.604,0.121 -0.939,0.419c0,0 0.297,0.25 0.458,0.589c0.258,0.542 0.261,0.542 -0.031,1.744c-1.338,4.82 1.836,8.009 6.351,6.616c1.109,-0.345 1.066,-0.307 1.386,1.004c0.526,2.158 2.042,3.273 5.054,3.682c0.185,0.026 0.494,0.086 0.739,0.237c1.325,0.851 0.781,-0.281 0.419,-0.721c-0.258,-0.344 -0.731,-0.686 -0.731,-0.686c0,0 0.404,-0.264 0.593,-0.365c0.85,-0.453 1.167,-2.23 0.465,-2.612c-0.639,-0.348 -1.729,0.177 -1.732,0.837c-0.008,1.206 -1.516,1.334 -2.837,0.332c-1.697,-1.286 -0.194,-4.528 -0.184,-4.524l-0.957,-0.423c0.127,0.113 -2.015,3.177 -4.65,2.109c-1.84,-0.746 -3.138,-2.893 -2.284,-3.505c0.622,-0.168 1.368,0.176 1.84,-0.19c0.941,-0.744 0.182,-2.048 -1.162,-2c-0.283,0.01 -0.924,0.135 -0.924,0.135c0.07,-0.607 0.225,-1.034 0.15,-1.62c-0.079,-0.586 -0.482,-1.052 -1.024,-1.058l0,0Zm63.303,1.407l0,1.14l1.832,0.011l0,-1.139l-1.832,-0.012Zm-0.019,2.349l0,1.174l1.851,0l0,-1.174l-1.851,0Zm0,2.531l0,1.201l1.851,0l0,-1.201l-1.851,0Zm0,2.36l0,1.272l1.851,0l0,-1.272l-1.851,0Zm0,2.369l0,1.186l1.851,0l0,-1.186l-1.851,0Zm0,2.414l0,1.198l1.851,0l0,-1.198l-1.851,0Zm-60.193,1.171l1.559,2.651l1.852,0.081l0.072,1.822l3.149,2.423l-2.752,1.98l-0.2,1.965l-2.183,0.07l-1.766,3l-2.175,-2.632l-1.748,-0.283l-0.2,-2.395l-2.69,-2.027l2.529,-2.035l0.204,-2.128l2.059,0.182l2.29,-2.674Zm102.452,1.267c0.169,0.004 0.352,0.051 0.551,0.151c0.654,0.333 0.86,0.372 2.559,0.458c1.972,0.1 2.668,0.277 3.646,0.934c0.589,0.396 0.623,0.394 1.254,-0.027c2.768,-1.847 5.929,-0.168 6.159,3.271c0.06,0.904 0.15,1.269 0.504,2.027c0.242,0.526 0.492,0.94 0.347,1.275c-0.444,1.025 -2.576,1.09 -3.738,-0.43c-0.208,-0.229 -0.419,-0.328 -0.708,-0.329c-0.577,0.216 -2.053,-0.954 -2.036,-1.004c-0.137,0.814 -0.206,1.461 -0.351,2.643l-2.582,-0.038c0,0 -0.058,-0.477 -0.177,-2.14c-0.138,-1.912 -0.61,-2.471 -1.217,-1.438c-1.044,1.778 -3.819,0.996 -3.98,-1.12c-0.054,-0.718 -0.095,-0.811 -0.485,-1.113c-1.306,-1.011 -0.926,-3.144 0.254,-3.12l0,0Zm-42.259,0.105l0,1.062l1.851,0l0,-1.062l-1.851,0Zm42.556,1.136c-0.513,0.037 -0.221,0.953 0.627,1.438c0.482,0.275 0.483,0.272 0.42,1.116c-0.115,1.527 1.348,2.276 1.997,1.023c0.113,-0.217 0.161,-0.493 0.116,-0.678c-0.273,-1.11 2.113,-0.807 2.687,0.341c0.131,0.264 0.279,0.966 0.35,1.674c0.067,0.672 0.085,1.45 0.085,1.45l0.762,0c0,0 -0.009,-0.464 0.034,-0.907c0.189,-1.898 1.023,-3.097 2.148,-3.093c0.48,0.002 0.497,0.088 0.162,0.713c-0.569,1.058 -0.021,1.824 1.304,1.833c0.841,0.006 0.838,0.008 1.151,0.609c0.344,0.661 0.604,0.87 0.924,0.748c0.226,-0.086 0.23,0.041 -0.066,-2.213c-0.44,-3.359 -2.381,-4.264 -5.061,-2.361c-0.759,0.539 -0.925,0.523 -1.598,-0.131c-1.008,-0.981 -1.646,-1.205 -3.618,-1.279c-0.939,-0.036 -1.865,-0.128 -2.055,-0.206c-0.152,-0.062 -0.275,-0.084 -0.37,-0.077l0.001,0Zm-63.607,0.961c-0.438,0.007 -0.947,0.1 -1.388,0.138c0.49,2.596 0.718,5.192 0.942,7.788c2.257,-0.395 5.18,-0.027 9.037,1.783c2.367,1.111 5.258,3.009 8.287,5.151c3.28,2.319 7.125,3.689 10.4,4.404c3.988,0.872 7.19,0.797 7.103,0.608c-0.177,0.03 -1.438,-6.368 -1.273,-7.736c-5.516,-0.51 -10.842,-2.567 -14.913,-5.353c-5.389,-3.689 -11.619,-6.896 -18.195,-6.783Zm21.051,0.217l0,1.077l1.851,0l0,-1.077l-1.851,0Zm-60.755,0.213l-2.929,3.074l3.187,3.039l2.706,-3.097l-2.964,-3.016Zm-0.081,1.395l1.659,1.601l-1.339,1.71l-1.867,-1.621l1.547,-1.69Zm41.302,0.252c0.39,0.004 0.772,0.28 2.063,1.008c1.082,0.752 1.947,1.222 1.632,0.043c0.247,-0.34 1.446,0.765 2.86,1.461c1.704,1.375 1.71,1.043 1.932,0.36c0.228,-0.499 0.543,-0.161 1.905,1.109c1.789,1.669 1.629,1.671 1.986,1.256c0.408,-0.78 0.544,-0.772 2.002,0.915c1.515,1.702 1.836,2.065 2.159,1.337c0.499,-0.377 0.757,-0.011 2.814,1.934c1.012,1.016 1.25,0.858 1.439,0.174c0.196,-0.704 0.252,-0.545 1.96,0.818c1.977,1.594 2.173,1.711 2.255,1.159c0.131,-0.877 0.744,-0.566 2.779,0.907c1.234,0.888 1.7,1.135 1.963,0.915c0.269,-0.479 -0.669,-1.398 1.321,-0.531l0.546,2.907l-0.689,-0.198c-0.423,-0.121 -1.35,-0.437 -1,0.469c0.201,0.523 -0.299,0.461 -1.844,-0.465c-2.213,-1.327 -2.622,-1.632 -2.787,-1.361c-0.292,0.994 -0.255,1.058 -1.747,-0.12c-1.737,-1.326 -2.087,-1.692 -2.329,-1.24c-0.032,1.001 -0.517,0.798 -2.136,-0.609c-1.37,-1.205 -1.662,-1.835 -2.275,-0.913c-0.168,0.321 -0.337,0.24 -0.564,0.073c-0.796,-0.593 -2.398,-2.295 -2.85,-2.784c-0.356,-0.39 -0.559,-0.264 -0.851,0.059c-0.273,0.301 -0.294,0.207 -1.178,-0.609c-2.111,-1.95 -2.504,-2.437 -2.798,-2.171c-0.241,0.458 -0.011,1.079 -1.632,-0.209c-2.034,-1.475 -2.917,-2.129 -2.779,-1.163c-0.349,0.433 -0.105,0.518 -2.14,-0.616c-1.935,-1.078 -2.181,-1.401 -2.46,-1.031c-0.19,0.585 -0.839,0.375 -0.839,0.341l-0.393,-2.957l0.697,0.008c0,0 0.67,-0.275 0.978,-0.275l0,-0.001Zm-15.524,0.248c-0.155,0.458 -1.222,3.096 -1.236,9.811c0.128,0.158 2.645,-2.426 2.768,-4.834c0.116,-2.282 -1.527,-4.983 -1.532,-4.977Zm35.054,0.187l0,1.224l1.851,0l0,-1.224l-1.851,0Zm-34.922,0.97c2.354,3.757 -0.24,7.3 -0.886,7.55c0,-2.823 0.413,-5.478 0.886,-7.55Zm61.762,3.156c-3.869,2.455 -3.241,9.099 -1.342,10.801c0.139,0 1.358,-7.176 1.342,-10.801Zm-0.53,0.818l-1.041,8.55c-1.353,-1.508 -1.593,-6.005 1.041,-8.55Zm24.398,1.443l2.044,2.589l1.817,0.136l0.404,1.868l2.652,2.175l-2.656,1.814l-0.234,2.069l-1.975,0.202l-1.955,3.097l-1.913,-3.035l-1.833,-0.198l-0.057,-1.992l-2.879,-2.14l2.748,-1.662l0.054,-2.252l2.151,0.008l1.632,-2.679Zm-72.382,0.81c-1.299,6.218 -4.401,10.473 -8.776,13.334l0.023,0.627l-7.371,2.977c-1.615,7.585 -4.518,14.985 -10.605,21.927l1.698,3.472l-8.233,2.849l11.786,20.353c0.811,0 -5.711,3.108 -13.584,2.298c4.983,12.285 6.01,25.003 3.253,36.14l38.579,-0.163l-29.484,-58.26l-0.481,-0.949c-0.409,-0.761 15.674,2.277 12.259,17.298c-0.048,0.348 0.072,0.392 0.266,0.248c3.127,-2.704 23.892,-10.203 40.474,-0.302l4.926,-2.054c-2.344,8.265 -5.01,13.951 -9.503,18.934l0.762,11.763c7.951,-6.556 16.578,-18.593 17.737,-34.589c3.58,-1.757 6.694,-3.752 10.031,-5.631l0.442,0.143l2.16,-1.306c-6.926,-7.629 -21.066,-14.921 -30.127,-16.837l0.535,2.585c-5,-1.352 -8.74,-1.646 -12.629,-2.066l-0.597,-27.372l-5.035,-2.989l-0.157,30.194c-3.765,0.047 -12.422,1.543 -12.422,1.543l0.389,-2.582l-3.964,0.822l-0.069,-2.515l4.48,-1.295l6.497,-27.736l-3.26,-0.861Zm0.542,0.616l2.071,0.423l-6.432,27.194c0,0 -3.608,1.003 -3.83,0.864c-0.287,-5.099 -0.396,-15.492 -0.396,-15.492c6.348,-5.329 7.342,-9.101 8.587,-12.989Zm-44.145,1.997c0.969,-0.013 2.012,0.697 2.078,1.337c0.166,0.394 0.305,0.564 0.566,0.601c1.623,0.225 1.674,0.658 1.721,1.6c-0.229,1.807 0.972,0.29 1.312,-1.504c0.035,-0.186 0.015,-1.558 0.015,-1.558l1.987,-0.019c0,0 0.067,1.431 0.096,1.659c0.175,1.387 0.762,2.512 1.17,1.775c1.397,-2.527 4.597,-1.238 4.092,1.198c-0.125,0.576 -0.117,0.613 0.273,1.05c0.636,0.714 0.872,1.47 0.662,2.128c-0.205,0.643 -0.652,0.741 -1.613,0.353c-0.452,-0.182 -0.999,-0.248 -2.463,-0.291c-2.071,-0.061 -2.2,-0.101 -3.007,-0.888l-0.508,-0.496l-0.877,0.52c-1.461,0.864 -2.79,0.897 -4.334,0.1c-1.006,-0.518 -1.591,-1.762 -1.748,-3.701c-0.029,-1.03 -0.317,-1.776 -0.951,-2.023c-0.342,-0.325 0.04,-0.97 0.624,-1.558c0.268,-0.194 0.581,-0.279 0.905,-0.283l0,0Zm115.816,0.294l-2.729,3.427l3.245,2.922l3.021,-3.578l-3.537,-2.771Zm-63.214,0.492l3.78,2.179l0.485,26.984l-4.273,-0.12l0.008,-29.043l0,0Zm-52.498,0.376c-0.288,0.029 -0.107,0.493 0.104,1.202c0.189,0.634 0.236,1.028 0.177,1.469c-0.402,2.957 2.965,4.461 5.396,2.411c0.646,-0.746 0.752,-0.697 1.293,0.101c0.667,0.841 1.637,1.115 3.672,0.992c0.929,-0.056 1.545,0.443 1.948,0.112c0.292,-0.213 0.009,-0.776 -0.554,-1.104c-0.345,-0.201 -0.357,-0.233 -0.289,-0.927c0.173,-1.75 -1.261,-2.213 -2.279,-0.736c-0.84,1.22 -2.108,0.414 -2.517,-1.601c-0.243,-1.55 -0.437,-1.526 -0.62,-0.174c-0.198,1.643 -2.347,3.425 -3.206,2.616c-0.235,-0.239 -0.232,-0.179 0.008,-1.004c0.31,-1.059 0.062,-1.454 -1.085,-1.729c-0.188,-0.045 -0.404,-0.203 -0.478,-0.349c-0.607,-0.946 -0.58,-1.279 -1.57,-1.279l0,0Zm115.985,0.628l1.732,1.504l-1.508,1.795l-1.844,-1.427l1.62,-1.872Zm-62.302,0.962l0,1.275l1.617,0l0,-1.275l-1.617,0Zm0,2.569l0,1.341l1.617,0l0,-1.341l-1.617,0Zm9.739,1.543c1.812,6.775 3.638,13.545 5.458,20.318c1.724,-0.694 11.679,-5.143 16.374,-10.837c-0.179,0.014 -4.269,-4.013 -5.701,-6.624c-4.695,0.779 -10.089,-0.213 -16.131,-2.857Zm-9.739,0.806l0,1.252l1.617,0l0,-1.252l-1.617,0Zm10.759,0.341c4.279,1.285 9.76,3.058 14.807,2.155c1.302,2.355 3.186,4.294 5.312,6.082c-3.82,4.184 -9.343,7.375 -15.058,9.833l-5.061,-18.07Zm40.616,0.489c0.215,0.001 0.433,0.083 0.642,0.271c0.677,0.606 1.199,0.816 2.583,1.043c2.229,0.365 3.929,1.767 4.411,3.635c0.203,0.785 0.314,0.828 1.424,0.547c4.206,-1.066 7.448,2.445 6.448,7.131c-0.35,1.637 -0.457,1.833 0.031,2.481c1.069,1.16 1.301,1.176 0.131,2.198c-1.066,0.964 -3.181,0.498 -3.63,-1.066c-0.429,-0.857 -0.423,-0.922 -1.128,-1.035c-2.744,-0.441 -2.631,-4.263 -0.046,-4.705c0.216,-0.037 0.376,0.007 0.485,-0.043c0.734,-0.334 -0.8,-2.082 -2.067,-1.814c-1.555,0.329 -2.329,1.333 -2.941,2.907l-2.448,-1.407c0.614,-1.279 1.065,-2.927 0.531,-3.946c-0.431,-0.859 -0.976,-0.892 -1.143,-0.069c-0.392,1.935 -2.781,2.513 -4.35,0.938c-0.876,-0.881 -0.978,-1.826 -0.334,-3.101c0.417,-0.825 0.427,-0.885 0.25,-1.233c-0.617,-1.212 0.218,-2.738 1.151,-2.732l0,0Zm-51.375,1.573l0,1.306l1.621,-0.008l0,-1.298l-1.617,0l-0.004,0Zm51.675,0.109c-0.498,0.004 -0.494,0.492 -0.035,1.085c0.409,0.418 0.489,0.609 -0.077,0.969c-0.708,0.661 -0.863,1.656 -0.373,2.415c0.735,1.138 2.431,0.504 2.236,-0.837c-0.136,-0.942 0.598,-1.363 1.767,-1.008c1.699,0.515 2.508,2.426 1.84,4.353c-0.126,0.363 -0.376,1.209 -0.376,1.209l0.502,0.307c0,0 0.595,-0.958 0.827,-1.248c1.93,-2.388 6.492,-1.178 5.983,1.809c-0.078,0.939 -0.074,1.065 -1.089,0.771c-0.674,-0.349 -1.325,0.376 -1.305,1.283c0.034,0.817 0.738,1.473 1.713,1.341c0.773,-0.146 0.968,-0.119 0.912,0.931c0.079,0.73 0.35,1.213 0.824,1.461c1.152,0.479 1.744,-0.181 0.824,-1.151c-0.558,-0.588 -0.525,-1.497 -0.174,-2.349c0.42,-1.019 0.201,-3.259 -0.442,-4.523c-0.927,-1.821 -3.519,-2.584 -5.689,-1.675c-0.992,0.534 -1.101,0.657 -1.197,-0.279c-0.544,-2.322 -2.28,-4.077 -4.442,-4.232c-0.832,-0.06 -1.698,-0.517 -2.229,-0.632l0,0Zm-51.675,2.372l0,1.205l1.621,0l0,-1.205l-1.621,0Zm0,2.356l0,1.33l1.617,0l0,-1.33l-1.617,0Zm0,2.593l0,1.33c0,0 0.885,-0.025 1.617,0l0,-1.33l-1.617,0Zm52.795,2.132l1.771,2.636l1.959,0.132l0.231,2.128l2.971,1.864l-2.575,1.624l-0.019,2.058l-2.456,0.209l-2.171,2.9l-1.847,-2.559l-1.848,0.008l-0.435,-2.282l-3.272,-1.671l3.357,-1.926l-0.093,-2.4l2.283,-0.015l2.144,-2.705l0,-0.001Zm-52.795,0.314l0,1.365l1.617,0l0,-1.365l-1.617,0Zm0,2.5l0,1.349l1.617,0l0,-1.349l-1.617,0Zm51.802,1.004l-2.537,3.399l3.418,2.845l2.718,-3.438l-3.599,-2.806Zm-51.802,1.361l0,1.476l1.617,0l0,-1.476l-1.617,0Zm52.064,0.178l1.763,1.372l-1.259,1.608l-1.751,-1.345l1.247,-1.635Zm-52.064,2.55l0,1.237l1.617,0l0,-1.237l-1.617,0Zm-48.114,0.159c-3.116,0.014 -6.064,5.097 -6.77,7.504c-0.835,3.083 -0.959,8.661 -0.166,8.818c2.794,-2.024 4.118,-5.455 6.217,-8.023c0.325,2.97 0.274,8.698 0.274,8.698c0,0 -1.242,0.659 -1.912,1.698c-0.483,0.865 -0.637,1.897 -0.225,2.859c-1.554,-0.507 -4.367,0.066 -4.527,2.954c0.101,4.066 4.51,3.493 4.527,3.438c-0.094,-0.025 -0.869,4.325 3.044,4.787c1.405,0.165 3.875,-0.865 3.141,-4.822c2.47,0.41 4.6,-0.959 4.627,-3.353c0.031,-1.639 -1.206,-3.049 -3.337,-3.058c-0.445,-0.001 -1.382,0.202 -1.382,0.202c0.029,-0.237 0.853,-2.782 -2.013,-4.628l-0.451,-11.772c0,0 0.99,1.086 1.432,1.497c1.905,1.765 3.149,2.655 5.347,3.821c2.139,1.136 1.875,0.856 1.505,-1.302c-1.011,-3.241 -3.124,-5.69 -7.595,-8.752c-0.575,-0.394 -1.158,-0.569 -1.736,-0.566Zm0.308,0.252l0.628,16.649l-0.928,-0.002l-0.797,-16.632l1.097,-0.015Zm91.717,0.55c0.083,-0.003 0.167,0 0.254,0.008c2.017,0.171 2.535,2.442 1.628,3.45c-0.358,0.399 -0.482,0.485 -0.296,0.729c0.866,1.104 0.382,2.848 -0.473,3.116c-2.722,0.852 -3.134,-0.647 -3.126,-2.411l-4.203,-0.159l0.027,-2.465l4.634,0.093c-0.349,-1.119 0.32,-2.313 1.555,-2.36l0,-0.001Zm-93.664,0.028c0.017,-0.002 0.034,-0.002 0.049,0c0.436,0.037 -0.013,1.209 -1.228,2.996c-0.821,1.208 -1.963,3.338 -2.305,4.197c-0.748,1.882 -1.252,5.256 -0.751,4.636c0.453,-1.41 0.497,-1.998 0.886,-3.012c0.512,-1.322 2.902,-5.668 3.375,-6.096c0.405,-0.367 0.51,-0.142 0.501,1.081c-0.021,2.754 -1.317,5.651 -4.408,9.043c-0.515,0.565 -1.202,1.182 -1.251,1.182c-0.297,-0.002 -0.289,-0.625 -0.284,-1.934c0.02,-5.202 1.937,-9.847 4.888,-11.845c0.231,-0.157 0.405,-0.238 0.527,-0.248l0.001,0Zm3.129,0.24c1.356,0.4 3.789,2.591 4.792,3.717c1.162,1.262 2.718,4.757 2.444,5.295c-0.091,0.235 -0.287,0.198 -0.966,-0.186c-4.314,-2.446 -7.403,-5.46 -6.593,-6.435c0.226,-0.272 1.153,0.29 2.394,1.45c0.843,0.754 1.707,1.518 2.479,2.283c1.212,1.202 1.485,1.379 0.754,0.043c-0.656,-1.2 -2.516,-3.214 -4.765,-4.923c-0.915,-0.695 -1.122,-1.255 -0.539,-1.244l0,0Zm90.801,0.701c-0.058,0.002 -0.11,0.011 -0.15,0.028c-0.849,0.36 -0.504,1.467 -0.585,2.317l-4.666,-0.162l-0.027,0.651l4.377,0.24c0.077,0.665 -0.267,2.099 0.296,2.341c1.225,0.513 1.894,-1.076 0.854,-2.031c-0.37,-0.331 -0.771,-0.478 0.258,-0.946c0.678,-0.583 0.784,-1.722 0.204,-2.228c-0.16,-0.14 -0.389,-0.212 -0.562,-0.209l0.001,-0.001Zm-59.023,0.194l-0.234,1.741l-2.706,0.686l-0.069,-1.861l3.009,-0.566Zm31.913,0.617c9.99,2.709 21.095,8.861 28.307,15.81l-1.444,0.953c-7.493,-6.969 -17.377,-12.26 -26.458,-14.887l-0.405,-1.876Zm-17.213,0.267c16.451,-0.046 31.448,6.394 43.549,16.795l-1.978,1.255c-11.039,-9.188 -23.269,-15.316 -39.723,-16.046c-10.755,-0.478 -23.028,2.299 -35.124,9l-0.9,-1.647c11.747,-6.451 23.28,-9.327 34.176,-9.357Zm-1.293,2.496l6.47,0.19l-0.4,6.05l-5.882,-0.193l-0.188,-6.047Zm-6.959,0.43l0.912,5.838l-5.631,1.058l-1.598,-5.853l6.317,-1.043Zm20.481,0.772l6.428,1.724l-2.121,5.95l-5.643,-1.62l1.336,-6.054Zm-10.297,0.085c-1.02,0 -1.847,0.833 -1.847,1.86c0,1.028 0.827,1.861 1.847,1.861c1.021,0 1.848,-0.833 1.848,-1.861c0,-1.027 -0.827,-1.86 -1.848,-1.86Zm0,0.643c0.681,0 1.232,0.544 1.232,1.217c0,0.674 -0.551,1.221 -1.232,1.221c-0.68,0 -1.232,-0.547 -1.231,-1.221c0,-0.673 0.551,-1.217 1.231,-1.217Zm-12.763,0.012c-1.021,0 -1.848,0.833 -1.848,1.86c0,1.028 0.827,1.861 1.848,1.861c1.02,0 1.847,-0.833 1.847,-1.861c0,-1.027 -0.827,-1.86 -1.847,-1.86Zm0,0.643c0.68,0 1.231,0.544 1.231,1.217c0,0.674 -0.551,1.221 -1.231,1.221c-0.681,0 -1.232,-0.547 -1.232,-1.221c0,-0.673 0.551,-1.217 1.232,-1.217Zm25.446,0.748c-1.02,0 -1.847,0.833 -1.847,1.861c0,1.027 0.827,1.86 1.847,1.86c1.021,0 1.848,-0.833 1.848,-1.86c0,-1.028 -0.827,-1.86 -1.848,-1.861Zm-35.82,0.218l1.906,5.693l-5.455,2.225l-2.044,-5.624l5.593,-2.294Zm35.82,0.426c0.681,0 1.232,0.543 1.232,1.217c0,0.674 -0.551,1.221 -1.232,1.221c-0.68,0 -1.231,-0.547 -1.231,-1.221c0,-0.674 0.551,-1.217 1.231,-1.217Zm10.685,1.364l5.786,3.078l-2.991,5.442l-5.393,-2.83l2.598,-5.69Zm-48.437,0.492c-1.02,0 -1.848,0.833 -1.848,1.861c0,1.027 0.828,1.86 1.848,1.86c1.02,0 1.848,-0.833 1.848,-1.86c0,-1.028 -0.828,-1.861 -1.848,-1.861Zm21.855,0.179l0.27,5.748l-5.123,0.364l-0.932,-5.713l5.785,-0.399Zm6.147,0.302l5.839,0.814l-1.374,5.535l-5.285,-0.857l0.82,-5.492l0,0Zm-28.002,0.163c0.68,0 1.232,0.543 1.232,1.217c0,0.673 -0.552,1.221 -1.232,1.221c-0.68,0 -1.232,-0.548 -1.232,-1.221c0,-0.674 0.552,-1.217 1.232,-1.217Zm19.13,0.744c-1.02,0 -1.847,0.833 -1.847,1.86c0,1.028 0.827,1.861 1.847,1.861c1.021,0 1.848,-0.833 1.848,-1.861c0,-1.027 -0.827,-1.86 -1.848,-1.86Zm-9.33,0.233l1.513,5.593l-5.632,1.624l-1.728,-5.38l5.847,-1.837Zm20.443,0.089c-1.021,0 -1.848,0.833 -1.848,1.86c0,1.028 0.827,1.861 1.848,1.861c1.02,0 1.847,-0.833 1.847,-1.861c0,-1.027 -0.827,-1.86 -1.847,-1.86Zm-11.113,0.321c0.68,0 1.232,0.544 1.232,1.217c0,0.674 -0.552,1.221 -1.232,1.221c-0.68,0 -1.232,-0.547 -1.232,-1.221c0,-0.673 0.552,-1.217 1.232,-1.217Zm11.113,0.322c0.68,0 1.231,0.544 1.231,1.217c0,0.674 -0.551,1.221 -1.231,1.221c-0.681,0 -1.232,-0.547 -1.232,-1.221c0,-0.673 0.551,-1.217 1.232,-1.217Zm19.761,0.012c-1.021,0 -1.848,0.833 -1.848,1.86c0,1.028 0.827,1.861 1.848,1.861c1.02,0 1.847,-0.833 1.848,-1.861c0,-1.027 -0.828,-1.86 -1.848,-1.86Zm-9.996,0.542l5.643,1.942l-2.252,5.31l-5.4,-2.069l2.009,-5.183Zm9.996,0.101c0.68,0 1.232,0.544 1.232,1.217c0,0.674 -0.552,1.221 -1.232,1.221c-0.68,0 -1.232,-0.547 -1.232,-1.221c0,-0.673 0.552,-1.217 1.232,-1.217Zm-42.448,0.198c-1.021,0 -1.847,0.833 -1.848,1.86c0,1.028 0.827,1.861 1.848,1.861c1.02,0 1.847,-0.833 1.847,-1.861c0,-1.027 -0.826,-1.86 -1.847,-1.86Zm0,0.643c0.68,0 1.232,0.544 1.232,1.217c-0.001,0.674 -0.552,1.221 -1.232,1.221c-0.68,0 -1.232,-0.547 -1.232,-1.221c0,-0.673 0.552,-1.217 1.232,-1.217Zm34.188,1.086c-1.021,0 -1.848,0.832 -1.848,1.86c0,1.028 0.827,1.86 1.848,1.861c1.02,0 1.847,-0.833 1.847,-1.861c0,-1.028 -0.827,-1.86 -1.847,-1.86Zm0,0.643c0.68,0 1.232,0.543 1.232,1.217c0,0.674 -0.552,1.221 -1.232,1.221c-0.681,0 -1.232,-0.547 -1.232,-1.221c0,-0.674 0.551,-1.217 1.232,-1.217Zm-66.097,0.647c1.476,0.063 2.584,1.398 2.651,2.788c0.051,1.056 -1.287,2.439 -1.287,2.439l-1.557,-1.452l-1.495,1.387c-0.252,0.085 -1.414,-1.904 -1.059,-2.933c0.462,-1.339 1.413,-2.285 2.747,-2.229Zm83.895,0l4.469,3.682c0,0 -1.962,1.201 -2.325,1.415c0.044,-0.16 0.066,-0.329 0.066,-0.504c0,-1.027 -0.827,-1.86 -1.848,-1.86c-1.02,0 -1.847,0.833 -1.847,1.86c0,0.881 0.611,1.622 1.428,1.814c-0.46,0.266 -1.07,0.609 -1.07,0.609l-2.36,-1.992l3.487,-5.024Zm-7.075,9.841l-1.977,0.817c-12.169,-8.048 -28.816,-12.453 -47.845,-4.348l-0.655,-1.589c14.127,-5.924 31.951,-7.768 50.477,5.12Zm-1.081,-8.042l4.788,2.957l-3.041,4.702l-4.676,-3.012l2.929,-4.647Zm-1.447,9.116l-2.01,0.76c-14.853,-9.61 -30.685,-9.098 -44.83,-3.338l-0.219,-1.349c16.657,-7.262 33.373,-4.951 47.059,3.927Zm9.965,-7.539c0.68,0 1.232,0.544 1.232,1.217c0,0.674 -0.552,1.221 -1.232,1.221c-0.68,0 -1.232,-0.547 -1.232,-1.221c0,-0.673 0.552,-1.217 1.232,-1.217Zm-86.425,2.204l-1.652,1.678l1.508,1.707c0,0 -0.479,0.407 -0.825,0.597c-1.977,1.084 -4.14,-0.627 -4.036,-2.475c0.15,-2.693 3.372,-3.976 5.005,-1.507Zm78.596,-1.285c-1.021,0 -1.848,0.833 -1.848,1.86c0,1.028 0.827,1.861 1.848,1.861c1.02,0 1.847,-0.833 1.847,-1.861c0,-1.027 -0.827,-1.86 -1.847,-1.86Zm-71.911,0.075c1.471,0.012 2.613,1.149 2.754,2.456c0.112,1.043 -0.426,2.044 -1.587,2.753c-1.575,0.962 -3.405,-0.596 -3.373,-0.691l1.328,-1.322l-1.597,-1.645c-0.047,-0.031 1.053,-1.561 2.475,-1.551Zm-4.598,0.32l2.721,2.733l-2.879,2.701l-2.667,-2.697l2.825,-2.737Zm71.767,7.272l-1.528,0.705l-2.083,-1.264l-0.616,1.19l1.159,0.741l-1.205,0.454c-13.878,-7.851 -29.559,-5.576 -39.983,-0.366c0,0 0.09,-0.808 0.096,-0.808l1.134,-0.583l-0.423,-1.445l-0.608,0.178l-0.047,-1.601c14.884,-6.748 31.772,-5.203 44.103,2.799l0.001,0Zm4.742,-7.024c0.68,0 1.232,0.544 1.231,1.217c0,0.674 -0.551,1.221 -1.231,1.221c-0.68,0 -1.232,-0.547 -1.232,-1.221c0,-0.673 0.552,-1.217 1.232,-1.217Zm-76.567,0.977l-1.451,1.454l1.443,1.55l1.409,-1.5l-1.401,-1.504Zm45.427,0.322l-1.901,0.085l0.1,1.562l1.855,-0.047l-0.054,-1.6Zm1.298,0.008l0.034,1.562l1.724,-0.008l-0.008,-1.543l-1.751,-0.012l0.001,0.001Zm3.06,0.027l-0.085,1.554l1.713,0.078l0.123,-1.547l-1.751,-0.085Zm-7.391,0.198l-1.947,0.213l0.215,1.57l1.844,-0.218l-0.112,-1.565Zm10.582,0.023l-0.139,1.604l1.759,0.202l0.239,-1.535l-1.859,-0.271Zm-52.968,0.008l0.847,0.907l-0.843,0.845l-0.897,-0.884l0.893,-0.868Zm39.103,0.477l-1.878,0.298l0.2,1.616l1.832,-0.364l-0.154,-1.55Zm17.04,0l-0.312,1.496l1.748,0.422l0.285,-1.527l-1.721,-0.391Zm-20.119,0.655l-1.578,0.422l0.342,1.574l1.667,-0.411l-0.431,-1.585Zm23.117,0.062l-0.33,1.519l1.782,0.488l0.358,-1.457l-1.81,-0.55Zm-25.723,0.755l-1.651,0.59l0.427,1.457l1.678,-0.57l-0.454,-1.477Zm28.791,0.167l-0.55,1.461l1.543,0.624l0.682,-1.325l-1.675,-0.76Zm-31.516,0.857l-1.567,0.647l0.647,1.446l1.486,-0.682l-0.566,-1.411Zm-32.291,0.045l1.586,1.594l1.884,-1.711c1.645,1.463 1.618,4.887 -1.292,5.459c-2.542,0.499 -4.867,-3.332 -2.178,-5.342Zm66.636,0.307l-0.604,1.341l1.705,0.756l0.589,-1.29l-1.69,-0.807Zm-48.637,8.605l21.516,36.826l-3.402,-0.066l-20.824,-35.586l2.71,-1.174Zm-3.532,1.403l1.19,1.861c-2.33,-1.868 -5.755,-0.296 -5.61,2.058c0.114,1.051 0.996,1.69 1,0.678c-0.106,-1.058 1.383,-1.98 2.464,-1.93c1.994,0.026 3.212,2.606 1.836,3.891c-0.905,0.84 -2.13,0.802 -1.717,-0.349c0.065,-0.396 0.033,-0.542 -0.154,-0.713c-0.572,-0.525 -1.627,0.159 -1.37,0.911c0.169,0.494 0.218,0.616 -0.37,1.023c-2.281,1.614 -0.691,4.794 2.071,3.345c0.565,-0.205 0.794,-0.235 1.051,-0.135c1.15,0.445 1.933,-0.56 0.843,-1.082c-0.633,-0.303 -0.649,-0.821 -0.039,-1.232c1.305,-0.878 3.337,0.494 3.33,2.248c-0.008,1.241 -1.632,2.159 -3.191,1.798c-0.927,-0.214 -1.038,0.418 -0.189,1.074c1.646,1.271 4.111,0.217 4.846,-2.07c0.232,-0.719 0.198,-0.87 0.198,-0.87l2.196,3.65c0,0 -0.681,-0.324 -1.093,-0.45c-2.067,-0.636 -4.384,0.714 -4.391,2.558c0,0.868 0.506,1.205 0.792,0.523c0.666,-1.586 2.114,-2.204 3.599,-1.535c1.375,0.619 2.004,2.021 1.467,3.271c-0.562,1.31 -2.449,1.696 -2.236,0.458c0.101,-0.59 -0.256,-0.951 -0.886,-0.892c-0.238,0.023 -0.544,0.72 -0.462,1.055c0.077,0.313 0.022,0.389 -0.785,1.023c-1.918,1.506 -0.443,3.964 1.952,3.252c0.402,-0.12 0.552,-0.109 0.912,0.066c0.866,0.42 1.775,0.158 1.778,-0.512c0,-0.461 -0.205,-0.637 -0.746,-0.64c-0.821,-0.003 -0.644,-0.938 0.265,-1.395c2.278,-1.146 4.605,1.748 3.218,4.004c-0.596,0.969 -0.973,1.069 -3.102,0.833c-0.344,-0.038 -0.499,0.199 -0.295,0.481c0.63,0.899 2.505,1.184 3.597,0.686c1.178,-0.537 1.896,-1.893 1.979,-3.339l2.408,4.233c-1.873,-1.971 -5.104,-1.217 -5.622,1.606c0,0.716 0.645,1.088 0.869,0.5c0.974,-2.548 4.676,-1.767 4.666,0.984c0,0.443 -0.089,0.694 -0.37,1.082c-0.68,1.319 -2.416,1.645 -2.102,0.461c0.14,-0.366 -0.138,-0.764 -0.615,-0.88c-0.471,-0.113 -0.77,0.283 -0.759,1.004c0.009,0.54 0.013,0.705 0.013,0.705c-0.866,0.367 -1.419,1.087 -1.611,2.152l-16.854,0.038c2.004,-11.762 1.533,-22.385 -2.298,-32.43c-0.331,-0.871 -0.806,-2.137 -0.806,-2.137l2.974,0.079c0.718,0.627 3.43,0.383 4.489,-0.585l1.67,-0.415Zm2.861,4.619l1.741,3.149c-0.721,-0.416 -1.454,-0.692 -2.575,-0.787c0.585,-0.874 0.632,-1.658 0.834,-2.362Zm-4.576,3.346c0.635,0 1.148,0.517 1.148,1.155c0,0.639 -0.513,1.155 -1.148,1.155c-0.634,0 -1.15,-0.516 -1.15,-1.155c0,-0.638 0.516,-1.155 1.15,-1.155Zm12.002,9.406l1.676,3.005c-0.815,-0.35 -1.504,-0.692 -2.779,-0.725c0.464,-0.546 0.865,-1.462 1.103,-2.28Zm-4.834,3.218c0.601,0 1.089,0.492 1.089,1.097c0,0.606 -0.488,1.093 -1.089,1.093c-0.602,0 -1.086,-0.487 -1.086,-1.093c0,-0.605 0.484,-1.097 1.086,-1.097Zm12.146,9.366l2.475,4.421c-0.973,-0.561 -2.021,-1.273 -3.336,-1.136c0.625,-1.346 0.967,-2.081 0.861,-3.285Zm-3.293,5.516l-2.655,0.009c0.531,-2.337 2.677,-1.73 2.655,-0.009Zm2.512,-1.127c0.903,0.046 1.682,0.357 2.17,1.15l-3.341,0.008c0,0 0.023,-1.162 1.171,-1.158l0,0Z" style="fill-rule:nonzero;"/><path id="path163-0-2-5-8-7-5-8-8-7" d="M47.722,64.451c0,0 -3.721,-6.112 -8.74,-13.298c-3.358,-4.809 -6.042,-10.016 -6.292,-14.502c-0.286,-5.123 2.423,-10.263 7.329,-10.513c4.903,-0.249 6.893,3.951 7.703,7.413c0.81,-3.462 2.8,-7.662 7.703,-7.413c4.906,0.25 7.615,5.39 7.329,10.513c-0.25,4.486 -2.934,9.693 -6.292,14.502c-5.019,7.186 -8.74,13.298 -8.74,13.298Z" style="fill:#d40000;fill-rule:nonzero;"/><path id="path163-0-2-5-8-7-7-8-4-8-6" d="M130.278,184.549c0,0 -3.721,6.112 -8.74,13.298c-3.358,4.809 -6.042,10.016 -6.292,14.502c-0.286,5.123 2.423,10.263 7.329,10.513c4.903,0.248 6.893,-3.951 7.703,-7.413c0.81,3.462 2.8,7.661 7.703,7.413c4.906,-0.25 7.615,-5.39 7.329,-10.513c-0.25,-4.486 -2.934,-9.693 -6.292,-14.502c-5.019,-7.186 -8.74,-13.298 -8.74,-13.298Z" style="fill:#d40000;fill-rule:nonzero;"/></g></g></svg>