<?xml version="1.0" encoding="UTF-8" standalone="no"?>
<!DOCTYPE svg PUBLIC "-//W3C//DTD SVG 1.1//EN" "http://www.w3.org/Graphics/SVG/1.1/DTD/svg11.dtd">
<svg width="100%" height="100%" viewBox="0 0 182 253" version="1.1" xmlns="http://www.w3.org/2000/svg" xmlns:xlink="http://www.w3.org/1999/xlink" xml:space="preserve" xmlns:serif="http://www.serif.com/" style="fill-rule:evenodd;clip-rule:evenodd;">
    <g transform="matrix(1,0,0,1,-2362,-878)">
        <g transform="matrix(1,0,0,1,-328,1179.11)">
            <g id="queen_diamonds" transform="matrix(0.995535,0,0,0.996803,8.44864,-274.482)">
                <path id="rect7166-7" d="M2874.19,-15.786C2874.19,-20.516 2870.35,-24.356 2865.61,-24.356L2704.19,-24.356C2699.45,-24.356 2695.61,-20.516 2695.61,-15.786L2695.61,216.523C2695.61,221.253 2699.45,225.093 2704.19,225.093L2865.61,225.093C2870.35,225.093 2874.19,221.253 2874.19,216.523L2874.19,-15.786Z" style="fill:white;stroke:black;stroke-width:0.8px;"/>
                <path id="path6307-8" d="M2807.97,-3.322C2807.97,-3.322 2828.25,26.068 2835.13,31.284C2835.64,31.522 2844.12,29.898 2844.12,29.898C2839.77,19.466 2836.97,8.673 2839.8,-3.427L2807.97,-3.322ZM2819.24,43.159C2805.26,47.116 2791.3,50.836 2776.14,44.387L2759.59,60.421C2759.45,60.834 2779.58,69.555 2779.92,68.535C2770.05,95.168 2785.44,100.004 2795.24,70.707C2808.07,69.023 2823.46,67.279 2836.18,58.428C2825.17,51.795 2819.23,43.08 2819.24,43.159ZM2735.14,47.901C2729.84,44.64 2725.69,51.35 2729.57,54.701C2729.12,56.658 2728.96,59.571 2730.85,60.851C2732.59,61.951 2735.83,60.81 2736.29,60.822C2736.33,60.823 2736.38,64.345 2736.11,64.336C2735.6,64.319 2733.71,62.701 2732.54,62.35C2728.59,61.163 2723.03,60.577 2723.13,60.781C2723.3,61.124 2722.15,61.936 2726.56,64.71C2728.19,65.741 2733.37,64.58 2737.49,65.883C2740,66.677 2742.25,67.943 2743.61,67.286C2747.21,66.301 2748.61,61.594 2748.37,61.629C2748.25,61.487 2737.5,64.401 2738.51,64.912L2738.48,60.826C2742.72,61.293 2746.54,58.214 2742.38,52.934C2745.48,49.843 2741.14,42.475 2735.14,47.901L2735.14,47.901ZM2752.79,66.591C2742.37,77.126 2721.06,96.897 2721.06,96.897L2721.29,111.653L2742.11,130.328C2743.76,110.503 2754.99,92.001 2765.69,82.745C2766.68,79.931 2755.06,67.579 2752.79,66.591ZM2827.07,70.236C2825.5,82.425 2824.07,99.049 2803.44,117.526C2807.02,123.629 2811.57,129.841 2818.12,132.805C2818.58,133.854 2837.04,113.654 2848.4,104.104L2848.34,91.168L2827.07,70.236ZM2734.1,72.852C2734.05,73.118 2733.29,76.32 2733.1,76.235C2733.11,76.409 2735.21,75.454 2735.45,74.576C2735.65,73.806 2736.13,72.763 2736.17,72.616C2735.69,69.32 2734.8,71.661 2734.1,72.852ZM2726.37,81.374C2725.62,83.188 2724.92,86.521 2725.18,88.69C2728.88,90.543 2729.88,82.834 2728.89,82.097C2728.29,81.845 2726.88,81.356 2726.37,81.374ZM2840.43,116.72C2840.09,118.257 2840.16,118.714 2840.85,119.014C2842.04,119.539 2842.58,118.904 2843.54,116.401C2844.11,114.91 2844.62,112.668 2844.16,111.776C2841.89,110.192 2840.7,115.559 2840.43,116.72ZM2775.84,129.656C2760.68,132.063 2745.51,133.549 2733.48,142.962C2734.83,142.803 2749.42,156.538 2750.18,158.469C2772.47,147.551 2794.13,155.798 2794.13,155.798L2810.45,140.034C2811.08,139.735 2792.7,132.147 2789.24,130.868C2801.75,97.099 2781.93,102.174 2775.84,129.656ZM2835.51,125.801C2834.52,126.602 2834.02,127.328 2833.25,128.367L2834.03,129.629L2836.02,127.424L2835.51,125.801ZM2821.23,140.009C2823.33,139.059 2830.79,135.434 2831.11,136.272L2830.95,139.9C2829.81,139.526 2822.45,140.746 2826.71,148.366C2824.02,154.42 2830,157.542 2834.19,153.539C2842.96,156.557 2841.79,147.755 2839.98,146.333C2841.4,144.111 2839.61,139.38 2838.72,139.364C2838.72,139.364 2846.38,141.095 2845.63,139.728C2845.28,139.104 2844.86,138.029 2843.16,136.89C2841.19,135.577 2837.75,136.053 2834.96,135.469C2831.98,134.843 2830.06,133.774 2827.55,133.624C2823.77,133.969 2820.24,137.297 2821.23,140.009ZM2735.9,168.576L2725.35,171.403C2725.35,171.403 2728.76,179.342 2729.94,186.421C2731.39,195.08 2730.23,204.495 2730.23,204.495L2760.85,204.65L2735.9,168.576Z" style="fill:rgb(226,207,0);fill-rule:nonzero;"/>
                <path id="path6309-7" d="M2763.39,204.542C2749.96,185.319 2737.51,167.033 2720.98,146.879C2720.98,146.879 2720.99,139.09 2721.05,131.364L2771.83,204.353L2763.39,204.542ZM2790.59,173.504C2790.16,169.853 2789.42,165.484 2788.35,161.724L2797.62,152.961C2796.62,160.791 2795.09,166.799 2790.59,173.504ZM2834.9,145.885C2836.98,148.648 2833.47,150.181 2832.15,148.952C2829.47,146.459 2833.4,143.884 2834.9,145.885ZM2742.98,128.487C2741.44,129.475 2745.74,104.396 2757.55,91.435C2764.74,112.065 2752.06,123.631 2742.98,128.487ZM2801.25,128.394L2793.4,126.272L2797.1,115.274C2797.1,115.274 2804.67,117.004 2804.05,119.287C2802,126.722 2801.25,128.394 2801.25,128.394ZM2764.93,124.167C2767.06,120.666 2768.67,116.806 2770.15,112.856L2778.01,112.692L2774.06,123.592L2764.93,124.167ZM2812.21,108.733C2806.14,96.615 2813.29,77.434 2826.5,72.155C2826.03,84.444 2822.22,96.892 2812.21,108.733ZM2771.41,105.29C2771.67,100.986 2771.18,96.475 2770.59,92.478C2778.96,94.412 2788.09,95.706 2798.2,96.167L2799.16,107.77C2790.18,106.12 2781.05,104.943 2771.41,105.29ZM2791.46,87.611C2792.36,84.013 2793.5,80.492 2795.06,77.095L2804.63,76.648C2804.58,76.461 2800.55,83.03 2799.58,87.772C2798.06,87.61 2791.46,87.611 2791.46,87.611ZM2773.32,84.743C2770.53,83.755 2766.71,83.479 2765.23,81.314L2768.13,72.087L2776.73,74.733L2773.32,84.743ZM2797.47,-3.301L2804.21,-3.365C2804.21,-3.365 2836.6,38.188 2848.74,54.359C2848.34,56.005 2848.88,69.954 2848.88,69.954C2831.68,45.691 2797.47,-3.301 2797.47,-3.301ZM2735.34,54.678C2733.53,52.729 2736.41,51.001 2737.61,52.743C2738.66,54.277 2736.3,55.706 2735.34,54.678ZM2771.69,47.865C2771.8,38.236 2778.61,26.808 2778.54,27.1C2778.46,27.081 2779.51,36.513 2780.82,39.481C2780.46,40.004 2772.01,48.469 2771.69,47.865Z" style="fill:rgb(212,0,0);fill-rule:nonzero;"/>
                <path id="path6311-0" d="M2719.59,-4.894L2719.59,205.631L2850.21,205.631L2850.21,-4.894L2719.59,-4.894ZM2839.22,-3.294C2838.16,8.363 2837.97,17.377 2844.01,29.467C2842.92,30.613 2834.71,30.938 2832.12,32.294C2832.07,32.62 2832.78,33.183 2832.78,33.183C2835.49,31.924 2846.04,30.776 2846.04,30.776C2841.62,23.052 2837.99,8.099 2840.72,-3.294L2848.65,-3.294L2848.65,52.961C2848.65,52.961 2848.74,63.655 2848.97,69.759C2844.91,64.504 2839.68,57.307 2836.17,51.859C2831.91,45.849 2827.17,38.799 2822.3,32.185C2820.86,30.101 2818.81,27.398 2817.14,24.963C2814.52,21.204 2812.35,18.286 2809.63,14.239C2806.72,10.049 2803.93,6.246 2800.48,1.38C2797.55,-2.762 2797.42,-3.294 2797.42,-3.294L2839.22,-3.294ZM2789.19,-3.294C2794.13,5.309 2802.97,8.319 2805.19,8.899L2806.48,10.793C2796.06,8.746 2790.48,2.039 2787.86,-2.109C2787.66,-2.432 2787.68,-3.294 2787.68,-3.294L2789.19,-3.294ZM2784.3,-3.294C2782.93,-0.046 2781.02,1.918 2779.21,3.885L2779.27,1.796C2779.33,1.927 2781.99,-1.126 2782.9,-3.294L2784.3,-3.294ZM2786.69,-3.294C2786.69,-3.294 2786.73,-2.643 2786.57,-2.187C2785.52,1.201 2779.02,7.63 2779.21,6.667L2779.14,5.008C2779.11,5.08 2784.02,0.225 2785.31,-3.294L2786.69,-3.294ZM2781.97,-3.294C2781.46,-2.349 2779.57,0.604 2779.4,-0.187L2779.57,-3.294L2781.97,-3.294ZM2796.81,-3.294C2797.63,-2.106 2798.37,-1.141 2799.23,0.074C2799.39,0.306 2799.49,0.58 2799.45,0.684C2799.32,1.021 2798.93,0.771 2797.86,-0.185C2796.09,-1.753 2794.89,-3.294 2794.89,-3.294L2796.81,-3.294ZM2790.24,-3.294L2791.84,-3.294C2795.14,2.208 2801.07,5.237 2803.12,5.877C2803.67,6.482 2804.26,7.589 2804.49,7.833C2798.95,6.331 2792.75,1.543 2790.24,-3.294ZM2794.12,-3.294C2795.88,-0.748 2798.64,1.111 2800.19,2.329C2801.03,2.986 2802.13,4.326 2802.03,4.592C2798.57,3.496 2794.52,-0.445 2792.66,-3.294L2794.12,-3.294ZM2787.34,-1.645L2788.3,-0.111C2785.97,3.741 2783.05,7.211 2779.15,9.946L2779.13,7.934C2783.55,4.742 2785.46,1.533 2787.34,-1.645L2787.34,-1.645ZM2788.9,0.579C2791.67,4.33 2797.66,10.137 2807.26,11.872C2807.26,11.872 2807.81,12.365 2808.6,13.451C2809.61,14.828 2809.63,14.883 2809.76,17.14C2809.85,21.27 2811.19,26.876 2812.52,30.403C2812.36,31.28 2812.2,31.726 2810.55,33.959C2803.68,43.265 2789.04,52.066 2781.83,40.053C2779.42,36.205 2779.18,28.826 2779.03,24.226C2779.03,24.226 2779.08,23.902 2779.1,23.814C2779.27,22.979 2779.51,23.111 2780.81,23.468C2782.13,24.036 2783.5,23.578 2784.9,23.197C2786.49,22.553 2786.62,23.049 2785.09,24.484C2784.56,24.981 2783.91,25.739 2783.98,25.703C2784.05,25.666 2784.94,25.301 2785.33,25C2786.56,24.065 2786.85,24.423 2786.39,25.452C2784.47,29.82 2784.13,29.994 2786.84,31.207C2787.4,31.459 2787.79,31.742 2788.1,32.019C2789.96,33.768 2789.29,32.826 2788.77,32.023C2787.98,30.766 2788.7,30.102 2790.04,30.88C2790.94,31.4 2792.12,31.82 2792.77,31.621C2794.01,31.214 2794.39,29.844 2794.03,28.337C2793.73,27.504 2792.03,26.031 2792.42,27.572C2793.44,27.526 2794.33,28.982 2793.44,29.968C2792.76,30.876 2791.57,30.386 2789.73,29.168C2788.72,28.403 2787.48,28.794 2787.53,29.735C2787.56,30.367 2786.67,30.221 2786.09,29.417C2785.77,28.97 2785.99,27.683 2786.59,26.464C2790.4,18.788 2787.19,11.345 2780.59,13.443C2779.87,13.674 2779.21,13.861 2779.21,13.861L2779.18,10.925C2782.97,8.279 2786.98,4.06 2788.9,0.579L2788.9,0.579ZM2792.75,14.36C2791.75,15.563 2792.11,16.634 2794.29,15.555C2796.07,14.677 2796.31,14.573 2798.25,14.503C2801,14.404 2803.47,15.281 2806.52,17.159C2808.55,18.404 2808.84,18.498 2808.29,17.718C2806.66,14.581 2796.99,9.818 2792.75,14.36ZM2783.41,14.719C2785.32,15.201 2787.15,16.465 2786.83,16.988C2786.71,17.177 2786.6,17.212 2786.36,17.085C2784.96,16.394 2782.74,15.263 2779.52,16.643C2779.17,16.795 2778.97,16.559 2778.97,16.13C2778.97,15.298 2780.37,14.633 2781.85,14.579C2782.37,14.579 2782.95,14.606 2783.41,14.719ZM2794.5,17.152C2793.36,17.745 2792.97,18.061 2792.48,17.796C2791.33,17.163 2791.57,17.659 2792.29,18.933C2792.8,19.832 2792.79,20.017 2792.72,20.568C2792.64,21.167 2792.65,21.19 2793.23,21.83C2794.31,23.26 2795.39,24.64 2797.02,25.725C2797.53,26.064 2798.2,26.449 2798.26,26.45C2798.42,26.455 2798.36,26.326 2798.07,26.043C2795.98,24.035 2794.34,22.235 2796.46,23C2798.93,23.807 2801.28,22.801 2803.2,22.145C2803.99,21.902 2804.81,21.698 2805.02,21.698C2806.8,21.7 2807.22,20.958 2806.08,19.826C2802.23,15.502 2799.04,14.485 2794.5,17.152ZM2803.62,17.963C2804.42,18.699 2804.84,19.099 2804.76,19.291C2804.67,19.496 2804.06,19.148 2803.03,18.599C2800.97,17.496 2798.63,17.237 2795.71,18.083C2793.44,18.74 2794.11,17.697 2796.64,16.716C2798.66,15.78 2801.45,16.06 2803.62,17.963ZM2782.43,16.473C2784.16,16.445 2785.97,17.016 2787.17,18.06C2788.02,18.788 2787.4,18.957 2786.03,18.39C2783.96,17.531 2782.22,17.394 2780.52,18.192C2779.98,18.442 2779.37,18.74 2779.2,18.724C2778.91,18.531 2778.79,17.971 2779.04,17.574C2779.72,16.902 2781.08,16.495 2782.43,16.473ZM2811.01,17.07C2811.13,17.075 2811.32,17.278 2811.61,17.679C2812.13,18.409 2812.15,18.77 2811.72,20.048C2811.19,21.608 2810.98,21.355 2810.85,19.178C2810.76,17.766 2810.76,17.059 2811.01,17.07ZM2812.72,19.423C2812.92,19.394 2813.15,19.744 2813.52,20.467C2813.78,20.972 2813.72,21.122 2812.91,23.484C2812.58,24.472 2812.26,25.259 2812.25,25.266C2812,25.462 2812.04,25.444 2811.93,25.309C2811.36,24.574 2811.4,23.14 2811.89,21.422C2812.27,20.12 2812.47,19.459 2812.72,19.423L2812.72,19.423ZM2797.1,19.601C2797.16,19.596 2797.55,19.68 2797.55,19.68C2797.51,23.178 2800.21,22.474 2800.56,19.989C2800.56,19.989 2801.23,19.921 2801.33,20.086C2801.65,20.607 2800.91,22.103 2799.8,22.593C2798.99,22.955 2797.89,22.867 2797.23,22.26C2797.04,21.917 2796.49,20.618 2796.59,20.079C2796.72,19.764 2796.91,19.617 2797.1,19.601ZM2795.49,20.01C2795.52,20.008 2795.55,20.008 2795.57,20.01C2795.84,20.023 2796.03,20.095 2796.14,20.417L2796.71,22.193C2796.29,22.703 2794.67,21.67 2794.68,20.895C2794.68,20.36 2795.08,20.03 2795.49,20.01ZM2784.52,20.006C2784.93,19.967 2785.07,20.012 2785.12,20.394C2785.26,21.548 2784.11,22.803 2782.61,22.871C2781.17,23.033 2780.39,21.909 2780.43,20.813C2780.43,19.979 2781.15,19.875 2781.23,20.534C2781.46,22.436 2783.08,22.545 2783.82,21.495C2784.1,21.083 2784.04,20.069 2784.52,20.006ZM2802.28,20.393C2802.39,20.388 2802.54,20.432 2802.77,20.51C2804.26,20.987 2804.3,21.218 2803.03,21.678C2801.51,22.228 2801.41,22.3 2801.76,21.236C2801.96,20.642 2802.02,20.404 2802.28,20.393ZM2786.47,20.561C2787.57,20.63 2787.67,21.567 2786.69,21.88C2785.25,22.521 2784.76,22.479 2785.32,21.534C2785.62,20.865 2785.89,20.574 2786.47,20.561ZM2779.55,20.898C2779.68,20.897 2779.84,20.948 2780,21.069C2780.16,21.572 2780.45,21.958 2780.67,22.478C2780.44,22.704 2779.9,22.701 2779.55,22.426C2778.86,21.876 2778.98,20.904 2779.55,20.898L2779.55,20.898ZM2814.31,21.981C2814.74,21.984 2815.17,22.666 2815.32,23.174C2813.82,25.105 2814.05,28.712 2813.7,29.801C2813.4,30.687 2813.3,29.922 2812.47,27.627C2812.13,26.701 2813.83,22.095 2814.22,21.993C2814.25,21.986 2814.28,21.981 2814.31,21.981L2814.31,21.981ZM2815.84,23.961C2816.18,24.153 2816.63,24.591 2816.71,25.282C2816.76,25.682 2816.56,26.215 2816.43,26.741C2816.13,27.994 2815.72,30.36 2815.57,32.546C2815.51,33.476 2815.51,34.313 2815.47,34.394C2815.02,35.281 2814.07,32.896 2814.15,30.997C2814.45,29.48 2814.61,24.17 2815.84,23.961ZM2817.96,26.687C2818.17,26.982 2818.31,27.208 2818.37,27.463C2818.49,27.905 2818.39,28.434 2818.13,29.56C2817.44,32.546 2817.54,35.765 2817.99,39.069C2818.09,39.764 2817.61,39.416 2816.88,38.219C2816.47,37.555 2816.21,36.645 2816.09,35.571C2815.84,33.222 2816.33,30.038 2816.74,27.526C2816.93,26.415 2817.05,25.435 2817.96,26.687ZM2819.1,28.504L2820.31,29.96C2820.31,29.96 2819.79,33.308 2819.8,35.093C2819.71,35.762 2820.39,43.035 2820.62,43.623C2819.88,42.792 2819.53,42.303 2818.72,41.259C2818.63,41.274 2817.93,34.093 2818.41,31.346C2818.7,29.685 2819.1,28.504 2819.1,28.504ZM2820.99,31.397C2821.2,31.389 2821.45,31.618 2821.78,32.072C2822.07,32.483 2822.21,32.82 2822.22,33.33C2822.24,33.703 2822.05,33.99 2822.05,34.654C2822.01,38.611 2822.55,42.345 2823.22,45.944C2823.45,47.232 2822.99,46.707 2822.23,45.892C2821.53,45.146 2821.52,44.862 2821.15,43.802C2821.07,43.59 2820.33,36.294 2820.34,35.743C2820.36,33.475 2820.43,32.213 2820.69,31.669C2820.77,31.491 2820.87,31.401 2820.99,31.397L2820.99,31.397ZM2816.62,39.347C2816.62,39.347 2815.21,40.07 2814.85,39.816C2814.25,38.197 2812.12,33.864 2812.08,33.096C2812.12,32.844 2812.96,31.704 2812.96,31.704C2814.14,34.271 2815.2,36.898 2816.62,39.347ZM2790.22,34.142C2789.8,34.64 2789.3,34.432 2788.28,33.983C2787.76,33.822 2787.84,34.038 2786.97,34.488C2786.3,34.836 2786.07,34.845 2785.62,34.842C2785.04,34.837 2784.83,34.631 2784.83,35.044C2784.83,35.272 2784.79,36.303 2784.65,36.836C2784.46,37.562 2784.3,37.882 2784.4,38.008C2784.7,38.282 2784.95,38.115 2785.58,37.507C2786.62,36.499 2787.32,36.788 2788.48,37.163C2789.8,37.589 2790.07,37.746 2791.28,37.324C2792.99,36.725 2794.02,36.724 2794.7,37.159C2795.87,37.908 2796.23,37.863 2795.74,35.816C2795.59,35.156 2795.58,34.133 2795.48,33.956C2795.37,33.755 2795.07,34.327 2794.76,34.538C2794.16,34.94 2793.86,34.933 2792.51,34.491C2791.71,34.23 2790.82,33.374 2790.22,34.142ZM2811.86,34.409C2812.38,35.638 2814.45,39.747 2814.39,40.206C2813.98,40.57 2813.44,40.834 2813.12,40.51C2812.09,38.615 2811.78,37.593 2810.93,35.467C2810.68,34.958 2811.44,33.663 2811.86,34.409ZM2822.99,34.258C2823.13,34.237 2823.44,34.543 2823.67,34.849C2824.38,35.8 2824.42,35.918 2824.44,36.937C2824.52,40.634 2824.99,44.986 2826.03,48.341C2826.23,49.001 2826.62,49.804 2826.58,49.913C2826.23,50.423 2824.61,49.059 2824.12,46.986C2823.45,44.353 2823.06,41.606 2822.84,39.818C2822.57,36.673 2822.57,34.422 2822.99,34.258ZM2810.56,36.297C2811.15,37.451 2811.9,39.441 2812.41,40.636C2812.64,41.155 2811.46,41.563 2811.19,41.387C2810.72,41.034 2810.49,40.041 2810.19,39.446C2809.2,37.287 2809.02,37.242 2809.57,36.569C2809.91,36.102 2810.31,35.529 2810.56,36.297ZM2825.32,37.621C2825.41,37.621 2825.52,37.705 2825.66,37.889C2826.29,38.626 2826.71,39.19 2826.87,39.737C2826.99,40.134 2826.9,40.431 2826.94,41.15C2827.05,43.033 2827.54,45.604 2828.94,50.865C2829.08,51.378 2829.26,51.985 2829.24,52.15C2829.1,53.116 2827.69,51.55 2827.28,49.933C2826.8,48.097 2825.93,45.752 2825.68,43.585C2825.15,40.144 2824.86,37.62 2825.32,37.621L2825.32,37.621ZM2809.31,39.012C2810.49,41.761 2810.58,41.756 2809.84,41.973C2809.06,42.203 2809.01,42.128 2808.09,40.256C2807.42,38.89 2807.29,38.719 2807.85,38.226C2808.71,37.21 2808.94,38.179 2809.31,39.012ZM2792.95,38.356C2792.81,38.359 2792.42,38.658 2792.02,38.815C2791.05,39.2 2789.33,39.227 2788.28,38.909C2786.41,38.16 2786.94,39.133 2788.59,39.725C2789.86,40.156 2792.4,39.822 2792.79,39.024C2793.03,38.768 2793.12,38.353 2792.95,38.356ZM2807.1,39.802C2808.15,41.427 2808.47,42.076 2808.29,42.202C2808.12,42.37 2807.29,42.685 2806.95,42.517C2806.52,42.306 2806.15,41.303 2805.96,40.516C2806.09,40.132 2806.78,39.442 2807.1,39.802ZM2780.83,40.486C2781.3,40.488 2782.51,42.131 2782.27,42.428C2782.2,42.58 2781.74,42.435 2780.67,42.138C2780.32,42.007 2779.51,41.901 2779.76,41.382C2779.89,41.147 2780.64,40.485 2780.83,40.486ZM2805.98,42.738C2805.87,43.019 2805.08,43.085 2804.75,43.064C2804.46,42.462 2804.38,42.174 2804.3,41.775C2804.41,41.536 2804.95,40.916 2805.22,41.038C2805.38,41.181 2805.9,42.441 2805.98,42.738ZM2827.8,41.154C2827.97,41.16 2828.26,41.454 2828.69,42.07C2829.5,43.235 2829.39,43.151 2829.97,45.934C2830.64,49.09 2831.43,51.337 2832.23,54.561C2832.24,55.096 2832.02,54.954 2831.43,54.592C2830.46,54.001 2830.14,53.344 2829.84,51.633C2829.32,48.808 2828.22,46.193 2827.8,42.855C2827.58,41.751 2827.56,41.146 2827.8,41.154L2827.8,41.154ZM2803.41,42.282C2803.98,42.262 2803.9,43.145 2803.74,43.288C2803.32,43.653 2802.17,43.544 2801.97,43.565C2801.53,42.869 2803.03,42.305 2803.41,42.282ZM2830.71,45.285C2830.88,45.308 2831.33,45.947 2832.17,47.137C2832.98,48.281 2832.8,48.094 2833.29,49.976C2833.98,52.576 2835.12,54.451 2835.78,56.844C2835.78,57.118 2835.45,57.082 2835.13,56.953C2834.52,56.694 2833.97,56.258 2833.45,55.831C2833.09,55.445 2833.1,54.955 2832.04,51.327C2831.66,50.018 2831.57,49.677 2831.09,47.689C2830.69,46.026 2830.52,45.259 2830.71,45.285ZM2742.72,53.054C2745.48,58.144 2744.46,60.401 2738.53,61.106C2738.1,61.045 2738.5,63.713 2738.49,64.906C2741.47,63.2 2745.06,62.802 2748.38,61.732C2747.47,64.628 2745.89,67.91 2741.09,67.405C2736.08,63.521 2730.18,65.854 2726.17,64.278C2723.99,63.464 2723.16,61.039 2723.14,60.623C2725.75,60.886 2728.7,61.446 2731.23,61.263C2728.46,59.128 2729.27,56.173 2729.66,54.822C2726.43,50.733 2729.13,46.134 2733.83,47.203C2734.31,47.314 2735.27,47.787 2735.27,47.787C2739.8,43.72 2745.06,47.541 2742.72,53.054L2742.72,53.054ZM2834.43,50.577C2834.62,50.559 2835.03,51.051 2835.86,52.216C2838.33,55.672 2840.46,58.888 2840.43,59.069C2840.32,59.664 2837.75,58.621 2837.11,57.768C2836.37,56.797 2834.29,51.795 2834.29,51.001C2834.29,50.735 2834.33,50.587 2834.43,50.577ZM2734.05,65.382C2735.34,65.571 2735.69,65.679 2735.68,66.182C2735.79,66.608 2732.57,66.665 2732.13,66.349C2731.78,66.096 2732.23,65.542 2732.58,65.409C2733.08,65.259 2733.57,65.311 2734.05,65.382L2734.05,65.382ZM2822.84,65.84C2804.85,74.36 2797.49,97.021 2806.57,114.388L2805.32,115.292C2796.41,96.932 2803.04,77.257 2817.51,67.32C2818.09,66.903 2819.39,66.581 2819.99,66.18C2819.99,66.18 2814.09,67.53 2812.09,68.314C2811.68,68.3 2810.49,68.72 2809.21,70.111C2808.1,71.15 2804.6,75.982 2804.71,76.15L2795.42,76.525L2795.43,76.869L2804.55,76.658C2795.16,92.155 2797.47,106.901 2803.26,117.22L2803.41,117.317C2803.74,117.544 2804.63,116.894 2806.47,115.147C2807.23,114.427 2808.18,113.533 2808.59,113.159C2809.73,112.114 2811.35,110.313 2812.46,109.012C2806.15,96.112 2812.38,79.122 2827.15,71.466C2827.18,71.058 2826.99,69.814 2826.99,69.814C2826.99,69.814 2826.43,69.311 2826.1,69.362C2809.64,76.631 2803.05,94.68 2809.74,111.092L2808.64,112.296C2800.23,95.3 2809.26,74.056 2824.99,68.037C2824.99,67.653 2824.65,67.163 2824.22,67.458C2807.23,75.366 2799.83,95.561 2808.15,112.774L2807.1,113.703C2797.63,94.856 2807.61,73.736 2823.25,66.52C2823.71,66.412 2822.84,65.84 2822.84,65.84L2822.84,65.84ZM2731.26,66.016C2731.26,66.016 2731.14,67.02 2731.49,67.362C2731.65,68.078 2731.39,68.001 2730.79,67.855C2729.29,67.498 2730.46,68.351 2731.68,69.04C2732.89,69.718 2732.72,69.695 2731.67,70.364C2730.97,70.813 2731.04,70.982 2731.13,71.323C2731.28,71.829 2731.37,71.492 2731.66,71.222C2732.28,70.655 2732.77,70.513 2733.32,70.515C2734.14,70.518 2734.22,71.177 2734.08,71.691C2733.75,72.77 2732.64,72.713 2731.73,72.445C2730.25,72.006 2727.82,69.421 2727.86,67.9C2727.75,66.537 2729.62,65.954 2731.26,66.016L2731.26,66.016ZM2737.94,66.349C2738.51,66.561 2739.24,66.845 2740.04,67.18C2741.14,67.531 2742.26,68.102 2742.98,68.583C2745.17,70.048 2745.03,72.978 2744.88,73.27L2733.55,84.031C2733.55,84.031 2732.91,83.718 2732.31,83.409C2730.4,82.435 2729.95,81.922 2731,81.383C2731.51,81.121 2731.68,80.558 2731.75,80.008C2731.85,79.271 2731.81,79.397 2732.25,79.061C2733.02,78.476 2733.05,78.235 2733.06,77.263C2733.06,76.62 2733.13,76.324 2733.36,75.92C2733.55,75.599 2733.74,74.93 2733.87,74.161C2733.89,74.035 2733.9,73.719 2733.93,73.608C2734.06,73.007 2734.25,72.83 2734.38,72.693C2734.5,72.557 2734.71,72.093 2734.85,71.691C2735.16,70.795 2735.11,70.928 2735.62,71.028C2736.36,71.172 2736.25,71.605 2736.17,72.293C2736.13,72.627 2735.91,72.861 2735.98,72.786C2736.09,72.686 2736.54,72.47 2736.63,72.449C2736.87,72.394 2737.11,72.476 2737.17,72.848C2737.2,73.056 2737.11,73.438 2737.12,73.734C2737.13,74.499 2737.16,75.417 2737.34,76.021C2738.18,78.93 2738.01,78.527 2737.73,76.106C2737.66,75.526 2737.58,74.675 2737.66,73.967C2737.72,73.467 2737.86,72.849 2738.06,72.511C2738.55,71.642 2738.58,71.471 2737.5,71.043C2737.1,70.884 2736.42,70.606 2736.28,70.329C2736.11,69.989 2735.59,69.527 2734.92,69.37C2733.3,68.986 2732.35,67.41 2732.58,67.176C2732.74,67.022 2733.39,67.223 2733.81,67.238C2735.29,67.291 2735.61,67.214 2736.27,66.648C2736.62,66.346 2736.77,66.078 2737.05,66.058C2737.35,66.052 2737.72,66.272 2737.94,66.349L2737.94,66.349ZM2815.04,68.092C2799.82,80.434 2797.15,100.398 2804.75,115.803L2803.43,116.838C2793.89,98.767 2800.3,79.274 2812.02,68.614L2815.04,68.092ZM2727.19,69.564C2727.46,69.539 2727.75,69.933 2728.82,71.078C2729.54,71.849 2730.29,72.519 2730.68,72.744C2731.58,73.173 2731.38,72.994 2730.63,73.703C2729.87,74.578 2730.29,75.298 2729.38,74.86C2727.02,73.746 2725.35,70.463 2726.89,69.672C2727.01,69.613 2727.1,69.572 2727.19,69.564L2727.19,69.564ZM2726.01,73.015C2726.07,73.011 2726.13,73.02 2726.19,73.035C2726.48,73.106 2726.84,73.657 2727.22,74.04C2728.27,75.103 2728.76,75.574 2729.6,75.947C2730.43,76.313 2730.45,76.403 2729.87,77.05C2729.66,77.285 2729.53,77.568 2729.48,77.725C2729.43,77.883 2729.42,78.083 2729.24,78.117C2728.32,78.295 2725.26,76.432 2725.14,75.147C2725.23,73.945 2725.54,73.052 2726.01,73.015L2726.01,73.015ZM2732.5,73.373C2733.03,73.359 2733.35,73.834 2733.34,74.603C2733.34,75.137 2733.04,75.353 2732.43,75.582C2731.13,76.07 2730.33,75.137 2731.24,74.106C2731.62,73.673 2732.14,73.382 2732.5,73.373ZM2731.71,76.506C2732.69,76.51 2732.97,77.339 2732.25,78.055C2731.58,78.727 2730.21,78.731 2730.22,77.993C2730.22,77.414 2731.08,76.504 2731.71,76.506L2731.71,76.506ZM2725.62,77.499C2726.29,77.695 2727.9,78.862 2728.61,79C2728.65,79.393 2728.18,79.501 2728.85,80.241C2729.15,80.577 2729.18,80.806 2728.91,80.948C2728.1,81.381 2725.3,80.012 2725.11,78.603C2725.02,77.914 2725.24,77.523 2725.62,77.499L2725.62,77.499ZM2729.29,79.185C2730.25,79.225 2731.35,79.254 2731.23,79.717C2731.15,80.053 2730.8,80.939 2730.36,80.773C2730.14,80.692 2729.94,80.478 2729.79,80.334C2729.27,79.839 2729.13,79.179 2729.29,79.185ZM2765.83,83.195C2768.64,85.75 2778.87,112.435 2757.56,131.877L2753.04,133.235C2773.5,117.131 2770.09,94.267 2764.57,84.403C2764.57,84.114 2764.49,84.147 2763.98,84.609C2763.54,85.014 2763.49,85.101 2763.67,85.176C2769.91,94.801 2772.24,121.986 2747.66,135.104C2747.24,135.533 2748.08,135.468 2748.08,135.468C2748.12,135.114 2759.15,132.429 2758.37,132.361C2768.65,123.255 2777.59,101.539 2766.46,82.61C2766.19,82.432 2765.83,83.195 2765.83,83.195ZM2762.28,86.217L2762.13,86.818C2771.05,104.372 2762.54,125.878 2745.96,133.838C2746.23,134.039 2746.54,134.177 2746.84,134.32C2765.65,124.167 2771.07,102.68 2762.87,86.037L2762.28,86.217ZM2760.79,87.461L2760.68,88.098C2768.07,103.038 2762.2,123.77 2744.58,132.18C2744.41,133.084 2744.58,132.82 2745.41,132.777C2765.8,121.815 2767.72,100.969 2761.34,87.431L2760.79,87.461ZM2759.52,89.253C2758.94,90.016 2757.89,90.411 2757.54,91.393C2763.46,107.088 2755.81,122.196 2742.85,128.565C2742.84,129.354 2742.27,131.309 2743.64,130.996C2759.66,123.725 2766.62,104.397 2759.62,89.183C2759.62,89.183 2759.53,89.249 2759.52,89.253L2759.52,89.253ZM2839.95,119.598C2840.54,119.639 2841.07,119.819 2841.62,119.89C2843.6,120.149 2844.89,121.602 2844.01,122.486C2843.71,122.777 2843.3,122.61 2842.01,121.976C2841.42,121.685 2841.32,121.412 2841.2,120.756C2841.05,119.969 2840.9,119.889 2840.7,120.5C2840.5,121.117 2840.28,121.499 2839.6,121.343C2837.69,120.899 2838.41,119.583 2839.95,119.598ZM2818.67,132.96C2813.9,130.243 2808,125.344 2804.63,119.777C2802.95,122.93 2800.98,128.668 2800.98,128.668L2793.49,126.569L2793.4,126.725L2800.81,128.866L2800.09,131.344C2800.01,131.612 2798.86,134.433 2798.86,134.433L2810.43,139.847C2809.72,140.972 2808.93,141.699 2807.94,142.748C2807.38,143.34 2807.36,144.106 2807.36,144.106L2823.41,128.763C2823.41,128.763 2825.48,131.841 2826.25,132.538C2826.97,133.193 2827.19,133.351 2826.35,133.547C2822.58,134.101 2819.65,136.962 2820.67,140.801C2820.84,141.228 2821.17,141.071 2821.89,140.62C2824.39,138.348 2830.51,136.244 2830.72,136.778L2830.74,139.222C2824.15,139.318 2824.83,144.172 2825.31,146.776C2825.31,146.832 2823.41,148.501 2823.41,148.501C2824.08,148.855 2824.74,149.222 2825.36,149.658C2824.78,152.896 2827.53,157.59 2832.94,155.187C2833.41,155.668 2833.85,156.151 2834.37,156.754C2834.92,156.112 2835.56,154.599 2835.56,154.599C2838.24,155.818 2843.82,153.091 2840.97,146.845L2842.54,145.343L2841.03,144.389C2840.99,142.801 2840.74,141.382 2839.8,139.998C2839.8,139.998 2842.33,140.646 2844.21,140.755L2844.21,140.755C2845.37,140.86 2846.34,140.89 2846.25,140.188C2846.22,139.981 2846.04,138.971 2845.93,138.639C2845.37,137.003 2842.47,135.802 2839.65,135.643C2839.19,135.617 2838.7,135.632 2838.6,135.512C2838.41,135.288 2838.74,134.969 2839.05,135.022C2840.59,135.291 2842.08,134.148 2842.34,132.692C2842.39,132.437 2842.71,131.97 2843.16,131.473C2843.97,130.592 2844.03,130.615 2844.01,129.341C2844,128.457 2844.16,128.261 2844.57,127.668C2845.09,126.823 2845.33,125.721 2845.07,124.58C2844.99,124.219 2844.64,123.707 2844.94,122.807C2845.41,121.341 2844.37,120.001 2843.01,119.238C2842.9,119.207 2842.93,119.314 2842.84,119.422C2841.6,119.808 2840.1,118.92 2840.1,118.92C2839.78,118.767 2841.15,110.819 2843.98,111.529C2844.45,111.814 2844.64,113.196 2844.61,113.22C2844.74,113.217 2844.81,112.407 2844.63,111.867C2844.43,111.3 2844,110.76 2843.15,110.92C2842.5,111.044 2841.74,111.914 2841.4,112.35C2840.08,114.037 2840.07,115.114 2839.63,116.909C2839.41,117.757 2839.39,117.708 2838.22,116.791C2837.38,116.132 2836.97,115.922 2837.26,115.536C2837.39,115.362 2837.94,114.814 2837.94,114.814L2848.65,104.942L2848.65,204.133L2790.3,204.133L2790.71,191.096C2791.79,182.163 2789.88,163.405 2788.44,161.64C2789.55,160.385 2793.01,157.357 2792.82,157.221L2792.36,156.949L2790.53,158.635L2786.02,157.264C2784.09,155.93 2782.12,154.697 2780.08,154.172C2776.75,153.315 2770.34,156.045 2770.33,156.074C2760.08,156.834 2751.88,161.006 2751.99,160.974C2751.55,160.564 2750.95,159.252 2750.94,159.26C2745.66,151.89 2740.46,147.762 2733.37,142.724L2742.35,137.748L2721.06,115.442L2720.87,97.329L2751.72,67.762C2751.9,67.252 2761.56,74.602 2765.16,80.584C2765.85,77.66 2767.13,75.005 2768.2,72.134C2768.32,71.871 2774.34,74.367 2776.13,74.473C2776.4,74.489 2776.61,74.206 2776.61,74.206L2768.66,71.613L2770.29,66.944C2770.29,66.944 2770.85,65.675 2770.21,65.465C2766.59,64.289 2763.19,62.217 2759.72,60.452C2759.72,60.452 2761.34,58.647 2761.36,58.567C2761.39,58.492 2762.04,57.523 2761.89,57.19C2760.12,58.905 2745.73,72.286 2745.73,72.286C2745.32,69.99 2744.68,69.187 2743.28,67.77C2744.04,67.733 2745.23,66.978 2745.92,66.474C2748.03,64.934 2749.18,62.185 2748.9,60.579C2746.88,61.224 2745.05,61.982 2742.51,62.443C2741.09,62.703 2739.74,63.348 2738.92,64.04L2738.79,61.477C2738.8,61.507 2742.2,62.076 2743.78,59.784C2745.14,57.808 2744.58,55.547 2744.27,54.394C2744.31,54.138 2744.23,54.167 2744.82,53.625C2745.25,53.226 2745.93,52.709 2745.93,52.709C2745.95,52.564 2744.17,51.899 2743.86,51.292C2744.34,46.543 2740.55,44.709 2737.35,45.553C2736.75,45.734 2736.47,45.847 2735.75,45.052C2735.65,44.933 2734.79,44.028 2734.79,44.028C2734.79,44.028 2734.42,44.9 2734.22,45.282C2733.59,46.524 2733.42,46.151 2732.07,46.217C2728.64,46.386 2727.11,49.163 2727.89,52.573C2728.08,53.373 2727.99,53.25 2727.47,54.262C2727.2,54.779 2726.76,55.438 2726.76,55.438C2726.76,55.438 2727.39,55.788 2727.82,55.978C2728.45,56.26 2728.48,56.589 2728.48,57.217C2728.57,58.6 2728.87,59.527 2729.66,60.715C2726.97,60.777 2724.91,60.526 2722.48,59.715C2722.85,63.468 2725.61,64.865 2728.99,65.415C2728.99,65.415 2728.63,65.747 2728.26,65.895C2727.47,66.124 2726.97,66.82 2726.98,67.444C2726.87,68.039 2726.48,68.637 2726.13,68.955C2725.6,69.412 2725.17,70.055 2725.38,71.299C2725.33,72.201 2725.11,72.462 2724.84,72.806C2724.31,73.497 2724.14,74.184 2724.27,75.093C2724.33,75.515 2724.46,76.421 2724.37,77.356C2724.23,78.916 2724.78,79.501 2725.49,80.598C2725.95,81.31 2725.85,81.329 2725.75,81.845C2725.49,83.084 2725.23,83.721 2724.95,84.664C2724.34,86.772 2724.31,88.371 2724.82,88.783C2725.58,89.403 2726.43,89.217 2726.83,89.093C2729.82,88.168 2729.3,85.225 2729.46,83.25C2729.55,82.742 2729.72,82.498 2729.89,82.522C2730.73,83.514 2731.63,84.087 2732.78,84.712C2728.8,88.772 2726.25,91.256 2721.22,95.684L2721.22,-3.294L2778.69,-3.294C2778.69,-3.294 2778.75,-2.466 2778.61,1.112C2778.36,8.384 2778.06,16.001 2778.53,23.414C2778.61,25.98 2778.56,28.513 2778.93,31.051C2779.29,33.524 2779.44,36.191 2780.6,38.494C2781.06,39.743 2781.08,39.647 2779.31,41.282C2778.44,42.084 2777.71,42.938 2777.74,43.089C2777.75,43.139 2777.7,43.327 2777.84,43.22C2777.92,43.15 2778.56,42.515 2778.63,42.431C2779.11,41.866 2779.91,42.591 2782.64,43.363C2783.18,43.515 2783.93,44.02 2784.51,44.439C2788.59,47.886 2794.33,46.811 2798.62,44.931C2799.84,44.398 2800.14,44.342 2802.1,44.11C2809.35,43.248 2817.09,40.073 2817.07,40.083L2818.02,41.637C2818.02,41.637 2818.38,41.571 2818.63,41.962C2822.8,49.856 2836.41,58.876 2836.17,58.458L2827.27,63.396C2833.75,71.419 2848.65,85.03 2848.65,85.03L2848.65,104.593C2844.67,107.782 2840.75,111.437 2837.25,115.006C2836.24,116.004 2835.53,116.573 2835.92,116.592C2836.82,116.454 2837.61,117.351 2838.35,117.973C2838.82,118.496 2838.7,118.449 2838.16,119.163C2837.78,119.665 2837.64,119.81 2837.64,120.172C2837.66,120.874 2837.65,121.345 2837.03,121.871C2836.64,122.358 2836.42,122.67 2836.35,123.247C2836.28,123.824 2836.28,124.194 2835.89,124.703C2835.22,124.846 2835.16,125.824 2835.27,126.262C2835.98,126.959 2835.66,127.715 2835.72,127.556C2834.38,129.014 2832.97,130.278 2833.87,128.239C2834.28,127.48 2834.42,126.851 2834.42,126.851C2834.42,126.851 2833.77,127.521 2833.43,127.838C2832.92,128.317 2832.73,128.035 2832.71,126.546C2832.65,125.42 2832.17,123.848 2831.99,123.548C2831.88,123.38 2831.86,123.67 2831.91,124.755C2831.98,126.182 2832.15,126.596 2831.64,128.02C2830.97,129.945 2830.49,130.217 2831.59,130.151C2832.63,130.088 2833.51,130.077 2833.96,130.7C2834.12,130.91 2834.32,131.27 2834.74,131.482C2835.59,131.951 2836.27,132.472 2836.75,132.992C2838.29,134.671 2837.85,136.172 2834.87,135.154C2833.3,134.618 2834.33,133.943 2836.01,134.099C2837.05,134.197 2837.22,133.813 2836.33,133.538C2834.66,133.229 2834.39,133.04 2833.29,134.351C2828.68,133.893 2826.09,131.306 2824.84,129.198C2824.32,128.317 2824.16,128.148 2824.52,127.649C2824.66,127.452 2824.58,127.512 2824.33,127.785C2824.09,128.057 2823.41,128.285 2823.19,128.481C2821.64,130.032 2820.07,131.699 2818.67,132.96L2818.67,132.96ZM2838.77,122.097C2839.55,122.194 2839.53,122.853 2838.84,123.487C2838.18,123.986 2837.73,124.083 2837.36,123.708C2836.71,123.052 2837.55,122.092 2838.77,122.097L2838.77,122.097ZM2841.05,122.554C2841.68,122.551 2842.49,122.842 2843.44,123.64C2844.59,124.591 2844.85,126.896 2843.8,127.295C2843.36,127.462 2843.29,127.298 2842.35,126.406C2841.72,125.805 2841.04,125.26 2840.36,124.939C2838.99,124.282 2838.81,124.033 2839.74,123.586C2839.94,123.485 2840.19,123.248 2840.3,123.062C2840.54,122.678 2840.62,122.556 2841.05,122.554ZM2839.56,125.622C2839.74,125.628 2839.99,125.739 2840.37,125.944C2842.69,127.215 2843.83,129.207 2843.04,130.332C2842.53,131.069 2841.69,130.788 2841.05,129.742C2840.69,129.152 2839.73,128.398 2838.65,127.847C2837.4,127.215 2837.38,127.125 2838.28,126.694C2838.64,126.517 2838.92,126.267 2839.1,125.948C2839.31,125.579 2839.33,125.615 2839.56,125.622ZM2840.3,130.369C2842.06,132.122 2841.86,133.07 2840.72,133.784C2839.94,134.271 2838.69,134.393 2838.28,133.989C2837.62,133.41 2837.64,132.746 2838.37,132.533C2839.05,132.387 2838.8,132.113 2838.16,131.951C2835.89,131.305 2834.49,130.095 2836.96,130.357C2837.67,130.433 2838.36,129.88 2838.73,129.439C2839.26,128.786 2839.99,130.053 2840.3,130.369ZM2720.73,131.044L2771.8,204.133L2730.53,204.133C2731.98,192.508 2729.07,179.607 2725.21,171.189C2729.41,170.475 2733.41,169.362 2737.41,168.256L2736.6,167.199C2731.82,169.112 2727.41,169.812 2723.26,170.287C2728.77,179.685 2730.74,192.641 2729.09,204.133L2721.22,204.133L2721.22,147.39L2720.73,131.044ZM2729.87,141.922C2730.6,141.893 2732.4,143.168 2732.62,144.126C2732.66,144.322 2733.13,145.501 2733.66,146.596C2733.67,146.799 2735.44,150.01 2734.66,149.73C2733.11,147.618 2730.34,144.02 2729.64,142.267C2729.64,142.034 2729.67,141.93 2729.87,141.922ZM2735.4,145.134C2735.5,145.665 2736.04,147.053 2736.46,147.967C2737.56,150.35 2739.27,154.086 2738.93,155.15C2738.69,155.867 2738.93,155.829 2738.31,154.944C2738,154.511 2737.05,153.175 2736.82,152.867C2736.26,152.114 2736.63,152.805 2736.31,151.58C2735.55,148.114 2734.32,146.293 2733.52,144.268C2733.24,143.317 2735.04,144.751 2735.4,145.134ZM2736.39,145.663C2736.53,145.767 2738.56,147.197 2738.77,147.402C2739.49,149.965 2742.36,158.176 2741.62,159.643C2741.36,159.439 2740.26,158.115 2740.11,157.433C2739.78,153.507 2738.54,150.683 2737.2,147.757C2736.83,146.875 2736.53,145.993 2736.39,145.663ZM2740.2,148.546C2740.84,148.86 2741.51,149.579 2741.88,150.221C2742.14,150.657 2742.26,151.17 2742.5,152.25C2743.24,155.599 2744.64,158.995 2744.01,162.57C2743.62,163.104 2742.76,161.892 2742.64,160.698C2742.23,156.74 2741.88,154.843 2740.49,150.188C2740.23,149.285 2740.02,148.577 2740.2,148.546ZM2743.46,151.617C2743.6,151.622 2743.88,151.878 2744.35,152.319C2745.26,153.178 2745.39,153.494 2745.39,154.917C2745.42,157.009 2746.12,159.397 2746.22,161.51C2746.29,162.728 2746.51,165.881 2746.32,166.068C2746.05,166.435 2744.88,165.099 2744.97,163.051C2745.12,160.59 2745,158.737 2743.95,154.478C2743.47,152.51 2743.22,151.669 2743.43,151.621C2743.44,151.619 2743.45,151.617 2743.46,151.617L2743.46,151.617ZM2837.94,139.183C2841.6,141.536 2840.31,145.879 2839.53,146.413C2844.58,152.808 2836.73,156.083 2834.24,153.784C2830.55,157.457 2824.22,154.379 2826.66,148.325C2826.66,148.325 2822.03,139.458 2831.16,140.05C2831.16,140.05 2831.32,136.467 2831.06,136.303C2827.8,136.084 2823.37,139.23 2822.11,140.101C2821.42,140.523 2821.26,140.321 2821.26,140.321C2821.09,138.461 2821.09,137.61 2821.84,136.573C2823.16,134.763 2825.33,134.152 2828.19,133.523C2831.72,134.614 2835.09,136.327 2838.36,136.061C2840.17,136.071 2842.01,136.363 2843.76,137.304C2844.94,137.862 2845.56,139.955 2845.56,139.955C2843.7,140.926 2837.94,139.183 2837.94,139.183ZM2836.2,126.034C2836.22,125.399 2836.93,124.691 2837.64,124.773C2838.61,124.843 2838.73,125.992 2837.87,126.415C2837.62,126.617 2836.82,126.319 2836.78,126.543C2836.84,126.934 2836.44,126.769 2836.37,126.628C2836.23,126.462 2836.2,126.224 2836.2,126.034ZM2835.62,128.538C2835.97,128.288 2836.27,128.266 2836.63,128.219C2837.18,128.152 2837.88,128.235 2838.03,128.812C2838.19,129.378 2837.1,129.711 2836.23,129.726C2835.78,129.734 2835.26,129.821 2835.13,129.507C2835,129.213 2835.44,128.67 2835.62,128.538ZM2724.95,88.096C2725.65,85.638 2725.21,84.261 2726.39,81.231L2729.25,82.186C2729.25,82.186 2729.37,85.158 2728.79,86.814C2728.22,88.469 2726.32,89.788 2724.95,88.096ZM2746.27,154.579C2746.6,154.62 2747.43,155.804 2747.81,156.886C2748.15,157.889 2748.04,159.163 2748.29,160.244C2748.85,163.949 2748.82,167.66 2748.67,168.782C2748.59,169.341 2748.23,169.113 2747.74,168.58C2747.03,167.805 2747.12,167.789 2747.13,165.637C2747.14,163.793 2746.73,159.236 2746.55,158.31C2746.2,156.598 2746.05,154.965 2746.14,154.684C2746.16,154.605 2746.2,154.572 2746.27,154.579ZM2779.74,155.023C2783.43,155.611 2786.38,158.134 2788.07,162.286C2789.7,166.509 2790.1,172.271 2790.35,177.568C2790.33,178.835 2789.81,178.515 2788.45,177.728C2786.95,176.997 2786.64,177.209 2784.46,177.708C2783.1,178.02 2783.22,177.094 2785.46,175.557C2786.22,175.06 2787.11,174.395 2786.81,174.296C2786.67,174.245 2785.99,174.429 2785.49,174.827C2783.3,176.604 2782.7,177.036 2783.34,175.309C2783.5,174.872 2784.01,173.661 2784.22,173.081C2785.01,170.91 2784.1,169.981 2781.4,168.607C2780.72,168.264 2780.28,167.69 2780.95,168.891C2781.5,169.873 2780.37,170.665 2778.95,169.516C2777.97,168.717 2776.01,169.249 2775.37,170.246C2774.75,171.211 2775.08,173.012 2776.3,173.595C2777.37,174.057 2777.77,173.725 2776.73,173.006C2775.4,172.081 2775.66,170.52 2777.15,170.526C2777.52,170.527 2778.18,170.94 2779.82,171.838C2781,172.477 2781.84,172.207 2781.84,171.252C2781.84,170.613 2782.21,170.665 2782.98,171.049C2784.03,171.567 2783.91,172.036 2783.36,173.482C2782.99,174.493 2782.8,175.641 2782.46,176.697C2781.58,180.252 2781.47,184.278 2782.44,185.533C2785.03,188.871 2787.78,188.517 2790.13,186.311L2790.03,189.966C2787.63,191.897 2784.83,193.212 2780.5,200.369C2778.99,198.468 2772.51,190.7 2762.13,188.945L2759.79,185.74C2759.83,185.541 2758.05,173.821 2756.88,169.83C2756.88,169.83 2758.16,167.875 2759.33,166.434C2763.99,160.676 2771.87,154.086 2779.74,155.023L2779.74,155.023ZM2766.2,158.349C2765.8,158.476 2765.67,157.678 2765.89,157.526C2766.37,157.486 2766.54,157.501 2767.02,157.536C2767.38,157.559 2767.38,157.976 2766.2,158.349L2766.2,158.349ZM2748.68,157.751C2749.2,158.122 2749.83,159.118 2750.45,160.027C2750.79,160.529 2750.6,161.363 2750.65,162.185C2750.73,163.352 2750.86,165.275 2750.94,166.456C2751.1,168.761 2750.88,170.688 2750.55,171.384C2750.2,172.215 2749.51,171.641 2749.33,170.502C2749.29,170.229 2749.52,167.403 2749.52,165.851C2749.52,163.181 2748.84,159.887 2748.68,157.751ZM2764.4,157.735C2764.58,157.725 2764.72,157.731 2764.84,157.887C2765.4,158.605 2765.63,159.039 2765.12,159.433C2764.44,159.997 2763.83,159.855 2763.45,158.782C2763.21,158.018 2763.78,157.776 2764.4,157.735ZM2762.31,158.368C2762.92,158.773 2763.51,159.839 2763.58,160.608C2763.54,160.819 2763.35,160.998 2762.95,161.326C2762.55,161.694 2762.42,161.67 2761.97,160.962C2761.27,159.863 2760.94,159.139 2761.08,158.759C2761.43,158.394 2761.89,158.248 2762.31,158.368ZM2786.86,158.507C2787.87,158.592 2788.86,159.053 2789.84,159.285L2788.34,160.733C2787.9,159.991 2787.39,159.249 2786.86,158.507ZM2760.08,159.262C2760.63,159.982 2761.6,161.865 2761.54,162.565C2761.4,162.803 2761.18,163.016 2760.95,163.149C2760.77,163.199 2760.61,162.876 2759.98,161.773C2758.9,159.853 2758.58,159.312 2759.14,159.081C2759.44,159.048 2759.89,159.063 2760.08,159.262ZM2757.9,159.708C2758.5,160.245 2759.95,163.105 2759.99,163.91C2759.97,164.136 2759.9,164.333 2759.77,164.485C2758.86,165.464 2759.09,165.306 2757.74,162.516C2756.6,160.221 2756.3,159.995 2757.05,159.737C2757.22,159.68 2757.64,159.604 2757.9,159.708L2757.9,159.708ZM2755.73,160.454C2756.12,160.449 2756.24,161.113 2757.01,162.626C2758.3,165.487 2758.79,165.885 2758.49,166.191C2758.13,166.647 2757.92,166.968 2757.58,166.414C2756.8,165.142 2756.03,163.52 2755.3,162.096C2754.72,161.033 2754.67,160.904 2755.04,160.644C2755.25,160.495 2755.57,160.457 2755.73,160.454ZM2778.82,161.267C2778.33,161.404 2776.38,162.025 2777.57,162.137C2777.81,162.16 2778.43,162.006 2778.86,161.976C2780.07,161.892 2782.59,162.121 2782.49,161.888C2782.26,161.017 2779.47,161.098 2778.82,161.267ZM2754.04,161.535C2754.04,161.583 2754.35,162.141 2754.66,162.687C2756.5,166.248 2757.52,167.544 2757.2,168.107C2756.93,168.447 2756.51,168.874 2756.27,168.773C2755.87,168.61 2755.34,167.444 2754.03,164.806C2752.67,162.08 2752.53,161.876 2753.23,161.522C2753.51,161.389 2753.86,161.29 2754.04,161.535L2754.04,161.535ZM2752.2,162.791C2753.05,164.168 2752.93,163.987 2752.92,168.468C2752.92,171.256 2752.56,173.035 2752.1,173.721C2751.85,174.08 2751.42,173.869 2751.21,173.166C2751.11,172.844 2751.39,172.366 2751.44,171.857C2751.77,168.502 2751.54,165.149 2751.55,161.973C2751.8,161.947 2752.06,162.567 2752.2,162.791ZM2773.99,163.89C2774.39,164.453 2774.29,164.907 2774.29,165.664C2774.28,166.735 2774.36,166.814 2775.1,166.274C2775.75,165.794 2775.8,165.763 2776.97,166.557C2777.66,167.028 2778.54,167.081 2779.1,166.561C2779.5,166.194 2779.64,166.36 2780.17,166.499C2780.75,166.822 2780.92,166.872 2782.16,166.266C2783,165.893 2783.04,165.839 2783.54,166.103C2784.42,166.88 2784.55,166.599 2784.43,165.583C2784.43,165.228 2784.53,164.565 2784.64,164.135C2785.08,162.327 2784.37,162.307 2783.43,163.459C2783.07,163.905 2782.26,164.099 2781.49,163.739C2780.4,163.223 2778.69,163.432 2777.42,163.645C2775.93,163.897 2775.24,163.483 2774.64,162.97C2774.3,162.679 2773.52,162.419 2773.43,162.642C2773.35,162.865 2773.52,163.216 2773.99,163.89L2773.99,163.89ZM2753.95,166.425C2754.13,166.385 2754.42,166.941 2754.84,168.118C2755.38,169.638 2754.44,174.921 2753.87,175.786C2753.56,176.24 2753.37,176.519 2752.75,175.678C2752.5,175.308 2752.7,175.191 2752.94,174.152C2753.31,172.571 2753.62,170.014 2753.64,168.825C2753.65,167.281 2753.73,166.471 2753.95,166.425ZM2755.85,171.55C2755.99,171.56 2756.14,171.865 2756.36,172.467C2756.66,173.294 2756.52,174.888 2756.12,176.109C2755.88,176.82 2755.66,177.577 2755.27,178.213C2755.13,178.57 2754.44,178.445 2754.25,177.654C2754.13,177.154 2754.55,176.533 2754.75,175.736C2754.95,174.936 2755.18,173.918 2755.29,173.406C2755.51,172.156 2755.66,171.537 2755.85,171.55ZM2770.6,173.892C2770.58,173.889 2770.57,173.892 2770.56,173.896C2770.56,173.891 2770.55,173.904 2770.55,173.907C2770.51,173.939 2771.98,175.544 2772.38,175.992C2772.58,176.167 2774.36,178.325 2773.25,177.829C2770.48,176.675 2767.23,177.241 2765.22,179.176C2764.97,179.419 2764.77,179.171 2764.01,179.114C2762.45,178.998 2761.89,179.616 2762.84,180.384C2762.98,180.501 2763.28,180.554 2763.42,180.743C2763.54,180.916 2763.51,181.226 2763.57,181.313C2766.58,185.313 2772.14,186.091 2775.64,183.478C2776.08,183.15 2776.33,183.034 2776.74,183.156C2777.55,183.399 2777.62,182.716 2776.9,181.762C2776.59,181.346 2776.2,180.866 2776.43,180.728C2776.87,180.346 2777.09,179.72 2776.32,179.486C2775.79,179.324 2775.19,178.731 2774.89,177.903C2774.54,176.935 2771.12,173.962 2770.6,173.892L2770.6,173.892ZM2756.96,175.643C2757.61,175.628 2757.64,179.496 2756.92,180.671C2756.55,181.115 2755.7,180.289 2755.83,179.44C2755.92,178.795 2756.62,175.887 2756.77,175.736C2756.84,175.675 2756.9,175.644 2756.96,175.643L2756.96,175.643ZM2770.28,178.058C2770.82,178.052 2771.57,178.298 2772.17,178.839C2772.49,179.131 2773.06,180.396 2772.82,180.892C2772.76,181.144 2772.08,181.129 2772.02,180.945C2771.65,178.391 2769.58,178.021 2768.93,180.404C2768.93,180.404 2768.5,180.766 2768.45,180.069C2768.59,178.715 2769.23,178.068 2770.28,178.058L2770.28,178.058ZM2786.9,178.279C2787.56,178.267 2788.18,178.598 2788.51,179.3C2788.73,179.79 2788.76,180.203 2788.67,180.418C2788.6,180.578 2788.38,180.508 2788.38,180.508C2787.33,177.627 2785.9,178.96 2785.39,180.552C2785.39,180.552 2784.85,180.719 2784.78,180.548C2784.71,180.375 2784.76,180.052 2784.97,179.603C2785.38,178.747 2786.16,178.293 2786.9,178.279L2786.9,178.279ZM2772.88,178.458C2773.25,178.438 2773.89,178.74 2774.36,179.22C2774.85,179.708 2774.89,179.999 2774.5,180.36C2774.27,180.578 2773.44,180.793 2773.28,180.415L2772.57,178.773C2772.51,178.617 2772.71,178.467 2772.88,178.458L2772.88,178.458ZM2767.83,178.535C2768.25,178.537 2768.34,178.631 2767.68,180.153C2767.54,180.478 2765.87,180.006 2766.19,179.378C2766.67,178.879 2767.42,178.535 2767.83,178.535ZM2784.6,178.656C2784.76,178.648 2784.9,178.672 2784.96,178.749C2784.81,178.803 2784.18,180.407 2784.18,180.407C2783.58,180.335 2782.86,180.419 2782.74,179.929C2782.61,179.467 2782.85,179.185 2783.7,178.862C2783.95,178.769 2784.32,178.669 2784.6,178.656ZM2789.5,179.067C2790.13,179.3 2790.28,179.838 2790.2,180.116C2790.14,180.326 2789.84,180.328 2789.62,180.166C2789.42,179.931 2789.12,179.531 2789.15,179.262C2789.22,178.994 2789.3,178.991 2789.5,179.067ZM2757.92,180.549C2758.12,180.917 2758.47,183 2758.06,182.946C2757.66,182.843 2757.47,182.215 2757.4,181.649C2757.39,181.533 2757.74,180.563 2757.92,180.549ZM2764.9,181.661C2765.08,181.635 2765.55,181.798 2766.24,182.189C2768.51,183.29 2770.84,183.446 2773.31,182.892C2774.74,182.52 2775.11,182.303 2775.31,182.548C2775.65,182.965 2775.11,183.383 2773.09,184.062C2770.88,184.806 2768.59,184.681 2765.57,182.548C2764.76,181.974 2764.66,181.695 2764.9,181.661ZM2790.12,182.235C2790.49,182.935 2789.22,183.599 2788.57,183.786C2787.2,184.183 2785.12,183.998 2783.95,183.291C2783.85,183.232 2783.76,183.169 2783.67,183.102C2782.71,182.39 2783.11,181.881 2784.17,182.43C2785.31,183.02 2787.64,183.129 2788.87,182.533C2789.49,182.234 2789.91,181.859 2790.12,182.235L2790.12,182.235ZM2761.89,183.54C2761.77,183.569 2761.98,183.89 2762.43,184.371C2765.53,187.869 2772.95,189.767 2777.12,186.162C2778.43,184.933 2778.23,184.38 2776.17,185.362C2773.89,186.113 2770.65,186.212 2767.86,185.796C2766.48,185.61 2764.24,185.081 2763.1,184.247C2762.38,183.722 2762.01,183.515 2761.89,183.54ZM2783.33,183.645C2783.52,183.66 2783.85,183.731 2784.58,184.107C2785.63,184.656 2788.02,184.468 2788.8,184.179C2790.45,183.568 2790.79,184.344 2789.23,185.21C2787.49,186.267 2785.08,185.854 2783.68,184.492C2783.25,184.101 2783.01,183.615 2783.2,183.576C2783.22,183.572 2783.3,183.643 2783.33,183.645ZM2762.72,189.833C2768.84,190.393 2778.08,196.816 2781.68,204.133L2779.61,204.133C2775.99,198.375 2770.42,193.408 2763.81,191.68C2763.55,191.478 2762.58,190.088 2762.72,189.833ZM2789.9,191.173L2789.61,193.196C2788.59,194.039 2784.83,197.162 2782.04,202.053C2781.46,202.026 2781.18,201.324 2781.27,200.846C2783.51,196.432 2786.18,193.994 2789.9,191.173ZM2765.15,192.756C2766.56,192.659 2775.7,197.912 2778.77,204.133L2777.09,204.133C2773.63,199.613 2769.78,196.333 2766.36,195.15C2765.53,194.272 2764.62,192.794 2765.15,192.756ZM2789.61,194.163L2789.6,196.897C2787.41,199.031 2785.81,201.51 2784.56,204.133L2782.87,204.133C2782.87,204.133 2782.49,203.051 2782.62,202.584C2784.55,199.102 2786.4,196.567 2789.61,194.163L2789.61,194.163ZM2775.73,204.133L2774.09,204.133C2772.7,202.167 2770.64,199.944 2768.75,198.819C2767.97,197.856 2767.11,196.668 2767.46,196.475C2767.48,195.764 2774.75,201.023 2775.73,204.133ZM2789.65,198.24L2789.61,199.82C2788.5,201.246 2787.57,202.774 2786.68,204.133L2785.28,204.133C2786.56,201.37 2789.76,197.493 2789.65,198.24L2789.65,198.24ZM2770.79,201.3C2771.3,201.434 2773.15,203.539 2773.09,204.133L2772.26,204.133C2771.79,203.541 2771.24,202.569 2770.91,201.963C2770.7,201.58 2770.57,201.225 2770.79,201.3ZM2789.33,201.789C2789.34,201.787 2789.34,201.787 2789.34,201.789C2789.34,201.791 2789.32,204.133 2789.32,204.133L2787.92,204.133C2787.77,204.105 2788.6,202.281 2789.33,201.789L2789.33,201.789Z" style="fill:rgb(19,31,103);fill-rule:nonzero;"/>
                <path id="path6313-8" d="M2796.97,-3.563L2849.29,70.858L2849.33,54.326L2832.54,32.604C2836.36,31.423 2841.03,30.607 2844.7,30.279C2839.98,19.792 2837.62,9.943 2839.7,-3.555C2825.03,-3.731 2810.3,-3.702 2796.97,-3.563L2796.97,-3.563ZM2838.83,-3.21C2838.42,1.556 2837.88,6.87 2838.74,12.772C2836.02,11.775 2835.38,13.477 2834.93,13.657C2834.42,12.512 2832.52,10.53 2830.37,12.859C2829.26,14.069 2829.8,16.346 2832.39,17.373C2829.42,17.602 2827.88,15.058 2827.36,12.434C2825.75,11.404 2824.07,10.386 2823.9,6.775L2824.73,6.913C2824.45,9.432 2827.07,10.715 2828.59,9.513C2829.58,8.754 2829.69,7.583 2829.3,5.763C2830.09,5.6 2831.95,4.82 2831.46,2.426C2830.78,-0.879 2827.39,-0.491 2825.85,1.683C2824.56,0.087 2822.2,-0.209 2821.26,2.269C2820.73,3.649 2821.93,5.199 2823.29,5.499C2820.27,6.081 2818.74,1.895 2818.57,-0.938L2817.31,-3.171C2825.5,-3.218 2829.08,-3.209 2838.83,-3.21ZM2797.82,-3.128L2803.89,-3.124L2848.24,54.41L2848.34,68.733L2797.82,-3.128ZM2813.18,-3.124C2813.18,-3.124 2814.15,-3.113 2814.15,-3.113C2814.91,1.951 2817.81,5.618 2822.78,7.402C2823.04,11.539 2825.03,17.159 2832.58,19.058C2832.36,23.729 2835.35,28.193 2838.56,30.333C2838.56,30.333 2837.69,30.548 2837.02,30.613C2832.71,27.187 2831.65,22.144 2831.22,20.063C2831.07,19.763 2830.66,19.69 2830.34,19.617C2826.65,18.311 2823.54,15.274 2822.28,11.568L2821.48,7.93C2821.48,7.462 2821.39,7.682 2820.29,7.278C2817.44,6.228 2814.81,3.143 2813.64,-0.542C2813.01,-2.48 2813.18,-3.124 2813.18,-3.124ZM2809.27,-3.113L2812.68,-3.109C2812.68,-3.109 2812.7,-2.507 2812.75,-2.115C2813.21,1.513 2816.45,6.066 2819.77,7.577C2820.24,7.79 2820.89,8.09 2821.04,8.233C2821.97,14.18 2824.66,17.762 2830.34,20.215C2830.43,20.309 2830.68,20.368 2830.76,20.486C2831.53,24.164 2833.22,28.428 2836.44,30.772L2835.05,30.915L2809.27,-3.113ZM2825.9,3.129C2826.67,3.129 2827.3,3.755 2827.3,4.527C2827.3,5.299 2826.67,5.921 2825.9,5.921C2825.13,5.921 2824.51,5.299 2824.51,4.527C2824.51,3.755 2825.13,3.129 2825.9,3.129ZM2778.92,10.756C2779,10.958 2759.87,27.174 2761.74,57.683L2761.18,58.304L2761.33,58.521C2760.7,59.24 2760.09,59.816 2759.4,60.517C2763.37,63.05 2770.28,65.816 2770.3,65.743L2768.98,68.81L2777.24,71.486L2776.14,74.402C2776.14,74.402 2770.39,72.491 2768.01,71.695C2766.83,74.307 2766.12,77.066 2765.26,79.783C2765.18,80.002 2764.99,79.897 2764.7,79.472C2760.41,72.136 2751.6,66.842 2751.89,67.366L2720.64,97.096L2720.43,115.469L2742.06,137.818C2742.06,137.818 2735.8,140.906 2732.83,142.931C2735.14,144.816 2737.74,146.267 2740.03,148.049C2744.77,151.397 2747.97,156.32 2751.04,159.654C2765.52,152.458 2780.1,152.859 2792.69,157.227C2791.22,158.775 2789.59,160.115 2788.07,161.793C2791.73,171.421 2790.56,190.541 2790.38,191.061C2798,183.257 2809.33,166.523 2807.82,142.962L2811.03,139.74C2810.97,139.574 2803.01,135.301 2799.69,134.37L2800.61,131.442L2792.66,128.953L2793.55,126.628L2801.46,128.926C2802.96,125.237 2804.55,120.07 2804.55,120.07C2807.71,124.811 2811.2,129.124 2818.37,133.512L2849.45,103.704L2849.24,84.539L2828.09,63.328L2836.89,58.727C2836.05,58.043 2834.82,57.394 2833.95,56.708C2833.89,56.659 2834.12,56.512 2834.06,56.464C2833.84,56.293 2833.68,56.155 2833.45,55.998C2833.4,55.962 2833.24,56.192 2833.19,56.157C2830.2,54.056 2827.22,51.988 2824.86,49.475C2824.8,49.411 2824.89,49.15 2824.83,49.086C2823.61,47.777 2822.39,46.559 2821.15,45.27C2820.57,44.686 2819.62,43.301 2819.62,43.301L2819.56,42.843L2818.23,41.158C2813.93,43.702 2795.58,50.088 2777.83,43.018L2781.2,39.636C2780.3,37.464 2779.72,35.04 2779.49,33.055C2778.56,25.093 2778.92,10.756 2778.92,10.756L2778.92,10.756ZM2834.88,15.264C2835.69,15.264 2836.35,15.925 2836.35,16.74C2836.35,17.554 2835.69,18.215 2834.88,18.215C2834.06,18.215 2833.41,17.554 2833.41,16.74C2833.41,15.925 2834.06,15.264 2834.88,15.264ZM2839.48,17.019C2840.23,20.686 2841.87,26.011 2843.51,29.6L2841.56,29.817C2839.97,28.781 2838.29,27.268 2838.11,25.122C2833.8,25.155 2832.55,18.387 2834.12,19.199C2833.92,21.511 2835.57,22.423 2837.2,22.196C2838.59,22 2839.8,20.066 2838.14,17.93C2838.88,17.641 2839.24,17.424 2839.48,17.019L2839.48,17.019ZM2778.47,27.864C2778.76,32.553 2779.68,35.973 2780.53,39.516L2772.03,47.56C2772.69,40.217 2774.85,33.655 2778.47,27.864ZM2819.27,43.309L2820.35,44.862C2808.05,52.098 2787.08,52.609 2774.3,46.508L2775.99,44.889C2787.23,49.977 2805.53,50.354 2819.27,43.309ZM2739.44,45.724C2738.2,45.709 2736.77,46.182 2735.26,47.339C2729.62,44.764 2725.92,50.784 2729.41,54.771C2728.89,57.64 2728.5,58.175 2730.66,61.08C2728.37,61.372 2725.48,60.772 2723.02,60.393C2723.44,64.642 2729.51,65.632 2732.04,65.165C2734.76,64.572 2737.34,65.925 2737.45,65.957C2739.05,66.406 2740.05,67.18 2741.63,67.552C2744.24,68.175 2748.06,65.109 2748.62,62.198C2748.67,61.807 2748.79,61.453 2748.58,61.395C2746.79,61.852 2744.83,62.496 2743.09,62.878C2741.39,63.296 2740.11,63.709 2738.82,64.726L2738.71,61.216C2747.54,61.637 2743.7,53.218 2743.2,52.856C2744.84,49.535 2742.86,45.766 2739.44,45.724L2739.44,45.724ZM2819.73,45.988L2821.65,50.62L2816.54,52.356L2815.24,47.821L2819.73,45.988ZM2739.07,46.128C2742.07,46.157 2744.76,49.327 2741.87,52.876C2747.46,57.818 2740.3,63.114 2736.89,59.438C2732.35,63.606 2727.52,59.252 2730.06,54.712C2725.22,50.368 2731.19,44.541 2735.27,48.294C2736.27,46.75 2737.7,46.115 2739.07,46.128ZM2773.93,47.825C2774.65,47.825 2775.23,48.409 2775.23,49.129C2775.23,49.85 2774.65,50.434 2773.93,50.434C2773.21,50.434 2772.63,49.85 2772.63,49.129C2772.63,48.409 2773.21,47.825 2773.93,47.825ZM2740.67,47.922C2740.6,47.922 2740.51,47.956 2740.41,48.042C2740.26,48.056 2739.95,48.6 2739.16,49.521C2737.78,51.123 2737.63,51.138 2737.63,51.138C2736.16,50.656 2735.18,50.917 2734.21,51.53C2734.21,51.53 2733.11,51.321 2731.58,50.045C2730.89,49.463 2730.51,49.337 2730.39,49.649C2730.27,49.982 2730.58,50.309 2731.91,51.218C2733.76,52.475 2733.64,52.379 2733.64,52.379C2733.53,53.484 2733.71,54.382 2734.12,55.219C2734.12,55.219 2733.8,56.003 2732.49,57.722C2732.12,58.207 2731.82,58.735 2731.82,58.894C2731.82,59.563 2732.39,59.113 2733.73,57.419C2734.26,56.754 2734.98,55.804 2734.98,55.804C2736.55,56.349 2737.1,56.017 2738.08,55.666C2738.08,55.666 2738.42,55.918 2739.28,56.603C2740.85,57.856 2741.19,57.989 2741.38,57.83C2741.64,57.616 2741.6,57.546 2741.01,57.116C2739.24,55.832 2738.63,55.091 2738.63,55.091C2738.99,53.686 2738.6,52.525 2738.21,51.792C2738.21,51.792 2738.24,51.613 2739.24,50.496C2739.97,49.675 2740.98,48.38 2740.91,48.193C2740.93,48.077 2740.83,47.92 2740.67,47.922ZM2776.86,48.205L2781.46,49.638L2780.45,54.429L2775.55,52.845L2776.86,48.205ZM2810.13,49.381L2811.41,54.056L2806.63,55.33L2805.85,50.368L2810.13,49.381ZM2813.49,49.459C2814.21,49.459 2814.79,50.043 2814.79,50.764C2814.79,51.484 2814.21,52.068 2813.49,52.068C2812.77,52.068 2812.19,51.484 2812.19,50.764C2812.19,50.043 2812.77,49.459 2813.49,49.459ZM2824.36,49.626L2828.38,53.214L2823.92,55.473L2821.77,50.799L2824.36,49.626ZM2786.45,50.663L2791.12,51.214L2790.93,56.246L2785.57,55.528L2786.45,50.663ZM2770.25,50.717L2775.45,53.004L2773.57,58.253L2768.25,55.963L2770.25,50.717ZM2783.64,51.125C2785.56,51.425 2785.05,53.691 2783.64,53.734C2782.93,53.734 2782.34,53.15 2782.34,52.429C2782.34,51.709 2782.93,51.125 2783.64,51.125ZM2800.45,51.129L2801.09,56.165L2796.24,56.46L2796.14,51.342L2800.45,51.129ZM2803.78,51.703C2804.5,51.703 2805.09,52.287 2805.09,53.008C2805.09,53.728 2804.5,54.312 2803.78,54.312C2803.07,54.312 2802.48,53.728 2802.48,53.008C2802.48,52.287 2803.07,51.703 2803.78,51.703ZM2736.28,52.176C2737.02,52.176 2737.62,52.776 2737.62,53.519C2737.62,54.262 2737.02,54.866 2736.28,54.866C2735.54,54.866 2734.94,54.262 2734.94,53.519C2734.94,52.776 2735.54,52.176 2736.28,52.176ZM2793.7,52.127C2794.42,52.127 2795,52.711 2795,53.431C2795,54.152 2794.42,54.736 2793.7,54.736C2792.98,54.736 2792.4,54.152 2792.4,53.431C2792.4,52.711 2792.98,52.127 2793.7,52.127ZM2816.54,52.449L2818.43,57.624L2813.13,59.337L2811.63,54.021L2816.54,52.449ZM2820.26,52.589C2820.98,52.589 2821.56,53.173 2821.56,53.893C2821.56,54.614 2820.98,55.198 2820.26,55.198C2819.54,55.198 2818.96,54.614 2818.96,53.893C2818.96,53.173 2819.54,52.589 2820.26,52.589ZM2829.42,54.056L2832.84,56.483L2831.14,57.43C2830.7,56.363 2829.91,55.099 2829.42,54.056ZM2780.48,54.526L2785.53,55.625L2784.76,60.932L2779.25,59.83L2780.48,54.526ZM2765.45,54.817L2768.13,56.083L2766.36,60.505L2762.02,58.187L2765.45,54.817ZM2777.45,55.105C2778.16,55.105 2778.75,55.689 2778.75,56.409C2778.75,57.13 2778.16,57.714 2777.45,57.714C2776.73,57.714 2776.14,57.13 2776.14,56.409C2776.14,55.689 2776.73,55.105 2777.45,55.105ZM2806.64,55.396L2807.54,60.703L2801.84,61.507L2801.49,56.095L2806.64,55.396ZM2827.98,55.497C2828.7,55.497 2829.28,56.081 2829.28,56.801C2829.28,57.522 2828.7,58.106 2827.98,58.106C2827.26,58.106 2826.68,57.522 2826.68,56.801C2826.68,56.081 2827.26,55.497 2827.98,55.497ZM2823.94,55.536L2825.82,60.214L2820.25,62.552L2818.6,57.869L2823.94,55.536ZM2809.72,55.873C2810.43,55.873 2811.02,56.457 2811.02,57.178C2811.02,57.898 2810.43,58.482 2809.72,58.482C2809,58.482 2808.41,57.898 2808.41,57.178C2808.41,56.457 2809,55.873 2809.72,55.873ZM2790.88,56.405L2796.22,56.502L2796.16,61.868L2790.31,61.705L2790.88,56.405ZM2833.57,56.778L2835.66,58.238C2814.06,72.165 2783.71,73.891 2760.03,60.183C2760.03,60.183 2760.99,59.216 2761.55,58.649C2782.9,71.459 2814.07,69.661 2833.57,56.778ZM2787.99,57.384C2788.71,57.384 2789.29,57.968 2789.29,58.688C2789.29,59.409 2788.71,59.993 2787.99,59.993C2787.27,59.993 2786.69,59.409 2786.69,58.688C2786.69,57.968 2787.27,57.384 2787.99,57.384ZM2798.94,57.679C2799.66,57.679 2800.24,58.263 2800.24,58.983C2800.24,59.704 2799.66,60.288 2798.94,60.288C2798.22,60.288 2797.64,59.704 2797.64,58.983C2797.64,58.263 2798.22,57.679 2798.94,57.679ZM2773.53,58.397L2779.1,60.012L2778.15,64.423L2772.04,62.66L2773.53,58.397ZM2769.84,58.428C2770.56,58.428 2771.14,59.012 2771.14,59.733C2771.14,60.453 2770.56,61.037 2769.84,61.037C2769.12,61.037 2768.54,60.453 2768.54,59.733C2768.54,59.012 2769.12,58.428 2769.84,58.428ZM2813.13,59.368L2814.46,64.318L2808.3,65.638L2807.55,60.769L2813.13,59.368ZM2816.67,60.086C2817.39,60.086 2817.97,60.67 2817.97,61.391C2817.97,62.111 2817.39,62.695 2816.67,62.695C2815.95,62.695 2815.37,62.111 2815.37,61.391C2815.37,60.67 2815.95,60.086 2816.67,60.086ZM2736.16,60.855L2736.15,64.326C2735.13,63.481 2733.98,62.583 2732.8,61.674C2734,61.738 2735.12,61.405 2736.16,60.855L2736.16,60.855ZM2723.47,60.94C2723.75,60.938 2724.41,61.168 2725.2,61.165C2727.71,61.157 2732.39,61.942 2733.78,63.083C2734.24,63.462 2734.93,63.799 2735.31,64.411C2735.31,64.703 2734.9,64.711 2734.29,64.334C2733.13,63.61 2731.2,62.965 2728.61,62.606C2728.14,62.541 2728.08,62.56 2728.08,62.781C2728.08,63.053 2728.51,63.213 2729.88,63.437C2731.64,63.727 2732.01,63.9 2732.4,64.008C2733.45,64.295 2732.78,64.679 2731.7,64.782C2727.3,65.195 2724.01,63.298 2723.35,61.13C2723.3,60.988 2723.35,60.941 2723.47,60.94L2723.47,60.94ZM2784.76,61.018L2790.29,61.736L2790.04,66.38L2783.98,65.685L2784.76,61.018ZM2737.69,61.422C2738.66,62.183 2737.99,64.489 2737.47,65.168C2737.13,65.55 2736.33,65.348 2736.33,64.811C2736.45,64.33 2736.28,62.035 2736.39,61.325C2736.77,61.105 2737.34,61.167 2737.69,61.422L2737.69,61.422ZM2801.83,61.627L2802.12,66.415L2796.08,66.69L2796.12,61.989L2801.83,61.627ZM2781.46,61.95C2782.18,61.95 2782.76,62.534 2782.76,63.254C2782.76,63.975 2782.18,64.559 2781.46,64.559C2780.74,64.559 2780.16,63.975 2780.16,63.254C2780.16,62.534 2780.74,61.95 2781.46,61.95ZM2747.81,62.016C2748.03,65.529 2742.65,67.913 2740.64,66.834C2739.75,66.357 2740.12,66.062 2741.89,65.704C2744.17,65.097 2745.68,64.506 2745.68,64.077C2745.68,63.815 2745.34,63.846 2744.4,64.194C2742.97,64.677 2741.47,64.885 2740.1,65.502C2739.08,65.969 2738.68,66.132 2738.45,65.852C2737.97,65.264 2740.24,63.781 2742.61,63.386C2744.38,63.09 2746.16,62.144 2747.81,62.016ZM2805.16,62.454C2805.88,62.454 2806.46,63.039 2806.46,63.759C2806.46,64.48 2805.88,65.064 2805.16,65.064C2804.44,65.064 2803.86,64.48 2803.86,63.759C2803.86,63.039 2804.44,62.454 2805.16,62.454ZM2793.06,63.41C2793.78,63.41 2794.36,63.994 2794.36,64.714C2794.36,65.435 2793.78,66.019 2793.06,66.019C2792.34,66.019 2791.76,65.435 2791.76,64.714C2791.76,63.994 2792.34,63.41 2793.06,63.41ZM2822.05,65.627C2830.76,73.94 2840.31,83.512 2848.19,91.384C2848.18,95.504 2848.15,103.743 2848.15,103.743L2818.08,132.393C2812.64,129.061 2808.03,124.895 2803.78,117.496C2804.26,117.081 2804.68,116.818 2805.05,116.366L2803.48,117.305C2797.93,108.412 2795.58,90.692 2805,76.487L2795.48,76.836L2797.03,73.586L2807.4,73.019L2811.59,68.511C2811.59,68.511 2812.91,68.265 2814.01,68.011C2815.11,67.758 2817.33,67.119 2818.97,66.59C2820.6,66.06 2821.99,65.626 2822.05,65.627L2822.05,65.627ZM2751.75,67.929C2751.75,67.929 2760.7,72.805 2765.67,82.571C2749.61,96.424 2743.55,112.555 2742.19,129.346C2733.44,121.147 2729.03,116.612 2721.13,108.651L2721.41,96.77L2751.75,67.929ZM2785.54,69.478C2783.23,74.441 2781.24,79.878 2779.45,85.704L2776.96,84.966C2776.96,84.966 2778.57,84.291 2779.29,83.864L2777.99,81.775L2780.45,80.765L2779,78.995L2781.48,77.55L2780.24,75.986L2782.52,74.844L2781.11,73.213L2783.49,71.878L2782.25,70.317L2785.54,69.478ZM2786.31,69.49C2786.31,69.49 2786.63,69.551 2787,69.626C2787.09,69.591 2786.55,70.926 2786.61,70.973C2787.48,71.153 2787.53,71.104 2787.79,71.183L2788.46,69.808L2789.54,70.014C2787.35,74.981 2785,80.416 2783.65,86.298L2782.37,86.03C2782.37,86.03 2782.75,84.79 2782.75,84.625C2782.6,84.593 2781.87,84.288 2781.65,84.198C2781.57,84.392 2781.12,85.828 2781.12,85.828L2780.1,85.801C2781.76,79.378 2784.66,72.256 2786.31,69.49L2786.31,69.49ZM2790.48,69.68C2790.48,69.68 2792.75,71.567 2792.75,71.567L2790.17,72.573L2791.51,74.355L2788.77,75.345L2790.34,77.197L2787.64,78.199L2789.25,80.439L2786.43,81.39L2788.21,83.359L2785.67,84.551L2787.19,86.061C2787.19,86.061 2785.61,86.585 2785.52,86.609C2785.26,86.674 2784.2,86.411 2784.2,86.411C2785.8,80.679 2787.79,74.868 2790.48,69.68ZM2735.17,70.635C2734.54,71.044 2734.9,71.933 2734.11,72.693C2733.98,72.829 2733.97,73.142 2733.92,73.415C2733.89,73.623 2733.26,76.103 2733.26,76.103C2733.26,76.103 2733.42,75.913 2733.67,75.122C2733.88,74.447 2734.07,73.166 2734.18,72.952C2734.76,72.774 2734.85,70.876 2735.44,71.136C2735.78,71.286 2735.71,71.596 2735.52,72.324C2735.1,73.779 2734.94,74.392 2735.66,73.4C2736.73,72.104 2736.84,70.934 2735.63,70.686C2735.5,70.661 2735.24,70.638 2735.17,70.635L2735.17,70.635ZM2751.41,71.175L2723.31,97.624L2723.22,107.494L2733.01,117.43L2739.95,124.174C2742.47,109.069 2748.24,94.66 2762.47,82.19C2760.3,78.675 2756.56,74.248 2751.41,71.175L2751.41,71.175ZM2827.15,71.447C2810.64,79.226 2806.85,95.179 2811.96,109.621C2819.83,99.477 2826,89.947 2827.15,71.447ZM2768.39,72.254L2775.89,74.673L2773.06,84.326L2766.31,82.272L2765.62,80.563L2768.39,72.254ZM2826.32,72.507C2825.61,85.414 2820.75,98.021 2812.3,107.913C2808.03,97.349 2810.6,80.459 2826.32,72.507ZM2785.94,72.577L2785.47,73.776L2786.5,74.071L2786.95,72.852L2785.94,72.577ZM2784.9,75.411L2784.47,76.63L2785.54,76.991L2785.94,75.753L2784.9,75.411ZM2829.13,75.632C2826.82,93.537 2817.17,109.83 2806.98,118.132C2810.22,123.415 2814.05,126.812 2817.93,129.648L2846.64,102.073L2846.53,92.875L2829.13,75.632ZM2753.25,80.385C2753.07,81.039 2753.01,81.372 2753.01,81.372C2753.01,81.372 2753.34,81.066 2754.21,80.587C2759.86,77.766 2758.04,82.056 2755.38,83.643C2754.78,83.96 2754.17,84.337 2754.17,84.337C2754.17,84.337 2754.74,84.465 2755.35,84.578C2758.77,85.292 2758.04,87.3 2754.47,86.987C2753.95,86.941 2753.32,86.841 2753.32,86.87C2753.32,86.9 2753.54,87.654 2753.79,88.278C2754.99,91.318 2752.74,91.554 2751.27,89.622C2751.06,89.353 2750.6,88.61 2750.6,88.61C2750.6,88.61 2750.45,89.172 2750.36,89.715C2749.08,94.479 2745.93,94.358 2747.11,89.525C2747.26,89.025 2747.44,88.131 2747.44,88.131C2747.44,88.131 2746.73,88.56 2745.96,88.905C2741.88,90.73 2741.22,88.852 2744.92,86.105C2745.98,85.323 2746.33,85.017 2746.33,85.017C2745.68,84.966 2745.07,84.865 2744.54,84.731C2741.58,83.988 2740.8,82.217 2745.53,82.3C2746.23,82.314 2746.94,82.361 2746.94,82.361C2746.94,82.361 2746.71,81.343 2746.46,80.576C2745.32,77.024 2747.62,76.601 2749.56,79.783C2749.98,80.46 2750.1,80.464 2750.1,80.464C2750.04,80.466 2750.22,79.252 2750.69,78.13C2753.04,73.765 2753.96,77.749 2753.25,80.385L2753.25,80.385ZM2804.03,76.852C2802.06,80.345 2800.34,83.818 2799.52,87.44L2791.85,87.308C2792.38,84.096 2793.74,80.756 2795.35,77.224C2798.48,77.139 2801.29,77.001 2804.03,76.852ZM2783.78,78.401L2783.34,79.686L2784.45,80.028L2784.85,78.777L2783.78,78.401ZM2726.4,80.812C2725.58,82.953 2725.3,85.338 2724.85,87.249C2724.66,88.357 2724.85,88.819 2725.51,89.066C2726.46,89.419 2727.82,88.939 2728.58,87.847C2729.01,87.232 2729.32,85.961 2729.38,83.716L2729.46,81.717C2728.29,81.499 2727.49,81.186 2726.4,80.812ZM2782.74,81.091L2782.37,82.272L2783.44,82.672L2783.86,81.48L2782.74,81.091ZM2832.43,81.534C2833.74,81.566 2833.98,81.684 2835.16,82.384L2837.44,84.737C2836.85,85.311 2836.47,86.117 2836.47,87.013C2836.47,88.753 2837.88,90.165 2839.62,90.165C2840.48,90.165 2841.82,89.257 2841.82,89.257L2845.44,93.01C2843.33,93.936 2841.27,91.807 2840.49,90.964C2840.31,90.766 2840.26,90.631 2840.26,90.631C2840.26,90.631 2840.29,90.734 2840.22,91.151C2839.92,92.822 2838.27,97.755 2836.7,97.492C2834.93,97.196 2836.73,90.145 2836.75,90.307C2835.53,91.598 2829.6,92.971 2830.02,91.531C2830.84,88.669 2835.28,87.566 2835.86,87.069C2833.5,85.646 2830.51,81.7 2832.43,81.534L2832.43,81.534ZM2726.69,81.627C2727.44,81.68 2727.95,81.77 2728.47,81.984C2728.7,82.048 2728.71,82.247 2728.74,82.435C2728.75,83.28 2728.96,85.76 2728.18,85.786C2727.31,85.767 2726.49,85.954 2725.92,86.391C2725.46,86.743 2725.31,86.489 2725.43,85.588C2725.55,84.714 2725.99,82.879 2726.17,82.136C2726.2,81.829 2726.45,81.613 2726.69,81.627ZM2750.13,81.658C2748.39,81.658 2746.99,83.07 2746.99,84.811C2746.99,86.552 2748.39,87.964 2750.13,87.964C2751.87,87.964 2753.28,86.552 2753.28,84.811C2753.28,83.07 2751.87,81.658 2750.13,81.658ZM2750.13,82.761C2751.26,82.761 2752.18,83.68 2752.18,84.811C2752.18,85.942 2751.26,86.857 2750.13,86.857C2749,86.857 2748.09,85.942 2748.09,84.811C2748.09,83.68 2749,82.761 2750.13,82.761ZM2766.36,82.799C2773.57,95.273 2772.73,112.394 2764.23,124.849L2773.37,124.209L2772.17,126.554L2762.43,127.505C2760.94,128.871 2759.59,130.432 2758.12,131.893L2758.11,132.409C2754.77,133.186 2751.43,134.081 2748.02,135.311C2746.22,133.542 2742.85,130.006 2742.87,129.918L2743.08,128.773C2766.25,116.925 2759.47,93.163 2757.84,91.209C2760.33,88.218 2763.29,85.403 2766.36,82.799L2766.36,82.799ZM2830.65,85.067C2831.59,85.067 2832.35,85.831 2832.35,86.772C2832.35,87.712 2831.59,88.476 2830.65,88.476C2829.72,88.476 2828.95,87.712 2828.95,86.772C2828.95,85.831 2829.72,85.067 2830.65,85.067ZM2838.21,85.525L2841.05,88.465C2840.68,88.83 2840.18,89.059 2839.62,89.059C2838.49,89.059 2837.57,88.144 2837.57,87.012C2837.57,86.429 2837.82,85.899 2838.21,85.525ZM2740.43,85.89C2741.37,85.89 2742.13,86.65 2742.13,87.591C2742.13,88.532 2741.37,89.296 2740.43,89.296C2739.49,89.296 2738.73,88.532 2738.73,87.591C2738.73,86.65 2739.49,85.89 2740.43,85.89ZM2727.79,86.605C2728.58,86.872 2728.4,87.617 2727.37,88.272C2726.7,88.697 2726.1,88.79 2725.51,88.476C2724.4,87.881 2726.7,86.216 2727.79,86.605ZM2740.92,90.775L2730.68,100.703C2731.33,99.053 2731.35,97.408 2731.4,95.76C2734.48,96.078 2735.77,94.512 2735.32,91.287C2737.31,91.406 2739.37,91.196 2740.92,90.775ZM2757.32,91.909C2762.07,105.476 2757.95,119.834 2743.1,128.15C2743.71,115.149 2749.16,102.719 2757.32,91.909ZM2770.85,93.097C2778.99,95.234 2788.27,96.231 2797.89,96.238C2797.97,99.911 2798.14,103.795 2798.89,107.544C2790.69,105.393 2781.53,104.393 2771.52,104.57C2771.94,100.688 2771.27,96.285 2770.85,93.097ZM2831.26,95.104L2822.58,105.273L2822.95,99.721C2825.87,100.094 2826.91,98.548 2826.48,95.496C2828.07,95.694 2829.66,95.414 2831.26,95.104ZM2746.96,95.667L2746.27,99.728C2744.54,99.775 2742.84,100.392 2742.86,104.267L2737.69,104.205L2746.96,95.667ZM2842.43,96.416C2843.37,96.416 2844.13,97.18 2844.13,98.121C2844.13,99.062 2843.37,99.825 2842.43,99.825C2841.5,99.825 2840.74,99.062 2840.74,98.121C2840.74,97.18 2841.5,96.416 2842.43,96.416ZM2739.09,96.933C2740.02,96.933 2740.79,97.697 2740.79,98.637C2740.79,99.578 2740.02,100.338 2739.09,100.338C2738.15,100.338 2737.39,99.578 2737.39,98.637C2737.39,97.697 2738.15,96.933 2739.09,96.933ZM2838.64,98.68L2837.74,104.83C2835.37,104.622 2833.4,104.987 2834.01,109.156C2832.01,108.959 2829.23,109.433 2827.37,109.594L2838.64,98.68ZM2830.17,99.794C2831.11,99.794 2831.87,100.558 2831.87,101.499C2831.87,102.439 2831.11,103.199 2830.17,103.199C2829.23,103.199 2828.47,102.439 2828.47,101.499C2828.47,100.558 2829.23,99.794 2830.17,99.794ZM2726.63,101.114C2727.57,101.114 2728.33,101.878 2728.33,102.819C2728.33,103.76 2727.57,104.52 2726.63,104.52C2725.69,104.52 2724.93,103.76 2724.93,102.819C2724.93,101.878 2725.69,101.114 2726.63,101.114ZM2732.26,103.13C2734.43,103.618 2733.43,108.689 2732.94,110.068C2732.91,110.105 2739,106.869 2739.36,108.297C2739.6,111.162 2734.32,113.159 2734.32,113.159C2734.32,113.159 2737.88,116.258 2737.98,118.206C2737.99,119.466 2736.49,119.233 2734.55,117.635C2733.72,116.817 2733.07,116.204 2732.5,115.636C2733.17,115.058 2733.59,114.201 2733.59,113.248C2733.59,111.507 2732.18,110.095 2730.45,110.095C2729.49,110.095 2728.63,110.527 2728.05,111.206C2727.6,110.77 2727.09,110.263 2726.41,109.614C2725.28,108.561 2724.49,107.725 2724.61,107.346C2726.09,106.301 2729.03,109.11 2729.3,109.365C2729.08,108.818 2730.71,103.421 2732.26,103.13ZM2729.3,109.365C2729.31,109.394 2729.33,109.412 2729.35,109.412C2729.35,109.412 2729.31,109.377 2729.3,109.365ZM2821.81,107.09C2822.84,107.076 2822.78,109.431 2822.41,110.654C2822.16,111.587 2821.91,112.351 2821.91,112.351C2821.91,112.351 2822.78,111.67 2823.17,111.489C2825.98,110.17 2827.02,111.664 2825.61,113.395C2824.93,114.286 2824,114.484 2823.24,115.232C2824.32,115.281 2825.55,115.519 2826.48,116.067C2827.2,116.499 2827.76,117.023 2827.76,117.348C2827.76,118.076 2825.98,118.468 2824.31,118.28C2823.6,118.295 2822.26,117.915 2822.26,117.915C2822.26,117.915 2822.82,118.848 2823.02,119.406C2823.64,121.139 2823.42,123.168 2822.52,123.164C2821.02,122.761 2820.28,121.081 2819.69,119.876C2819.21,121.22 2818.74,122.658 2817.66,123.657C2816.6,124.648 2816.05,123.825 2816.1,122.147C2816.12,121.479 2816.61,119.487 2816.61,119.487C2810.28,121.629 2810.76,118.732 2815.69,116.194C2812.65,114.74 2810.8,113.432 2815.98,113.135C2815.84,113.011 2814.94,110.233 2815.9,109.583C2816.8,108.978 2818.72,111.054 2818.81,111.155C2818.77,110.95 2819.31,109.323 2820.22,108.2C2820.92,107.409 2821.44,107.095 2821.81,107.09ZM2815.98,113.135C2815.99,113.141 2815.99,113.142 2815.99,113.135C2815.99,113.135 2815.98,113.135 2815.98,113.135ZM2843.68,111.3C2842.58,111.401 2841.89,112.381 2841.38,113.236C2841.28,113.409 2841.09,113.471 2841.02,113.7C2840.56,115.174 2840.16,116.939 2839.92,119.137C2840.62,119.424 2842.19,119.91 2842.89,119.649C2843.08,119.567 2843.02,119.059 2843.09,118.892C2844.19,116.119 2844.73,114.045 2844.73,112.771C2844.73,111.744 2844.38,111.237 2843.68,111.3ZM2730.45,111.174C2731.58,111.174 2732.5,112.093 2732.5,113.225C2732.5,113.875 2732.2,114.454 2731.72,114.828C2730.41,113.511 2729.73,112.822 2728.85,111.955C2729.22,111.48 2729.8,111.174 2730.45,111.174ZM2844.07,112.15C2844.35,112.823 2843.46,113.553 2842.31,113.549C2841.62,113.546 2841.4,113.643 2841.71,113.049C2842.07,112.326 2843.54,110.864 2844.07,112.15ZM2828.65,111.675C2829.59,111.675 2830.35,112.439 2830.35,113.38C2830.35,114.32 2829.59,115.08 2828.65,115.08C2827.71,115.08 2826.95,114.32 2826.95,113.38C2826.95,112.439 2827.71,111.675 2828.65,111.675ZM2739.02,111.796C2739.96,111.796 2740.72,112.556 2740.72,113.496C2740.72,114.437 2739.96,115.201 2739.02,115.201C2738.09,115.201 2737.33,114.437 2737.33,113.496C2737.33,112.556 2738.09,111.796 2739.02,111.796ZM2819.41,112.487C2817.67,112.487 2816.26,113.899 2816.26,115.64C2816.26,117.38 2817.67,118.792 2819.41,118.792C2821.14,118.792 2822.55,117.38 2822.55,115.64C2822.55,113.899 2821.14,112.487 2819.41,112.487ZM2777.38,112.91C2776.55,116.543 2775.28,120.016 2773.67,123.452C2770.64,123.635 2767.36,123.777 2765.2,124.084C2768.8,117.764 2768.89,116.278 2770.22,112.929L2777.38,112.91ZM2782.58,113.423C2783.44,113.523 2784.37,113.652 2785.21,113.815C2783.66,119.275 2781.62,124.881 2778.97,130.277L2777.38,130.029L2776.62,129.089L2779.16,128.072L2777.18,126.045L2780.46,125.051L2778.44,123.056L2781.68,122.244L2779.95,120.132L2782.86,118.994L2781.01,116.603L2784.11,115.748L2782.58,113.423ZM2819.41,113.59C2820.53,113.59 2821.45,114.508 2821.45,115.64C2821.45,116.771 2820.53,117.686 2819.41,117.686C2818.28,117.686 2817.36,116.771 2817.36,115.64C2817.36,114.508 2818.28,113.59 2819.41,113.59ZM2785.79,113.9L2786.87,114.075L2786.54,115.236L2787.77,115.5L2788.17,114.246C2788.17,114.246 2789.16,114.337 2789.26,114.417C2787.97,119.688 2783.41,130.72 2783.36,130.662L2782.18,130.487L2782.49,129.373L2781.4,129.217L2781.4,129.206L2780.87,130.417L2779.71,130.32C2782.53,123.859 2784.45,118.898 2785.79,113.9L2785.79,113.9ZM2843.2,114.319C2844.06,114.315 2844.01,114.763 2843.38,116.401C2842.79,117.939 2842.57,118.555 2842.29,118.755C2841.6,119.24 2840.13,118.833 2840.25,118.125C2840.64,115.826 2840.78,114.846 2841.37,114.534C2841.99,114.412 2842.59,114.322 2843.2,114.319ZM2790.14,114.51L2792.96,115.057L2790.6,116.463L2792.1,118.218L2789.2,119.456L2790.96,121.281L2788.16,122.427L2789.86,124.434L2786.96,125.661L2788.94,127.377L2785.68,128.41L2786.91,130.312L2785.68,131L2784.17,130.763C2786.68,124.884 2788.3,120.048 2790.14,114.51ZM2797.07,115.915L2802.59,117.422L2803.69,119.398L2801.1,128.169L2793.74,126.003L2797.07,115.915ZM2786.09,116.762L2785.56,118.202L2786.78,118.455L2787.25,116.971L2786.09,116.762ZM2785.02,120.07L2784.49,121.51L2785.64,121.735L2786.17,120.279L2785.02,120.07ZM2783.94,122.978L2783.41,124.411L2784.52,124.64L2785.05,123.203L2783.94,122.978ZM2835.83,125.614C2835.83,125.614 2835.27,126.024 2835.12,126.205C2835.24,126.534 2835.6,127.039 2835.55,127.371C2835.5,127.62 2835.22,127.822 2834.8,128.266C2833.76,129.479 2833.4,129.347 2834,128.053C2834.2,127.646 2834.29,127.268 2834.29,127.268C2834.05,127.606 2833.87,128.006 2833.7,128.323C2833.36,128.985 2833.04,129.61 2833.04,129.61C2833.7,129.84 2834.14,130.333 2834.57,130.653C2834.57,130.653 2834.79,130.066 2834.94,129.505C2835.15,128.722 2835.56,128.399 2836.07,128.13C2836.39,127.96 2836.7,127.651 2836.7,127.651C2836.14,127.08 2836.08,126.263 2835.83,125.614ZM2782.79,125.968L2782.22,127.493L2783.33,127.765L2783.95,126.208L2782.79,125.968ZM2720.3,129.804C2720.2,135.88 2720.41,139.88 2720.19,146.433L2736.6,167.753L2734.04,168.615C2734.04,168.615 2734.01,168.911 2733.88,168.949C2730.37,169.916 2724.68,170.879 2724.68,170.879C2728.91,180.562 2731.66,192.671 2729.76,204.767L2772.24,204.654L2720.3,129.804ZM2810.13,140.101L2808.67,141.572C2787.07,129.853 2757.32,129.899 2735.61,144.088L2733.84,142.787C2757.53,127.57 2786.68,127.665 2810.13,140.101ZM2721.1,131.935L2771.09,203.924L2765.22,204.01L2721.14,146.208L2721.1,131.935ZM2828.38,133.236C2828.38,133.236 2826.94,133.611 2825.72,134.001C2822.25,135.116 2820.62,137.13 2820.94,139.926C2821.04,140.752 2821.25,140.74 2822.67,139.844C2825.98,137.748 2826.19,137.655 2830.31,136.443C2830.63,136.349 2831.1,136.42 2831.1,136.42L2830.91,139.685C2824.03,139.659 2824.41,145.136 2826.39,147.982C2825.7,149.299 2824.18,153.895 2829.17,155.643C2831.66,156.14 2834.29,154.113 2834.21,154.008C2838.8,156.185 2844.13,152.536 2839.98,146.216C2841.54,143.459 2840.44,141.413 2838.95,139.654C2838.95,139.654 2839.2,139.676 2841.37,140.077C2844.66,140.687 2845.93,140.578 2845.93,140.578C2845.93,137.605 2843.47,136.276 2838.35,135.872C2834.72,136.386 2828.38,133.21 2828.38,133.236ZM2773.04,133.582C2773.29,133.58 2773.53,133.58 2773.78,133.586L2773.54,138.664L2767.96,138.92L2767.6,133.861C2769.52,133.728 2771.3,133.588 2773.04,133.582L2773.04,133.582ZM2779.73,133.706L2785.72,134.436L2784.81,139.184L2779.3,138.59L2779.73,133.706ZM2828.27,133.764C2828.77,133.821 2828.61,134.396 2827.93,134.529C2826.85,134.74 2824.09,136.351 2824.09,136.769C2824.09,137.039 2824.23,137 2825.24,136.459C2825.74,136.188 2826.8,135.727 2827.58,135.43C2828.36,135.132 2829.25,134.774 2829.56,134.634C2830.49,134.214 2830.95,134.504 2830.61,135.298C2830.39,135.822 2830.31,135.864 2828.16,136.548C2826.21,137.167 2825.85,137.327 2824.62,138.12C2824.15,138.417 2823.34,138.889 2822.8,139.169C2821.53,139.829 2821.27,139.831 2821.27,138.944C2821.2,136.313 2824.11,134.339 2828.04,133.772C2828.14,133.748 2828.27,133.761 2828.27,133.765L2828.27,133.764ZM2776.47,134.378C2777.22,134.378 2777.83,134.986 2777.83,135.736C2777.83,136.487 2777.22,137.095 2776.47,137.095C2775.72,137.095 2775.12,136.487 2775.12,135.736C2775.12,134.986 2775.72,134.378 2776.47,134.378ZM2761.66,134.739L2762.1,139.347L2756.62,140.761L2755.36,136C2757.46,135.485 2759.56,135.123 2761.66,134.739ZM2832.36,135.088C2833.86,135.318 2833.74,138.772 2832.97,139.371C2831.79,140.225 2831.06,138.438 2831.59,136.066C2831.74,135.353 2832.01,135.104 2832.36,135.088ZM2764.77,135.274C2765.52,135.274 2766.13,135.883 2766.13,136.633C2766.13,137.384 2765.52,137.992 2764.77,137.992C2764.02,137.992 2763.42,137.384 2763.42,136.633C2763.42,135.883 2764.02,135.274 2764.77,135.274ZM2791.58,135.67L2797.79,137.367L2796.27,142.182L2790.45,140.539L2791.58,135.67ZM2788.2,135.764C2788.95,135.764 2789.56,136.372 2789.56,137.123C2789.56,137.873 2788.95,138.482 2788.2,138.482C2787.45,138.482 2786.85,137.873 2786.85,137.123C2786.85,136.372 2787.45,135.764 2788.2,135.764ZM2838.96,136.167C2841.63,136.196 2845.16,137.54 2845.17,139.611C2845.11,140.2 2839.57,139.418 2837.01,138.384C2836.1,138.018 2834.99,136.901 2834.99,136.435C2834.99,136.158 2835.53,136.178 2835.75,136.447C2836.11,136.886 2837.39,137.345 2840.32,138.086C2842.58,138.654 2842.8,138.677 2842.8,138.334C2842.8,138.022 2841.47,137.592 2840.03,137.352C2839.3,137.233 2838.63,137.013 2837.51,136.917C2836.99,136.915 2836.87,136.588 2837.3,136.365C2837.77,136.225 2838.34,136.161 2838.96,136.167L2838.96,136.167ZM2834.24,137.239C2834.91,137.556 2835.16,138.188 2835.53,138.52C2835.07,138.74 2834.86,138.962 2834.11,139.017C2834.12,138.522 2833.99,137.93 2834.24,137.239ZM2752.99,137.612C2753.74,137.612 2754.34,138.22 2754.34,138.971C2754.34,139.721 2753.74,140.33 2752.99,140.33C2752.24,140.33 2751.63,139.721 2751.63,138.971C2751.63,138.22 2752.24,137.612 2752.99,137.612ZM2749.34,137.996L2750.8,142.702L2745.56,144.989L2743.7,140.326C2745.51,139.37 2747.49,138.676 2749.34,137.996ZM2773.59,138.765C2773.59,138.765 2777.76,138.771 2779.21,138.788L2778.87,144.1L2773.66,144.139L2773.59,138.765ZM2768.01,139.056L2768.3,144.36L2763.28,145.036L2762.28,139.701L2768.01,139.056ZM2799.74,139.103C2800.49,139.103 2801.1,139.711 2801.1,140.462C2801.1,141.212 2800.49,141.821 2799.74,141.821C2798.99,141.821 2798.39,141.212 2798.39,140.462C2798.39,139.711 2798.99,139.103 2799.74,139.103ZM2836.06,139.227C2839.12,139.24 2842.03,142.765 2839.01,146.457C2843.97,150.277 2838.58,156.699 2834.2,152.956C2827.94,159.121 2824.44,150.75 2827.03,148.53C2823.2,142.227 2827.91,138.244 2832.76,141.025C2833.65,139.755 2834.86,139.222 2836.06,139.227ZM2784.9,139.378L2790.41,140.605L2789.3,145.851L2783.92,144.756L2784.9,139.378ZM2803.13,139.507L2808.16,142.015L2804.26,145.781L2801.36,144.333L2803.13,139.507ZM2770.85,140.101C2771.59,140.101 2772.2,140.709 2772.2,141.46C2772.2,142.21 2771.59,142.818 2770.85,142.818C2770.1,142.818 2769.49,142.21 2769.49,141.46C2769.49,140.709 2770.1,140.101 2770.85,140.101ZM2781.72,140.271C2782.47,140.271 2783.08,140.88 2783.08,141.63C2783.08,142.381 2782.47,142.989 2781.72,142.989C2779.73,142.676 2780.27,140.316 2781.72,140.271ZM2756.65,141.036L2757.87,146.282L2752.77,148.01L2750.95,142.9L2756.65,141.036ZM2760.15,141.409C2760.9,141.409 2761.51,142.017 2761.51,142.768C2761.51,143.518 2760.9,144.127 2760.15,144.127C2759.4,144.127 2758.8,143.518 2758.8,142.768C2758.8,142.017 2759.4,141.409 2760.15,141.409ZM2835.66,143.828C2835.27,144.306 2834.77,144.869 2834.77,144.869C2833.5,144.345 2832.27,144.554 2831.45,145.12C2831.45,145.12 2830.57,144.421 2829.77,143.774C2828.39,142.653 2827.93,142.396 2827.93,142.865C2827.93,142.962 2828.4,143.442 2828.97,143.933C2830.53,145.272 2830.85,145.754 2830.85,145.754C2830.47,146.969 2830.48,147.921 2831.19,148.942C2831.19,148.942 2831.22,149.075 2830.68,149.655C2829.68,150.706 2828.66,152.33 2828.89,152.569C2829.18,152.865 2830.02,152.154 2831.06,150.742C2831.8,149.735 2832.03,149.714 2832.03,149.714C2833.29,150.056 2833.99,150.367 2835.26,149.318C2835.26,149.318 2835.74,149.464 2836.7,150.254C2838.18,151.485 2838.72,151.751 2838.88,151.333C2839.01,150.993 2838.82,150.765 2837.56,149.803C2836.74,149.177 2835.82,148.444 2835.82,148.444C2836.09,148.003 2836.28,146.435 2835.36,145.361C2835.36,145.361 2835.4,145.432 2836.76,143.669C2837.66,142.496 2837.82,142.348 2837.52,142.096C2837.12,141.573 2835.79,143.661 2835.66,143.828ZM2796.32,142.325L2801.29,144.418L2799.51,149.625L2794.71,147.66L2796.32,142.325ZM2741.64,142.675C2742.39,142.675 2743,143.283 2743,144.034C2743,144.784 2742.39,145.393 2741.64,145.393C2740.89,145.393 2740.29,144.784 2740.29,144.034C2740.29,143.283 2740.89,142.675 2741.64,142.675ZM2792.48,142.815C2793.22,142.815 2793.83,143.423 2793.83,144.174C2793.83,144.924 2793.22,145.532 2792.48,145.532C2791.73,145.532 2791.12,144.924 2791.12,144.174C2791.12,143.423 2791.73,142.815 2792.48,142.815ZM2738.17,143.187L2739.8,147.225L2736.1,144.461L2738.17,143.187ZM2778.95,144.228L2783.9,144.814L2783.12,149.543L2778.85,149.155L2778.95,144.228ZM2773.55,144.24L2773.5,149.101L2768.8,149.303L2768.4,144.449L2773.55,144.24ZM2749.36,145.125C2750.11,145.125 2750.71,145.733 2750.71,146.484C2750.71,147.234 2750.11,147.843 2749.36,147.843C2748.61,147.843 2748,147.234 2748,146.484C2748,145.733 2748.61,145.125 2749.36,145.125ZM2745.61,145.222L2747.52,150.106L2744.55,151.543L2740.58,147.769L2745.61,145.222ZM2763.3,145.284L2764.07,149.932L2759.17,151.147L2757.98,146.418L2763.3,145.284ZM2833.39,145.331C2834.45,145.331 2835.32,146.198 2835.32,147.268C2835.32,148.338 2834.45,149.205 2833.39,149.205C2832.32,149.205 2831.45,148.338 2831.45,147.268C2831.45,146.198 2832.32,145.331 2833.39,145.331ZM2776.01,145.478C2776.76,145.478 2777.37,146.086 2777.37,146.837C2777.37,147.588 2776.76,148.196 2776.01,148.196C2775.27,148.196 2774.66,147.588 2774.66,146.837C2774.66,146.086 2775.27,145.478 2776.01,145.478ZM2789.37,145.979L2794.6,147.676L2792.84,151.873L2788.32,150.646L2789.37,145.979ZM2766.2,146.154C2766.95,146.154 2767.55,146.762 2767.55,147.513C2767.55,148.263 2766.95,148.872 2766.2,148.872C2765.45,148.872 2764.84,148.263 2764.84,147.513C2764.84,146.762 2765.45,146.154 2766.2,146.154ZM2786.08,146.655C2786.83,146.655 2787.43,147.263 2787.43,148.013C2787.43,148.764 2786.83,149.372 2786.08,149.372C2785.33,149.372 2784.72,148.764 2784.72,148.013C2784.72,147.263 2785.33,146.655 2786.08,146.655ZM2752.88,148.246L2754.68,152.401L2749.76,154.533L2747.62,150.296L2752.88,148.246ZM2756.36,148.495C2757.11,148.495 2757.72,149.104 2757.72,149.854C2757.72,150.605 2757.11,151.213 2756.36,151.213C2755.62,151.213 2755.01,150.605 2755.01,149.854C2755.01,149.104 2755.62,148.495 2756.36,148.495ZM2774.49,149.749C2782.56,149.732 2789.85,151.425 2795.7,153.853L2793.96,155.492C2774.98,148.953 2762.57,151.899 2749.84,157.495L2748.55,155.903C2757.55,151.491 2766.41,149.766 2774.49,149.749ZM2795.96,149.8C2796.71,149.8 2797.31,150.408 2797.31,151.158C2797.31,151.909 2796.71,152.517 2795.96,152.517C2795.21,152.517 2794.6,151.909 2794.6,151.158C2794.6,150.408 2795.21,149.8 2795.96,149.8ZM2746.49,152.781C2747.58,152.846 2747.69,154.883 2747.18,154.296L2745.97,152.89C2746.16,152.806 2746.34,152.772 2746.49,152.781ZM2797.24,153.624C2797.2,155.169 2795.74,165.523 2790.81,172.641C2790.51,169.041 2789.64,164.736 2788.68,161.863C2788.68,161.863 2793.98,156.954 2797.24,153.624ZM2734.22,169.314L2759.86,203.963L2757.16,203.944C2756.6,201.399 2755.79,198.796 2754.19,196.85C2752.89,195.27 2751.73,194.079 2749.4,193.018C2748,192.38 2747.82,192.515 2747.73,191.438C2747.31,185.377 2742.42,181.566 2738.67,180.116C2738.3,176.453 2736.66,172.849 2732.52,169.815L2734.22,169.314ZM2731.73,170.144C2734.07,171.757 2736.64,173.157 2738.02,179.518C2738.12,180.848 2738.21,180.707 2739.25,181.098C2743.33,182.298 2746.89,187.22 2747.2,191.523C2747.2,192.821 2747.62,192.936 2749.22,193.608C2751.18,194.433 2753.21,196.177 2754.36,197.894C2756.07,200.363 2756.68,204.102 2756.53,203.924L2755.12,203.932C2754.11,197.594 2750.14,195.065 2745.93,193.881C2746.26,184.932 2739.32,182.139 2736.89,181.719C2737.03,175.274 2732.87,172.615 2730.19,170.452C2730.69,170.255 2731.73,170.144 2731.73,170.144L2731.73,170.144ZM2727.58,171.033C2729.68,171.719 2731.27,174.648 2731.11,175.996C2733.87,176.345 2736.78,179.025 2736.14,181.817C2735.94,181.935 2735.61,181.959 2735.29,181.638C2736.03,176.223 2727.97,178.904 2731.19,182.822L2729.75,183.765C2728.59,178.346 2727.17,175.275 2725.62,171.361C2726.18,171.211 2727.58,171.033 2727.58,171.033ZM2734.26,182.387C2734.98,182.387 2735.55,182.97 2735.55,183.688C2735.55,184.406 2734.98,184.988 2734.26,184.988C2733.54,184.988 2732.96,184.406 2732.96,183.688C2732.96,182.97 2733.54,182.387 2734.26,182.387ZM2741.18,188.232C2744.26,189.106 2745.26,192.23 2745.16,193.367L2744.48,193.352C2743.4,188.401 2737.77,191.094 2740.12,195.043C2737.11,196.157 2737.35,198.942 2738.24,200.043C2739.46,201.562 2742.58,201.514 2743.53,199.176C2746.45,202.969 2750.49,198.713 2746.93,195.177C2749.85,196.253 2750.31,200.17 2749.87,201.394C2751.23,201.857 2752.79,204.01 2752.58,203.998L2730.73,204.002C2730.73,204.002 2731.78,195.162 2730.66,188.491C2732.12,188.841 2733.09,189.194 2734.76,187.225C2737.47,189.472 2739.42,187.776 2739.28,185.835C2739.07,184.477 2738.37,183.803 2737.21,183.086C2739.58,182.502 2741.37,186.61 2741.18,188.232L2741.18,188.232ZM2743.62,194.46C2744.36,194.46 2744.96,195.06 2744.96,195.799C2744.96,196.539 2744.36,197.139 2743.62,197.139C2742.88,197.139 2742.28,196.539 2742.28,195.799C2742.28,195.06 2742.88,194.46 2743.62,194.46Z" style="fill-rule:nonzero;"/>
                <path id="path7198-0" d="M2709.72,31.623C2707.99,28.768 2706.17,25.993 2703.9,23.623C2706.17,21.252 2707.99,18.478 2709.72,15.623C2711.45,18.478 2713.27,21.252 2715.54,23.623C2713.27,25.993 2711.45,28.768 2709.72,31.623Z" style="fill:rgb(212,0,0);fill-rule:nonzero;"/>
                <path id="path7202-9" d="M2860.08,185.114C2858.35,182.26 2856.53,179.485 2854.26,177.114C2856.53,174.744 2858.35,171.969 2860.08,169.114C2861.81,171.969 2863.63,174.744 2865.9,177.114C2863.63,179.485 2861.81,182.26 2860.08,185.114Z" style="fill:rgb(212,0,0);fill-rule:nonzero;"/>
                <path id="path7204-2" d="M2743.67,40.2C2739.52,33.348 2735.16,26.689 2729.7,21C2735.16,15.311 2739.52,8.652 2743.67,1.8C2747.82,8.652 2752.19,15.311 2757.64,21C2752.19,26.689 2747.82,33.348 2743.67,40.2Z" style="fill:rgb(212,0,0);fill-rule:nonzero;"/>
                <path id="path7222-2" d="M2826.13,198.947C2821.98,192.095 2817.62,185.435 2812.16,179.747C2817.62,174.058 2821.98,167.399 2826.13,160.547C2830.28,167.399 2834.64,174.058 2840.1,179.747C2834.64,185.435 2830.28,192.095 2826.13,198.947Z" style="fill:rgb(212,0,0);fill-rule:nonzero;"/>
                <path id="path37-2-1-6-5" d="M2703.91,4.378L2701.7,4.378L2701.7,1.371L2703.91,1.371C2703.91,1.371 2703.92,-0.25 2703.99,-3.109C2704.12,-9.203 2704.27,-10.149 2706.04,-11.826C2709.52,-15.14 2715.36,-12.44 2715.29,-7.455C2715.19,-0.421 2715.26,6.286 2715.05,7.236C2714.69,8.909 2714.65,9.004 2714.8,9.309C2715.11,9.923 2717.74,10.189 2717.74,10.018L2717.74,12.98C2715.73,13.136 2714.89,12.947 2713.28,11.797C2712.28,12.768 2709.22,13.742 2706.78,12.596C2704.93,11.724 2703.53,9.473 2703.91,4.378ZM2711.36,9.629C2710.27,8.049 2708.43,5.893 2706.7,5.127C2706.59,6.944 2706.75,8.467 2707.39,9.286C2708.4,10.591 2710.04,10.889 2711.36,9.629ZM2712.27,-7.746C2711.46,-10.045 2709.37,-10.824 2707.85,-9.386C2706.9,-8.491 2706.74,-7.549 2706.72,-2.434C2706.71,0.721 2706.71,2.048 2706.71,2.048C2709.68,3.009 2712.45,6.466 2712.43,6.421L2712.5,-3.121C2712.55,-4.67 2712.48,-6.22 2712.27,-7.746L2712.27,-7.746Z" style="fill:rgb(212,0,0);fill-rule:nonzero;"/>
                <path id="path37-3-27-1-5" d="M2865.9,196.359L2868.1,196.359L2868.1,199.366L2865.9,199.366C2865.9,199.366 2865.88,200.987 2865.82,203.846C2865.68,209.94 2865.53,210.886 2863.76,212.563C2860.28,215.877 2854.45,213.177 2854.51,208.192C2854.62,201.158 2854.54,194.451 2854.75,193.501C2855.11,191.828 2855.15,191.733 2855,191.428C2854.7,190.814 2852.06,190.548 2852.06,190.719L2852.06,187.757C2854.07,187.601 2854.91,187.79 2856.52,188.94C2857.53,187.969 2860.59,186.995 2863.02,188.141C2864.87,189.013 2866.28,191.264 2865.9,196.359ZM2858.44,191.108C2859.53,192.688 2861.37,194.844 2863.1,195.61C2863.21,193.793 2863.05,192.27 2862.42,191.451C2861.4,190.146 2859.76,189.848 2858.44,191.108ZM2857.53,208.483C2858.34,210.782 2860.43,211.561 2861.95,210.123C2862.9,209.228 2863.06,208.286 2863.08,203.171C2863.09,200.016 2863.09,198.689 2863.09,198.689C2860.12,197.728 2857.35,194.271 2857.38,194.316L2857.3,203.858C2857.25,205.407 2857.32,206.957 2857.53,208.483L2857.53,208.483Z" style="fill:rgb(212,0,0);fill-rule:nonzero;"/>
            </g>
        </g>
    </g>
</svg>
