<?xml version="1.0" encoding="UTF-8" standalone="no"?><!DOCTYPE svg PUBLIC "-//W3C//DTD SVG 1.1//EN" "http://www.w3.org/Graphics/SVG/1.1/DTD/svg11.dtd"><svg width="100%" height="100%" viewBox="0 0 178 249" version="1.1" xmlns="http://www.w3.org/2000/svg" xmlns:xlink="http://www.w3.org/1999/xlink" xml:space="preserve" xmlns:serif="http://www.serif.com/" style="fill-rule:evenodd;clip-rule:evenodd;stroke-linejoin:round;stroke-miterlimit:2;"><rect id="queen-clubs" x="0" y="0" width="178" height="249" style="fill:none;"/><clipPath id="_clip1"><rect x="0" y="0" width="178" height="249"/></clipPath><g clip-path="url(#_clip1)"><rect x="-1956.21" y="0" width="2312.21" height="1245" style="fill:#fff;"/><g id="queen_clubs"><path id="path147-6-9-8-7-0-5-6-46-4-5" d="M164.273,209.077c3.131,-0.071 4.536,-3.744 2.216,-6.596c-0.336,-0.416 -0.371,-0.654 0.245,-0.255c1.562,1.088 4.556,0.373 4.709,-2.953c0.19,-4.097 -5.306,-5.277 -6.338,-0.921c-0.055,0.46 -0.413,0.45 -0.327,-0.203c0.094,-1.771 0.625,-3.426 1.355,-5.04l-3.723,0c0.73,1.614 1.261,3.269 1.355,5.04c0.087,0.653 -0.272,0.663 -0.327,0.203c-1.031,-4.356 -6.527,-3.176 -6.338,0.921c0.153,3.326 3.147,4.041 4.709,2.953c0.616,-0.399 0.581,-0.161 0.245,0.255c-2.319,2.852 -0.915,6.525 2.216,6.596c0,0 0,0 0,0l0.003,0Z" style="fill-rule:nonzero;"/><path id="path147-6-9-8-7-4-5-62-9-4-5" d="M13.728,39.923c-3.132,0.071 -4.536,3.744 -2.217,6.596c0.337,0.416 0.371,0.655 -0.245,0.255c-1.561,-1.088 -4.555,-0.373 -4.709,2.953c-0.189,4.097 5.307,5.277 6.339,0.921c0.054,-0.46 0.413,-0.45 0.326,0.203c-0.094,1.771 -0.625,3.426 -1.354,5.04l3.722,0c-0.729,-1.614 -1.26,-3.269 -1.355,-5.04c-0.086,-0.653 0.273,-0.663 0.327,-0.203c1.032,4.356 6.528,3.176 6.339,-0.921c-0.154,-3.326 -3.148,-4.041 -4.709,-2.953c-0.617,0.4 -0.582,0.161 -0.245,-0.255c2.319,-2.852 0.915,-6.525 -2.217,-6.596c-0.001,0 0,0 0,0l-0.002,0Z" style="fill-rule:nonzero;"/><path id="path37-5-2-4" d="M7.932,28.701l-2.199,0l0,-3.001l2.199,0c0,0 0.017,-1.618 0.08,-4.471c0.136,-6.082 0.288,-7.026 2.046,-8.7c3.473,-3.308 9.287,-0.612 9.219,4.362c-0.101,7.021 -0.028,13.714 -0.233,14.662c-0.364,1.67 -0.401,1.764 -0.252,2.069c0.304,0.613 2.931,0.879 2.931,0.707l0,2.957c-2.006,0.156 -2.84,-0.032 -4.445,-1.181c-1.002,0.969 -4.053,1.941 -6.48,0.797c-1.845,-0.87 -3.243,-3.116 -2.866,-8.201Zm7.432,5.24c-1.089,-1.576 -2.923,-3.728 -4.649,-4.492c-0.107,1.813 0.049,3.333 0.685,4.15c1.013,1.302 2.65,1.6 3.964,0.342Zm0.905,-17.34c-0.809,-2.294 -2.887,-3.072 -4.406,-1.637c-0.949,0.893 -1.101,1.833 -1.121,6.938c-0.012,3.149 -0.012,4.473 -0.012,4.473c2.956,0.96 5.719,4.41 5.695,4.365l0.072,-9.524c0.058,-1.545 -0.019,-3.092 -0.228,-4.615l0,0Z" style="fill-rule:nonzero;"/><path id="path37-3-2-7-4" d="M170.066,220.299l2.2,0l0,3.001l-2.199,0c0,0 -0.017,1.618 -0.081,4.471c-0.136,6.082 -0.288,7.026 -2.046,8.7c-3.472,3.308 -9.287,0.612 -9.218,-4.362c0.1,-7.021 0.028,-13.714 0.232,-14.662c0.364,-1.67 0.401,-1.764 0.253,-2.069c-0.305,-0.613 -2.931,-0.879 -2.931,-0.707l0,-2.957c2.006,-0.156 2.839,0.033 4.445,1.181c1.001,-0.969 4.052,-1.941 6.479,-0.797c1.845,0.87 3.244,3.117 2.866,8.201Zm-7.432,-5.24c1.09,1.576 2.924,3.728 4.649,4.492c0.108,-1.813 -0.049,-3.333 -0.685,-4.15c-1.013,-1.302 -2.65,-1.6 -3.964,-0.342Zm-0.904,17.341c0.808,2.293 2.887,3.071 4.405,1.636c0.949,-0.893 1.101,-1.833 1.121,-6.938c0.012,-3.149 0.012,-4.473 0.012,-4.473c-2.955,-0.96 -5.718,-4.41 -5.695,-4.365l-0.072,9.524c-0.057,1.545 0.02,3.092 0.228,4.616l0.001,0Z" style="fill-rule:nonzero;"/><g id="g5457-6-3-6"><g id="g3405-1-0-4"><path id="path3391-4-8-9-0" d="M95.266,228.329c0.44,-6.517 0.062,-13.514 0.358,-18.818c-0.201,-0.374 0.523,-1.403 0.561,-1.403c-0.43,-0.788 -0.575,-2.807 -0.032,-4.598c4.249,-16.253 11.943,-28.901 19.868,-40.696c6.445,19.493 -13.791,33.169 -18.047,50.201c-1.419,5.898 -1.207,10.016 -1.751,15.344l-0.957,-0.03Zm-33.645,0.248l-24.074,-37.338l5.228,-2.554l24.745,39.761l-5.899,0.131Zm31.139,-69.169c0.212,1.072 1.052,1.648 1.944,1.157c0.873,-0.48 0.974,-0.512 0.43,0.333c-1.199,1.866 1.231,3.672 2.79,2.071c0.554,-0.569 0.647,-1.495 0.144,-1.966c-0.569,-0.531 -0.692,-0.806 0.146,-0.401c2.107,0.856 3.267,-2.203 1.226,-3.232c-0.526,-0.265 -1.551,-0.03 -1.937,0.374c-0.466,0.487 -0.531,0.316 -0.407,-0.062c0.073,-0.224 0.125,-0.587 0.301,-1.02c0.138,-0.34 0.236,-0.803 0.236,-0.803l-2.152,0.023c0,0 0.174,0.495 0.35,0.911c0.166,0.392 0.229,0.686 0.309,0.849c0.29,0.587 -0.058,0.369 -0.639,-0.065c-0.822,-0.614 -1.852,-0.441 -2.438,0.366c-0.216,0.475 -0.397,0.969 -0.303,1.465Zm3.108,-30.377l4.627,-0.138l5.089,14.1c-4.073,6.789 -5.171,14.447 -0.432,22.208l-14.675,0.023c3.442,-11.694 3.974,-24.099 5.391,-36.193Zm4.838,18.347c0.621,-0.558 0.701,-1.569 0.135,-2.243c-0.712,-0.848 -0.548,-0.891 0.406,-0.338c1.377,0.799 2.695,-0.929 1.882,-2.457c-0.516,-0.971 -2.186,-1.185 -2.824,-0.322c-0.532,0.719 -0.473,0.06 -0.063,-0.896c0.15,-0.351 0.366,-1.011 0.366,-1.011l-2.242,0.046c0,0 0.289,0.637 0.443,1.047c0.41,1.086 0.426,1.43 -0.204,0.732c-1.369,-1.155 -2.975,-0.319 -2.99,1.34c0.015,1.275 1.165,2.093 2.173,1.497c0.613,-0.362 0.887,-0.448 0.198,0.383c-0.476,0.793 -0.306,1.803 0.323,2.277c0.86,0.522 1.781,0.492 2.397,-0.055Zm-31.001,4.393c0.18,-0.133 0.247,-0.045 0.136,0.134c-0.094,0.153 -0.336,0.371 -0.542,0.602c-1.047,1.168 0.308,2.654 1.995,2.424c1.148,-0.156 1.822,-1.97 0.973,-2.686c-0.274,-0.184 -0.49,-0.219 -0.698,-0.472c-0.017,-0.1 0.03,-0.169 0.132,-0.129c0.15,0.063 0.455,0.311 0.61,0.353c1.067,0.291 1.873,-0.152 2.143,-0.908c0.172,-0.875 0.007,-1.814 -0.705,-2.306c-0.662,-0.445 -1.64,-0.318 -2.211,0.443c-0.584,0.778 -0.664,0.038 -0.187,-1.036c0.179,-0.403 0.302,-0.976 0.302,-0.976l-2.061,0.11c0,0 0.109,0.445 0.291,0.957c0.458,1.17 0.786,1.505 0.201,0.901c-2.519,-1.49 -3.355,0.536 -3.396,1.341c-0.078,1.516 2.12,2.376 3.017,1.248Zm10.082,-22.868l3.72,0.013c-2.805,14.974 -8.553,27.518 -18.225,36.15l-18.201,-0.056l-8.77,-6.157l3.387,-4.416c23.107,2.39 32.947,-9.112 38.089,-25.534Zm-16.745,34.714c1.089,-0.482 1.542,-1.72 0.821,-2.551c-0.651,-0.752 -0.717,-0.986 0.283,-0.401c1.339,0.783 2.633,-0.78 1.977,-2.309c-0.409,-0.952 -1.696,-1.246 -2.623,-0.6c-0.815,0.611 -0.799,0.338 -0.374,-0.625c0.211,-0.477 0.373,-1.241 0.373,-1.241l-2.28,0.032c0,0 0.164,0.544 0.331,0.918c0.38,0.856 0.518,1.249 0.341,1.251c-0.085,0.001 -0.367,-0.26 -0.532,-0.412c-0.454,-0.419 -1.695,-0.498 -2.156,-0.056c-1.365,1.307 -0.597,3.594 1.14,3.172c1.121,-0.272 1.378,-0.7 0.449,0.358c-1.145,1.305 0.628,3.182 2.25,2.464Zm-14.385,-0.454c0.943,-0.447 1.258,-1.538 0.731,-2.243c-0.532,-0.71 -0.794,-1.167 0.151,-0.528c1.256,0.635 2.354,-0.208 2.338,-1.643c-0.017,-1.502 -1.697,-2.203 -2.933,-1.298c-0.209,0.152 -0.466,0.29 -0.512,0.291c-0.151,0.001 0.123,-0.811 0.424,-1.344c0.13,-0.231 0.36,-0.701 0.36,-0.701l-2.281,-0.087c0,0 0.128,0.623 0.307,1.103c0.363,0.975 0.452,1.3 -0.185,0.746c-1.715,-1.609 -3.544,0.441 -2.822,2.21c0.382,0.996 1.552,0.996 2.243,0.498c0.626,-0.488 0.306,0.159 -0.124,0.674c-1.171,1.403 0.546,3.146 2.303,2.322Zm104.145,-37.544l0.12,2.769l-29.47,24.658l-1.236,-1.901l30.586,-25.526Zm-109.61,5.185c4.243,-3.031 8.963,-8.474 13.621,-11.31c3.403,7.853 -4.579,15.552 -13.621,11.31Zm77.474,-1.442c-2.999,-16.601 14.766,-13.142 13.83,-11.661l-13.83,11.661Zm-95.4,-10.155l29.174,-23.878l1.325,2.007l-30.776,25.314l0.277,-3.443Zm79.917,-24.087c0.082,0.25 0.964,1.201 0.966,1.288c-0.252,-0.189 -1.751,-1.032 -2.482,-0.213c-0.256,0.3 -0.581,1.017 -0.546,1.76c0.307,1.33 1.815,1.8 2.886,0.889c0.308,-0.262 0.573,-0.58 0.636,-0.468c0.054,0.097 -0.114,0.554 -0.252,0.916c-0.158,0.372 -0.746,1.153 -0.319,1.152l2.071,-0.003c0,0 -0.076,-0.488 -0.324,-1.027c-0.463,-1.007 -0.444,-1.554 0.115,-0.828c1.089,1.413 3.198,0.234 2.978,-1.46c-0.159,-1.223 -1.393,-1.923 -2.3,-1.34c-0.1,0.064 -0.391,0.354 -0.432,0.356c-0.111,0.005 0.193,-0.462 0.394,-0.849c0.668,-1.287 -0.329,-2.478 -1.856,-2.349c-0.494,0.041 -1.033,0.353 -1.036,0.397c-0.574,0.465 -0.668,1.267 -0.499,1.779Zm25.187,-11.979c2.919,2.696 5.838,4.672 8.757,6.397l-2.755,4.366c-18.667,-1.735 -32.242,5.675 -37.907,25.763l-3.077,0.595c1.158,-12.531 5.34,-24.958 17.706,-37.101l17.276,-0.02Zm-17.89,2.999c0.005,0.594 1.092,1.3 0.85,1.464c-0.111,0.059 -0.758,-0.506 -1.056,-0.538c-2.155,-0.23 -2.602,3.135 -0.466,3.512c0.42,0.075 1.288,-0.187 1.545,-0.4c0.342,-0.282 0.579,-0.514 0.649,-0.488c0.131,0.048 -0.167,0.648 -0.402,1.092c-0.217,0.413 -0.521,1.273 -0.521,1.273l2.45,0.011c0,0 -0.222,-0.754 -0.442,-1.289c-0.282,-0.685 -0.342,-1.119 -0.152,-1.073c0.081,0.02 0.173,0.234 0.345,0.381c1.061,0.915 2.619,0.524 3.028,-0.905c0.385,-1.343 -1.217,-2.726 -2.332,-1.975c-0.39,0.263 -0.391,0.066 -0.002,-0.523c0.355,-0.539 0.268,-1.354 -0.054,-1.838c-1.171,-1.248 -3.493,-0.356 -3.44,1.296Zm17.594,3.984c-0.059,-0.3 0.017,-0.214 0.331,0.114c0.982,1.027 2.674,0.868 3.105,-0.493c0.43,-1.359 -0.884,-2.913 -2.028,-2.379c-0.595,0.278 -0.606,0.179 -0.265,-0.265c0.877,-1.147 -0.09,-2.658 -1.596,-2.641c-1.376,0.016 -2.187,1.346 -1.517,2.488c0.274,0.467 0.185,0.567 -0.298,0.332c-1.407,-0.685 -2.72,1.551 -1.689,2.878c0.606,0.779 2.009,0.861 2.811,0.087c0.427,-0.412 0.424,-0.215 0.114,0.638c-0.27,0.742 -0.57,1.343 -0.57,1.343l2.435,0.021c0,0 -0.65,-1.241 -0.833,-2.123Zm-52.157,30.049c0.709,-0.185 -2.502,-10.393 -4.854,-14.947c2.68,-6.443 6.346,-12.686 0.182,-21.963l14.981,-0.042c-4.628,10.536 -4.727,37.127 -5.814,37.192l-4.495,-0.24Zm1.314,-11.825c0,0 -0.74,-1.022 -0.785,-1.849c-0.089,-0.531 0.047,-0.564 0.322,-0.023c1.335,1.481 3.141,0.051 3.149,-1.26c0.154,-1.2 -1.244,-2.229 -2.142,-1.63c-0.629,0.42 -0.8,0.3 -0.239,-0.482c0.79,-1.1 -0.071,-2.533 -1.484,-2.517c-1.839,0.02 -2.543,1.745 -1.225,2.976c0.973,0.909 0.066,0.372 -0.707,0.047c-1.506,-0.633 -2.493,0.906 -1.818,2.459c0.466,1.073 1.835,1.352 2.638,0.484c0.439,-0.475 0.846,-0.754 0.607,-0.035c-0.125,0.581 -0.797,1.813 -0.797,1.813l2.481,0.017Zm2.319,-16.194c0,0 -0.887,-1.117 -1.04,-1.957c-0.052,-0.309 0.166,-0.23 0.67,0.204c1.612,1.389 3.826,-1.102 2.324,-2.623c-0.516,-0.523 -1.041,-0.675 -1.644,-0.359c-0.752,0.395 -0.692,0.203 -0.316,-0.205c0.55,-0.598 0.509,-1.69 -0.083,-2.22c-1.639,-1.466 -4.233,0.719 -2.709,2.286c0.663,0.682 0.348,0.593 -0.381,0.155c-1.381,-0.829 -2.909,1.442 -1.872,2.776c1.229,1.043 2.15,0.53 3,-0.125c0.184,-0.098 0.344,-0.142 0.345,-0.062c0.002,0.151 -0.849,2.161 -0.849,2.161l2.555,-0.031Zm-19.65,-6.295c-0.913,-0.061 -1.567,-8.636 -0.449,-11.352c2.382,-11.453 9.652,-19.796 14.178,-26.811c7.259,-10.448 6.357,-27.802 6.665,-27.11l1.03,0.12c0,0 -0.797,10.173 -0.346,14.77c0.468,4.041 0.365,4.292 0.077,4.693c-0.076,0.377 0.037,1.478 -0.045,1.857c-3.231,14.964 -10.942,30.35 -18.904,41.966l-2.206,1.867Zm74.646,-26.141l-24.517,-38.812l5.892,-0.532c2.186,3.478 23.484,36.641 23.484,36.641l-4.859,2.703Z" style="fill:#d40000;fill-rule:nonzero;"/><path id="path3395-8-0-1-6" d="M35.597,229.27c2.788,-10.262 -4.765,-34.127 -9.486,-37.245c5.536,-0.235 12.195,-0.135 11.984,-0.655c0,0 23.541,37.174 23.349,37.371c-0.181,0.186 -25.847,0.529 -25.847,0.529Zm95.41,-58.218c-5.705,-0.814 -3.455,-5.568 0.213,-6.062c-0.478,0.08 0.393,-2.363 3.351,-3.352c0.672,-1.223 1.199,-3.312 1.814,-4.282c-1.773,0.579 -3.928,2.083 -11.984,0.897c0.701,-3.832 8.408,-4.486 11.186,-3.893c1.605,0.374 3.189,2.774 3.677,2.825c4.946,-0.827 11.239,3.665 9.335,8.226c-0.295,0.65 -1.047,-0.772 -2.712,-1.379c-5.382,-1.959 -5.759,-4.883 -6.996,-6.192c-0.45,-0.085 -2.83,4.643 -2.83,4.643l0.743,3.212c1.291,-0.119 7.027,3.44 -0.114,5.851c-1.975,6.833 -5.694,2.011 -5.683,-0.494Zm13.519,-30.512c-0.305,-0.311 0.24,-2.439 0.964,-3.662c0.391,-0.661 1.295,-1.105 1.825,-1.011c0.945,0.166 0.797,1.544 -0.454,5.58c-0.052,0.583 -1.329,0.644 -2.335,-0.907Zm-113.609,-28.26c-1.565,-0.006 -0.161,-4.28 0.801,-5.637c0.317,-0.421 1.566,0.476 1.63,1.096c0.116,1.109 -1.581,4.981 -2.431,4.541Zm-1.111,-29.063c1.911,0.463 4.927,2.394 6.368,3.454c1.792,1.343 1.303,3.979 2.737,4.213c0.969,-0.481 2.745,-4.798 2.745,-4.798c0,0 0.445,-2.218 -0.818,-2.901c-3.143,-1.699 -3.087,-3.536 -2.887,-3.699c0.932,-2.425 2.788,-1.994 3.79,-2.129c0.022,-1.328 -0.022,-4.131 2.715,-3.842c2.395,0.227 2.631,3.662 1.624,3.693c-0.02,-0.058 4.527,-0.655 4.483,2.357c-0.024,1.632 -2.721,3.721 -3.561,2.962c0,0 0.45,3.255 -3.624,4.37c-0.952,0.973 -1.729,5.11 -1.729,4.743c2.457,-2.226 6.304,-2.748 12.375,-1.949c-3.761,7 -14.159,3.724 -14.972,2.369c-5.232,-1.584 -10.139,-3.648 -9.246,-8.843Zm44.79,-16.776c5.534,0.504 11.588,-1.24 16.19,-0.316c0.524,0.072 1.094,0.85 1.409,1.023c2.379,1.303 4.869,0.898 8.697,-0.557c0.946,-0.359 18.492,-0.222 18.492,-0.222c3.996,5.928 11.102,17.078 11.257,16.7c0,0 -9.727,-0.11 -14.208,0.156c-3.15,0.187 -1.298,0.618 -3.486,0.714c-15.332,11.561 -18.251,36.544 -18.251,36.544c0,0 4.873,-1.287 6.146,0.063c6.028,-17.702 17.471,-25.786 33.429,-24.203c7.374,0.732 16.174,8.013 16.174,8.013l-15.782,12.893c-12.225,-6.192 -17.463,12.058 -13.754,12.104l31.779,-26.081c0,0 0.544,2.129 0.49,2.201c-2.265,2.981 -40.152,33.857 -40.152,33.857l-1.663,-1.845c0,0 -1.045,0.932 -1.595,1.552c-0.055,1.011 0.3,1.868 1.064,2.66c-7.505,6.047 -7.753,17.142 -2.22,23.198c0,0 -2.454,0.175 -2.712,0.219c-3.118,0.536 -6.342,-14.9 -0.162,-22.082c-3.118,-6.139 -5.039,-14.492 -5.43,-14.879c0.083,0.984 -4.922,0.657 -4.922,0.657c-0.382,12.475 -1.679,24.709 -4.664,36.496l22.993,0.497l-9.788,17.054c0,0 -10.984,-0.276 -15.716,-0.608c-4.94,-2.886 -7.788,-0.692 -12.425,0.377c-6.598,0.194 -16.311,-0.114 -16.311,-0.024c-3.294,-6.568 -6.834,-11.398 -11.646,-17.028c-0.611,-1.023 19.531,-0.391 19.531,-0.391c0,0 10.068,-15.292 11.902,-19.611c1.432,-3.37 4.643,-15.642 4.643,-15.642c0.148,0.64 -1.829,-3.191 -6.433,-3.104c-3.808,25.411 -33.883,33.97 -51.98,17.616l-0.169,-2.955l39.881,-32.478l1.772,2.056c-0.381,-0.306 -24.483,19.831 -24.083,19.703c7.144,3.754 15.409,0.716 14.448,-11.607c5.66,-4.107 10.671,-8.893 15.599,-13.777c0.105,-0.191 5.497,12.146 5.365,14.52c3.101,-1.046 4.937,1.147 4.879,0.772c-1.115,-7.134 5.108,-34.185 5.226,-37.295c-3.456,-0.28 -8.039,-0.152 -15.227,-0.438c5.773,11.219 3.768,18.819 -4.302,25.731l-1.688,-2.129c0.685,0.383 11.788,-9.263 2.848,-23.675c-0.409,0.034 -4.711,-0.391 -4.711,-0.391c0,0 8.82,-14.05 9.266,-16.038Zm42.851,-46.369c0,0 25.171,-0.607 25.179,0.134c-0.804,13.577 2.348,25.961 9.955,37.416c0,0 -11.148,-0.397 -10.945,-0.257l-24.189,-37.293Z" style="fill:#e2cf00;fill-rule:nonzero;"/><path id="path3393-8-5-4-3" d="M154.386,19.11l-130.772,0l0,210.78l130.772,0l0,-210.78Zm-12.294,0.917c-0.011,-0.012 -1.687,22.306 9.911,36.924c-7.085,-1.078 -11.141,0.012 -15.267,2.938l0.565,0.584c5.682,-3.505 10.502,-2.583 15.435,-2.037l0,28.713c-0.036,1.395 -5.907,0.772 -9.529,-1.963c-1.72,-1.02 -3.939,-3.16 -4.934,-4.767c-0.302,-0.488 -0.62,-0.971 -0.708,-1.073c-0.333,-0.384 -2.399,-4.249 -6.192,-11.567c-1.929,-3.72 -4.478,-8.795 -6.549,-12.729c-1.34,-2.547 -3.832,-7.358 -4.008,-7.741c-0.366,-0.8 -3.08,-6.114 -4.136,-8.048c-2.789,-5.108 -7.293,-14.021 -8.9,-17.215c-0.355,-0.829 -0.895,-1.212 0.072,-1.185c0.215,0.006 0.429,0.019 0.553,0.049c0.17,0.085 0.377,-0.294 0.377,-0.294l33.31,-0.589Zm-116.673,120.739l0,-2.258l38.101,-31.489l1.213,1.568l-39.314,32.179Zm36.899,-55.156c-0.153,0.057 -0.32,0.115 -0.503,0.173c-0.977,-4.372 -0.42,-10.214 0.731,-14.606c1.678,-6.097 4.81,-10.987 8.297,-15.901c7.972,-11.221 11.502,-19.68 11.359,-34.754l1.14,0.121c-0.048,2.381 -0.362,4.172 -0.453,7.34c-0.143,3.395 -0.087,5.976 0.273,9.291c0.177,1.629 0.283,2.685 0.01,2.897c-0.131,0.106 -0.248,0.669 -0.129,0.877c-0.019,0.452 -0.08,1.355 -0.08,1.355c-1.826,8.974 -11.617,31.987 -20.645,43.207Zm4.755,20.403l-2.015,-2.482c0,0 -1.55,-1.255 -0.157,-2.673c4.026,-4.099 4.053,-9.309 0.161,-13.994c-0.262,-0.595 1.209,-3.6 1.209,-3.6l3.064,0.05c4.779,5.838 6.083,16.153 -2.262,22.699Zm2.816,-23.168c0.095,-0.399 -4.541,-0.245 -4.541,-0.245c2.88,-4.309 5.329,-8.742 7.735,-13.187c3.734,-6.728 8.911,-18.514 10.533,-27.058c1.209,9.993 2.966,24.824 11.483,25.409c2.792,0.192 6.026,-1.729 6.553,-1.412l17.694,-0.141c3.628,7.387 7.527,12.146 12.143,17.198c3.317,1.899 7.363,3.403 11.273,4.378c2.221,0.554 2.434,0.185 6.815,0.813c1.157,0.165 2.918,-0.325 2.901,-0.325c-3.5,2.772 -7.539,1.986 -11.986,0.799c-0.249,-0.066 -0.51,-0.143 -0.77,-0.236l-3.358,5.073c-7.475,-1.779 -31.472,-0.52 -37.799,25.675c0,0 0.651,0.333 0.499,0.153c5.025,-22.737 26.247,-27.27 36.365,-25.005l-0.87,1.333c-16.788,-2.061 -30.457,8.481 -33.713,23.431l0.324,0.295c6.3,-22.602 32.783,-30.965 49.202,-15.299l3.012,-2.141l-0.098,2.898l-40.366,33.956l-1.615,-1.676c0,0 -0.284,0.216 -0.606,0.485c-1.042,0.871 -1.453,1.084 -1.161,1.569c0.292,0.486 1.425,1.581 1.474,1.703c-6.695,5.478 -8.82,16.041 -2.458,23.439c0.71,0.784 0.581,0.995 0.451,0.112c-5.707,-6.236 -4.984,-17.264 2.132,-22.489l1.434,1.886c-3.133,6.906 -4.804,17.678 3.434,18.61c2.951,7.941 -0.444,17.35 -4.235,23.656c-4.016,7.266 -8.884,13.305 -11.923,21.219c-1.476,3.302 -3.826,13.096 -3.703,20.58l-0.885,-0.009c-0.001,-3.054 0.202,-6.675 0.227,-8.99c0.124,-11.288 0.108,-10.618 0.361,-10.904c0.083,-0.095 0.319,-0.196 0.341,-0.275c0.034,-0.119 -0.184,-0.353 -0.269,-0.628c-0.088,-0.283 -0.237,-0.78 -0.222,-1.198c0.015,-0.418 0.406,-1.028 0.331,-1.164c-1.772,-6.229 -1.917,-17.423 -7.637,-22.565c-2.805,-2.419 -6.531,-2.516 -11.355,-0.532c-10.648,0.019 -9.069,0.568 -17.668,0.075c-3.557,-6.538 -7.871,-12.907 -12.539,-17.629c-2.182,-2.442 -5.215,-3.78 -8.067,-5.551c1.144,-2.178 2.442,-3.771 3.86,-4.806c0.294,-0.421 0.494,-0.875 0.875,-1.232c28.994,2.796 35.281,-25.395 33.958,-24.678l-0.257,0.223c-7.927,29.047 -36.136,27.989 -50.316,15.431c0,0 -2.003,1.747 -2.01,-0.17c-0.006,-1.743 0.627,-2.248 0.627,-2.248l39.8,-32.584c0.728,0.465 1.511,2.013 1.838,1.84c0.733,-0.391 1.813,-1.177 1.78,-1.645c-0.026,-0.36 -1.455,-2.621 -1.455,-2.621c10.647,-11.068 5.844,-16.012 2.427,-23.596Zm15.087,-62.2c0.192,-0.001 0.373,0.09 0.507,0.303c0.243,0.385 -0.723,2.63 -1.32,3.025c-0.565,0.375 -0.606,-0.06 -0.198,-2.231c0.12,-0.637 0.589,-1.094 1.011,-1.097Zm58.398,0.066l9.362,0l0,35.519c-6.89,-9.721 -10.452,-20.89 -9.362,-35.519Zm-55.923,0.059c0.23,-0.011 0.433,0.053 0.499,0.221c0.237,0.599 -1.115,3.188 -2.788,5.335c-0.868,1.113 -1.305,1.436 -1.576,1.17c-0.229,-0.507 -0.222,-1.096 0.577,-2.022c0.659,-0.763 1.78,-2.548 2.243,-3.547c0.199,-0.586 0.398,-1.116 1.045,-1.157Zm9.465,0.127c0.269,0.002 0.545,-0.002 0.623,0.125c1.609,3.295 4.639,6.269 7.741,7.858c0.452,0.258 0.239,0.904 0.391,1.358c-3.484,-0.52 -8.056,-5.475 -9.279,-9.091c-0.006,-0.262 0.256,-0.253 0.524,-0.25Zm5.448,-0.003c0.693,0.707 1.783,1.561 2.029,2.368c0.151,0.495 0.261,1.063 0.155,1.329c-0.605,0.38 -3.613,-3.123 -3.497,-3.532c0.382,-0.253 0.863,-0.306 1.313,-0.165Zm-13.043,-0.051c0.296,0.012 0.747,-0.005 0.813,0.218c0.376,1.528 -3.099,7.481 -5.634,9.168c-0.901,0.6 -0.959,0.442 -0.887,-0.564c0.048,-0.676 0.113,-0.622 1.038,-1.508c1.32,-1.266 2.762,-3.219 3.555,-4.95c1.017,-2.219 0.768,-2.358 1.115,-2.364Zm2.358,0.024c0.331,0 0.639,0.113 0.725,0.26c0.115,0.2 -0.04,0.525 -0.147,0.926c-1.145,3.253 -3.992,7.935 -7.335,10.594c-1.3,1.007 -1.52,1.001 -1.615,-0.038c-0.055,-0.604 0.222,-0.781 0.833,-1.206c2.836,-1.974 5.385,-5.4 6.463,-8.899c0.21,-0.682 0.13,-1.294 0.499,-1.501c0.172,-0.096 0.379,-0.137 0.577,-0.136Zm17.601,5.637c0.136,0.234 1.109,1.761 0.314,1.186c-0.327,-0.269 -0.919,-0.945 -1.863,-2.022c-2.232,-2.544 -2.299,-2.386 -2.255,-3.019c0.022,-0.825 -0.566,-2.178 0.704,-1.827c1.248,1.472 2.032,3.846 3.1,5.682Zm-10.161,-5.587c0.252,-0.004 0.552,0.043 0.801,0.094c1.47,2.774 5.057,5.209 5.043,5.197c0,0 0.091,1.207 -0.04,1.42c-0.074,0.372 -5.698,-3.918 -6.323,-6.485c0.06,-0.166 0.265,-0.221 0.519,-0.226Zm-4.002,0.051c1.32,2.435 4.044,7.962 10.445,10.194c0.461,0.101 0.951,1.416 0.598,1.778c-3.509,-1.022 -9.876,-4.472 -12.038,-11.938c0.21,-0.199 0.77,-0.168 0.995,-0.034Zm-1.719,0.473c-0.22,0.004 3.022,9.397 12.257,12.198c0.799,0.251 1.267,0.598 1.216,1.073c-0.064,0.598 -0.044,0.673 -0.933,0.225c-2.519,-1.321 -6.111,-1.939 -9.11,-0.409c-0.468,0.238 -0.943,0.89 -0.566,1.3c0.215,0.209 0.745,0.054 1.42,-0.21c3.491,-1.364 8.834,-0.562 9.778,1.582c0.67,1.522 0.784,2.644 0.418,2.831c-0.279,0.142 -0.753,-0.369 -1.588,-1.104c-2.656,-2.34 -5.832,-2.991 -8.356,-0.743c-0.547,0.486 -1.088,0.402 -1.278,0.603c-0.185,0.194 0.034,0.631 0.189,1.057c0.163,0.446 0.17,0.568 0.008,0.945c-0.221,0.516 -0.229,1.176 -0.205,1.668c0.059,1.198 0.849,2.23 3.121,3.81c1.77,1.231 3.153,1.923 0.999,0.171c-3.718,-3.023 -4.392,-4.255 -1.983,-3.207c2.407,0.97 5.743,-0.003 8.106,-1.812c0.804,-0.014 1.282,-0.155 1.706,0.155c1.762,4.154 3.203,9.681 5.546,15.039c-2.798,3.173 -12.538,10.944 -19.483,10.667c-5.996,-0.239 -8.114,-10.093 -9.44,-15.539c-0.446,-2.304 -0.956,-4.649 -0.894,-7.904c0,0 0.108,-0.088 0.263,-0.058c1.005,0.19 2.735,0.322 3.613,0.116c1.596,-0.374 1.916,-0.659 2.01,-0.423c0.11,0.278 -0.555,0.904 -1.716,1.703c-0.505,0.347 -1.975,1.058 -1.82,1.162c0.351,0.236 2.13,-0.714 2.428,-0.968c0.465,-0.396 0.785,-0.421 1.007,-0.202c0.261,0.256 0.314,-0.017 -0.546,2.127c-0.948,2.362 -0.857,2.576 0.991,4.031c0.643,0.507 1.231,1.012 1.371,1.233c0.178,0.29 0.298,0.632 0.38,0.742c0.312,0.42 0.121,-0.256 -0.066,-1.329c-0.216,-0.795 -0.991,-1.584 -1.541,-1.968c-1.009,-0.704 -0.853,-1.395 -0.017,-3.794c2.464,-7.076 1.835,-10.232 -0.878,-11.769c-1.223,-0.693 -4.649,-0.508 -5.729,0.398c-0.531,0.446 -0.459,-0.43 -0.374,-0.489c6.509,-4.492 8.035,-8.776 9.696,-12.908Zm12.562,3.467c1.847,1.841 4.147,4.341 5.531,6.118c0.761,0.948 1.161,1.92 1.766,2.916c0.115,0.181 0.229,0.387 0.147,0.471c-0.03,0.035 -0.295,-0.119 -0.441,-0.23c-1.354,-1.024 -6.944,-7.415 -6.944,-7.415c-0.258,-1.049 -0.437,-1.406 -0.059,-1.86Zm1.105,4.337c0,0 4.843,5.309 7.617,7.92c0.546,1.151 1.591,2.808 1.565,3.087c-0.012,0.124 -0.593,-0.326 -0.593,-0.326c-3.066,-2.836 -5.898,-6.023 -8.841,-9.044c0.028,0.016 -0.233,-1.25 -0.236,-1.761c0.067,-0.25 0.361,0.026 0.488,0.124Zm10.506,13.608c0.652,1.065 1.127,2.018 1.441,2.644c0.517,0.991 0.344,1.02 -0.113,0.653c-3.465,-2.847 -6.367,-6.314 -9.631,-9.49c-0.424,-0.438 -1.27,-1.412 -1.27,-1.412c0.03,0.036 -1.063,-2.289 -0.377,-2.242c0.537,0.21 0.89,0.796 1.237,1.168c1.711,1.84 4.972,5.003 8.713,8.679Zm-30.229,-7.588c1.429,-0.043 2.837,0.328 3.548,1.208c0.646,0.801 0.907,2.068 0.548,2.435c-0.223,0.23 -1.017,-0.417 -1.017,-0.417c-3.365,-1.896 -4.525,-0.983 -6.351,-0.426c-0.26,0.079 -0.537,-0.626 -0.204,-1.323c0.67,-1.159 2.369,-1.443 3.476,-1.477Zm21.179,1.795c3.6,3.624 7.257,7.65 11.153,10.766c0.546,0.467 0.92,0.767 1.169,1.019c0.515,1.023 1.698,3.46 1.698,3.46c-4.175,-2.931 -13.579,-13.034 -13.476,-12.967c0.094,0.048 -0.787,-1.848 -0.544,-2.278Zm-7.047,0.6c0.658,-0.006 1.379,0.201 1.947,0.428c1.814,0.722 2.955,1.492 1.076,1.235c-2.614,-0.357 -3.507,-0.376 -4.465,-0.222c-1.777,0.287 -1.916,0.486 -2.071,0.203c-0.408,-0.745 1.541,-1.625 3.513,-1.644Zm-14.84,0.213c0.655,-0.004 1.367,0.141 2.064,0.447c2.217,0.973 2.608,1.607 0.72,1.302c-0.98,-0.158 -2.776,-0.142 -4.062,0.191c-0.408,0.105 -0.859,0.343 -0.965,0.377c-0.456,0.146 -0.582,-0.196 -0.387,-0.77c0.337,-0.992 1.379,-1.539 2.63,-1.547Zm16.054,2.84l0.457,0.034c-0.572,3.252 -3.806,2.934 -4.677,0.142l0.458,-0.01c1.703,2.67 2.977,1.099 3.762,-0.166Zm1.802,0.169c1.494,-0.017 1.398,0.885 -0.159,1.489c-1.193,0.464 -1.328,0.38 -0.891,-0.517c0.42,-0.862 0.377,-0.964 1.05,-0.972Zm-15.401,0.117c0.146,2.93 -3.92,3.467 -4.17,0.272l0.387,-0.019c1.332,2.512 2.871,0.996 3.351,-0.253l0.432,0Zm1.808,0.4c0.46,0.316 0.175,0.749 -0.825,1.361c-0.901,0.563 -1.133,-0.118 -0.39,-1.062c0.312,-0.304 0.824,-0.556 1.215,-0.299Zm7.052,-0.004c0.178,-0.056 0.599,0.736 0.24,0.926c-0.214,0.112 -0.53,-0.212 -0.565,-0.451c-0.028,-0.19 0.091,-0.4 0.325,-0.475Zm12.175,0.183c2.714,3.001 5.445,6.015 13.434,12.547c0,0 1.129,2.015 1.375,2.803c-0.194,0.24 -0.296,0.213 -0.856,-0.066c-5.21,-4.038 -10.054,-8.95 -13.848,-13.515c-0.18,-0.644 -0.582,-1.266 -0.105,-1.769Zm-25.868,0.3c0.308,-0.011 0.743,0.68 0.503,1.096c-0.198,0.156 -0.505,-0.086 -0.639,-0.276c-0.132,-0.189 -0.128,-0.535 -0.046,-0.688c0.048,-0.09 0.111,-0.13 0.182,-0.132Zm27.003,4.156c-0.021,-0.105 12.618,12.757 14.239,12.511c0.755,0.446 2.633,4.102 2.633,4.102c0.054,0.116 0.046,0.331 -0.259,0.179c-2.137,-1.061 -11.07,-8.503 -15.637,-14.043c-0.334,-0.807 -0.739,-1.832 -0.976,-2.749Zm-15.024,1.889c2.204,1.069 1.256,3.261 -1.07,1.867c-1.833,-1.119 -3.287,-1.22 -3.276,-0.253c0.004,0.409 0.503,0.935 0.987,0.929c0.906,0.059 1.727,0.392 2.618,0.587c1.389,0.3 2.428,-0.071 2.776,-0.917c0.59,-1.437 -0.813,-3.004 -1.738,-2.921c-0.925,0.083 -0.692,0.528 -0.297,0.708Zm17.452,3.515c-0.155,-0.136 6.285,6.948 15.064,12.799c0.341,0.395 1.189,2.439 1.324,2.714c-0.035,0.193 -0.228,0.004 -0.228,0.004c-4.434,-2.573 -10.286,-7.676 -15.831,-13.468c0,0 -0.533,-1.284 -0.697,-2.119c0.12,-0.056 0.251,0.017 0.368,0.07Zm-14.627,2.551c-0.2,0.027 -0.467,0.33 -0.797,0.513c-0.676,0.373 -0.889,0.472 -2.548,-0.027c-0.901,-0.271 -1.046,-0.252 -1.584,0.147c-0.47,0.35 -0.731,0.407 -1.255,0.171c-0.943,-0.424 -1.38,-0.115 -2.254,0.191c-0.832,0.302 -1.117,-0.066 -1.866,-0.237c-0.099,0.001 -0.142,3.033 -0.043,3.13c0.034,0.033 0.779,-0.457 1.201,-0.673c0.725,-0.371 0.621,-0.312 1.68,-0.268c1.564,0.271 3.112,0.179 4.159,-0.234c1.304,-0.369 2.322,-0.301 3.222,0.44c0.547,0.449 1.272,0.376 0.848,-0.451c-0.146,-0.286 -0.477,-1.339 -0.437,-1.73c0.059,-0.586 -0.07,-0.961 -0.287,-0.972c-0.013,-0.001 -0.025,-0.002 -0.039,0Zm16.699,2.364c2.963,2.853 6.618,7.208 15.215,12.255c0.448,0.787 1.053,1.834 1.436,2.651c0.036,0.227 -0.02,0.428 -0.24,0.35c-5.312,-3.381 -8.265,-5.023 -15.629,-12.309c-0.458,-0.739 -0.945,-1.996 -1.324,-3.021c0.08,-0.289 0.42,0 0.542,0.074Zm-1.251,1.088l3.288,6.198l-11.072,-0.024c2.814,-1.683 5.499,-3.927 7.784,-6.174Zm-18.352,0.14c-1.818,0.726 -2.092,0.877 -3.896,0.436c-1.05,-0.257 -0.762,0.354 -0.224,0.607c1.36,0.64 3.331,0.188 4.061,-0.318c0.482,-0.311 0.812,-1.025 0.059,-0.725Zm-1.866,1.913c-1.904,0.027 -3.7,0.693 -3.834,1.47c-0.026,0.15 0.13,0.319 0.426,0.14c1.29,-0.78 4.493,-1.034 6.916,-0.156c0.392,0.142 0.46,-0.102 0.054,-0.439c-0.906,-0.752 -2.26,-1.033 -3.562,-1.015Zm24.164,2.648c3.584,3.32 7.042,6.375 14.755,10.821c0.556,1.216 1.359,2.671 1.5,2.797c-7.228,-3.522 -15.106,-10.474 -15.106,-10.474c0,0 -1.24,-2.217 -1.525,-3.168c-0.025,-0.32 0.275,-0.056 0.376,0.024Zm2.468,5.173c0,0 6.599,5.603 14.122,9.407c0.305,0.294 1.062,2.096 1.309,2.29c0.249,0.195 -0.299,0.194 -0.841,-0.086c-3.937,-1.82 -12.38,-7.647 -12.38,-7.647c-0.81,-1.333 -1.97,-2.719 -2.21,-3.964Zm-78.971,23.414c0.603,-1.295 1.219,-2.737 1.618,-3.913c1.796,0.018 2.68,-0.658 3.317,-1.472c0.91,-0.025 1.607,-0.021 2.847,-0.057c-0.041,-1.231 0.015,-2.973 0.015,-2.973c1.257,-1.299 2.109,-2.799 0.161,-5.096c0,0 -0.078,-1.07 -0.107,-2.895c-0.898,-0.144 -2.911,-0.051 -2.911,-0.051c-1.628,-2.3 -4.515,-1.72 -5.39,-0.001c0,0 -1.298,0.072 -2.188,0.075c-0.018,0.487 -0.172,2.642 -0.172,2.642c0,0 -3.794,2.599 0.143,5.66l-0.054,2.573c0.737,0.059 1.265,0.01 2.226,0.195c0,0 -1.506,3.511 -2.496,5.177c-0.338,0.089 -0.258,-0.106 -0.667,-1.27c-0.493,-1.373 -1.607,-2.874 -2.552,-3.612c-1.281,-0.992 -3.033,-1.3 -4.256,-2.162c-1.178,-0.831 -2.01,-1.902 -2.385,-1.703c-0.122,0.417 -0.257,2.814 0.186,4.355c0.625,2.533 4.255,4.149 7.288,5.361c0.233,0.152 0.44,0.38 0.441,0.463c0.005,0.419 -0.399,0.29 -1.394,0.19c-1.503,-0.15 -2.125,0.263 -2.652,1.552c-0.158,0.318 -0.533,0.865 -0.837,1.228c-0.304,0.363 -0.622,0.717 -0.666,0.871c-0.044,0.155 -0.357,0.937 -0.666,1.591c-0.19,0.402 -0.507,0.824 -0.531,1.419c-0.07,1.816 -0.097,4.255 0.175,5.793c0.2,1.129 1.621,1.778 2.11,1.87c0.752,0.141 0.889,0.906 0.771,1.532c-0.579,3.087 -2.349,4.976 -2.916,3.962c-0.149,-0.267 -0.307,-1.529 -0.349,-1.513c-0.027,0.01 -0.296,1.073 -0.193,1.505c0.11,0.465 0.702,0.807 1.285,0.595c0.865,-0.315 1.546,-1.176 2.084,-3.134c0.22,-0.801 0.428,-1.248 0.801,-1.306c0.684,0.047 1.751,1.462 1.751,1.462c-3.552,2.97 -10.369,8.364 -10.369,8.364l0,-97.295l55.993,0c0.313,7.716 -0.62,14.289 -3.379,21.163c-3.27,7.403 -8.345,12.906 -12.229,19.72c-4.688,8.228 -6.189,16.762 -4.592,25.346c-4.791,6.295 -8.826,9.317 -12.658,12.242c0,0 -2.873,-3.032 -4.468,-4.728c0,0 0.673,-0.056 1.46,-0.088c3.64,-0.41 7.58,-0.928 9.101,-4.732c0.217,-0.423 0.125,-0.61 -0.132,-0.669c-2.85,0.397 -5.326,-0.006 -6.942,0.109c-3.952,0.28 -5.622,1.655 -5.622,1.655l0,0Zm0.434,2.801c0,0 -4.573,-2.182 -4.913,-2.244c-1.993,-0.363 -6.801,-2.878 -7.613,-4.588c-0.106,-0.223 -0.372,-3.342 -0.457,-3.981c0.029,-0.203 0.11,-0.196 0.31,-0.05c0.513,0.355 2.506,1.659 3.241,2.017c3.038,1.482 4.213,2.537 4.957,4.767c0.186,0.559 0.381,1.14 0.492,1.26c0.243,0.264 0.346,0.242 0.65,0.008c1.302,-1.691 1.911,-3.1 2.514,-4.915c0.078,-0.202 0.247,-0.409 0.147,-0.702c-0.237,-0.801 -0.821,-1.839 -0.224,-2.623c-1.903,0.087 -3.725,-1.309 -3.493,-2.708c0.507,-2.592 1.603,-2.124 3.655,-2.502c-0.237,-5.993 5.35,-4.538 5.336,-0.363c6.138,0.519 3.238,6.218 -0.328,5.346c1.414,3.238 -2.834,4.453 -3.431,3.902c-0.24,1.046 -1.857,4.416 -2.202,5.418c4.548,-3.237 11.867,-1.8 12.927,-2.008c-2.643,5.549 -11.282,4.198 -11.568,3.966Zm81.897,-20.428c1.155,0.893 10.949,7.042 12.756,7.181c0,0 0.865,0.975 1.58,1.863c0.666,0.826 0.911,0.956 0.988,1.123c0.076,0.166 -0.252,0.158 -0.306,0.152c-4.406,-1.923 -8.889,-3.946 -12.698,-7.142c-0.515,-0.439 -0.63,-0.638 -0.883,-0.972c-0.336,-0.447 -1.332,-2.039 -1.437,-2.205Zm3.246,4.961c4.479,2.527 8.286,4.977 12.368,6.295c0.582,0.219 0.879,0.234 1.17,0.439c0.289,0.206 1.533,0.978 1.827,1.151c1.863,1.097 2.054,1.045 1.592,1.229c-0.512,0.203 -3.782,-0.756 -6.545,-1.781c-4.901,-1.819 -6.634,-2.851 -8.407,-4.456c-0.399,-0.415 -2.261,-2.65 -2.005,-2.877Zm-89.301,14.094c0.378,-0.008 0.982,0.227 1.611,0.712c0.673,0.518 2.327,1.603 3.009,1.897c0.349,0.15 0.458,0.189 0.458,0.189l4.405,5.02l-11.341,9.257c0,0 -0.92,-0.946 -1.214,-1.262c-0.277,-0.299 -0.197,-0.548 0.149,-0.887c0.277,-0.272 0.298,-0.861 0.251,-1.151c-0.069,-0.429 -0.058,-0.913 0.484,-1.314c0.437,-0.323 0.505,-0.889 0.484,-1.046c-0.016,-0.125 0.237,-0.539 0.616,-0.816c0.796,-0.583 1.036,-1.292 0.767,-2.127c-0.113,-0.35 -0.173,-0.441 0.283,-0.746c0.809,-0.543 1.011,-1.055 1.072,-1.847c0.01,-0.126 -0.023,-0.259 -0.042,-0.358c-0.16,-0.842 0.58,-0.629 1.189,0.428c0.331,0.576 0.426,1.521 0.592,2.597c0.196,1.268 0.33,1.614 0.399,1.435c0.393,-1.024 -0.071,-4.867 -1.235,-5.389c-1.703,-0.763 -3.126,-2.317 -2.7,-2.928c0.148,-0.211 0.174,-0.139 1.213,0.342c0.607,0.282 1.17,0.511 1.254,0.514c1.202,0.038 0.473,-0.479 0.082,-0.533c-0.471,-0.065 -1.876,-0.924 -2.041,-1.225c-0.274,-0.501 -0.123,-0.753 0.255,-0.762Zm-2.9,0.661c1.108,-0.012 1.321,0.286 1.332,1.244c0.007,0.566 0.217,1.001 1.1,2.127c0.36,0.459 0.6,0.811 0.577,0.991c-0.039,0.298 -0.146,-0.01 -1.367,-0.155c-0.434,-0.051 -0.654,-0.059 -0.806,0.167c-0.42,0.626 -1.311,-0.026 -1.858,-0.949c-1.307,-2.199 -0.846,-3.404 1.022,-3.425Zm21.115,1.326l12.057,14.815l-1.36,1.061l-12.102,-14.615l1.405,-1.261Zm-2.016,0.91l1.291,2.189c0,0 -3.736,3.205 -4.718,4.109c-7.937,6.454 -25.856,21.103 -25.856,21.103l-0.241,-2.946l29.524,-24.455Zm-21.763,0.396c0.235,0.006 0.504,0.305 0.886,0.891c0.331,0.507 1.041,1.524 1.797,2.224c1.47,1.358 1.611,1.235 0.418,1.364c-0.474,0.052 -0.628,-0.005 -0.917,0.72c-0.876,1.095 -3.46,-2.83 -2.854,-4.332c0.236,-0.586 0.434,-0.873 0.67,-0.867Zm4.205,2.119c0.218,-0.01 0.505,0.072 0.84,0.276c0.641,0.264 0.683,0.417 0.577,1.031c-0.1,0.587 -0.545,0.739 -1.421,-0.035c-0.665,-0.629 -0.553,-1.245 0.004,-1.272l0,0Zm19.245,0.363l1.416,1.836l-32.11,26.107l0,-3.005c0.784,0.102 21.366,-17.887 30.694,-24.938l0,0Zm-24.937,0.298c0.085,-0.018 0.22,0.278 0.577,0.817c0.726,1.096 1.392,1.819 2.153,2.395c0.718,0.544 0.799,0.848 0.306,0.851c-0.211,0.002 -0.5,0.225 -0.651,0.486c-0.304,0.526 -0.331,0.401 -0.802,0.125c-0.672,-0.395 -1.346,-0.992 -1.614,-1.773c-0.254,-0.737 -0.282,-1.858 -0.074,-2.675c0.036,-0.143 0.066,-0.218 0.105,-0.226Zm5.076,2.084c0.82,-0.028 1.41,0.929 0.868,1.703c-0.301,0.295 -0.573,0.437 -1.174,0.082c-0.792,-0.469 -0.935,-1.19 -0.286,-1.594c0.202,-0.126 0.403,-0.184 0.592,-0.191Zm-5.274,2.072c0.172,-0.007 0.483,0.242 1.003,0.778c0.399,0.412 1.093,0.762 1.371,0.918c0.623,0.348 0.652,0.47 0.314,0.75c-0.145,0.12 -0.619,0.127 -0.748,0.505c-0.368,1.083 -1.931,-0.175 -2.079,-1.722c-0.076,-0.785 -0.083,-1.218 0.139,-1.229Zm3.927,0.129c1.025,0.043 1.51,1.244 0.693,1.835c-0.445,0.322 -1.568,-0.247 -1.681,-0.836c-0.072,-0.38 0.598,-1.016 0.988,-0.999Zm23.978,0.893c0.594,0 1.076,0.483 1.076,1.081c0,0.597 -0.482,1.08 -1.076,1.08c-0.595,0 -1.077,-0.483 -1.077,-1.08c0,-0.598 0.482,-1.081 1.077,-1.081Zm-3.219,0.447c0.595,0 1.077,0.484 1.077,1.081c0,0.597 -0.482,1.081 -1.077,1.081c-0.594,0 -1.076,-0.484 -1.076,-1.081c0,-0.597 0.482,-1.081 1.076,-1.081Zm-21.565,1.444c0.066,-0.004 0.135,-0.004 0.206,0c0.987,0.048 1.04,0.992 0.453,1.5c-0.351,0.304 -0.669,0.4 -1.123,0.035c-0.812,-0.651 -0.512,-1.48 0.464,-1.535Zm23.963,1.581c0.594,0 1.076,0.483 1.076,1.081c0,0.597 -0.482,1.08 -1.076,1.08c-0.595,0 -1.081,-0.483 -1.081,-1.08c0,-0.598 0.486,-1.081 1.081,-1.081Zm94.542,0.063l0,2.734l-37.996,31.753l-1.286,-1.687l39.282,-32.8Zm-96.728,0.233l-2.81,6.338l-0.845,-1.634l-2.102,-0.001l0.645,-1.89l-1.237,-1.512l6.349,-1.301Zm59.832,26.359l5.003,-4.027c-2.154,-10.91 6.444,-15.251 14.608,-12.082l5.08,-4.347c-9.426,-7.968 -31.591,-2.563 -24.691,20.456Zm-67.684,-21.324c0.595,0 1.077,0.483 1.077,1.081c0,0.597 -0.482,1.081 -1.077,1.081c-0.595,0 -1.076,-0.484 -1.076,-1.081c0,-0.598 0.481,-1.081 1.076,-1.081Zm-3.268,0.264c0.595,0 1.042,0.449 1.042,1.047c0,0.597 -0.447,1.119 -1.042,1.119c-0.595,0 -1.077,-0.488 -1.077,-1.085c0,-0.597 0.482,-1.081 1.077,-1.081Zm17.395,2.195l-4.96,3.987c1.282,10.446 -3.78,15.765 -14.661,12.184l-5.262,4.192c14.217,9.818 32.823,-2.838 24.883,-20.363Zm-15.265,0.943c0.594,0 1.076,0.483 1.076,1.081c0,0.597 -0.482,1.081 -1.076,1.081c-0.595,0 -1.077,-0.484 -1.077,-1.081c0,-0.598 0.482,-1.081 1.077,-1.081Zm104.341,0.274c0.595,0 1.08,0.483 1.08,1.081c0,0.597 -0.485,1.081 -1.08,1.081c-0.595,0 -1.077,-0.484 -1.077,-1.081c0,-0.598 0.482,-1.081 1.077,-1.081Zm-106.569,0.258l-3.171,6.298l-0.79,-1.896l-2.129,0.029l0.688,-2.198l-1.332,-1.13l6.734,-1.103Zm102.31,0.663l0.986,1.666l2.081,0.051l-0.783,1.586l1.504,1.556l-6.783,1.673l2.995,-6.532Zm-109.877,4.574c0.595,0 1.081,0.484 1.081,1.081c0,0.597 -0.486,1.081 -1.081,1.081c-0.594,0 -1.076,-0.484 -1.076,-1.081c0,-0.597 0.482,-1.081 1.076,-1.081Zm-3.098,0.121c0.595,0 1.081,0.483 1.081,1.08c0,0.598 -0.486,1.081 -1.081,1.081c-0.594,0 -1.076,-0.483 -1.076,-1.081c0,-0.597 0.482,-1.08 1.076,-1.08Zm107.73,0.642c0.595,0 1.077,0.484 1.077,1.081c0,0.597 -0.482,1.081 -1.077,1.081c-0.595,0 -1.077,-0.484 -1.077,-1.081c0,-0.597 0.482,-1.081 1.077,-1.081Zm11.013,0.167l0,2.401l-30.857,25.757l-1.298,-1.673l32.155,-26.485Zm-116.586,2.342c0.595,0 1.077,0.483 1.077,1.081c0,0.597 -0.482,1.084 -1.077,1.084c-0.594,0 -1.076,-0.487 -1.076,-1.084c0,-0.598 0.482,-1.081 1.076,-1.081Zm107.777,0.259c0.594,0 1.076,0.484 1.076,1.081c0,0.597 -0.482,1.085 -1.076,1.085c-0.595,0 -1.077,-0.488 -1.077,-1.085c0,-0.597 0.482,-1.081 1.077,-1.081Zm-3.048,0.195c0.595,0 1.076,0.483 1.076,1.081c0,0.597 -0.481,1.084 -1.076,1.084c-0.595,0 -1.08,-0.487 -1.081,-1.084c0,-0.598 0.486,-1.081 1.081,-1.081Zm12.034,0.383l-0.09,3.055c-9.613,8.228 -29.276,24.572 -29.207,24.581l-1.486,-2.058c0,0 21.554,-18.641 30.783,-25.578Zm-118.738,-0.449l-2.966,6.717l-1.28,-1.809l-1.872,-0.128l0.446,-1.817l-1.719,-1.173l7.391,-1.79Zm102.834,2.653l1.893,-0.361l-0.33,1.946l1.331,1.402l-6.975,1.539l3.371,-6.278l0.71,1.752Zm10.421,32.725c1.414,2.124 1.325,4.444 0.733,4.8c-0.624,-0.353 -1.166,-0.966 -1.812,-1.245c-3.25,-1.407 -5.844,-2.563 -6.308,-4.633c-1.77,-4.682 6.209,-0.688 7.387,1.078Zm-17.079,-12.438l10.933,-8.936c0,0 1.676,0.867 1.993,1.261c0.113,0.433 -0.189,0.567 -0.635,0.97c-0.205,0.263 -0.333,0.517 -0.344,1.086c-0.013,0.613 0.189,0.888 -0.058,1.159c-0.412,-0.022 -0.741,0.519 -0.724,0.956c0.014,0.334 -0.421,0.704 -0.676,0.955c-0.452,0.446 -0.585,0.539 -0.875,2.052c-0.029,0.151 -0.019,0.545 -0.232,0.749c-0.632,0.057 -1.09,1.61 -1.378,1.709c-0.462,-0.03 -1.195,-0.596 -1.374,-1.432c-0.116,-0.544 -0.085,-1.6 0.043,-2.28c0.153,-0.81 0.222,-1.543 0.171,-1.738c-0.118,-0.451 -0.415,-0.174 -0.411,0.459c0.002,0.257 -0.097,1.027 -0.259,1.753c-0.163,0.728 -0.605,1.695 -0.406,2.268c0.296,0.856 1.388,1.218 1.88,1.671c1.294,1.191 1.576,1.773 1.723,2.037c1.035,1.9 1.038,2.224 0.779,3.653c-0.149,0.823 -0.948,0.683 -1.429,0.348c0,0 -3.074,-2.246 -4.412,-3.361c-2.026,-1.691 -3.449,-3.418 -4.309,-5.339Zm4.148,6.142c1.173,0.477 4.226,2.701 4.226,2.701l-2.781,5.808c0.507,0.91 0.711,3.169 0.711,3.169c3.517,-0.271 5.422,5.681 -0.056,5.131c0.625,3.679 -5.278,6.563 -5.116,-0.031c-6.149,0.48 -4.084,-6.513 -0.295,-5.201c-0.114,-2.963 1.854,-3.347 3.242,-4.075c1.138,-1.293 1.836,-4.218 1.836,-4.218l-0.277,-0.893l0,0c-1.167,2.045 -6.131,2.632 -11.587,1.548c1.477,-3.514 5.958,-3.415 10.097,-3.939Zm-10.848,4.422c-0.186,0.699 -0.191,0.691 0.65,0.606c0.426,-0.043 2.136,-0.04 3.329,0.008c2.195,0.172 5.65,0.187 7.384,-1.139c0.335,-0.321 0.519,-0.299 0.582,-0.124c0.148,0.857 -1.535,3.673 -1.535,3.673l-2.778,1.542c0,0 -1.137,0.054 -2.546,0.019l-0.024,2.509c-1.104,0.656 -2.998,3.463 0.046,5.616l-0.101,2.733l2.684,0.049c1.781,1.711 3.231,1.704 4.866,0.092l3.093,0.002l-0.012,-2.951c1.526,-1.231 1.742,-3.32 0.183,-4.988l-0.038,-2.995l-2.381,0.015c0,0 -0.492,-0.383 -0.506,-0.687c-0.002,-0.197 1.738,-3.563 2.071,-4.043c0.433,-0.625 0.316,-0.268 1.008,1.174c0.99,2.065 1.97,2.906 4.481,4.125c2.241,1.087 3.041,1.595 3.691,2.218c0.518,0.496 0.823,0.339 1.023,-0.401c0.432,-1.646 0.299,-3.293 -0.604,-4.8c-1.906,-3.18 -5.225,-3.326 -5.753,-4.062c-0.069,-0.176 0.606,-0.378 1.333,-0.704c1.257,-0.767 3.096,-3.085 3.332,-4.016c-0.043,-0.448 0.252,-1.861 0.469,-2.174c0.251,-0.555 0.279,-0.814 0.268,-2.305c-0.225,-0.851 -0.02,-1.959 0.085,-2.341c0.114,-0.773 -0.296,-1.685 -0.877,-2.804c-0.218,-1.039 -0.168,-0.769 0.502,-3.11c0.109,-0.379 0.862,-3.641 -0.101,-3.864c0.011,0.029 0.1,0.129 0.127,0.183c0.314,1.068 0.11,2.074 -0.139,3.044c-0.753,2.621 -0.769,2.927 -1.457,2.705c-0.186,-0.06 -1.401,-1.002 -1.401,-1.002c0,0 -0.013,-1.227 0.244,-2.446c-0.152,0.414 -0.253,1.48 -0.732,1.731c-0.257,0.059 -0.611,-0.17 -1.278,-0.747c-0.255,-0.22 -0.801,-0.605 -0.801,-0.605c0,0 7.76,-6.677 10.698,-8.891l0,98.892l-55.735,0.024c-0.699,-6.125 1.136,-14.229 4.174,-22.347c1.878,-5.017 4.575,-8.738 7.616,-13.229c5.831,-8.563 10.241,-17.258 8.541,-28.28c-0.222,-1.636 -0.446,-2.42 -0.37,-2.86c0.709,-1.335 3.52,-5.383 5.575,-7.068c3.016,-2.473 7.211,-6.168 7.548,-5.949c1.001,1.94 2.187,3.51 3.757,4.694c0.276,0.301 0.283,0.566 -0.354,0.7c-4.163,-0.038 -8.447,0.88 -9.837,4.578l0,0Zm-96.984,-28.096c0.595,0 1.076,0.484 1.076,1.081c0,0.597 -0.481,1.081 -1.076,1.081c-0.595,0 -1.077,-0.484 -1.077,-1.081c0,-0.597 0.482,-1.081 1.077,-1.081Zm104.409,0.245c0.595,0 1.077,0.484 1.077,1.081c0,0.597 -0.482,1.081 -1.077,1.081c-0.595,0 -1.076,-0.484 -1.076,-1.081c0,-0.597 0.481,-1.081 1.076,-1.081Zm2.346,2.965c0.595,0 1.076,0.484 1.076,1.081c0,0.597 -0.481,1.081 -1.076,1.081c-0.595,0 -1.077,-0.484 -1.077,-1.081c0,-0.597 0.482,-1.081 1.077,-1.081Zm-3.484,0.46c0.595,0 1.076,0.484 1.076,1.081c0,0.598 -0.481,1.081 -1.076,1.081c-0.595,0 -1.077,-0.483 -1.077,-1.081c0,-0.597 0.482,-1.081 1.077,-1.081Zm-3.847,2.464l1.947,-0.097c-0.245,0.702 -0.375,1.427 -0.514,2.154l1.585,1.17l-6.859,1.171l2.956,-6.102l0.885,1.704Zm-4.68,17.798l-11.551,-14.976l1.393,-1.131l11.645,14.812l-1.487,1.295Zm-1.411,-14.55c0.595,0 1.077,0.483 1.077,1.081c0,0.597 -0.482,1.081 -1.077,1.081c-0.595,0 -1.076,-0.484 -1.076,-1.081c0,-0.598 0.481,-1.081 1.076,-1.081Zm24.263,1.677c0.936,0.731 0,1.756 -0.895,1.352c-0.777,-0.329 -0.718,-1.12 -0.106,-1.437c0.381,-0.182 0.672,-0.137 1.001,0.085Zm1.246,0.697c0.961,0.016 2.022,2.302 1.827,2.974c-0.286,0.781 -0.549,0.809 -1.904,-0.342c-1.34,-1.137 -1.359,-1.184 -0.817,-1.8c0.3,-0.349 0.444,-0.81 0.894,-0.832Zm-22.848,0.417c0.595,0 1.076,0.484 1.076,1.081c0,0.597 -0.481,1.085 -1.076,1.085c-0.595,0 -1.077,-0.488 -1.077,-1.085c0,-0.597 0.482,-1.081 1.077,-1.081Zm-3.338,0.416c0.594,0 1.076,0.484 1.076,1.081c0,0.597 -0.482,1.081 -1.076,1.081c-0.596,0 -1.077,-0.484 -1.077,-1.081c0,-0.597 0.481,-1.08 1.077,-1.081Zm23.647,0.771c1.062,0.158 1.34,0.964 0.851,1.563c-0.664,0.811 -2.153,0.075 -1.8,-0.89c0.16,-0.438 0.548,-0.664 0.949,-0.673Zm1.906,1.217c0.416,-0.035 1.042,0.542 1.728,1.5c0.771,1.076 0.833,1.423 0.615,2.08c-0.318,0.956 -0.518,1.132 -1.209,0.199c-0.261,-0.351 -0.867,-1.176 -1.299,-1.63c-0.923,-0.971 -1.067,-0.724 -0.517,-1.465c0.256,-0.343 0.432,-0.662 0.682,-0.684Zm-2.498,1.131c0.954,0.495 1.046,1.139 0.482,1.595c-0.664,0.364 -1.835,-0.068 -2.062,-0.728c-0.333,-0.964 0.686,-1.454 1.58,-0.867Zm1.617,1.425c0.54,-0.034 0.985,0.526 1.645,1.596c1.125,1.823 1.186,2.436 0.227,3.638c-0.689,0.865 -0.759,0.911 -1.434,-0.467c-0.551,-1.126 -1.6,-2.444 -2.571,-3.235c-0.406,-0.33 -0.549,-0.793 -0.256,-0.824c0.085,-0.009 0.445,-0.026 0.798,-0.039c0.519,-0.019 0.707,-0.09 0.991,-0.369c0.188,-0.185 0.389,-0.286 0.6,-0.3Zm-3.875,1.423c0.502,-0.025 1.151,0.249 1.634,0.812c0.547,0.578 0.483,1.107 -0.593,1.213c-0.484,0.191 -1.802,-0.677 -1.808,-1.259c-0.005,-0.489 0.324,-0.745 0.767,-0.766Zm2.534,2.113c0.026,-0.001 0.051,-0.001 0.077,0c0.451,0.022 0.684,0.459 1.192,1.482c0.779,1.569 0.554,2.423 -0.792,3.118c-0.914,0.471 -1.611,0.612 -1.728,0.074c-0.034,-0.157 -0.035,-0.609 -0.111,-1.048c-0.1,-0.585 -0.234,-1.195 -0.749,-1.975c-0.823,-1.245 -0.969,-1.687 -0.066,-1.32c0.478,0.194 0.998,0.171 1.545,-0.117c0.241,-0.127 0.446,-0.203 0.632,-0.214Zm-4.567,2.524c-0.313,-0.006 -0.514,0.186 -0.429,0.7c0.284,0.14 0.733,0.01 1.072,0.132c0.457,0.166 0.74,0.911 1.228,0.789c0.051,-0.628 -1.181,-1.606 -1.871,-1.621Zm-93.205,10.942c-2.516,-1.204 -8.751,-3.99 -11.754,-4.03c-5.569,-1.569 -5.756,-0.857 -7.709,-1.359c10.338,-2.691 17.265,2.483 19.87,4.997c1.183,1.184 0.539,0.844 -0.407,0.392Zm6.583,24.466c5.915,10.301 11.428,21.921 20.678,39.128l-0.889,0.279l-35.273,0.063c1.747,-19.009 -8.484,-37.119 -9.176,-36.409c7.99,0.148 14.623,-1.4 16.023,-4.356l-1.139,-0.327c-4.65,4.029 -11.622,4.214 -16.27,2.969c0.106,-9.905 -0.307,-20.366 0,-30.267c5.494,-0.41 9.883,1.612 12.928,5.642c5.119,6.776 8.59,15.392 13.118,23.278Zm-16.176,-27.443c1.414,-0.108 9.135,3.081 12.589,5.463c0.959,0.996 2.36,2.727 2.362,2.897c0.006,0.46 -0.676,-0.108 -4.012,-2.018c-2.524,-1.426 -5.143,-2.563 -7.694,-3.656c-0.117,-0.051 -0.35,-0.151 -0.35,-0.151c0,0 -0.189,-0.218 -0.513,-0.47c-0.908,-0.705 -2.673,-1.957 -2.382,-2.065Zm3.753,3.612c-0.077,-0.014 7.657,2.798 13.811,7.718c0.818,0.654 1.823,3.095 1.823,3.095c-0.549,-1.038 -10.269,-6.876 -13.682,-8.213c-0.004,-0.005 -1.952,-2.6 -1.952,-2.6Zm2.727,3.734c0.421,-0.254 11.732,6.449 13.389,8.179c0.752,0.577 2.511,3.379 2.517,3.943c0.006,0.501 -0.544,0.068 -1.556,-0.871c-5.209,-4.884 -12.734,-8.564 -12.795,-8.483l-1.555,-2.768Zm2.098,3.895c5.311,2.256 11.983,7.681 15.35,10.909c0.842,0.837 1.443,2.049 1.556,2.613c0.071,0.35 -0.105,0.326 -0.174,0.513c-4.363,-5.028 -13.953,-10.768 -15.225,-11.216c0.01,0.317 -1.055,-1.95 -1.507,-2.819Zm17.635,15.668c0.611,0.626 1.579,2.82 1.363,3.087c-0.107,0.132 -0.096,0.063 -0.353,-0.116c-1.396,-1.395 -8.568,-7.784 -14.552,-11.368c-0.562,-0.282 -2.447,-3.265 -2.047,-3.322c3.128,1.024 12.075,8.196 15.589,11.719Zm-12.942,-7.13c0.103,0.007 0.29,0.141 0.611,0.319c5.504,3.047 13.481,10.722 14.993,12.567c0.344,0.568 0.886,1.611 0.846,2.25c-0.069,0.502 -0.269,0.075 -2.494,-2.123c-3.575,-3.515 -7.688,-6.917 -12.047,-9.775c-0.838,-0.578 -0.678,-0.651 -1.286,-1.714c-0.61,-1.066 -0.851,-1.541 -0.623,-1.524Zm35.196,0.116c3.93,0.113 5.467,3.099 7.887,8.605c1.981,5.424 2.802,10.394 2.892,14.35c0.006,0.266 -0.474,0.04 -0.693,-0.019c-1.052,-0.284 -2.362,-0.549 -3.88,-0.164c-1.115,0.283 -2.175,0.251 -1.03,-0.501c0.369,-0.243 1.369,-1.173 1.901,-1.505c1.078,-0.673 0.423,-0.665 -0.646,-0.136c-0.81,0.4 -1.351,0.907 -1.685,0.988c-0.206,0.049 -0.078,-0.632 0.12,-1.12c1.143,-2.822 1.489,-4.492 -0.213,-5.016c-0.46,-0.141 -1.082,-0.569 -1.375,-0.855c-0.234,-0.228 -0.433,-1.141 -0.507,-1.178c-0.078,-0.039 -0.133,0.832 -0.132,0.964c0.005,0.454 0.585,1.372 1.282,1.874c1.184,0.852 1.418,1.088 0.775,3.107c-0.901,2.827 -1.094,3.519 -1.259,4.175c-0.095,0.378 -0.279,1.019 -0.372,1.435c-0.357,1.603 -0.313,3.003 -0.247,4.335c0.389,2.976 3.584,4.445 7.873,2.792c0.406,-0.159 0.575,-0.016 0.575,-0.016c-3.417,3.489 -7.251,5.718 -9.486,12.766c-2.874,-5.814 -6.945,-10.37 -13.712,-12.196l-0.1,-1.215c2.36,1.136 6.937,2.682 9.842,0.945c1.555,-1.067 1.082,-1.754 -0.806,-1.019c-2.247,0.876 -6.306,0.774 -8.333,-0.373c-0.413,-0.234 -0.834,-0.032 -0.952,0.008c-0.106,-0.684 -1.081,-3.26 -0.938,-4.228c-0.084,-0.136 0.617,-0.142 0.752,0.038c0.56,0.752 3.408,2.99 6.366,2.815c1.471,-0.087 2.68,-0.535 3.958,-1.889c0.106,-0.095 0.627,-0.163 0.698,-0.243c0.114,-0.129 0.031,-0.321 0.027,-0.389c-0.032,-0.103 -0.223,-0.386 -0.349,-0.704c-0.165,-0.278 -0.198,-0.568 -0.171,-0.792c0.004,-0.186 0.127,-0.284 0.223,-0.414c0.11,-0.249 0.08,-0.566 0.018,-0.734c-0.262,-0.178 -0.23,-0.511 -0.089,-0.665c0.4,-0.454 -3.445,-3.978 -4.198,-3.97c-0.272,0.004 -0.111,0.507 0.441,0.875c1.955,1.303 3.379,3.005 3.056,3.227c-0.249,0.172 -1.124,-0.204 -2.015,-0.415c-1.789,-0.421 -3.935,-0.689 -6.265,0.999c-0.871,0.718 -3.174,0.826 -3.174,0.826c-0.029,-1.26 -5.331,-15.324 -5.341,-14.713c1.929,-2.258 7.989,-7.603 14.062,-9.907c1.868,-0.615 3.874,-0.929 5.22,-0.748l0,0Zm-23.022,3.148l11.023,0.171c-2.772,1.401 -7.807,6.425 -7.807,6.425c-1.441,-2.91 -1.881,-4.362 -3.216,-6.596Zm-9.529,1.46c0.821,0.004 9.571,7.162 10.815,8.853c0.15,0.203 1.037,1.143 1.972,2.084c2.263,2.277 3.196,3.594 3.206,4.533c0.005,0.444 -0.399,0.155 -1.003,-0.513c-4.532,-5.056 -7.48,-7.8 -13.081,-11.676c-0.636,-0.342 -2.61,-2.98 -1.94,-3.274c0.009,-0.003 0.017,-0.007 0.031,-0.007l0,0Zm29.928,1.318c-0.246,-0.009 -0.205,0.229 -0.071,0.447c1.388,1.232 5.054,1.178 6.318,0.182c1.146,-0.903 -0.357,-0.426 -0.825,-0.225c-1.096,0.472 -2.27,0.418 -3.795,0.012c-0.89,-0.237 -1.381,-0.408 -1.627,-0.416l0,0Zm3.381,2.006c-1.282,0.012 -2.622,0.398 -2.324,0.871c0.109,0.172 0.46,0.496 1.298,0.039c1.209,-0.601 3.694,0.187 3.768,0.206c0.253,0.067 -0.826,-0.714 -1.189,-0.875c-0.399,-0.177 -0.97,-0.246 -1.553,-0.241Zm-30.889,1.337c4.702,2.889 10.429,8.668 13.867,12.796c0.573,0.711 0.986,1.585 0.992,2.099c0.008,0.742 -0.15,0.331 -3.273,-2.846c-2.449,-2.515 -6.145,-5.939 -8.593,-7.783c-1.47,-1.076 -1.732,-1.216 -2.424,-2.493c-0.649,-1.197 -0.884,-1.791 -0.569,-1.773Zm29.294,0.965c-0.884,0.421 -2.057,0.331 -3.199,-0.063c-1.034,-0.357 -0.792,-0.051 -0.399,1.081c0.179,0.515 0.289,1.246 0.29,1.353c0.003,0.252 0.003,0.27 0.732,-0.14c0.636,-0.357 0.77,-0.48 2.126,-0.163c1.379,0.322 1.401,0.203 2.049,-0.136c0.565,-0.295 0.681,-0.472 1.067,-0.316c0.756,0.305 1.611,0.435 2.58,-0.076c0.743,-0.393 0.985,-0.128 1.329,0.046c0.467,0.236 0.648,0.086 0.465,-0.381c-0.073,-0.186 -0.209,-0.984 -0.213,-1.236c-0.008,-0.479 -0.125,-0.911 -0.326,-0.809c-0.741,0.374 -1.343,0.772 -2.049,0.759c-1.297,-0.024 -2.434,-0.806 -4.452,0.081Zm-57.5,0.984c11.719,14.659 9.848,35.79 9.458,35.619l-9.458,0.04l0,-35.659Zm30.693,2.963c4.681,3.295 10.252,9.04 13.34,13.012c0.525,0.686 0.098,0.903 0.36,1.73c0.096,0.307 -0.422,-0.146 -1.909,-1.749c-1.853,-1.998 -4.899,-5.002 -6.905,-6.746c-2.197,-1.91 -2.832,-2.391 -3.3,-3.036c-0.368,-0.54 -1.873,-3.135 -1.586,-3.211Zm26.345,1.348c-0.05,-0.001 -0.099,0.002 -0.147,0.004c-1.666,0.079 -2.512,1.953 -1.084,3.278c0.537,0.497 1.389,0.792 1.386,0.524c-0.001,-0.063 -0.269,-0.333 -0.457,-0.478c-1.189,-0.918 -1.068,-2.349 0.287,-2.364c0.469,-0.005 0.498,0.163 1.583,0.945c1.277,0.92 2.783,0.921 2.765,-0.004c-0.013,-0.679 -0.265,-1.375 -1.405,-1.263c-0.3,0.029 -0.699,0.061 -1.05,-0.028c-0.335,-0.085 -0.622,-0.291 -0.755,-0.35c-0.397,-0.176 -0.776,-0.259 -1.123,-0.264l0,0Zm-23.302,4.316c3.581,2.414 8.503,7.872 11.019,11.092c0.576,0.754 0.614,1.588 0.381,2.038c-0.055,0.088 -0.495,-0.187 -0.495,-0.187c-2.909,-3.439 -6.207,-6.565 -9.445,-9.74c0,0 -1.924,-3.106 -1.46,-3.203Zm34.717,5.221l-0.773,0.386c-1.172,-1.764 -2.245,-1.788 -3.143,0.273l-0.576,-0.145c-0.429,-0.475 1.544,-4.958 4.492,-0.514Zm-0.173,-1.504c0.323,0.011 0.887,0.186 1.018,0.517c0.148,0.304 -0.018,0.649 -0.46,0.634c-0.068,-0.003 -0.496,-0.53 -0.709,-0.853c-0.157,-0.197 -0.09,-0.305 0.151,-0.298Zm-13.153,2.158l-0.865,0.04c-1.649,-2.176 -2.883,-0.715 -3.622,0.193l-0.927,-0.127c0.148,-2.389 4.355,-3.222 5.414,-0.106Zm8.425,-1.858c0.13,0.003 0.259,0.027 0.379,0.074c-0.341,0.52 -0.399,0.953 -0.476,1.423c-0.337,0.14 -0.817,0.432 -1.173,0.059c-0.664,-0.606 0.357,-1.573 1.27,-1.556Zm-13.526,0.244c0.408,0.002 0.286,-0.025 0.108,0.204c-0.179,0.232 -0.424,0.645 -0.555,1.015c-0.055,0.257 -0.098,0.35 -0.338,0.358c-0.457,0.015 -1.384,-0.149 -1.378,-0.143c-0.353,-0.334 1.105,-1.398 2.163,-1.434Zm5.238,0.304c0.273,-0.033 0.209,0.359 0.121,0.512c-0.172,0.205 -0.241,0.272 -0.338,0.017c-0.046,-0.123 -0.117,-0.22 -0.176,-0.293c-0.135,-0.174 -0.12,-0.183 0.047,-0.213c0.075,-0.012 0.25,-0.021 0.346,-0.023Zm14.151,1.737c1.008,-0.026 0.334,1.692 -1.069,2.107c-1.55,0.789 -3.327,0.6 -5.135,-0.435c-1.032,-0.59 -1.344,-1.213 -0.445,-0.964c3.386,0.936 4.209,0.763 6.251,-0.564c0.122,-0.104 0.251,-0.129 0.398,-0.144Zm-32.581,-0.372c3.371,2.868 5.909,6.115 8.604,9.109c0.538,0.667 0.79,1.31 0.686,1.745c-0.129,0.542 -1.235,-0.75 -1.235,-0.75c0.028,0.012 -6.581,-7.07 -6.581,-7.07c0,0 -1.677,-3.019 -1.474,-3.034Zm10.074,0.99c0.234,0.008 0.699,0.117 1.449,0.311c3.242,0.987 4.224,0.951 6.087,0.092c1.188,-0.548 1.679,-0.469 1.171,0.355c-0.936,1.514 -4.24,1.682 -6.72,0.836c-0.657,-0.223 -1.234,-0.616 -1.867,-1.092c-0.339,-0.355 -0.421,-0.512 -0.12,-0.502Zm14.956,1.004c0.194,-0.012 0.556,0.212 0.996,0.462c2.717,1.547 4.722,1.263 6.396,0.226c0.303,-0.278 0.467,-0.145 0.507,0.124c0.143,0.942 0.185,1.619 -0.244,2.072c-0.249,0.264 -0.673,0.383 -1.313,0.599c-2.63,0.888 -5.831,0.254 -6.444,-1.727c-0.199,-1.019 -0.326,-1.728 0.102,-1.756Zm-21.557,4.249c0.01,-0.001 0.02,-0.002 0.031,0c0.191,0.029 0.629,0.414 1.321,1.201c3.616,4.118 5.616,6.484 5.251,7.675c-0.034,0 -0.056,0.257 -0.209,0.125c-1.989,-1.724 -3.612,-3.609 -4.821,-5.579c-1.325,-2.16 -1.87,-3.396 -1.573,-3.422Zm29.15,2.897c-3.051,2.343 -6.752,7.918 -7.084,10.664c-0.064,0.525 -0.008,0.919 -0.201,1.109c-0.154,0.15 -0.499,0.164 -0.961,0.073c-0.283,-0.052 -0.215,-0.083 -0.282,-0.404c-0.263,-1.257 0.937,-4.42 3.419,-8.149c1.302,-1.957 4.26,-4.598 5.087,-4.616c0.551,0.228 0.016,1.348 0.022,1.323Zm-22.593,-1.272c0.215,-0.006 0.548,0.107 1.014,0.307c2.739,1.18 3.761,1.609 5.534,3.06c3.304,2.705 6.976,9.127 5.898,9.728c-0.474,0.264 -0.809,0.098 -1.002,-0.499c-0.035,-0.108 -0.381,-1.008 -0.795,-1.772c-2.215,-4.086 -5.095,-6.896 -9.155,-8.884c-1.499,-0.734 -1.652,-0.652 -1.766,-1.267c-0.085,-0.462 -0.005,-0.665 0.272,-0.673Zm22.549,2.36c0.275,-0.023 0.34,0.48 0.247,1.492c-0.076,0.825 -0.125,0.807 -1.041,1.774c-1.464,1.19 -3.195,3.985 -3.996,6.831c0.001,0.099 -0.075,0.316 -0.213,0.436c-0.377,0.325 -0.852,0.166 -1.177,0.159c-0.234,-0.125 -0.17,-0.64 -0.128,-0.929c0.67,-2.584 2.318,-5.758 4.902,-8.546c0.727,-0.784 1.164,-1.196 1.406,-1.217Zm-21.98,0.074c1.45,-0.034 6.604,3.832 8.69,7.216c1.363,2.212 1.731,3.119 1.417,3.441c-0.166,0.17 -0.899,0.198 -1.282,0.047c-0.348,-0.137 -0.482,-0.67 -1.134,-1.901c-1.703,-3.212 -4.156,-5.54 -6.812,-6.769c-0.494,-0.229 -0.759,-0.374 -0.918,-0.552c-0.178,-0.368 -0.407,-1.405 0.039,-1.482Zm0.782,2.873c0.45,0.086 1.696,0.897 2.738,1.664c1.842,1.358 4.645,5.506 4.066,6.101c-0.186,0.191 -0.829,0.198 -1.16,0.067c-1.972,-3.525 -4.533,-5.202 -5.572,-6.182c-0.316,-0.532 -1.052,-1.786 -0.072,-1.65Zm-4.097,0.622c0.085,-0.021 0.431,0.32 1.057,0.98c1.851,1.951 3.025,4.114 2.753,5.206c-0.229,0.924 -0.499,0.418 -2.617,-3.639c-0.892,-1.707 -1.318,-2.515 -1.193,-2.547Zm25.322,0.055c0.042,1.122 -0.048,1.399 -0.166,1.994c-0.081,0.406 -0.348,0.595 -0.601,0.91c-0.629,0.787 -1.344,2.148 -1.703,3.247c-0.303,0.886 -0.161,1.099 -1.247,0.98c-0.507,-0.067 -0.385,-0.204 -0.186,-0.79c0.684,-1.922 2.327,-5.038 3.903,-6.341Zm-21.036,2.115c0.022,-0.576 4.966,4.419 4.286,4.982c-0.643,0.113 -1.026,0.136 -1.295,-0.094c-0.528,-1.188 -2.882,-3.442 -2.882,-3.442l-0.109,-1.446Zm20.761,1.575c0.012,-0.003 0.021,-0.003 0.031,0c0.221,0.045 0.099,3.117 -0.085,3.371c-0.352,0.178 -1.018,0.194 -1.375,0c-0.217,-0.119 -0.283,-0.338 -0.201,-0.576c0.205,-0.595 1.276,-2.722 1.63,-2.795Zm-18.656,3.378c-0.156,0.244 -1.118,0.287 -1.481,0.012c-0.116,-0.088 -0.229,-1.612 -0.094,-1.888c0.369,-0.242 1.697,1.548 1.575,1.876Z" style="fill:#131f67;fill-rule:nonzero;"/><path id="path3389-2-3-5-0" d="M111.089,19.487l0.62,0.817l-3.621,0.019c0.592,0.502 14.008,27.607 31.162,58.923c2.84,5.496 8.256,7.477 14.545,7.718l-16.659,-26.936c1.774,-0.971 5.297,-3.568 7.428,-3.086c0.132,0.657 0.765,0.395 0.774,-0.188l0.77,0.015l0.271,0.424l3.238,0l0.265,-0.383l2.79,0.403c-7.458,-9.23 -11.392,-23.453 -10.115,-37.337l-24.733,0.055l-0.33,-0.436l-6.405,-0.008Zm-3.001,0.836c-0.014,-0.011 -0.023,-0.017 -0.023,0l0.023,0Zm-28.435,18.068c-2.812,9.117 -9.766,16.618 -13.895,24.172c-4.427,8.241 -5.467,15.413 -4.221,23.258l0.809,0.07c9.437,-12.924 16.744,-28.364 20.834,-43.548c0.089,-0.331 -0.064,-0.915 0.012,-1.25c-0.175,-0.402 -0.022,-0.836 0.089,-0.953c0.238,-0.251 0.149,-1.236 -0.027,-2.865c-0.446,-4.839 -0.358,-8.637 0.045,-13.023c0.31,-3.367 0.292,-3.896 0.292,-3.896l-1.615,-0.025c0.298,5.732 -0.456,12.794 -2.323,18.06l0,0Zm38.844,-17.671l2.655,0.055c0.409,8.144 7.241,9.203 8.298,9.085c-1.745,5.507 1.143,11.551 8.097,12.409c-1.595,5.106 1.228,11.838 6.792,11.654l0.588,0.374c-0.359,0.735 -0.435,2.247 -0.414,2.27c-1.237,0.091 -1.908,0.272 -2.711,0.432c-7.19,-10.885 -23.305,-36.279 -23.305,-36.279Zm23.592,0c-0.804,9.098 1.014,21.594 5.27,28.977c0,0 -0.135,0.495 -0.224,0.63c-0.406,0.614 -0.607,0.083 -0.852,-0.412c-0.907,-1.682 -2.619,-1.943 -3.369,-1.007c-1.657,2.267 0.139,3.161 1.533,4.441c-5.698,-0.35 -7.597,-6.645 -6.28,-9.76c-0.029,0.594 0.288,1.491 0.705,2.127c1.602,2.438 3.94,0.381 3.27,-1.548c-0.277,-0.798 -1.299,-2.129 -1.299,-2.129c0,0 1.388,-0.206 1.955,-0.55c0.529,-0.33 0.864,-0.914 0.727,-1.714c-0.109,-0.642 -0.137,-0.922 -0.48,-1.501c-0.42,-0.527 -1.173,-0.891 -1.776,-0.851c-1.176,0.079 -1.319,0.891 -2.089,1.448c-0.191,-1.463 -1.125,-2.577 -2.649,-2.3c-1.159,0.21 -1.995,1.448 -1.285,2.998c0.359,0.792 0.863,1.032 1.371,1.718c-8.187,-0.92 -7.295,-10.68 -6.389,-10.506c0,0 0.246,-0.046 0.174,0.328c-0.467,2.388 2.488,3.815 3.783,2.08c0.825,-1.408 -0.948,-3.631 -0.948,-3.631c0,0 1.181,-0.254 1.717,-0.565c2.138,-1.237 -0.14,-4.794 -2.129,-3.92c-0.699,0.319 -0.876,0.968 -1.557,1.315c-0.456,-0.509 -0.483,-1.066 -1.302,-1.523c-2.244,-1.255 -3.648,1.714 -2.405,3.02c0.51,0.53 1.409,1.012 1.233,1.077c-6.961,-0.883 -6.893,-8.196 -6.734,-8.145l20.029,-0.097Zm-59.828,0.061l0.958,0c-0.284,4.339 -0.897,10.063 -0.496,14.293c0.469,4.042 0.49,4.615 0.202,5.016c-0.396,0.446 -0.187,0.656 -0.109,1.019c0.104,0.664 0.114,0.671 0.02,1.049c-0.844,3.392 -1.922,6.908 -3.292,10.463c-4.479,12.399 -11.786,25.918 -17.517,33.008c-0.004,-0.025 -0.262,0.023 -0.266,-0.002c-1.568,-9.894 1.783,-18.14 3.532,-21.525c3.547,-6.862 9.118,-12.719 12.426,-19.908c2.815,-6.117 4.892,-13.469 4.542,-23.413l0,0Zm35.261,-0.042l23.343,36.446l-4.26,2.096l-23.889,-38.409l4.806,-0.133Zm13.681,7.119c0.604,0 1.092,0.494 1.092,1.101c0,0.606 -0.488,1.1 -1.092,1.1c-0.604,0 -1.096,-0.494 -1.096,-1.1c0,-0.607 0.492,-1.101 1.096,-1.101Zm7.741,12.154c0.612,0 1.108,0.498 1.108,1.112c0,0.614 -0.496,1.112 -1.108,1.112c-0.611,0 -1.107,-0.498 -1.107,-1.112c0,-0.614 0.496,-1.112 1.107,-1.112Zm-55.62,2.171c0.399,1.588 -7.409,25.425 -18.503,40.593l4.844,0.101l0.15,0.537c6.787,10.061 2.542,18.96 -2.938,23.095l1.898,2.538l-1.708,1.388l-1.708,-2.041c-13.889,10.46 -40.99,33.612 -40.99,33.612l0.151,3.713l2.114,-1.672c13.748,13.361 42.899,12.63 50.544,-14.949l2.048,0.047c-4.624,20.214 -23.439,28.126 -37.64,24.774l-3.327,4.798l0.891,0.478c-0.164,-0.256 -0.315,-0.345 -0.074,-0.579l2.827,-3.651c21.247,2.732 34.075,-9.342 38.237,-25.696l2.711,0.047c-2.325,13.738 -8.74,25.833 -17.887,35.299c-6.601,-0.027 -18.208,-0.179 -18.208,-0.179c4.226,4.111 12.298,16.659 12.62,17.931c0,0 8.303,0.266 17.209,0.047c3.265,-1.475 7.634,-2.066 9.674,-1.034c3.585,1.814 6.954,8.544 8.469,19.343c0.39,2.781 0.744,3.96 0.852,4.521c0.019,0.101 0.263,0.175 0.298,0.156c0.137,-0.073 -0.217,0.492 -0.232,0.91c-0.015,0.418 -0.001,1.048 0.197,1.267c0.251,0.278 0.221,0.46 0.186,0.579c-0.023,0.079 -0.507,0.529 -0.507,0.529c-0.072,6.291 -0.037,12.002 -0.38,19.74l1.232,0.007c-0.009,-12.45 3.732,-23.97 9.499,-31.901c3.506,-5.204 7.215,-10.813 9.267,-16.154c2.309,-6.012 2.627,-12.33 1.39,-17.66l-0.844,0.047c-5.072,-3.49 -7.138,-10.94 -0.891,-16.263l-2.211,-2.889c-6.239,4.843 -7.671,13.776 -1.208,21.17l-2.529,-0.008c-6.306,-7.902 -4.91,-16.976 2.378,-23.452l-1.63,-2.08l1.772,-1.568l1.599,1.757l40.682,-34.128l-0.029,-3.734l-3.117,2.539c-18.249,-16.939 -45.311,-5.053 -49.279,15.35l-2.48,0.026c5.201,-21.956 24.364,-28.161 38.226,-25.241l3.422,-5.196c-2.517,-0.71 -4.971,-2.387 -7.288,-4.369c-0.976,-0.835 -1.593,-1.346 -2.302,-2.182c-6.566,-6.966 -11.023,-16.64 -11.232,-16.657l-17.853,-0.044c-2.62,1.301 -7.105,2.779 -9.566,0.784c-5.285,-4.285 -7.058,-12.929 -7.785,-18.491c-0.22,-1.732 -0.407,-4.744 -0.569,-5.743c-0.101,-0.183 -0.295,-0.194 -0.472,-0.162Zm63.296,9.614c0.597,0 1.08,0.489 1.08,1.088c0,0.6 -0.483,1.085 -1.08,1.085c-0.598,0 -1.081,-0.485 -1.081,-1.085c0,-0.599 0.483,-1.088 1.081,-1.088Zm2.323,1.279c0.88,1.145 1.662,2.325 2.099,3.573c-0.41,-0.013 -0.796,0.115 -1.252,-0.242c-0.106,-1.261 -0.623,-2.017 -1.273,-2.857l0.426,-0.474Zm-3.264,1.606c0.36,0.177 0.647,1.546 0.394,1.78c-0.434,0.093 -0.73,0.062 -0.877,-0.09c-0.218,-0.361 0.195,-1.62 0.483,-1.69Zm-71.003,11.889l16.575,0.02c2.883,2.219 5.702,1.925 9.793,0.146l18.429,0l1.042,1.899l-46.737,0c0.26,-0.706 0.898,-2.065 0.898,-2.065Zm-1.367,2.967l47.698,0l1.204,1.947l-50.083,0l1.181,-1.947Zm4.605,2.83l5.351,0l-1.982,3.379l-5.522,0l2.153,-3.379Zm11.88,0l5.108,0l-2.273,3.375l-5.061,0l2.226,-3.375Zm16.521,0l-2.15,3.375l-5.193,0l2.231,-3.344l5.112,-0.031Zm6.405,0l5.115,0l-1.913,3.375l-5.297,0l2.095,-3.375Zm-68.713,0.525c-3.316,-0.038 -2.702,4.378 -2.389,4.24c-2.082,-0.479 -3.621,0.514 -3.877,2.296c-0.204,1.413 1.172,3.428 3.577,3.146c-0.319,0.371 0.007,2.508 0.327,2.703c0,0 0.041,0.309 -1.229,2.969c-1.507,3.156 -1.814,3.306 -2.498,1.232c-0.734,-2.23 -1.87,-3.36 -4.829,-4.802c-0.788,-0.384 -1.903,-1.053 -2.478,-1.489c-1.321,-0.999 -1.336,-0.983 -1.274,1.046c0.081,2.635 0.877,3.791 3.679,5.346c1.371,0.762 3.997,1.837 4.473,1.831c0.334,-0.003 1.563,0.55 3.384,1.525c0.356,0.19 1.574,0.863 3.133,1.014c1.655,0.118 5.383,-0.275 7.544,-1.528c1.212,-0.703 1.68,-1.332 2.575,-3.129c0,0 -3.062,0.159 -4.461,-0.21c-2.907,-0.172 -4.352,-0.003 -6.556,1.147c-1.844,0.961 -1.948,1.133 -1.178,-0.455c0.352,-0.73 0.68,-1.588 0.976,-2.442c0.322,-0.85 0.406,-0.921 1.212,-1.003c1.769,-0.181 2.776,-1.205 2.94,-2.982c0.043,-0.477 -0.027,-0.979 -0.027,-0.979c1.203,0.178 3.667,-0.421 3.591,-2.925c-0.07,-2.251 -1.668,-2.769 -3.636,-2.923c0.253,-1.154 -0.586,-3.601 -2.979,-3.628Zm0.04,0.698c2.906,0.021 2.839,2.699 1.572,4.219l-1.546,-1.278l-1.246,1.156c-1.358,-0.871 -1.352,-4.115 1.22,-4.097Zm79.516,0.033l1.429,2.119l-2.951,0l1.522,-2.119Zm-54.258,3.044l5.472,0l-2.196,3.099l-5.173,0c0,0 1.157,-1.978 1.897,-3.099Zm17.248,0l-2.068,3.219l-4.782,0l1.917,-3.153l4.933,-0.066Zm6.409,0l4.945,0l-1.955,3.433l-4.887,0l1.897,-3.433Zm11.637,0l5.007,0l-2.037,3.433l-4.937,0l1.967,-3.433Zm11.343,0l5.158,0l-2.13,3.433l-4.972,0l1.944,-3.433Zm-71.824,0.638l2.459,2.488l-2.397,2.411l-2.47,-2.372l2.408,-2.527Zm6.235,2.424c-0.435,2.89 -3.209,2.733 -3.998,1.319l1.131,-1.294l-1.386,-1.366c1.345,-2.168 4.582,-0.843 4.253,1.341Zm-8.256,-1.384l-1.33,1.504l1.459,1.407c-0.94,1.311 -4.552,1.208 -3.827,-1.948c0.46,-2.003 2.49,-2.371 3.698,-0.963Zm84.285,-0.368l1.522,2.1l-2.854,0.023l1.332,-2.123Zm-59.35,2.578l61.189,0.198l1.638,2.011c-21.364,0.369 -42.284,-0.345 -64.109,-0.362l1.282,-1.847Zm-21.513,1.307c2.425,1.493 0.634,4.639 -1.969,4.104c-1.939,-0.855 -2.336,-2.875 -0.591,-4.047l1.367,1.131l1.193,-1.188Zm20.982,1.205l-1.669,0.008l-1.626,1.909c6.148,6.502 5.922,12.143 0.194,17.06l2.304,2.59c6.425,-5.519 7.85,-14.191 0.797,-21.567Zm6.316,0.249c3.447,5.406 6.427,15.646 -3.841,25.027l-1.239,-1.509c8.94,-8.766 6.839,-16.138 2.834,-23.452l2.246,-0.066Zm0.957,0.132l13.894,0.054c-2.974,11.381 -5.061,18.083 -5.375,35.887l-4.015,0.023c0.437,-0.41 -2.08,-10.75 -5.015,-14.335c6.156,-10.495 2.839,-16.414 0.511,-21.629Zm-43.705,0.015c0.24,-0.002 0.732,0.31 1.696,0.891c0.865,0.52 1.989,1.179 2.498,1.466c1.908,1.074 2.857,2.088 3.4,3.635c0.406,1.158 0.153,1.181 -1.015,0.089c-0.868,-0.812 -1.794,-1.511 -4.108,-3.102c-0.816,-0.561 -1.074,-0.469 -0.601,0.213c0.341,0.492 1.075,1.051 2.56,1.96c1.077,0.659 2.56,1.979 2.444,2.173c-0.107,0.177 -0.291,0.162 -0.81,-0.066c-0.239,-0.105 -1.015,-0.424 -1.719,-0.711c-3.026,-1.233 -4.319,-2.747 -4.5,-5.265c-0.063,-0.876 -0.117,-1.28 0.155,-1.283Zm63.408,0.055c0,0 0.419,0.554 0.473,0.785c0.116,0.5 -0.372,0.958 -1.909,1.645c-0.528,0.236 -0.967,0.363 -0.953,0.672c0.07,0.726 1.455,1.834 1.286,2.823c-0.319,0.757 -2.242,1.499 -2.723,2.391c0.004,0.614 1.251,1.553 1.073,2.388c-0.097,0.248 -0.5,0.503 -1.096,1.022c-1.22,1.063 -1.296,1.226 -0.848,2.053c1.04,1.922 1.078,1.78 -0.341,3.145c-1.43,1.376 -1.404,1.359 -0.72,2.555c0.736,1.289 0.702,1.231 -0.287,2.056c-0.969,0.81 -0.93,0.974 -0.41,1.979c0.502,0.972 0.617,0.986 -0.229,1.738c-0.987,0.879 -1.173,0.971 -0.476,2.077c0.72,1.143 0.774,1.094 -0.039,2.029c-0.769,0.885 -0.858,0.926 -0.441,1.528c0.524,0.756 0.623,0.957 0.073,1.789c-0.593,0.898 -0.59,0.834 -0.046,1.671c0.458,0.705 0.379,1.49 0.379,1.49l-1.719,-0.004c0,0 -0.012,-0.993 -0.213,-1.357c-0.487,-0.885 -0.474,-1.159 0.105,-1.944c0.594,-0.806 0.495,-0.875 -0.059,-1.68c-0.559,-0.815 -0.479,-0.807 0.248,-1.734c0.668,-0.85 0.701,-1.252 0.322,-1.738c-0.9,-1.152 -0.897,-1.637 0.007,-2.399c0.691,-0.581 0.755,-0.84 0.159,-1.835c-0.583,-0.974 -0.656,-1.063 0.415,-2.033c1.094,-0.992 1.082,-0.971 0.348,-2.096c-0.712,-1.091 -0.674,-1.163 0.469,-2.228c1.156,-1.077 1.171,-1.079 0.414,-2.438c-0.709,-1.271 -0.714,-1.249 0.67,-2.488c1.378,-1.153 1.848,-1.3 0.472,-2.955c-0.766,-1.312 -0.22,-1.441 1.038,-2.095c2.207,-1.354 1.203,-1.27 0.275,-3.278c-0.775,-1.346 -0.332,-1.356 1.019,-2.029c0.335,-0.145 0.707,-0.312 1.088,-0.525c0.903,-0.506 0.414,-0.968 0.414,-0.968l1.762,-0.012Zm2.885,0.031l6.634,0.085c-7.689,9.858 -11.389,22.466 -12.717,35.766l-2.506,-0.039c-0.157,-10.387 3.098,-23.364 8.589,-35.812Zm34.062,0.231c3.794,3.206 6.606,5.042 8.605,5.766c0,0 -2.675,4.457 -2.881,4.294c-15.389,-2.976 -33.69,6.033 -37.83,25.455l-2.424,0.016c0.895,-7.621 2.893,-13.987 6.571,-20.626c3.65,-6.447 7.013,-10.215 12.084,-14.963l15.875,0.058Zm-26.476,-0.165l3.269,0.058c0,0 0.613,0.74 0.891,1.007c1.41,1.607 1.532,1.287 -1.577,3.049c-1.963,1.112 -2.832,1.629 -2.947,2.095c-0.087,0.47 0.858,1.402 0.969,2.03c0.001,0.07 -2.669,1.865 -3.153,2.119c-0.673,0.328 -0.707,0.61 -0.038,1.777c0.768,1.341 0.706,1.294 -0.953,2.457c-1.619,1.134 -1.937,1.021 -1.247,2.15c0.958,1.567 0.507,1.92 -1.746,3.141c-0.57,0.309 -0.584,0.618 -0.186,1.688c0.552,1.486 0.695,1.337 -0.469,2.142c-1.375,0.951 -1.617,0.977 -1.313,1.559c0.886,1.692 1.237,2.103 0.055,2.656c-0.902,0.421 -0.921,0.659 -0.423,1.776c0.502,1.123 0.631,1.078 -0.259,1.711c-0.825,0.587 -1.311,0.456 -0.507,1.415c0.635,0.759 0.578,1.358 0.062,1.824c-0.445,0.189 -0.653,1.039 -0.523,1.057l-1.146,0.031c-0.898,-1.214 0.161,-1.91 0.321,-2.029c0.146,-0.28 -0.033,-0.478 -0.395,-1.135c-0.499,-0.906 -0.481,-1.014 0.236,-1.544c0.725,-0.535 0.747,-0.396 0.264,-1.578c-0.562,-1.375 -0.536,-1.532 0.348,-2.17c0.87,-0.627 0.882,-0.767 0.291,-1.971c-0.624,-1.27 -0.625,-1.271 0.921,-2.302c1.088,-0.725 1.103,-0.681 0.527,-2.026c-0.398,-0.928 -0.117,-1.249 1.363,-2.266c0.845,-0.581 0.909,-0.696 0.511,-1.388c-1.097,-1.908 -1.085,-1.966 0.806,-3.196c1.546,-1.006 1.533,-1.093 0.937,-2.434c-0.646,-1.452 -0.704,-1.34 1.417,-2.617c1.747,-1.051 1.842,-0.99 1.123,-2.255c-0.894,-1.573 -0.837,-1.316 2.657,-3.32c1.259,-0.866 2.396,-0.566 1.142,-2.041c-0.552,-0.708 -1.228,-1.47 -1.228,-1.47Zm-61.696,2.589c0.242,-0.008 0.431,0.29 0.418,0.844c-0.043,0.78 -0.41,1.554 -0.763,2.329c-0.739,1.579 -1.475,2.748 -1.863,2.753c-0.913,0.01 -0.888,-0.195 0.326,-2.578c0.554,-1.088 1.126,-2.329 1.216,-2.57c0.195,-0.521 0.452,-0.77 0.666,-0.778Zm11.23,3.577c0.017,3.345 -10.431,5.03 -10.974,3.342c1.822,-1.432 7.207,-0.796 8.347,-2.077c-1.375,-0.079 -3.238,0.148 -4.515,0.171c-1.593,0.029 -4.165,0.712 -4.191,0.994c-0.167,-0.88 2.734,-2.532 5.032,-2.636c2.149,-0.093 4.483,0.162 6.301,0.206Zm0.895,5.105c0,0 -20.372,16.924 -30.442,25.113l0.062,3.651l32.227,-26.489l-1.847,-2.275Zm-0.066,0.836l1.301,1.587l-30.252,24.747l-0.108,-2.594l29.059,-23.74Zm95.622,8.684l-1.087,1.165c-29.548,-22.073 -56.757,11.441 -41.753,35.415c-0.136,0.309 -1.179,1.075 -1.179,1.075c-16.722,-27.832 15.274,-60.4 44.019,-37.655Zm-16.259,-4.835c1.677,0.013 4.764,1.17 6.068,2.745c1.518,1.835 1.077,2.653 -0.852,0.922c-2.073,-1.512 -3.785,-1.863 -0.906,-0.078c0.635,0.394 1.206,1.163 1.235,1.248c0.105,0.307 -0.426,-0.015 -2.838,-0.898c-1.435,-0.525 -3.253,-1.945 -3.726,-2.912c-0.353,-0.724 0.14,-1.033 1.019,-1.027Zm-6.219,0.051c0.523,-0.004 0.989,0.037 1.32,0.132c2.114,0.609 2.779,0.929 3.567,1.544c0.539,0.421 0.366,0.724 -0.26,0.455c-0.729,-0.314 -3.037,-1.003 -3.45,-0.961c-0.601,0.062 0.001,0.456 0.863,0.673c1.911,0.48 2.859,0.974 1.495,0.995c-0.711,0.106 -3.823,0.116 -4.67,0.016c-1.416,-0.168 -3.536,-1.464 -3.048,-1.929c0.527,-0.501 2.613,-0.912 4.183,-0.925Zm-6.061,1.995c2.506,0.029 3.862,0.969 1.123,1.158c-4.709,0.749 -5.613,1.777 -0.395,0.552c1.214,-0.285 1.192,0.155 0.352,0.568c-0.686,0.335 -1.543,0.5 -2.257,0.847c-1.287,0.538 -4.236,0.657 -5.387,0.218c-1.697,-0.648 3.631,-3.378 6.564,-3.343Zm20.164,0.427c1.266,0.033 3.968,1.876 5.17,3.604c0.786,1.13 0.394,1.942 -0.794,1.035c-0.238,-0.182 -1.944,-1.638 -2.037,-1.672c-0.159,-0.059 1.416,1.443 1.646,1.866c0.197,0.358 0.652,1.18 -0.198,1.197c-1.327,-0.164 -4.445,-3.661 -4.465,-5.388c-0.005,-0.462 0.256,-0.653 0.678,-0.642Zm-15.711,0.984c0.528,-0.017 0.259,0.264 -0.743,0.972c-1.807,1.277 -0.865,1.021 1.247,-0.07c0.642,-0.332 1.416,-0.591 1.688,-0.642c0.272,-0.05 0.596,-0.125 0.721,-0.163c0.567,-0.175 0.129,0.528 -0.794,1.271c-1.944,1.565 -4.139,2.793 -5.654,3.169c-1.931,0.48 -2.341,0.542 -1.627,-0.669c1.135,-1.922 2.787,-3.46 4.365,-3.759c0.355,-0.067 0.621,-0.103 0.797,-0.109Zm6.498,0.031c0.805,-0.016 1.799,0.151 3.366,0.49c1.101,0.345 0.812,0.419 -0.508,0.564c-2.482,0.272 -1.449,0.563 0.965,0.521c3.292,-0.025 -1.65,1.191 -3.253,1.434c-1.251,0.056 -1.618,0.012 -4.345,-0.501c-1.039,-0.196 -0.416,-0.96 1.553,-1.905c0.804,-0.387 1.418,-0.587 2.222,-0.603Zm20.35,0.447l0.09,2.131l-39.868,33.468l-1.355,-1.505l41.133,-34.094Zm-13.565,1.831c1.59,-0.021 3.887,1.086 3.64,1.754c-0.092,0.249 -0.269,0.238 -1.483,-0.086c-0.796,-0.212 -2.223,-0.437 -2.033,-0.26c0.066,0.061 1.179,0.488 1.603,0.591c1.405,0.339 3.087,1.136 2.715,1.372c-0.651,0.398 -1.247,0.087 -2.018,0.004c-1.927,-0.269 -5.094,-1.246 -5.615,-1.734c-0.591,-0.554 1.481,-1.618 3.191,-1.641Zm-18.596,0.125c0.287,0.015 0.394,0.283 0.12,0.649c-0.415,0.55 -0.606,1.012 -0.979,1.687c-1.333,2.067 -2.173,2.885 -3.455,3.686c-1.281,0.801 -1.464,0.664 -1.351,-1.003c0.144,-1.73 1.378,-3.55 3.121,-4.405c0.805,-0.114 1.267,-0.327 0.422,0.688c-1.498,1.802 -0.473,1.618 0.926,-0.427c0.444,-0.651 0.91,-0.89 1.196,-0.875Zm-5.177,0.241c0.864,-0.005 1.154,0.303 0.046,0.824c-1.054,0.497 -3.151,1.969 -3.202,2.131c-0.087,0.274 0.698,-0.156 2.002,-0.871c1.743,-0.956 1.896,-0.933 1.053,0.159c-0.953,1.236 -3.246,2.783 -5.046,3.356c-2.518,0.692 -2.456,0.208 -1.049,-1.668c1.341,-2.04 2.48,-3.013 4.198,-3.57c0.752,-0.244 1.479,-0.359 1.998,-0.361Zm-42.706,0.311c9.136,15.818 4.064,31.891 -6.535,40.087c-11.081,8.57 -28.321,8.061 -38.495,-2.223l1.412,-1.338c-0.007,0.006 16.037,16.411 36.243,1.849c10.255,-7.39 14.491,-24.841 6.031,-37.007l1.344,-1.368Zm-40.925,0.035c-0.029,0 -0.052,0.004 -0.069,0.015c-0.308,0.201 -1.467,3.617 -1.7,5.035c-0.069,0.415 0.032,0.822 0.371,1.155c0.239,0.234 0.625,0.082 0.744,0.035c0.772,-0.351 1.199,-0.889 1.874,-2.593c0.454,-0.933 0.516,-2.048 0.426,-2.438c-0.036,-0.158 -0.286,-0.526 -0.6,-0.735c-0.347,-0.231 -0.838,-0.476 -1.046,-0.474Zm0.178,0.711c0.366,-0.003 1.089,0.594 1.178,1.019c0.006,0.742 -0.416,1.976 -0.732,1.792c-0.528,-0.658 -1.135,-0.243 -1.236,-0.482c-0.068,-0.73 0.4,-1.685 0.721,-2.321c0.021,-0.006 0.045,-0.007 0.069,-0.008Zm98.672,0.591c4.062,0.001 8.102,1.196 11.067,3.834l-1.583,1.458c-6.957,-4.979 -15.055,-3.522 -19.855,-0.163c-4.751,3.324 -8.956,10.684 -4.837,21.049l-1.487,1.353c-4.615,-8.337 -2.139,-19.355 6.03,-24.568c2.88,-1.838 6.57,-2.89 10.27,-2.959c0.131,-0.002 0.264,-0.004 0.395,-0.004l0,0Zm-60.074,1.217c0.123,0 0.31,0.406 0.29,0.902c-0.024,0.597 -0.275,1.375 -0.678,1.54c-0.453,0.186 -0.739,-1.17 -0.739,-1.17c0.278,-0.443 0.658,-0.893 1.127,-1.272Zm72.733,0.467c0.166,-0.009 0.326,-0.002 0.465,0.015c0.453,0.057 0.457,0.464 0.031,0.856c-0.461,0.422 -0.701,0.445 -1.166,0.105c-0.415,-0.304 -0.436,-0.527 -0.077,-0.786c0.187,-0.12 0.471,-0.176 0.747,-0.19Zm-78.023,0.093l1.347,1.668l-4.67,3.771l-0.557,0.043l-35.751,29.724l-0.008,-2.64l39.639,-32.566Zm74.698,4.025l-4.869,4.033c-9.732,-5.076 -17.536,3.97 -14.783,12.186l-4.21,3.669c-7.532,-20.751 14.495,-27.852 23.862,-19.888Zm-25.494,-3.17c0.015,-0.002 0.028,-0.003 0.042,0c0.033,0.008 0.066,0.032 0.097,0.063c0.171,0.167 -0.168,2.918 -0.422,3.429c-0.092,0.186 -0.164,0.425 -0.163,0.533c0.003,0.225 -0.896,2.113 -1.599,3.359c-0.265,0.469 -0.548,1.085 -0.627,1.372c-0.565,2.725 -1.781,-1.656 -1.352,-4.199c0.202,-1.195 1.892,-3.662 2.382,-3.48c0.25,0.094 0.232,0.282 -0.205,1.237c-1.22,2.664 -1.526,4.038 -0.244,1.462c1.477,-2.97 1.862,-3.733 2.091,-3.776Zm-82.713,0.055c0.181,0.01 0.325,0.111 0.403,0.323c0.054,0.18 0.112,0.555 0.011,0.738c-0.249,0.565 -0.766,0.936 -1.289,0.902c-0.23,-0.014 -0.48,-0.217 -0.511,-0.466c-0.028,-0.225 0.027,-0.608 0.31,-0.898c0.372,-0.383 0.775,-0.616 1.076,-0.599l0,0Zm37.068,0.171c0.576,0.028 1.184,1.586 0.797,2.298c-0.316,0.582 -0.375,0.474 -0.929,-0.653c-0.291,-0.593 -0.515,-1.229 -0.515,-1.229l0.472,-0.373c0.039,-0.021 0.081,-0.034 0.12,-0.039c0.019,-0.002 0.036,-0.005 0.055,-0.004l0,0Zm-0.972,0.657c0,0 0.607,1.104 0.755,1.983c0.09,0.537 0.075,0.436 -0.511,0.214c-0.463,-0.29 -0.565,-0.458 -0.852,-0.821c-0.19,-0.335 -0.38,-0.583 -0.38,-0.583l0.988,-0.793Zm3.648,0.237c0.306,-0.01 0.635,0.301 0.937,1.062c1.131,2.857 1.027,6.064 -0.244,7.577c-0.211,0.251 -0.262,0.262 -0.515,0.105c-0.207,-0.128 -0.227,-1.485 -0.027,-1.87c0.062,-0.12 0.249,-0.94 0.263,-1.403c0.033,-1.098 -0.267,-1.236 -0.411,-0.218c-0.166,1.176 -0.346,1.998 -0.666,1.291c-0.16,-0.359 -0.242,-0.718 -0.364,-1.101c-0.636,-2.47 0.106,-5.411 1.027,-5.443Zm-4.93,0.731c0,0 1.089,1.412 1.537,1.917c0.159,0.273 0.152,0.342 -0.1,0.439c-0.432,0.166 -1.873,-0.798 -2.444,-1.096c-0.308,-0.247 -0.174,-0.436 -0.174,-0.436c0.394,-0.297 0.787,-0.59 1.181,-0.824Zm42.954,0.051c0.581,-0.007 0.581,0.197 -0.039,1.092c-3.464,5.003 -2.765,4.26 -0.562,1.524c1.225,-1.521 1.438,-1.666 1.573,-1.325c0.1,0.254 -1.357,3.215 -2.111,4.288c-0.389,0.554 -1.72,1.481 -2.393,1.823c-1.647,0.838 -1.465,0.501 -0.856,-1.574c0.776,-3.22 2.727,-5.81 4.388,-5.828Zm-44.987,1.73c9.496,23.707 -16.506,34.113 -28.238,23.149l1.367,-1.093c16.319,11.114 32.427,-6.69 25.055,-20.621c0,0 0.668,-0.558 1.816,-1.435Zm2.199,0.575c1.563,0.161 3.873,3.032 3.989,4.631c0.247,1.136 -0.073,1.331 -0.627,0.533c-0.937,-1.737 -0.824,-0.636 -0.027,1.088c0.423,0.872 0.521,1.916 0.081,1.971c-0.601,-0.122 -1.903,-2.205 -2.3,-3.063c-0.949,-1.882 -1.018,-1.563 -1.538,-4.351c-0.097,-0.523 0.039,-0.804 0.422,-0.809Zm-4.724,0.778c7.233,13.926 -8.327,30.66 -24.153,19.844l4.744,-3.779c8.26,3.978 17.475,-0.956 14.836,-12.391l4.573,-3.674Zm72.157,2.597l-13.048,10.915c-2.686,-9.047 7.174,-14.216 13.048,-10.915Zm-24.235,-0.023c0.426,-0.089 0.788,2.651 0.868,6.497c0.077,3.762 0.173,4.133 -0.992,2.748c-0.488,-0.564 -1.088,-1.103 -1.355,-1.609c-0.774,-1.468 -0.528,-3.007 -0.314,-5.156c0.2,-2.005 0.914,-1.692 0.798,0.409c-0.075,1.351 -0.061,3.031 0.151,3.028c0.077,-0.001 0.098,-0.13 0.05,-0.315c-0.1,-0.384 0.36,-4.739 0.55,-5.252c0.082,-0.222 0.165,-0.334 0.244,-0.35Zm-35.96,1.656c0.943,0.37 1.211,3.528 0.19,6.582c-0.439,1.313 -1.113,2.17 -2.118,2.699c-0.718,0.377 -0.885,0.258 -0.562,-0.401c0.595,-1.073 0.913,-2.185 1.154,-3.569c0.097,-1.351 -0.613,-0.266 -0.554,0.311c-0.556,2.52 -1.287,2.9 -1.192,0.245c0.069,-1.957 0.325,-2.796 1.243,-4.141c0.461,-0.673 0.955,-1.6 1.839,-1.726Zm32.727,0.319c0.387,0.003 0.482,0.526 0.135,1.543c-0.241,0.706 -1.06,2.991 -0.964,2.982c0.06,-0.005 0.94,-2.059 1.119,-2.395c0.294,-0.55 0.404,-0.654 0.662,-0.629c0.252,1.014 -0.007,2.281 -0.131,3.332c-0.533,2.737 -2.391,5.565 -3.102,4.724c-1.16,-1.372 -0.616,-6.924 0.921,-8.612c0.579,-0.636 1.058,-0.948 1.36,-0.945Zm-49.696,0.42c1.401,9.684 -6.558,13.819 -13.434,10.898c0.146,-0.037 13.434,-10.898 13.434,-10.898Zm32.537,0.179l1.386,1.827l2.54,0.132l-1.301,1.925l1.294,2.465l-2.835,0.054l-1.63,1.882l-1.418,-1.699l-2.478,-0.132l1.444,-2.314l-1.165,-2.212l2.675,-0.128l1.488,-1.8Zm-21.319,0.832c0.319,0.011 1.886,2.078 2.041,2.842c0.473,1.848 0.299,5.345 -0.364,5.225c-0.718,-2.519 -0.439,-3.819 -0.697,-3.53c-0.446,0.463 0.277,4.325 0.039,5.276c-0.114,0.242 -0.498,-0.05 -0.93,-0.673c-1.152,-1.664 -0.997,-8.173 -0.116,-9.133c0.008,-0.004 0.017,-0.008 0.027,-0.007Zm84.835,3.924l-31.351,26.075l1.808,2.337l29.6,-24.536l-0.057,-3.876Zm-45.281,0.45c0.137,-0.028 0.45,0.192 1.038,0.839c1.026,1.391 2.113,3.302 2.509,4.771c0.151,0.572 0.392,1.329 0.539,1.684c0.22,0.532 0.238,0.679 0.108,0.839c-0.543,0.672 -2.814,-1.02 -3.547,-2.64c-1.029,-2.275 -1.055,-4.325 -0.023,-2.329c0.375,0.727 0.841,1.785 0.836,1.365c-0.001,-0.12 -0.457,-1.644 -0.805,-2.325c-0.217,-0.428 -1.005,-2.133 -0.655,-2.204Zm44.948,0.633l0.066,2.158l-29.199,24.518l-1.146,-1.4c0,0 27.502,-22.965 30.279,-25.276Zm-45.587,1.334c0.137,0.014 0.208,0.211 0.167,0.649c-0.134,1.425 -0.484,4.529 -0.411,4.802c0.044,0.164 0.462,-2.055 0.558,-2.449c0.498,-2.057 1.261,2.859 0.801,5.062c-0.072,0.346 -0.218,0.905 -0.294,1.248c-0.076,0.343 -0.32,0.929 -0.418,1.084c-0.827,1.307 -2.771,-3.894 -2.444,-6.543c0.204,-1.65 1.551,-3.903 2.041,-3.853Zm-33.78,1.139c0.382,-0.02 0.456,0.356 0.391,1.147c-0.22,2.713 -2.016,5.561 -3.984,6.318c-1.96,0.754 -2.142,0.603 -0.98,-0.805c0.881,-1.067 1.415,-2.187 1.266,-2.332c-0.082,-0.081 -0.278,0.367 -0.991,1.286c-0.895,1.153 -1.042,0.177 -0.229,-1.516c0.703,-1.462 1.36,-2.227 2.68,-3.122c0.932,-0.631 1.51,-0.958 1.847,-0.976Zm17.756,0.824c-0.395,11.68 -3.295,24.369 -8.895,35.401l-5.232,0.011c6.406,-9.474 10.495,-21.204 11.633,-35.361l2.494,-0.051Zm2.3,0.012c0,0 0.785,0.817 1.104,1.369c0.351,0.608 0.45,1.139 -0.19,1.594c-0.743,0.63 -1.052,0.396 0.159,1.959c0.638,0.824 0.43,0.959 -0.36,1.653c-0.817,0.716 -0.864,0.754 -0.105,1.722c0.812,1.036 0.958,1.195 -0.101,1.995c-0.954,0.72 -0.966,0.889 -0.22,2.06c0.686,1.079 0.894,1.068 -0.422,2.185c-1.125,0.954 -1.151,0.69 -0.066,2.446c0.399,0.646 0.371,0.688 -0.36,1.337c-1.798,1.597 -1.704,1.497 -1.449,1.917c1.97,2.834 1.079,2.753 -0.848,4.106c-0.389,0.334 -0.289,0.71 0.581,2.127c0.739,1.203 0.632,1.463 -1.1,2.659c-1.803,1.245 -1.862,1.413 -0.96,2.683c0.888,1.251 0.907,1.165 -0.535,2.457c-0.65,0.583 -1.185,1.12 -1.185,1.12l-3.194,0c0,0 0.674,-0.619 1.134,-0.961c2.624,-1.949 2.613,-1.743 1.507,-3.149c-0.98,-1.244 -0.885,-1.326 0.108,-2.037c0.714,-0.512 1.676,-1.04 2.397,-1.563c0.389,-0.278 0.101,-0.509 -0.546,-1.738c-0.725,-1.378 -0.765,-1.218 0.585,-2.333c1.477,-1.22 1.502,-1.175 0.701,-2.722c-0.803,-1.55 -0.817,-1.416 0.197,-2.247c1.508,-1.236 1.58,-1.169 0.786,-2.601c-0.632,-1.142 -0.639,-1.109 0.43,-2.181c1.078,-1.081 0.944,-1.013 0.306,-2.002c-0.648,-1.006 -0.614,-1.142 0.24,-1.906c0.921,-0.822 0.791,-0.772 0.027,-1.823c-0.752,-1.036 -0.74,-0.958 0.175,-1.761c0.481,-0.422 0.964,-0.852 0.937,-1.05c-0.071,-0.512 -0.558,-1.238 -1.026,-1.936c-0.179,-0.267 0.179,-0.348 0.751,-0.945c0.582,-0.607 0.556,-0.455 0.116,-1.26c-0.238,-0.435 -0.689,-1.17 -0.689,-1.17l1.115,-0.004Zm-8.562,0.027l0.91,0.024c0,0 0.156,0.207 0.368,0.423c0.585,0.599 0.61,0.951 0.023,1.272c-0.563,0.308 -0.347,0.74 0.124,1.434c0.5,0.737 0.495,0.653 -0.221,1.377c-0.739,0.603 -1.121,0.774 -0.306,1.917c0.464,0.529 0.406,1.076 -0.313,1.551c-0.553,0.365 -1.472,0.668 -0.504,2.057c0.473,0.99 0.51,0.926 -0.476,1.629c-1.312,0.935 -1.559,0.772 -0.957,2.134c0.671,1.516 0.737,1.538 -0.639,2.555c-1.598,1.181 -1.653,1.276 -0.987,2.69c0.671,1.426 0.689,1.065 -1.003,2.387c-1.239,0.969 -1.521,1.023 -1.154,1.824c0.688,1.501 0.979,1.904 -1.026,2.935c-2.316,1.192 -2.433,1.28 -1.321,3.052c0.905,1.442 0.704,1.237 -0.79,2.1c-2.159,1.247 -3.112,1.79 -3.179,2.177c-0.044,0.438 1.684,1.742 1.684,1.742l-3.012,0.082c0,0 -1.267,-1.033 -1.758,-1.513c-1.363,-1.332 -1.378,-0.895 3.152,-3.102c2.5,-1.218 2.29,-0.942 1.882,-1.653c-1.205,-2.099 -1.247,-2.317 1.014,-3.46c1.966,-0.993 1.628,-1.065 1.151,-2.566c-0.417,-1.309 -0.351,-1.188 0.685,-1.96c2.503,-1.864 2.435,-1.671 2.045,-2.585c-0.385,-0.9 -0.68,-1.318 -0.391,-1.762c0.902,-1.299 2.821,-1.575 2.036,-3.122c-0.366,-0.997 -0.496,-1.221 0.608,-2.084c0.997,-0.832 1.002,-0.731 0.364,-1.831c-0.776,-1.009 -0.664,-1.175 0.473,-1.967c0.81,-0.744 0.799,-0.724 0.345,-1.45c-0.628,-1.001 -0.597,-1.032 0.298,-1.82c0.729,-0.642 0.856,-0.676 0.391,-1.384c-0.617,-0.939 -0.515,-1.145 0.298,-1.606c0.498,-0.282 0.496,-0.397 0.453,-0.875c-0.008,-0.091 -0.267,-0.622 -0.267,-0.622Zm11.3,0.055l4.194,0.011c1.339,7.808 3.678,11.012 5.03,13.484c-5.303,8.547 -4.097,15.646 -0.86,21.928l-13.282,-0.05c3.405,-11.697 5.161,-23.465 4.918,-35.373Zm-28.788,0.031c0.154,-0.011 0.262,0.239 0.523,0.684c0.84,1.438 0.246,3.478 -0.984,5.614c-0.92,1.599 -1.087,0.378 -0.666,-1.924c0.265,-1.452 -0.463,0.723 -0.81,2.476c-0.187,0.951 -0.641,1.718 -1.134,1.672c-0.464,-0.075 -0.321,-1.407 -0.306,-1.703c0.105,-2.098 0.884,-3.585 2.397,-5.668c0.573,-0.79 0.805,-1.139 0.98,-1.151Zm42.814,4.106c0.199,-0.01 0.478,0.074 0.821,0.272c0.267,0.154 0.748,0.446 1.08,0.63c1.164,0.643 1.258,0.838 0.705,1.485c-0.683,0.799 -1.121,0.495 -2.304,-0.836c-0.798,-0.898 -0.811,-1.528 -0.302,-1.551Zm-0.387,1.757c0.188,0.004 0.575,0.208 0.952,0.641c0.767,0.881 0.674,1.624 -0.174,1.412c-0.346,-0.508 -0.525,-1.282 -0.856,-1.855c-0.075,-0.13 -0.035,-0.201 0.078,-0.198Zm37.462,0.113c-0.742,0.001 -1.986,0.985 -2.222,1.986c-0.722,3.055 -0.721,2.923 -0.074,3.367c0.19,0.131 0.332,0.226 0.426,0.284c0.379,0.301 0.896,0.765 0.964,0.673c0.617,0.003 1.553,-3.91 1.522,-4.716c0.039,-0.852 0.069,-0.955 -0.143,-1.342c-0.096,-0.175 -0.265,-0.253 -0.473,-0.252Zm-38.031,0.066c0.049,-0.01 0.111,0.017 0.185,0.078c0.487,0.486 0.683,1.356 0.93,1.979c0.001,0.135 -0.055,0.356 -0.124,0.489c-0.421,0.811 -1.075,0.025 -1.142,-1.372c-0.038,-0.785 0.002,-1.146 0.151,-1.174Zm37.915,0.602c0.033,-0.002 0.064,-0.001 0.093,0c0.499,0.023 0.421,0.54 -0.271,1.291c-0.364,0.395 -1.115,0.582 -1.363,0.338c-0.361,-0.354 0.384,-1.328 1.197,-1.562c0.132,-0.039 0.246,-0.061 0.344,-0.067Zm-84.238,0.428c0.028,0 0.054,-0.002 0.081,0c0.261,0.017 0.479,0.135 0.651,0.334c0.332,0.413 0.192,1.05 0.034,1.583c-0.393,1.396 -2.999,4.099 -3.934,4.11c-0.556,-0.098 1.77,-3.066 1.843,-3.566c-0.173,-0.17 -1.615,1.502 -2.292,2.663c-0.307,0.526 -0.655,1.175 -0.841,1.287c-0.485,0.057 -1.046,0.367 -1.049,0.039c0.08,-1.483 2.972,-4.715 3.958,-5.614c0.604,-0.572 1.128,-0.828 1.549,-0.836Zm6.974,0.14c2.234,-0.025 -2.165,4.884 -5.011,5.591c-0.886,0.22 -2.52,0.278 -2.637,0.093c-0.117,-0.185 0.014,-0.335 0.379,-0.431c0.588,-0.155 3.496,-2.013 3.493,-2.232c-0.003,-0.275 -1.204,0.181 -2.23,0.848c-0.665,0.431 -0.977,0.342 -0.616,-0.179c1.671,-2.412 3.907,-3.66 6.622,-3.69Zm38.675,0.008c0.127,0.01 0.254,0.263 0.333,0.828c0.406,1.052 0.425,1.339 0.042,1.649c-0.655,0.529 -0.816,0.381 -0.809,-0.836c0.006,-1.003 0.222,-1.658 0.434,-1.641Zm-73.605,1.396c0,0 0.815,0.306 0.476,0.696c-0.235,0.27 -1.238,0.04 -1.239,-0.039l0.763,-0.657Zm112.245,0.031c0.266,-0.018 0.272,0.229 0.131,0.851c-0.074,0.327 -0.395,2.046 -0.964,2.524c-0.069,0.045 -0.895,-0.449 -1.119,-0.677c-0.103,-0.105 -0.426,-0.347 -0.469,-0.505c-0.14,-0.52 0.01,-1.195 0.403,-1.532c0.153,-0.132 0.462,-0.204 0.627,-0.206c0.131,-0.002 0.515,-0.128 0.856,-0.28c0.239,-0.106 0.414,-0.167 0.535,-0.175Zm-111.958,1.186c0.536,-0.004 1.195,0.053 1.754,0.245c1.648,0.48 4.67,1.84 5.135,2.286c0.677,0.649 -1.09,1.341 -3.214,1.364c-1.127,0.013 -1.339,-0.222 -2.897,-1.158c-0.2,-0.132 -1.108,-0.731 -0.844,-0.949c0.289,-0.296 1.158,0.085 2.242,0.638c0.354,0.18 1.214,0.128 1.212,-0.031c-0.002,-0.188 -2.166,-0.996 -3.787,-1.513c-1.065,-0.339 -1.04,-0.682 -0.387,-0.828c0.187,-0.028 0.464,-0.052 0.786,-0.054Zm-2.13,0.742c0,0 0.449,0.399 1.03,0.836c0.631,0.475 1.364,1.06 1.874,1.839c0.738,0.903 1.904,3.151 1.774,3.558c-0.299,0.933 -3.413,-0.704 -5.96,-3.262c-0.828,-0.832 -1.313,-1.451 -1.313,-1.451l0.972,-0.882c0,0 0.854,0.717 1.84,1.59c1.849,1.638 1.837,1.076 -0.024,-0.649c-0.526,-0.488 -1.01,-0.926 -1.01,-0.926c0.024,-0.312 0.319,-0.589 0.817,-0.653Zm76.083,0.078c0,0 0.994,1.036 1.363,1.512c-6.061,5.949 -8.375,14.26 -2.525,23.111l-2.807,-0.012c-5.259,-10.39 -2.765,-18.212 3.969,-24.611l0,0Zm-51.26,0.245c0.376,-0.017 0.033,0.428 -0.636,1.571c-1.248,2.133 -1.496,2.672 -3.523,3.203c-0.523,0.136 -1.267,0.028 -1.573,0.067c-0.872,0.109 -0.484,-0.002 0.852,-0.871c1.852,-1.206 0.279,-0.586 -1.433,0.299c-0.991,0.512 -2.031,0.487 -2.122,0.222c-0.05,-0.147 0.402,-0.532 0.693,-0.794c2.607,-2.34 3.407,-2.241 5.832,-3.087c1.059,-0.369 1.652,-0.598 1.91,-0.61Zm-10.898,2.134c0.944,0.006 1.824,0.101 2.607,0.276c0.518,0.118 1.362,0.222 0.65,0.868c-0.806,0.761 -2.982,1.8 -4.593,1.87c-0.226,0.008 -3.542,-0.227 -2.834,-0.941c0.141,-0.079 0.591,-0.059 0.979,-0.132c1.838,-0.35 1.34,-0.647 -0.921,-0.525c-2.833,0.151 -2.962,-0.143 -0.817,-0.731c1.568,-0.431 3.11,-0.652 4.523,-0.681c0.137,-0.002 0.271,-0.004 0.406,-0.004l0,0Zm15.134,0.218c1.261,-0.012 2.241,0.214 2.246,0.696c0.009,0.783 -2.379,2.499 -3.946,2.838c-0.369,0.08 -0.894,0.195 -1.166,0.257c-0.546,0.124 -3.573,0.018 -3.868,-0.089c-1.418,-0.517 -0.432,-0.72 2.168,-1.023c1.132,-0.132 1.672,-0.43 1.669,-0.645c-0.001,-0.105 -0.835,-0.135 -2.075,0.023c-1.386,0.176 -1.114,-0.234 0.612,-1.131c1.14,-0.594 2.931,-0.912 4.36,-0.926Zm-23.332,1.085c0.177,0.004 0.602,0.151 1.309,0.447c1.51,0.441 3.584,0.94 5.003,2.496c1.147,1.115 1.426,1.474 1.185,1.866c-0.292,0.475 -3.85,0.114 -5.347,-0.528c-0.99,-0.425 -2.169,-1.336 -2.707,-2.123c-1.305,-1.908 -0.756,-2.411 0.902,-1.077c1.998,1.607 2.294,1.772 2.649,1.699c0.142,-0.03 -0.209,-0.36 -0.879,-0.859c-1.683,-1.255 -2.503,-1.931 -2.115,-1.921Zm12.311,2.049c1.673,0.002 2.035,0.128 3.659,0.875c2.034,0.719 1.541,1.359 -2.067,2.263c-1.807,0.425 -3.626,0.127 -4.946,-0.689c-2.908,-1.796 -2.716,-2.156 0.531,-1.353c1.067,0.264 2.13,0.313 2.196,0.113c0.05,-0.153 -1.241,-0.483 -2.289,-0.832c-1.135,-0.377 -0.16,-0.345 2.11,-0.369c0.301,-0.003 0.567,-0.008 0.806,-0.008l0,0Zm83.682,7.762c0,0 -0.372,0.176 -0.536,0.267c-0.129,0.071 -1.134,0.197 -2.234,0.28c-2.168,0.161 -3.627,0.511 -4.942,1.041c-1.986,0.802 -3.314,3.274 -3.314,3.274c1.484,-0.101 9.887,1.424 12.219,-1.615c0.488,-0.637 -1.254,4.803 -2.147,5.044c-2.214,-0.267 -3.146,3.223 -2.925,3.075c-2.233,0.869 -3.966,1.379 -3.398,3.982c0.248,1.135 1.394,2.484 3.821,2.145c-0.661,4.513 4.84,5.681 5.447,0.24c0,0 1.072,-0.205 1.485,-0.254c2.509,-0.597 3.116,-4.276 -0.565,-5.443c-1.021,-0.304 -1.079,-0.497 -1.079,-0.497c0.19,-0.83 0.145,-1.702 -0.453,-2.669c0.812,-1.943 2.833,-5.69 2.833,-5.69l-4.212,-3.18Zm0.389,1.122c0.506,0.679 -2.134,1.802 -4.944,2.045c-0.631,0.054 -2.017,0.182 -2.053,0.245c-0.302,0.532 5.435,0.146 7.223,-0.859c0.612,-0.344 0.667,-0.042 0.401,0.489c-2.075,2.679 -7.084,2.019 -11.001,1.548c-0.223,-0.226 -0.033,-0.502 0.845,-1.217c1.609,-1.311 2.768,-1.748 5.309,-2.01c0.709,-0.023 3.9,-0.626 4.22,-0.241Zm3.103,2.772c-0.361,1.152 -2.246,4.67 -2.246,4.67c-0.232,0.232 -1.058,0.396 -0.995,-0.494c0.009,-0.956 1.792,-4.893 2.273,-4.969c0.574,-0.044 0.997,0.38 0.968,0.793Zm1.196,0.268c0.552,4.036 3.603,4.996 6.529,6.268c0.771,0.354 1.424,0.984 2.196,1.392c1.447,-1.981 -0.183,-5.827 -2.73,-7.08c-1.892,-0.887 -3.616,-1.592 -4.682,-1.513c-0.616,0.046 -1.305,0.444 -1.313,0.933Zm1.565,-0.241c0.327,-0.003 0.796,0.092 2.505,0.549c2.58,0.689 4.401,2.599 4.876,5.116c0.019,0.102 0.151,2.053 -0.293,1.983c-0.672,-0.194 -1.034,-0.873 -2.112,-1.326c-1.346,-0.565 -3.233,-1.308 -4.391,-2.364c-0.936,-0.853 -1.447,-1.771 -1.561,-2.558c-0.116,-0.817 0.157,-0.9 0.84,-0.241c1.531,1.223 3.041,1.641 4.554,2.823c0.421,0.328 1.93,1.168 0.9,0.122c-0.699,-0.709 -2.755,-1.944 -3.847,-2.471c-1.517,-0.732 -2.342,-1.623 -1.471,-1.633Zm-116.214,4.028l17.299,27.15c-4.258,2.255 -6.357,3.242 -13.426,2.687l0.027,0.357l-3.004,-0.175c5.189,8.131 11.592,18.74 9.775,37.246l21.072,-0.022c0,0 0.329,0.314 0.361,0.335c0.308,0.209 0.77,-0.367 0.77,-0.367l9.506,-0.051l0.257,0.308l4.432,-0.031c0,0 -20.266,-38.073 -30.444,-56.978c-4.182,-7.584 -8.536,-10.953 -16.625,-10.459l0,0Zm109.081,0.898c1.136,-0.028 2.265,0.756 2.273,2.279c0.004,0.793 -0.663,1.899 -0.663,1.899l-1.543,-1.477l-1.476,1.483c-0.726,-0.603 -1.157,-1.751 -0.919,-2.404c0.454,-1.116 1.444,-1.758 2.328,-1.78Zm-17.891,0.541c1.464,5.728 3.045,13.627 -9.65,31.881c-7.51,10.797 -9.967,20.983 -10.266,33.414l-0.759,0.004c0.358,-6.822 0.406,-19.191 0.406,-19.191l0.709,-0.634c0,0 -0.323,-0.526 -0.465,-1.143c-0.239,-1.04 -0.038,-0.694 0.581,-3.488c2.595,-13.493 19.444,-40.843 19.444,-40.843l0,0Zm-67.792,2.628l64.341,0.296l-0.855,1.695l-62.262,-0.447l-1.224,-1.544Zm85.764,0.49l2.389,2.337l-2.335,2.632l-2.459,-2.582l2.405,-2.387Zm-1.96,0.993l-1.303,1.392l1.13,1.193c-1.163,2.452 -4.259,0.539 -4.155,-1.296c0.121,-2.146 2.619,-3.026 4.328,-1.289Zm4.129,2.766l1.039,-1.325l-1.174,-1.291c1.922,-1.905 3.738,-0.228 3.914,1.362c0.187,1.694 -2.444,3.607 -3.779,1.254Zm-76.203,-1.621l5.27,0.051l-1.959,3.682l-5.344,-0.023l2.033,-3.71Zm11.741,0.028l4.841,0l-2.045,3.732l-4.899,0l2.103,-3.732Zm11.432,0l5.135,0l-2.084,3.732l-5.274,0l2.223,-3.732Zm11.493,0l5.255,0l-1.913,3.732l-5.452,0l2.11,-3.732Zm11.707,0l5.065,0l-2.052,3.732l-5.213,0l2.2,-3.732Zm-55.935,0.019l3.404,0l-1.39,2.457l-2.014,-2.457Zm84.877,2.355c1.948,1.57 0.594,4.15 -1.436,4.196c-1.398,0.031 -3.427,-2.343 -1.231,-4.278l1.462,1.342l1.205,-1.26Zm-71.602,1.984l4.949,0l-1.862,3.359l-4.849,0l1.762,-3.359Zm11.002,0.027l5.429,0l-1.913,3.36l-5.166,0l1.65,-3.36Zm11.625,0l5.403,0l-1.762,3.36l-5.457,0l1.816,-3.36Zm11.583,0l5.36,0l-1.67,3.36l-5.665,0l1.975,-3.36Zm-44.201,0.129l3.416,0l-1.456,2.69l-1.96,-2.69Zm2.576,3.895l50.152,0.448l-0.852,1.633l-48.026,0.007l-1.274,-2.088Zm1.761,2.924l46.997,0.117l-1.08,2.259l-16.238,-0.074c-3.168,-2.375 -6.789,-1.277 -10.92,0.074c0,0 -12.43,0.13 -17.318,0l-1.441,-2.376Zm-15.629,9.572l24.788,39.281l-5.48,-0.062l-23.537,-36.952l4.229,-2.267Zm-4.968,2.559l23.401,36.712c-1.074,-0.025 -2.071,0.041 -3.145,0.025c0.435,-6.856 -5.06,-10.071 -8.289,-10.234c1.937,-8.019 -3.886,-11.393 -7.77,-12.03c1.575,-10.42 -7.017,-11.898 -7.142,-11.793c0.042,-0.855 -0.118,-1.472 -0.233,-2.186l3.178,-0.494l0,0Zm-3.792,0.582c-0.05,0.22 0.441,2.297 -0.484,1.914l-0.065,-1.91l0.549,-0.004Zm-4.926,0.053c0.334,1.38 1.041,1.654 2.001,2.58c0,0 -1.228,0.209 -1.512,0.012c-0.511,-0.354 -1.576,-2.603 -1.576,-2.603l1.087,0.011Zm3.66,2.335c0.593,0 1.073,0.485 1.073,1.081c0,0.596 -0.48,1.077 -1.073,1.077c-0.593,0 -1.072,-0.481 -1.072,-1.077c-0.001,-0.596 0.479,-1.081 1.072,-1.081Zm2.127,0.83c3.077,-0.202 7.541,3.113 6.364,9.315c-0.205,-0.433 -0.447,-1.386 -0.946,-2.062c-2.122,-2.873 -4.621,1.064 -2.937,2.671c0.826,0.788 1.212,1.098 1.123,1.169c-1.897,-0.361 -3.334,1.326 -2.544,3.198c1.316,2.423 3.144,1.139 4.202,-0.298c0,0 0.652,2.168 1.3,2.444c0.991,0.422 2.36,-0.113 2.826,-1.316c0.693,-1.79 -0.993,-2.248 -1.364,-3.245c3.561,0.117 8.098,5.342 6.034,9.873c0.27,-1.033 -0.833,-3.346 -2.976,-2.75c-1.072,0.376 -1.445,1.943 -0.581,3.554c0.277,0.515 0.426,0.707 0.426,0.707c0,0 -0.927,0.123 -1.17,0.274c-2.782,1.72 0.804,6.411 2.874,3.478c0.211,-0.348 0.558,-0.747 0.558,-0.747c0.341,0.653 0.446,1.573 1.069,1.888c2.564,1.296 3.706,-1.439 2.629,-2.779c-0.606,-0.755 -1.291,-1.626 -1.291,-1.626c-0.107,-0.482 7.682,1.568 6.733,9.175l-20.648,-0.028c1.914,-11.686 -2.72,-25.055 -5.085,-29.129l1.024,-1.357c0.257,0.504 0.684,1.775 1.437,2.018c2.395,0.774 3.125,-0.906 2.804,-2.634c-0.171,-0.92 -1.454,-1.66 -1.861,-1.793Zm5.467,10.998c0.563,0 1.019,0.461 1.019,1.026c0,0.565 -0.456,1.023 -1.019,1.023c-0.563,0 -1.022,-0.458 -1.022,-1.023c0,-0.565 0.459,-1.026 1.022,-1.026Zm7.749,12.173c0.569,0 1.03,0.463 1.03,1.034c0,0.571 -0.461,1.034 -1.03,1.034c-0.569,0 -1.03,-0.463 -1.03,-1.034c0,-0.571 0.461,-1.034 1.03,-1.034Z" style="fill-rule:nonzero;"/></g></g><path id="path147-0-8-1-3-6-7-5-8" d="M130.281,222.872c7.829,-0.17 11.34,-8.985 5.542,-15.83c-0.841,-0.998 -0.928,-1.571 0.612,-0.612c3.904,2.611 11.389,0.894 11.772,-7.086c0.474,-9.834 -13.266,-12.667 -15.846,-2.211c-0.136,1.103 -1.032,1.078 -0.816,-0.488c0.235,-4.25 1.562,-8.223 3.387,-12.096l-9.308,0c1.825,3.873 3.152,7.846 3.387,12.096c0.217,1.566 -0.68,1.591 -0.816,0.488c-2.58,-10.456 -16.32,-7.623 -15.846,2.211c0.383,7.98 7.868,9.697 11.772,7.086c1.54,-0.959 1.453,-0.386 0.613,0.612c-5.799,6.845 -2.288,15.66 5.541,15.83c0,0 0,0 0.008,0l-0.002,0Z" style="fill-rule:nonzero;"/><path id="path147-0-8-1-0-3-83-6-6-4" d="M47.725,26.128c7.829,0.17 11.34,8.985 5.542,15.83c-0.841,0.998 -0.928,1.571 0.612,0.612c3.904,-2.61 11.389,-0.894 11.772,7.086c0.474,9.834 -13.266,12.667 -15.846,2.211c-0.136,-1.103 -1.032,-1.078 -0.816,0.488c0.235,4.25 1.562,8.223 3.387,12.096l-9.308,0c1.825,-3.873 3.152,-7.846 3.387,-12.096c0.217,-1.566 -0.68,-1.591 -0.816,-0.488c-2.58,10.456 -16.32,7.623 -15.846,-2.211c0.383,-7.98 7.868,-9.696 11.772,-7.086c1.54,0.959 1.453,0.386 0.613,-0.612c-5.799,-6.845 -2.288,-15.66 5.541,-15.83c0,0 0,0 0.008,0l-0.002,0Z" style="fill-rule:nonzero;"/></g></g></svg>