<?xml version="1.0" encoding="UTF-8" standalone="no"?><!DOCTYPE svg PUBLIC "-//W3C//DTD SVG 1.1//EN" "http://www.w3.org/Graphics/SVG/1.1/DTD/svg11.dtd"><svg width="100%" height="100%" viewBox="0 0 178 249" version="1.1" xmlns="http://www.w3.org/2000/svg" xmlns:xlink="http://www.w3.org/1999/xlink" xml:space="preserve" xmlns:serif="http://www.serif.com/" style="fill-rule:evenodd;clip-rule:evenodd;stroke-linejoin:round;stroke-miterlimit:2;"><rect id="queen-diamonds" x="0" y="0" width="178" height="249" style="fill:none;"/><clipPath id="_clip1"><rect x="0" y="0" width="178" height="249"/></clipPath><g clip-path="url(#_clip1)"><rect x="-1956.21" y="-747" width="2312.21" height="1245" style="fill:#fff;"/><g id="queen_diamonds"><path id="path6307-8" d="M111.993,21.016c0,0 20.217,29.332 27.073,34.537c0.504,0.238 8.958,-1.383 8.958,-1.383c-4.333,-10.411 -7.12,-21.183 -4.309,-33.259l-31.722,0.105Zm11.234,46.389c-13.938,3.948 -27.849,7.662 -42.959,1.225l-16.5,16.002c-0.137,0.413 19.934,9.116 20.272,8.098c-9.84,26.58 5.501,31.406 15.269,2.168c12.785,-1.681 28.123,-3.421 40.799,-12.255c-10.973,-6.619 -16.893,-15.317 -16.881,-15.238Zm-83.83,4.732c-5.283,-3.254 -9.411,3.442 -5.544,6.786c-0.454,1.954 -0.608,4.861 1.274,6.138c1.731,1.098 4.957,-0.041 5.423,-0.028c0.034,0 0.084,3.516 -0.185,3.507c-0.5,-0.017 -2.389,-1.632 -3.554,-1.983c-3.938,-1.185 -9.475,-1.769 -9.378,-1.566c0.165,0.343 -0.98,1.153 3.413,3.922c1.632,1.028 6.788,-0.13 10.894,1.17c2.502,0.792 4.75,2.056 6.108,1.4c3.582,-0.982 4.982,-5.68 4.737,-5.645c-0.12,-0.142 -10.832,2.766 -9.824,3.276l-0.033,-4.078c4.225,0.467 8.039,-2.607 3.886,-7.876c3.093,-3.085 -1.233,-10.438 -7.217,-5.023l0,0Zm17.602,18.653c-10.391,10.514 -31.631,30.246 -31.631,30.246l0.227,14.726l20.75,18.638c1.644,-19.785 12.846,-38.251 23.511,-47.488c0.98,-2.809 -10.598,-15.136 -12.857,-16.122Zm74.034,3.637c-1.566,12.166 -2.989,28.756 -23.551,47.197c3.563,6.09 8.099,12.289 14.625,15.248c0.464,1.046 18.865,-19.113 30.185,-28.644l-0.06,-12.91l-21.199,-20.891Zm-92.671,2.612c-0.043,0.265 -0.802,3.46 -0.997,3.376c0.015,0.174 2.105,-0.78 2.342,-1.656c0.207,-0.768 0.686,-1.809 0.717,-1.956c-0.471,-3.29 -1.362,-0.953 -2.062,0.236Zm-7.697,8.505c-0.747,1.81 -1.446,5.136 -1.188,7.301c3.681,1.849 4.682,-5.844 3.692,-6.58c-0.593,-0.251 -1.999,-0.739 -2.504,-0.721Zm113.687,35.275c-0.341,1.534 -0.269,1.989 0.411,2.289c1.192,0.524 1.727,-0.109 2.684,-2.608c0.57,-1.487 1.077,-3.725 0.618,-4.615c-2.258,-1.581 -3.451,3.775 -3.713,4.934Zm-64.382,12.91c-15.108,2.403 -30.227,3.885 -42.225,13.28c1.352,-0.159 15.894,13.548 16.646,15.476c22.224,-10.896 43.808,-2.666 43.808,-2.666l16.264,-15.733c0.627,-0.298 -17.689,-7.871 -21.139,-9.148c12.473,-33.701 -7.281,-28.637 -13.354,-1.209Zm59.474,-3.847c-0.987,0.799 -1.484,1.524 -2.254,2.561l0.776,1.259l1.988,-2.201l-0.51,-1.619Zm-14.232,14.18c2.094,-0.949 9.528,-4.566 9.847,-3.73l-0.157,3.621c-1.138,-0.373 -8.478,0.844 -4.233,8.449c-2.673,6.042 3.284,9.157 7.457,5.163c8.747,3.012 7.576,-5.772 5.771,-7.192c1.422,-2.217 -0.365,-6.939 -1.255,-6.955c0,0 7.632,1.727 6.886,0.363c-0.341,-0.623 -0.767,-1.696 -2.463,-2.833c-1.955,-1.31 -5.389,-0.834 -8.169,-1.418c-2.971,-0.624 -4.884,-1.691 -7.382,-1.841c-3.769,0.345 -7.287,3.666 -6.302,6.373Zm-85.054,28.51l-10.516,2.821c0,0 3.401,7.923 4.578,14.988c1.44,8.642 0.29,18.038 0.29,18.038l30.52,0.155l-24.872,-36.002Z" style="fill:#e2cf00;fill-rule:nonzero;"/><path id="path6309-7" d="M67.563,228.466c-13.392,-19.185 -25.8,-37.434 -42.274,-57.548c0,0 0.013,-7.774 0.071,-15.484l50.611,72.843l-8.408,0.189Zm27.111,-30.976c-0.432,-3.644 -1.171,-8.004 -2.235,-11.757l9.241,-8.746c-0.997,7.815 -2.528,13.811 -7.006,20.503Zm44.164,-27.564c2.068,2.757 -1.422,4.287 -2.74,3.06c-2.672,-2.487 1.242,-5.057 2.74,-3.06Zm-91.626,-17.364c-1.533,0.987 2.756,-24.042 14.528,-36.977c7.161,20.588 -5.473,32.131 -14.528,36.977Zm58.081,-0.092l-7.819,-2.118l3.681,-10.976c0,0 7.553,1.726 6.927,4.005c-2.038,7.42 -2.789,9.089 -2.789,9.089Zm-36.196,-4.219c2.117,-3.494 3.724,-7.346 5.204,-11.288l7.833,-0.164l-3.936,10.878l-9.101,0.574Zm47.124,-15.403c-6.051,-12.094 1.078,-31.237 14.244,-36.506c-0.474,12.265 -4.265,24.688 -14.244,36.506Zm-40.672,-3.436c0.266,-4.296 -0.224,-8.798 -0.816,-12.787c8.346,1.93 17.444,3.222 27.522,3.682l0.961,11.579c-8.949,-1.646 -18.056,-2.821 -27.667,-2.474Zm19.99,-17.644c0.891,-3.59 2.033,-7.105 3.589,-10.495l9.537,-0.446c-0.05,-0.187 -4.069,6.369 -5.032,11.102c-1.518,-0.162 -8.094,-0.161 -8.094,-0.161Zm-18.08,-2.862c-2.783,-0.986 -6.589,-1.262 -8.069,-3.422l2.895,-9.209l8.575,2.64l-3.401,9.991Zm24.065,-87.869l6.72,-0.064c0,0 32.29,41.471 44.392,57.609c-0.403,1.643 0.135,15.564 0.135,15.564c-17.142,-24.215 -51.247,-73.109 -51.247,-73.109Zm-61.92,57.864c-1.806,-1.946 1.066,-3.67 2.26,-1.931c1.051,1.531 -1.308,2.957 -2.26,1.931Zm36.23,-6.8c0.105,-9.61 6.894,-21.015 6.824,-20.724c-0.079,-0.019 0.967,9.395 2.272,12.357c-0.352,0.522 -8.774,8.97 -9.096,8.367Z" style="fill:#d40000;fill-rule:nonzero;"/><path id="path6311-0" d="M23.906,19.448l0,210.104l130.188,0l0,-210.104l-130.188,0Zm119.237,1.596c-1.059,11.634 -1.244,20.63 4.769,32.696c-1.086,1.143 -9.269,1.468 -11.848,2.822c-0.047,0.325 0.662,0.887 0.662,0.887c2.698,-1.257 13.219,-2.403 13.219,-2.403c-4.406,-7.708 -8.031,-22.632 -5.302,-34.002l7.896,0l0,56.143c0,0 0.093,10.672 0.318,16.765c-4.043,-5.245 -9.251,-12.428 -12.752,-17.865c-4.248,-5.998 -8.977,-13.034 -13.832,-19.635c-1.432,-2.079 -3.473,-4.777 -5.139,-7.207c-2.615,-3.752 -4.777,-6.664 -7.489,-10.703c-2.896,-4.182 -5.672,-7.977 -9.114,-12.833c-2.918,-4.134 -3.054,-4.665 -3.054,-4.665l41.666,0Zm-49.87,0c4.923,8.586 13.734,11.59 15.95,12.169l1.289,1.89c-10.388,-2.043 -15.951,-8.737 -18.563,-12.876c-0.203,-0.322 -0.18,-1.183 -0.18,-1.183l1.504,0Zm-4.872,0c-1.361,3.242 -3.267,5.201 -5.073,7.165l0.063,-2.085c0.055,0.13 2.704,-2.916 3.615,-5.08l1.395,0Zm2.384,0c0,0 0.04,0.65 -0.125,1.105c-1.043,3.381 -7.519,9.798 -7.333,8.836l-0.066,-1.655c-0.029,0.071 4.865,-4.774 6.146,-8.286l1.378,0Zm-4.71,0c-0.505,0.943 -2.388,3.89 -2.558,3.101l0.167,-3.101l2.391,0Zm14.796,0c0.816,1.185 1.558,2.149 2.416,3.362c0.16,0.231 0.256,0.504 0.216,0.608c-0.13,0.337 -0.518,0.087 -1.59,-0.867c-1.758,-1.564 -2.955,-3.103 -2.955,-3.103l1.913,0Zm-6.549,0l1.59,0c3.295,5.491 9.205,8.514 11.251,9.153c0.546,0.604 1.134,1.708 1.363,1.952c-5.517,-1.499 -11.697,-6.278 -14.204,-11.105Zm3.868,0c1.754,2.541 4.503,4.396 6.052,5.612c0.833,0.655 1.932,1.993 1.829,2.259c-3.448,-1.094 -7.482,-5.028 -9.333,-7.871l1.452,0Zm-6.762,1.645l0.959,1.532c-2.323,3.844 -5.235,7.307 -9.12,10.036l-0.021,-2.007c4.409,-3.186 6.313,-6.388 8.182,-9.561l0,0Zm1.555,2.22c2.769,3.744 8.737,9.539 18.307,11.271c0,0 0.543,0.492 1.336,1.576c1.006,1.374 1.021,1.429 1.154,3.681c0.089,4.122 1.424,9.717 2.749,13.237c-0.164,0.875 -0.317,1.321 -1.961,3.549c-6.85,9.287 -21.444,18.071 -28.633,6.082c-2.398,-3.841 -2.632,-11.204 -2.784,-15.796c0,0 0.046,-0.323 0.063,-0.411c0.173,-0.833 0.411,-0.702 1.709,-0.345c1.315,0.567 2.685,0.109 4.078,-0.271c1.585,-0.643 1.717,-0.147 0.188,1.285c-0.529,0.495 -1.176,1.253 -1.108,1.216c0.068,-0.036 0.958,-0.401 1.351,-0.701c1.222,-0.934 1.511,-0.576 1.058,0.451c-1.921,4.359 -2.262,4.532 0.44,5.743c0.563,0.252 0.948,0.534 1.263,0.811c1.848,1.745 1.184,0.805 0.668,0.004c-0.795,-1.254 -0.077,-1.917 1.265,-1.141c0.897,0.519 2.075,0.938 2.715,0.74c1.243,-0.407 1.623,-1.774 1.254,-3.278c-0.295,-0.832 -1.994,-2.301 -1.602,-0.763c1.021,-0.046 1.902,1.407 1.015,2.391c-0.669,0.906 -1.863,0.417 -3.694,-0.798c-1.012,-0.764 -2.241,-0.374 -2.193,0.565c0.032,0.631 -0.857,0.486 -1.435,-0.317c-0.321,-0.446 -0.104,-1.731 0.499,-2.947c3.797,-7.661 0.596,-15.089 -5.978,-12.995c-0.723,0.23 -1.375,0.417 -1.375,0.417l-0.036,-2.931c3.775,-2.64 7.779,-6.85 9.686,-10.325l0.001,0Zm3.838,13.754c-0.991,1.201 -0.64,2.27 1.537,1.193c1.772,-0.877 2.017,-0.98 3.949,-1.05c2.741,-0.1 5.201,0.776 8.246,2.65c2.018,1.243 2.312,1.337 1.764,0.558c-1.63,-3.131 -11.264,-7.884 -15.496,-3.351Zm-9.309,0.358c1.903,0.481 3.728,1.742 3.41,2.265c-0.114,0.188 -0.224,0.224 -0.467,0.097c-1.392,-0.69 -3.61,-1.819 -6.817,-0.442c-0.354,0.152 -0.55,-0.084 -0.548,-0.512c0,-0.83 1.396,-1.493 2.867,-1.547c0.524,-0.001 1.095,0.026 1.555,0.139Zm11.052,2.429c-1.134,0.591 -1.523,0.906 -2.005,0.642c-1.151,-0.632 -0.908,-0.136 -0.193,1.135c0.504,0.897 0.499,1.082 0.424,1.632c-0.081,0.597 -0.069,0.62 0.51,1.259c1.082,1.428 2.159,2.805 3.779,3.888c0.506,0.337 1.181,0.722 1.232,0.723c0.161,0.005 0.1,-0.124 -0.189,-0.407c-2.076,-2.003 -3.712,-3.799 -1.599,-3.036c2.461,0.805 4.801,-0.199 6.72,-0.854c0.782,-0.242 1.604,-0.446 1.808,-0.446c1.772,0.002 2.191,-0.739 1.058,-1.868c-3.834,-4.315 -7.016,-5.331 -11.545,-2.668Zm9.097,0.808c0.793,0.735 1.211,1.134 1.132,1.326c-0.085,0.205 -0.696,-0.143 -1.718,-0.69c-2.058,-1.101 -4.39,-1.36 -7.304,-0.515c-2.263,0.655 -1.595,-0.386 0.926,-1.364c2.019,-0.935 4.804,-0.656 6.964,1.243Zm-21.127,-1.486c1.728,-0.028 3.528,0.542 4.732,1.583c0.84,0.727 0.226,0.896 -1.139,0.33c-2.064,-0.857 -3.803,-0.994 -5.497,-0.198c-0.532,0.25 -1.145,0.547 -1.313,0.531c-0.283,-0.192 -0.403,-0.751 -0.158,-1.147c0.681,-0.671 2.031,-1.077 3.375,-1.099Zm28.485,0.595c0.127,0.006 0.318,0.208 0.603,0.609c0.517,0.728 0.536,1.088 0.108,2.363c-0.524,1.558 -0.733,1.305 -0.865,-0.868c-0.085,-1.409 -0.088,-2.114 0.154,-2.104Zm1.714,2.348c0.198,-0.028 0.428,0.321 0.796,1.043c0.257,0.503 0.196,0.654 -0.606,3.011c-0.336,0.986 -0.652,1.771 -0.661,1.778c-0.246,0.195 -0.214,0.178 -0.32,0.043c-0.572,-0.734 -0.531,-2.164 -0.038,-3.879c0.373,-1.299 0.576,-1.959 0.83,-1.996l-0.001,0Zm-15.573,0.179c0.063,-0.006 0.446,0.078 0.446,0.078c-0.04,3.491 2.65,2.789 3.006,0.309c0,0 0.663,-0.068 0.765,0.097c0.318,0.519 -0.422,2.012 -1.529,2.501c-0.808,0.362 -1.906,0.274 -2.562,-0.332c-0.183,-0.342 -0.739,-1.639 -0.635,-2.177c0.129,-0.314 0.323,-0.46 0.509,-0.476Zm-1.602,0.408c0.028,-0.002 0.053,-0.002 0.081,0c0.264,0.013 0.456,0.085 0.56,0.405l0.576,1.774c-0.424,0.508 -2.035,-0.522 -2.032,-1.296c0,-0.534 0.403,-0.863 0.815,-0.883Zm-10.935,-0.004c0.406,-0.04 0.549,0.006 0.597,0.387c0.137,1.152 -1.011,2.404 -2.5,2.472c-1.441,0.162 -2.219,-0.96 -2.175,-2.054c0,-0.832 0.716,-0.936 0.795,-0.279c0.229,1.899 1.845,2.008 2.583,0.96c0.279,-0.411 0.216,-1.423 0.7,-1.486Zm17.695,0.386c0.115,-0.005 0.268,0.039 0.494,0.116c1.486,0.477 1.526,0.707 0.255,1.167c-1.516,0.548 -1.615,0.62 -1.259,-0.442c0.199,-0.592 0.258,-0.83 0.51,-0.841Zm-15.756,0.167c1.102,0.069 1.194,1.005 0.225,1.317c-1.443,0.639 -1.929,0.598 -1.37,-0.345c0.303,-0.668 0.574,-0.959 1.145,-0.972Zm-6.893,0.337c0.131,-0.001 0.282,0.05 0.444,0.17c0.165,0.502 0.446,0.888 0.667,1.407c-0.226,0.225 -0.766,0.222 -1.109,-0.052c-0.691,-0.549 -0.572,-1.52 0,-1.525l-0.002,0Zm34.643,1.081c0.428,0.003 0.863,0.683 1.005,1.19c-1.495,1.928 -1.26,5.527 -1.607,6.614c-0.301,0.884 -0.399,0.121 -1.23,-2.169c-0.336,-0.925 1.356,-5.521 1.747,-5.623c0.028,-0.008 0.057,-0.012 0.085,-0.012l0,0Zm1.529,1.976c0.333,0.191 0.785,0.629 0.865,1.318c0.046,0.4 -0.151,0.931 -0.278,1.457c-0.302,1.25 -0.71,3.611 -0.857,5.793c-0.062,0.928 -0.059,1.763 -0.1,1.844c-0.45,0.885 -1.399,-1.495 -1.318,-3.391c0.295,-1.513 0.46,-6.813 1.688,-7.021Zm2.112,2.72c0.211,0.295 0.345,0.521 0.41,0.775c0.113,0.441 0.018,0.969 -0.24,2.093c-0.686,2.98 -0.587,6.192 -0.139,9.49c0.094,0.693 -0.386,0.346 -1.112,-0.849c-0.403,-0.662 -0.66,-1.57 -0.784,-2.643c-0.253,-2.344 0.235,-5.521 0.65,-8.028c0.183,-1.109 0.311,-2.087 1.215,-0.838Zm1.139,1.814l1.2,1.453c0,0 -0.512,3.341 -0.509,5.123c-0.084,0.667 0.596,7.926 0.818,8.513c-0.738,-0.829 -1.083,-1.317 -1.892,-2.36c-0.092,0.015 -0.792,-7.151 -0.308,-9.893c0.292,-1.658 0.691,-2.836 0.691,-2.836Zm1.883,2.887c0.202,-0.008 0.458,0.22 0.78,0.674c0.291,0.409 0.432,0.746 0.448,1.256c0.011,0.371 -0.172,0.658 -0.177,1.321c-0.035,3.948 0.497,7.675 1.166,11.267c0.236,1.286 -0.223,0.762 -0.983,-0.052c-0.696,-0.744 -0.708,-1.028 -1.08,-2.086c-0.074,-0.211 -0.816,-7.493 -0.809,-8.043c0.026,-2.263 0.091,-3.523 0.351,-4.066c0.084,-0.177 0.184,-0.267 0.304,-0.271l0,0Zm-4.363,7.934c0,0 -1.398,0.722 -1.764,0.468c-0.59,-1.615 -2.719,-5.94 -2.756,-6.706c0.037,-0.252 0.873,-1.39 0.873,-1.39c1.177,2.562 2.235,5.184 3.647,7.628Zm-26.305,-5.195c-0.422,0.497 -0.924,0.29 -1.94,-0.158c-0.521,-0.161 -0.441,0.054 -1.302,0.503c-0.667,0.349 -0.902,0.358 -1.344,0.354c-0.584,-0.005 -0.794,-0.21 -0.795,0.201c0,0.228 -0.035,1.258 -0.173,1.79c-0.188,0.724 -0.352,1.044 -0.248,1.169c0.296,0.273 0.546,0.107 1.171,-0.5c1.038,-1.006 1.738,-0.718 2.894,-0.344c1.315,0.426 1.587,0.583 2.789,0.161c1.704,-0.598 2.73,-0.598 3.408,-0.165c1.169,0.748 1.522,0.704 1.04,-1.34c-0.155,-0.658 -0.166,-1.68 -0.262,-1.857c-0.108,-0.2 -0.405,0.372 -0.716,0.582c-0.595,0.401 -0.902,0.394 -2.243,-0.047c-0.794,-0.261 -1.685,-1.115 -2.279,-0.349Zm21.563,0.267c0.518,1.227 2.584,5.328 2.521,5.786c-0.403,0.362 -0.941,0.627 -1.26,0.302c-1.032,-1.891 -1.342,-2.91 -2.181,-5.032c-0.25,-0.508 0.499,-1.8 0.92,-1.056Zm11.09,-0.151c0.146,-0.02 0.452,0.285 0.679,0.59c0.707,0.949 0.75,1.067 0.772,2.084c0.082,3.69 0.544,8.032 1.579,11.381c0.204,0.659 0.59,1.461 0.548,1.569c-0.347,0.509 -1.957,-0.852 -2.443,-2.921c-0.671,-2.628 -1.063,-5.369 -1.276,-7.154c-0.27,-3.139 -0.268,-5.385 0.141,-5.549Zm-12.388,2.035c0.595,1.152 1.344,3.138 1.848,4.331c0.231,0.517 -0.946,0.925 -1.216,0.749c-0.47,-0.352 -0.693,-1.343 -1.001,-1.937c-0.982,-2.155 -1.158,-2.2 -0.614,-2.871c0.335,-0.467 0.735,-1.038 0.983,-0.272Zm14.719,1.321c0.087,0 0.199,0.085 0.34,0.268c0.621,0.736 1.042,1.299 1.205,1.844c0.117,0.396 0.023,0.693 0.065,1.411c0.111,1.879 0.603,4.445 1.996,9.695c0.136,0.512 0.32,1.118 0.297,1.282c-0.135,0.964 -1.543,-0.598 -1.953,-2.212c-0.476,-1.832 -1.343,-4.172 -1.598,-6.336c-0.527,-3.434 -0.818,-5.952 -0.352,-5.952l0,0Zm-15.96,1.388c1.171,2.744 1.264,2.739 0.526,2.956c-0.779,0.23 -0.826,0.155 -1.742,-1.714c-0.668,-1.363 -0.8,-1.534 -0.238,-2.025c0.858,-1.015 1.083,-0.047 1.454,0.783Zm-16.313,-0.654c-0.133,0.003 -0.525,0.301 -0.92,0.458c-0.968,0.385 -2.686,0.411 -3.733,0.094c-1.856,-0.748 -1.334,0.224 0.308,0.815c1.274,0.43 3.798,0.096 4.189,-0.701c0.24,-0.255 0.328,-0.669 0.156,-0.666Zm14.112,1.443c1.046,1.622 1.36,2.27 1.183,2.396c-0.167,0.168 -0.995,0.481 -1.335,0.314c-0.428,-0.211 -0.8,-1.212 -0.988,-1.997c0.131,-0.384 0.818,-1.072 1.14,-0.713Zm-26.191,0.683c0.467,0.002 1.682,1.642 1.436,1.938c-0.069,0.152 -0.524,0.007 -1.589,-0.289c-0.355,-0.131 -1.159,-0.237 -0.905,-0.754c0.127,-0.235 0.872,-0.896 1.058,-0.895Zm25.07,2.248c-0.105,0.28 -0.893,0.346 -1.228,0.325c-0.288,-0.601 -0.364,-0.888 -0.444,-1.286c0.109,-0.239 0.649,-0.858 0.915,-0.737c0.16,0.143 0.675,1.401 0.757,1.698Zm21.753,-1.581c0.167,0.005 0.456,0.299 0.884,0.914c0.81,1.163 0.701,1.078 1.282,3.856c0.66,3.149 1.449,5.393 2.247,8.61c0.011,0.534 -0.205,0.392 -0.796,0.031c-0.965,-0.59 -1.282,-1.246 -1.586,-2.953c-0.519,-2.82 -1.615,-5.429 -2.035,-8.761c-0.222,-1.102 -0.24,-1.706 0,-1.697l0.004,0Zm-24.317,1.125c0.569,-0.019 0.493,0.862 0.329,1.004c-0.416,0.364 -1.564,0.256 -1.761,0.276c-0.441,-0.694 1.06,-1.257 1.432,-1.28Zm27.213,2.998c0.167,0.023 0.617,0.66 1.459,1.848c0.809,1.141 0.631,0.955 1.115,2.832c0.685,2.596 1.819,4.467 2.483,6.855c0,0.273 -0.33,0.238 -0.645,0.109c-0.613,-0.258 -1.16,-0.694 -1.679,-1.12c-0.356,-0.385 -0.353,-0.874 -1.402,-4.495c-0.378,-1.306 -0.477,-1.646 -0.949,-3.631c-0.396,-1.66 -0.572,-2.425 -0.382,-2.398Zm-87.696,7.752c2.751,5.08 1.733,7.333 -4.183,8.036c-0.427,-0.06 -0.024,2.603 -0.036,3.793c2.964,-1.702 6.548,-2.099 9.851,-3.168c-0.899,2.891 -2.478,6.167 -7.26,5.662c-4.998,-3.876 -10.88,-1.547 -14.871,-3.121c-2.171,-0.812 -3,-3.232 -3.026,-3.647c2.604,0.262 5.543,0.822 8.066,0.638c-2.756,-2.13 -1.95,-5.079 -1.562,-6.427c-3.224,-4.081 -0.532,-8.672 4.151,-7.604c0.484,0.11 1.44,0.583 1.44,0.583c4.517,-4.06 9.754,-0.246 7.43,5.255l0,0Zm91.405,-2.471c0.187,-0.018 0.601,0.472 1.429,1.635c2.456,3.45 4.583,6.659 4.551,6.84c-0.106,0.594 -2.666,-0.447 -3.312,-1.298c-0.736,-0.97 -2.806,-5.961 -2.803,-6.755c0,-0.264 0.038,-0.413 0.135,-0.422Zm-100.047,14.775c1.278,0.189 1.635,0.297 1.621,0.799c0.11,0.425 -3.101,0.482 -3.536,0.166c-0.347,-0.252 0.101,-0.805 0.444,-0.938c0.498,-0.15 0.99,-0.097 1.471,-0.027l0,0Zm88.497,0.458c-17.936,8.503 -25.273,31.118 -16.22,48.45l-1.246,0.903c-8.877,-18.324 -2.274,-37.96 12.148,-47.876c0.584,-0.417 1.875,-0.739 2.476,-1.138c0,0 -5.883,1.347 -7.875,2.129c-0.404,-0.014 -1.59,0.406 -2.865,1.794c-1.115,1.036 -4.6,5.859 -4.488,6.027l-9.26,0.374l0.008,0.343l9.088,-0.21c-9.358,15.466 -7.059,30.182 -1.28,40.481l0.142,0.097c0.336,0.227 1.22,-0.423 3.054,-2.166c0.755,-0.719 1.707,-1.611 2.115,-1.984c1.134,-1.043 2.748,-2.84 3.857,-4.139c-6.293,-12.874 -0.085,-29.83 14.641,-37.471c0.025,-0.407 -0.157,-1.649 -0.157,-1.649c0,0 -0.557,-0.502 -0.886,-0.45c-16.405,7.254 -22.978,25.266 -16.308,41.647l-1.1,1.201c-8.382,-16.962 0.615,-38.164 16.302,-44.171c-0.008,-0.383 -0.347,-0.872 -0.769,-0.578c-16.935,7.893 -24.316,28.047 -16.02,45.226l-1.045,0.927c-9.438,-18.81 0.507,-39.887 16.097,-47.089c0.46,-0.107 -0.409,-0.678 -0.409,-0.678l0,0Zm-91.286,0.175c0,0 -0.119,1.002 0.233,1.344c0.162,0.714 -0.097,0.637 -0.702,0.492c-1.491,-0.357 -0.328,0.494 0.892,1.182c1.201,0.677 1.04,0.654 -0.008,1.321c-0.705,0.448 -0.632,0.617 -0.537,0.957c0.14,0.505 0.237,0.169 0.529,-0.101c0.613,-0.566 1.103,-0.707 1.648,-0.705c0.819,0.003 0.902,0.661 0.757,1.174c-0.326,1.077 -1.43,1.02 -2.336,0.752c-1.481,-0.438 -3.901,-3.018 -3.864,-4.536c-0.103,-1.36 1.752,-1.942 3.387,-1.88l0.001,0Zm6.661,0.332c0.574,0.212 1.297,0.495 2.092,0.829c1.098,0.351 2.211,0.921 2.929,1.401c2.185,1.462 2.052,4.387 1.894,4.677l-11.29,10.74c0,0 -0.638,-0.313 -1.238,-0.62c-1.898,-0.972 -2.355,-1.485 -1.301,-2.023c0.511,-0.261 0.676,-0.823 0.749,-1.372c0.098,-0.735 0.06,-0.61 0.498,-0.945c0.763,-0.584 0.799,-0.825 0.803,-1.794c0,-0.642 0.068,-0.938 0.301,-1.341c0.185,-0.32 0.379,-0.988 0.51,-1.755c0.021,-0.126 0.027,-0.441 0.052,-0.552c0.133,-0.6 0.323,-0.777 0.45,-0.913c0.126,-0.136 0.329,-0.599 0.471,-1c0.315,-0.894 0.255,-0.762 0.764,-0.662c0.739,0.143 0.633,0.576 0.552,1.263c-0.039,0.333 -0.26,0.567 -0.185,0.492c0.101,-0.101 0.555,-0.316 0.648,-0.337c0.237,-0.054 0.472,0.027 0.533,0.399c0.034,0.207 -0.056,0.588 -0.05,0.883c0.015,0.765 0.046,1.68 0.22,2.283c0.838,2.904 0.671,2.501 0.386,0.085c-0.069,-0.579 -0.149,-1.428 -0.065,-2.135c0.058,-0.499 0.2,-1.116 0.393,-1.453c0.496,-0.867 0.523,-1.038 -0.552,-1.465c-0.399,-0.159 -1.079,-0.436 -1.22,-0.713c-0.172,-0.339 -0.684,-0.8 -1.351,-0.957c-1.622,-0.383 -2.566,-1.956 -2.331,-2.189c0.153,-0.154 0.806,0.047 1.219,0.062c1.481,0.052 1.796,-0.024 2.452,-0.589c0.349,-0.302 0.506,-0.569 0.784,-0.589c0.293,-0.006 0.667,0.213 0.884,0.29l-0.001,0Zm76.848,1.74c-15.168,12.317 -17.826,32.241 -10.259,47.616l-1.31,1.032c-9.509,-18.034 -3.122,-37.488 8.56,-48.127l3.009,-0.521Zm-87.565,1.469c0.268,-0.026 0.561,0.369 1.626,1.511c0.717,0.769 1.464,1.438 1.856,1.662c0.891,0.428 0.697,0.25 -0.046,0.957c-0.759,0.874 -0.34,1.593 -1.247,1.155c-2.36,-1.112 -4.017,-4.388 -2.482,-5.177c0.116,-0.059 0.204,-0.1 0.293,-0.108l0,0Zm-1.173,3.444c0.057,-0.004 0.12,0.005 0.181,0.02c0.291,0.071 0.644,0.62 1.023,1.003c1.049,1.061 1.536,1.531 2.374,1.903c0.824,0.366 0.847,0.455 0.267,1.101c-0.211,0.234 -0.337,0.517 -0.386,0.674c-0.05,0.157 -0.062,0.357 -0.24,0.391c-0.918,0.177 -3.972,-1.682 -4.092,-2.964c0.099,-1.2 0.401,-2.091 0.873,-2.128l0,0Zm6.47,0.357c0.53,-0.014 0.841,0.46 0.838,1.228c0,0.533 -0.301,0.749 -0.908,0.977c-1.296,0.487 -2.095,-0.444 -1.189,-1.473c0.381,-0.432 0.897,-0.723 1.259,-0.732Zm-0.791,3.127c0.978,0.004 1.261,0.832 0.544,1.546c-0.674,0.671 -2.034,0.674 -2.031,-0.062c0,-0.577 0.864,-1.486 1.487,-1.484l0,0Zm-6.066,0.991c0.662,0.196 2.273,1.361 2.981,1.498c0.038,0.393 -0.433,0.5 0.236,1.239c0.303,0.335 0.329,0.564 0.065,0.705c-0.808,0.432 -3.607,-0.934 -3.795,-2.34c-0.091,-0.687 0.136,-1.078 0.513,-1.102l0,0Zm3.653,1.683c0.963,0.04 2.052,0.069 1.938,0.531c-0.083,0.335 -0.428,1.219 -0.869,1.054c-0.214,-0.081 -0.422,-0.295 -0.571,-0.438c-0.514,-0.495 -0.651,-1.154 -0.498,-1.147Zm36.421,4.002c2.806,2.55 12.998,29.182 -8.242,48.585l-4.508,1.356c20.394,-16.073 17.001,-38.891 11.498,-48.735c0,-0.289 -0.08,-0.256 -0.587,0.205c-0.445,0.404 -0.492,0.491 -0.313,0.566c6.219,9.605 8.543,36.736 -15.959,49.828c-0.411,0.428 0.421,0.363 0.421,0.363c0.043,-0.352 11.033,-3.032 10.257,-3.1c10.243,-9.088 19.161,-30.761 8.059,-49.652c-0.268,-0.177 -0.626,0.584 -0.626,0.584Zm-3.538,3.015l-0.143,0.601c8.89,17.519 0.404,38.982 -16.121,46.926c0.272,0.2 0.574,0.338 0.878,0.481c18.746,-10.133 24.152,-31.577 15.974,-48.187l-0.588,0.179Zm-1.486,1.243l-0.104,0.635c7.36,14.91 1.517,35.601 -16.048,43.994c-0.167,0.902 0,0.639 0.824,0.596c20.324,-10.94 22.235,-31.745 15.876,-45.255l-0.548,0.03Zm-1.263,1.788c-0.574,0.761 -1.625,1.156 -1.974,2.136c5.905,15.663 -1.726,30.741 -14.645,37.097c-0.01,0.788 -0.574,2.739 0.794,2.427c15.96,-7.257 22.904,-26.547 15.926,-41.73c0,0 -0.091,0.066 -0.101,0.07l0,0Zm80.168,30.284c0.587,0.042 1.114,0.22 1.659,0.292c1.983,0.258 3.269,1.709 2.383,2.591c-0.291,0.29 -0.698,0.123 -1.986,-0.509c-0.592,-0.291 -0.687,-0.563 -0.809,-1.218c-0.147,-0.786 -0.303,-0.865 -0.502,-0.256c-0.201,0.616 -0.417,0.998 -1.094,0.842c-1.901,-0.443 -1.182,-1.757 0.349,-1.742Zm-21.207,13.336c-4.76,-2.712 -10.639,-7.601 -14,-13.157c-1.671,3.147 -3.634,8.873 -3.634,8.873l-7.472,-2.095l-0.088,0.156l7.386,2.137l-0.72,2.473c-0.078,0.267 -1.222,3.083 -1.222,3.083l11.535,5.403c-0.714,1.122 -1.494,1.848 -2.485,2.895c-0.56,0.591 -0.576,1.356 -0.576,1.356l15.993,-15.313c0,0 2.063,3.071 2.831,3.768c0.72,0.653 0.943,0.811 0.104,1.006c-3.758,0.553 -6.674,3.409 -5.658,7.24c0.165,0.426 0.496,0.269 1.208,-0.181c2.495,-2.268 8.593,-4.367 8.802,-3.834l0.024,2.439c-6.566,0.096 -5.893,4.94 -5.412,7.539c0,0.056 -1.899,1.722 -1.899,1.722c0.672,0.353 1.329,0.719 1.95,1.154c-0.577,3.232 2.166,7.916 7.555,5.518c0.466,0.48 0.906,0.962 1.42,1.564c0.551,-0.641 1.187,-2.15 1.187,-2.15c2.677,1.216 8.231,-1.506 5.39,-7.739l1.566,-1.5l-1.504,-0.951c-0.04,-1.585 -0.284,-3.001 -1.227,-4.382c0,0 2.527,0.647 4.397,0.756l0,-0.001c1.155,0.105 2.129,0.135 2.032,-0.566c-0.029,-0.206 -0.201,-1.215 -0.314,-1.545c-0.558,-1.633 -3.451,-2.832 -6.261,-2.99c-0.458,-0.026 -0.952,-0.012 -1.05,-0.131c-0.183,-0.224 0.146,-0.542 0.448,-0.489c1.539,0.268 3.019,-0.873 3.285,-2.325c0.053,-0.255 0.368,-0.721 0.819,-1.217c0.8,-0.88 0.863,-0.857 0.848,-2.128c-0.01,-0.882 0.144,-1.078 0.549,-1.67c0.523,-0.843 0.767,-1.943 0.504,-3.082c-0.084,-0.36 -0.424,-0.871 -0.134,-1.77c0.472,-1.462 -0.565,-2.799 -1.924,-3.561c-0.109,-0.031 -0.076,0.076 -0.166,0.184c-1.233,0.385 -2.735,-0.502 -2.735,-0.502c-0.31,-0.153 1.05,-8.085 3.868,-7.376c0.468,0.285 0.666,1.664 0.631,1.688c0.13,-0.003 0.2,-0.811 0.017,-1.351c-0.191,-0.565 -0.628,-1.104 -1.468,-0.944c-0.652,0.123 -1.404,0.991 -1.745,1.427c-1.316,1.684 -1.331,2.758 -1.771,4.55c-0.211,0.846 -0.234,0.797 -1.402,-0.118c-0.838,-0.658 -1.244,-0.868 -0.952,-1.253c0.131,-0.173 0.674,-0.721 0.674,-0.721l10.672,-9.852l0,98.994l-58.155,0l0.404,-13.011c1.082,-8.915 -0.822,-27.637 -2.263,-29.397c1.112,-1.253 4.56,-4.275 4.37,-4.411l-0.457,-0.271l-1.823,1.683l-4.503,-1.369c-1.92,-1.331 -3.88,-2.562 -5.913,-3.086c-3.32,-0.855 -9.714,1.87 -9.72,1.898c-10.215,0.759 -18.395,4.923 -18.281,4.891c-0.445,-0.41 -1.033,-1.719 -1.049,-1.711c-5.265,-7.355 -10.442,-11.475 -17.514,-16.503l8.958,-4.966l-21.227,-22.262l-0.187,-18.077l30.75,-29.507c0.181,-0.51 9.81,6.826 13.395,12.796c0.688,-2.918 1.968,-5.568 3.035,-8.434c0.112,-0.262 6.118,2.229 7.899,2.335c0.267,0.016 0.482,-0.266 0.482,-0.266l-7.927,-2.588l1.621,-4.66c0,0 0.565,-1.266 -0.072,-1.476c-3.614,-1.173 -7.005,-3.241 -10.461,-5.003c0,0 1.615,-1.801 1.639,-1.881c0.023,-0.075 0.677,-1.042 0.521,-1.375c-1.758,1.712 -16.104,15.067 -16.104,15.067c-0.408,-2.292 -1.05,-3.093 -2.445,-4.508c0.76,-0.036 1.949,-0.79 2.637,-1.293c2.102,-1.537 3.247,-4.281 2.972,-5.884c-2.019,0.645 -3.841,1.401 -6.369,1.861c-1.421,0.259 -2.768,0.903 -3.586,1.594l-0.125,-2.558c0.008,0.03 3.401,0.598 4.974,-1.69c1.356,-1.971 0.8,-4.228 0.489,-5.379c0.035,-0.255 -0.041,-0.227 0.544,-0.767c0.432,-0.399 1.104,-0.915 1.104,-0.915c0.029,-0.145 -1.754,-0.808 -2.055,-1.414c0.475,-4.739 -3.298,-6.569 -6.492,-5.727c-0.597,0.181 -0.882,0.293 -1.591,-0.501c-0.106,-0.118 -0.958,-1.021 -0.958,-1.021c0,0 -0.376,0.87 -0.568,1.252c-0.626,1.239 -0.798,0.866 -2.148,0.933c-3.421,0.168 -4.947,2.94 -4.162,6.343c0.184,0.799 0.102,0.675 -0.421,1.685c-0.267,0.516 -0.702,1.175 -0.702,1.175c0,0 0.627,0.348 1.05,0.538c0.626,0.281 0.658,0.61 0.656,1.236c0.087,1.381 0.389,2.306 1.18,3.492c-2.679,0.062 -4.735,-0.189 -7.161,-0.998c0.371,3.745 3.122,5.139 6.49,5.688c0,0 -0.354,0.331 -0.725,0.479c-0.788,0.229 -1.282,0.924 -1.274,1.546c-0.114,0.594 -0.497,1.191 -0.85,1.508c-0.524,0.456 -0.955,1.098 -0.749,2.34c-0.052,0.9 -0.269,1.16 -0.532,1.503c-0.529,0.69 -0.707,1.376 -0.575,2.283c0.061,0.422 0.191,1.325 0.104,2.259c-0.145,1.556 0.41,2.14 1.115,3.235c0.457,0.71 0.361,0.729 0.255,1.244c-0.253,1.237 -0.517,1.873 -0.791,2.813c-0.613,2.105 -0.636,3.701 -0.135,4.112c0.755,0.619 1.61,0.432 2.008,0.309c2.98,-0.923 2.464,-3.861 2.621,-5.832c0.085,-0.506 0.257,-0.75 0.424,-0.726c0.843,0.99 1.734,1.562 2.881,2.186c-3.966,4.051 -6.506,6.531 -11.519,10.95l0,-98.781l57.279,0c0,0 0.06,0.826 -0.076,4.397c-0.248,7.257 -0.552,14.86 -0.078,22.258c0.08,2.56 0.027,5.089 0.394,7.622c0.357,2.468 0.515,5.13 1.664,7.428c0.462,1.246 0.476,1.15 -1.283,2.782c-0.863,0.801 -1.596,1.653 -1.564,1.803c0.01,0.05 -0.038,0.238 0.094,0.132c0.088,-0.071 0.725,-0.704 0.796,-0.788c0.477,-0.564 1.274,0.16 3.995,0.93c0.534,0.152 1.286,0.656 1.861,1.074c4.067,3.44 9.789,2.367 14.067,0.491c1.214,-0.532 1.512,-0.587 3.463,-0.82c7.225,-0.859 14.945,-4.028 14.929,-4.018l0.943,1.551c0,0 0.355,-0.066 0.608,0.324c4.156,7.878 17.723,16.88 17.482,16.463l-8.868,4.928c6.456,8.007 21.305,21.591 21.305,21.591l0,19.525c-3.964,3.182 -7.875,6.829 -11.36,10.391c-1.002,0.996 -1.71,1.565 -1.329,1.583c0.905,-0.138 1.686,0.757 2.422,1.379c0.466,0.521 0.354,0.474 -0.184,1.187c-0.378,0.501 -0.517,0.646 -0.518,1.008c0.013,0.7 0.009,1.169 -0.613,1.695c-0.386,0.486 -0.606,0.797 -0.676,1.373c-0.069,0.576 -0.064,0.945 -0.458,1.453c-0.668,0.143 -0.731,1.119 -0.614,1.556c0.7,0.696 0.38,1.45 0.445,1.291c-1.336,1.456 -2.738,2.717 -1.843,0.682c0.404,-0.758 0.545,-1.385 0.545,-1.385c0,0 -0.644,0.669 -0.98,0.984c-0.515,0.479 -0.704,0.197 -0.719,-1.288c-0.066,-1.125 -0.538,-2.693 -0.726,-2.993c-0.105,-0.168 -0.122,0.123 -0.073,1.205c0.064,1.424 0.233,1.837 -0.266,3.259c-0.675,1.92 -1.155,2.192 -0.059,2.126c1.038,-0.063 1.916,-0.074 2.37,0.548c0.153,0.21 0.35,0.569 0.77,0.781c0.854,0.468 1.533,0.988 2.008,1.506c1.536,1.676 1.095,3.174 -1.874,2.158c-1.563,-0.535 -0.539,-1.208 1.141,-1.052c1.032,0.097 1.206,-0.286 0.313,-0.561c-1.662,-0.308 -1.93,-0.496 -3.025,0.812c-4.602,-0.457 -7.186,-3.039 -8.427,-5.143c-0.52,-0.88 -0.679,-1.048 -0.317,-1.546c0.142,-0.196 0.056,-0.136 -0.189,0.136c-0.245,0.271 -0.914,0.499 -1.135,0.695c-1.546,1.548 -3.113,3.211 -4.505,4.47l0,0Zm20.028,-10.842c0.781,0.097 0.766,0.755 0.069,1.388c-0.655,0.498 -1.104,0.594 -1.474,0.22c-0.648,-0.655 0.189,-1.613 1.405,-1.608l0,0Zm2.274,0.456c0.63,-0.002 1.433,0.288 2.387,1.084c1.139,0.95 1.399,3.25 0.353,3.648c-0.438,0.166 -0.506,0.003 -1.439,-0.887c-0.63,-0.6 -1.312,-1.144 -1.984,-1.465c-1.373,-0.655 -1.549,-0.903 -0.621,-1.35c0.195,-0.1 0.448,-0.337 0.563,-0.523c0.238,-0.383 0.311,-0.505 0.741,-0.507Zm-1.482,3.062c0.182,0.006 0.426,0.117 0.807,0.322c2.313,1.268 3.444,3.256 2.661,4.378c-0.513,0.737 -1.349,0.456 -1.986,-0.588c-0.359,-0.588 -1.312,-1.341 -2.394,-1.891c-1.238,-0.631 -1.265,-0.721 -0.37,-1.151c0.367,-0.177 0.643,-0.427 0.822,-0.744c0.208,-0.369 0.226,-0.333 0.46,-0.326Zm0.741,4.738c1.748,1.749 1.548,2.696 0.413,3.408c-0.775,0.486 -2.019,0.607 -2.427,0.205c-0.658,-0.578 -0.641,-1.241 0.087,-1.453c0.68,-0.146 0.425,-0.419 -0.21,-0.581c-2.266,-0.646 -3.659,-1.853 -1.195,-1.591c0.706,0.075 1.391,-0.476 1.76,-0.917c0.535,-0.651 1.257,0.614 1.572,0.929Zm-119.188,0.674l50.903,72.943l-41.131,0c1.448,-11.602 -1.459,-24.478 -5.305,-32.879c4.185,-0.713 8.173,-1.823 12.163,-2.927l-0.81,-1.055c-4.761,1.91 -9.155,2.608 -13.291,3.082c5.49,9.38 7.449,22.31 5.803,33.779l-7.84,0l0,-56.63l-0.492,-16.313Zm9.117,10.856c0.721,-0.029 2.516,1.243 2.735,2.199c0.044,0.196 0.511,1.373 1.034,2.466c0.011,0.202 1.779,3.407 1.002,3.127c-1.546,-2.108 -4.308,-5.698 -5.002,-7.448c0,-0.233 0.03,-0.337 0.231,-0.344Zm5.511,3.206c0.096,0.529 0.631,1.914 1.053,2.827c1.101,2.378 2.806,6.107 2.459,7.168c-0.233,0.716 0.008,0.678 -0.617,-0.205c-0.305,-0.432 -1.258,-1.765 -1.486,-2.073c-0.558,-0.751 -0.183,-0.062 -0.501,-1.285c-0.76,-3.459 -1.987,-5.276 -2.784,-7.297c-0.284,-0.949 1.51,0.482 1.876,0.865Zm0.98,0.527c0.148,0.104 2.17,1.531 2.374,1.736c0.717,2.558 3.582,10.752 2.84,12.216c-0.258,-0.203 -1.35,-1.524 -1.502,-2.205c-0.33,-3.918 -1.569,-6.736 -2.897,-9.657c-0.374,-0.88 -0.668,-1.76 -0.815,-2.09Zm3.803,2.877c0.64,0.314 1.302,1.032 1.677,1.673c0.251,0.435 0.38,0.946 0.616,2.024c0.732,3.343 2.13,6.732 1.501,10.299c-0.392,0.534 -1.244,-0.676 -1.366,-1.867c-0.404,-3.951 -0.751,-5.844 -2.135,-10.49c-0.269,-0.901 -0.472,-1.608 -0.293,-1.639Zm3.246,3.065c0.137,0.006 0.417,0.261 0.884,0.701c0.909,0.857 1.037,1.172 1.042,2.593c0.03,2.088 0.723,4.471 0.83,6.579c0.063,1.217 0.284,4.363 0.097,4.55c-0.265,0.366 -1.438,-0.967 -1.347,-3.011c0.149,-2.457 0.028,-4.306 -1.016,-8.556c-0.482,-1.964 -0.726,-2.804 -0.517,-2.852c0.008,-0.002 0.018,-0.004 0.027,-0.004l0,0Zm94.176,-12.409c3.644,2.349 2.359,6.683 1.579,7.216c5.033,6.382 -2.791,9.651 -5.273,7.356c-3.675,3.666 -9.982,0.593 -7.553,-5.448c0,0 -4.616,-8.85 4.487,-8.258c0,0 0.157,-3.576 -0.1,-3.74c-3.25,-0.219 -7.667,2.921 -8.918,3.79c-0.694,0.421 -0.846,0.22 -0.846,0.22c-0.173,-1.856 -0.178,-2.706 0.574,-3.741c1.311,-1.806 3.479,-2.416 6.326,-3.044c3.524,1.089 6.88,2.799 10.145,2.533c1.798,0.011 3.637,0.302 5.379,1.241c1.176,0.557 1.788,2.646 1.788,2.646c-1.845,0.968 -7.588,-0.771 -7.588,-0.771Zm-1.733,-13.123c0.015,-0.634 0.728,-1.34 1.43,-1.258c0.964,0.07 1.091,1.217 0.233,1.639c-0.248,0.201 -1.048,-0.096 -1.092,0.127c0.059,0.39 -0.333,0.226 -0.409,0.085c-0.133,-0.166 -0.163,-0.403 -0.162,-0.593Zm-0.586,2.499c0.355,-0.249 0.65,-0.271 1.007,-0.318c0.547,-0.067 1.247,0.016 1.403,0.592c0.152,0.565 -0.928,0.898 -1.801,0.913c-0.445,0.008 -0.96,0.094 -1.093,-0.219c-0.126,-0.294 0.306,-0.835 0.484,-0.968Zm-110.31,-40.361c0.704,-2.454 0.264,-3.827 1.436,-6.851l2.853,0.953c0,0 0.121,2.966 -0.454,4.619c-0.576,1.651 -2.468,2.968 -3.835,1.279Zm21.252,66.351c0.337,0.04 1.163,1.222 1.536,2.301c0.343,1.002 0.23,2.273 0.479,3.352c0.56,3.698 0.527,7.402 0.378,8.521c-0.074,0.558 -0.432,0.331 -0.922,-0.201c-0.713,-0.774 -0.615,-0.79 -0.606,-2.937c0.008,-1.841 -0.4,-6.388 -0.587,-7.312c-0.346,-1.709 -0.491,-3.34 -0.409,-3.62c0.022,-0.078 0.068,-0.112 0.131,-0.104Zm33.368,0.442c3.674,0.587 6.611,3.105 8.294,7.249c1.625,4.215 2.025,9.965 2.277,15.251c-0.018,1.265 -0.537,0.946 -1.898,0.16c-1.487,-0.729 -1.803,-0.518 -3.973,-0.019c-1.354,0.311 -1.232,-0.613 0.996,-2.147c0.758,-0.497 1.641,-1.16 1.351,-1.259c-0.147,-0.051 -0.826,0.133 -1.316,0.531c-2.186,1.773 -2.779,2.204 -2.149,0.48c0.16,-0.436 0.666,-1.645 0.878,-2.223c0.791,-2.167 -0.121,-3.094 -2.81,-4.465c-0.673,-0.343 -1.115,-0.916 -0.444,0.283c0.549,0.98 -0.586,1.77 -1.992,0.624c-0.977,-0.797 -2.94,-0.266 -3.574,0.728c-0.614,0.963 -0.286,2.761 0.924,3.343c1.067,0.461 1.464,0.129 0.433,-0.589c-1.326,-0.923 -1.068,-2.48 0.421,-2.474c0.368,0.001 1.018,0.413 2.661,1.309c1.175,0.638 2.012,0.368 2.013,-0.585c0,-0.638 0.365,-0.585 1.138,-0.202c1.041,0.516 0.927,0.984 0.377,2.428c-0.371,1.009 -0.556,2.155 -0.896,3.209c-0.877,3.547 -0.993,7.565 -0.024,8.818c2.58,3.331 5.319,2.978 7.665,0.776l-0.101,3.648c-2.391,1.927 -5.185,3.24 -9.499,10.382c-1.504,-1.897 -7.958,-9.65 -18.308,-11.401l-2.329,-3.199c0.04,-0.198 -1.74,-11.895 -2.904,-15.878c0,0 1.28,-1.951 2.444,-3.389c4.646,-5.747 12.501,-12.323 20.344,-11.389l0.001,0Zm-13.498,3.32c-0.398,0.127 -0.527,-0.67 -0.311,-0.821c0.479,-0.041 0.648,-0.026 1.128,0.01c0.362,0.022 0.353,0.439 -0.817,0.811l0,0Zm-17.465,-0.596c0.517,0.369 1.147,1.364 1.764,2.27c0.342,0.502 0.148,1.334 0.201,2.155c0.075,1.164 0.204,3.083 0.286,4.262c0.159,2.3 -0.055,4.224 -0.39,4.918c-0.342,0.83 -1.036,0.256 -1.209,-0.88c-0.041,-0.273 0.185,-3.093 0.186,-4.642c0,-2.664 -0.679,-5.952 -0.838,-8.083Zm15.666,-0.017c0.182,-0.01 0.321,-0.004 0.442,0.152c0.557,0.716 0.784,1.15 0.276,1.542c-0.673,0.564 -1.285,0.422 -1.659,-0.649c-0.24,-0.763 0.327,-1.003 0.941,-1.045Zm-2.075,0.632c0.6,0.404 1.197,1.468 1.259,2.235c-0.038,0.211 -0.223,0.39 -0.626,0.717c-0.4,0.367 -0.526,0.344 -0.973,-0.363c-0.699,-1.097 -1.027,-1.82 -0.89,-2.199c0.35,-0.365 0.805,-0.51 1.23,-0.39Zm24.464,0.139c1.003,0.085 1.994,0.545 2.97,0.776l-1.49,1.445c-0.442,-0.74 -0.946,-1.481 -1.48,-2.221Zm-26.69,0.753c0.55,0.719 1.509,2.598 1.458,3.296c-0.14,0.238 -0.358,0.45 -0.588,0.583c-0.183,0.05 -0.348,-0.272 -0.969,-1.373c-1.078,-1.916 -1.394,-2.456 -0.834,-2.686c0.294,-0.033 0.742,-0.019 0.933,0.18Zm-2.175,0.446c0.6,0.535 2.04,3.39 2.081,4.193c-0.017,0.226 -0.083,0.422 -0.217,0.574c-0.905,0.977 -0.676,0.819 -2.024,-1.965c-1.138,-2.29 -1.438,-2.516 -0.685,-2.774c0.166,-0.057 0.583,-0.132 0.845,-0.028l0,0Zm-2.164,0.744c0.395,-0.005 0.506,0.658 1.276,2.168c1.289,2.855 1.773,3.252 1.481,3.557c-0.359,0.456 -0.57,0.776 -0.911,0.223c-0.778,-1.269 -1.549,-2.888 -2.273,-4.31c-0.58,-1.061 -0.631,-1.189 -0.259,-1.449c0.213,-0.149 0.532,-0.187 0.686,-0.189Zm23.012,0.811c-0.484,0.137 -2.432,0.756 -1.239,0.868c0.241,0.023 0.852,-0.13 1.282,-0.16c1.206,-0.084 3.714,0.144 3.625,-0.088c-0.229,-0.869 -3.011,-0.789 -3.668,-0.62Zm-24.698,0.268c0,0.048 0.312,0.604 0.623,1.149c1.833,3.554 2.852,4.848 2.526,5.41c-0.268,0.339 -0.682,0.765 -0.927,0.664c-0.394,-0.163 -0.919,-1.326 -2.23,-3.959c-1.355,-2.721 -1.496,-2.924 -0.8,-3.278c0.286,-0.132 0.632,-0.231 0.808,0.014l0,0Zm-1.831,1.253c0.842,1.374 0.732,1.194 0.722,5.665c-0.008,2.783 -0.362,4.558 -0.826,5.243c-0.243,0.359 -0.672,0.148 -0.884,-0.554c-0.097,-0.321 0.18,-0.798 0.232,-1.306c0.327,-3.348 0.098,-6.695 0.106,-9.864c0.254,-0.027 0.514,0.592 0.65,0.816Zm21.723,1.097c0.392,0.562 0.296,1.015 0.293,1.771c-0.008,1.069 0.073,1.148 0.808,0.608c0.652,-0.479 0.705,-0.51 1.868,0.283c0.69,0.47 1.56,0.523 2.123,0.004c0.396,-0.366 0.534,-0.201 1.065,-0.062c0.579,0.322 0.743,0.372 1.985,-0.233c0.838,-0.372 0.872,-0.426 1.37,-0.162c0.877,0.775 1.006,0.495 0.888,-0.52c0,-0.354 0.105,-1.015 0.208,-1.445c0.437,-1.804 -0.27,-1.824 -1.204,-0.674c-0.362,0.445 -1.168,0.638 -1.93,0.279c-1.092,-0.515 -2.795,-0.307 -4.055,-0.094c-1.49,0.251 -2.18,-0.161 -2.778,-0.673c-0.339,-0.291 -1.115,-0.55 -1.2,-0.328c-0.086,0.223 0.089,0.573 0.559,1.246l0,0Zm-19.982,2.53c0.187,-0.04 0.473,0.514 0.892,1.69c0.541,1.516 -0.404,6.789 -0.973,7.653c-0.301,0.453 -0.494,0.731 -1.112,-0.109c-0.245,-0.369 -0.054,-0.486 0.19,-1.523c0.37,-1.577 0.683,-4.129 0.702,-5.316c0.008,-1.541 0.09,-2.349 0.301,-2.395Zm1.9,5.115c0.134,0.01 0.291,0.314 0.505,0.915c0.304,0.825 0.157,2.416 -0.243,3.634c-0.231,0.71 -0.451,1.466 -0.845,2.101c-0.135,0.356 -0.822,0.231 -1.012,-0.558c-0.12,-0.5 0.294,-1.12 0.494,-1.915c0.202,-0.798 0.431,-1.814 0.545,-2.325c0.21,-1.247 0.359,-1.866 0.556,-1.852Zm14.7,2.337c-0.017,-0.003 -0.032,0 -0.042,0.004c0,-0.005 -0.008,0.008 -0.012,0.011c-0.031,0.032 1.433,1.633 1.826,2.081c0.205,0.175 1.97,2.328 0.872,1.833c-2.768,-1.152 -6.008,-0.586 -8.002,1.345c-0.25,0.242 -0.457,-0.006 -1.212,-0.062c-1.55,-0.116 -2.113,0.501 -1.17,1.267c0.144,0.117 0.445,0.17 0.581,0.358c0.125,0.173 0.088,0.482 0.153,0.569c2.996,3.992 8.545,4.769 12.028,2.161c0.439,-0.328 0.685,-0.443 1.093,-0.321c0.81,0.242 0.882,-0.44 0.166,-1.392c-0.312,-0.415 -0.697,-0.893 -0.473,-1.031c0.443,-0.382 0.662,-1.006 -0.108,-1.24c-0.53,-0.161 -1.125,-0.754 -1.423,-1.58c-0.348,-0.966 -3.76,-3.933 -4.277,-4.003l0,0Zm-13.6,1.747c0.651,-0.015 0.681,3.846 -0.038,5.018c-0.37,0.444 -1.216,-0.381 -1.089,-1.228c0.096,-0.644 0.788,-3.546 0.946,-3.697c0.064,-0.061 0.126,-0.091 0.181,-0.093l0,0Zm13.276,2.411c0.546,-0.006 1.295,0.24 1.889,0.779c0.322,0.292 0.885,1.554 0.651,2.049c-0.065,0.252 -0.741,0.237 -0.802,0.053c-0.371,-2.549 -2.429,-2.918 -3.083,-0.539c0,0 -0.424,0.361 -0.478,-0.336c0.147,-1.35 0.779,-1.996 1.823,-2.006l0,0Zm16.573,0.22c0.654,-0.012 1.278,0.318 1.598,1.02c0.223,0.488 0.248,0.9 0.159,1.115c-0.066,0.16 -0.286,0.09 -0.286,0.09c-1.045,-2.875 -2.466,-1.545 -2.982,0.044c0,0 -0.537,0.167 -0.604,-0.005c-0.067,-0.172 -0.025,-0.495 0.188,-0.942c0.409,-0.855 1.185,-1.308 1.927,-1.322l0,0Zm-13.975,0.179c0.37,-0.02 1.003,0.282 1.477,0.761c0.481,0.486 0.528,0.777 0.139,1.138c-0.233,0.217 -1.063,0.431 -1.224,0.054l-0.699,-1.639c-0.066,-0.156 0.139,-0.305 0.307,-0.314l0,0Zm-5.034,0.077c0.414,0.002 0.502,0.096 -0.149,1.614c-0.139,0.325 -1.807,-0.147 -1.489,-0.773c0.477,-0.498 1.224,-0.842 1.638,-0.841Zm16.712,0.12c0.166,-0.008 0.302,0.017 0.359,0.093c-0.149,0.054 -0.78,1.655 -0.78,1.655c-0.595,-0.072 -1.307,0.012 -1.436,-0.477c-0.122,-0.461 0.119,-0.743 0.957,-1.065c0.254,-0.093 0.622,-0.193 0.9,-0.206Zm4.883,0.411c0.631,0.233 0.779,0.769 0.698,1.046c-0.061,0.21 -0.359,0.212 -0.571,0.051c-0.201,-0.235 -0.498,-0.634 -0.475,-0.903c0.066,-0.268 0.146,-0.271 0.348,-0.194Zm-31.474,1.479c0.194,0.367 0.545,2.446 0.135,2.392c-0.397,-0.103 -0.583,-0.73 -0.652,-1.294c-0.015,-0.116 0.339,-1.084 0.517,-1.098Zm6.953,1.11c0.184,-0.027 0.647,0.136 1.335,0.527c2.266,1.098 4.588,1.253 7.055,0.701c1.422,-0.371 1.785,-0.588 1.986,-0.343c0.342,0.416 -0.197,0.833 -2.206,1.51c-2.203,0.744 -4.489,0.618 -7.494,-1.511c-0.808,-0.572 -0.913,-0.851 -0.676,-0.884Zm25.138,0.573c0.373,0.698 -0.896,1.361 -1.54,1.547c-1.366,0.397 -3.437,0.212 -4.606,-0.494c-0.098,-0.059 -0.192,-0.122 -0.282,-0.189c-0.951,-0.71 -0.557,-1.218 0.502,-0.67c1.139,0.589 3.457,0.698 4.686,0.103c0.616,-0.299 1.04,-0.673 1.24,-0.297l0,0Zm-28.13,1.302c-0.126,0.028 0.087,0.349 0.529,0.829c3.099,3.492 10.492,5.385 14.648,1.787c1.302,-1.226 1.103,-1.777 -0.95,-0.798c-2.27,0.75 -5.496,0.848 -8.286,0.433c-1.372,-0.186 -3.607,-0.713 -4.741,-1.546c-0.714,-0.524 -1.089,-0.73 -1.2,-0.705Zm21.367,0.105c0.19,0.015 0.521,0.085 1.241,0.461c1.05,0.548 3.434,0.36 4.215,0.071c1.645,-0.609 1.982,0.165 0.424,1.029c-1.737,1.055 -4.133,0.643 -5.532,-0.717c-0.433,-0.389 -0.667,-0.874 -0.477,-0.913c0.018,-0.004 0.102,0.066 0.129,0.069Zm-20.544,6.175c6.103,0.56 15.313,6.97 18.904,14.272l-2.067,0c-3.608,-5.747 -9.159,-10.703 -15.747,-12.429c-0.26,-0.201 -1.23,-1.588 -1.09,-1.843Zm27.088,1.337l-0.282,2.019c-1.022,0.842 -4.771,3.959 -7.552,8.84c-0.579,-0.027 -0.859,-0.728 -0.763,-1.205c2.226,-4.405 4.888,-6.838 8.597,-9.654Zm-24.664,1.58c1.4,-0.096 10.509,5.146 13.577,11.355l-1.68,0c-3.45,-4.511 -7.285,-7.785 -10.689,-8.966c-0.828,-0.876 -1.734,-2.35 -1.208,-2.389Zm24.382,1.405l-0.015,2.728c-2.179,2.13 -3.772,4.604 -5.02,7.222l-1.692,0c0,0 -0.376,-1.08 -0.245,-1.547c1.923,-3.474 3.766,-6.004 6.972,-8.403l0,0Zm-13.838,9.95l-1.638,0c-1.382,-1.962 -3.435,-4.181 -5.32,-5.304c-0.773,-0.961 -1.638,-2.147 -1.29,-2.339c0.021,-0.709 7.269,4.539 8.248,7.643Zm13.874,-5.881l-0.036,1.577c-1.108,1.423 -2.037,2.948 -2.924,4.304l-1.396,0c1.273,-2.758 4.47,-6.627 4.356,-5.881l0,0Zm-18.797,3.054c0.506,0.133 2.351,2.234 2.292,2.827l-0.831,0c-0.466,-0.591 -1.018,-1.562 -1.346,-2.166c-0.205,-0.382 -0.337,-0.737 -0.115,-0.661Zm18.475,0.487c0.008,-0.001 0.008,-0.001 0.012,0c0,0.002 -0.016,2.34 -0.016,2.34l-1.401,0c-0.15,-0.028 0.679,-1.848 1.406,-2.34l-0.001,0Z" style="fill:#131f67;fill-rule:nonzero;"/><path id="path6313-8" d="M101.025,20.776l52.152,74.273l0.042,-16.5l-16.736,-21.678c3.809,-1.179 8.46,-1.994 12.122,-2.321c-4.703,-10.466 -7.056,-20.295 -4.984,-33.767c-14.619,-0.175 -29.3,-0.146 -42.596,-0.007l0,0Zm41.728,0.352c-0.408,4.756 -0.945,10.06 -0.085,15.95c-2.714,-0.995 -3.351,0.704 -3.801,0.883c-0.51,-1.143 -2.402,-3.12 -4.544,-0.796c-1.113,1.208 -0.572,3.48 2.013,4.505c-2.96,0.228 -4.498,-2.311 -5.018,-4.929c-1.6,-1.028 -3.281,-2.044 -3.441,-5.648l0.82,0.137c-0.273,2.515 2.33,3.795 3.853,2.595c0.985,-0.757 1.091,-1.926 0.702,-3.742c0.791,-0.162 2.644,-0.941 2.154,-3.33c-0.676,-3.299 -4.051,-2.912 -5.593,-0.742c-1.282,-1.593 -3.632,-1.888 -4.575,0.585c-0.525,1.378 0.671,2.925 2.031,3.224c-3.019,0.581 -4.541,-3.597 -4.71,-6.425l-1.251,-2.228c8.161,-0.048 11.73,-0.038 21.445,-0.039Zm-40.878,0.082l6.057,0.004l44.206,57.419l0.092,14.294l-50.355,-71.717Zm15.314,0.004c0,0 0.965,0.011 0.965,0.011c0.757,5.054 3.652,8.713 8.605,10.494c0.257,4.129 2.241,9.737 9.767,11.632c-0.222,4.662 2.762,9.118 5.957,11.253c0,0 -0.863,0.214 -1.537,0.279c-4.295,-3.418 -5.353,-8.451 -5.779,-10.528c-0.145,-0.3 -0.555,-0.373 -0.88,-0.446c-3.676,-1.303 -6.769,-4.333 -8.034,-8.033l-0.795,-3.63c0,-0.467 -0.093,-0.248 -1.185,-0.651c-2.835,-1.048 -5.457,-4.127 -6.632,-7.805c-0.619,-1.933 -0.452,-2.576 -0.452,-2.576Zm-3.895,0.011l3.393,0.004c0,0 0.02,0.601 0.07,0.992c0.456,3.621 3.695,8.165 6.999,9.672c0.467,0.213 1.117,0.513 1.27,0.655c0.923,5.935 3.603,9.51 9.261,11.958c0.09,0.094 0.345,0.153 0.421,0.271c0.771,3.671 2.456,7.925 5.663,10.265l-1.386,0.143l-25.691,-33.96Zm16.576,6.23c0.767,0 1.39,0.624 1.39,1.395c0,0.77 -0.623,1.391 -1.39,1.391c-0.767,0 -1.39,-0.621 -1.39,-1.391c0,-0.771 0.623,-1.395 1.39,-1.395Zm-46.834,7.612c0.08,0.201 -18.98,16.384 -17.125,46.832l-0.552,0.62l0.15,0.217c-0.629,0.717 -1.235,1.293 -1.922,1.992c3.952,2.528 10.841,5.288 10.863,5.216l-1.317,3.061l8.235,2.67l-1.104,2.91c0,0 -5.729,-1.907 -8.103,-2.701c-1.172,2.607 -1.881,5.36 -2.734,8.072c-0.08,0.218 -0.267,0.113 -0.559,-0.31c-4.278,-7.323 -13.063,-12.606 -12.767,-12.083l-31.154,29.671l-0.212,18.336l21.561,22.305c0,0 -6.24,3.081 -9.192,5.103c2.296,1.88 4.894,3.329 7.176,5.107c4.722,3.342 7.908,8.255 10.968,11.582c14.431,-7.181 28.964,-6.781 41.515,-2.422c-1.462,1.545 -3.094,2.883 -4.601,4.557c3.648,9.609 2.48,28.691 2.297,29.21c7.595,-7.788 18.894,-24.489 17.387,-48.003l3.197,-3.216c-0.059,-0.165 -7.996,-4.43 -11.304,-5.359l0.915,-2.922l-7.922,-2.484l0.884,-2.321l7.891,2.294c1.494,-3.682 3.077,-8.839 3.077,-8.839c3.151,4.732 6.625,9.036 13.774,13.415l30.976,-29.748l-0.2,-19.127l-21.09,-21.169l8.779,-4.591c-0.844,-0.683 -2.067,-1.331 -2.934,-2.015c-0.062,-0.049 0.174,-0.196 0.112,-0.244c-0.221,-0.171 -0.382,-0.309 -0.606,-0.465c-0.051,-0.036 -0.209,0.194 -0.259,0.158c-2.979,-2.096 -5.959,-4.16 -8.304,-6.668c-0.059,-0.064 0.028,-0.325 -0.031,-0.388c-1.219,-1.307 -2.432,-2.523 -3.671,-3.809c-0.575,-0.582 -1.525,-1.965 -1.525,-1.965l-0.054,-0.457l-1.332,-1.682c-4.289,2.54 -22.575,8.913 -40.269,1.857l3.363,-3.376c-0.895,-2.167 -1.476,-4.586 -1.706,-6.568c-0.926,-7.945 -0.572,-22.253 -0.572,-22.253l0.001,0Zm55.775,4.498c0.81,0 1.467,0.66 1.467,1.473c0,0.812 -0.657,1.472 -1.467,1.472c-0.809,0 -1.463,-0.66 -1.463,-1.472c0,-0.813 0.654,-1.473 1.463,-1.473Zm4.589,1.752c0.746,3.659 2.388,8.974 4.024,12.556l-1.949,0.216c-1.586,-1.034 -3.263,-2.544 -3.439,-4.685c-4.291,0.033 -5.546,-6.722 -3.978,-5.911c-0.2,2.307 1.449,3.217 3.067,2.99c1.393,-0.195 2.598,-2.126 0.94,-4.257c0.737,-0.288 1.097,-0.506 1.335,-0.909l0,0Zm-60.805,10.823c0.285,4.68 1.2,8.093 2.054,11.628l-8.477,8.029c0.661,-7.328 2.805,-13.877 6.423,-19.657Zm40.659,15.414l1.077,1.55c-12.251,7.221 -33.162,7.732 -45.901,1.643l1.691,-1.616c11.202,5.077 29.44,5.455 43.133,-1.577Zm-79.568,2.41c-1.234,-0.015 -2.659,0.458 -4.169,1.612c-5.621,-2.57 -9.302,3.438 -5.826,7.417c-0.514,2.864 -0.904,3.397 1.243,6.297c-2.28,0.291 -5.16,-0.308 -7.609,-0.686c0.414,4.241 6.465,5.228 8.984,4.762c2.719,-0.591 5.285,0.759 5.397,0.791c1.599,0.448 2.592,1.221 4.169,1.592c2.6,0.621 6.409,-2.438 6.96,-5.343c0.052,-0.39 0.173,-0.744 -0.042,-0.802c-1.778,0.456 -3.731,1.099 -5.462,1.48c-1.696,0.418 -2.975,0.83 -4.266,1.844l-0.108,-3.503c8.804,0.421 4.972,-7.981 4.474,-8.342c1.636,-3.316 -0.332,-7.076 -3.745,-7.119l0,0Zm80.027,0.264l1.915,4.623l-5.088,1.732l-1.301,-4.526l4.474,-1.829Zm-80.394,0.139c2.993,0.029 5.669,3.193 2.795,6.735c5.572,4.932 -1.568,10.218 -4.968,6.549c-4.526,4.16 -9.335,-0.185 -6.806,-4.716c-4.827,-4.336 1.126,-10.151 5.192,-6.405c0.999,-1.541 2.427,-2.176 3.787,-2.163Zm34.744,1.694c0.717,0 1.297,0.583 1.297,1.302c0,0.719 -0.58,1.302 -1.297,1.302c-0.716,0 -1.297,-0.583 -1.297,-1.302c0,-0.719 0.581,-1.302 1.297,-1.302Zm-33.149,0.097c-0.075,0.001 -0.163,0.034 -0.259,0.12c-0.145,0.013 -0.46,0.556 -1.251,1.476c-1.374,1.599 -1.522,1.614 -1.522,1.614c-1.464,-0.481 -2.443,-0.221 -3.408,0.391c0,0 -1.099,-0.209 -2.617,-1.482c-0.692,-0.581 -1.065,-0.707 -1.185,-0.395c-0.129,0.332 0.185,0.659 1.513,1.565c1.838,1.255 1.724,1.159 1.724,1.159c-0.114,1.103 0.064,1.999 0.48,2.834c0,0 -0.324,0.783 -1.629,2.498c-0.368,0.485 -0.671,1.012 -0.671,1.17c0,0.667 0.577,0.219 1.911,-1.472c0.522,-0.663 1.239,-1.612 1.239,-1.612c1.567,0.544 2.115,0.213 3.097,-0.137c0,0 0.337,0.251 1.191,0.935c1.563,1.25 1.901,1.383 2.093,1.225c0.259,-0.214 0.224,-0.284 -0.367,-0.713c-1.762,-1.281 -2.369,-2.022 -2.369,-2.022c0.359,-1.401 -0.033,-2.56 -0.418,-3.291c0,0 0.028,-0.179 1.023,-1.294c0.731,-0.819 1.731,-2.112 1.668,-2.298c0.017,-0.116 -0.081,-0.273 -0.243,-0.271Zm36.076,0.283l4.582,1.429l-1.012,4.782l-4.883,-1.581l1.313,-4.63Zm33.161,1.174l1.278,4.665l-4.768,1.271l-0.78,-4.952l4.27,-0.984Zm3.347,0.077c0.716,0 1.297,0.583 1.297,1.302c0,0.719 -0.581,1.302 -1.297,1.302c-0.717,0 -1.297,-0.583 -1.297,-1.302c0,-0.719 0.58,-1.302 1.297,-1.302Zm10.836,0.167l4.007,3.58l-4.447,2.255l-2.143,-4.665l2.583,-1.17Zm-37.786,1.034l4.656,0.551l-0.189,5.022l-5.343,-0.717l0.876,-4.856Zm-16.152,0.055l5.181,2.282l-1.869,5.239l-5.304,-2.286l1.992,-5.235Zm13.353,0.406c1.91,0.3 1.396,2.562 0,2.604c-0.716,0 -1.297,-0.582 -1.297,-1.302c0,-0.719 0.581,-1.302 1.297,-1.302Zm16.751,0.004l0.637,5.026l-4.834,0.295l-0.104,-5.108l4.301,-0.213Zm3.324,0.574c0.716,0 1.297,0.583 1.297,1.302c0,0.719 -0.581,1.302 -1.297,1.302c-0.717,0 -1.298,-0.583 -1.298,-1.302c0,-0.719 0.581,-1.302 1.298,-1.302Zm-67.288,0.471c0.74,0 1.34,0.599 1.34,1.341c0,0.742 -0.6,1.345 -1.34,1.345c-0.738,0 -1.335,-0.603 -1.335,-1.345c0,-0.742 0.597,-1.341 1.335,-1.341Zm57.235,-0.049c0.716,0 1.297,0.583 1.297,1.302c0,0.719 -0.581,1.302 -1.297,1.302c-0.717,0 -1.297,-0.583 -1.297,-1.302c0,-0.719 0.58,-1.302 1.297,-1.302Zm22.765,0.322l1.884,5.165l-5.281,1.709l-1.494,-5.305l4.891,-1.569Zm3.706,0.139c0.716,0 1.297,0.583 1.297,1.302c0,0.719 -0.581,1.302 -1.297,1.302c-0.717,0 -1.297,-0.583 -1.297,-1.302c0,-0.719 0.58,-1.302 1.297,-1.302Zm9.13,1.465l3.413,2.422l-1.691,0.945c-0.443,-1.064 -1.226,-2.327 -1.722,-3.367Zm-48.781,0.469l5.038,1.097l-0.768,5.297l-5.497,-1.101l1.227,-5.293Zm-14.982,0.291l2.675,1.263l-1.764,4.413l-4.328,-2.313l3.417,-3.363Zm11.96,0.286c0.716,0 1.297,0.583 1.297,1.302c0,0.719 -0.581,1.302 -1.297,1.302c-0.717,0 -1.298,-0.583 -1.298,-1.302c0,-0.719 0.581,-1.302 1.298,-1.302Zm29.096,0.291l0.899,5.297l-5.682,0.802l-0.352,-5.402l5.135,-0.697Zm21.275,0.101c0.716,0 1.297,0.583 1.297,1.302c0,0.719 -0.581,1.302 -1.297,1.302c-0.717,0 -1.297,-0.583 -1.297,-1.302c0,-0.719 0.58,-1.302 1.297,-1.302Zm-4.031,0.038l1.88,4.67l-5.559,2.332l-1.644,-4.673l5.323,-2.329Zm-14.175,0.338c0.716,0 1.297,0.582 1.297,1.301c0,0.72 -0.581,1.302 -1.297,1.302c-0.717,0 -1.297,-0.582 -1.297,-1.302c0,-0.719 0.58,-1.301 1.297,-1.301Zm-18.773,0.53l5.319,0.097l-0.061,5.355l-5.826,-0.162l0.568,-5.29Zm42.546,0.372l2.092,1.457c-21.534,13.899 -51.784,15.622 -75.391,1.942c0,0 0.965,-0.965 1.513,-1.531c21.281,12.784 52.35,10.99 71.786,-1.868Zm-45.43,0.605c0.716,0 1.297,0.583 1.297,1.302c0,0.719 -0.581,1.302 -1.297,1.302c-0.717,0 -1.297,-0.583 -1.297,-1.302c0,-0.719 0.58,-1.302 1.297,-1.302Zm10.921,0.294c0.716,0 1.297,0.583 1.297,1.302c0,0.719 -0.581,1.302 -1.297,1.302c-0.716,0 -1.297,-0.583 -1.297,-1.302c0,-0.719 0.581,-1.302 1.297,-1.302Zm-25.336,0.717l5.555,1.612l-0.946,4.402l-6.092,-1.759l1.483,-4.255Zm-3.675,0.031c0.716,0 1.297,0.583 1.297,1.302c0,0.719 -0.581,1.302 -1.297,1.302c-0.717,0 -1.297,-0.583 -1.297,-1.302c0,-0.719 0.58,-1.302 1.297,-1.302Zm43.148,0.938l1.328,4.941l-6.142,1.317l-0.741,-4.859l5.555,-1.399Zm3.528,0.717c0.717,0 1.297,0.583 1.297,1.302c0,0.719 -0.58,1.302 -1.297,1.302c-0.716,0 -1.297,-0.583 -1.297,-1.302c0,-0.719 0.581,-1.302 1.297,-1.302Zm-80.239,0.767l-0.012,3.464c-1.019,-0.843 -2.169,-1.74 -3.347,-2.646c1.201,0.064 2.318,-0.269 3.359,-0.818l0,0Zm-12.651,0.085c0.281,-0.002 0.937,0.228 1.718,0.225c2.501,-0.008 7.173,0.775 8.555,1.914c0.46,0.379 1.15,0.715 1.525,1.326c0,0.291 -0.412,0.298 -1.016,-0.078c-1.157,-0.722 -3.084,-1.365 -5.663,-1.724c-0.466,-0.065 -0.524,-0.046 -0.525,0.174c0,0.272 0.43,0.431 1.788,0.655c1.757,0.289 2.131,0.463 2.52,0.57c1.044,0.286 0.377,0.67 -0.697,0.773c-4.385,0.412 -7.668,-1.482 -8.328,-3.645c-0.054,-0.142 0,-0.188 0.123,-0.19l0,0Zm61.084,0.078l5.517,0.717l-0.251,4.634l-6.038,-0.693l0.772,-4.658Zm-46.912,0.403c0.964,0.759 0.301,3.061 -0.224,3.739c-0.34,0.381 -1.135,0.179 -1.131,-0.356c0.12,-0.481 -0.05,-2.771 0.054,-3.48c0.384,-0.22 0.95,-0.158 1.301,0.097l0,0Zm63.929,0.205l0.286,4.778l-6.019,0.275l0.046,-4.692l5.687,-0.361Zm-20.306,0.322c0.716,0 1.297,0.583 1.297,1.302c0,0.719 -0.581,1.302 -1.297,1.302c-0.716,0 -1.297,-0.583 -1.297,-1.302c0,-0.719 0.581,-1.302 1.297,-1.302Zm-33.536,0.066c0.223,3.506 -5.142,5.885 -7.149,4.809c-0.889,-0.477 -0.519,-0.771 1.243,-1.128c2.28,-0.606 3.782,-1.196 3.783,-1.624c0,-0.262 -0.344,-0.23 -1.274,0.117c-1.431,0.482 -2.919,0.689 -4.285,1.305c-1.021,0.466 -1.419,0.629 -1.648,0.349c-0.482,-0.587 1.788,-2.067 4.142,-2.46c1.766,-0.296 3.547,-1.241 5.188,-1.368Zm57.162,0.438c0.716,0 1.297,0.582 1.297,1.302c0,0.719 -0.581,1.302 -1.297,1.302c-0.717,0 -1.297,-0.583 -1.297,-1.302c0,-0.72 0.58,-1.302 1.297,-1.302Zm-12.064,0.953c0.717,0 1.297,0.583 1.297,1.302c0,0.719 -0.58,1.302 -1.297,1.302c-0.716,0 -1.297,-0.583 -1.297,-1.302c0,-0.719 0.581,-1.302 1.297,-1.302Zm28.903,2.212c8.682,8.298 18.197,17.85 26.047,25.707c-0.011,4.111 -0.035,12.334 -0.035,12.334l-29.972,28.593c-5.428,-3.326 -10.022,-7.483 -14.253,-14.868c0.477,-0.413 0.897,-0.676 1.259,-1.128l-1.564,0.938c-5.529,-8.876 -7.874,-26.561 1.517,-40.737l-9.489,0.348l1.548,-3.243l10.331,-0.566l4.177,-4.498c0,0 1.324,-0.246 2.42,-0.5c1.088,-0.252 3.309,-0.89 4.938,-1.419c1.628,-0.528 3.014,-0.961 3.077,-0.961l-0.001,0Zm-70.071,2.298c0,0 8.921,4.867 13.875,14.613c-16.012,13.825 -22.048,29.925 -23.41,46.681c-8.715,-8.182 -13.119,-12.708 -20.993,-20.653l0.285,-11.858l30.243,-28.783Zm33.679,1.546c-2.308,4.953 -4.294,10.38 -6.073,16.194l-2.482,-0.736c0,0 1.606,-0.674 2.32,-1.101l-1.289,-2.085l2.443,-1.007l-1.443,-1.767l2.478,-1.442l-1.239,-1.561l2.27,-1.139l-1.409,-1.628l2.382,-1.333l-1.243,-1.558l3.285,-0.837Zm0.76,0.012c0,0 0.32,0.061 0.695,0.136c0.09,-0.035 -0.447,1.298 -0.39,1.344c0.867,0.179 0.918,0.131 1.178,0.209l0.66,-1.371l1.085,0.205c-2.189,4.957 -4.529,10.381 -5.872,16.252l-1.278,-0.268c0,0 0.373,-1.238 0.375,-1.402c-0.15,-0.032 -0.87,-0.336 -1.093,-0.427c-0.077,0.194 -0.533,1.628 -0.533,1.628l-1.011,-0.027c1.655,-6.41 4.541,-13.519 6.184,-16.279l0,0Zm4.158,0.19c0,0 2.266,1.883 2.266,1.883l-2.571,1.004l1.332,1.778l-2.726,0.988l1.564,1.849l-2.699,1l1.61,2.235l-2.806,0.95l1.772,1.964l-2.533,1.19l1.517,1.507c0,0 -1.58,0.523 -1.671,0.547c-0.254,0.065 -1.317,-0.198 -1.317,-0.198c1.601,-5.721 3.579,-11.519 6.262,-16.697Zm-55.131,0.953c-0.626,0.408 -0.269,1.295 -1.054,2.054c-0.125,0.136 -0.136,0.448 -0.185,0.721c-0.038,0.206 -0.658,2.682 -0.658,2.682c0,0 0.157,-0.189 0.405,-0.979c0.212,-0.674 0.396,-1.952 0.511,-2.166c0.579,-0.177 0.666,-2.072 1.253,-1.812c0.339,0.15 0.274,0.459 0.083,1.186c-0.418,1.452 -0.582,2.063 0.135,1.073c1.071,-1.294 1.175,-2.461 -0.031,-2.709c-0.127,-0.024 -0.386,-0.047 -0.459,-0.05l0,0Zm16.191,0.539l-28.008,26.396l-0.085,9.85l9.748,9.916l6.918,6.731c2.511,-15.074 8.272,-29.455 22.456,-41.9c-2.173,-3.508 -5.896,-7.926 -11.029,-10.993l0,0Zm75.495,0.271c-16.457,7.763 -20.241,23.685 -15.145,38.099c7.842,-10.124 13.997,-19.636 15.145,-38.099Zm-58.571,0.806l7.474,2.414l-2.815,9.633l-6.728,-2.05l-0.687,-1.705l2.756,-8.292Zm57.745,0.252c-0.716,12.882 -5.555,25.463 -13.975,35.336c-4.258,-10.543 -1.697,-27.399 13.975,-35.336Zm-40.253,0.07l-0.471,1.197l1.034,0.294l0.44,-1.216l-1.003,-0.275Zm-1.035,2.828l-0.425,1.217l1.062,0.36l0.398,-1.236l-1.035,-0.341Zm44.086,0.221c-2.303,17.869 -11.921,34.13 -22.081,42.415c3.237,5.272 7.045,8.663 10.913,11.494l28.621,-27.52l-0.112,-9.18l-17.341,-17.209Zm-75.634,4.743c-0.175,0.653 -0.238,0.986 -0.238,0.986c0,0 0.33,-0.306 1.2,-0.784c5.624,-2.816 3.809,1.466 1.159,3.05c-0.592,0.316 -1.201,0.692 -1.201,0.692c0,0 0.563,0.128 1.173,0.241c3.413,0.712 2.686,2.716 -0.873,2.404c-0.526,-0.046 -1.145,-0.146 -1.145,-0.116c0,0.029 0.213,0.782 0.46,1.405c1.2,3.033 -1.039,3.269 -2.511,1.341c-0.205,-0.269 -0.67,-1.01 -0.67,-1.01c0,0 -0.145,0.561 -0.234,1.103c-1.272,4.754 -4.41,4.634 -3.238,-0.19c0.146,-0.499 0.325,-1.391 0.325,-1.391c0,0 -0.706,0.428 -1.474,0.772c-4.064,1.822 -4.724,-0.053 -1.032,-2.794c1.051,-0.78 1.407,-1.086 1.407,-1.086c-0.654,-0.05 -1.257,-0.151 -1.79,-0.285c-2.945,-0.742 -3.73,-2.509 0.989,-2.427c0.697,0.015 1.407,0.061 1.407,0.061c0,0 -0.232,-1.016 -0.478,-1.781c-1.139,-3.545 1.156,-3.967 3.091,-0.791c0.412,0.675 0.53,0.679 0.53,0.679c-0.06,0.003 0.122,-1.209 0.591,-2.329c2.343,-4.357 3.26,-0.38 2.552,2.25l0,0Zm50.619,-3.526c-1.966,3.486 -3.68,6.953 -4.498,10.567l-7.647,-0.132c0.529,-3.205 1.88,-6.538 3.493,-10.063c3.113,-0.085 5.921,-0.223 8.652,-0.372Zm-20.191,1.546l-0.44,1.283l1.108,0.341l0.402,-1.248l-1.07,-0.376Zm-57.188,2.406c-0.82,2.137 -1.094,4.517 -1.548,6.425c-0.192,1.106 0,1.566 0.664,1.814c0.939,0.351 2.295,-0.128 3.053,-1.217c0.428,-0.615 0.738,-1.883 0.803,-4.123l0.074,-1.996c-1.163,-0.217 -1.956,-0.529 -3.046,-0.903Zm56.154,0.279l-0.367,1.178l1.069,0.399l0.41,-1.189l-1.112,-0.388Zm49.529,0.442c1.301,0.032 1.543,0.149 2.722,0.849l2.274,2.348c-0.596,0.573 -0.969,1.377 -0.969,2.271c0,1.737 1.404,3.146 3.135,3.146c0.857,0 2.2,-0.907 2.2,-0.907l3.604,3.747c-2.101,0.923 -4.158,-1.202 -4.932,-2.043c-0.181,-0.197 -0.228,-0.332 -0.228,-0.332c0,0 0.032,0.103 -0.043,0.519c-0.302,1.668 -1.941,6.59 -3.508,6.328c-1.765,-0.295 0.032,-7.332 0.051,-7.17c-1.214,1.288 -7.127,2.659 -6.713,1.221c0.823,-2.856 5.246,-3.957 5.828,-4.453c-2.352,-1.42 -5.333,-5.358 -3.421,-5.524l0,0Zm-105.398,0.093c0.749,0.052 1.263,0.143 1.772,0.357c0.237,0.063 0.248,0.262 0.274,0.449c0.008,0.844 0.216,3.319 -0.563,3.344c-0.865,-0.018 -1.677,0.168 -2.247,0.605c-0.458,0.351 -0.61,0.097 -0.486,-0.802c0.119,-0.872 0.551,-2.704 0.737,-3.445c0.029,-0.306 0.272,-0.522 0.513,-0.508Zm23.368,0.031c-1.731,0 -3.135,1.409 -3.135,3.147c0,1.737 1.404,3.146 3.135,3.146c1.73,0 3.134,-1.409 3.134,-3.146c0,-1.738 -1.404,-3.147 -3.134,-3.147Zm0,1.101c1.125,0 2.038,0.916 2.038,2.046c0,1.129 -0.913,2.042 -2.038,2.042c-1.125,0 -2.039,-0.913 -2.039,-2.042c0,-1.13 0.914,-2.046 2.039,-2.046Zm16.174,0.038c7.185,12.449 6.352,29.536 -2.118,41.966l9.106,-0.639l-1.196,2.34l-9.709,0.95c-1.484,1.362 -2.834,2.921 -4.293,4.378l-0.015,0.516c-3.329,0.775 -6.66,1.668 -10.053,2.896c-1.791,-1.765 -5.159,-5.294 -5.137,-5.383l0.216,-1.142c23.091,-11.825 16.336,-35.539 14.71,-37.489c2.477,-2.985 5.434,-5.795 8.489,-8.393l0,0Zm64.084,2.263c0.936,0 1.691,0.763 1.691,1.701c0,0.939 -0.755,1.702 -1.691,1.702c-0.935,0 -1.694,-0.763 -1.694,-1.702c0,-0.938 0.759,-1.701 1.694,-1.701Zm7.528,0.458l2.838,2.933c-0.369,0.365 -0.874,0.593 -1.432,0.593c-1.125,0 -2.039,-0.913 -2.039,-2.042c0,-0.583 0.244,-1.112 0.633,-1.484Zm-97.457,0.364c0.935,0 1.691,0.758 1.691,1.697c0,0.939 -0.756,1.701 -1.691,1.701c-0.935,0 -1.694,-0.762 -1.694,-1.701c0,-0.939 0.759,-1.697 1.694,-1.697Zm-12.6,0.713c0.793,0.266 0.608,1.01 -0.417,1.664c-0.663,0.423 -1.27,0.517 -1.853,0.204c-1.105,-0.594 1.188,-2.256 2.27,-1.868Zm13.091,4.161l-10.204,9.909c0.642,-1.647 0.666,-3.288 0.715,-4.933c3.07,0.318 4.355,-1.246 3.906,-4.464c1.983,0.119 4.039,-0.091 5.583,-0.512Zm16.349,1.132c4.731,13.54 0.622,27.87 -14.176,36.169c0.609,-12.975 6.035,-25.38 14.176,-36.169Zm13.476,1.186c8.121,2.133 17.365,3.128 26.962,3.135c0.072,3.665 0.247,7.542 0.996,11.283c-8.176,-2.146 -17.307,-3.144 -27.282,-2.968c0.414,-3.874 -0.249,-8.269 -0.676,-11.45Zm60.216,2.003l-8.648,10.149l0.363,-5.542c2.913,0.373 3.95,-1.169 3.521,-4.216c1.589,0.198 3.175,-0.082 4.764,-0.391Zm-84.027,0.562l-0.683,4.053c-1.726,0.047 -3.42,0.662 -3.397,4.53l-5.158,-0.062l9.238,-8.521Zm95.168,0.748c0.935,0 1.691,0.762 1.691,1.701c0,0.939 -0.756,1.701 -1.691,1.701c-0.935,0 -1.695,-0.762 -1.695,-1.701c0,-0.939 0.76,-1.701 1.695,-1.701Zm-103.012,0.515c0.935,0 1.694,0.763 1.694,1.701c0,0.939 -0.759,1.697 -1.694,1.697c-0.936,0 -1.695,-0.758 -1.695,-1.697c0,-0.938 0.759,-1.701 1.695,-1.701Zm99.233,1.744l-0.904,6.138c-2.356,-0.208 -4.322,0.156 -3.717,4.317c-1.994,-0.196 -4.762,0.277 -6.617,0.437l11.238,-10.892Zm-8.443,1.112c0.935,0 1.694,0.762 1.694,1.701c0,0.939 -0.759,1.697 -1.694,1.697c-0.935,0 -1.695,-0.758 -1.695,-1.697c0,-0.939 0.76,-1.701 1.695,-1.701Zm-103.205,1.317c0.935,0 1.694,0.763 1.694,1.702c0,0.938 -0.759,1.697 -1.694,1.697c-0.936,0 -1.691,-0.759 -1.691,-1.697c0,-0.939 0.755,-1.702 1.691,-1.702Zm5.616,2.012c2.163,0.487 1.163,5.548 0.676,6.924c-0.037,0.037 6.035,-3.193 6.397,-1.767c0.237,2.859 -5.026,4.852 -5.026,4.852c0,0 3.547,3.093 3.648,5.037c0.008,1.258 -1.484,1.025 -3.421,-0.57c-0.828,-0.816 -1.468,-1.428 -2.038,-1.995c0.665,-0.577 1.085,-1.432 1.085,-2.383c0,-1.737 -1.404,-3.147 -3.135,-3.147c-0.956,0 -1.811,0.431 -2.386,1.108c-0.449,-0.434 -0.957,-0.94 -1.64,-1.588c-1.119,-1.05 -1.905,-1.885 -1.792,-2.263c1.477,-1.044 4.413,1.76 4.675,2.015c-0.22,-0.547 1.404,-5.933 2.957,-6.223Zm-2.957,6.223c0.012,0.029 0.028,0.046 0.051,0.046c0,0 -0.039,-0.034 -0.051,-0.046Zm92.211,-2.271c1.029,-0.014 0.965,2.336 0.598,3.557c-0.25,0.931 -0.498,1.694 -0.498,1.694c0,0 0.868,-0.68 1.251,-0.861c2.8,-1.316 3.844,0.175 2.432,1.903c-0.678,0.889 -1.603,1.086 -2.355,1.833c1.071,0.049 2.3,0.287 3.224,0.833c0.719,0.431 1.283,0.954 1.282,1.279c0,0.726 -1.781,1.118 -3.444,0.93c-0.707,0.015 -2.038,-0.365 -2.038,-0.365c0,0 0.551,0.932 0.753,1.488c0.62,1.73 0.403,3.755 -0.495,3.751c-1.501,-0.403 -2.234,-2.078 -2.822,-3.282c-0.482,1.342 -0.949,2.777 -2.022,3.774c-1.065,0.989 -1.611,0.168 -1.556,-1.507c0.021,-0.666 0.509,-2.654 0.509,-2.654c-6.307,2.137 -5.838,-0.754 -0.916,-3.287c-3.032,-1.451 -4.874,-2.757 0.283,-3.053c-0.136,-0.124 -1.037,-2.896 -0.073,-3.545c0.895,-0.604 2.804,1.469 2.895,1.569c-0.038,-0.205 0.503,-1.828 1.409,-2.949c0.695,-0.789 1.211,-1.103 1.583,-1.108Zm-5.814,6.033c0.008,0.006 0.013,0.007 0.015,0c0,0 -0.014,0 -0.015,0Zm27.611,-1.831c-1.099,0.101 -1.782,1.079 -2.29,1.932c-0.103,0.173 -0.293,0.234 -0.364,0.463c-0.455,1.471 -0.852,3.233 -1.096,5.426c0.696,0.287 2.266,0.772 2.96,0.511c0.196,-0.082 0.135,-0.589 0.201,-0.756c1.095,-2.767 1.636,-4.836 1.636,-6.108c0,-1.025 -0.351,-1.531 -1.047,-1.468Zm-112.857,-0.126c1.125,0 2.038,0.917 2.038,2.046c0,0.65 -0.302,1.227 -0.772,1.601c-1.313,-1.314 -1.985,-2.002 -2.864,-2.868c0.373,-0.474 0.949,-0.779 1.598,-0.779Zm113.245,0.975c0.275,0.671 -0.609,1.399 -1.755,1.395c-0.681,-0.002 -0.903,0.094 -0.6,-0.499c0.361,-0.721 1.828,-2.181 2.355,-0.896Zm-15.367,-0.475c0.935,0 1.694,0.763 1.694,1.701c0,0.939 -0.759,1.698 -1.694,1.698c-0.936,0 -1.695,-0.759 -1.695,-1.698c0,-0.938 0.759,-1.701 1.695,-1.701Zm-89.335,0.12c0.935,0 1.695,0.759 1.695,1.698c0,0.938 -0.76,1.701 -1.695,1.701c-0.935,0 -1.691,-0.763 -1.691,-1.701c0,-0.939 0.756,-1.698 1.691,-1.698Zm80.12,0.69c-1.731,0 -3.135,1.41 -3.135,3.147c0,1.737 1.404,3.146 3.135,3.146c1.73,0 3.134,-1.409 3.134,-3.146c0,-1.737 -1.404,-3.147 -3.134,-3.147Zm-41.894,0.423c-0.824,3.625 -2.092,7.091 -3.694,10.52c-3.022,0.183 -6.289,0.325 -8.443,0.632c3.588,-6.308 3.675,-7.791 5.003,-11.133l7.134,-0.019Zm5.192,0.511c0.849,0.101 1.779,0.23 2.618,0.391c-1.543,5.45 -3.582,11.045 -6.216,16.43l-1.594,-0.248l-0.757,-0.937l2.533,-1.016l-1.973,-2.022l3.27,-0.992l-2.011,-1.992l3.231,-0.81l-1.73,-2.108l2.9,-1.135l-1.842,-2.387l3.089,-0.853l-1.518,-2.321Zm36.702,0.167c1.125,0 2.038,0.917 2.038,2.046c0,1.129 -0.913,2.042 -2.038,2.042c-1.125,0 -2.039,-0.913 -2.039,-2.042c0,-1.129 0.914,-2.046 2.039,-2.046Zm-33.505,0.31l1.077,0.174l-0.332,1.159l1.228,0.263l0.397,-1.251c0,0 0.987,0.091 1.093,0.17c-1.286,5.261 -5.833,16.271 -5.891,16.213l-1.17,-0.174l0.309,-1.113l-1.089,-0.155l0,-0.011l-0.525,1.209l-1.162,-0.097c2.815,-6.449 4.732,-11.399 6.065,-16.387l0,0Zm57.219,0.418c0.864,-0.004 0.811,0.443 0.186,2.077c-0.588,1.536 -0.808,2.151 -1.094,2.349c-0.68,0.485 -2.146,0.079 -2.027,-0.628c0.386,-2.294 0.523,-3.272 1.112,-3.584c0.615,-0.121 1.214,-0.211 1.823,-0.214Zm-52.888,0.19l2.811,0.546l-2.351,1.403l1.494,1.752l-2.888,1.236l1.753,1.821l-2.788,1.143l1.695,2.003l-2.891,1.225l1.969,1.713l-3.251,1.03l1.232,1.899l-1.224,0.686l-1.51,-0.236c2.506,-5.867 4.116,-10.693 5.949,-16.221Zm6.907,1.403l5.505,1.503l1.1,1.973l-2.583,8.753l-7.335,-2.162l3.313,-10.067Zm-10.941,0.845l-0.525,1.437l1.212,0.252l0.467,-1.48l-1.154,-0.209Zm-1.065,3.301l-0.525,1.438l1.138,0.224l0.537,-1.453l-1.15,-0.209Zm-1.074,2.902l-0.536,1.43l1.108,0.229l0.529,-1.434l-1.101,-0.225Zm51.721,2.631c0,0.001 -0.562,0.409 -0.71,0.59c0.123,0.329 0.478,0.833 0.425,1.164c-0.049,0.249 -0.325,0.449 -0.74,0.893c-1.036,1.211 -1.401,1.079 -0.799,-0.213c0.198,-0.406 0.285,-0.783 0.285,-0.783c-0.239,0.337 -0.42,0.736 -0.582,1.053c-0.342,0.66 -0.661,1.285 -0.661,1.285c0.66,0.228 1.099,0.721 1.525,1.04c0,0 0.217,-0.586 0.367,-1.146c0.209,-0.781 0.621,-1.103 1.127,-1.372c0.319,-0.169 0.624,-0.478 0.624,-0.478c-0.557,-0.57 -0.621,-1.385 -0.861,-2.033Zm-52.867,0.353l-0.568,1.523l1.104,0.271l0.614,-1.554l-1.15,-0.24Zm-62.285,3.829c-0.1,6.064 0.1,10.056 -0.112,16.596l16.357,21.277l-2.552,0.861c0,0 -0.028,0.295 -0.166,0.333c-3.495,0.965 -9.164,1.926 -9.164,1.926c4.216,9.664 6.951,21.749 5.065,33.82l42.333,-0.112l-51.761,-74.701Zm89.532,10.276l-1.459,1.469c-21.53,-11.696 -51.182,-11.65 -72.82,2.511l-1.764,-1.299c23.617,-15.187 52.671,-15.092 76.043,-2.681Zm-88.74,-8.149l49.827,71.845l-5.853,0.086l-43.932,-57.687l-0.042,-14.244Zm106.93,1.298c0,0 -1.439,0.375 -2.648,0.763c-3.462,1.113 -5.082,3.123 -4.764,5.914c0.094,0.824 0.307,0.812 1.718,-0.082c3.302,-2.092 3.508,-2.184 7.621,-3.394c0.318,-0.094 0.78,-0.024 0.78,-0.024l-0.182,3.259c-6.855,-0.026 -6.481,5.44 -4.509,8.281c-0.69,1.314 -2.2,5.901 2.772,7.645c2.48,0.496 5.107,-1.527 5.026,-1.631c4.575,2.172 9.885,-1.469 5.745,-7.777c1.556,-2.751 0.459,-4.793 -1.027,-6.549c0,0 0.251,0.022 2.416,0.423c3.285,0.608 4.54,0.5 4.54,0.5c0.008,-2.968 -2.444,-4.294 -7.551,-4.697c-3.617,0.512 -9.937,-2.657 -9.937,-2.631Zm-55.158,0.345c0.248,-0.002 0.492,-0.002 0.738,0.004l-0.24,5.068l-5.563,0.256l-0.363,-5.049c1.916,-0.133 3.697,-0.273 5.428,-0.279l0,0Zm6.667,0.124l5.969,0.728l-0.904,4.739l-5.497,-0.592l0.432,-4.875Zm48.384,0.058c0.494,0.057 0.336,0.63 -0.34,0.763c-1.073,0.211 -3.825,1.819 -3.826,2.236c0,0.269 0.135,0.231 1.143,-0.31c0.503,-0.27 1.554,-0.73 2.331,-1.027c0.778,-0.296 1.667,-0.654 1.977,-0.794c0.925,-0.419 1.383,-0.129 1.05,0.663c-0.22,0.523 -0.308,0.564 -2.452,1.247c-1.94,0.618 -2.296,0.778 -3.528,1.57c-0.46,0.295 -1.274,0.767 -1.811,1.046c-1.267,0.659 -1.524,0.661 -1.521,-0.225c-0.069,-2.625 2.824,-4.595 6.745,-5.161c0.102,-0.024 0.234,-0.011 0.232,-0.007l0,-0.001Zm-51.63,0.612c0.746,0 1.351,0.608 1.351,1.357c0,0.749 -0.605,1.356 -1.351,1.356c-0.747,0 -1.352,-0.607 -1.352,-1.356c0,-0.749 0.605,-1.357 1.352,-1.357Zm-14.767,0.361l0.444,4.599l-5.47,1.411l-1.251,-4.751c2.093,-0.515 4.185,-0.876 6.277,-1.259Zm70.469,0.348c1.5,0.229 1.381,3.677 0.614,4.274c-1.18,0.854 -1.905,-0.931 -1.378,-3.297c0.148,-0.712 0.421,-0.96 0.764,-0.977Zm-67.365,0.186c0.746,0 1.351,0.608 1.351,1.357c0,0.749 -0.605,1.356 -1.351,1.356c-0.746,0 -1.351,-0.607 -1.351,-1.356c0,-0.749 0.605,-1.357 1.351,-1.357Zm26.722,0.396l6.185,1.693l-1.514,4.805l-5.802,-1.639l1.131,-4.859Zm-3.366,0.093c0.746,0 1.351,0.607 1.351,1.356c0,0.749 -0.605,1.356 -1.351,1.356c-0.746,0 -1.351,-0.607 -1.351,-1.356c0,-0.749 0.605,-1.356 1.351,-1.356Zm50.591,0.403c2.664,0.028 6.178,1.369 6.185,3.437c-0.055,0.587 -5.582,-0.193 -8.134,-1.225c-0.906,-0.366 -2.01,-1.48 -2.008,-1.945c0,-0.277 0.541,-0.257 0.761,0.012c0.359,0.438 1.631,0.896 4.555,1.635c2.246,0.568 2.469,0.59 2.471,0.248c0,-0.311 -1.326,-0.741 -2.764,-0.98c-0.723,-0.119 -1.398,-0.338 -2.51,-0.434c-0.518,-0.002 -0.644,-0.329 -0.212,-0.551c0.471,-0.14 1.041,-0.204 1.656,-0.197l0,0Zm-4.706,1.069c0.672,0.317 0.915,0.947 1.286,1.279c-0.461,0.219 -0.667,0.44 -1.413,0.496c0.013,-0.495 -0.121,-1.086 0.127,-1.775Zm-80.988,0.372c0.746,0 1.351,0.607 1.351,1.356c0,0.749 -0.605,1.357 -1.351,1.357c-0.746,0 -1.351,-0.608 -1.351,-1.357c0,-0.749 0.605,-1.356 1.351,-1.356Zm-3.637,0.384l1.46,4.696l-5.227,2.283l-1.854,-4.654c1.807,-0.954 3.784,-1.647 5.621,-2.325Zm24.171,0.767c0,0 4.164,0.006 5.601,0.023l-0.336,5.301l-5.196,0.039l-0.069,-5.363Zm-5.563,0.291l0.289,5.293l-5.003,0.674l-0.988,-5.324l5.702,-0.643Zm31.632,0.046c0.746,0 1.351,0.607 1.351,1.356c0,0.749 -0.605,1.357 -1.351,1.357c-0.746,0 -1.351,-0.608 -1.351,-1.357c0,-0.749 0.605,-1.356 1.351,-1.356Zm36.2,0.124c3.046,0.013 5.951,3.531 2.941,7.215c4.938,3.813 -0.43,10.222 -4.794,6.487c-6.241,6.152 -9.729,-2.202 -7.146,-4.418c-3.814,-6.29 0.872,-10.265 5.706,-7.49c0.89,-1.267 2.101,-1.799 3.293,-1.794Zm-50.993,0.151l5.489,1.225l-1.104,5.235l-5.362,-1.093l0.977,-5.367Zm18.167,0.128l5.019,2.503l-3.892,3.759l-2.891,-1.445l1.764,-4.817Zm-32.177,0.593c0.747,0 1.352,0.607 1.352,1.356c0,0.749 -0.605,1.356 -1.352,1.356c-0.746,0 -1.351,-0.607 -1.351,-1.356c0,-0.749 0.605,-1.356 1.351,-1.356Zm10.844,0.17c0.747,0 1.352,0.608 1.352,1.357c0,0.749 -0.605,1.356 -1.352,1.356c-1.988,-0.313 -1.453,-2.668 0,-2.713Zm-24.996,0.764l1.224,5.235l-5.084,1.724l-1.819,-5.099l5.679,-1.86Zm3.494,0.372c0.746,0 1.351,0.607 1.351,1.356c0,0.749 -0.605,1.356 -1.351,1.356c-0.747,0 -1.351,-0.607 -1.351,-1.356c0,-0.749 0.604,-1.356 1.351,-1.356Zm75.259,2.414c-0.382,0.477 -0.885,1.039 -0.885,1.039c-1.265,-0.524 -2.491,-0.315 -3.311,0.25c0,0 -0.872,-0.697 -1.668,-1.343c-1.38,-1.119 -1.84,-1.375 -1.841,-0.907c0,0.097 0.468,0.576 1.038,1.066c1.556,1.336 1.874,1.817 1.874,1.817c-0.374,1.213 -0.37,2.163 0.344,3.182c0,0 0.03,0.133 -0.516,0.711c-0.992,1.05 -2.014,2.67 -1.778,2.908c0.292,0.296 1.12,-0.413 2.16,-1.823c0.741,-1.004 0.963,-1.026 0.963,-1.026c1.264,0.342 1.964,0.652 3.227,-0.395c0,0 0.477,0.145 1.429,0.934c1.483,1.229 2.016,1.494 2.177,1.077c0.131,-0.34 -0.064,-0.567 -1.32,-1.527c-0.818,-0.624 -1.728,-1.356 -1.728,-1.356c0.267,-0.441 0.457,-2.006 -0.458,-3.077c0,0 0.036,0.071 1.388,-1.689c0.901,-1.17 1.056,-1.318 0.758,-1.569c-0.397,-0.523 -1.719,1.561 -1.853,1.728Zm-39.21,-1.5l4.953,2.089l-1.772,5.196l-4.784,-1.961l1.603,-5.324Zm-54.498,0.349c0.746,0 1.351,0.607 1.351,1.356c0,0.749 -0.605,1.356 -1.351,1.356c-0.746,0 -1.352,-0.607 -1.352,-1.356c0,-0.749 0.605,-1.356 1.352,-1.356Zm50.668,0.14c0.746,0 1.351,0.607 1.351,1.356c0,0.749 -0.605,1.356 -1.351,1.356c-0.746,0 -1.351,-0.607 -1.351,-1.356c0,-0.749 0.605,-1.356 1.351,-1.356Zm-54.127,0.372l1.621,4.029l-3.687,-2.759l2.066,-1.27Zm40.646,1.038l4.934,0.585l-0.78,4.72l-4.254,-0.388l0.1,-4.917Zm-5.385,0.012l-0.05,4.851l-4.687,0.202l-0.397,-4.844l5.134,-0.209Zm-24.112,0.883c0.746,0 1.351,0.607 1.351,1.356c0,0.75 -0.605,1.357 -1.351,1.357c-0.747,0 -1.352,-0.607 -1.352,-1.357c0,-0.749 0.605,-1.356 1.352,-1.356Zm-3.737,0.097l1.907,4.875l-2.957,1.433l-3.965,-3.766l5.015,-2.542Zm17.638,0.062l0.764,4.638l-4.887,1.213l-1.185,-4.72l5.308,-1.131Zm69.855,0.046c1.064,0 1.926,0.866 1.926,1.934c0,1.068 -0.862,1.934 -1.926,1.934c-1.064,0 -1.926,-0.866 -1.926,-1.934c0,-1.068 0.862,-1.934 1.926,-1.934Zm-57.185,0.148c0.746,0 1.351,0.607 1.351,1.356c0,0.749 -0.605,1.356 -1.351,1.356c-0.746,0 -1.351,-0.607 -1.351,-1.356c0,-0.749 0.605,-1.356 1.351,-1.356Zm13.311,0.5l5.212,1.693l-1.753,4.189l-4.501,-1.225l1.042,-4.657Zm-23.097,0.174c0.746,0 1.351,0.607 1.351,1.356c0,0.749 -0.605,1.356 -1.351,1.356c-0.746,0 -1.351,-0.607 -1.351,-1.356c0,-0.749 0.605,-1.356 1.351,-1.356Zm19.816,0.5c0.746,0 1.351,0.607 1.351,1.356c0,0.749 -0.605,1.356 -1.351,1.356c-0.747,0 -1.352,-0.607 -1.352,-1.356c0,-0.749 0.605,-1.356 1.352,-1.356Zm-33.092,1.589l1.795,4.146l-4.903,2.127l-2.135,-4.227l5.243,-2.046Zm3.474,0.248c0.746,0 1.351,0.607 1.351,1.356c0,0.749 -0.605,1.356 -1.351,1.356c-0.746,0 -1.351,-0.607 -1.351,-1.356c0,-0.749 0.605,-1.356 1.351,-1.356Zm18.063,1.251c8.049,-0.017 15.315,1.672 21.148,4.096l-1.737,1.635c-18.919,-6.525 -31.291,-3.585 -43.979,2l-1.281,-1.589c8.968,-4.403 17.8,-6.125 25.849,-6.142Zm21.403,0.051c0.746,0 1.351,0.607 1.351,1.356c0,0.749 -0.605,1.356 -1.351,1.356c-0.747,0 -1.352,-0.607 -1.352,-1.356c0,-0.749 0.605,-1.356 1.352,-1.356Zm-49.302,2.976c1.085,0.064 1.189,2.097 0.683,1.511l-1.208,-1.403c0.196,-0.084 0.37,-0.118 0.525,-0.108Zm50.576,0.84c-0.04,1.542 -1.495,11.876 -6.405,18.98c-0.298,-3.593 -1.162,-7.89 -2.127,-10.757c0,0 5.283,-4.9 8.532,-8.223Zm-62.806,15.659l25.548,34.58l-2.683,-0.019c-0.56,-2.539 -1.372,-5.138 -2.965,-7.08c-1.293,-1.577 -2.451,-2.765 -4.771,-3.824c-1.396,-0.637 -1.576,-0.502 -1.664,-1.577c-0.421,-6.049 -5.301,-9.852 -9.037,-11.3c-0.361,-3.656 -2.005,-7.252 -6.127,-10.28l1.699,-0.5Zm-2.488,0.828c2.334,1.61 4.893,3.007 6.271,9.356c0.104,1.327 0.185,1.186 1.224,1.577c4.072,1.198 7.614,6.11 7.929,10.404c0,1.295 0.418,1.41 2.008,2.081c1.952,0.823 3.979,2.564 5.126,4.278c1.707,2.463 2.309,6.195 2.162,6.017l-1.405,0.008c-1.002,-6.326 -4.968,-8.849 -9.162,-10.031c0.327,-8.931 -6.591,-11.718 -9.007,-12.137c0.142,-6.433 -4.005,-9.087 -6.681,-11.245c0.499,-0.197 1.535,-0.308 1.535,-0.308l0,0Zm-4.133,0.887c2.09,0.686 3.674,3.609 3.513,4.954c2.757,0.349 5.653,3.023 5.017,5.809c-0.204,0.118 -0.526,0.142 -0.845,-0.178c0.739,-5.405 -7.299,-2.729 -4.087,1.181l-1.436,0.942c-1.155,-5.409 -2.577,-8.473 -4.121,-12.38c0.563,-0.149 1.959,-0.328 1.959,-0.328Zm6.656,11.332c0.714,0 1.289,0.582 1.289,1.298c0,0.717 -0.575,1.298 -1.289,1.298c-0.714,0 -1.294,-0.581 -1.294,-1.298c0,-0.716 0.58,-1.298 1.294,-1.298Zm6.9,5.834c3.069,0.871 4.063,3.99 3.962,5.124l-0.671,-0.015c-1.079,-4.941 -6.69,-2.253 -4.348,1.688c-2.999,1.112 -2.762,3.891 -1.879,4.99c1.219,1.516 4.326,1.468 5.274,-0.866c2.916,3.786 6.938,-0.462 3.389,-3.991c2.907,1.075 3.373,4.984 2.936,6.205c1.35,0.462 2.904,2.611 2.697,2.599l-21.781,0.004c0,0 1.054,-8.822 -0.066,-15.48c1.45,0.35 2.421,0.701 4.089,-1.264c2.698,2.243 4.637,0.55 4.497,-1.387c-0.207,-1.355 -0.905,-2.028 -2.061,-2.743c2.361,-0.583 4.147,3.517 3.962,5.136l0,0Zm2.43,6.215c0.736,0 1.332,0.598 1.332,1.337c0,0.738 -0.596,1.337 -1.332,1.337c-0.735,0 -1.332,-0.599 -1.332,-1.337c0,-0.739 0.597,-1.337 1.332,-1.337Z" style="fill-rule:nonzero;"/><path id="path7198-0" d="M14.065,55.891c-1.723,-2.849 -3.536,-5.618 -5.801,-7.984c2.265,-2.365 4.078,-5.135 5.801,-7.984c1.723,2.849 3.536,5.619 5.801,7.984c-2.265,2.366 -4.078,5.135 -5.801,7.984Z" style="fill:#d40000;fill-rule:nonzero;"/><path id="path7202-9" d="M163.936,209.077c-1.723,-2.849 -3.536,-5.618 -5.801,-7.984c2.265,-2.366 4.078,-5.135 5.801,-7.984c1.723,2.849 3.536,5.618 5.801,7.984c-2.265,2.366 -4.078,5.135 -5.801,7.984Z" style="fill:#d40000;fill-rule:nonzero;"/><path id="path7204-2" d="M47.906,64.451c-4.135,-6.838 -8.486,-13.484 -13.923,-19.161c5.437,-5.678 9.788,-12.324 13.923,-19.162c4.136,6.838 8.486,13.484 13.923,19.162c-5.437,5.677 -9.787,12.323 -13.923,19.161Z" style="fill:#d40000;fill-rule:nonzero;"/><path id="path7222-2" d="M130.094,222.882c-4.136,-6.838 -8.486,-13.485 -13.923,-19.162c5.437,-5.677 9.787,-12.323 13.923,-19.162c4.135,6.839 8.486,13.485 13.923,19.162c-5.437,5.677 -9.788,12.324 -13.923,19.162Z" style="fill:#d40000;fill-rule:nonzero;"/><path id="path37-2-1-6-5" d="M8.269,28.701l-2.199,0l0,-3.001l2.199,0c0,0 0.017,-1.618 0.08,-4.471c0.136,-6.082 0.288,-7.026 2.046,-8.7c3.472,-3.308 9.287,-0.612 9.219,4.362c-0.101,7.021 -0.028,13.714 -0.233,14.662c-0.364,1.67 -0.401,1.764 -0.252,2.069c0.304,0.613 2.931,0.879 2.931,0.707l0,2.957c-2.007,0.156 -2.84,-0.033 -4.445,-1.181c-1.002,0.969 -4.053,1.941 -6.48,0.797c-1.845,-0.87 -3.243,-3.116 -2.866,-8.201Zm7.433,5.24c-1.09,-1.576 -2.924,-3.728 -4.65,-4.492c-0.107,1.813 0.049,3.333 0.685,4.15c1.013,1.302 2.65,1.6 3.965,0.342Zm0.904,-17.34c-0.809,-2.294 -2.887,-3.072 -4.405,-1.637c-0.95,0.893 -1.101,1.833 -1.122,6.938c-0.012,3.149 -0.012,4.473 -0.012,4.473c2.956,0.96 5.719,4.41 5.695,4.365l0.072,-9.524c0.057,-1.545 -0.019,-3.092 -0.228,-4.615l0,0Z" style="fill:#d40000;fill-rule:nonzero;"/><path id="path37-3-27-1-5" d="M169.732,220.299l2.199,0l0,3.001l-2.199,0c0,0 -0.017,1.618 -0.08,4.471c-0.137,6.082 -0.288,7.026 -2.046,8.7c-3.473,3.308 -9.288,0.612 -9.219,-4.362c0.101,-7.021 0.028,-13.714 0.233,-14.662c0.364,-1.67 0.401,-1.764 0.252,-2.069c-0.305,-0.613 -2.931,-0.879 -2.931,-0.707l0,-2.957c2.006,-0.156 2.84,0.033 4.445,1.181c1.002,-0.969 4.053,-1.941 6.479,-0.797c1.846,0.87 3.244,3.117 2.867,8.201Zm-7.433,-5.24c1.09,1.576 2.924,3.728 4.649,4.492c0.108,-1.813 -0.048,-3.333 -0.685,-4.15c-1.012,-1.302 -2.65,-1.6 -3.964,-0.342Zm-0.904,17.341c0.809,2.293 2.887,3.071 4.405,1.636c0.949,-0.893 1.101,-1.833 1.122,-6.938c0.012,-3.149 0.012,-4.473 0.012,-4.473c-2.956,-0.96 -5.719,-4.41 -5.695,-4.365l-0.072,9.524c-0.058,1.545 0.019,3.092 0.227,4.616l0.001,0Z" style="fill:#d40000;fill-rule:nonzero;"/></g></g></svg>