<?xml version="1.0" encoding="UTF-8" standalone="no"?><!DOCTYPE svg PUBLIC "-//W3C//DTD SVG 1.1//EN" "http://www.w3.org/Graphics/SVG/1.1/DTD/svg11.dtd"><svg width="100%" height="100%" viewBox="0 0 178 249" version="1.1" xmlns="http://www.w3.org/2000/svg" xmlns:xlink="http://www.w3.org/1999/xlink" xml:space="preserve" xmlns:serif="http://www.serif.com/" style="fill-rule:evenodd;clip-rule:evenodd;stroke-linejoin:round;stroke-miterlimit:2;"><rect id="queen-spades" x="0" y="0" width="178" height="249" style="fill:none;"/><clipPath id="_clip1"><rect x="0" y="0" width="178" height="249"/></clipPath><g clip-path="url(#_clip1)"><rect x="-1956.21" y="-498" width="2312.21" height="1245" style="fill:#fff;"/><g id="queen_spades"><path id="path7431-0-1" d="M13.729,39.923c-3.437,4.377 -7.115,6.896 -7.176,10.311c-0.021,1.105 0.649,2.985 2.746,3.345c1.361,0.232 3.234,-0.751 3.273,-2.749c-0.008,-0.398 0.472,-0.388 0.467,0.157c-0.064,1.576 -0.623,3.411 -1.562,4.904l4.503,0c-0.939,-1.493 -1.497,-3.328 -1.561,-4.904c-0.008,-0.545 0.473,-0.555 0.467,-0.157c0.039,1.998 1.912,2.981 3.273,2.749c2.097,-0.36 2.766,-2.24 2.746,-3.345c-0.062,-3.415 -3.739,-5.934 -7.176,-10.311Z" style="fill-rule:nonzero;"/><path id="path7435-3-6" d="M164.272,209.077c-3.438,-4.377 -7.115,-6.896 -7.176,-10.311c-0.021,-1.105 0.649,-2.985 2.746,-3.344c1.36,-0.233 3.234,0.751 3.273,2.748c-0.008,0.398 0.471,0.388 0.467,-0.157c-0.064,-1.576 -0.623,-3.411 -1.562,-4.904l4.503,0c-0.939,1.493 -1.497,3.328 -1.562,4.904c-0.008,0.545 0.474,0.555 0.468,0.157c0.039,-1.997 1.912,-2.981 3.273,-2.748c2.097,0.359 2.766,2.239 2.746,3.344c-0.062,3.415 -3.739,5.934 -7.176,10.311Z" style="fill-rule:nonzero;"/><path id="path37-0-2-9" d="M7.932,28.701l-2.199,0l0,-3.001l2.199,0c0,0 0.017,-1.618 0.08,-4.471c0.136,-6.082 0.288,-7.026 2.046,-8.7c3.472,-3.308 9.287,-0.612 9.219,4.362c-0.101,7.021 -0.028,13.714 -0.233,14.662c-0.364,1.67 -0.401,1.764 -0.252,2.069c0.304,0.613 2.931,0.879 2.931,0.707l0,2.957c-2.007,0.156 -2.84,-0.033 -4.445,-1.18c-1.002,0.968 -4.053,1.94 -6.48,0.796c-1.845,-0.87 -3.243,-3.116 -2.866,-8.201Zm7.432,5.24c-1.089,-1.576 -2.924,-3.728 -4.649,-4.492c-0.108,1.813 0.049,3.333 0.685,4.15c1.013,1.302 2.65,1.6 3.964,0.342Zm0.905,-17.34c-0.809,-2.294 -2.887,-3.072 -4.406,-1.637c-0.949,0.893 -1.101,1.833 -1.121,6.938c-0.012,3.149 -0.012,4.473 -0.012,4.473c2.956,0.96 5.718,4.41 5.695,4.365l0.072,-9.524c0.057,-1.545 -0.019,-3.092 -0.228,-4.615l0,0Z" style="fill-rule:nonzero;"/><path id="path37-0-5-5-3" d="M170.066,220.299l2.199,0l0,3.002l-2.199,0c0,0 -0.016,1.617 -0.08,4.47c-0.136,6.082 -0.288,7.026 -2.046,8.7c-3.472,3.308 -9.287,0.612 -9.218,-4.362c0.1,-7.021 0.028,-13.714 0.232,-14.662c0.364,-1.67 0.401,-1.764 0.252,-2.069c-0.304,-0.613 -2.931,-0.879 -2.931,-0.707l0,-2.957c2.007,-0.156 2.84,0.033 4.446,1.181c1.001,-0.969 4.052,-1.941 6.479,-0.797c1.845,0.87 3.244,3.117 2.866,8.201Zm-7.432,-5.24c1.09,1.576 2.924,3.728 4.649,4.492c0.108,-1.813 -0.049,-3.333 -0.685,-4.15c-1.013,-1.302 -2.65,-1.6 -3.964,-0.342Zm-0.904,17.341c0.808,2.293 2.887,3.071 4.405,1.636c0.949,-0.893 1.101,-1.833 1.121,-6.938c0.012,-3.149 0.012,-4.473 0.012,-4.473c-2.955,-0.96 -5.718,-4.41 -5.695,-4.365l-0.072,9.524c-0.057,1.545 0.02,3.092 0.228,4.616l0.001,0Z" style="fill-rule:nonzero;"/><path id="path4075-4-3-9" d="M81.396,228.504l18.718,-34.203c0,0.009 4.464,1.764 9.75,3.14c-5.073,13.258 -0.037,30.747 -0.037,30.747c0,0 -28.445,0.287 -28.431,0.316l0,0Zm-51.294,-58.405c-1.062,-14.525 0.613,-26.843 1.288,-40.182c0.044,-0.186 -6.079,-3.986 -6.079,-3.986l14.392,-8.132c1.433,0.746 2.257,0.616 2.596,-0.765c-1.452,-4.947 -1.737,-9.737 1.589,-13.835c2.491,-2.995 8.179,-1.456 9.834,-1.462c1.287,-0.006 4.352,-10.22 -0.831,-13.231c-1.099,-0.638 -1.618,5.961 -2.368,8.736c-3.335,-1.953 -9.501,-3.599 -10.324,-7.045c-0.422,-1.909 5.635,-5.584 4.446,-7.736c-1.733,-3.135 -6.208,-7.825 -8.123,-6.537c-1.811,1.64 -6.13,4.991 -6.101,7.285c1.349,4.112 4.778,4.398 6.581,8.288c0.449,0.841 3.763,4.375 3.763,4.375c-1.244,1.907 0.769,5.242 0.863,4.732l-15.701,-6.861c0,0 3.599,27.158 -0.201,31.177c-0.402,0.426 3.362,-1.065 3.426,-0.833c1.144,1.452 13.824,9.538 17.454,12.444c6.446,-9.016 8.8,-12.982 17.107,-20.98c1.823,-1.512 5.888,-4.272 8.213,-7.589c1.867,-2.664 2.641,-5.666 2.306,-7.995c-0.434,-3.013 -0.701,-5.075 -2.555,-7.475c-4.283,-5.547 -11.097,-10.837 -10.976,-10.934l2.328,-1.899c0,0 8.403,6.968 11.961,12.093c2.397,3.452 1.322,7.412 3.389,8.12c0.497,0.171 3.892,-0.113 5.007,0.101c0.135,0.026 24.719,17.426 20.262,18.429c-6.171,1.39 -16.01,0.483 -16.01,0.483c-7.025,-6.876 -10.416,-9.137 -14.603,-6.983c0,0 -10.609,9.307 -16.732,16.594c-3.49,4.153 -9.022,12.835 -9.022,12.835c-0.411,-0.181 -12.558,-9.809 -12.051,-8.729c0,0 2.912,26.372 1.616,36.023c-0.888,8.198 -2.106,17.003 -2.649,24.563c1.723,-0.376 4.264,-0.866 4.746,1.77c0.42,3.599 -4.201,2.764 -4.309,2.452c0.008,-0.003 2.58,5.553 2.58,5.553c0,0 -4.003,6.924 -3.893,6.623c0.069,-0.187 -3.638,-6.147 -3.638,-6.147c0,0 2.752,-5.004 3.166,-6.019c0.283,-0.693 -4.211,1.827 -4.388,-1.825c-0.181,-3.758 4.691,-2.861 4.438,-2.386c-0.602,-8.035 -1.947,-16.341 -2.797,-23.11Zm60.19,18.074c0.111,-0.083 -10.623,-4.319 -20.484,-3.92c-3.474,-1.356 -9.14,-2.776 -12.922,-0.247c-4.253,-2.888 -7.925,-6.067 -11.655,-9.216c1.045,-0.014 5.538,-25.884 7.517,-34.047c-1.141,-10.922 9.353,-10.914 10.264,-2.166c11.306,11.721 25.148,23.844 39.417,35.772c-2.27,4.721 -10.463,8.32 -12.137,13.824Zm24.718,-77.264c-12.889,-13.176 -39.864,-36.73 -39.864,-36.73l12.627,-12.357c6.629,1.98 13.44,3.635 21.14,3.713c0.031,0.031 8.439,3.836 12.919,-0.01l11.656,9.26c0,0 -4.834,25.495 -7.673,34.393c0.06,3.525 -1.27,7.817 -4.742,8.455c-2.965,0.545 -5.245,-3.67 -6.063,-6.724Zm26.052,-30.522c1.344,-8.288 1.621,-14.32 2.554,-23.99c-5.814,1.708 -5.735,-6.149 -0.024,-4.082l-2.647,-5.849l3.92,-6.588l3.598,6.256l-3.098,5.546c6.44,0.318 4.886,6.312 -0.66,4.865c1.046,9.263 3.349,18.62 3.237,27.777c1.993,14.687 -2.452,35.123 -1.716,35.607l6.28,4.331l-1.073,31.953l-9.918,-4.358l-2.952,1.996c0.948,1.88 2.153,3.683 2.56,5.726c0,0 6.831,5.633 5.883,7.388c0.44,0.259 -4.861,7.293 -6.417,7.117c-2.965,-0.335 -6.404,-4.183 -7.394,-6.913c-0.838,-2.752 6.133,-5.45 5.254,-7.464c-1.052,-2.408 -3.707,-3.566 -6.061,-4.275c-3.245,-0.976 -4.729,-3.551 -4.878,-3.551c0,0 -1.261,10.213 -2.475,9.396c-4.885,-3.285 -1.544,-13.706 -0.638,-13.415c0,0 2.133,0.491 4.653,0.729c8.878,0.932 8.277,-10.011 6.556,-15.308c-0.615,-2.072 2.017,-1.407 3.137,-1.721c4.311,-1.274 10.979,-5.734 10.979,-5.734c-6.939,-3.859 -13.065,-8.261 -18.56,-12.436c0,0 -5.101,8.727 -11.147,14.781c-4.402,4.406 -5.118,5.906 -12.485,11.581c-0.143,0.11 -5.582,6.63 -2.992,14.242c2.216,6.515 12.869,13.567 12.791,14.038l-2.097,2.009c0.085,0.116 -15.081,-9.431 -14.727,-19.701c-0.017,-0.388 -6.892,-0.522 -6.892,-0.522l-19.983,-18.566l16.927,-0.073l8.692,7.116l5.431,0.283c0.354,0.313 0.551,-1.438 5.334,-5.015c9.139,-6.833 20.461,-24.38 20.461,-24.38c0,0 11.974,8.441 11.986,8.443c-0.599,-12.678 -2.638,-26.312 -1.399,-37.239l0,0Zm-43.593,-59.913c0,0 -12.441,23.427 -19.263,34.462l-9.664,-2.778c4.049,-10.774 0.172,-31.309 -0.847,-31.826l29.774,0.142Z" style="fill:#e2cf00;fill-rule:nonzero;"/><path id="path4073-4-2-4" d="M23.614,19.11l0,210.78l130.772,0l0,-210.78l-130.772,0Zm90.397,152.88c6.195,-5.772 12.323,-10.536 18.053,-13.999c2.222,-1.343 2.896,-1.54 3.769,-0.743c1.424,1.299 2.31,2.429 1.845,3.338c-0.104,0.205 -0.44,0.546 -0.44,0.546l-3.422,-1.306l1.109,3.894c-3.08,1.257 -3.024,4.598 -0.052,6.369l-2.046,4.718l4.755,-2.098c0.182,1.029 3.572,3.516 5.681,0.001l4.293,2.101l-1.479,-5.271c1.409,-1.347 2.231,-3.499 0.014,-5.483l1.02,-4.129l-3.877,1.265c-0.971,-1.332 -1.535,-1.24 -1.759,-1.603c-0.066,-0.496 -0.078,-1.652 -0.723,-2.718c-0.533,-0.881 -1.143,-1.817 -1.713,-2.472c-0.302,-0.513 -0.06,-0.556 1.488,-1.396c0.727,-0.394 1.328,-0.793 1.328,-0.793c0,0 7.587,3.838 10.699,5.3l0,70.624l-41.633,0c-4.707,-14.089 -1.325,-26.328 -0.078,-31.454c-2.195,-0.183 -13.514,-3.86 -13.853,-5.125c4.484,-7.144 10.569,-13.635 17.021,-19.566l0,0Zm-81.442,20.566c-5.459,-1.768 -5.514,4.824 -2.725,5.335c0.723,0.133 1.479,0.242 2.609,-0.125c0.281,0.059 -3.27,5.527 -3.27,5.527c0,0 2.843,5.178 4.205,7.379l4.299,-7.648l-2.811,-5.293c4.401,2.249 6.679,-4.448 2.059,-5.325c-1.117,-0.152 -2.35,0.408 -2.35,0.408l2.429,-22.91c1.959,1.335 5.532,4.012 5.532,4.012c0.813,12.621 0.217,23.14 7.254,41.504l0.072,12.715l-24.509,0l0,-66.647l4.485,3.034c0.09,0.377 -0.674,0.125 -0.262,4.767c0.373,4.194 1.646,11.466 2.983,23.267l0,0Zm86.741,-171.487c0.193,0.274 0.178,0.693 0.345,1.249c0.978,3.267 4.376,7.191 7.085,8.222c0.949,0.36 1.317,0.909 0.769,1.458c-0.692,0.695 -3.547,-1.204 -5.655,-3.665c-1.914,-2.236 -3.191,-4.085 -3.473,-5.489c-0.168,-0.833 -0.252,-1.369 -0.128,-1.802c0.35,-0.486 0.785,-0.351 1.057,0.027l0,0Zm3.378,-0.353c0.358,-0.001 0.839,0.421 1.129,1.191c0.695,1.85 1.786,3.233 3.491,4.429c0.452,0.317 0.632,0.792 0.402,1.07c-0.085,0.103 -0.196,0.154 -0.321,0.189c-1.33,0.372 -4.832,-3.691 -5.111,-6.213c-0.061,-0.548 0.131,-0.665 0.41,-0.666Zm4.357,0.051c0.708,-0.004 1.047,1.477 0.637,2.252c-0.267,0.244 -0.854,-0.133 -1.374,-1.105c-0.448,-0.835 -0.269,-1.143 0.737,-1.147Zm-2.37,0.023c0.159,-0.005 0.486,-0.089 0.652,0.142c0.273,1.529 1.423,2.636 2.34,3.523c0.155,0.29 0.227,0.897 -0.111,1.055c-0.804,0.357 -3.224,-2.403 -3.24,-3.999c-0.008,-0.48 0.141,-0.714 0.359,-0.721Zm-3.071,0.969c0.848,2.793 2.903,5.07 4.743,6.252c1.315,0.84 1.823,1.317 1.213,1.746c-0.152,0.106 -0.305,0.187 -0.341,0.182c-3.08,-1.179 -6.865,-5.652 -6.993,-8.818c0.671,-0.862 1.263,0.103 1.378,0.638Zm-10.659,12.121c-1.62,0.002 -3.604,0.372 -5.214,1.105c-2.242,1.02 -2.804,1.698 -2.477,1.944c0.235,0.173 1.678,-0.448 2.402,-0.542c3.903,-0.969 6.588,-1.207 9.132,-0.095c1.967,0.86 1.979,0.465 0.658,-0.967c-0.957,-1.038 -2.665,-1.448 -4.501,-1.445Zm13.758,2.145c1.292,-0.013 2.61,0.29 3.079,0.894c0.364,1.955 -0.609,1.061 -1.392,0.671c-1.133,-0.524 -2.431,-0.977 -3.643,-0.79c-0.778,0.12 -0.8,0.08 -0.359,-0.17c0.666,-0.406 1.608,-0.595 2.315,-0.605Zm-15.3,0.762c-3.691,0.287 -4.97,2.159 -7.353,4.091c-0.979,0.746 -0.756,1.324 0.437,1.128c1.473,-0.242 2.067,-0.184 4.075,0.504c2.194,0.751 3.766,1.063 4.971,0.598c2.279,-0.878 2.084,-0.732 -1.176,2.433c-1.743,1.404 -1.039,1.331 0.727,0.115c1.305,-1.046 2.203,-1.713 2.475,-2.286c0.133,-0.278 0.144,-1.276 0.39,-1.276c0.829,0 0.402,-1.037 -0.352,-1.478c-0.495,-0.353 -0.384,-0.723 0.257,-1.403c1.006,-1.062 0.664,-1.542 -0.429,-0.88c-0.192,0.104 -0.287,-0.22 -0.953,-0.624c-1.055,-0.638 -1.944,-0.935 -3.069,-0.922Zm2.662,1.389c0.892,0.753 0.51,0.962 -1.437,0.943c-1.646,-0.015 -3.046,0.158 -5.001,0.808c-2.22,0.738 -2.356,0.757 -1.052,-0.357c1.793,-1.533 5.437,-3.071 7.49,-1.394Zm11.531,-0.65c0.896,-0.019 1.651,0.108 2.333,0.485c1.86,1.028 2.274,1.92 0.204,1.193c-1.299,-0.456 -3.053,-0.392 -4.265,-0.055c-1.252,0.348 -1.468,0.47 -1.298,-0.207c0.208,-0.83 1.534,-1.384 3.026,-1.416l0,0Zm-14.624,3.034c0.441,2.215 2.116,1.491 2.282,0.153l0.612,0.003c-0.26,1.779 -2.675,3.268 -3.614,-0.156c0.198,-0.006 1.075,0.055 0.72,-0.001l0,0.001Zm13.365,0.037l0.454,-0.015c0.3,1.699 1.873,2.255 2.558,0.13l0.549,0.011c-0.42,3.544 -4.16,1.818 -3.561,-0.126l0,0Zm-14.648,0.166c0.303,0.107 0.44,0.937 0.39,1.156c-0.106,0.455 -1.585,-0.029 -1.898,-0.473c0.309,-0.329 1.039,-0.85 1.508,-0.683Zm20.122,0.377l0,0.62c-0.683,0.165 -0.967,0.549 -1.605,0.423c0.036,-0.396 -0.03,-0.941 0.341,-1.404c0.465,-0.246 1.018,0.056 1.268,0.361l-0.004,0Zm-14.902,0.717c-0.31,0.245 -0.735,0.272 -0.735,0.272c-0.067,-0.594 -0.167,-1.262 0.572,-1.268c0.485,0.142 0.451,0.744 0.163,0.996Zm8.522,-0.985c0.26,0.019 0.564,0.666 0.599,1.044c-0.076,0.62 -1.596,0.372 -1.596,-0.244c0,-0.261 0.635,-0.799 0.997,-0.8Zm-13.92,23.465c-1.174,-0.589 -10.078,-6.016 -12.359,-15.614l-0.453,0.982c0.967,2.298 2.393,6.03 2.393,6.03c-0.059,-0.322 0.364,2.5 1.271,7.291c-0.481,0.005 -1.013,-0.132 -1.536,-0.272c-1.175,-4.386 -1.453,-7.824 -2.439,-12.116l-0.429,1.199c0,0 1.24,7.701 2.08,10.712c-0.48,-0.046 -1.365,-0.245 -1.365,-0.245c-0.7,-3.248 -1.24,-5.426 -1.899,-8.683l-0.606,0.787c0.87,2.673 1.209,5.064 1.647,7.625c-0.598,-0.09 -1.199,-0.148 -1.768,-0.465c0,0 -0.898,-4.672 -1.017,-4.74c-0.342,0.346 -0.483,0.791 -0.483,0.791c-0.037,-0.042 0.779,2.59 0.72,3.673c-0.571,-0.094 -1.563,-0.381 -2.262,-0.616c-0.366,0.244 -0.557,0.65 -0.838,1.016c0.344,1.486 20.774,4.704 19.548,3.475c-0.008,0.128 9.008,3.957 14.039,0.704c0,0 8.751,6.508 12.169,9.108c0,0.296 1.184,1.675 2.417,2.552l3.464,2.676c1.007,0.784 1.409,0.217 1.562,-1.26c0.17,-1.645 1.362,-12.732 1.64,-15.095c1.04,-7.964 1.039,-7.879 -0.167,-7.513c-1.843,0.561 -3.503,-0.167 -3.503,-2.059c0,-1.157 0.534,-2.116 1.763,-2.564c0.349,-0.119 0.804,-0.13 1.327,-0.12c0.238,0.043 0.679,0.073 0.726,0.082c0.587,-0.034 -2.273,-5.229 -2.273,-5.229c0,0 2.733,-4.885 4.048,-6.705l3.538,6.43l-2.897,5.672c5.643,-0.425 5.09,6.69 -0.433,4.308c0,0 -0.033,2.113 -0.022,1.958c0.054,-0.605 0.045,-1.122 0.236,-1.235c5.351,2.034 6.442,-5.794 0.675,-5.433c0.949,-1.659 2.006,-3.374 2.992,-5.203l-4.169,-7.623l-4.71,7.859l2.37,4.906c-0.533,-0.139 -0.961,-0.055 -1.531,0.004c-3.491,0.717 -2.741,6.352 1.249,5.577c0.456,-0.089 1.141,-0.434 1.141,-0.434l-2.576,23.015c0,0 -0.254,0.207 -1.287,-0.54c-1.194,-0.862 -3.694,-2.736 -3.854,-2.929c0.894,-14.714 -2.775,-30.196 -6.965,-39.889c-0.266,-0.743 -0.108,-15.342 -0.108,-15.342l23.978,0l0,67.86c-1.243,-0.789 -2.719,-1.827 -3.996,-2.73c-0.383,-0.311 -0.62,-0.68 -0.456,-1.272c-0.42,0.901 -0.166,1.288 -0.166,1.288l5.246,4.203l-0.209,66.722c0,0 -8.469,-4.377 -13.683,-6.49c-2.352,-0.962 -2.457,-0.685 -2.457,-0.685c0.008,-0.004 1.662,3.742 1.189,4.418c1.121,1.08 3.005,3.342 3.097,5.556c1.004,0.872 1.285,0.98 2.038,2.235l3.147,-1.141l-0.715,3.288c3.346,2.35 0.124,5.511 -0.495,5.22c0,0 1.476,3.178 1.813,4.624c-0.528,-0.036 -3.178,-1.477 -3.917,-1.819c-1.92,3.791 -5.163,0.61 -5.189,0.051l-3.597,1.606l1.274,-4.106c-2.316,-1.413 -3.881,-3.55 -0.136,-5.85l-0.865,-3.204l3.081,1.214c0,0 0.574,-0.926 1.011,-1.601c-1.152,-5.032 -8.728,-4.081 -11.161,-8.607c0,0 -0.598,5.65 -1.21,7.695c-0.239,5.403 -4.014,-0.063 -4.014,-5.779c0,-1.291 1.618,-5.634 2.166,-5.845c0.569,-0.079 5.977,2.543 9.608,-0.062c1.653,-1.725 4.505,-6.577 1.765,-14.174c-0.906,-1.755 1.724,-1.977 2.578,-1.385c0,0 7.903,-4.146 11.47,-6.143c-5.985,-3.298 -18.429,-12.074 -18.421,-12.491c-1.66,2.644 -3.562,4.861 -6.235,8.599c-4.333,5.118 -7.72,9.982 -13.22,14.071c-7.734,5.648 -9.55,11.333 -7.393,18.008c0.873,2.884 2.631,5.81 5.509,6.822c1.464,1.485 7.347,7.071 7.347,7.071c-9.821,8.969 -16.563,16.345 -21.291,24.496c3.991,2.105 13.617,5.154 13.617,5.154c-3.576,11.919 -1.948,21.386 0.408,30.889c0,0 -27.942,0.036 -42.441,-0.421c-0.124,0.123 -1.693,0.039 -1.714,-0.061c-0.057,-1.063 2.612,-3.984 3.41,-3.576c0.402,-0.397 1.251,-0.599 1.099,-1.086c-2.001,-0.239 -5.036,3.227 -5.156,4.662l-1.193,0c-0.245,-0.214 2.165,-5.857 6.994,-6.307c-0.05,0.203 0.648,-0.438 0.124,-0.713c-5.63,0.669 -8.251,6.934 -8.085,7.02l-0.87,0c1.914,-6.162 6.898,-8.106 9.782,-8.374c0.028,-0.012 0.936,-0.329 0.693,-0.869c-6.375,1.111 -9.553,3.878 -11.085,9.243l-1.149,0c0.829,-5.442 6.409,-10.209 12.717,-10.053c0.197,-0.126 0.439,-0.274 0.336,-0.892c-7,0.791 -10.491,3.134 -13.367,9.164c-2.572,-6.697 -9.721,-9.874 -9.806,-9.902c0,0 -0.173,-1.875 0.227,-1.798c6.098,2.215 8.427,-3.097 8.172,-6.183c-0.142,-1.717 -0.046,-2.663 -0.619,-5.139c-0.51,-2.207 -0.888,-3.694 -0.848,-4.653c0.041,-0.948 0.337,-1.14 1.035,-1.458c1.308,-0.594 2.126,-2.747 1.836,-3.01c-0.672,1.566 -2.448,1.836 -3.266,2.888c-0.653,0.866 -0.365,2.246 0.798,7.036c0.708,2.919 -0.132,1.577 -1.786,0.663l-1.104,-0.626c0.74,0.763 1.524,1.483 2.279,2.232c0.675,0.619 0.297,1.003 -0.672,0.644c-1.395,-0.699 -4.084,-0.406 -5.115,0.473c-0.402,0.287 -0.544,0.257 -0.645,-0.007c-0.451,-7.44 0.329,-12.016 2.785,-17.607c1.589,-3.8 3.953,-6.646 7.107,-6.849c3.179,-0.264 7.748,0.853 11.898,3.68c4.874,3.321 9.624,8.37 10.129,14.565c0.019,0.072 0.375,-0.53 0.536,-0.848c0.223,-0.736 -0.59,-2.948 -1.86,-5.512c-0.235,-1.928 -0.896,-5.31 -1.416,-7.597c0.395,-0.181 1.237,-0.08 1.474,0.209c0.893,3.782 1.528,6.727 2.293,11.794c0.011,0.494 0.644,-0.733 0.646,-1.058c-0.11,-0.756 -2.216,-10.671 -2.173,-10.445c0.012,-0.337 1.997,0.106 1.724,0.419c0,0 1.509,8.317 1.616,8.059l0.511,-0.706c0,0 -1.441,-6.074 -1.261,-7.245c0.123,-0.179 1.24,0.184 1.593,0.377c0.445,0.597 0.729,2.764 0.917,4.243c0.513,0.393 0.615,-0.744 0.576,-1.044c-0.37,-0.588 -0.762,-2.784 -0.468,-2.897c0.231,-0.089 1.51,0.421 1.755,0.64c0.289,0.258 1.404,-1.291 1.121,-1.559c-6.035,-2.318 -13.649,-3.671 -19.378,-3.763c-1.332,0.006 -1.86,-0.183 -3.902,-0.922c-5.2,-1.883 -9.5,-0.007 -10.13,0.588c-6.349,-4.426 -13.437,-10.606 -19.079,-14.55c-0.266,-0.176 -0.899,-0.28 -0.968,-0.28c-0.896,6.865 -1.521,14.808 -2.284,21.144c-0.31,2.509 -0.347,2.705 -0.233,2.776c0.1,0.061 0.295,-0.039 0.373,-0.079c1.857,-0.686 3.535,-0.239 4.424,1.443c0.447,2.406 -1.651,3.989 -3.863,2.846c-0.821,-0.424 -0.939,-0.34 -0.565,0.462c0.647,1.444 2.514,5.248 2.514,5.248c0,0.001 -2.522,5.161 -3.797,6.566c-1.244,-2.015 -2.831,-4.052 -3.519,-6.252c0.977,-1.918 2.823,-4.389 3.406,-6.28c-0.083,-0.06 -0.585,-0.008 -0.935,0.175c-3.228,1.531 -3.746,-1.352 -3.703,-2.388c0.087,-2.107 1.917,-2.556 4.575,-1.574c-2.873,-19.141 -3.486,-30.048 -2.752,-28.867c0,0 -3.469,-2.488 -5.194,-4.176l0.196,-139.338l41.16,0c4.232,11.379 3.067,25.064 0.537,32.19c4.493,0.823 9.031,1.888 14.158,4.84c-8.661,12.737 -22.259,26.503 -36.987,35.317c-0.835,0.378 -3.577,-1.338 -3.899,-3.033c-0.075,-0.394 0.143,-1.17 0.584,-1.155c1.082,0.352 2.131,0.836 3.187,1.268c0,0 -1.472,-3.705 -0.761,-4.267c0.462,-0.305 0.84,-0.559 1.136,-0.872c1.057,-1.369 0.973,-2.924 -0.146,-4.118c-0.451,-0.473 -0.977,-0.8 -1.24,-0.921c0,0 1.038,-2.89 1.559,-4.252l-4.087,1.356c-1.324,-1.84 -3.757,-3.271 -5.555,-0.532c-0.343,0.73 -0.272,0.618 -2.801,-0.505c-1.434,-0.636 -2.318,-0.962 -2.318,-0.962c0.537,1.606 1.241,3.114 1.855,4.973c-2.815,1.801 -2.173,4.837 0.197,5.743l-1.249,4.101c0,0 2.662,-0.995 4.105,-1.381c0,0 1.266,1.275 1.641,2.487c0.643,2.078 2.105,3.585 3.029,4.443c-1.539,1.132 -2.3,1.514 -4.034,2.35l5.986,2.425c-0.372,-1.269 -1.165,-2.211 -1.245,-3.817c-0.071,-1.375 -0.149,-1.4 -1.035,-2.331c-1.63,-1.425 -1.803,-3.116 -2.35,-4.232c-0.746,-0.442 -1.226,-1.144 -1.578,-1.884c-0.393,-0.828 -2.968,1.112 -3.358,0.745c-0.477,-0.511 0.829,-3.131 0.684,-3.392c-1.051,-0.09 -3.994,-2.391 -0.489,-4.954l-1.118,-4.169c0,0 2.669,1.17 3.948,1.825c0.889,-4.166 4.94,-2.168 5.595,-0.373c0,0 3.212,-1.058 3.013,-0.199c-0.09,0.771 -0.611,2.696 -0.611,2.696c2.887,2.565 2.29,3.824 -0.056,5.506c-0.037,1.359 0.533,3.473 0.533,3.473c0,0 -1.634,-0.728 -2.71,-1.034c-0.431,0.432 -0.92,1.213 -0.838,1.615c0.73,3.241 4.715,4.144 10.62,7.457c0.202,-2.094 1.643,-4.957 1.806,-7.47c0.101,-1.833 0.164,-1.861 1.45,-1.276c3.383,2.451 2.351,9.186 1.117,11.949c-0.73,1.565 -0.85,1.525 -2.27,1.071c-1.965,-0.628 -5.441,-0.375 -7.354,0.275c-2.644,1.087 -3.892,7.003 -3.92,8.8c-0.047,1.708 0.084,3.402 0.978,5.512c0.37,1.35 -0.31,2.39 -1.524,2.028c-0.272,-0.081 -0.92,-0.33 -0.92,-0.33l-11.414,5.923l2.15,1.269c0,0 -1.585,-0.949 -0.602,-1.464l9.786,-5.122c1.823,0.713 1.579,0.859 2.761,-0.377c0.708,-0.73 1.055,-0.745 2.003,-0.654c5.769,0.556 8.325,-0.287 9.322,-2.712c0.15,-0.364 0.093,-0.351 0.682,-0.65c1.092,-0.425 1.605,-1.196 1.661,-2.162c0.036,-0.634 0.31,-0.72 0.791,-1.163c0.898,-0.827 1.08,-1.863 0.514,-2.928c-0.266,-0.502 -0.469,-0.66 -0.359,-1.18c0.186,-0.871 -0.136,-1.778 -0.97,-2.738c-0.961,-1.105 -0.954,-0.918 0.854,-2.608c3.553,-3.388 6.685,-5.981 10.141,-9.046c2.363,-2.097 2.108,-1.947 3.028,-0.988c3.387,3.532 4.716,9.04 3.191,13.883c-0.071,0.228 -0.104,0.202 0.074,0c0.957,-1.089 0.985,-6.571 0.166,-9.002c-0.998,-2.987 -1.965,-4.542 -5.266,-7.467c-2.06,-1.866 -7.668,-7.254 -7.668,-7.254c8.158,-7.097 16.946,-15.918 21.873,-24.028c-2.528,-2.72 -14.251,-5.228 -14.251,-5.228c1.459,-3.037 4.346,-16.677 -0.596,-31.802c14.508,0.67 29.121,-0.394 43.613,0.59c0,0 0.226,-0.087 0.346,-0.118c0.403,-0.106 0.605,0.179 0.507,0.632c-0.31,1.154 -1.999,3.857 -3.191,3.634c-0.531,-0.207 -0.381,0.817 -0.619,1.243c1.878,-0.244 4.081,-2.631 4.633,-4.997c0.302,-0.497 0.499,-0.581 0.8,-0.485c0.348,0.11 0.261,0.442 -0.115,1.586c-1.177,2.862 -3.562,5.522 -6.334,5.256l-0.36,0.977c3.741,-0.061 6.633,-3.578 7.488,-6.21c0.597,-1.564 0.62,-1.776 1.22,-1.625c0.496,0.461 0.189,1.122 0.02,1.666c-1.88,6.026 -7.045,7.637 -9.617,7.375c-0.31,-0.039 -0.364,0.253 -0.271,0.749c5.525,0.365 9.926,-4.409 10.548,-8.506c0.303,-1.138 0.828,-1.526 1.131,-1.006c0.171,0.459 0.114,0.927 0.03,1.363c-1.51,6.468 -8.383,10.14 -12.583,9.091c-0.194,-0.182 -0.511,0.712 -0.054,1.031c8.479,-0.321 11.096,-4.709 13.03,-8.586c2.307,3.49 4.193,7.089 9.72,9.203c0,0 0.551,1.218 0.117,1.491c-0.229,0.144 -0.579,0.077 -1.087,-0.006c-6.737,-1.091 -8.965,5.225 -6.097,14.661c0.785,2.583 0.433,2.188 -1.246,3.805c-0.799,0.77 -1.18,2.136 -0.97,2.168c0.288,-0.163 0.382,-0.605 1.083,-1.187c0.304,-0.254 0.93,-0.495 1.392,-0.815c1.246,-0.725 1.235,-1.221 0.787,-2.934c-0.332,-1.275 -1.18,-5.151 -1.181,-5.544c0,-0.743 0.173,-0.664 1.1,0.001c1.293,0.962 2.026,0.893 0.461,-0.339c-0.605,-0.478 -0.999,-0.849 -1.182,-1.117c-0.249,-0.364 -0.095,-0.599 0.41,-0.441c2.321,0.73 4.314,0.677 6.568,-0.698c0.257,6.224 -0.597,15.668 -5.796,22.42c-3.988,4.493 -11.624,1.094 -14.449,-0.325l0,0Zm6.11,-14.304c-0.155,0.007 -0.712,0.123 -1.056,0.32c-1.532,0.88 -1.166,4 0.505,4.416c0.672,0.167 1.283,0.258 2.413,-0.282c0.672,-0.322 1.614,-0.574 1.879,-0.464c0.555,0.233 0.73,-0.259 0.849,-0.813c0.265,-1.241 -1.764,-1.27 -3.377,0.012c-2.037,1.618 -3.598,-0.77 -1.679,-2.568c0.64,-0.414 0.62,-0.628 0.466,-0.621l0,0Zm-15.82,6.677l1.711,1.982l1.074,4.726c-0.652,0.111 -1.442,-0.253 -1.442,-0.253c-0.533,-2.137 -1.055,-4.277 -1.343,-6.455Zm23.294,1.189c-0.018,0.002 -0.038,0.006 -0.058,0.015c-0.072,0.032 -0.391,0.176 -0.831,0.225c-0.255,0.028 -0.639,-0.153 -0.913,-0.136c-0.748,0.047 -1.448,0.268 -1.635,0.345c-0.231,0.096 -0.457,0.136 -0.654,0.02c-0.558,-0.33 -2.185,-0.237 -2.679,0.054c-0.586,0.25 -1.244,0.253 -1.725,0.004c-0.207,-0.107 -0.419,-0.378 -0.456,-0.341c-0.076,0.077 -0.389,1.414 -0.483,1.931c0,0.182 -0.126,0.485 -0.051,0.516c0.096,0.039 0.402,-0.24 0.781,-0.434c0.777,-0.398 1.646,-0.367 3.171,0.008c1.882,0.462 2.615,0.328 3.727,-0.241c0.885,-0.452 1.423,-0.561 2.011,-0.399c0.145,0.04 0.531,0.241 0.584,0.19c0.104,-0.1 -0.181,-0.66 -0.426,-1.214c-0.176,-0.401 -0.241,-0.558 -0.363,-0.543l0,0Zm-20.313,2.132c1.654,1.571 1.529,1.437 2.573,2.214l-0.05,1.514c0,0 -1.279,0.029 -1.907,-0.167c-0.198,-0.589 -1.058,-3.546 -0.616,-3.561l0,0Zm13.602,1.017c0.112,0.077 0.275,0.159 0.499,0.235c2.633,0.991 -0.121,0.741 -0.383,1.684c0,0.085 0.12,0.098 0.25,0.047c0.903,-0.356 3.11,-0.586 4.114,-0.391c1.302,0.44 1.384,0.136 0.131,-0.52c-0.917,-0.362 0.195,-0.609 0.569,-0.925c0.777,-0.502 0.242,-0.708 -0.747,-0.233c-0.99,0.477 -2.753,0.469 -3.557,0.018c-0.356,-0.182 -0.702,-0.35 -0.866,-0.361c-0.337,-0.013 -0.158,0.34 -0.01,0.446l0,0Zm-10.363,1.697l1.541,1.208l-1.576,-0.152l0.035,-1.056Zm-34.897,30.358c-0.312,0 -0.565,0.255 -0.565,0.567c0,0.312 0.253,0.566 0.565,0.566c0.311,0 0.564,-0.254 0.564,-0.566c0,-0.312 -0.253,-0.567 -0.564,-0.567Zm2.056,0.572l-7.067,3.365l1.868,0.627l-0.015,1.94l1.72,-0.551l0.729,1.812l2.765,-7.193Zm0.314,1.585c-0.312,0 -0.565,0.254 -0.565,0.566c0,0.312 0.253,0.566 0.565,0.566c0.311,0 0.564,-0.254 0.564,-0.566c0,-0.312 -0.253,-0.566 -0.564,-0.566Zm-8.96,3.444c-0.311,0 -0.565,0.25 -0.565,0.562c0,0.312 0.254,0.566 0.565,0.566c0.311,0 0.564,-0.254 0.564,-0.566c0,-0.312 -0.253,-0.562 -0.564,-0.562Zm2.172,1.053l-7.933,3.655l2.351,0.717l-0.621,2.428l1.916,-0.806l1.069,1.63l3.218,-7.624Zm0.234,1.739c-0.312,0 -0.565,0.255 -0.565,0.567c0,0.312 0.253,0.566 0.565,0.566c0.311,0 0.56,-0.254 0.56,-0.566c0,-0.312 -0.249,-0.567 -0.56,-0.567Zm-15.741,0.365c2.983,-0.004 6.329,1.134 7.471,3.696c0.303,1.28 -0.951,2.043 -3.631,1.306c-4.43,-1.219 -5.256,-1.356 -4.52,-0.6c0.097,0.099 0.292,0.343 0.955,0.57c1.668,0.57 4.898,1.23 5.769,1.14c1.19,-0.158 2.014,0.397 1.717,1.392c-0.338,1.131 -1.883,1.593 -4.207,1.265c-2.407,-0.34 -3.732,-0.619 -4.532,-0.861c-1.027,-0.312 -1.062,-0.285 -0.576,0.438c0.253,0.376 0.278,0.678 0.653,0.748c1.59,-0.089 3.282,0.216 4.741,0.353c2.619,0.236 3.029,0.98 1.106,2.118c-0.912,0.539 -3.639,0.392 -5.189,-0.168c-1.108,-0.4 -3.647,-0.972 -2.668,-0.197c0.235,0.187 0.154,0.644 0.564,0.788c1.343,0.186 5.14,0.452 5.734,0.991c0.382,0.347 -0.479,1.229 -2.251,1.688c-2.669,0.508 -6.659,0.296 -7.713,-0.426c-1.951,-3.986 -0.901,-10.509 2.154,-13.059c0.975,-0.764 2.634,-1.18 4.423,-1.182Zm17.492,2.078c-0.311,0 -0.56,0.254 -0.56,0.566c0,0.313 0.249,0.563 0.56,0.563c0.312,0 0.565,-0.25 0.565,-0.563c0,-0.312 -0.253,-0.566 -0.565,-0.566Zm2.357,0.604l-8.191,4.092l2.072,0.617l-0.492,2.391l1.92,-0.793l1.163,1.608l3.528,-7.915Zm0.063,2.003c-0.311,0 -0.565,0.254 -0.565,0.566c0,0.312 0.254,0.566 0.565,0.566c0.311,0 0.564,-0.254 0.564,-0.566c0,-0.312 -0.253,-0.566 -0.564,-0.566Zm4.764,4.824c-3.633,3.546 -7.726,6.355 -11.466,9.798l0.81,-0.032l2.038,-1.844l57.38,-0.18l-1.34,1.963l0.564,0.242c0,0 1.721,-2.551 1.604,-2.669c-12.607,0.037 -22.338,0.008 -36.168,0.103c-2.521,-2.504 -5.183,-4.85 -7.819,-7.229l-5.603,-0.152Zm-17.442,2.274c-0.311,0 -0.565,0.254 -0.565,0.566c0,0.313 0.254,0.567 0.565,0.567c0.311,0 0.561,-0.254 0.561,-0.567c0,-0.312 -0.25,-0.566 -0.561,-0.566Zm74.911,0.433c4.956,3.69 10.829,8.215 15.703,10.901c1.952,0.851 1.763,1.141 -0.22,2.081c-1.95,1.215 -5.194,2.781 -7.9,4.15c-1.172,0.444 -1.685,-0.135 -2.517,0.019c-0.6,0.153 -0.771,0.267 -1.129,0.741c-0.587,0.777 -0.427,0.751 -3.561,0.609c-3.163,-0.143 -4.467,-0.073 -5.147,0.275c-0.653,0.334 -1.775,1.477 -1.775,1.951c0,0.456 -0.357,1.041 -1.009,1.237c-0.758,0.185 -1.634,0.787 -1.597,1.722c-0.202,0.704 -0.631,1.016 -1.012,1.401c-0.902,0.913 -0.812,1.63 -0.551,2.477c0.12,0.38 0.304,0.291 0.21,1.414c-0.214,2.57 -0.39,2.353 2.351,4.256l-14.008,12.244c-0.325,0.256 -0.42,0.23 -0.715,0.026c-1.709,-1.272 -2.898,-3.375 -3.583,-5.478c-2.366,-6.539 0.523,-11.911 4.364,-15.199c1.331,-1.139 3.119,-2.497 3.616,-2.838c7.232,-6.187 13.522,-14.949 18.48,-21.989l0,0Zm-72.82,0.479l-8.008,3.793l2.579,0.435l-0.494,2.236l1.868,-0.711l0.989,1.884l3.066,-7.637Zm0.49,1.772c-0.312,0 -0.565,0.254 -0.565,0.567c0,0.312 0.253,0.562 0.565,0.562c0.311,0 0.56,-0.25 0.56,-0.562c0,-0.313 -0.249,-0.567 -0.56,-0.567Zm73.38,2.487l-0.909,-2.156c0,0 -2.53,6.249 -3.065,8.367c2.143,-1.108 8.421,-4.313 8.421,-4.313l-2.686,-0.5l0.303,-2.448l-2.064,1.05Zm-91.477,0.386c-0.311,0 -0.565,0.254 -0.565,0.566c0,0.312 0.254,0.567 0.565,0.567c0.311,0 0.564,-0.255 0.564,-0.567c0,-0.312 -0.253,-0.566 -0.564,-0.566Zm2.453,0.516c0,0 -5.96,2.805 -8.649,4.015l2.511,0.528l-0.441,2.449l2.267,-0.887l0.914,2.421l3.398,-8.526Zm0.318,1.85c-0.311,0 -0.564,0.254 -0.564,0.566c0,0.312 0.253,0.563 0.564,0.563c0.312,0 0.565,-0.251 0.565,-0.563c0,-0.312 -0.253,-0.566 -0.565,-0.566Zm84.328,0.407c-0.312,0 -0.565,0.25 -0.565,0.562c0,0.313 0.253,0.567 0.565,0.567c0.311,0 0.56,-0.254 0.56,-0.567c0,-0.312 -0.249,-0.562 -0.56,-0.562Zm9.743,0.512l-2.837,7.906l7.671,-3.873l-2.082,-0.571l0.01,-1.956l-1.713,0.501l-1.049,-2.007Zm-90.652,1.9c-0.311,0 -0.565,0.255 -0.565,0.567c0,0.312 0.254,0.566 0.565,0.566c0.311,0 0.564,-0.254 0.564,-0.566c0,-0.312 -0.253,-0.567 -0.564,-0.567Zm83.896,0.144c-0.311,0 -0.56,0.254 -0.56,0.567c0,0.312 0.249,0.562 0.56,0.562c0.311,0 0.565,-0.25 0.565,-0.562c0,-0.313 -0.254,-0.567 -0.565,-0.567Zm-81.544,0.58l-8.128,3.977l2.522,0.593l-0.276,2.545l2.051,-1.168l1.113,2.321l2.718,-8.268Zm0.508,1.681c-0.311,0 -0.534,0.255 -0.534,0.567c0,0.312 0.254,0.562 0.565,0.562c0.311,0 0.561,-0.25 0.561,-0.562c0,-0.312 -0.281,-0.567 -0.592,-0.567Zm84.521,0.5c-0.311,0 -0.564,0.255 -0.564,0.567c0,0.312 0.253,0.562 0.564,0.562c0.311,0 0.565,-0.25 0.565,-0.562c0,-0.312 -0.254,-0.567 -0.565,-0.567Zm-11.2,2.601l-0.755,-2.128l-3.007,7.805l8.087,-3.716l-2.567,-0.604l0.046,-2.038l-1.804,0.681Zm-8.216,-1.68c-0.093,-0.005 -0.174,0.02 -0.174,0.081c0,0.18 -2.066,2.206 -2.066,2.206l-23.869,0.221c0.049,0.003 1.987,0.541 1.987,0.541c3.131,2.509 8.037,6.96 8.037,6.96l5.926,-0.237c3.281,-3.231 8.212,-5.688 10.41,-9.679c-0.053,-0.054 -0.159,-0.088 -0.251,-0.093Zm22.373,1.609c-0.311,0 -0.564,0.254 -0.564,0.566c0,0.312 0.253,0.562 0.564,0.562c0.311,0 0.561,-0.25 0.561,-0.562c0,-0.312 -0.25,-0.566 -0.561,-0.566Zm-18.425,2.725c-0.311,0 -0.56,0.25 -0.56,0.562c0,0.312 0.249,0.566 0.56,0.566c0.311,0 0.565,-0.254 0.565,-0.566c0,-0.312 -0.254,-0.562 -0.565,-0.562Zm12.117,0.817c1.711,-0.009 3.359,0.05 3.785,0.377c2.645,2.233 1.391,12.673 -1.942,13.991c-3.657,0.825 -6.187,0.979 -9.362,-1.122c-0.9,-0.44 -2.687,-1.771 -2.338,-2.869c0.475,-1.35 1.783,-1.252 5.533,-0.082c1.369,0.428 2.121,0.342 2.471,0.074c0.326,-0.25 -0.101,-0.529 -0.801,-0.531c-0.281,-0.001 -1.494,-0.301 -2.505,-0.613c-1.428,-0.44 -1.838,-0.57 -2.761,-0.624c-1.552,-0.093 -2.003,-0.154 -2.003,-1.106c0,-1.778 2.465,-2.013 7.003,-0.969c0.542,0.124 1.525,0.263 1.767,0.256c0.175,0.066 -0.346,-0.59 -0.433,-0.982c-0.164,-0.14 -0.457,-0.206 -1.23,-0.232c-2.918,-0.287 -5.34,-0.486 -5.392,-0.869c-0.258,-1.882 3.516,-2.395 7.43,-0.884c1.005,0.387 1.024,0.227 1.017,-0.066c-0.015,-0.543 -1.697,-1.49 -4.178,-1.464c-2.413,0.026 -2.077,-1.205 -0.093,-2.129c0.678,-0.316 2.321,-0.147 4.032,-0.156l0,0Zm-9.333,2.017c-0.311,0 -0.56,0.254 -0.56,0.566c0,0.313 0.249,0.567 0.56,0.567c0.311,0 0.565,-0.254 0.565,-0.567c0,-0.312 -0.254,-0.566 -0.565,-0.566Zm-8.696,3.906l-0.51,-2.109l-3.284,8.207l8.294,-4.236l-2.735,-0.515l0.24,-1.727l-2.005,0.38Zm-4.226,3.296c-0.311,0 -0.564,0.254 -0.564,0.566c0,0.312 0.253,0.566 0.564,0.566c0.311,0 0.561,-0.254 0.561,-0.566c0,-0.312 -0.25,-0.566 -0.561,-0.566Zm8.263,2.328l-0.698,-1.994l-2.789,7.144l7.077,-3.171l-2.09,-0.572l0.297,-2.165l-1.797,0.758Zm-5.634,0.021c-0.311,0 -0.564,0.254 -0.564,0.566c0,0.312 0.253,0.567 0.564,0.567c0.311,0 0.561,-0.255 0.561,-0.567c0,-0.312 -0.25,-0.566 -0.561,-0.566Zm1.812,2.729c-0.311,0 -0.564,0.25 -0.564,0.562c0,0.312 0.253,0.566 0.564,0.566c0.311,0 0.561,-0.254 0.561,-0.566c0,-0.312 -0.25,-0.562 -0.561,-0.562Zm-3.557,1.673l-2.388,6.766l6.65,-3.229l-1.943,-0.642c0,0 0.107,-1.522 -0.076,-1.451c-0.116,0.045 -1.368,0.395 -1.368,0.395l-0.875,-1.839Zm5.92,0.809c-0.312,0 -0.565,0.25 -0.565,0.562c0,0.313 0.253,0.567 0.565,0.567c0.311,0 0.564,-0.254 0.564,-0.567c0,-0.312 -0.253,-0.562 -0.564,-0.562Zm-8.817,3.255c-0.311,0 -0.564,0.254 -0.564,0.566c0,0.313 0.253,0.567 0.564,0.567c0.311,0 0.565,-0.254 0.565,-0.567c0,-0.312 -0.254,-0.566 -0.565,-0.566Zm2.542,2.618c-0.311,0 -0.564,0.25 -0.564,0.562c0,0.313 0.253,0.567 0.564,0.567c0.311,0 0.565,-0.254 0.565,-0.567c0,-0.312 -0.254,-0.562 -0.565,-0.562Zm-35.075,31.163c-0.304,0.046 -1.096,-0.68 -1.25,-1.021c0.451,-0.114 0.917,-0.03 1.17,0.182c0.208,0.199 0.356,0.709 0.08,0.839Zm2.408,-0.489c-0.107,0.827 0.403,2.322 0.306,2.677c-0.261,0.128 -1.584,-1.295 -1.91,-1.641c-0.068,-0.472 0.008,-1.072 0.031,-1.343c0.455,-0.081 1.261,-0.051 1.573,0.307l0,0Zm2.383,0.412c0.282,1.832 1.086,4.777 0.96,5.77c-0.119,-0.095 -1.139,-1.104 -1.892,-2.174c-0.265,-0.64 -0.678,-2.87 -0.642,-3.938c0.508,-0.069 1.189,0.012 1.574,0.342Zm-15.96,-0.206c-0.813,0.416 -1.738,0.715 -2.899,0.71c-0.931,-0.004 -2.535,-0.488 -2.372,-0.369c0.424,0.761 1.531,0.362 1.552,0.859c-0.275,0.491 -1.011,0.444 -1.377,0.914c-0.077,0.125 0.108,0.23 0.627,0.176c1.572,-0.716 3.627,-0.703 5.507,-0.083c0.396,0.083 0.136,-0.297 0,-0.398c-0.244,-0.179 -0.647,-0.368 -0.987,-0.409c-1.643,-0.293 -0.921,-0.458 0.178,-0.951c0.806,-0.296 1.009,-1.023 -0.23,-0.449l0.001,0Zm3.559,2.327c-0.218,0.017 -0.765,0.296 -1.365,0.539c-1.011,0.411 -1.948,0.315 -3.309,-0.066c-1.183,-0.33 -1.614,-0.238 -2.791,0.357c-0.781,0.502 -1.636,0.642 -2.255,0.291c-0.802,-0.457 -0.797,-0.301 -0.399,0.83c0.099,0.282 -0.097,1.137 0.252,1.334c0.265,0.15 0.572,-0.349 0.777,-0.419c0.205,-0.069 1.496,0.512 2.216,-0.128c1.284,-0.467 1.67,0.291 2.559,0.218c1.444,-0.511 2.348,-1.043 3.588,-0.057c0.074,-0.37 0.362,-2.386 0.824,-2.864c-0.012,-0.028 -0.046,-0.039 -0.097,-0.035l0,0Zm-2.63,5.806c-1.039,0.013 -1.602,0.653 -2.942,0.531c-1.07,-0.076 -1.436,0.876 -0.983,1.57c0.319,0.489 0.747,0.579 2.205,-0.092c0.601,-0.276 1.435,-0.883 1.922,-0.834c1.427,0.143 1.772,1.527 0.584,2.696c-0.578,0.341 -0.584,0.711 -0.407,0.718c0.47,0.018 1.421,-0.545 1.637,-1.201c0.591,-1.797 -0.472,-3.42 -2.016,-3.388Zm4.662,8.28c-1.352,0.286 -3.301,1.842 -3.963,2.85c-0.62,0.982 -1.213,2.092 -0.78,2.641c0.355,0.449 0.851,0.886 0.894,1.13c0.037,0.213 -0.253,0.424 -0.524,0.729c-1.188,1.332 -0.905,1.405 0.76,0.54c0.843,-0.438 1.236,-0.614 1.786,-0.47c1.605,0.42 3.603,0.121 4.961,-0.38c0.614,-0.226 1.214,-0.533 1.261,-0.376c-2.48,2.736 -5.57,2.047 -6.674,1.881c-0.192,-0.05 -0.341,-0.039 -0.34,0.027c0,0.133 0.319,0.422 1.001,0.725c1.139,0.507 3.876,-0.032 5.587,-1.284c3.384,-2.22 5.25,-4.342 2.583,-3.455c-1.223,0.406 -1.681,0.335 -3.167,-0.338c-2.226,-1.008 -3.932,-1.304 -5.776,-0.659c-2.336,0.817 -0.545,-1.114 2.084,-2.789c0.569,-0.363 0.64,-0.778 0.307,-0.772l0,0Zm-12.602,5.772l-0.779,0.012c-0.557,-1.883 -1.904,-1.879 -2.487,0.011l-0.65,-0.046c0.637,-2.346 3.045,-2.829 3.916,0.023Zm13.858,0.155l-0.585,0.027c-0.355,-1.14 -1.606,-2.143 -2.487,-0.275l-0.406,-0.084c0.72,-2.984 3.593,-1.324 3.478,0.332Zm-3.902,-1.714c0.364,0 0.457,0.415 0.042,1.089c-0.292,0.476 -0.638,0.432 -0.986,0.074c-0.314,-0.315 -0.295,-0.371 0.046,-0.682c0.364,-0.333 0.679,-0.481 0.897,-0.481l0.001,0Zm4.311,0.011c0.158,-0.004 0.46,0.126 0.797,0.241c0.889,0.301 1.09,0.55 0.726,0.915c-0.357,0.359 -1.036,0.467 -1.349,0.263c-0.015,-0.448 -0.457,-0.793 -0.472,-1.244c0,-0.12 0.139,-0.17 0.298,-0.175Zm-13.916,0.016c0.616,-0.028 1.442,0.337 1.381,0.694c-0.065,0.39 -0.673,0.645 -1.174,0.687c-0.335,0.044 -0.322,-0.092 -0.41,-0.331c-0.078,-0.214 -0.179,-0.486 -0.236,-0.699c-0.138,-0.409 0.124,-0.339 0.439,-0.351Zm-4.212,0.135c0,0 -0.345,1.03 -0.499,1.381c-1.289,-0.069 -1.167,-0.639 -0.558,-1.051c0.327,-0.25 0.658,-0.255 1.057,-0.33Zm-1,2.448c0.233,0.004 0.523,0.206 0.928,0.337c1.141,0.369 3.037,0.327 4.516,-0.015c0.708,-0.164 1.043,-0.384 1.199,-0.272c0.277,0.201 -0.01,0.903 -1.033,1.354c-1.332,0.493 -3.364,0.76 -4.903,-0.027c-1.316,-0.674 -1.462,-1.391 -0.707,-1.377l0,0Zm-0.352,1.474c1.207,0.799 2.415,1.052 3.909,0.913c2.236,-0.082 2.634,-0.359 0.75,0.642c-1.741,0.925 -4.424,0.754 -4.941,-0.248c-0.296,-0.575 -0.105,-1.259 0.282,-1.307Zm10.834,1.342c-0.008,0 -0.013,0.001 -0.019,0.004c0.18,1.21 2.206,2.317 3.178,2.579c2.063,0.918 5.342,0.009 7.811,-1.059c1.802,-0.78 2.452,-1.957 0.305,-1.288c-3.455,1.077 -7.791,1.158 -9.963,0.322c-0.707,-0.336 -1.191,-0.564 -1.312,-0.558l0,0Zm-11.369,4.531c4.324,0.979 9.549,7.667 9.53,10.591l-1.397,0c-2.125,-7.439 -7.646,-9.049 -8.185,-9.493c-0.248,-0.913 0.063,-1.12 0.053,-1.098l-0.001,0Zm-0.069,1.884c5.138,2.258 6.966,6.285 7.735,8.707l-1.502,0c-1.119,-3.332 -3.131,-5.708 -6.244,-7.187c-0.211,-0.464 0.012,-1.52 0.012,-1.52l-0.001,0Zm-0.008,2.28c2.633,0.779 4.955,4.255 5.615,6.427l-1.315,-0.008c-0.932,-2.423 -2.252,-3.977 -4.35,-4.872c-0.087,-0.456 -0.069,-0.972 0.051,-1.547l-0.001,0Zm-0.042,2.362c1.236,0.25 3.33,2.177 3.631,4.065l-1.207,0c-0.425,-1.273 -1.74,-2.435 -2.415,-2.909c0,-0.232 -0.009,-1.156 -0.009,-1.156l0,0Zm0.127,2.015c0.133,-0.083 1.978,1.584 1.667,2.05l-1.663,0c-0.019,-0.519 -0.031,-2.055 -0.008,-2.05l0.004,0Z" style="fill:#131f67;fill-rule:nonzero;"/><path id="path4071-9-6-8" d="M97.501,20.798c-3.134,6.087 -19.212,33.506 -19.375,34.46l4.118,1.827l19.989,-36.148c0,0 -4.142,-0.135 -4.732,-0.139Zm47.3,22.948l-1.742,2.482l1.413,2.839l1.713,-2.707l-1.384,-2.614Zm-73.545,27.46c0,0 -5.766,5.745 -8.019,8.425c4.844,4.847 14.101,10.933 14.169,20.298l6.382,0.025l20.659,18.534c0,0 18.708,0.137 19.057,0.055c0.377,-0.088 7.023,-9.631 7.023,-9.631l11.855,8.669c0,0 -0.568,-9.337 -1.016,-15.058c-0.147,-3.827 -0.273,-6.18 2.515,-7.874c-3.831,-1.832 -3.589,-5.2 -0.771,-7.673c-0.93,-1.289 -2.319,-1.527 -2.528,-6.098c-0.586,-0.63 -1.142,-1 -1.875,-1.536l-0.766,0.687c-2.459,2.215 -4.135,4.474 -4.411,5.946c-0.526,2.799 2.309,4.717 3.947,2.672c0.462,-0.577 0.874,-0.415 0.874,0.337c0,1.527 -1.914,2.389 -3.534,1.594c-0.378,-0.185 -0.712,-0.309 -0.746,-0.275c-0.059,0.059 1.607,4.151 2.057,5.053c0.749,1.502 1.141,3.01 1.199,4.589c0.061,1.685 0.028,1.901 -0.758,4.813c-0.741,2.743 -0.392,4.375 0.932,4.375c0.745,0 0.721,0.718 -0.032,0.981c-1.599,0.559 -2.592,-0.623 -2.648,-3.149c-0.035,-1.536 -0.061,-1.573 -0.847,-1.203c-2.736,1.29 -5.707,-1.015 -4.42,-3.428c0.271,-0.507 0.59,-0.347 0.758,0.376c0.315,1.357 1.024,1.956 2.305,1.951c2.952,-0.011 4.189,-4.195 2.486,-8.409c-0.342,-0.845 -0.514,-0.797 -0.963,0.272c-0.704,1.677 -1.884,2.171 -2.857,1.194c-0.326,-0.327 -0.484,-0.858 -0.263,-0.884c0.051,-0.006 0.376,-0.02 0.719,-0.031c1.72,-0.055 2.314,-1.729 1.508,-4.247c-0.708,-2.212 -0.818,-2.613 -1.029,-3.812c-0.325,-1.853 -0.098,-3.26 0.816,-5.058c0.162,-0.317 1.171,-1.448 2.425,-2.718c1.28,-1.298 2.382,-2.293 2.382,-2.293c-1.22,-1.022 -2.327,-1.827 -3.703,-2.855c0,0 -8.791,24.213 -8.169,33.646c-1.115,12.43 -10.225,8.991 -10.895,0.383l-43.818,-38.643Zm-0.392,3.63c3.005,-0.05 4.985,3.935 6.117,12.205c0.375,2.741 2.04,6.579 3.248,7.485c3.048,2.289 7.818,0.525 7.822,-2.893c0.008,-4.255 -5.952,-4.886 -6.044,-0.64c-0.021,1.001 -0.533,1.053 -1.024,0.101c-0.438,-0.849 -0.044,-2.437 0.808,-3.238c0.546,-0.514 0.503,-0.611 -0.538,-1.187c-3.623,-2.007 -5.165,-4.999 -3.228,-6.272c0.847,-0.556 2.004,0.147 1.473,0.896c-0.83,1.17 -0.841,1.356 -0.147,2.327c0.788,1.105 1.723,1.656 3.94,2.312c1.861,0.551 2.168,0.654 3.028,1.047c2.517,1.151 3.666,3.684 2.787,6.144c-0.207,0.58 -0.408,1.152 -0.448,1.272c-0.09,0.27 0.058,0.271 1.829,0.035c2.819,-0.377 5.95,0.633 7.493,2.416c0.83,0.958 1.495,3.112 1.516,4.91c0.008,0.346 0.11,1.128 0.24,1.737c0.129,0.61 0.301,1.64 0.379,2.289c0.737,6.152 5.843,9.298 8.05,4.96c1.388,-2.73 -1.823,-5.461 -3.457,-2.94c-0.574,0.886 -1.166,0.479 -0.835,-0.574c0.643,-2.045 3.188,-2.392 4.922,-0.671c0.937,0.931 1.387,3.043 0.932,4.383c-0.239,0.703 -0.214,0.748 0.305,0.566c1.165,-0.407 3.179,-0.015 3.902,0.76c1.702,1.828 1.361,4.021 -0.735,4.732c-0.953,0.32 -2.032,-0.012 -2.386,-1.132c-0.155,-0.799 0.393,-1.028 0.816,-0.342c0.793,1.287 2.519,0.25 2.111,-1.268c-0.463,-1.727 -1.935,-2.093 -4.651,-1.156c-4.318,1.491 -5.712,1.366 -7.78,-0.694c-1.476,-1.471 -2.03,-2.741 -2.428,-5.546c-0.439,-3.097 -0.481,-3.177 -1.245,-2.525c-3.654,3.119 -8.482,-1.594 -5.386,-4.693c0.957,-0.96 1.662,-0.123 0.8,0.95c-1.257,1.568 0.382,3.751 2.436,3.243c3.741,-0.926 2.977,-6.416 -1.071,-7.699c-1.234,-0.391 -4.623,-0.229 -7.23,0.345c-7.28,1.603 -10.496,-1.514 -11.994,-11.612c-0.175,-1.18 -0.38,-2.052 -1.071,-4.592c-0.821,-3.013 -3.61,-4.649 -5.131,-3.009c-1.214,1.307 -0.576,3.067 1.113,3.071c1.684,0.004 1.168,1.162 -0.588,1.319c-3.046,0.271 -3.576,-4.814 -0.653,-6.272c0.713,-0.355 1.379,-0.54 2.003,-0.55l0,0Zm-39.804,1.827l0.994,3.669l3.764,1.067l-1.193,-3.444l-3.565,-1.292Zm9.706,1.13l-1.01,3.275l2.803,-0.979l0.981,-3.138l-2.774,0.842Zm30.964,5.362c0.598,0 1.083,0.486 1.083,1.086c0,0.6 -0.485,1.086 -1.083,1.086c-0.598,0 -1.083,-0.486 -1.083,-1.086c0,-0.6 0.485,-1.086 1.083,-1.086Zm-35.984,1.904l-3.27,1.092l-0.571,2.596l3.005,-0.677l0.836,-3.011Zm6.829,1.173l-2.349,-0.722l0.556,2.681l2.568,1.053l-0.775,-3.012Zm105.214,-0.508l-1.559,1.217c4.545,3.963 -0.361,7.782 -0.514,7.523c3.286,2.182 2.701,5.623 2.275,8.773c-0.778,5.621 -1.081,10.937 -1.93,16.697c0,0 3.959,2.74 6.593,3.801c0.049,0.006 0.016,-33.796 0.016,-33.796l-4.881,-4.215Zm-56.092,5.091c0.598,0 1.083,0.486 1.083,1.086c0,0.6 -0.485,1.086 -1.083,1.086c-0.598,0 -1.083,-0.486 -1.083,-1.086c0,-0.6 0.485,-1.086 1.083,-1.086Zm-66.46,2.779l0.136,31.543l6.509,-11.675l-4.479,-5.182l3.871,-4.146c-2.281,-3.378 -4.145,-6.966 -6.037,-10.54Zm63.382,4.807c0.598,0 1.083,0.486 1.083,1.086c0,0.6 -0.485,1.086 -1.083,1.086c-0.598,0 -1.082,-0.486 -1.082,-1.086c0,-0.6 0.484,-1.086 1.082,-1.086Zm14.778,3.227c0.598,0 1.083,0.486 1.083,1.086c0,0.6 -0.485,1.086 -1.083,1.086c-0.598,0 -1.082,-0.486 -1.082,-1.086c0,-0.6 0.484,-1.086 1.082,-1.086Zm42.331,35.138l4.782,4.923l-3.785,4.664l5.931,10.01l-0.095,-30.97l-6.833,11.373Zm-120.551,-10.359l0.227,33.926l5.113,3.741l1.296,-1.228c-3.299,-3.534 -1.328,-6.163 1.159,-7.685c-4.388,-1.024 -3.056,-6.862 -2.794,-9.567c-0.107,-5.022 1.728,-10.752 1.163,-15.58l-6.164,-3.607Zm29.446,4.716l-7.328,10.241c0,0 -8.052,-6.118 -12.111,-8.878c0.434,4.419 0.83,10.057 1.369,14.81c1.317,6.941 -2.111,7.061 -2.143,7.725c5.449,4.148 0.876,8.026 0.056,7.831c2.902,1.585 2.663,6.399 2.663,6.399l1.376,0.781c0,0 0.448,-0.274 0.638,-0.376c1.471,-0.795 3.87,-3.625 4.419,-5.492c0.932,-3.167 -1.81,-5.797 -3.534,-3.39c-0.847,1.182 -1.525,0.392 -0.831,-0.97c0.633,-1.242 2.287,-1.866 3.387,-1.276c0.639,0.344 0.496,-0.547 -0.491,-3.04c-0.331,-0.837 -0.601,-1.749 -1.067,-3.6c-0.451,-1.789 -0.276,-3.947 0.506,-6.143c1.128,-3.166 0.728,-5.152 -1.079,-5.325c-0.963,-0.093 -1.068,-0.395 -0.282,-0.842c1.755,-0.996 3.456,0.423 3.387,2.828c-0.037,1.3 -0.023,1.322 0.662,1.047c3.462,-1.393 6.198,2.211 3.777,4.976c-0.74,0.845 -1.206,0.309 -0.719,-0.826c0.752,-1.754 0.036,-3.004 -1.724,-3.018c-2.554,-0.019 -3.968,3.52 -2.962,7.412c0.314,1.215 0.362,1.23 1.21,0.419c0.753,-0.72 1.315,-0.951 1.898,-0.776c1.209,0.363 1.526,1.653 0.368,1.493c-1.991,-0.274 -2.514,1.818 -1.388,5.539c1.494,4.937 -0.019,8.96 -4.439,11.821c-0.224,0.145 -0.58,0.423 -0.58,0.423c1.705,1.524 2.796,2.39 5.049,3.766l8.044,-32.604c0,0 -0.136,-1.852 -0.333,-2.725c-0.008,-8.751 8.133,-9.589 10.681,-1.643c0.245,0.763 1.54,2.711 1.54,2.711l42.38,37.723c0,0 7.912,-7.669 7.803,-7.872c-6.01,-6.077 -14.128,-10.373 -14.424,-20.015c-1.44,-0.041 -6.255,0.048 -6.255,0.048l-20.608,-18.959c-6.467,0.042 -12.203,-0.422 -18.915,-0.223l0,0Zm11.547,0.71c1.132,-0.036 2.273,0.554 2.273,1.501c0,0.817 -0.545,1.004 -0.997,0.341c-0.632,-0.926 -1.365,-1 -2.111,-0.213c-2.069,2.181 1.145,4.174 4.841,3.002c2.263,-0.718 3.358,-0.911 4.187,-0.745c3.491,0.703 5.177,3.066 5.475,7.668c0.152,2.34 0.147,2.331 1.156,1.404c2.456,-2.257 6.005,-1.001 6.558,2.323c0.237,1.427 -1.294,3.223 -2.749,3.223c-0.571,0 -0.48,-0.598 0.135,-0.892c1.48,-0.708 1.539,-3.049 0.101,-3.964c-1.909,-1.214 -4.424,0.68 -4.393,3.309c0.038,3.159 2.391,4.615 7.038,4.347c0.68,-0.039 2.388,-0.119 3.793,-0.178c2.219,-0.095 4.605,-0.514 6.867,1.198c2.368,1.89 3.94,5.646 4.612,11.073c1.06,6.68 1.878,8.47 4.115,8.631c1.326,0.095 2.451,-1.039 2.451,-2.355c0,-0.929 -1.224,-1.747 -2.154,-1.439c-1.122,0.371 -1.348,-0.848 -0.243,-1.311c1.531,-0.642 3.4,0.595 3.816,2.525c0.242,1.125 -1.023,3.282 -2.351,3.821c-3.462,1.404 -5.925,-1.465 -6.736,-7.886c-0.497,-2.945 -0.77,-4.93 -1.685,-7.447c-1.68,-4.632 -4.441,-6.543 -7.447,-5.158c-3.405,1.569 -2.729,6.682 0.877,6.644c1.982,0.157 2.397,-1.303 2.438,-2.867c0.046,-1.153 1.349,-0.07 1.461,0.723c0.107,0.963 -0.754,2.155 -1.514,2.719c-1.227,0.824 -0.791,0.773 0.465,1.104c3.376,0.624 5.885,5.105 3.867,6.627c-1.049,0.641 -2.163,-0.303 -1.436,-1.23c1.156,-1.474 -0.801,-3.804 -4.362,-4.586c-4.664,-1.025 -6.522,-4.508 -4.839,-8.087c0.556,-1.184 0.605,-1.156 -1.671,-1.027c-5.006,0.283 -6.783,-0.411 -8.464,-3.32c-0.507,-0.878 -0.731,-2.053 -0.839,-4.387c-0.193,-4.178 -0.573,-6.765 -1.098,-7.493c-2.599,-3.606 -8.007,-2.527 -7.331,1.462c0.355,2.095 2.513,2.767 3.987,1.241c1.112,-1.152 1.631,-0.081 0.545,1.125c-2.614,2.902 -7.163,-0.486 -5.812,-4.328c0.31,-0.88 0.351,-0.852 -1.326,-0.9c-3.731,-0.108 -5.506,-3.31 -3.101,-5.589c0.421,-0.399 1.008,-0.59 1.601,-0.609Zm9.001,13.745c0.598,0 1.083,0.486 1.083,1.086c0,0.6 -0.485,1.086 -1.083,1.086c-0.598,0 -1.082,-0.486 -1.082,-1.086c0,-0.6 0.484,-1.086 1.082,-1.086Zm14.999,3.855c0.598,0 1.082,0.487 1.082,1.086c0,0.6 -0.484,1.086 -1.082,1.086c-0.598,0 -1.083,-0.486 -1.083,-1.086c0,-0.599 0.485,-1.086 1.083,-1.086Zm-3.221,7.086c0.598,0 1.082,0.487 1.082,1.086c0.001,0.6 -0.484,1.086 -1.082,1.086c-0.598,0 -1.083,-0.486 -1.083,-1.086c0,-0.599 0.485,-1.086 1.083,-1.086Zm47.664,4.224l0.686,3.212l2.484,0.656l-0.387,-2.752l-2.783,-1.116Zm8.692,1.112l-0.054,1.904l2.211,0.261l0.781,-3.283l-2.938,1.118Zm-37.108,2.875c0.598,0 1.082,0.486 1.082,1.086c0,0.6 -0.484,1.086 -1.082,1.086c-0.598,0 -1.083,-0.486 -1.083,-1.086c0,-0.6 0.485,-1.086 1.083,-1.086Zm31.743,4.424l-2.599,0.723l-1.248,3.619l3.326,-1.208l0.521,-3.134Zm5.082,0.326l0.318,2.682l3.201,1.451l-1.082,-3.823l-2.437,-0.31Zm-47.182,22.859l-19.872,36.036l5.43,-0.075l18.757,-33.98l-4.315,-1.981Zm-62.501,8.724l-1.756,2.37l1.667,2.75l1.914,-2.762l-1.825,-2.358Z" style="fill:#d40000;fill-rule:nonzero;"/><path id="path4069-2-6-0" d="M67.108,19.896c3.659,11.127 3.999,22.093 0.823,32.63c1.809,0.092 9.702,2.122 14.047,4.812c-0.804,2.074 -13.121,17.268 -21.482,24.117c2.376,2.361 4.992,4.721 7.741,7.323c4.157,3.956 5.626,6.681 5.9,11.817c-0.037,2.48 -0.923,5.54 -2.498,7.707c-1.19,1.637 -2.453,2.896 -4.987,4.58c-2.339,1.553 -5.756,4.896 -10.054,9.824c-1.638,1.879 -4.403,5.301 -6.693,8.564c-0.866,1.186 -3.417,4.887 -3.417,4.887c-8.51,-6.965 -17.623,-12.338 -17.857,-12.297c0,0 9.195,-4.915 11.128,-5.917c1.486,0.957 3.504,0.139 2.535,-1.966c-1.861,-4.789 -0.563,-9.718 1.723,-13.159c0.547,-0.83 1.865,-1.313 3.998,-1.463c0.925,-0.06 1.904,-0.03 2.884,-0.042c0.354,0 1.307,0.136 1.829,0.422c1.738,0.952 2.086,-0.272 3.171,-4.394c1.078,-4.101 -0.657,-9.287 -3.132,-9.304c-0.582,-0.004 -0.909,0.211 -0.789,1.67c0.091,1.102 -0.173,1.673 -0.456,2.367c-0.618,1.516 -0.946,2.999 -1.142,4.976c0.362,0.074 -2.297,-2.654 -6.487,-3.735c-2.723,-0.323 -4.105,-3.723 -3.991,-3.731c0,0 0.408,-0.921 0.766,-1.28c0.93,0.447 1.844,0.971 2.946,1.296c0,0 -0.254,-1.366 -0.351,-1.734c-0.506,-1.9 -0.479,-2.189 0.251,-2.583c1.81,-0.977 2,-2.726 0.588,-4.317c-0.357,-0.406 -0.658,-0.667 -1.137,-0.872l0.893,-3.568c0,0 -0.818,0.176 -1.473,0.376c-1.894,0.577 -1.753,0.596 -2.56,-0.326c-1.757,-2.007 -4.44,-1.625 -4.841,0.69c-0.044,0.256 -0.162,0.664 -0.162,0.664l-4.039,-1.966c0.118,0.95 1.167,4.169 1.167,4.169c-3.534,2.753 -0.548,5.192 0.416,5.449c0,0 -0.825,2.636 -1.109,3.731l3.986,-1.143c0.335,0.762 0.748,1.34 1.577,1.874c0.216,2.249 1.944,4.062 3.134,5.153c0,0 0.172,0.823 0.068,1.349c-0.257,1.308 1.068,3.379 1.293,3.502c-5.471,-2.244 -11.173,-4.937 -16.678,-7.582l0.344,67.869c0,0 1.282,1.151 3.824,2.978c1.222,0.878 1.221,0.881 0.967,1.893c-0.335,1.334 -0.252,2.352 0.882,11.131c0.6,4.643 1.254,9.458 1.84,13.776c0.232,1.573 0.265,2.582 0.265,2.582c-1.215,-0.564 -2.985,-0.622 -3.9,0.408c-1.577,1.803 -0.315,4.705 2.023,4.643c0.531,-0.033 0.891,-0.187 1.349,-0.5c0.317,-0.171 0.643,-0.022 0.643,-0.022l-3.488,6.148l4.016,6.781l4.006,-7.252l-2.913,-5.737c0,0 0.284,-0.032 0.679,0.167c0.391,0.197 0.918,0.347 1.283,0.368c2.033,0.016 2.45,-0.914 2.664,-2.587c0,-2.153 -1.708,-3.126 -4.06,-2.315c-0.369,0.128 -0.777,0.163 -0.777,0.163l2.467,-23.67l1.322,0.973l0.434,-0.236l-1.157,-0.989c0.251,-3.793 -0.996,-5.136 -2.343,-6.054c4.505,-2.571 2.553,-6.634 -0.443,-7.885c0,0 1.946,-1.141 2.336,-2.338c0.333,-1.07 0.208,-2.767 -0.168,-5.776c-0.282,-4.64 -1.276,-14.226 -1.276,-14.226c3.936,2.977 7.977,6.163 11.777,9.172l7.618,-10.619l18.358,0.128c0,0 13.953,12.708 20.976,19.187l6.063,0.054c0,0 0.067,0.65 0.128,1.082c0.575,6.275 4.771,10.584 8.591,13.606c1.558,1.403 5.406,5.088 5.406,5.088l-7.134,7.214l-43.685,-39.137c0,0 -0.209,-0.571 -0.294,-0.919c-1.008,-4.145 -3.746,-5.881 -6.236,-5.589c-2.613,0.307 -4.841,2.887 -4.729,7.28c0.017,0.679 0.263,1.877 0.263,1.877l-7.981,33.343c0,0 -3.191,-2.444 -4.914,-3.619l-0.379,0.221l4.671,3.522l0.348,-0.151l1.326,1.039l0.1,0.71c4.087,2.788 11.016,7.993 11.016,7.993c3.271,-2.438 6.71,-1.623 10.154,-0.706c0,0 2.504,0.84 3.836,0.834c6.767,0.153 12.76,1.471 19.05,3.751l-22.929,40.77l43.677,0.089c-2.153,-8.533 -4.44,-17.201 -0.352,-31.757c-4.307,-0.872 -13.884,-4.716 -13.884,-4.716c0,0 -0.046,-0.218 0.359,-0.717c1.771,-2.54 6.248,-9.424 10.444,-13.404c0.511,-0.367 7.824,-7.485 7.895,-7.71c0.04,-0.127 0.216,-0.607 0.503,-0.796c0.674,-0.451 2.466,-2.15 2.466,-2.15l-9.152,-7.961c0,0 -0.403,-0.039 -0.533,-0.112c-1.278,-0.717 -3.585,-4.715 -4.153,-7.392c-1.306,-6.158 1.107,-11.028 7.915,-16.026c6.648,-4.566 19.253,-22.288 19.295,-22.681c6.797,5.644 12.103,8.566 18.083,12.268c-3.612,2.079 -6.558,3.469 -9.086,4.844c-1.64,0.938 -1.866,1.134 -3.252,0.74c-1.57,0.013 -2.107,0.62 -1.709,1.978c2.377,3.768 1.357,12.539 -1.857,14.229c-2.79,1.468 -5.502,1.07 -7.743,0.238c-1.73,-0.556 -1.708,-0.562 -2.479,1.012c-1.697,3.625 -1.806,6.678 -0.24,10.154c1.285,2.791 3.195,4.063 3.43,0.3c0.139,-2.209 1.109,-4.791 1.079,-7.165c1.948,2.157 3.24,3.143 6.438,4.022c2.144,0.335 4.422,3.033 4.352,4.133c-0.589,0.597 -0.768,1.359 -0.864,1.305c-1.044,-0.342 -3.307,-1.308 -3.307,-1.308l0.963,3.413c0,0 -0.159,0.155 -0.622,0.392c-2.129,1.09 -1.992,4.035 0.243,5.213c0.455,0.24 0.488,0.352 0.294,0.981c-0.278,1.4 -0.888,2.34 -1.218,3.727c0,0 0.304,0.011 2.854,-1.171l1.001,-0.465l0.603,0.647c1.321,1.416 2.907,1.408 4.292,-0.023l0.634,-0.655l1.771,0.899c1.669,0.849 2.108,1.024 2.108,1.024c0,0 -0.963,-3.745 -1.141,-4.173c-0.097,-0.231 -0.293,-0.466 -0.437,-0.52c-0.238,-0.088 -0.2,-0.144 0.433,-0.647c1.605,-1.276 1.766,-3.037 0.398,-4.375c-0.521,-0.51 -0.587,-0.617 -0.587,-0.617l0.831,-3.471l-3.448,1.145c-0.543,-1.16 -1.408,-1.689 -1.954,-1.925c-0.058,-1.566 -0.254,-3.176 -2.938,-5.625c0.904,-0.828 -0.171,-2.825 -1.057,-4.022c1.51,0.508 5.285,2.11 5.285,2.11l0.57,-0.023l1.803,0.867l0.211,0.321c0,0 5.671,2.684 8.275,3.941c-0.008,-0.141 -0.027,-2.95 -0.034,-33.879c-0.008,-18.439 0.025,-33.606 -0.012,-33.703c-0.037,-0.097 -0.66,-0.577 -1.307,-1.067c-1.194,-0.904 -1.439,-1.08 -2.954,-2.094c-1.217,-0.814 -1.135,-0.807 -0.882,-1.745c0.29,-1.078 0.284,-2.559 -0.101,-5.333c-0.283,-2.048 -1.313,-9.251 -2.03,-15.064c-0.502,-4.078 -0.622,-4.983 -0.746,-5.639c-0.199,-1.652 0.015,-2.371 -0.021,-2.395c5.694,2.473 6.144,-5.731 0.435,-4.623c1.092,-2.209 2.012,-3.235 2.948,-5.595c-1.19,-2.571 -3.826,-6.919 -3.826,-6.919l-4.172,7.288l2.455,5.042c-2.824,-0.511 -4.323,1.552 -3.8,3.401c0.568,1.636 2.131,2.094 3.51,1.435c1.063,-0.42 1.062,-0.527 0.12,7.466c-0.278,2.363 -1.515,13.415 -1.686,15.06c-0.114,1.105 -0.185,1.411 -0.634,1.167c-0.608,-0.262 -0.955,-0.644 -1.566,-1.047l-0.34,0.318c0.542,0.441 1.184,1.011 1.84,1.616c-0.15,2.927 -0.091,4.623 2.338,6.051c-4.403,2.768 -1.828,7.027 0.758,7.643c-1.542,0.399 -3.062,2.388 -2.693,6.34l1.249,16.285l-11.937,-8.889l-7.006,10.056l-18.459,0.024l-20.821,-18.846c0,0 -4.565,-0.062 -6.438,-0.108c0.212,-0.099 -0.393,-5.826 -3.407,-9.564c-3.275,-3.906 -10.731,-10.354 -10.726,-10.356l7.83,-7.974l43.959,39.688c0,0 0.213,1.124 0.325,1.602c1.47,6.266 8.577,6.646 10.088,0.264c0.244,-1.031 0.539,-3.431 0.429,-3.716c-0.035,-0.092 0.186,-1.138 0.491,-2.327c2.364,-9.296 4.376,-17.316 6.701,-26.241c0.321,-1.229 0.66,-2.597 0.754,-3.041c0.383,-1.811 0.326,-1.8 2.216,-0.372c1.157,0.873 1.635,1.186 1.635,1.186l0.368,-0.384c-1.298,-1.007 -3.519,-2.614 -3.519,-2.614l0.023,-0.682c-7.137,-5.127 -8.607,-6.488 -12.833,-9.848c-3.274,2.893 -7.957,1.721 -10.892,0.699c-0.756,-0.299 -2.614,-0.784 -2.614,-0.784c-7.31,0.01 -13.732,-1.406 -19.797,-3.393l23.385,-41.771l-9.032,0l-0.315,0.355l-4.7,0l-0.015,-0.354l-30.782,0.002Zm86.24,137.379c0,0.025 0,0 0,0Zm-59.584,-136.436l3.198,0.062l-18.923,33.867l-2.011,-0.788c0,0 0.184,-0.097 0.182,-1.524c0,-1.532 -0.333,-2.186 -1.021,-3.091c-0.576,-0.783 -0.822,-0.826 0.866,-0.593c3.451,0.475 5.902,-3.287 4.532,-6.225c-0.529,-1.134 -0.455,-1.202 0.943,-1.342c3.848,-0.385 5.345,-5.282 2.622,-7.722c-0.563,-0.511 -0.312,-0.836 0.738,-0.609c3.33,0.721 5.909,-2.982 4.586,-5.884c-0.431,-0.809 -0.043,-0.943 0.565,-1.023c2.85,-0.671 3.82,-2.916 3.723,-5.128l0,0Zm-25.504,0.004l14.813,0.004c-1.993,3.058 1.526,4.869 1.972,4.654c-3.194,1.75 -2.317,4.216 -0.66,5.063c1.606,0.822 4.017,0.082 3.374,-3.476l0.793,-0.346c0.771,0.875 1.535,6.293 -4.342,5.539c-1.047,-0.134 -1.614,0.846 -0.739,1.388c4.644,5.356 -2.626,7.723 -2.942,6.834l-0.024,-0.906c1.966,0.363 4.482,-2.179 2.276,-4.438c-1.254,-1.284 -4.893,-0.658 -4.27,3.239c-2.149,-3.219 -4.494,-2.248 -5.126,-0.547c-0.491,1.318 0.133,3.124 2.276,3.43c-2.393,2.012 -1.231,4.256 0.414,4.751c1.816,0.547 3.671,-0.195 3.17,-3.504c0.029,-0.314 0.663,-0.212 0.716,-0.229c1.877,4.7 -2.611,6.427 -5.035,5.457c-0.898,-0.351 -1.367,1.038 -0.413,1.745c1.447,1.073 1,4.162 0.83,4.193c-2.691,-1.024 -6.547,-1.781 -6.403,-1.724c2.571,-10.2 2.405,-20.572 -0.68,-31.127l0,0Zm23.617,0.004l1.338,0.004c0.018,1.921 -0.814,4.286 -4.083,4.65c0.014,-0.515 -0.023,-1.003 -0.155,-1.547c1.226,-0.278 2.853,0.063 2.9,-3.107l0,0Zm5.843,0.105l4.272,0.019l-20.102,35.79l-3.213,-1.656l19.043,-34.153Zm-10.541,2.715c0.755,0 1.369,0.612 1.369,1.369c0,0.757 -0.614,1.373 -1.369,1.373c-0.755,0 -1.365,-0.616 -1.365,-1.373c0,-0.757 0.61,-1.369 1.365,-1.369Zm-8.568,15.607c0.699,0 1.264,0.567 1.264,1.268c0,0.701 -0.565,1.272 -1.264,1.272c-0.699,0 -1.264,-0.571 -1.264,-1.272c0,-0.701 0.565,-1.268 1.264,-1.268Zm66.176,1.012l3.403,5.942l-3.882,6.896l-3.24,-6.609l3.719,-6.229Zm-0.061,2.024l-2.394,3.964l2.173,4.061l2.471,-3.859l-2.25,-4.166Zm0.046,1.699l1.238,2.397l-1.505,2.432l-1.248,-2.572l1.515,-2.257Zm-3.298,8.052c0.257,0.001 0.532,0.056 0.816,0.174c2.292,0.961 1.562,4.456 -0.886,4.239c-0.323,-0.033 -0.747,-0.198 -1.055,-0.407c-1.698,-1.396 -0.676,-4.011 1.125,-4.006Zm5.603,0.066c2.004,0.036 3.212,2.834 1.102,4.142c-1.019,0.569 -2.541,0.224 -3.14,-0.787c-0.514,-0.868 -0.292,-2.314 0.858,-3.064c0.411,-0.21 0.808,-0.298 1.18,-0.291Zm-2.784,3.991c0.2,0.017 0.418,0.993 0.618,2.687c0.073,0.615 0.268,2.151 0.434,3.413c0.315,2.701 0.64,5.216 0.92,7.819c0.055,0.512 0.193,1.601 0.305,2.42c1.16,8.456 1.423,11.157 1.149,11.876c-0.732,2.521 -4.162,2.714 -5.595,1.249c-1.084,-1.107 -1.243,-2.323 -0.816,-5.492c0.246,-1.829 0.347,-2.75 1.071,-9.742c0.169,-1.639 0.414,-3.817 0.545,-4.841c0.287,-2.736 0.626,-5.3 0.998,-7.997c0.107,-0.965 0.234,-1.404 0.371,-1.392Zm-56.178,6.283c0,0 10.987,3.632 19.345,3.467c1.227,-0.001 1.426,-0.012 2.954,0.489c0.906,0.296 2.331,0.699 3.167,0.892c2.577,0.5 4.841,0.359 6.847,-0.462c0.315,-0.129 0.778,-0.517 1.245,-0.376c0.285,0.086 0.7,0.655 0.7,0.655c-7.318,1.95 -24.439,1.59 -35.097,-2.916l0.839,-1.749Zm56.445,1.155c-0.046,0.008 -0.094,0.071 -0.147,0.156c-0.179,0.283 -0.032,2.144 0.634,8.063c1.27,11.306 1.265,11.548 -0.275,12.737c-0.757,0.584 -0.874,0.819 -0.51,1.031c0.271,0.159 0.249,0.158 0.8,0.004c1.296,-0.361 1.832,-1.392 1.821,-3.498c-0.008,-1.605 -0.027,-1.799 -0.525,-5.744c-0.173,-1.365 -0.409,-3.292 -0.526,-4.282c-0.834,-7.043 -1.026,-8.507 -1.272,-8.466l0,-0.001Zm-57.551,1.183c10.938,3.929 22.366,5.042 36.141,2.921c0,0 1.325,0.861 1.992,1.284l-0.464,0.108l0.208,1.908l2.34,-0.376c0,0 1.265,1.009 2.208,1.629c-12.283,3.762 -32.12,3.114 -44.358,-2.342c-0.466,-0.27 -0.739,-0.485 -0.739,-0.485c0.264,-0.651 0.584,-1.037 0.909,-1.4l2.235,0.64l0.646,-2.044l-1.709,-0.625l0.591,-1.218Zm2.865,2.448l-0.715,2.013l3.124,0.93l0.534,-2.055l-2.943,-0.888Zm4.78,1.245l-0.414,2.292l3.136,0.582l0.39,-2.231l-3.112,-0.643Zm5.189,1.074l-0.248,2.211l3.325,0.353l0.205,-2.238l-3.282,-0.326Zm22.855,0.035l-2.83,0.31l0.177,1.947l2.862,-0.337l-0.209,-1.92Zm-4.992,0.562l-2.807,0.186l0.097,2.041l2.822,-0.179l-0.112,-2.048Zm-12.647,0.043l0,2.168l2.876,0.109l0.035,-2.215l-2.911,-0.062Zm7.911,0.271l-2.653,0.012l-0.011,2.063l2.679,0.012l-0.015,-2.087Zm-30.755,0.365c0.286,-0.008 0.94,0.63 1.21,1.346c0.532,1.407 0.288,2.966 -0.545,3.483c-1.134,0.702 -2.466,-0.398 -1.686,-1.393c0.138,-0.176 0.36,-0.352 0.495,-0.395c0.583,-0.186 0.719,-1.106 0.402,-2.7c-0.047,-0.235 0.012,-0.338 0.124,-0.341Zm4.241,0.539c11.84,3.888 25.274,5.194 39.115,2.35c0,0 -6.559,26.869 -6.701,26.882l-32.414,-29.232Zm-5.803,0.082c0.623,0 0.736,1.061 0.174,1.625c-0.718,0.72 -2.088,0.142 -1.802,-0.761c0.083,-0.262 1.216,-0.864 1.628,-0.864Zm3.402,0.624c0.129,-0.01 0.374,0.248 0.762,0.772c1.33,1.796 1.434,3.802 0.244,4.716c-1.396,1.072 -2.416,-0.591 -1.253,-2.044c0.301,-0.376 0.345,-1.071 0.166,-2.61c-0.064,-0.548 -0.048,-0.824 0.081,-0.834Zm45.908,0.648c0.153,-0.005 0.424,0.113 0.967,0.38c0.849,0.417 1.143,1.027 0.735,1.52c-0.594,0.718 -2.221,-0.703 -1.914,-1.671c0.046,-0.148 0.093,-0.225 0.212,-0.229Zm-1.276,0.934c0.213,0.022 0.553,0.412 0.948,1.207c0.253,0.51 0.4,0.656 0.827,0.81c1.012,0.367 1.2,1.418 0.309,1.73c-0.967,0.338 -1.688,-0.359 -2.13,-2.063c-0.292,-1.124 -0.227,-1.711 0.046,-1.684l0,0Zm-42.35,0.753c0.146,-0.009 0.428,0.321 0.873,0.981c1.324,1.959 0.868,5.72 -0.8,6.597c-0.735,0.387 -1.247,0.305 -1.837,-0.287c-0.862,-0.864 -0.649,-1.548 0.631,-2.02c1.089,-0.402 1.442,-1.646 1.105,-3.91c-0.134,-0.904 -0.139,-1.351 0.028,-1.361l0,0Zm6.302,0.62c8.085,6.688 15.385,13.858 24.793,22.228c2.234,-6.895 5.491,-21.211 5.502,-21.258c-0.356,0.294 -15.804,2.493 -30.295,-0.97Zm30.295,0.97c0.008,-0.006 0.009,-0.011 0,-0.016l0,0.016Zm5.015,-0.95c0.134,0 0.524,1.006 0.746,1.923c0.201,0.832 1.002,2.225 1.311,2.277c1.593,0.271 2.272,1.162 1.485,1.951c-0.578,0.58 -1.83,0.251 -2.433,-0.636c-1.133,-1.667 -1.907,-5.515 -1.109,-5.515Zm-90.215,0.923c0.961,0.008 1.885,0.616 2.119,1.869c0.271,1.459 -0.551,2.52 -1.247,2.35c-0.756,-0.284 -1.013,-1.485 -1.013,-1.485c0,0 -0.179,0.98 -0.49,1.474c-0.678,1.038 -2.103,-0.503 -1.848,-1.997c0.249,-1.46 1.389,-2.22 2.479,-2.211Zm57.546,0.384c8.805,1.327 16.38,1.671 26.884,0.527l-4.949,19.276l-21.935,-19.803Zm-6.651,0.031c0.131,0.008 0.399,0.243 0.816,0.686c1.369,1.452 1.763,3.465 0.874,4.464c-0.541,0.608 -0.905,0.679 -1.481,0.283c-0.735,-0.504 -0.79,-1.263 -0.116,-1.613c0.62,-0.321 0.676,-1.028 0.186,-2.366c-0.366,-0.998 -0.469,-1.467 -0.279,-1.454Zm-57.442,0.496l3.217,1.338l1.153,2.727l-3.21,-0.83l-1.16,-3.235Zm12.165,0.361l-0.955,2.715l-2.475,0.927l0.963,-2.936l2.467,-0.706Zm83.916,0.57c0.119,-0.002 0.296,0.342 0.511,1.051c0.531,1.756 0.756,2.2 1.241,2.432c0.789,0.378 0.847,1.338 0.1,1.679c-0.473,0.217 -0.629,0.172 -0.966,-0.271c-0.526,-0.691 -0.948,-2.013 -1.025,-3.2c-0.072,-1.112 -0.014,-1.689 0.139,-1.691Zm-35.812,1.226c0.093,-0.007 0.23,0.13 0.433,0.372c1.25,1.49 1.386,3.776 0.267,4.46c-1.084,0.663 -2.6,-0.705 -1.655,-1.493c0.085,-0.071 0.281,-0.23 0.437,-0.349c0.263,-0.201 0.286,-0.319 0.309,-1.614c0.018,-0.961 0.054,-1.366 0.209,-1.376Zm9.495,0.158l15.401,14.039l3.536,-13.887c-6.083,0.547 -12.438,0.385 -18.937,-0.152Zm-37.833,0.707c4.865,5.153 11.232,9.319 12.744,14.443c2.71,7.054 0.723,15.237 -5.622,19.919c-3.502,2.659 -6.935,5.457 -9.79,8.835c-4.685,5.003 -7.812,10.47 -10.943,14.436c-0.53,0.667 -1.929,2.765 -1.929,2.765c0,0 -0.685,0.785 -2.974,-1.14c-6.071,-5.415 -12.443,-9.344 -18.93,-13.086l2.745,-1.54c5.416,3.098 12.148,7.506 18.204,12.644c0,0 4.816,-7.054 6.353,-9.075c2.228,-2.901 3.794,-4.769 5.869,-7.013c5.3,-6.563 10.773,-8.734 13.05,-12.058c3.335,-4.869 3.478,-10.641 0.734,-15.568c-2.705,-4.701 -7.966,-7.925 -11.46,-11.817l1.949,-1.745Zm46.182,0.38l6.02,0c0,0 -0.884,0.739 -1.562,1.194c-0.425,0.285 -0.922,0.246 -1.859,-0.147c-0.911,-0.382 -2.599,-1.047 -2.599,-1.047Zm6.894,0l1.404,0.042c-1.05,1.323 -2.125,2.175 -3.534,3.351c-0.182,0.079 -0.284,0.111 -0.708,-0.027c-2.877,-0.955 -5.518,-2.168 -8.321,-3.316l2.498,-0.012c0,0 1.202,0.386 3.008,1.137c2.071,0.861 2.608,1.126 3.407,0.601c0.77,-0.514 1.408,-1.287 2.246,-1.776l0,0Zm2.842,0l-0.502,1.85c-0.84,1.051 -2.538,2.264 -3.956,3.459c-0.332,0.174 -0.321,0.206 -1.775,-0.361c-5.351,-2.084 -7.938,-3.44 -7.938,-3.44l-1.086,-0.973c0,0 1.395,0.4 2.316,0.764c0.628,0.248 1.697,0.655 2.378,0.907c0.68,0.253 2.185,0.894 3.19,1.292c2.316,0.917 2.188,0.945 4.408,-1.02c2.403,-2.128 2.965,-2.478 2.965,-2.478Zm-81.07,0.17l2.335,2.684l-3.113,2.626l-2.35,-2.777l3.128,-2.533Zm88.612,0.003c0.537,1.008 0.897,2.2 1.769,3.049c0.657,0.628 0.82,1.112 0.43,1.466c-1.015,0.63 -1.191,-0.387 -1.505,-1.052c-0.554,-1.171 -1.23,-2.753 -0.694,-3.463Zm-84.452,0.268c0.059,-0.001 0.12,0 0.182,0c2.49,0.038 3.078,3.729 0.734,4.616c-0.84,0.317 -1.806,0.173 -2.327,-0.349c-0.506,-0.507 -0.577,-0.936 -0.23,-1.201c0.54,-0.386 1.826,-0.412 1.826,-0.412c0,0 -1.167,-0.397 -1.687,-0.69c-1.024,-0.585 -0.137,-1.898 1.502,-1.964Zm51.275,0.004c0.141,0.008 0.383,0.296 0.727,0.865c1.256,2.081 1.19,6.041 -0.12,7.043c-0.681,0.522 -1.53,0.447 -2.1,-0.186c-0.751,-0.834 -0.52,-1.677 0.596,-2.172c1.077,-0.477 1.296,-1.545 0.858,-4.184c-0.153,-0.92 -0.142,-1.376 0.039,-1.366l0,0Zm-60.431,0.066c0.744,-0.026 1.461,0.265 1.817,0.854c0.264,0.434 0.136,0.754 -0.361,0.97c-0.606,0.24 -1.754,0.458 -1.754,0.458c0,0 1.114,0.184 1.786,0.458c0.843,0.373 0.777,1.057 -0.456,1.645c-2.375,1.132 -4.62,-1.961 -2.66,-3.737c0.457,-0.414 1.05,-0.627 1.628,-0.648Zm62.461,1.494c0.017,-0.004 0.037,-0.003 0.057,0c0.219,0.026 0.621,0.343 1.025,0.88c1.416,1.881 1.662,4.708 0.456,5.259c-1.273,0.582 -2.189,-0.618 -1.272,-1.668c0.65,-0.743 0.569,-1.83 -0.294,-3.983c-0.125,-0.313 -0.096,-0.469 0.028,-0.488l0,0Zm30.581,0.089c0.111,-0.009 0.314,0.444 0.641,1.357c0.72,2.011 1.336,2.855 2.077,2.855c0.931,0 1.419,1.279 0.684,1.795c-1.451,1.02 -3.352,-1.478 -3.491,-4.592c-0.042,-0.935 -0.024,-1.407 0.089,-1.415Zm-7.672,1.004l-0.429,1.641c0,0 -0.989,0.965 -1.697,1.578c-1.125,0.975 -1.402,1.169 -2.289,0.865c-1.367,-0.473 -2.718,-0.901 -4.141,-1.334l-3.291,-2.73l7.509,2.939c0,0 0.651,0.193 0.878,-0.034c0.983,-0.986 2.063,-1.75 3.46,-2.925l0,0Zm7.084,1.536c0.094,-0.021 0.189,0.099 0.255,0.4c0.34,1.545 0.834,2.664 1.249,2.839c0.526,0.22 0.728,0.678 0.506,1.144c-0.639,1.344 -2.319,-1.03 -2.319,-3.278c-0.001,-0.637 0.152,-1.069 0.309,-1.105Zm-27.101,0.109c0.092,-0.006 0.24,0.131 0.472,0.364c1.038,1.042 1.352,3.919 0.518,4.755c-1.205,1.209 -2.492,-0.588 -1.323,-1.846c0.31,-0.333 0.31,-0.356 0.236,-1.831c-0.051,-1.026 -0.056,-1.433 0.097,-1.442Zm-62.902,0.287l-0.812,2.699l-2.594,0.671l0.607,-2.222l2.799,-1.148Zm3.109,0.275c0.206,-0.008 0.439,0.07 0.684,0.248c1.058,0.768 1.144,2.081 0.65,3.049c-0.473,0.945 -1.439,1.216 -2.374,1.121c-1.213,-0.136 -2.129,-0.983 -2.065,-2.281c0.021,-0.65 0.304,-1.371 0.743,-1.679c0.308,-0.217 0.562,-0.128 0.829,0.317c0.25,0.435 0.675,1.42 0.675,1.42c0,0 0.014,-1.011 0.157,-1.531c0.116,-0.414 0.373,-0.651 0.701,-0.664Zm1.98,0.237l1.879,0.643l0.742,2.56l-2.103,-0.818l-0.518,-2.385Zm107.143,0.477c0,0 0.539,0.229 3.105,2.272c0.641,0.512 1.724,1.49 1.724,1.49l-0.061,33.405l-6.092,-3.797l0.319,-2.925c0,0 0.837,-8.836 1.477,-13.466c0.447,-5.16 1.436,-6.641 -2.008,-8.83c3.707,-2.334 2.661,-5.966 0.335,-7.479l1.201,-0.67Zm-30.221,0.128l-0.341,1.528c-1.22,2.094 -2.312,1.987 -4.179,1.016l-2.243,-1.912c1.451,0.303 2.232,0.769 3.65,1.218c0.704,0.195 0.962,0.069 1.458,-0.377c0.569,-0.52 0.998,-0.908 1.655,-1.473Zm-16.627,0.803c0.761,0.832 0.959,1.651 0.893,3.676c-0.146,1.44 -0.082,2.513 -1.26,3.32c-0.576,0.378 -1.57,0.379 -2.015,0.004c-1.066,-0.716 -0.478,-2.149 0.919,-2.219c0.882,-0.015 1.245,-2.906 0.744,-4.712c-0.078,-0.28 -0.058,-0.464 0.081,-0.477c0.138,-0.013 0.396,0.143 0.638,0.408l0,0Zm23.83,-0.109c0.171,-0.002 0.474,0.438 0.654,1.156c0.26,1.039 0.626,1.623 1.198,1.916c0.735,0.376 0.972,1.098 0.503,1.524c-0.935,0.848 -1.89,-0.169 -2.196,-2.339c-0.015,-0.246 -0.444,-2.234 -0.159,-2.257Zm20.06,0.357c2.084,0.032 3.263,1.496 3.26,3.268c-0.022,1.279 -0.719,2.578 -2.001,3.118c-3.061,0.904 -4.731,-1.152 -4.702,-3.151c0.023,-1.613 1.359,-3.268 3.443,-3.235Zm-42.069,1.159c1.753,1.759 1.832,5.519 0.116,5.519c-2.058,-0.683 -0.452,-1.901 -0.413,-2.218c0.161,-1.295 -0.135,-2.126 -0.437,-3.336c-0.133,-0.715 0.541,-0.174 0.734,0.035l0,0Zm42.181,-0.17c-0.368,-0.011 -0.341,0.36 0.333,0.942c1.222,1.056 0.623,3.005 -0.925,3.014c-0.714,0.004 -0.889,0.486 -0.266,0.737c2.404,0.968 4.045,-2.697 1.89,-4.224c-0.449,-0.319 -0.811,-0.463 -1.032,-0.469Zm-91.931,0.492c1.934,0.661 2.601,4.358 2.675,5.663c0.087,2.269 -0.967,5.98 -1.906,6.721c-2.434,1.92 -3.574,-4.867 -1.493,-9.234c0.182,-0.359 0.41,-0.842 0.325,-1.734c-0.085,-0.885 0.064,-1.409 0.399,-1.416Zm63.925,0.357c0,0 -0.243,1.108 -0.502,1.714c-0.3,0.702 -0.52,0.724 -1.218,0.124c-0.389,-0.333 -1.033,-1.023 -1.033,-1.023c0.608,0.095 1.151,0.411 1.667,0.155c0.55,-0.273 0.994,-0.786 1.086,-0.97Zm7.343,0.058c0.137,0.005 0.313,0.391 0.545,1.156c0.637,2.094 1.194,2.882 2.038,2.882c1.383,0 1.684,1.669 0.379,2.098c-0.484,0.159 -0.647,0.157 -1.265,-0.008c-0.931,-0.249 -2.204,-3.4 -2.022,-5.003c0.086,-0.754 0.188,-1.13 0.325,-1.125l0,0Zm-85.142,1.218c0.507,-0.012 0.707,0.239 1.005,0.857c0.34,0.704 1.23,1.6 1.984,1.99c1.816,0.895 3.73,1.595 5.525,2.494c2.328,1.173 4.413,4.764 2.985,5.139c-0.518,0.119 -1.114,0.126 -1.643,0.077c-0.173,-0.091 -0.511,-0.483 -0.75,-0.876c-1.062,-1.743 -3.047,-3.449 -6.11,-4.247c-2.158,-0.563 -4.092,-3.23 -4.508,-4.484c-0.108,-0.324 -0.113,-0.579 0.178,-0.663c0.614,-0.177 1.029,-0.28 1.334,-0.287l0,0Zm65.639,0.217c0.096,-0.016 0.238,0.108 0.452,0.338c1.285,1.377 1.445,3.907 0.29,4.623c-1.251,0.776 -2.347,-0.507 -1.365,-1.598c0.434,-0.481 0.433,-0.481 0.434,-1.924c-0.001,-0.994 0.028,-1.412 0.189,-1.439Zm18.706,1.606c0.155,0.006 0.386,0.434 0.666,1.276c0.396,1.195 0.45,1.289 0.904,1.524c0.768,0.398 0.892,0.994 0.329,1.559c-1.05,1.054 -2.108,-0.642 -2.111,-3.382c0,-0.658 0.077,-0.983 0.212,-0.977Zm-16.797,0.189c0.095,0.009 0.362,0.22 0.569,0.466c1.575,1.873 1.258,6.258 -0.498,6.916c-0.587,0.219 -0.765,0.231 -1.129,0.073c-1.31,-0.568 -1.15,-1.954 0.464,-2.835c1.206,-0.658 0.346,-4.602 0.594,-4.62Zm-80.49,1.382l6.5,3.234c0,0 1.782,3.763 2.602,5.174c0.563,0.978 1.69,1.923 0.526,2.575c-1.955,1.33 -3.064,2.087 -3.047,2.913c0.015,0.668 0.842,1.349 1.957,2.665c1.6,1.889 1.585,1.454 0.131,4.336c-1.114,2.021 -2.061,6.597 -2.061,6.597l-6.565,3.394c1.954,-4.681 4.254,-8.664 6.832,-11.512c-1.915,-1.426 -3.525,-2.911 -5.204,-4.883c1.239,-1.664 2.875,-3.009 4.384,-4.456c-3.066,-3.477 -4.987,-6.811 -6.055,-10.037Zm82.204,0.058c0.01,-0.002 0.023,-0.001 0.034,0c0.273,0.018 0.895,0.697 1.443,1.788c0.706,1.408 0.775,3.182 0.147,3.812c-1.083,1.086 -2.493,-0.31 -1.481,-1.466c0.714,-0.52 0.519,-1.814 -0.043,-3.161c-0.26,-0.645 -0.256,-0.948 -0.1,-0.973l0,0Zm-82.923,0.632c1.691,3.604 3.583,6.536 5.522,9.312l-4.23,4.453c1.302,1.515 2.88,3.143 5.096,5.034c-2.72,3.034 -4.505,7.282 -6.291,11.294l-0.097,-30.093Zm97.283,0.078c0.147,0.011 0.355,0.447 0.569,1.326c0.269,1.108 0.454,1.391 1.098,1.668c1.023,0.44 1.047,1.431 0.042,1.788c-0.368,0.13 -1.056,-0.24 -1.341,-0.726c-0.376,-0.692 -0.569,-1.625 -0.565,-2.478c-0.059,-1.056 0.031,-1.591 0.197,-1.578l0,0Zm23.454,0.667c1.599,0.45 2.176,2.057 1.865,5.034c-0.418,3.982 -0.908,8.412 -1.307,12.07c-0.46,4.219 -0.84,6.902 -0.84,6.902l-0.394,-0.304c0,0 0.114,-2.282 0.263,-3.682c0.358,-3.151 0.555,-5.911 0.859,-9.06c0.679,-7.006 0.513,-9.22 -0.75,-9.867c-0.978,-0.5 -1.398,-0.205 -0.677,0.477c1.375,1.064 1.332,1.509 -0.139,18.76c-0.151,1.785 -0.213,3.049 -0.213,3.049l-1.867,-1.164c0,0 -0.139,-1.478 -0.314,-3.711c-0.421,-4.206 -0.667,-8.69 -0.947,-12.722c-0.3,-4.3 0.503,-5.806 3.163,-5.91c0.425,-0.017 0.897,0.018 1.298,0.128Zm-34.314,2.5c0.203,0.569 1.13,4.812 -1.243,3.593c-0.632,-0.358 -0.666,-0.918 -0.2,-1.462c0.522,-0.61 0.644,-1.485 0.383,-2.735c-0.159,-0.76 -0.352,-1.391 -0.352,-1.391c0.458,0.168 1.358,1.846 1.412,1.995Zm-70.562,-1.331c2.007,0.383 4.212,1.557 5.634,3.026c0.881,0.94 0.837,1.697 -0.542,1.785c-1.327,0.196 -1.355,0.412 -1.989,-0.138c-0.285,-0.223 -0.839,-0.772 -1.471,-0.87c-2.003,-0.311 -3.025,-4.068 -1.632,-3.803Zm81.028,1.111c0.212,0.342 0.234,1.013 0.41,1.493c0.3,1.345 1.219,2.339 2.045,2.215c0.555,-0.067 1.322,0.101 1.404,0.768c0.161,0.564 -0.134,1.097 -0.742,1.342c-0.688,0.276 -1.463,0.106 -2.05,-0.446c-1.235,-1.165 -1.99,-4.965 -1.067,-5.372Zm-9.656,0.053c0.72,0.277 1.639,2.589 1.737,4.423c0,1.313 -0.205,2.966 -1.334,3.591c-0.717,0.372 -1.458,0.187 -1.782,-0.442c-0.398,-0.771 -0.103,-1.567 0.719,-1.939c1.005,-0.455 1.332,-2.499 0.719,-4.495c-0.034,-0.333 -0.537,-1.276 -0.059,-1.138l0,0Zm-76.681,0.959l5.297,2.692c-0.77,1.056 -1.376,2.035 -1.794,3.149c-1.683,-1.915 -2.566,-3.867 -3.503,-5.841Zm78.672,0.922c0.091,-0.003 0.396,0.289 0.663,0.548c1.322,1.284 1.892,3.616 1.094,4.468c-0.638,0.682 -1.755,0.635 -1.941,-0.081c-0.067,-0.351 0.304,-1.008 0.468,-1.323c0.244,-0.469 0.288,-1.809 -0.081,-2.788c-0.166,-0.439 -0.32,-0.821 -0.203,-0.824Zm-36.801,0.529l5.986,0.206l20.052,18.116l-1.883,-0.043l-18.424,-16.84l-5.735,0.015l0.004,-1.454Zm-34.484,3.264c-2.286,3.642 -2.909,8.234 -1.506,12.316c1.066,2.894 -1.261,3.067 -2.215,1.16c-0.733,-1.426 -1.156,-3.908 -0.932,-6.551c0.312,-4.274 2.279,-8.565 3.854,-9.08c1.599,-0.523 1.248,1.573 0.799,2.155Zm82.163,8.767c-0.608,2.849 -1.734,4.267 -3.333,4.86c-6.546,2.425 -9.398,-10.819 -3.325,-13.986c5.788,-1.93 7.462,5.363 6.658,9.126Zm-48.042,-8.653l5.645,0.116c5.146,4.695 10.678,9.076 16.186,14.785l-2.664,0c0,0 -0.779,-0.743 -0.963,-0.919c-4.978,-4.46 -8.665,-8.1 -13.464,-12.244l-5.038,-0.14l0.298,-1.598Zm43.07,0.873c-3.052,0.124 -3.301,4.272 -3.21,5.844c0.223,2.264 1.122,5.609 3.987,5.345c2.102,-0.21 3.075,-2.707 2.883,-5.706c-0.181,-2.822 -1.328,-5.485 -3.66,-5.483Zm-43.584,1.377l4.953,0.112c4.363,3.817 8.978,7.963 13.564,12.539l-2.162,0c0,0 -0.565,-0.54 -0.734,-0.714c-3.713,-3.366 -7.486,-7.117 -11.086,-10.142l-5.139,-0.201l0.604,-1.594Zm43.665,0.162c0.867,0.322 1.012,2.44 0.255,3.317c-0.518,0.601 -1.71,-0.537 -1.817,-1.971c-0.065,-0.874 0.782,-1.635 1.562,-1.346Zm-81.863,0.264c-0.399,1.369 -0.661,2.908 -0.824,4.573l-2.072,-2.641l2.896,-1.932Zm83.437,2.548c0.506,0 0.916,0.412 0.916,0.919c0,0.508 -0.41,0.92 -0.916,0.92c-0.507,0 -0.917,-0.412 -0.917,-0.92c0,-0.507 0.41,-0.919 0.917,-0.919Zm-41.616,0.462l9.871,9.308l-2.811,0.031l-8.097,-7.361l-5.138,-0.194l1.005,-1.757l5.17,-0.027Zm38.391,0.159c0.506,0 0.916,0.411 0.916,0.919c0,0.508 -0.41,0.919 -0.916,0.919c-0.506,0 -0.916,-0.411 -0.916,-0.919c-0.001,-0.508 0.41,-0.919 0.916,-0.919Zm11.75,0.019c5.565,4.338 13.42,10.094 21.58,14.762c0,-0.016 -1.345,1.059 -2.583,1.4c-6.35,-3.512 -13.906,-8.465 -18.587,-12.481c-4.418,6.524 -12.905,18.392 -20.45,23.872c-4.761,3.416 -7.159,7.627 -7.145,12.55c0.014,5.093 1.806,8.407 6.801,12.578c3.221,2.69 6.743,6.124 6.743,6.124l-1.852,1.602c-0.308,-0.038 -5.404,-4.442 -10.56,-9.634c-2.833,-2.854 -4.093,-9.116 -3.611,-12.497c0.656,-4.595 2.183,-7.889 6.527,-11.437c1.668,-1.295 3.352,-2.301 4.822,-3.774c13.495,-14.48 18.315,-23.065 18.315,-23.065Zm-9.032,2.366c0.51,1.052 0.791,2.432 -0.808,2.525c-0.947,0.055 -1.49,-1.527 -0.669,-2.936c0.621,-1.109 1.174,-0.165 1.477,0.411Zm-47.559,-0.279l5.328,0.159c0,0 5.255,4.594 7.907,7.14l17.849,0c9.815,0 17.883,0.039 17.929,0.085c0.122,0.123 -1.268,1.994 -1.268,1.994l-58.865,0.035c0.012,-0.009 3.636,-3.246 4.934,-4.154c2.298,-1.608 4.404,-3.104 6.186,-5.259l0,0Zm-36.071,2.222c0.385,1.426 0.707,2.88 1.372,4.193l-4.087,2.176c0.752,-2.171 1.611,-4.258 2.715,-6.369Zm113.492,11.853c-0.812,2.218 -2.936,6.746 -5.502,10.177c-0.51,0.657 -0.859,1.171 -0.859,1.171l5.007,4.809l-4.346,4.635c2.441,2.548 4.506,6.45 5.591,9.556c-1.971,-0.781 -3.078,-1.253 -5.509,-2.61c-0.688,-1.73 -1.389,-3.563 -2.162,-5.143c-1.773,-3.604 -1.749,-3.252 -0.301,-4.312c2.119,-1.553 2.751,-1.913 2.2,-2.696c-0.388,-0.55 -2.888,-3.529 -3.039,-3.622c-0.23,-0.143 -0.128,-0.584 0.297,-1.288c1.449,-2.61 2.637,-5.487 3.376,-8.044l5.247,-2.633Zm0.947,0.182l0.132,30.306c-1.794,-3.621 -3.659,-7.319 -5.739,-9.63c-0.078,-0.157 4.536,-4.678 4.536,-4.678c-1.691,-1.571 -2.68,-2.51 -5.042,-4.692c2.3,-3.326 4.121,-7.673 6.113,-11.306Zm-126.982,1.051l5.74,3.343c-0.303,4.275 -0.686,9.886 -1.274,15.58c-0.493,4.442 -0.697,6.489 0.088,7.722c0.665,0.902 2.458,1.877 2.458,1.877c-3.019,1.226 -4.184,4.842 -0.799,7.547c0,0 -0.822,0.649 -1.187,1.04l-4.709,-3.533l-0.317,-33.576Zm89.855,1.532c-1.431,1.609 -3.676,3.994 -5.398,5.135c-2.296,1.522 -5.521,4.443 -5.366,4.487c0,0 -3.38,-0.017 -5.669,-0.108l-7.895,-7.067c0,0 0.282,-0.104 -10.463,-0.015c-13.888,0.114 -25.141,-0.039 -25.141,-0.039l1.578,-2.222l58.354,-0.171Zm28.145,1.388c-0.778,2.506 -1.984,4.822 -3.511,6.993c-0.354,-1.54 -0.548,-3.175 -1.287,-4.483l4.798,-2.51Zm-111.532,0.803l0.689,0.493c0,0 -0.411,5.229 -0.546,6.76c-0.242,2.828 -0.361,5.376 -0.607,8.257c-0.494,5.72 -0.412,6.563 0.708,7.447c0.861,0.646 1.448,0.352 0.684,-0.466c-0.503,-0.649 -0.5,-0.635 -0.653,-1.59c-0.106,-0.663 -0.09,-1.653 0.062,-4.336c0.852,-15.113 1.029,-15.622 1.047,-15.626l1.717,1.113c-0.096,0.232 1.572,15.233 1.403,18.962c-0.198,4.36 -6.049,3.397 -6.327,0.161c-0.115,-0.744 0.996,-12.987 0.996,-12.987l0.827,-8.188Zm47.726,0.881l2.296,0.066l14.168,13.062l4.829,0.105l-0.422,1.648l-4.667,-0.011l-16.204,-14.87Zm8.784,0l2.224,0l8.108,7.373l4.992,0.077l-0.951,1.42l-4.965,-0.144l-9.408,-8.726Zm-2.768,0.008l11.986,10.84l4.087,0.213l-0.63,1.482l-4.845,-0.136l-13.467,-12.372l2.869,-0.027Zm-11.557,0.038l2.49,0l18.737,16.922l4.911,0.089l-0.074,1.524l-5.912,-0.027l-20.152,-18.508Zm63.056,0.481c0.989,0.249 1.476,1.21 2.173,4.775c0.813,4.156 -0.949,10.904 -3.155,12.17c-1.142,0.901 -2.384,-0.054 -1.578,-1.229c2.633,-3.836 2.981,-10.112 1.423,-13.621c-0.493,-1.128 0.015,-2.298 1.137,-2.095Zm-79.497,0.625c5.987,0.072 7.535,12.405 1.645,14.135c-3.826,0.567 -5.796,-2.907 -6.351,-6.041c-0.655,-3.895 1.056,-8.138 4.706,-8.094Zm-3.291,7.399c0.358,2.472 1.886,5.302 4.108,5.061c2.922,-0.319 3.289,-4.231 2.999,-6.201c-0.349,-2.377 -1.655,-4.531 -3.742,-4.65c-3.112,-0.176 -3.641,3.883 -3.365,5.79Zm3.21,-4.801c0.835,-0.013 1.45,1.106 1.222,2.494c-0.148,0.899 -0.489,2.006 -1.497,1.254c-0.469,-0.429 -0.889,-1.689 -0.777,-2.631c0.075,-0.618 0.379,-1.099 1.052,-1.117Zm82.559,2.851l2.811,3.262l-3.194,2.245c0.449,-1.716 0.597,-3.541 0.383,-5.507Zm-80.521,0.295c0.506,0 0.916,0.415 0.916,0.923c0,0.508 -0.41,0.919 -0.916,0.919c-0.507,0 -0.917,-0.411 -0.917,-0.919c0,-0.508 0.41,-0.923 0.917,-0.923Zm-3.279,0.566c0.506,0 0.916,0.411 0.916,0.919c0,0.508 -0.41,0.919 -0.916,0.919c-0.507,0 -0.92,-0.411 -0.921,-0.919c0,-0.508 0.414,-0.919 0.921,-0.919Zm1.856,1.187c0.46,0.14 0.754,0.564 1.001,0.933c0.613,0.915 0.693,2.064 0.258,2.544c-0.881,1.05 -2.256,-0.073 -2.091,-1.693c0.122,-1.188 0.436,-1.904 0.832,-1.784Zm7.849,3.599c1.314,0 1.685,1.555 0.553,2.315c-0.737,0.495 -0.9,2.103 -0.445,4.329c0.369,1.608 0.176,1.856 -0.781,0.407c-1.634,-2.627 -1.212,-7.051 0.673,-7.051Zm-3.074,0.846c1.153,-0.045 1.523,0.839 0.851,1.516c-0.395,0.439 -0.355,1.596 0.085,2.548c0.622,1.378 0.475,1.795 -0.689,0.469c-1.609,-1.725 -1.584,-4.482 -0.247,-4.533Zm76.226,0.67c1.308,1.745 2.468,4.022 3.526,6.602l-5.672,-2.615l2.146,-3.987Zm-82.891,7.015c-0.401,-0.466 -0.596,-1.975 -0.925,-2.62c-0.256,-0.774 -0.478,-1.225 -0.895,-1.199c-2.397,0.203 -2.295,-2.095 -0.919,-2.53c2.847,-0.898 3.885,5.998 2.739,6.349Zm11.891,-2.32c-0.406,1.205 -0.11,1.925 -0.026,3.212c0.071,0.585 0.101,0.739 -0.378,0.291c-1.137,-0.995 -1.741,-4.391 -0.717,-5.02c1.377,-0.846 1.794,0.583 1.121,1.517l0,0Zm56.829,-1.611c0.556,-0.026 1.187,0.408 1.5,1.206c0.45,1.148 0.409,3.962 0.182,5.461c-0.348,2.293 -0.899,4.399 -1.125,5.977c-0.803,0.956 -2.78,-2.429 -2.966,-5.101c-0.311,-2.118 0.416,-6.521 2.041,-7.45c0.116,-0.056 0.239,-0.087 0.368,-0.093Zm7.658,0.361c0.497,-0.023 0.384,0.145 0.752,0.531c0.558,0.586 0.785,0.728 1.573,0.977c1.627,0.513 3.416,2.788 2.727,3.48c-0.545,0.433 -2.027,-0.385 -2.533,-0.559c-0.545,-0.188 -1.225,-0.423 -1.512,-0.52c-1.364,-0.461 -3.325,-2.983 -2.715,-3.491c0.327,-0.271 1.321,-0.401 1.708,-0.418Zm-3.966,0.418c1.008,0.011 1.284,0.262 1.86,1.35c0.855,1.612 2.442,2.75 4.748,3.405c2.944,0.902 5.484,2.613 5.36,5.783c-0.702,0.007 -1.405,0.054 -2.107,0.269c-0.815,-2.3 -2.842,-3.618 -4.587,-4.015c-4.024,-0.916 -7.759,-5.011 -6.697,-6.636c0.465,-0.238 0.963,-0.161 1.423,-0.156Zm-69.416,0.202l34.764,30.368c-14.671,-5.459 -28.13,-5.342 -41.144,-3.324l6.38,-27.044Zm14.826,2.011c-0.066,0.945 -1.359,1.147 -1.626,1.381c-0.65,0.567 -0.564,2.204 -0.286,4.113c0.213,1.146 -0.072,1.096 -0.673,0.198c-1.064,-1.59 -1.042,-4.348 -0.337,-5.972c0.909,-2.093 3.013,-1.045 2.922,0.28Zm-19.992,-1.487c1.333,0.139 1.7,1.958 1.755,3.164c0,1.663 -0.47,1.6 -0.734,0c-0.127,-0.708 -0.346,-0.984 -0.917,-1.155c-1.297,-0.39 -1.381,-2.009 -0.104,-2.009Zm16.154,1.857c-0.341,0.377 -0.349,2.14 -0.038,3.324c0.172,0.655 -0.146,0.706 -0.588,0.186c-1.438,-1.691 -1.57,-4.561 -0.236,-5.115c1.087,-0.284 1.369,1.047 0.863,1.605l-0.001,0Zm-15.041,3.394c0.032,1.689 -0.351,1.844 -0.858,0.225c-0.13,-0.376 -0.36,-0.755 -0.526,-0.869c-0.946,-0.649 -1.113,-1.156 -0.564,-1.706c1.347,-1.103 1.931,1.848 1.948,2.35Zm5.081,-1.489l-4.713,20.164c11.601,-0.976 16.872,-1.181 29.266,1.249l-24.553,-21.413Zm14.055,0.333c0.71,0.179 0.955,1.107 0.128,1.986c-0.272,0.348 -0.524,0.886 -0.194,2.311c0.453,1.95 -0.309,1.326 -1.237,-0.515c-0.594,-1.18 -0.322,-4.19 1.303,-3.782Zm-22.19,0.062c1.26,0 2.429,2.052 2.447,4.298c0.014,1.814 -0.244,1.683 -0.916,-0.051c-0.473,-1.147 -0.855,-1.562 -1.713,-1.861c-1.59,-0.555 -1.452,-2.386 0.182,-2.386l0,0Zm8.518,0.582l21.831,19.136c-8.94,-1.433 -17.716,-1.543 -26.239,-0.469l4.408,-18.667Zm18.169,0.721c1.712,0 2.386,2.122 0.286,2.865c-1.251,0.442 -0.717,2.981 -0.487,4.489c0.087,0.569 -0.092,0.609 -0.453,0.101c-1.318,-1.953 -2.056,-6.877 0.654,-7.455Zm-2.312,2.386c-0.311,0.491 -0.346,1.018 -0.132,1.97c0.555,2.047 0.7,2.425 -0.46,1.385c-1.22,-1.295 -1.753,-3.857 -0.731,-4.616c1.148,-0.852 2.183,0.094 1.323,1.261Zm-43.14,-1.58c2.027,-0.014 3.499,1.301 3.421,3.136c-0.085,2.021 -1.347,3.296 -3.201,3.402c-2.068,0.105 -3.347,-1.551 -3.393,-3.266c-0.04,-1.515 0.922,-3.256 3.173,-3.272Zm-0.034,0.812c-2.319,-0.007 -3.188,3.059 -1.268,4.476c0.823,0.607 1.473,0.435 0.796,-0.21c-1.275,-1.216 -0.763,-3.225 0.916,-3.595c0.83,-0.183 0.509,-0.668 -0.444,-0.671Zm28.237,0.52l-2.791,13.582c5.711,-0.89 12.62,-0.619 17.952,-0.117l-15.161,-13.465Zm-9.403,0.515c1.389,-0.07 1.795,2.025 1.806,2.859c0,1.078 -0.126,1.64 -0.325,1.063c-0.467,-1.36 -0.928,-2.107 -1.43,-2.107c-0.272,-0.069 -0.505,-0.179 -0.724,-0.426c-0.493,-0.655 -0.015,-1.361 0.673,-1.389Zm9.662,0.543l1.841,1.567c-1.184,-0.52 -2.192,0.826 -2.192,0.826l0.351,-2.393Zm18.943,2.564c-0.534,0.674 -0.53,2.095 -0.116,3.75c0.116,0.464 -0.316,0.12 -0.75,-0.43c-0.824,-1.041 -1.211,-2.262 -1.061,-3.262c0.165,-2.53 3.365,-2.037 1.927,-0.058l0,0Zm-29.115,-1.21c1.191,0.135 1.64,2.63 1.612,3.386c-0.039,0.79 -0.219,1.324 -0.375,0.843c-0.306,-1.043 -0.94,-2.54 -1.489,-2.883c-0.94,-0.589 -0.674,-1.263 0.252,-1.346Zm91.199,2.795c0.042,0.88 -0.323,1.781 -0.863,2.071c-0.553,0.296 -0.89,-0.105 -1.219,-1.12c-0.243,-0.745 -0.329,-1.032 -0.329,-1.032c0,0 -0.204,0.933 -0.269,1.128c-0.431,1.294 -1.833,1.307 -2.42,-0.139c-0.625,-1.687 1.121,-3.415 2.463,-3.353c1.488,0.068 2.558,1.031 2.637,2.445Zm-79.557,-1.884c0.418,0 2.041,0.729 2.041,0.729l1.617,1.436c0,0 -1.487,-0.648 -2.011,-0.834c-1.251,-0.445 -1.225,-0.448 -2.235,0.38c-1.04,0.852 -1.895,1.477 -1.895,1.477l0.321,-1.842c0,0 1.523,-1.346 2.162,-1.346Zm-10.606,4.526c0.238,1.947 -0.304,2.112 -0.832,0.253c-0.451,-1.592 -0.895,-2.172 -1.662,-2.172c-1.412,0.211 -1.887,-1.89 -0.619,-2.312c2.394,-0.674 3.011,3.463 3.113,4.231Zm82.049,-4.27l2.207,1.028l0.468,2.292l-2.033,-0.504l-0.642,-2.816Zm-49.484,0.212c2.125,-0.592 2.388,2.062 0.759,2.453c-0.994,0.24 -0.989,1.785 -0.706,4.029c0.065,0.513 0.202,1.133 0.17,1.218c-0.151,0.406 -0.657,-0.214 -1.337,-1.652c-1.017,-2.623 -0.7,-5.544 1.114,-6.048Zm60.739,-0.033l-0.614,2.653l-1.868,-0.128l-0.07,-1.626l2.552,-0.899Zm-62.92,1.725c-1.023,1.485 -0.103,2.857 0.124,4.02c0.04,0.676 -0.83,0.014 -1.331,-0.971c-1.045,-2.054 -1.105,-3.712 -0.166,-4.452c1.315,-0.773 1.92,0.609 1.373,1.403Zm-19.16,-0.364c0.362,0.004 0.851,0.201 1.88,0.597c0.779,0.301 2.582,1.036 2.582,1.036l2.386,2.114c0,0 -2.095,-0.775 -3.553,-1.393c-3.285,-1.392 -2.813,-1.437 -5.41,0.547c-0.749,0.572 -1.531,1.226 -1.531,1.226l0.317,-1.699c0,0 0.981,-0.977 2.204,-1.862c0.527,-0.381 0.764,-0.57 1.125,-0.566Zm-30.553,0.803c1.681,-0.047 2.786,1.294 3.19,2.792c0.234,0.868 0.032,1.669 -0.016,2.502c-1.16,8.917 -1.67,17.193 -2.737,25.45c-0.131,0.394 -0.274,0.248 -0.445,-0.461c-1.235,-7.487 -2.039,-15.705 -3.078,-23.124c-0.237,-2.77 -0.95,-6.392 2.545,-7.101c0.186,-0.036 0.367,-0.053 0.541,-0.058l0,0Zm-0.101,0.989c-0.741,0.03 -1.618,0.54 -1.929,1.198c-0.636,1.344 -0.47,4.08 0.738,12.279c0.101,0.683 0.24,1.823 0.31,2.533c0.211,2.177 0.5,3.906 0.707,4.228c0.395,0.611 0.446,-0.046 0.163,-2.176c-0.145,-1.087 -0.342,-2.749 -0.437,-3.693c-0.543,-3.888 -0.661,-6.655 -0.998,-10.204c-0.168,-1.744 0.531,-3.029 1.844,-3.378c0.711,-0.188 0.749,-0.509 0.085,-0.725c-0.148,-0.048 -0.312,-0.069 -0.483,-0.062l0,0Zm111.164,0.109c2.456,0.006 3.358,3.453 0.956,4.669c-0.892,0.451 -2.388,0.239 -2.759,-0.482c-0.18,-0.561 0.022,-0.887 0.467,-1.125c0.542,-0.289 1.337,-0.537 1.337,-0.537c0,0 -1.3,-0.253 -1.666,-0.87c-0.79,-1.332 0.659,-1.63 1.665,-1.655Zm-92.372,3.719c-0.027,0.65 -0.359,0.382 -0.441,0c-0.265,-0.865 -0.817,-1.803 -1.28,-2.176c-0.559,-0.451 -0.693,-1.062 -0.313,-1.443c1.425,-1.263 2.026,3.214 2.034,3.619Zm83.296,-3.728c0.628,-0.019 1.483,0.195 2.024,0.738c0.698,0.7 0.66,0.962 -0.509,1.39c-0.568,0.211 -0.959,0.376 -0.959,0.376c0,0 0.527,0.208 0.919,0.317c1.121,0.376 1.062,1.028 0.033,1.799c-1.403,1.05 -3.655,-0.343 -3.629,-2.191c0.021,-1.466 0.921,-2.395 2.121,-2.429l0,0Zm5.183,-0.011l2.242,2.478l-2.621,2.723l-2.467,-2.715l2.846,-2.486Zm-76.211,0.233c0.032,-0.002 0.064,0 0.097,0c0.695,0.013 1.804,0.483 4.524,1.582c1.494,0.604 3.221,1.292 3.221,1.292l2.447,2.172c0,0 -3.353,-1.056 -4.52,-1.649c-0.253,-0.128 -0.81,-0.366 -1.237,-0.527c-0.427,-0.161 -1.486,-0.577 -2.355,-0.927c-1.866,-0.754 -1.887,-0.759 -2.513,-0.229c-0.267,0.226 -0.924,0.743 -1.458,1.148c-0.533,0.405 -1.313,0.999 -1.732,1.319c-0.494,0.376 -1.117,0.946 -1.117,0.946l0.394,-2.094c0,0 0.352,-0.347 0.982,-0.83c0.51,-0.392 1.381,-1.061 1.933,-1.486c0.562,-0.431 0.855,-0.694 1.334,-0.717Zm24.07,1.838c0.069,0.436 0.028,0.52 -0.472,1.032c-0.631,0.646 -0.717,1.705 -0.255,3.079c0.128,0.379 0.283,0.828 0.248,0.862c-0.667,0.67 -2.423,-3.555 -2.003,-4.814c0.501,-1.505 2.149,-1.528 2.482,-0.159Zm-38.492,0.182c0.46,-0.021 0.993,0.328 1.261,1.055c0.725,2.033 0.281,4.527 -0.461,2.203c-0.192,-0.492 -0.524,-1.02 -0.777,-1.287c-0.26,-0.278 -0.845,-0.6 -0.831,-1.051c0.057,-0.593 0.403,-0.901 0.808,-0.92Zm15.006,0.059c0.295,0.009 0.687,0.156 1.392,0.446c0.638,0.261 2.432,0.861 3.453,1.256c1.585,0.614 3.24,1.424 3.24,1.424l-3.588,-0.202c0,0 -1.219,-0.407 -1.945,-0.706c-2.628,-1.083 -2.481,-1.077 -3.789,-0.081c-0.467,0.355 -1.056,0.93 -1.056,0.93l-1.825,0.101c0,0 0.858,-0.918 2.096,-1.838c0.405,-0.301 0.958,-0.731 1.226,-0.954c0.308,-0.258 0.502,-0.386 0.796,-0.376Zm28.073,0.709c0.998,-0.189 1.545,0.765 1.482,1.361c-0.069,0.653 -0.674,1.304 -1.604,1.486c-0.196,0.73 -0.754,2.397 -0.428,4.883c0.262,1.165 -0.23,1.191 -0.731,0.074c-0.813,-1.811 -1.997,-7.181 1.281,-7.804Zm-2.851,1.994c-0.423,0.908 -0.57,1.639 -0.336,2.785c0.26,1.272 0.314,1.586 -0.406,0.791c-1.397,-1.868 -1.6,-4.84 -0.314,-5.182c1.243,-0.329 1.515,1.023 1.056,1.606Zm-41.859,-1.392c2.179,0.345 2.821,4.069 2.517,5.662c-0.578,1.928 -0.549,0.625 -0.751,-0.178c-0.536,-1.94 -1.157,-2.996 -1.821,-3.107c-1.787,-0.298 -1.537,-2.63 0.055,-2.377l0,0Zm16.703,0.732c0.038,-0.002 0.071,0.003 0.104,0.009c0.717,0.12 2.638,0.714 1.81,0.915l-2.834,0.015c-0.55,0.021 0.358,-0.898 0.92,-0.938l0,-0.001Zm76.319,0.609c0.275,-0.025 0.649,0.299 1.09,0.749c1.008,1.03 0.566,2.655 -0.797,3.456c-2.138,1.257 -4.573,-1.113 -3.398,-3.289c0.644,-1.195 1.419,-0.982 2.079,0.704c0.121,0.205 0,-0.211 0.225,-0.724c0.226,-0.511 0.526,-0.87 0.801,-0.896Zm-3.589,0.121l-0.641,2.59l-2.606,1.257l0.951,-3.192l2.296,-0.655Zm5.421,0.442l2.077,0.167l1.152,3.366l-2.993,-1.28l-0.236,-2.253Zm-49.063,1.902c1.511,0.063 1.664,1.494 0.797,2.12c-0.486,0.467 -0.654,1.142 -0.553,2.222c0.045,0.48 0.14,1.068 0.135,1.136c-0.014,0.231 -0.204,0.195 -0.464,-0.089c-1.595,-1.743 -1.382,-5.449 0.085,-5.389Zm-45.683,0.561c0.957,0 2.042,2.75 1.508,3.802c-0.337,0.618 -0.661,0.465 -0.784,-0.251c-0.091,-0.522 -0.39,-1.236 -1.161,-1.364c-1.122,-0.359 -0.757,-2.187 0.437,-2.187Zm48.444,1.663c0.731,0.38 0.8,1.223 0.139,1.695c-0.512,0.366 -0.647,0.676 -0.727,1.668c0.168,2.258 -1.097,0.825 -1.216,-1.229c-0.065,-1.118 0.538,-2.778 1.804,-2.134Zm-49.249,0.695c0.687,0 1.503,1.236 1.323,1.959c-0.097,0.573 -0.396,0.472 -0.816,0.046c-0.162,-0.127 -0.527,-0.259 -0.697,-0.31c-1.028,-0.312 -0.855,-1.695 0.19,-1.695l0,0Zm19.523,0.95c9.284,-0.043 18.942,1.435 26.969,4.65l-0.661,1.191l-2.107,-0.725l-0.723,1.915l1.736,0.664l-0.816,1.768c-9.474,-3.125 -19.691,-5.452 -36.671,-2.932c-0.843,-0.588 -2.366,-1.749 -2.366,-1.749l1.357,-0.299l-0.178,-1.892l-3.429,0.612l-1.002,-1.051c5.361,-1.379 11.538,-2.122 17.891,-2.152Zm31.141,0.415c0.889,0.001 1.441,1.002 0.789,1.431c-0.457,0.3 -1.471,0.382 -1.674,0.136c-0.421,-0.509 0.176,-1.568 0.885,-1.567Zm-32.452,1.171l-0.038,1.963l2.799,-0.09l0.058,-1.861l-2.819,-0.012Zm4.891,0.043l0.012,1.927l2.718,0.09l0.128,-1.889l-2.858,-0.128Zm-7.11,0.132l-2.75,0.182l0.085,1.8l2.726,-0.121l-0.061,-1.861Zm12.291,0.298l-0.069,1.858l2.764,0.307l0.201,-1.889l-2.896,-0.276Zm-17.407,0.09l-2.765,0.353l0.236,1.85l2.688,-0.299l-0.159,-1.904Zm22.751,0.601l-0.271,1.939l2.579,0.384l0.333,-1.842l-2.641,-0.481Zm5.112,1.086l-0.255,1.958l2.621,0.559l0.352,-1.819l-2.718,-0.698Zm-18.556,2.257c8.705,-0.01 16.638,1.494 23.319,4.041c0,0 -0.866,1.873 -1.171,2.075c-4.795,-1.919 -12.965,-3.704 -18.486,-3.801c-2.024,-0.075 -2.472,-0.129 -3.217,-0.387c-4.208,-1.389 -7.923,-1.989 -11.349,0.062l-1.4,-0.993c4.231,-0.675 8.347,-0.992 12.304,-0.997l0,0Zm-36.764,11.193c1.991,0.023 2.939,3.085 0.836,4.371c-0.565,0.32 -1.306,0.277 -1.903,0.008c-1.704,-0.814 -1.831,-3.356 0.155,-4.189c0.321,-0.134 0.628,-0.193 0.912,-0.19l0,0Zm65.06,0.101c0.712,0.437 3.344,1.606 3.344,1.606l-18.486,33.521l-4.474,0.035l19.616,-35.162Zm-59.626,0.079c1.108,-0.124 1.894,0.83 2.18,1.627c0.389,1.088 -0.31,3.02 -2.262,2.909c-2.24,-0.127 -3.244,-4.164 0.082,-4.536Zm63.573,1.744c0.496,0.273 2.292,0.572 2.448,0.919c0.067,0.174 -0.068,0.516 -0.108,0.958c-0.097,1.065 0.169,2.246 0.812,3.192c1.053,1.468 -0.088,0.794 -1.141,0.783c-2.376,-0.609 -5.404,2.639 -4.253,5.981c0.266,0.739 0.214,0.798 -1.06,1.187c-2.89,0.882 -4.151,3.959 -2.762,6.707c0.724,1.431 0.745,1.358 -0.528,1.465c-3.537,0.294 -5.591,3.441 -4.106,6.659c0.229,0.498 0.083,0.635 -0.689,0.779c-2.414,0.445 -3.495,2.47 -3.801,4.693l-3.193,0.031l18.381,-33.354Zm3.063,1.183l6.136,1.679c-2.548,8.691 -2.9,18.787 0.166,30.465l-14.109,0.012c1.96,-1.765 1.186,-4.202 -1.105,-4.739c2.223,-1.28 2.224,-4.685 -0.439,-5.095c-2.342,-0.36 -3.552,1.874 -2.511,4.111l-1.001,0.274c0,0 -0.448,-0.564 -0.55,-0.865c-0.884,-2.584 0.965,-5.148 4.117,-5.139c1.945,0.005 2.347,-0.547 1.273,-1.745c-1.921,-2.143 -1.317,-5.155 1.191,-6.339c1.155,-0.546 1.836,-0.185 1.836,-0.185l0.06,1.42c0,0 -0.469,0.046 -0.833,0.104c-2.77,0.444 -2.256,4.873 0.559,4.834c1.55,-0.021 2.658,-1.199 2.658,-2.892c0,-0.476 0,-1.178 0,-1.178c1.423,2.442 3.868,2.617 4.909,0.63c1.225,-2.338 -0.998,-3.808 -3.227,-3.567c0,0 0.467,-0.304 0.763,-0.457c2.373,-1.224 1.556,-4.722 -1.069,-4.722c-1.801,0 -2.852,1.678 -2.271,3.458c0.093,0.286 0.313,0.744 0.313,0.744l-1.071,0.272c0,0 -0.243,-0.186 -0.352,-0.356c-1.838,-2.883 1.114,-6.057 4.833,-5.337c1.362,0.428 1.318,-0.516 0.553,-1.369c-0.822,-1.23 -1.435,-2.623 -0.831,-4.018l0.002,0Zm-69.347,1.256l3.22,5.694l-3.607,6.558l-3.577,-6.143l3.964,-6.109Zm-0.318,2.963l-2.234,3.088l2.188,3.545l2.076,-3.588l-2.03,-3.045Zm-0.096,1.16l1.454,1.955l-1.466,2.401l-1.434,-2.254l1.446,-2.102Zm66.559,6.151c0.677,0 1.23,0.55 1.23,1.23c0,0.679 -0.553,1.229 -1.23,1.229c-0.677,0 -1.226,-0.55 -1.226,-1.229c0,-0.68 0.549,-1.23 1.226,-1.23Zm-8.671,15.436c0.702,0 1.272,0.569 1.272,1.273c0,0.703 -0.57,1.276 -1.272,1.276c-0.702,0 -1.268,-0.573 -1.268,-1.276c0,-0.704 0.566,-1.273 1.268,-1.273Zm-1.923,0.868c-0.116,0.049 0,1.155 0.281,1.614c-1.832,0.112 -2.317,1.518 -2.495,2.704l-1.641,-0.004c0.273,-4.013 3.739,-4.103 3.855,-4.314l0,0Z" style="fill-rule:nonzero;"/><path id="path153-6-3-1-9-55-1-6" d="M47.722,26.128c-7.357,10.505 -15.228,16.55 -15.359,24.745c-0.044,2.654 1.389,7.165 5.878,8.028c2.912,0.557 6.921,-1.802 7.005,-6.597c-0.013,-0.954 1.009,-0.93 1,0.378c-0.137,3.782 -1.333,8.185 -3.343,11.769l9.638,0c-2.01,-3.584 -3.205,-7.987 -3.342,-11.769c-0.01,-1.308 1.012,-1.332 0.999,-0.378c0.084,4.795 4.093,7.154 7.006,6.597c4.488,-0.863 5.921,-5.374 5.877,-8.028c-0.131,-8.195 -8.002,-14.24 -15.359,-24.745Z" style="fill-rule:nonzero;"/><path id="path153-6-3-1-8-6-8-8-0" d="M130.278,222.872c-7.357,-10.505 -15.228,-16.55 -15.359,-24.745c-0.044,-2.654 1.389,-7.165 5.878,-8.028c2.912,-0.558 6.921,1.802 7.005,6.597c-0.013,0.954 1.009,0.93 1,-0.378c-0.137,-3.782 -1.333,-8.185 -3.343,-11.769l9.638,0c-2.01,3.584 -3.205,7.987 -3.342,11.769c-0.01,1.308 1.012,1.332 0.999,0.378c0.084,-4.795 4.093,-7.155 7.006,-6.597c4.488,0.863 5.921,5.374 5.877,8.028c-0.131,8.195 -8.002,14.24 -15.359,24.745Z" style="fill-rule:nonzero;"/></g></g></svg>